<?xml version="1.0" encoding="UTF-8"?>
<!-- Generator: visioncortex VTracer 0.6.12 -->
<svg version="1.1" xmlns="http://www.w3.org/2000/svg" width="686" height="320">
<path d="M0 0 C0.392 0.002 0.392 0.002 2.376 0.014 C14.74 0.098 26.288 1.237 38.25 4.5 C40.23 4.995 40.23 4.995 50.25 7.5 C50.25 19.38 50.25 31.26 50.25 43.5 C45.317 42.678 41.363 41.471 36.812 39.625 C20.054 33.147 1.576 30.414 -15.75 36.5 C-26.058 41.354 -30.144 47.505 -34.375 57.75 C-34.821 58.828 -35.267 59.905 -35.727 61.016 C-36.064 61.835 -36.402 62.655 -36.75 63.5 C-37.41 63.5 -38.07 63.5 -38.75 63.5 C-39.41 67.46 -40.07 71.42 -40.75 75.5 C-39.688 75.018 -38.626 74.536 -37.531 74.039 C-36.104 73.401 -34.677 72.763 -33.25 72.125 C-32.554 71.808 -31.858 71.491 -31.141 71.164 C-12.997 63.1 7.647 64.068 26.008 71.062 C29.981 72.824 33.624 74.893 37.262 77.266 C39.25 78.5 39.25 78.5 42.25 79.5 C42.539 80.119 42.827 80.737 43.125 81.375 C44.606 84.172 46.565 84.917 49.25 86.5 C49.58 87.49 49.91 88.48 50.25 89.5 C50.91 90.098 51.57 90.696 52.25 91.312 C54.725 94.02 54.784 95.929 55.25 99.5 C55.91 100.16 56.57 100.82 57.25 101.5 C59.25 103.5 59.25 103.5 59.312 106.812 C59.292 108.029 59.271 109.246 59.25 110.5 C59.535 112.176 59.85 113.848 60.25 115.5 C60.91 115.5 61.57 115.5 62.25 115.5 C62.279 119.396 62.297 123.292 62.312 127.188 C62.321 128.29 62.329 129.393 62.338 130.529 C62.341 131.596 62.344 132.663 62.348 133.762 C62.353 134.741 62.358 135.72 62.364 136.729 C62.253 139.425 61.855 141.875 61.25 144.5 C60.59 144.5 59.93 144.5 59.25 144.5 C58.937 145.896 58.624 147.292 58.312 148.688 C58.218 149.101 58.218 149.101 57.742 151.195 C57.25 153.5 57.25 153.5 56.938 156.062 C55.842 159.946 53.663 163.283 51.25 166.5 C50.59 166.83 49.93 167.16 49.25 167.5 C48.961 168.139 48.673 168.779 48.375 169.438 C46.979 171.996 45.819 172.22 43.25 173.5 C42.012 174.549 40.805 175.636 39.625 176.75 C22.317 192.057 -0.47 194.81 -22.75 193.5 C-41.297 191.75 -55.267 183.577 -67.805 170.32 C-69.75 168.5 -69.75 168.5 -72.75 167.5 C-74.255 165.48 -75.574 163.519 -76.875 161.375 C-77.227 160.817 -77.227 160.817 -79.008 157.992 C-80.839 154.321 -81.303 151.549 -81.75 147.5 C-82.391 145.174 -83.078 142.861 -83.812 140.562 C-84.175 139.419 -84.537 138.276 -84.91 137.098 C-85.187 136.24 -85.464 135.383 -85.75 134.5 C-86.41 134.5 -87.07 134.5 -87.75 134.5 C-87.744 134.185 -87.744 134.185 -87.715 132.594 C-87.706 131.738 -87.697 130.882 -87.688 130 C-87.682 129.582 -87.682 129.582 -87.652 127.469 C-87.75 124.5 -87.75 124.5 -88.243 120.791 C-89.123 113.915 -88.991 106.984 -89 100.062 C-89.002 99.302 -89.004 98.541 -89.006 97.757 C-89.013 86.662 -88.196 76.339 -85.75 65.5 C-85.313 62.165 -85.016 58.853 -84.75 55.5 C-84.09 55.5 -83.43 55.5 -82.75 55.5 C-82.687 54.917 -82.624 54.335 -82.559 53.734 C-81.151 44.314 -76.723 36.014 -69.75 29.5 C-67.75 27.5 -67.75 27.5 -66.938 25.688 C-65.319 22.706 -63.287 20.735 -60.75 18.5 C-60.127 18.353 -59.505 18.206 -58.863 18.055 C-56.152 17.343 -54.536 16.011 -52.312 14.312 C-36.449 3.011 -19.01 -0.257 0 0 Z M-36.75 55.5 C-35.75 57.5 -35.75 57.5 -35.75 57.5 Z M-37.75 58.5 C-36.75 60.5 -36.75 60.5 -36.75 60.5 Z M-27.75 102.5 C-27.75 103.49 -27.75 104.48 -27.75 105.5 C-28.773 107.508 -28.773 107.508 -30.125 109.625 C-30.566 110.329 -31.007 111.033 -31.461 111.758 C-32.75 113.5 -32.75 113.5 -34.75 114.5 C-37.14 123.263 -38.436 135.112 -34.832 143.684 C-34.475 144.283 -34.118 144.882 -33.75 145.5 C-33.408 146.088 -33.067 146.676 -32.715 147.281 C-32.376 147.848 -32.037 148.416 -31.688 149 C-30.496 151.032 -29.775 152.351 -29.375 154.688 C-28.252 157.945 -25.667 158.909 -22.75 160.5 C-14.887 163.299 -6.824 163.228 0.812 159.625 C6.025 156.872 7.299 152.057 9.25 146.812 C10.25 144.5 10.25 144.5 12.25 142.5 C14.099 133.809 14.257 123.947 11.25 115.5 C10.59 114.84 9.93 114.18 9.25 113.5 C9.125 110.875 9.125 110.875 9.25 108.5 C8.26 108.17 7.27 107.84 6.25 107.5 C5.917 106.167 5.583 104.833 5.25 103.5 C4.26 103.17 3.27 102.84 2.25 102.5 C1.25 101.5 0.25 100.5 -0.75 99.5 C-9.44 96.603 -20.174 97.449 -27.75 102.5 Z M57.25 104.5 C58.25 106.5 58.25 106.5 58.25 106.5 Z M9.25 111.5 C10.25 113.5 10.25 113.5 10.25 113.5 Z M-33.75 146.5 C-32.75 148.5 -32.75 148.5 -32.75 148.5 Z M55.25 153.5 C56.25 155.5 56.25 155.5 56.25 155.5 Z " fill="#888D93" transform="translate(440.75,38.5)"/>
<path d="M0 0 C2.692 2.529 5.258 5.124 7.773 7.828 C9.835 9.839 11.453 10.774 14 12 C15.188 14.5 15.188 14.5 16 17 C17 19 17 19 18.5 20.188 C20.728 22.879 20.679 25.598 21 29 C21.66 29 22.32 29 23 29 C23.133 29.869 23.266 30.738 23.402 31.633 C23.491 32.209 23.491 32.209 23.938 35.125 C24.112 36.262 24.286 37.399 24.465 38.57 C24.789 40.648 25.136 42.723 25.525 44.79 C26.025 48.172 26.129 51.379 26.133 54.797 C26.134 56.086 26.135 57.375 26.137 58.703 C26.135 59.369 26.133 60.035 26.13 60.721 C26.125 62.731 26.13 64.74 26.137 66.75 C26.115 88.828 26.115 88.828 22 95 C19.963 99.035 18.178 102.823 17.5 107.312 C16.869 110.702 15.508 111.72 13 114 C12.691 114.681 12.381 115.361 12.062 116.062 C10.605 118.72 8.583 119.463 6 121 C4.013 123.263 2.346 125.308 1 128 C-0.667 128.334 -2.333 128.667 -4 129 C-5.941 129.93 -7.857 130.913 -9.75 131.938 C-23.554 138.915 -38.805 138.712 -53.477 134.348 C-59.073 132.207 -63.966 129.208 -69 126 C-69.749 125.662 -70.498 125.325 -71.27 124.977 C-73 124 -73 124 -74 121 C-74.66 121 -75.32 121 -76 121 C-76.33 142.45 -76.66 163.9 -77 186 C-92.84 186 -108.68 186 -125 186 C-125 122.31 -125 58.62 -125 -7 C-109.82 -7 -94.64 -7 -79 -7 C-79 -1.39 -79 4.22 -79 10 C-77.907 9.01 -76.814 8.02 -75.688 7 C-54.122 -11.718 -24.473 -18.472 0 0 Z M-64 26 C-64.33 26.99 -64.66 27.98 -65 29 C-66.328 29.354 -67.662 29.685 -69 30 C-70.688 31.188 -70.688 31.188 -72 33 C-72.34 34.999 -72.673 36.999 -73 39 C-73.953 40.367 -74.954 41.703 -76 43 C-79.105 49.383 -79.195 56.345 -79.188 63.312 C-79.187 64.054 -79.186 64.796 -79.185 65.561 C-79.124 71.09 -78.963 76.766 -77 82 C-76.34 82.33 -75.68 82.66 -75 83 C-74.299 85.323 -73.635 87.658 -73 90 C-71.6 93.7 -71.6 93.7 -69 95 C-67 96 -67 96 -66.25 97.938 C-64.6 100.661 -62.645 101.475 -59.676 102.457 C-50.537 104.311 -41.887 104.151 -34 99 C-34 98.34 -34 97.68 -34 97 C-33.34 96.835 -33.34 96.835 -30 96 C-29.875 95.426 -29.75 94.853 -29.621 94.262 C-28.984 91.942 -28.132 89.965 -27.062 87.812 C-26.723 87.118 -26.384 86.423 -26.035 85.707 C-25 84 -25 84 -23 83 C-19.074 71.391 -19.713 55.681 -23 44 C-23.66 44 -24.32 44 -25 44 C-25.165 42.68 -25.165 42.68 -26 36 C-26.99 35.67 -27.98 35.34 -29 35 C-29.103 34.423 -29.206 33.845 -29.312 33.25 C-30.402 29.685 -32.962 27.915 -36 26 C-44.713 21.81 -55.347 21.21 -64 26 Z M22 32 C23 34 23 34 23 34 Z M-26 38 C-25 40 -25 40 -25 40 Z M-75 39 C-74 41 -74 41 -74 41 Z M-25 41 C-24 43 -24 43 -24 43 Z M-76 83 C-75 85 -75 85 -75 85 Z M-26 86 C-25 88 -25 88 -25 88 Z " fill="#888D93" transform="translate(660,95)"/>
<path d="M0 0 C39.93 0 79.86 0 121 0 C121 37 121 37 120 39 C94.26 39 68.52 39 42 39 C42 46.26 42 53.52 42 61 C43.885 60.965 45.769 60.93 47.711 60.895 C70.53 60.597 89.379 62.308 110 73 C110.495 73.165 110.495 73.165 113 74 C113.688 75.323 114.352 76.657 115 78 C116.656 79.668 116.656 79.668 118.5 81.188 C119.108 81.697 119.717 82.206 120.344 82.73 C122 84 122 84 124 85 C124.33 85.99 124.66 86.98 125 88 C125.248 88.217 125.248 88.217 126.5 89.312 C128.606 91.682 128.494 93.886 129 97 C129.647 99.138 130.335 101.263 131.062 103.375 C131.425 104.435 131.787 105.494 132.16 106.586 C132.437 107.383 132.714 108.179 133 109 C133.66 109 134.32 109 135 109 C134.906 114.16 134.8 119.319 134.683 124.479 C134.644 126.232 134.61 127.986 134.578 129.739 C134.532 132.267 134.474 134.793 134.414 137.32 C134.403 138.099 134.391 138.877 134.379 139.679 C134.259 144.145 133.669 147.79 132 152 C131.34 152 130.68 152 130 152 C129.711 152.887 129.423 153.774 129.125 154.688 C128.754 155.781 128.382 156.874 128 158 C127.732 158.846 127.464 159.691 127.188 160.562 C125.628 163.763 123.631 165.603 121 168 C120.771 168.22 120.771 168.22 119.609 169.332 C98.577 188.612 72.609 192.145 45.117 191.164 C27.064 190.214 9.855 185.32 -7 179 C-7 166.13 -7 153.26 -7 140 C-3.807 141.277 -0.754 142.552 2.336 144.023 C22.577 153.51 45.302 161.056 67.418 153.211 C70.885 151.585 72.674 150.024 75 147 C76.711 145.226 77.796 144.102 80 143 C80.402 140.678 80.727 138.341 81 136 C81.32 134.331 81.647 132.663 82 131 C82.66 131 83.32 131 84 131 C84 127.7 84 124.4 84 121 C83.34 121 82.68 121 82 121 C81.903 120.668 81.903 120.668 81.414 118.988 C80.627 116.32 79.814 113.66 79 111 C78.866 110.536 78.866 110.536 78.188 108.188 C74.659 101.687 67.729 99.093 61 97 C41.303 92.949 22.27 98.782 3.885 105.405 C2 106 2 106 0 106 C0 71.02 0 36.04 0 0 Z M40 39 C40 46.59 40 54.18 40 62 C40.33 62 40.66 62 41 62 C41 54.41 41 46.82 41 39 C40.67 39 40.34 39 40 39 Z M42 62 C42 62.33 42 62.66 42 63 C43.65 63 45.3 63 47 63 C47 62.67 47 62.34 47 62 C45.35 62 43.7 62 42 62 Z M82 113 C83 116 83 116 83 116 Z M132 143 C133 146 133 146 133 146 Z M131 147 C132 149 132 149 132 149 Z " fill="#878C93" transform="translate(7,41)"/>
<path d="M0 0 C18.48 -0.023 36.96 -0.041 55.44 -0.052 C64.02 -0.057 72.6 -0.064 81.18 -0.075 C88.656 -0.085 96.133 -0.092 103.609 -0.094 C107.57 -0.095 111.53 -0.098 115.491 -0.106 C119.215 -0.112 122.94 -0.115 126.665 -0.113 C128.035 -0.113 129.404 -0.115 130.774 -0.119 C132.639 -0.124 134.504 -0.122 136.369 -0.12 C137.414 -0.121 138.459 -0.122 139.536 -0.123 C142 0 142 0 144 1 C144.117 5.5 144.187 9.999 144.25 14.5 C144.284 15.768 144.317 17.037 144.352 18.344 C144.429 25.742 144.027 30.721 140 37 C139.34 37 138.68 37 138 37 C137.959 37.485 137.959 37.485 137.754 39.941 C137.075 44.695 135.054 48.671 132.938 52.938 C132.749 53.327 132.749 53.327 131.795 55.299 C130.872 57.203 129.937 59.102 129 61 C128.34 61 127.68 61 127 61 C126.897 62.072 126.794 63.145 126.688 64.25 C126.015 67.916 125.402 69.297 123 72 C122 74 122 74 121.691 76.074 C120.699 80.273 118.815 83.944 116.938 87.812 C116.56 88.601 116.183 89.389 115.795 90.201 C114.868 92.137 113.935 94.069 113 96 C112.34 96 111.68 96 111 96 C110.907 96.989 110.815 97.978 110.719 98.997 C110.082 103.404 108.403 107.063 106.492 111.055 C106.135 111.821 105.777 112.588 105.408 113.378 C104.239 115.881 103.057 118.378 101.875 120.875 C100.645 123.499 99.419 126.125 98.192 128.75 C97.358 130.535 96.523 132.319 95.687 134.102 C91.315 143.434 87.066 152.82 82.837 162.216 C79.875 168.794 76.883 175.358 73.766 181.863 C73.304 182.832 72.843 183.8 72.368 184.798 C71 187 71 187 68 188 C66.45 188.087 64.897 188.118 63.345 188.114 C62.404 188.113 61.463 188.113 60.494 188.113 C59.482 188.108 58.469 188.103 57.426 188.098 C56.906 188.097 56.906 188.097 54.277 188.093 C50.956 188.088 47.634 188.075 44.312 188.062 C42.062 188.057 39.811 188.053 37.561 188.049 C32.04 188.038 26.52 188.021 21 188 C20.082 184.049 19.932 182.273 21.938 178.688 C22.318 177.99 22.698 177.293 23.09 176.574 C23.39 176.055 23.691 175.535 24 175 C24.66 175 25.32 175 26 175 C26.082 174.035 26.164 173.07 26.248 172.076 C26.945 167.249 28.955 163.158 31.035 158.785 C31.234 158.357 31.234 158.357 32.242 156.192 C33.507 153.478 34.784 150.77 36.062 148.062 C36.926 146.216 37.789 144.369 38.65 142.521 C40.757 138.01 42.876 133.503 45 129 C45.66 129 46.32 129 47 129 C47.089 128.018 47.178 127.036 47.269 126.024 C47.926 121.488 49.715 117.715 51.691 113.613 C51.88 113.212 51.88 113.212 52.835 111.179 C53.647 109.451 54.463 107.726 55.283 106.002 C57.459 101.427 59.605 96.838 61.754 92.25 C62.192 91.316 62.63 90.382 63.082 89.42 C68.224 78.436 73.122 67.347 78.01 56.249 C78.326 55.533 78.642 54.817 78.967 54.079 C79.548 52.761 80.128 51.442 80.706 50.121 C82.368 46.346 84.151 42.698 86 39 C57.62 39 29.24 39 0 39 C0 38.67 0 38.34 0 38 C1.1 38.002 2.201 38.004 3.334 38.007 C13.679 38.027 24.024 38.042 34.37 38.052 C39.689 38.057 45.008 38.064 50.327 38.075 C55.456 38.086 60.584 38.092 65.713 38.095 C67.674 38.097 69.636 38.1 71.597 38.106 C74.334 38.113 77.071 38.114 79.808 38.114 C80.628 38.117 81.447 38.121 82.291 38.124 C87.886 38.114 87.886 38.114 89 37 C59.63 37 30.26 37 0 37 C0 24.79 0 12.58 0 0 Z M83 48 C84 50 84 50 84 50 Z M132 48 C133 50 133 50 133 50 Z M78 59 C79 61 79 61 79 61 Z M73 70 C74 72 74 72 74 72 Z M68 81 C69 83 69 83 69 83 Z M116 83 C117 85 117 85 117 85 Z M62 94 C63 96 63 96 63 96 Z M57 105 C58 107 58 107 58 107 Z M105 107 C106 109 106 109 106 109 Z M52 116 C53 118 53 118 53 118 Z M100 118 C101 120 101 120 101 120 Z M95 129 C96 131 96 131 96 131 Z M94 131 C95 133 95 133 95 133 Z M42 138 C43 140 43 140 43 140 Z M41 140 C42 142 42 142 42 142 Z M89 142 C90 144 90 144 90 144 Z M36 151 C37 153 37 153 37 153 Z M84 153 C85 155 85 155 85 155 Z M31 162 C32 164 32 164 32 164 Z M78 166 C79 168 79 168 79 168 Z M73 177 C74 179 74 179 74 179 Z " fill="#878C92" transform="translate(175,41)"/>
<path d="M0 0 C0.33 0 0.66 0 1 0 C1 63.69 1 127.38 1 193 C0.67 193 0.34 193 0 193 C0 129.31 0 65.62 0 0 Z " fill="#AAAAAA" transform="translate(533,88)"/>
<path d="M0 0 C46.2 0 92.4 0 140 0 C140 0.33 140 0.66 140 1 C93.8 1 47.6 1 0 1 C0 0.67 0 0.34 0 0 Z " fill="#FFFFFF" transform="translate(176,39)"/>
<path d="M0 0 C39.6 0 79.2 0 120 0 C120 0.33 120 0.66 120 1 C80.4 1 40.8 1 0 1 C0 0.67 0 0.34 0 0 Z " fill="#FCFCFC" transform="translate(7,39)"/>
<path d="M0 0 C0.33 0 0.66 0 1 0 C1 34.65 1 69.3 1 105 C0.67 105 0.34 105 0 105 C0 70.35 0 35.7 0 0 Z " fill="#808080" transform="translate(5,42)"/>
<path d="M0 0 C15.18 0 30.36 0 46 0 C46 0.33 46 0.66 46 1 C30.82 1 15.64 1 0 1 C0 0.67 0 0.34 0 0 Z " fill="#000000" transform="translate(197,230)"/>
<path d="M0 0 C15.18 0 30.36 0 46 0 C46 0.33 46 0.66 46 1 C30.82 1 15.64 1 0 1 C0 0.67 0 0.34 0 0 Z " fill="#818183" transform="translate(535,86)"/>
<path d="M0 0 C0.33 0 0.66 0 1 0 C1 11.88 1 23.76 1 36 C0.67 36 0.34 36 0 36 C0 24.12 0 12.24 0 0 Z " fill="#7B7B7B" transform="translate(173,42)"/>
<path d="M0 0 C0.33 0 0.66 0 1 0 C1 11.55 1 23.1 1 35 C0.67 35 0.34 35 0 35 C0 23.45 0 11.9 0 0 Z " fill="#7F7F7F" transform="translate(129,42)"/>
<path d="M0 0 C0.33 0 0.66 0 1 0 C1 11.22 1 22.44 1 34 C0.67 34 0.34 34 0 34 C0 22.78 0 11.56 0 0 Z " fill="#8D8F92" transform="translate(350,121)"/>
<path d="M0 0 C8.58 0 17.16 0 26 0 C26 0.33 26 0.66 26 1 C17.42 1 8.84 1 0 1 C0 0.67 0 0.34 0 0 Z " fill="#808A8D" transform="translate(49,233)"/>
<path d="M0 0 C7.26 0 14.52 0 22 0 C22 0.33 22 0.66 22 1 C14.74 1 7.48 1 0 1 C0 0.67 0 0.34 0 0 Z " fill="#838686" transform="translate(418,233)"/>
<path d="M0 0 C0.33 0 0.66 0 1 0 C1 7.26 1 14.52 1 22 C0.67 22 0.34 22 0 22 C0 14.74 0 7.48 0 0 Z " fill="#828282" transform="translate(142,156)"/>
<path d="M0 0 C0.66 0.33 1.32 0.66 2 1 C0.502 5.662 -2.885 6.866 -7 9 C-5.445 5.183 -2.964 2.808 0 0 Z " fill="#777783" transform="translate(380,57)"/>
<path d="M0 0 C2 0 2 0 3.438 1.312 C3.695 1.591 3.695 1.591 5 3 C5.557 3.557 6.114 4.114 6.688 4.688 C7.121 5.121 7.554 5.554 8 6 C5.688 6.25 5.688 6.25 3 6 C1.024 3.956 0 2.882 0 0 Z " fill="#909399" transform="translate(585,185)"/>
<path d="M0 0 C0.33 0 0.66 0 1 0 C1 5.94 1 11.88 1 18 C0.67 18 0.34 18 0 18 C0 12.06 0 6.12 0 0 Z " fill="#8D8D8D" transform="translate(637,149)"/>
<path d="M0 0 C5.61 0 11.22 0 17 0 C17 0.33 17 0.66 17 1 C11.39 1 5.78 1 0 1 C0 0.67 0 0.34 0 0 Z " fill="#7F8489" transform="translate(618,233)"/>
<path d="M0 0 C1.875 0.312 1.875 0.312 4 1 C4.66 1.99 5.32 2.98 6 4 C5.67 4.66 5.34 5.32 5 6 C3.062 5.25 3.062 5.25 1 4 C0.25 1.875 0.25 1.875 0 0 Z " fill="#707284" transform="translate(586,215)"/>
<path d="M0 0 C5.61 0 11.22 0 17 0 C17 0.33 17 0.66 17 1 C11.39 1 5.78 1 0 1 C0 0.67 0 0.34 0 0 Z " fill="#959595" transform="translate(46,196)"/>
<path d="M0 0 C0.33 0 0.66 0 1 0 C1 5.61 1 11.22 1 17 C0.67 17 0.34 17 0 17 C0 11.39 0 5.78 0 0 Z " fill="#7C7C81" transform="translate(582,150)"/>
<path d="M0 0 C5.61 0 11.22 0 17 0 C17 0.33 17 0.66 17 1 C11.39 1 5.78 1 0 1 C0 0.67 0 0.34 0 0 Z " fill="#7A7A7A" transform="translate(61,100)"/>
<path d="M0 0 C0.33 0 0.66 0 1 0 C1.33 4.95 1.66 9.9 2 15 C1.67 15.165 1.67 15.165 0 16 C0 10.72 0 5.44 0 0 Z " fill="#7F7F7F" transform="translate(582,88)"/>
<path d="M0 0 C4.95 0 9.9 0 15 0 C15 0.33 15 0.66 15 1 C10.05 1 5.1 1 0 1 C0 0.67 0 0.34 0 0 Z " fill="#AFAFAF" transform="translate(603,196)"/>
<path d="M0 0 C4.95 0 9.9 0 15 0 C15 0.33 15 0.66 15 1 C10.05 1 5.1 1 0 1 C0 0.67 0 0.34 0 0 Z " fill="#9E9EC0" transform="translate(422,138)"/>
<path d="M0 0 C4.95 0 9.9 0 15 0 C15 0.33 15 0.66 15 1 C10.05 1 5.1 1 0 1 C0 0.67 0 0.34 0 0 Z " fill="#989898" transform="translate(47,137)"/>
<path d="M0 0 C4.95 0 9.9 0 15 0 C15 0.33 15 0.66 15 1 C10.05 1 5.1 1 0 1 C0 0.67 0 0.34 0 0 Z " fill="#818181" transform="translate(438,72)"/>
<path d="M0 0 C2.31 1.98 4.62 3.96 7 6 C4 6 4 6 1.812 4.125 C0 2 0 2 0 0 Z " fill="#9C9CA1" transform="translate(372,209)"/>
<path d="M0 0 C0.33 0 0.66 0 1 0 C1 3.63 1 7.26 1 11 C0.67 11 0.34 11 0 11 C0 7.37 0 3.74 0 0 Z " fill="#9EA6AD" transform="translate(452,163)"/>
<path d="M0 0 C2.622 1.049 3.794 1.649 5.25 4.125 C5.497 4.744 5.745 5.362 6 6 C3.979 4.358 1.98 2.691 0 1 C0 0.67 0 0.34 0 0 Z " fill="#8E8E8E" transform="translate(663,97)"/>
<path d="M0 0 C0.33 0 0.66 0 1 0 C1 3.3 1 6.6 1 10 C0.67 10 0.34 10 0 10 C0 6.7 0 3.4 0 0 Z " fill="#878787" transform="translate(90,162)"/>
<path d="M0 0 C3.3 0 6.6 0 10 0 C10 0.33 10 0.66 10 1 C6.7 1 3.4 1 0 1 C0 0.67 0 0.34 0 0 Z " fill="#767F7F" transform="translate(605,119)"/>
<path d="M0 0 C0.33 0 0.66 0 1 0 C1.33 2.31 1.66 4.62 2 7 C1.01 7.33 0.02 7.66 -1 8 C-0.67 5.36 -0.34 2.72 0 0 Z " fill="#92A3A3" transform="translate(401,106)"/>
<path d="M0 0 C2.97 0 5.94 0 9 0 C9 0.33 9 0.66 9 1 C6.03 1 3.06 1 0 1 C0 0.67 0 0.34 0 0 Z " fill="#969696" transform="translate(40,232)"/>
<path d="M0 0 C0.33 0 0.66 0 1 0 C1 2.97 1 5.94 1 9 C0.67 9 0.34 9 0 9 C0 6.03 0 3.06 0 0 Z " fill="#888888" transform="translate(406,171)"/>
<path d="M0 0 C0.33 0 0.66 0 1 0 C1 2.97 1 5.94 1 9 C0.67 9 0.34 9 0 9 C0 6.03 0 3.06 0 0 Z " fill="#848484" transform="translate(406,157)"/>
<path d="M0 0 C2.97 0 5.94 0 9 0 C9 0.33 9 0.66 9 1 C6.03 1 3.06 1 0 1 C0 0.67 0 0.34 0 0 Z " fill="#7A8484" transform="translate(442,103)"/>
<path d="M0 0 C2.97 0 5.94 0 9 0 C9 0.33 9 0.66 9 1 C6.03 1 3.06 1 0 1 C0 0.67 0 0.34 0 0 Z " fill="#75757F" transform="translate(78,101)"/>
<path d="M0 0 C2.97 0 5.94 0 9 0 C9 0.33 9 0.66 9 1 C6.03 1 3.06 1 0 1 C0 0.67 0 0.34 0 0 Z " fill="#6C6C88" transform="translate(615,83)"/>
<path d="M0 0 C0.33 0 0.66 0 1 0 C1 2.64 1 5.28 1 8 C0.67 8 0.34 8 0 8 C0 5.36 0 2.72 0 0 Z " fill="#898989" transform="translate(351,155)"/>
<path d="M0 0 C2.64 0 5.28 0 8 0 C8 0.33 8 0.66 8 1 C5.36 1 2.72 1 0 1 C0 0.67 0 0.34 0 0 Z " fill="#6F7A7A" transform="translate(39,138)"/>
<path d="M0 0 C2.64 0 5.28 0 8 0 C8 0.33 8 0.66 8 1 C5.36 1 2.72 1 0 1 C0 0.67 0 0.34 0 0 Z " fill="#797979" transform="translate(424,103)"/>
<path d="M0 0 C2.64 0 5.28 0 8 0 C8 0.33 8 0.66 8 1 C5.36 1 2.72 1 0 1 C0 0.67 0 0.34 0 0 Z " fill="#000000" transform="translate(433,102)"/>
<path d="M0 0 C2.64 0 5.28 0 8 0 C8 0.33 8 0.66 8 1 C5.36 1 2.72 1 0 1 C0 0.67 0 0.34 0 0 Z " fill="#7F7F7F" transform="translate(630,83)"/>
<path d="M0 0 C2.31 0 4.62 0 7 0 C7 0.33 7 0.66 7 1 C4.69 1 2.38 1 0 1 C0 0.67 0 0.34 0 0 Z " fill="#667373" transform="translate(440,232)"/>
<path d="M0 0 C2.31 0 4.62 0 7 0 C7 0.33 7 0.66 7 1 C4.69 1 2.38 1 0 1 C0 0.67 0 0.34 0 0 Z " fill="#67678B" transform="translate(411,232)"/>
<path d="M0 0 C2.31 0 4.62 0 7 0 C7 0.33 7 0.66 7 1 C4.69 1 2.38 1 0 1 C0 0.67 0 0.34 0 0 Z " fill="#979797" transform="translate(76,232)"/>
<path d="M0 0 C0.33 0 0.66 0 1 0 C1 2.31 1 4.62 1 7 C0.67 7 0.34 7 0 7 C0 4.69 0 2.38 0 0 Z " fill="#7F7F7F" transform="translate(451,156)"/>
<path d="M0 0 C0.33 0 0.66 0 1 0 C1 2.31 1 4.62 1 7 C0.67 7 0.34 7 0 7 C0 4.69 0 2.38 0 0 Z " fill="#858585" transform="translate(583,143)"/>
<path d="M0 0 C0.33 0 0.66 0 1 0 C1 2.31 1 4.62 1 7 C0.67 7 0.34 7 0 7 C0 4.69 0 2.38 0 0 Z " fill="#9D9D9D" transform="translate(351,114)"/>
<path d="M0 0 C2.31 0 4.62 0 7 0 C7 0.33 7 0.66 7 1 C4.69 1 2.38 1 0 1 C0 0.67 0 0.34 0 0 Z " fill="#7F8B8B" transform="translate(54,101)"/>
<path d="M0 0 C1.98 0 3.96 0 6 0 C6 0.33 6 0.66 6 1 C4.02 1 2.04 1 0 1 C0 0.67 0 0.34 0 0 Z " fill="#71719B" transform="translate(34,231)"/>
<path d="M0 0 C1.98 0 3.96 0 6 0 C6 0.33 6 0.66 6 1 C4.02 1 2.04 1 0 1 C0 0.67 0 0.34 0 0 Z " fill="#8D8D8D" transform="translate(40,195)"/>
<path d="M0 0 C0.33 0 0.66 0 1 0 C1 1.98 1 3.96 1 6 C0.67 6 0.34 6 0 6 C0 4.02 0 2.04 0 0 Z " fill="#8D8D8D" transform="translate(451,175)"/>
<path d="M0 0 C0.33 0 0.66 0 1 0 C1 1.98 1 3.96 1 6 C0.67 6 0.34 6 0 6 C0 4.02 0 2.04 0 0 Z " fill="#719B9B" transform="translate(636,168)"/>
<path d="M0 0 C0.33 0 0.66 0 1 0 C1 1.98 1 3.96 1 6 C0.67 6 0.34 6 0 6 C0 4.02 0 2.04 0 0 Z " fill="#8D8D8D" transform="translate(583,167)"/>
<path d="M0 0 C0.33 0 0.66 0 1 0 C1 1.98 1 3.96 1 6 C0.67 6 0.34 6 0 6 C0 4.02 0 2.04 0 0 Z " fill="#8D8D8D" transform="translate(636,143)"/>
<path d="M0 0 C1.98 0 3.96 0 6 0 C6 0.33 6 0.66 6 1 C4.02 1 2.04 1 0 1 C0 0.67 0 0.34 0 0 Z " fill="#949494" transform="translate(62,138)"/>
<path d="M0 0 C0.33 0 0.66 0 1 0 C1 1.98 1 3.96 1 6 C0.67 6 0.34 6 0 6 C0 4.02 0 2.04 0 0 Z " fill="#5B5B5B" transform="translate(352,108)"/>
<path d="M0 0 C1.98 0 3.96 0 6 0 C6 0.33 6 0.66 6 1 C4.02 1 2.04 1 0 1 C0 0.67 0 0.34 0 0 Z " fill="#717171" transform="translate(454,73)"/>
<path d="M0 0 C1.98 0 3.96 0 6 0 C6 0.33 6 0.66 6 1 C4.02 1 2.04 1 0 1 C0 0.67 0 0.34 0 0 Z " fill="#7F7F7F" transform="translate(432,73)"/>
<path d="M0 0 C1.65 0 3.3 0 5 0 C5 0.33 5 0.66 5 1 C3.35 1 1.7 1 0 1 C0 0.67 0 0.34 0 0 Z " fill="#BABABA" transform="translate(635,232)"/>
<path d="M0 0 C1.65 0 3.3 0 5 0 C5 0.33 5 0.66 5 1 C3.35 1 1.7 1 0 1 C0 0.67 0 0.34 0 0 Z " fill="#A1A1A1" transform="translate(613,232)"/>
<path d="M0 0 C1.65 0 3.3 0 5 0 C5 0.33 5 0.66 5 1 C3.35 1 1.7 1 0 1 C0 0.67 0 0.34 0 0 Z " fill="#767676" transform="translate(83,231)"/>
<path d="M0 0 C1.65 0 3.3 0 5 0 C5 0.33 5 0.66 5 1 C3.35 1 1.7 1 0 1 C0 0.67 0 0.34 0 0 Z " fill="#909090" transform="translate(29,230)"/>
<path d="M0 0 C1.65 0 3.3 0 5 0 C5 0.33 5 0.66 5 1 C3.35 1 1.7 1 0 1 C0 0.67 0 0.34 0 0 Z " fill="#767676" transform="translate(432,198)"/>
<path d="M0 0 C1.65 0 3.3 0 5 0 C5 0.33 5 0.66 5 1 C3.35 1 1.7 1 0 1 C0 0.67 0 0.34 0 0 Z " fill="#7F7F90" transform="translate(421,198)"/>
<path d="M0 0 C1.65 0 3.3 0 5 0 C5 0.33 5 0.66 5 1 C3.35 1 1.7 1 0 1 C0 0.67 0 0.34 0 0 Z " fill="#7F7F7F" transform="translate(64,195)"/>
<path d="M0 0 C1.65 0 3.3 0 5 0 C5 0.33 5 0.66 5 1 C3.35 1 1.7 1 0 1 C0 0.67 0 0.34 0 0 Z " fill="#545454" transform="translate(35,194)"/>
<path d="M0 0 C0.33 0 0.66 0 1 0 C1 1.65 1 3.3 1 5 C0.67 5 0.34 5 0 5 C0 3.35 0 1.7 0 0 Z " fill="#A1A1A1" transform="translate(141,178)"/>
<path d="M0 0 C0.33 0 0.66 0 1 0 C1 1.65 1 3.3 1 5 C0.67 5 0.34 5 0 5 C0 3.35 0 1.7 0 0 Z " fill="#90A1A1" transform="translate(352,163)"/>
<path d="M0 0 C0.33 0 0.66 0 1 0 C1 1.65 1 3.3 1 5 C0.67 5 0.34 5 0 5 C0 3.35 0 1.7 0 0 Z " fill="#9090A1" transform="translate(501,149)"/>
<path d="M0 0 C1.65 0 3.3 0 5 0 C5 0.33 5 0.66 5 1 C3.35 1 1.7 1 0 1 C0 0.67 0 0.34 0 0 Z " fill="#B2B2B2" transform="translate(34,139)"/>
<path d="M0 0 C1.65 0 3.3 0 5 0 C5 0.33 5 0.66 5 1 C3.35 1 1.7 1 0 1 C0 0.67 0 0.34 0 0 Z " fill="#659898" transform="translate(451,104)"/>
<path d="M0 0 C1.65 0 3.3 0 5 0 C5 0.33 5 0.66 5 1 C3.35 1 1.7 1 0 1 C0 0.67 0 0.34 0 0 Z " fill="#656565" transform="translate(419,104)"/>
<path d="M0 0 C1.65 0 3.3 0 5 0 C5 0.33 5 0.66 5 1 C3.35 1 1.7 1 0 1 C0 0.67 0 0.34 0 0 Z " fill="#767676" transform="translate(87,102)"/>
<path d="M0 0 C1.65 0 3.3 0 5 0 C5 0.33 5 0.66 5 1 C3.35 1 1.7 1 0 1 C0 0.67 0 0.34 0 0 Z " fill="#767683" transform="translate(466,39)"/>
<path d="M0 0 C1.65 0 3.3 0 5 0 C5 0.33 5 0.66 5 1 C3.35 1 1.7 1 0 1 C0 0.67 0 0.34 0 0 Z " fill="#7F7F7F" transform="translate(413,39)"/>
<path d="M0 0 C4 1 4 1 4 1 Z " fill="#8A8A8A" transform="translate(640,231)"/>
<path d="M0 0 C4 1 4 1 4 1 Z " fill="#7F7F7F" transform="translate(447,231)"/>
<path d="M0 0 C4 1 4 1 4 1 Z " fill="#9FB4B4" transform="translate(407,231)"/>
<path d="M0 0 C4 1 4 1 4 1 Z " fill="#8AC9C9" transform="translate(403,230)"/>
<path d="M0 0 C4 1 4 1 4 1 Z " fill="#6A6A6A" transform="translate(89,230)"/>
<path d="M0 0 C4 1 4 1 4 1 Z " fill="#A9A9A9" transform="translate(25,229)"/>
<path d="M0 0 C4 1 4 1 4 1 Z " fill="#9F9F9F" transform="translate(427,199)"/>
<path d="M0 0 C4 1 4 1 4 1 Z " fill="#7F7F7F" transform="translate(599,195)"/>
<path d="M0 0 C0.99 0.33 1.98 0.66 3 1 C2.01 1 1.02 1 0 1 C0 0.67 0 0.34 0 0 Z " fill="#4E5B70" transform="translate(413,194)"/>
<path d="M0 0 C0.33 0.165 0.33 0.165 2 1 C1.67 1.66 1.34 2.32 1 3 C0.67 2.01 0.34 1.02 0 0 Z " fill="#5F5F5F" transform="translate(588,185)"/>
<path d="M0 0 C1 4 1 4 1 4 Z " fill="#7F7F8F" transform="translate(685,179)"/>
<path d="M0 0 C1 4 1 4 1 4 Z " fill="#949494" transform="translate(635,174)"/>
<path d="M0 0 C1 4 1 4 1 4 Z " fill="#4A4A74" transform="translate(354,173)"/>
<path d="M0 0 C1 4 1 4 1 4 Z " fill="#5F5F5F" transform="translate(407,153)"/>
<path d="M0 0 C1 4 1 4 1 4 Z " fill="#A9A9A9" transform="translate(140,146)"/>
<path d="M0 0 C1 4 1 4 1 4 Z " fill="#546A6A" transform="translate(500,145)"/>
<path d="M0 0 C4 1 4 1 4 1 Z " fill="#74B4C9" transform="translate(26,141)"/>
<path d="M0 0 C1 4 1 4 1 4 Z " fill="#549494" transform="translate(584,139)"/>
<path d="M0 0 C4 1 4 1 4 1 Z " fill="#8A8AB4" transform="translate(30,140)"/>
<path d="M0 0 C1 4 1 4 1 4 Z " fill="#747484" transform="translate(685,133)"/>
<path d="M0 0 C0 3 0 3 0 3 Z " fill="#656565" transform="translate(590,127)"/>
<path d="M0 0 C4 1 4 1 4 1 Z " fill="#6A6A6A" transform="translate(615,120)"/>
<path d="M0 0 C4 1 4 1 4 1 Z " fill="#A9A9A9" transform="translate(601,120)"/>
<path d="M0 0 C1 4 1 4 1 4 Z " fill="#A9A9A9" transform="translate(353,104)"/>
<path d="M0 0 C4 1 4 1 4 1 Z " fill="#5F5F5F" transform="translate(456,105)"/>
<path d="M0 0 C1 4 1 4 1 4 Z " fill="#C9C9C9" transform="translate(402,102)"/>
<path d="M0 0 C4 1 4 1 4 1 Z " fill="#5F5F5F" transform="translate(92,103)"/>
<path d="M0 0 C1 4 1 4 1 4 Z " fill="#C9C9C9" transform="translate(354,100)"/>
<path d="M0 0 C4 1 4 1 4 1 Z " fill="#A9A9A9" transform="translate(638,84)"/>
<path d="M0 0 C4 1 4 1 4 1 Z " fill="#898989" transform="translate(611,84)"/>
<path d="M0 0 C4 1 4 1 4 1 Z " fill="#5F5F9F" transform="translate(465,75)"/>
<path d="M0 0 C4 1 4 1 4 1 Z " fill="#9F9F9F" transform="translate(461,74)"/>
<path d="M0 0 C4 1 4 1 4 1 Z " fill="#5F5F5F" transform="translate(428,74)"/>
<path d="M0 0 C4 1 4 1 4 1 Z " fill="#5F5F5F" transform="translate(479,42)"/>
<path d="M0 0 C4 1 4 1 4 1 Z " fill="#A9A9A9" transform="translate(475,41)"/>
<path d="M0 0 C4 1 4 1 4 1 Z " fill="#B4B4B4" transform="translate(471,40)"/>
<path d="M0 0 C3 1 3 1 3 1 Z " fill="#8D8D8D" transform="translate(609,231)"/>
<path d="M0 0 C3 1 3 1 3 1 Z " fill="#7171C6" transform="translate(644,230)"/>
<path d="M0 0 C3 1 3 1 3 1 Z " fill="#7F7F7F" transform="translate(606,230)"/>
<path d="M0 0 C3 1 3 1 3 1 Z " fill="#8D8D8D" transform="translate(452,230)"/>
<path d="M0 0 C3 1 3 1 3 1 Z " fill="#636363" transform="translate(603,229)"/>
<path d="M0 0 C3 1 3 1 3 1 Z " fill="#7F7F7F" transform="translate(455,229)"/>
<path d="M0 0 C3 1 3 1 3 1 Z " fill="#C6C6C6" transform="translate(400,229)"/>
<path d="M0 0 C3 1 3 1 3 1 Z " fill="#9B9B9B" transform="translate(93,229)"/>
<path d="M0 0 C3 1 3 1 3 1 Z " fill="#A9A9A9" transform="translate(458,228)"/>
<path d="M0 0 C3 1 3 1 3 1 Z " fill="#7F7F7F" transform="translate(96,228)"/>
<path d="M0 0 C3 1 3 1 3 1 Z " fill="#7F7F7F" transform="translate(21,228)"/>
<path d="M0 0 C3 1 3 1 3 1 Z " fill="#388D8D" transform="translate(395,227)"/>
<path d="M0 0 C3 1 3 1 3 1 Z " fill="#B8B8B8" transform="translate(99,227)"/>
<path d="M0 0 C3 1 3 1 3 1 Z " fill="#B8B8B8" transform="translate(17,227)"/>
<path d="M0 0 C3 1 3 1 3 1 Z " fill="#717171" transform="translate(14,226)"/>
<path d="M0 0 C3 1 3 1 3 1 Z " fill="#8D8D8D" transform="translate(104,225)"/>
<path d="M0 0 C3 1 3 1 3 1 Z " fill="#A9A9A9" transform="translate(11,225)"/>
<path d="M0 0 C3 1 3 1 3 1 Z " fill="#A9A9A9" transform="translate(8,224)"/>
<path d="M0 0 C3 1 3 1 3 1 Z " fill="#B8B8B8" transform="translate(5,223)"/>
<path d="M0 0 C3 1 3 1 3 1 Z " fill="#557171" transform="translate(2,222)"/>
<path d="M0 0 C3 1 3 1 3 1 Z " fill="#545454" transform="translate(437,197)"/>
<path d="M0 0 C3 1 3 1 3 1 Z " fill="#464663" transform="translate(418,197)"/>
<path d="M0 0 C3 1 3 1 3 1 Z " fill="#C6C6C6" transform="translate(618,195)"/>
<path d="M0 0 C3 1 3 1 3 1 Z " fill="#7F7F7F" transform="translate(69,194)"/>
<path d="M0 0 C3 1 3 1 3 1 Z " fill="#8D8D8D" transform="translate(32,193)"/>
<path d="M0 0 C3 1 3 1 3 1 Z " fill="#388D8D" transform="translate(74,192)"/>
<path d="M0 0 C3 1 3 1 3 1 Z " fill="#545454" transform="translate(29,192)"/>
<path d="" fill="#466363" transform="translate(0,0)"/>
<path d="M0 0 C3 1 3 1 3 1 Z " fill="#B8B8B8" transform="translate(20,189)"/>
<path d="" fill="#9B9BB8" transform="translate(0,0)"/>
<path d="" fill="#636363" transform="translate(0,0)"/>
<path d="M0 0 C3 1 3 1 3 1 Z " fill="#8D8D8D" transform="translate(13,186)"/>
<path d="" fill="#8D8D8D" transform="translate(0,0)"/>
<path d="" fill="#464646" transform="translate(0,0)"/>
<path d="" fill="#7F7F7F" transform="translate(0,0)"/>
<path d="" fill="#8D8D8D" transform="translate(0,0)"/>
<path d="M0 0 C3 1 3 1 3 1 Z " fill="#557171" transform="translate(9,147)"/>
<path d="M0 0 C3 1 3 1 3 1 Z " fill="#B8B8B8" transform="translate(14,145)"/>
<path d="" fill="#7F7FA9" transform="translate(0,0)"/>
<path d="M0 0 C3 1 3 1 3 1 Z " fill="#7171C6" transform="translate(17,144)"/>
<path d="M0 0 C3 1 3 1 3 1 Z " fill="#C6C6C6" transform="translate(20,143)"/>
<path d="M0 0 C3 1 3 1 3 1 Z " fill="#9B9B9B" transform="translate(23,142)"/>
<path d="" fill="#A9A9A9" transform="translate(0,0)"/>
<path d="M0 0 C3 1 3 1 3 1 Z " fill="#557171" transform="translate(71,140)"/>
<path d="M0 0 C3 1 3 1 3 1 Z " fill="#8D8D8D" transform="translate(437,139)"/>
<path d="M0 0 C3 1 3 1 3 1 Z " fill="#A9A9A9" transform="translate(418,139)"/>
<path d="M0 0 C3 1 3 1 3 1 Z " fill="#B8B8B8" transform="translate(68,139)"/>
<path d="" fill="#717171" transform="translate(0,0)"/>
<path d="M0 0 C3 1 3 1 3 1 Z " fill="#555571" transform="translate(598,121)"/>
<path d="M0 0 C3 1 3 1 3 1 Z " fill="#8D8D8D" transform="translate(465,108)"/>
<path d="M0 0 C3 1 3 1 3 1 Z " fill="#636363" transform="translate(460,106)"/>
<path d="M0 0 C3 1 3 1 3 1 Z " fill="#A9A9A9" transform="translate(413,106)"/>
<path d="M0 0 C3 1 3 1 3 1 Z " fill="#555571" transform="translate(102,106)"/>
<path d="M0 0 C3 1 3 1 3 1 Z " fill="#C6C6C6" transform="translate(416,105)"/>
<path d="M0 0 C3 1 3 1 3 1 Z " fill="#A9A9A9" transform="translate(99,105)"/>
<path d="M0 0 C3 1 3 1 3 1 Z " fill="#8D8D8D" transform="translate(96,104)"/>
<path d="" fill="#7F7F7F" transform="translate(0,0)"/>
<path d="" fill="#A9A9A9" transform="translate(0,0)"/>
<path d="M0 0 C3 1 3 1 3 1 Z " fill="#8D8D8D" transform="translate(602,87)"/>
<path d="M0 0 C3 1 3 1 3 1 Z " fill="#D4D4D4" transform="translate(645,86)"/>
<path d="M0 0 C3 1 3 1 3 1 Z " fill="#7F7F7F" transform="translate(642,85)"/>
<path d="M0 0 C3 1 3 1 3 1 Z " fill="#636363" transform="translate(607,85)"/>
<path d="M0 0 C3 1 3 1 3 1 Z " fill="#000000" transform="translate(625,82)"/>
<path d="M0 0 C3 1 3 1 3 1 Z " fill="#636363" transform="translate(480,80)"/>
<path d="M0 0 C3 1 3 1 3 1 Z " fill="#B8B8B8" transform="translate(475,78)"/>
<path d="M0 0 C3 1 3 1 3 1 Z " fill="#C6C6C6" transform="translate(472,77)"/>
<path d="M0 0 C3 1 3 1 3 1 Z " fill="#C6C6C6" transform="translate(469,76)"/>
<path d="M0 0 C3 1 3 1 3 1 Z " fill="#B8B8B8" transform="translate(425,75)"/>
<path d="M0 0 C3 1 3 1 3 1 Z " fill="#71C6C6" transform="translate(486,44)"/>
<path d="M0 0 C3 1 3 1 3 1 Z " fill="#C6C6C6" transform="translate(483,43)"/>
<path d="M0 0 C3 1 3 1 3 1 Z " fill="#717171" transform="translate(404,42)"/>
<path d="M0 0 C3 1 3 1 3 1 Z " fill="#9BB8B8" transform="translate(407,41)"/>
<path d="M0 0 C3 1 3 1 3 1 Z " fill="#B8B8B8" transform="translate(410,40)"/>
<path d="M0 0 C2 1 2 1 2 1 Z " fill="#7F7F7F" transform="translate(647,229)"/>
<path d="M0 0 C2 1 2 1 2 1 Z " fill="#6A6A94" transform="translate(649,228)"/>
<path d="M0 0 C2 1 2 1 2 1 Z " fill="#5555D4" transform="translate(601,228)"/>
<path d="M0 0 C2 1 2 1 2 1 Z " fill="#949494" transform="translate(398,228)"/>
<path d="M0 0 C2 1 2 1 2 1 Z " fill="#7F7F7F" transform="translate(651,227)"/>
<path d="M0 0 C2 1 2 1 2 1 Z " fill="#555555" transform="translate(599,227)"/>
<path d="M0 0 C2 1 2 1 2 1 Z " fill="#7FAAAA" transform="translate(461,227)"/>
<path d="M0 0 C2 1 2 1 2 1 Z " fill="#D4D4D4" transform="translate(653,226)"/>
<path d="M0 0 C2 1 2 1 2 1 Z " fill="#555555" transform="translate(464,226)"/>
<path d="M0 0 C2 1 2 1 2 1 Z " fill="#BFBFBF" transform="translate(393,226)"/>
<path d="M0 0 C2 1 2 1 2 1 Z " fill="#949494" transform="translate(102,226)"/>
<path d="M0 0 C2 1 2 1 2 1 Z " fill="#7F7F7F" transform="translate(596,225)"/>
<path d="M0 0 C2 1 2 1 2 1 Z " fill="#555555" transform="translate(466,225)"/>
<path d="M0 0 C2 1 2 1 2 1 Z " fill="#D4D4D4" transform="translate(391,225)"/>
<path d="M0 0 C2 1 2 1 2 1 Z " fill="#7F7F7F" transform="translate(656,224)"/>
<path d="M0 0 C2 1 2 1 2 1 Z " fill="#555555" transform="translate(468,224)"/>
<path d="M0 0 C2 1 2 1 2 1 Z " fill="#3F3F3F" transform="translate(389,224)"/>
<path d="M0 0 C2 1 2 1 2 1 Z " fill="#555555" transform="translate(107,224)"/>
<path d="M0 0 C2 1 2 1 2 1 Z " fill="#BFBFBF" transform="translate(593,223)"/>
<path d="M0 0 C2 1 2 1 2 1 Z " fill="#D4D4D4" transform="translate(471,222)"/>
<path d="M0 0 C2 1 2 1 2 1 Z " fill="#D4D4D4" transform="translate(386,222)"/>
<path d="M0 0 C2 1 2 1 2 1 Z " fill="#AAAAAA" transform="translate(110,222)"/>
<path d="M0 0 C2 1 2 1 2 1 Z " fill="#D4D4D4" transform="translate(112,221)"/>
<path d="M0 0 C2 1 2 1 2 1 Z " fill="#BFBFBF" transform="translate(0,221)"/>
<path d="M0 0 C2 1 2 1 2 1 Z " fill="#BFBFBF" transform="translate(474,220)"/>
<path d="M0 0 C2 1 2 1 2 1 Z " fill="#555555" transform="translate(383,220)"/>
<path d="M0 0 C2 1 2 1 2 1 Z " fill="#D4D4D4" transform="translate(115,219)"/>
<path d="M0 0 C2 1 2 1 2 1 Z " fill="#AAAAAA" transform="translate(478,217)"/>
<path d="M0 0 C2 1 2 1 2 1 Z " fill="#BFBFBF" transform="translate(119,216)"/>
<path d="" fill="#949494" transform="translate(0,0)"/>
<path d="" fill="#949494" transform="translate(0,0)"/>
<path d="" fill="#949494" transform="translate(0,0)"/>
<path d="" fill="#949494" transform="translate(0,0)"/>
<path d="" fill="#7F7FAA" transform="translate(0,0)"/>
<path d="M0 0 C2 1 2 1 2 1 Z " fill="#3FBFBF" transform="translate(440,196)"/>
<path d="M0 0 C2 1 2 1 2 1 Z " fill="#BFBFBF" transform="translate(416,196)"/>
<path d="" fill="#949494" transform="translate(0,0)"/>
<path d="M0 0 C2 1 2 1 2 1 Z " fill="#BFBFBF" transform="translate(442,195)"/>
<path d="" fill="#7F7F7F" transform="translate(0,0)"/>
<path d="M0 0 C2 1 2 1 2 1 Z " fill="#BFBFBF" transform="translate(621,194)"/>
<path d="M0 0 C2 1 2 1 2 1 Z " fill="#949494" transform="translate(597,194)"/>
<path d="" fill="#AAAAAA" transform="translate(0,0)"/>
<path d="M0 0 C2 1 2 1 2 1 Z " fill="#BFBFBF" transform="translate(623,193)"/>
<path d="M0 0 C2 1 2 1 2 1 Z " fill="#949494" transform="translate(595,193)"/>
<path d="M0 0 C2 1 2 1 2 1 Z " fill="#BFBFBF" transform="translate(72,193)"/>
<path d="" fill="#7F7F7F" transform="translate(0,0)"/>
<path d="M0 0 C2 1 2 1 2 1 Z " fill="#7F7F7F" transform="translate(26,191)"/>
<path d="M0 0 C2 1 2 1 2 1 Z " fill="#BFBFBF" transform="translate(78,190)"/>
<path d="M0 0 C2 1 2 1 2 1 Z " fill="#7F7F7F" transform="translate(23,190)"/>
<path d="" fill="#7F7F7F" transform="translate(0,0)"/>
<path d="M0 0 C2 1 2 1 2 1 Z " fill="#7F7F7F" transform="translate(18,188)"/>
<path d="" fill="#6A6A94" transform="translate(0,0)"/>
<path d="M0 0 C2 1 2 1 2 1 Z " fill="#D4D4D4" transform="translate(16,187)"/>
<path d="M0 0 C2 1 2 1 2 1 Z " fill="#949494" transform="translate(11,185)"/>
<path d="M0 0 C2 1 2 1 2 1 Z " fill="#6A6A94" transform="translate(9,184)"/>
<path d="" fill="#6A6A6A" transform="translate(0,0)"/>
<path d="M0 0 C2 1 2 1 2 1 Z " fill="#6A6A94" transform="translate(7,183)"/>
<path d="M0 0 C2 1 2 1 2 1 Z " fill="#D4D4D4" transform="translate(5,182)"/>
<path d="M0 0 C2 1 2 1 2 1 Z " fill="#555555" transform="translate(2,180)"/>
<path d="M0 0 C2 1 2 1 2 1 Z " fill="#D4D4D4" transform="translate(0,179)"/>
<path d="" fill="#000000" transform="translate(0,0)"/>
<path d="" fill="#949494" transform="translate(0,0)"/>
<path d="" fill="#7F7FAA" transform="translate(0,0)"/>
<path d="M0 0 C2 1 2 1 2 1 Z " fill="#7F7F7F" transform="translate(7,148)"/>
<path d="M0 0 C2 1 2 1 2 1 Z " fill="#7F7F7F" transform="translate(12,146)"/>
<path d="M0 0 C2 1 2 1 2 1 Z " fill="#BFBFBF" transform="translate(78,143)"/>
<path d="M0 0 C2 1 2 1 2 1 Z " fill="#BFBFBF" transform="translate(76,142)"/>
<path d="M0 0 C2 1 2 1 2 1 Z " fill="#BFBFBF" transform="translate(74,141)"/>
<path d="M0 0 C2 1 2 1 2 1 Z " fill="#949494" transform="translate(440,140)"/>
<path d="M0 0 C2 1 2 1 2 1 Z " fill="#7F7FAA" transform="translate(416,140)"/>
<path d="" fill="#7F7F7F" transform="translate(0,0)"/>
<path d="" fill="#6A6A6A" transform="translate(0,0)"/>
<path d="" fill="#949494" transform="translate(0,0)"/>
<path d="" fill="#949494" transform="translate(0,0)"/>
<path d="" fill="#949494" transform="translate(0,0)"/>
<path d="" fill="#6A6A94" transform="translate(0,0)"/>
<path d="" fill="#949494" transform="translate(0,0)"/>
<path d="" fill="#AAAAAA" transform="translate(0,0)"/>
<path d="" fill="#7F7F7F" transform="translate(0,0)"/>
<path d="M0 0 C2 1 2 1 2 1 Z " fill="#BFBFBF" transform="translate(624,123)"/>
<path d="M0 0 C2 1 2 1 2 1 Z " fill="#BFBFBF" transform="translate(622,122)"/>
<path d="M0 0 C2 1 2 1 2 1 Z " fill="#949494" transform="translate(596,122)"/>
<path d="M0 0 C2 1 2 1 2 1 Z " fill="#7F7F7F" transform="translate(620,121)"/>
<path d="M0 0 C2 1 2 1 2 1 Z " fill="#7F7F7F" transform="translate(476,114)"/>
<path d="" fill="#7F7F7F" transform="translate(0,0)"/>
<path d="" fill="#5555AA" transform="translate(0,0)"/>
<path d="M0 0 C2 1 2 1 2 1 Z " fill="#6A6A6A" transform="translate(473,112)"/>
<path d="M0 0 C2 1 2 1 2 1 Z " fill="#D4D4D4" transform="translate(114,112)"/>
<path d="M0 0 C2 1 2 1 2 1 Z " fill="#555555" transform="translate(470,110)"/>
<path d="M0 0 C2 1 2 1 2 1 Z " fill="#555555" transform="translate(404,110)"/>
<path d="M0 0 C2 1 2 1 2 1 Z " fill="#3F3F3F" transform="translate(111,110)"/>
<path d="M0 0 C2 1 2 1 2 1 Z " fill="#555555" transform="translate(468,109)"/>
<path d="M0 0 C2 1 2 1 2 1 Z " fill="#D4D4D4" transform="translate(406,109)"/>
<path d="M0 0 C2 1 2 1 2 1 Z " fill="#D4D4D4" transform="translate(109,109)"/>
<path d="M0 0 C2 1 2 1 2 1 Z " fill="#5555D4" transform="translate(408,108)"/>
<path d="M0 0 C2 1 2 1 2 1 Z " fill="#7F7F7F" transform="translate(107,108)"/>
<path d="M0 0 C2 1 2 1 2 1 Z " fill="#7F7F7F" transform="translate(463,107)"/>
<path d="M0 0 C2 1 2 1 2 1 Z " fill="#AAAAAA" transform="translate(411,107)"/>
<path d="M0 0 C2 1 2 1 2 1 Z " fill="#BFBFBF" transform="translate(105,107)"/>
<path d="" fill="#7F7F7F" transform="translate(0,0)"/>
<path d="M0 0 C2 1 2 1 2 1 Z " fill="#BFBFBF" transform="translate(591,94)"/>
<path d="M0 0 C2 1 2 1 2 1 Z " fill="#555555" transform="translate(657,92)"/>
<path d="M0 0 C2 1 2 1 2 1 Z " fill="#555555" transform="translate(595,91)"/>
<path d="M0 0 C2 1 2 1 2 1 Z " fill="#555555" transform="translate(654,90)"/>
<path d="" fill="#7F7F7F" transform="translate(0,0)"/>
<path d="M0 0 C2 1 2 1 2 1 Z " fill="#949494" transform="translate(652,89)"/>
<path d="M0 0 C2 1 2 1 2 1 Z " fill="#7F7F7F" transform="translate(650,88)"/>
<path d="M0 0 C2 1 2 1 2 1 Z " fill="#555555" transform="translate(600,88)"/>
<path d="M0 0 C2 1 2 1 2 1 Z " fill="#949494" transform="translate(648,87)"/>
<path d="M0 0 C2 1 2 1 2 1 Z " fill="#7F7F7F" transform="translate(605,86)"/>
<path d="M0 0 C2 1 2 1 2 1 Z " fill="#FFFFFF" transform="translate(487,83)"/>
<path d="M0 0 C2 1 2 1 2 1 Z " fill="#BFBFBF" transform="translate(485,82)"/>
<path d="M0 0 C2 1 2 1 2 1 Z " fill="#949494" transform="translate(483,81)"/>
<path d="M0 0 C2 1 2 1 2 1 Z " fill="#3F3FBF" transform="translate(416,80)"/>
<path d="M0 0 C2 1 2 1 2 1 Z " fill="#7F7F7F" transform="translate(478,79)"/>
<path d="" fill="#949494" transform="translate(0,0)"/>
<path d="M0 0 C2 1 2 1 2 1 Z " fill="#7F7F7F" transform="translate(419,78)"/>
<path d="M0 0 C2 1 2 1 2 1 Z " fill="#BFBFBF" transform="translate(421,77)"/>
<path d="M0 0 C2 1 2 1 2 1 Z " fill="#949494" transform="translate(423,76)"/>
<path d="M0 0 C2 1 2 1 2 1 Z " fill="#3F3F3F" transform="translate(386,52)"/>
<path d="M0 0 C2 1 2 1 2 1 Z " fill="#AAAAD4" transform="translate(389,50)"/>
<path d="M0 0 C2 1 2 1 2 1 Z " fill="#D4D4D4" transform="translate(392,48)"/>
<path d="M0 0 C2 1 2 1 2 1 Z " fill="#7F7F7F" transform="translate(394,47)"/>
<path d="M0 0 C2 1 2 1 2 1 Z " fill="#AAAAD4" transform="translate(396,46)"/>
<path d="M0 0 C2 1 2 1 2 1 Z " fill="#D4D4D4" transform="translate(398,45)"/>
<path d="M0 0 C2 1 2 1 2 1 Z " fill="#55557F" transform="translate(400,44)"/>
<path d="M0 0 C2 1 2 1 2 1 Z " fill="#7F7F7F" transform="translate(402,43)"/>
<path d="" fill="#000000" transform="translate(0,0)"/>
<path d="" fill="#7F7F7F" transform="translate(0,0)"/>
<path d="" fill="#AAAAAA" transform="translate(0,0)"/>
<path d="" fill="#AAAAAA" transform="translate(0,0)"/>
<path d="" fill="#7F7F7F" transform="translate(0,0)"/>
<path d="" fill="#AAAAAA" transform="translate(0,0)"/>
<path d="" fill="#55AAAA" transform="translate(0,0)"/>
<path d="" fill="#5555AA" transform="translate(0,0)"/>
<path d="" fill="#AAAAAA" transform="translate(0,0)"/>
<path d="" fill="#AAAAAA" transform="translate(0,0)"/>
<path d="" fill="#7F7F7F" transform="translate(0,0)"/>
<path d="" fill="#AAAAAA" transform="translate(0,0)"/>
<path d="" fill="#AAAAAA" transform="translate(0,0)"/>
<path d="" fill="#7F7F7F" transform="translate(0,0)"/>
<path d="" fill="#AAAAAA" transform="translate(0,0)"/>
<path d="" fill="#AAAAAA" transform="translate(0,0)"/>
<path d="" fill="#AAAAAA" transform="translate(0,0)"/>
<path d="" fill="#7F7F7F" transform="translate(0,0)"/>
<path d="" fill="#7F7F7F" transform="translate(0,0)"/>
<path d="" fill="#7F7F7F" transform="translate(0,0)"/>
<path d="" fill="#7F7F7F" transform="translate(0,0)"/>
<path d="" fill="#AAAAAA" transform="translate(0,0)"/>
<path d="" fill="#7F7F7F" transform="translate(0,0)"/>
<path d="" fill="#7F7F7F" transform="translate(0,0)"/>
<path d="" fill="#7F7F7F" transform="translate(0,0)"/>
<path d="" fill="#7F7F7F" transform="translate(0,0)"/>
<path d="" fill="#7F7F7F" transform="translate(0,0)"/>
<path d="" fill="#7F7F7F" transform="translate(0,0)"/>
<path d="" fill="#7F7F7F" transform="translate(0,0)"/>
<path d="" fill="#7F7F7F" transform="translate(0,0)"/>
<path d="" fill="#7F7F7F" transform="translate(0,0)"/>
<path d="" fill="#555555" transform="translate(0,0)"/>
<path d="" fill="#7F7F7F" transform="translate(0,0)"/>
<path d="" fill="#AAAAAA" transform="translate(0,0)"/>
<path d="" fill="#AAAAAA" transform="translate(0,0)"/>
<path d="" fill="#AAAAAA" transform="translate(0,0)"/>
<path d="" fill="#7F7F7F" transform="translate(0,0)"/>
<path d="" fill="#7F7F7F" transform="translate(0,0)"/>
<path d="" fill="#7F7F7F" transform="translate(0,0)"/>
<path d="" fill="#7F7F7F" transform="translate(0,0)"/>
<path d="" fill="#AAAAAA" transform="translate(0,0)"/>
<path d="" fill="#7F7F7F" transform="translate(0,0)"/>
<path d="" fill="#AAAAAA" transform="translate(0,0)"/>
<path d="" fill="#7F7F7F" transform="translate(0,0)"/>
<path d="" fill="#AAAAAA" transform="translate(0,0)"/>
<path d="" fill="#AAAAAA" transform="translate(0,0)"/>
<path d="" fill="#7F7F7F" transform="translate(0,0)"/>
<path d="" fill="#7F7F7F" transform="translate(0,0)"/>
<path d="" fill="#AAAAAA" transform="translate(0,0)"/>
<path d="" fill="#999999" transform="translate(0,0)"/>
<path d="" fill="#669999" transform="translate(0,0)"/>
<path d="" fill="#999999" transform="translate(0,0)"/>
<path d="" fill="#7F7F7F" transform="translate(0,0)"/>
<path d="" fill="#AAAAAA" transform="translate(0,0)"/>
<path d="" fill="#999999" transform="translate(0,0)"/>
<path d="" fill="#7F7F7F" transform="translate(0,0)"/>
<path d="" fill="#555555" transform="translate(0,0)"/>
<path d="" fill="#7F7F7F" transform="translate(0,0)"/>
<path d="" fill="#AAAAAA" transform="translate(0,0)"/>
<path d="" fill="#AAAAAA" transform="translate(0,0)"/>
<path d="" fill="#55AAAA" transform="translate(0,0)"/>
<path d="" fill="#AAAAAA" transform="translate(0,0)"/>
<path d="" fill="#AAAAAA" transform="translate(0,0)"/>
<path d="" fill="#7F7F7F" transform="translate(0,0)"/>
<path d="" fill="#999999" transform="translate(0,0)"/>
<path d="" fill="#AAAAAA" transform="translate(0,0)"/>
<path d="" fill="#7F7F7F" transform="translate(0,0)"/>
<path d="" fill="#7F7F7F" transform="translate(0,0)"/>
<path d="" fill="#7F7F7F" transform="translate(0,0)"/>
<path d="" fill="#AAAAAA" transform="translate(0,0)"/>
<path d="" fill="#999999" transform="translate(0,0)"/>
<path d="" fill="#AAAAAA" transform="translate(0,0)"/>
<path d="" fill="#999999" transform="translate(0,0)"/>
<path d="" fill="#7F7F7F" transform="translate(0,0)"/>
<path d="" fill="#7F7F7F" transform="translate(0,0)"/>
<path d="" fill="#7F7FBF" transform="translate(0,0)"/>
<path d="" fill="#5555AA" transform="translate(0,0)"/>
<path d="" fill="#7F7F7F" transform="translate(0,0)"/>
<path d="" fill="#AAAAAA" transform="translate(0,0)"/>
<path d="" fill="#7F7F7F" transform="translate(0,0)"/>
<path d="" fill="#55AAAA" transform="translate(0,0)"/>
<path d="" fill="#7F7F7F" transform="translate(0,0)"/>
<path d="" fill="#7F7F7F" transform="translate(0,0)"/>
<path d="" fill="#7F7F7F" transform="translate(0,0)"/>
<path d="" fill="#7F7F7F" transform="translate(0,0)"/>
<path d="" fill="#7F7F7F" transform="translate(0,0)"/>
<path d="" fill="#7F7F7F" transform="translate(0,0)"/>
<path d="" fill="#AAAAAA" transform="translate(0,0)"/>
<path d="" fill="#AAAAAA" transform="translate(0,0)"/>
<path d="" fill="#7F7F7F" transform="translate(0,0)"/>
<path d="" fill="#AAAAAA" transform="translate(0,0)"/>
<path d="" fill="#AAAAAA" transform="translate(0,0)"/>
<path d="" fill="#55AAAA" transform="translate(0,0)"/>
<path d="" fill="#AAAAAA" transform="translate(0,0)"/>
<path d="" fill="#7F7F7F" transform="translate(0,0)"/>
<path d="" fill="#7F7F7F" transform="translate(0,0)"/>
<path d="" fill="#7F7F7F" transform="translate(0,0)"/>
<path d="" fill="#7FBFBF" transform="translate(0,0)"/>
<path d="" fill="#7F7F7F" transform="translate(0,0)"/>
<path d="" fill="#7F7F7F" transform="translate(0,0)"/>
<path d="" fill="#7F7F7F" transform="translate(0,0)"/>
<path d="" fill="#7F7F7F" transform="translate(0,0)"/>
<path d="" fill="#AAAAAA" transform="translate(0,0)"/>
<path d="" fill="#7F7F7F" transform="translate(0,0)"/>
<path d="" fill="#7F7F7F" transform="translate(0,0)"/>
<path d="" fill="#AAAAAA" transform="translate(0,0)"/>
<path d="" fill="#7F7F7F" transform="translate(0,0)"/>
<path d="" fill="#7F7F7F" transform="translate(0,0)"/>
<path d="" fill="#5555AA" transform="translate(0,0)"/>
<path d="" fill="#55AAAA" transform="translate(0,0)"/>
<path d="" fill="#7F7F7F" transform="translate(0,0)"/>
<path d="" fill="#AAAAAA" transform="translate(0,0)"/>
<path d="" fill="#7F7F7F" transform="translate(0,0)"/>
<path d="" fill="#AAAAAA" transform="translate(0,0)"/>
<path d="" fill="#AAAAAA" transform="translate(0,0)"/>
<path d="" fill="#7F7F7F" transform="translate(0,0)"/>
<path d="" fill="#7FBFBF" transform="translate(0,0)"/>
<path d="" fill="#AAAAAA" transform="translate(0,0)"/>
<path d="" fill="#AAAAAA" transform="translate(0,0)"/>
<path d="" fill="#7F7F7F" transform="translate(0,0)"/>
<path d="" fill="#7F7F7F" transform="translate(0,0)"/>
<path d="" fill="#7F7F7F" transform="translate(0,0)"/>
<path d="" fill="#AAAAAA" transform="translate(0,0)"/>
<path d="" fill="#7F7F7F" transform="translate(0,0)"/>
<path d="" fill="#AAAAAA" transform="translate(0,0)"/>
<path d="" fill="#AAAAAA" transform="translate(0,0)"/>
</svg>
