<?xml version="1.0" encoding="UTF-8"?>
<!-- Generator: visioncortex VTracer 0.6.12 -->
<svg version="1.1" xmlns="http://www.w3.org/2000/svg" width="585" height="320">
<path d="M0 0 C101.156 0 101.156 0 127 15 C127.374 15.184 127.374 15.184 129.266 16.113 C131.252 17.129 132.43 18.43 134 20 C134.619 20.289 135.237 20.578 135.875 20.875 C138.847 22.449 140.786 24.487 143 27 C143.368 28.324 143.712 29.656 144 31 C144.99 31.33 145.98 31.66 147 32 C147.33 32.99 147.66 33.98 148 35 C148.433 35.412 148.866 35.825 149.312 36.25 C152.535 39.592 154.853 43.277 155.25 47.938 C155.168 48.618 155.085 49.299 155 50 C155.66 50 156.32 50 157 50 C157.133 50.869 157.266 51.738 157.402 52.633 C157.491 53.209 157.491 53.209 157.938 56.125 C158.112 57.262 158.286 58.399 158.465 59.57 C158.789 61.646 159.135 63.718 159.523 65.782 C160.32 71.158 160.186 76.56 160.185 81.983 C160.187 84.033 160.206 86.082 160.225 88.131 C160.26 96.604 159.509 104.665 158 113 C157.791 114.479 157.582 115.958 157.375 117.438 C156.374 121.774 154.289 125.523 152.125 129.375 C151.785 129.983 151.445 130.59 151.095 131.217 C149.11 134.595 147.239 136.82 144 139 C143.67 139.681 143.34 140.361 143 141.062 C142 143 142 143 140.062 143.938 C138 145 138 145 136.5 147.562 C134.659 150.554 134.231 150.199 131 151 C129.283 152.035 127.598 153.125 125.938 154.25 C89.634 177.67 39.225 169 0 169 C0 113.23 0 57.46 0 0 Z M45 34 C45 34.33 45 34.66 45 35 C53.91 35 62.82 35 72 35 C72 34.67 72 34.34 72 34 C63.09 34 54.18 34 45 34 Z M45 36 C45 68.01 45 100.02 45 133 C45.33 133 45.66 133 46 133 C46 100.99 46 68.98 46 36 C45.67 36 45.34 36 45 36 Z M47 36 C47 68.01 47 100.02 47 133 C86.702 134.281 86.702 134.281 99 124 C101.731 121.241 104.257 118.486 106 115 C106.66 114.67 107.32 114.34 108 114 C108.355 112.004 108.686 110.003 109 108 C110.112 105.405 111.421 103.369 113 101 C114.377 95.678 114.222 90.337 114.25 84.875 C114.271 83.893 114.291 82.91 114.312 81.898 C114.349 75.014 114.388 65.734 109.497 60.343 C109.25 60.122 109.25 60.122 108 59 C106.4 56.599 105.145 54.634 104.5 51.812 C104 50 104 50 101 48 C100.398 47.199 99.796 46.399 99.176 45.574 C94.241 39.736 85.423 36.485 78 35 C67.661 35 57.33 35.587 47 36 Z M156 53 C157 55 157 55 157 55 Z M110 105 C111 107 111 107 111 107 Z M156 114 C157 116 157 116 157 116 Z M155 117 C156 119 156 119 156 119 Z M154 119 C155 121 155 121 155 121 Z M45 134 C45 134.33 45 134.66 45 135 C54.24 135 63.48 135 73 135 C73 134.67 73 134.34 73 134 C63.76 134 54.52 134 45 134 Z " fill="#888D93" transform="translate(425,79)"/>
<path d="M0 0 C6.74 -0.342 13.473 -0.53 20.221 -0.616 C22.51 -0.663 24.798 -0.744 27.084 -0.861 C45.512 -1.766 45.512 -1.766 51.355 2.867 C56.354 8.367 61.118 15.314 62.513 22.723 C62.673 23.474 62.834 24.226 63 25 C64.849 26.02 64.849 26.02 67 27 C68.723 29.107 68.723 29.107 70.418 31.684 C71.032 32.611 71.646 33.539 72.279 34.494 C72.909 35.465 73.539 36.437 74.188 37.438 C74.829 38.405 75.47 39.372 76.131 40.369 C80.85 47.55 80.85 47.55 82 51 C82.66 51 83.32 51 84 51 C84.26 50.284 84.519 49.567 84.787 48.829 C86.062 45.856 87.587 43.407 89.406 40.734 C89.737 40.248 89.737 40.248 91.41 37.789 C92.1 36.786 92.789 35.783 93.5 34.75 C94.19 33.732 94.879 32.713 95.59 31.664 C100.745 24.128 100.745 24.128 103 23 C103.259 22.325 103.518 21.649 103.785 20.953 C105.476 16.843 107.921 13.398 110.438 9.75 C110.928 9.018 111.418 8.286 111.924 7.531 C112.401 6.835 112.879 6.139 113.371 5.422 C113.803 4.789 114.236 4.155 114.681 3.503 C116.543 1.381 118.393 1.045 121.145 0.842 C121.973 0.826 122.802 0.811 123.655 0.795 C124.125 0.785 124.125 0.785 126.506 0.734 C127.012 0.726 127.012 0.726 129.574 0.684 C130.094 0.673 130.094 0.673 132.723 0.621 C136.044 0.555 139.366 0.496 142.688 0.438 C144.938 0.394 147.189 0.351 149.439 0.307 C154.96 0.2 160.48 0.098 166 0 C166.613 1.875 166.613 1.875 167 4 C165.187 6 165.187 6 163 8 C162.313 9.323 161.648 10.658 161 12 C159.071 15.109 157.028 18.143 155 21.188 C154.453 22.02 153.907 22.852 153.344 23.709 C152.818 24.5 152.292 25.291 151.75 26.105 C151.27 26.829 150.791 27.552 150.297 28.298 C149 30 149 30 147 31 C146.746 31.672 146.492 32.343 146.23 33.035 C144.487 37.237 141.913 40.721 139.312 44.438 C138.145 46.121 136.979 47.804 135.812 49.488 C135.196 50.376 134.58 51.264 133.945 52.178 C131.903 55.141 129.886 58.121 127.875 61.105 C127.536 61.607 127.536 61.607 125.823 64.145 C124.496 66.112 123.172 68.081 121.851 70.052 C121.247 70.945 120.642 71.838 120.02 72.758 C119.484 73.553 118.949 74.349 118.398 75.168 C117 77 117 77 115 78 C113.47 80.788 112.899 81.909 113 85 C114.912 89.027 117.569 92.453 120.25 96 C121.758 98.075 123.264 100.15 124.77 102.227 C125.505 103.226 126.241 104.225 126.999 105.255 C129.413 108.566 131.699 111.943 133.938 115.375 C137.029 120.072 140.174 124.729 143.352 129.367 C144.134 130.511 144.917 131.655 145.699 132.799 C146.875 134.517 148.052 136.234 149.232 137.949 C150.336 139.552 151.436 141.159 152.535 142.766 C153.178 143.702 153.822 144.638 154.485 145.603 C156 148 156 148 157 151 C158.328 152.339 159.662 153.671 161 155 C162.485 156.986 163.921 159.01 165.312 161.062 C166.031 162.105 166.749 163.148 167.488 164.223 C167.987 165.139 168.486 166.056 169 167 C168.67 167.99 168.34 168.98 168 170 C151.83 170 135.66 170 119 170 C118.67 169.175 118.67 169.175 117 165 C115.358 163.309 113.689 161.644 112 160 C110.532 157.995 109.114 155.952 107.75 153.875 C107.064 152.841 106.378 151.807 105.672 150.742 C104 148 104 148 103 145 C101.67 143.664 100.336 142.331 99 141 C97.56 139.01 96.166 136.987 94.812 134.938 C94.118 133.895 93.423 132.852 92.707 131.777 C91 129 91 129 90 126 C89.361 125.381 88.721 124.762 88.062 124.125 C85.852 121.848 84.994 119.983 84 117 C79.73 120.764 76.935 125.448 73.875 130.188 C72.814 131.83 71.749 133.469 70.68 135.105 C70.213 135.829 69.746 136.552 69.265 137.298 C68 139 68 139 66 140 C65.32 141.661 64.656 143.329 64 145 C61.67 148.849 59.1 152.536 56.562 156.25 C55.881 157.268 55.2 158.287 54.498 159.336 C54.169 159.819 54.169 159.819 52.504 162.266 C52.204 162.708 52.204 162.708 50.686 164.946 C49 167 49 167 46 168 C45.67 168.66 45.34 169.32 45 170 C29.49 170 13.98 170 -2 170 C-2 168.35 -2 166.7 -2 165 C-1.505 164.67 -1.505 164.67 1 163 C1.708 161.35 2.371 159.681 3 158 C3.915 156.498 4.878 155.024 5.879 153.578 C6.17 153.154 6.17 153.154 7.645 151.01 C8.277 150.099 8.91 149.188 9.562 148.25 C10.929 146.266 12.295 144.281 13.66 142.297 C14.373 141.264 15.086 140.231 15.821 139.166 C19.404 133.96 22.95 128.729 26.5 123.5 C27.918 121.417 29.336 119.333 30.754 117.25 C33.626 113.028 36.487 108.798 39.34 104.562 C40.029 103.542 40.719 102.522 41.43 101.471 C42.742 99.529 44.051 97.585 45.355 95.639 C45.938 94.778 46.521 93.918 47.121 93.031 C47.376 92.653 47.376 92.653 48.666 90.736 C50 89 50 89 52 88 C52.165 87.505 52.165 87.505 53 85 C53.66 85 54.32 85 55 85 C54 83 54 83 52.199 81.254 C49.68 78.672 47.799 75.946 45.812 72.938 C45.465 72.416 45.465 72.416 43.707 69.777 C42 67 42 67 41 64 C40.429 63.441 39.858 62.881 39.27 62.305 C36.229 59.217 34.043 55.749 31.688 52.125 C30.624 50.508 29.558 48.893 28.492 47.277 C27.929 46.423 27.365 45.568 26.784 44.687 C23.667 39.993 20.49 35.341 17.312 30.688 C16.678 29.757 16.043 28.826 15.389 27.866 C12.638 23.838 9.88 19.816 7.082 15.82 C6.659 15.216 6.237 14.612 5.802 13.99 C4.718 12.445 3.629 10.904 2.539 9.363 C1 7 1 7 0 4 C-0.33 3.34 -0.66 2.68 -1 2 C-0.67 1.34 -0.34 0.68 0 0 Z M110 83 C111 85 111 85 111 85 Z " fill="#888D92" transform="translate(2,78)"/>
<path d="M0 0 C14.52 0 29.04 0 44 0 C44 1.65 44 3.3 44 5 C44.66 5 45.32 5 46 5 C46 6.65 46 8.3 46 10 C46.66 10 47.32 10 48 10 C51.444 19.41 51.444 19.41 51 24 C51.66 24 52.32 24 53 24 C53 25.98 53 27.96 53 30 C53.66 30 54.32 30 55 30 C55 31.65 55 33.3 55 35 C55.66 35 56.32 35 57 35 C59.112 44.41 59.112 44.41 60 49 C60.66 49 61.32 49 62 49 C62 50.98 62 52.96 62 55 C62.66 55 63.32 55 64 55 C64 56.65 64 58.3 64 60 C64.66 60 65.32 60 66 60 C66 61.98 66 63.96 66 66 C66.66 66 67.32 66 68 66 C68 67.65 68 69.3 68 71 C68.66 71 69.32 71 70 71 C70.99 73.64 71.98 76.28 73 79 C73.66 79 74.32 79 75 79 C75.33 76.03 75.66 73.06 76 70 C76.66 70 77.32 70 78 70 C78 68.35 78 66.7 78 65 C78.66 65 79.32 65 80 65 C80.082 63.742 80.165 62.484 80.25 61.188 C80.863 55.442 82.857 50.332 85 45 C85.66 45 86.32 45 87 45 C87 43.35 87 41.7 87 40 C87.66 40 88.32 40 89 40 C89.33 37.03 89.66 34.06 90 31 C90.66 31 91.32 31 92 31 C92 29.35 92 27.7 92 26 C92.66 26 93.32 26 94 26 C94.082 24.742 94.165 23.484 94.25 22.188 C94.863 16.442 96.857 11.332 99 6 C99.66 6 100.32 6 101 6 C101 4.35 101 2.7 101 1 C103.731 0.09 105.299 -0.122 108.104 -0.114 C108.515 -0.113 108.515 -0.113 110.591 -0.113 C111.472 -0.108 112.354 -0.103 113.262 -0.098 C113.715 -0.097 113.715 -0.097 116.007 -0.093 C118.9 -0.088 121.794 -0.075 124.688 -0.062 C126.649 -0.057 128.611 -0.053 130.572 -0.049 C135.382 -0.038 140.191 -0.021 145 0 C145.073 5.11 145.111 8.751 143 13.5 C142.814 13.928 142.814 13.928 141.875 16.094 C141.586 16.723 141.298 17.352 141 18 C140.34 18 139.68 18 139 18 C138.898 18.344 138.898 18.344 138.379 20.082 C138.244 20.533 138.244 20.533 137.562 22.812 C137.296 23.706 137.029 24.599 136.754 25.52 C135.968 28.104 135.21 30.58 134 33 C133.67 33.99 133.34 34.98 133 36 C132.67 36.66 132.34 37.32 132 38 C131.938 38.443 131.938 38.443 131.625 40.688 C130.905 44.504 129.619 47.48 128 51 C127.34 51 126.68 51 126 51 C125.795 51.687 125.59 52.374 125.379 53.082 C125.109 53.983 124.84 54.884 124.562 55.812 C124.296 56.706 124.029 57.599 123.754 58.52 C122.968 61.104 122.21 63.58 121 66 C120.835 66.495 120.835 66.495 120 69 C119.67 69.66 119.34 70.32 119 71 C118.938 71.443 118.938 71.443 118.625 73.688 C117.905 77.504 116.619 80.48 115 84 C114.34 84 113.68 84 113 84 C112.156 86.058 111.325 88.122 110.5 90.188 C110.268 90.762 110.268 90.762 109.094 93.668 C108.092 96.72 107.761 98.831 108 102 C107.34 102 106.68 102 106 102 C105.897 103.176 105.794 104.351 105.688 105.562 C105.171 109.825 103.849 113.141 102 117 C101.34 117 100.68 117 100 117 C98.38 120.544 97.896 123.127 98 127 C91.219 127.025 84.438 127.043 77.657 127.055 C75.349 127.06 73.042 127.067 70.734 127.075 C67.42 127.088 64.107 127.093 60.793 127.098 C59.759 127.103 58.724 127.108 57.658 127.113 C56.697 127.113 55.737 127.113 54.747 127.114 C53.901 127.116 53.055 127.118 52.183 127.12 C50 127 50 127 47 126 C46.917 124.886 46.835 123.772 46.75 122.625 C46.121 117.385 44.114 112.798 42 108 C41.34 108 40.68 108 40 108 C39.322 106.442 38.658 104.878 38 103.312 C37.629 102.442 37.257 101.572 36.875 100.676 C35.981 97.943 35.836 95.853 36 93 C35.34 93 34.68 93 34 93 C33.876 91.783 33.752 90.566 33.625 89.312 C33.211 85.935 32.454 83.102 31 80 C30.34 80 29.68 80 29 80 C28.322 78.442 27.658 76.878 27 75.312 C26.629 74.442 26.257 73.572 25.875 72.676 C24.981 69.943 24.836 67.853 25 65 C24.34 65 23.68 65 23 65 C22.876 63.783 22.752 62.566 22.625 61.312 C22.211 57.935 21.454 55.102 20 52 C19.34 52 18.68 52 18 52 C17.322 50.442 16.658 48.878 16 47.312 C15.629 46.442 15.257 45.572 14.875 44.676 C13.981 41.943 13.836 39.853 14 37 C13.34 37 12.68 37 12 37 C11.897 35.824 11.794 34.649 11.688 33.438 C11.171 29.175 9.849 25.859 8 22 C7.34 22 6.68 22 6 22 C2.571 13.571 2.571 13.571 3 9 C2.34 9 1.68 9 1 9 C1 7.35 1 5.7 1 4 C0.34 4 -0.32 4 -1 4 C-0.67 2.68 -0.34 1.36 0 0 Z M143 6 C144 8 144 8 144 8 Z M141 11 C142 13 142 13 142 13 Z M4 12 C5 14 5 14 5 14 Z M98 12 C99 14 99 14 99 14 Z M97 15 C98 17 98 17 98 17 Z M48 16 C49 18 49 18 49 18 Z M6 17 C7 19 7 19 7 19 Z M96 18 C97 20 97 20 97 20 Z M49 19 C50 21 50 21 50 21 Z M130 39 C131 41 131 41 131 41 Z M15 40 C16 42 16 42 16 42 Z M57 41 C58 43 58 43 58 43 Z M128 44 C129 46 129 46 129 46 Z M17 45 C18 47 18 47 18 47 Z M127 46 C128 48 128 48 128 48 Z M84 51 C85 53 85 53 85 53 Z M83 54 C84 56 84 56 84 56 Z M82 57 C83 59 83 59 83 59 Z M26 68 C27 70 27 70 27 70 Z M117 72 C118 74 118 74 118 74 Z M28 73 C29 75 29 75 29 75 Z M70 77 C71 79 71 79 71 79 Z M115 77 C116 79 116 79 116 79 Z M71 80 C72 82 72 82 72 82 Z M73 82 C73 85 73 85 73 85 Z M37 96 C38 98 38 98 38 98 Z M39 101 C40 103 40 103 40 103 Z M104 105 C105 107 105 107 105 107 Z M102 110 C103 112 103 112 103 112 Z " fill="#878C92" transform="translate(177,121)"/>
<path d="M0 0 C13.86 0 27.72 0 42 0 C42 41.91 42 83.82 42 127 C28.14 127 14.28 127 0 127 C0 85.09 0 43.18 0 0 Z " fill="#888D93" transform="translate(344,121)"/>
<path d="M0 0 C13.86 0 27.72 0 42 0 C42 11.22 42 22.44 42 34 C28.14 34 14.28 34 0 34 C0 22.78 0 11.56 0 0 Z " fill="#888D93" transform="translate(344,72)"/>
<path d="M0 0 C0.33 0 0.66 0 1 0 C1 55.77 1 111.54 1 169 C0.67 169 0.34 169 0 169 C0 113.23 0 57.46 0 0 Z " fill="#FFFFFF" transform="translate(423,79)"/>
<path d="M0 0 C0.33 0 0.66 0 1 0 C1 41.91 1 83.82 1 127 C0.67 127 0.34 127 0 127 C0 85.09 0 43.18 0 0 Z " fill="#808080" transform="translate(387,121)"/>
<path d="M0 0 C0.33 0 0.66 0 1 0 C1 41.91 1 83.82 1 127 C0.67 127 0.34 127 0 127 C0 85.09 0 43.18 0 0 Z " fill="#7F7F7F" transform="translate(342,121)"/>
<path d="M0 0 C6.765 0.165 6.765 0.165 41 1 C41 1.33 41 1.66 41 2 C28.79 2.33 16.58 2.66 4 3 C3.67 4.32 3.34 5.64 3 7 C2.34 7.66 1.68 8.32 1 9 C1 7.35 1 5.7 1 4 C0.34 4 -0.32 4 -1 4 C-0.67 2.68 -0.34 1.36 0 0 Z " fill="#959BA0" transform="translate(177,121)"/>
<path d="M0 0 C13.86 0 27.72 0 42 0 C42 0.33 42 0.66 42 1 C28.14 1 14.28 1 0 1 C0 0.67 0 0.34 0 0 Z " fill="#7F7F7F" transform="translate(344,119)"/>
<path d="M0 0 C13.53 0 27.06 0 41 0 C41 0.33 41 0.66 41 1 C27.47 1 13.94 1 0 1 C0 0.67 0 0.34 0 0 Z " fill="#7D7D80" transform="translate(281,119)"/>
<path d="M0 0 C13.53 0 27.06 0 41 0 C41 0.33 41 0.66 41 1 C27.47 1 13.94 1 0 1 C0 0.67 0 0.34 0 0 Z " fill="#7F7F7F" transform="translate(178,119)"/>
<path d="M0 0 C13.53 0 27.06 0 41 0 C41 0.33 41 0.66 41 1 C27.47 1 13.94 1 0 1 C0 0.67 0 0.34 0 0 Z " fill="#52555B" transform="translate(344,107)"/>
<path d="M0 0 C0.33 0 0.66 0 1 0 C1 11.22 1 22.44 1 34 C0.67 34 0.34 34 0 34 C0 22.78 0 11.56 0 0 Z " fill="#7B7B7B" transform="translate(342,72)"/>
<path d="M0 0 C0.33 0 0.66 0 1 0 C1 10.89 1 21.78 1 33 C0.67 33 0.34 33 0 33 C0 22.11 0 11.22 0 0 Z " fill="#7F7F7F" transform="translate(387,72)"/>
<path d="M0 0 C2.312 0.125 2.312 0.125 5 1 C6.812 4.062 6.812 4.062 8 7 C7.01 7.66 6.02 8.32 5 9 C4.161 7.879 3.329 6.753 2.5 5.625 C2.036 4.999 1.572 4.372 1.094 3.727 C0 2 0 2 0 0 Z " fill="#80878B" transform="translate(20,108)"/>
<path d="M0 0 C2.375 0.188 2.375 0.188 5 1 C6.438 3.375 6.438 3.375 7 6 C6.67 6.495 6.67 6.495 5 9 C4.161 7.879 3.329 6.753 2.5 5.625 C2.036 4.999 1.572 4.372 1.094 3.727 C0 2 0 2 0 0 Z " fill="#8B989C" transform="translate(57,94)"/>
<path d="M0 0 C2.375 0.188 2.375 0.188 5 1 C6.312 3.562 6.312 3.562 7 6 C6.01 6.66 5.02 7.32 4 8 C0 2.25 0 2.25 0 0 Z " fill="#92999C" transform="translate(128,188)"/>
<path d="M0 0 C7.92 0 15.84 0 24 0 C24 0.33 24 0.66 24 1 C16.08 1 8.16 1 0 1 C0 0.67 0 0.34 0 0 Z " fill="#868686" transform="translate(477,77)"/>
<path d="M0 0 C0.33 0 0.66 0 1 0 C1 7.59 1 15.18 1 23 C0.67 23 0.34 23 0 23 C0 15.41 0 7.82 0 0 Z " fill="#A4A7A7" transform="translate(537,152)"/>
<path d="M0 0 C0.66 0 1.32 0 2 0 C2.99 1.98 3.98 3.96 5 6 C4.01 6.66 3.02 7.32 2 8 C0.438 6.25 0.438 6.25 -1 4 C-0.688 1.75 -0.688 1.75 0 0 Z " fill="#7F8185" transform="translate(8,87)"/>
<path d="M0 0 C2.526 2.363 3.888 3.665 5 7 C3.02 6.34 1.04 5.68 -1 5 C-0.67 3.35 -0.34 1.7 0 0 Z " fill="#8F9297" transform="translate(115,233)"/>
<path d="M0 0 C0.99 0.33 1.98 0.66 3 1 C3.33 2.98 3.66 4.96 4 7 C2.02 5.35 0.04 3.7 -2 2 C-1.34 1.34 -0.68 0.68 0 0 Z " fill="#919598" transform="translate(559,99)"/>
<path d="M0 0 C0.99 0.99 1.98 1.98 3 3 C2.67 3.495 2.67 3.495 1 6 C-0.32 6 -1.64 6 -3 6 C-1.125 1.125 -1.125 1.125 0 0 Z " fill="#929498" transform="translate(110,92)"/>
<path d="M0 0 C0.825 0.165 0.825 0.165 5 1 C5.33 1.99 5.66 2.98 6 4 C5.01 4.66 4.02 5.32 3 6 C0 2.25 0 2.25 0 0 Z " fill="#91939A" transform="translate(3,83)"/>
<path d="M0 0 C2.97 0 5.94 0 9 0 C9 0.33 9 0.66 9 1 C6.03 1 3.06 1 0 1 C0 0.67 0 0.34 0 0 Z " fill="#7A7A7A" transform="translate(502,78)"/>
<path d="M0 0 C2.31 0 4.62 0 7 0 C7 0.33 7 0.66 7 1 C4.69 1 2.38 1 0 1 C0 0.67 0 0.34 0 0 Z " fill="#85858E" transform="translate(512,247)"/>
<path d="M0 0 C2.31 0 4.62 0 7 0 C7 0.33 7 0.66 7 1 C4.69 1 2.38 1 0 1 C0 0.67 0 0.34 0 0 Z " fill="#67678B" transform="translate(511,79)"/>
<path d="M0 0 C1.98 0 3.96 0 6 0 C6 0.33 6 0.66 6 1 C4.02 1 2.04 1 0 1 C0 0.67 0 0.34 0 0 Z " fill="#868686" transform="translate(497,115)"/>
<path d="M0 0 C1.65 0 3.3 0 5 0 C5 0.33 5 0.66 5 1 C3.35 1 1.7 1 0 1 C0 0.67 0 0.34 0 0 Z " fill="#767676" transform="translate(519,246)"/>
<path d="M0 0 C1.65 0 3.3 0 5 0 C5 0.33 5 0.66 5 1 C3.35 1 1.7 1 0 1 C0 0.67 0 0.34 0 0 Z " fill="#767676" transform="translate(498,211)"/>
<path d="M0 0 C0.33 0 0.66 0 1 0 C1 1.65 1 3.3 1 5 C0.67 5 0.34 5 0 5 C0 3.35 0 1.7 0 0 Z " fill="#6E6E6E" transform="translate(536,175)"/>
<path d="M0 0 C0.33 0 0.66 0 1 0 C1 1.65 1 3.3 1 5 C0.67 5 0.34 5 0 5 C0 3.35 0 1.7 0 0 Z " fill="#656576" transform="translate(536,147)"/>
<path d="M0 0 C1.65 0 3.3 0 5 0 C5 0.33 5 0.66 5 1 C3.35 1 1.7 1 0 1 C0 0.67 0 0.34 0 0 Z " fill="#BABABA" transform="translate(518,80)"/>
<path d="M0 0 C4 1 4 1 4 1 Z " fill="#6A6A6A" transform="translate(524,245)"/>
<path d="M0 0 C4 1 4 1 4 1 Z " fill="#6A6A6A" transform="translate(503,210)"/>
<path d="M0 0 C1 4 1 4 1 4 Z " fill="#7474B4" transform="translate(584,185)"/>
<path d="M0 0 C1 4 1 4 1 4 Z " fill="#748A8A" transform="translate(535,143)"/>
<path d="M0 0 C1 4 1 4 1 4 Z " fill="#6AA9A9" transform="translate(584,138)"/>
<path d="M0 0 C4 1 4 1 4 1 Z " fill="#A9A9A9" transform="translate(503,116)"/>
<path d="M0 0 C0.33 0.165 0.33 0.165 2 1 C1.67 1.66 1.34 2.32 1 3 C0.67 2.01 0.34 1.02 0 0 Z " fill="#6A6A6A" transform="translate(65,101)"/>
<path d="M0 0 C4 1 4 1 4 1 Z " fill="#5F5F5F" transform="translate(523,81)"/>
<path d="M0 0 C3 1 3 1 3 1 Z " fill="#C6C6C6" transform="translate(528,244)"/>
<path d="" fill="#545454" transform="translate(0,0)"/>
<path d="M0 0 C3 1 3 1 3 1 Z " fill="#A9A9A9" transform="translate(531,243)"/>
<path d="M0 0 C3 1 3 1 3 1 Z " fill="#555571" transform="translate(534,242)"/>
<path d="" fill="#D4D4D4" transform="translate(0,0)"/>
<path d="" fill="#545454" transform="translate(0,0)"/>
<path d="" fill="#A9A9A9" transform="translate(0,0)"/>
<path d="" fill="#545454" transform="translate(0,0)"/>
<path d="" fill="#D4D4D4" transform="translate(0,0)"/>
<path d="" fill="#5454A9" transform="translate(0,0)"/>
<path d="M0 0 C3 1 3 1 3 1 Z " fill="#6363B8" transform="translate(507,209)"/>
<path d="M0 0 C3 1 3 1 3 1 Z " fill="#636363" transform="translate(510,208)"/>
<path d="" fill="#A9A9A9" transform="translate(0,0)"/>
<path d="" fill="#545454" transform="translate(0,0)"/>
<path d="" fill="#545454" transform="translate(0,0)"/>
<path d="" fill="#7F7F7F" transform="translate(0,0)"/>
<path d="" fill="#717171" transform="translate(0,0)"/>
<path d="" fill="#A9A9A9" transform="translate(0,0)"/>
<path d="" fill="#A9A9A9" transform="translate(0,0)"/>
<path d="" fill="#A9A9A9" transform="translate(0,0)"/>
<path d="" fill="#545454" transform="translate(0,0)"/>
<path d="" fill="#A9A9A9" transform="translate(0,0)"/>
<path d="" fill="#545454" transform="translate(0,0)"/>
<path d="" fill="#545454" transform="translate(0,0)"/>
<path d="" fill="#717171" transform="translate(0,0)"/>
<path d="" fill="#7F7F7F" transform="translate(0,0)"/>
<path d="" fill="#A9A9A9" transform="translate(0,0)"/>
<path d="" fill="#7F7F7F" transform="translate(0,0)"/>
<path d="" fill="#545454" transform="translate(0,0)"/>
<path d="" fill="#5454A9" transform="translate(0,0)"/>
<path d="" fill="#A9A9A9" transform="translate(0,0)"/>
<path d="" fill="#545454" transform="translate(0,0)"/>
<path d="" fill="#8D8D8D" transform="translate(0,0)"/>
<path d="" fill="#A9A9A9" transform="translate(0,0)"/>
<path d="" fill="#A9A9A9" transform="translate(0,0)"/>
<path d="M0 0 C3 1 3 1 3 1 Z " fill="#D4D4D4" transform="translate(510,118)"/>
<path d="M0 0 C3 1 3 1 3 1 Z " fill="#C6C6C6" transform="translate(507,117)"/>
<path d="M0 0 C3 1 3 1 3 1 Z " fill="#717171" transform="translate(534,84)"/>
<path d="M0 0 C3 1 3 1 3 1 Z " fill="#C6C6C6" transform="translate(531,83)"/>
<path d="M0 0 C3 1 3 1 3 1 Z " fill="#B8B8B8" transform="translate(528,82)"/>
<path d="" fill="#6A6A6A" transform="translate(0,0)"/>
<path d="" fill="#AAAAAA" transform="translate(0,0)"/>
<path d="" fill="#7F7F7F" transform="translate(0,0)"/>
<path d="M0 0 C2 1 2 1 2 1 Z " fill="#7F7F7F" transform="translate(537,241)"/>
<path d="M0 0 C2 1 2 1 2 1 Z " fill="#5555AA" transform="translate(539,240)"/>
<path d="M0 0 C2 1 2 1 2 1 Z " fill="#949494" transform="translate(541,239)"/>
<path d="M0 0 C2 1 2 1 2 1 Z " fill="#AAD4D4" transform="translate(543,238)"/>
<path d="" fill="#7F7FAA" transform="translate(0,0)"/>
<path d="M0 0 C2 1 2 1 2 1 Z " fill="#7F7F7F" transform="translate(545,237)"/>
<path d="M0 0 C2 1 2 1 2 1 Z " fill="#D4D4D4" transform="translate(547,236)"/>
<path d="M0 0 C2 1 2 1 2 1 Z " fill="#7F7F7F" transform="translate(550,234)"/>
<path d="" fill="#7F7F7F" transform="translate(0,0)"/>
<path d="M0 0 C2 1 2 1 2 1 Z " fill="#D4D4D4" transform="translate(553,232)"/>
<path d="" fill="#AAAAAA" transform="translate(0,0)"/>
<path d="" fill="#AAAAAA" transform="translate(0,0)"/>
<path d="" fill="#AAAAAA" transform="translate(0,0)"/>
<path d="" fill="#949494" transform="translate(0,0)"/>
<path d="" fill="#7F7FAA" transform="translate(0,0)"/>
<path d="" fill="#7F7F7F" transform="translate(0,0)"/>
<path d="M0 0 C2 1 2 1 2 1 Z " fill="#949494" transform="translate(513,207)"/>
<path d="M0 0 C2 1 2 1 2 1 Z " fill="#7F7F7F" transform="translate(515,206)"/>
<path d="M0 0 C2 1 2 1 2 1 Z " fill="#6A9494" transform="translate(517,205)"/>
<path d="" fill="#7F7F7F" transform="translate(0,0)"/>
<path d="M0 0 C2 1 2 1 2 1 Z " fill="#BFBFBF" transform="translate(520,203)"/>
<path d="" fill="#7FAAAA" transform="translate(0,0)"/>
<path d="" fill="#AAAAAA" transform="translate(0,0)"/>
<path d="" fill="#949494" transform="translate(0,0)"/>
<path d="" fill="#949494" transform="translate(0,0)"/>
<path d="" fill="#AAAAAA" transform="translate(0,0)"/>
<path d="" fill="#AAAAAA" transform="translate(0,0)"/>
<path d="" fill="#7F7FAA" transform="translate(0,0)"/>
<path d="" fill="#7FAAAA" transform="translate(0,0)"/>
<path d="" fill="#949494" transform="translate(0,0)"/>
<path d="" fill="#7F7F7F" transform="translate(0,0)"/>
<path d="" fill="#7F7F7F" transform="translate(0,0)"/>
<path d="" fill="#6A6A6A" transform="translate(0,0)"/>
<path d="" fill="#AAAAAA" transform="translate(0,0)"/>
<path d="" fill="#949494" transform="translate(0,0)"/>
<path d="" fill="#AAAAAA" transform="translate(0,0)"/>
<path d="" fill="#AAAAAA" transform="translate(0,0)"/>
<path d="" fill="#6A9494" transform="translate(0,0)"/>
<path d="" fill="#AAAAAA" transform="translate(0,0)"/>
<path d="" fill="#AAAAAA" transform="translate(0,0)"/>
<path d="" fill="#949494" transform="translate(0,0)"/>
<path d="" fill="#7F7F7F" transform="translate(0,0)"/>
<path d="" fill="#7FAA7F" transform="translate(0,0)"/>
<path d="" fill="#AAAAAA" transform="translate(0,0)"/>
<path d="" fill="#7F7F7F" transform="translate(0,0)"/>
<path d="" fill="#7F7F7F" transform="translate(0,0)"/>
<path d="" fill="#AAAAAA" transform="translate(0,0)"/>
<path d="" fill="#6A9494" transform="translate(0,0)"/>
<path d="" fill="#7F7F7F" transform="translate(0,0)"/>
<path d="" fill="#949494" transform="translate(0,0)"/>
<path d="" fill="#AAAAAA" transform="translate(0,0)"/>
<path d="" fill="#AAAAAA" transform="translate(0,0)"/>
<path d="M0 0 C2 1 2 1 2 1 Z " fill="#BFBFBF" transform="translate(520,123)"/>
<path d="M0 0 C2 1 2 1 2 1 Z " fill="#7F7FBF" transform="translate(517,121)"/>
<path d="M0 0 C2 1 2 1 2 1 Z " fill="#949494" transform="translate(515,120)"/>
<path d="M0 0 C2 1 2 1 2 1 Z " fill="#949494" transform="translate(513,119)"/>
<path d="M0 0 C2 1 2 1 2 1 Z " fill="#D4D4D4" transform="translate(550,92)"/>
<path d="M0 0 C2 1 2 1 2 1 Z " fill="#3F3F3F" transform="translate(547,90)"/>
<path d="M0 0 C2 1 2 1 2 1 Z " fill="#949494" transform="translate(545,89)"/>
<path d="M0 0 C2 1 2 1 2 1 Z " fill="#7F7F7F" transform="translate(543,88)"/>
<path d="M0 0 C2 1 2 1 2 1 Z " fill="#7F7F7F" transform="translate(541,87)"/>
<path d="M0 0 C2 1 2 1 2 1 Z " fill="#949494" transform="translate(539,86)"/>
<path d="M0 0 C2 1 2 1 2 1 Z " fill="#BFBFBF" transform="translate(537,85)"/>
<path d="" fill="#555555" transform="translate(0,0)"/>
<path d="" fill="#AAAAAA" transform="translate(0,0)"/>
<path d="" fill="#7F7F7F" transform="translate(0,0)"/>
<path d="" fill="#7F7F7F" transform="translate(0,0)"/>
<path d="" fill="#AAAAAA" transform="translate(0,0)"/>
<path d="" fill="#AAAAAA" transform="translate(0,0)"/>
<path d="" fill="#AAAAAA" transform="translate(0,0)"/>
<path d="" fill="#7F7F7F" transform="translate(0,0)"/>
<path d="" fill="#7F7F7F" transform="translate(0,0)"/>
<path d="" fill="#7F7F7F" transform="translate(0,0)"/>
<path d="" fill="#7F7F7F" transform="translate(0,0)"/>
<path d="" fill="#7F7F7F" transform="translate(0,0)"/>
<path d="" fill="#7F7F7F" transform="translate(0,0)"/>
<path d="" fill="#5555AA" transform="translate(0,0)"/>
<path d="" fill="#555555" transform="translate(0,0)"/>
<path d="" fill="#7F7F7F" transform="translate(0,0)"/>
<path d="" fill="#7F7F7F" transform="translate(0,0)"/>
<path d="" fill="#7F7F7F" transform="translate(0,0)"/>
<path d="" fill="#7F7F7F" transform="translate(0,0)"/>
<path d="" fill="#AAAAAA" transform="translate(0,0)"/>
<path d="" fill="#AAAAAA" transform="translate(0,0)"/>
<path d="" fill="#7F7F7F" transform="translate(0,0)"/>
<path d="" fill="#AAAAAA" transform="translate(0,0)"/>
<path d="" fill="#555555" transform="translate(0,0)"/>
<path d="" fill="#7F7F7F" transform="translate(0,0)"/>
<path d="" fill="#7F7F7F" transform="translate(0,0)"/>
<path d="" fill="#AAAAAA" transform="translate(0,0)"/>
<path d="" fill="#7F7F7F" transform="translate(0,0)"/>
<path d="" fill="#7F7F7F" transform="translate(0,0)"/>
<path d="" fill="#AAAAAA" transform="translate(0,0)"/>
<path d="" fill="#AAAAAA" transform="translate(0,0)"/>
<path d="" fill="#7F7F7F" transform="translate(0,0)"/>
<path d="" fill="#AAAAAA" transform="translate(0,0)"/>
<path d="" fill="#7F7F7F" transform="translate(0,0)"/>
<path d="" fill="#AAAAAA" transform="translate(0,0)"/>
<path d="" fill="#7F7F7F" transform="translate(0,0)"/>
<path d="" fill="#7F7F7F" transform="translate(0,0)"/>
<path d="" fill="#FFFFFF" transform="translate(0,0)"/>
<path d="" fill="#7F7F7F" transform="translate(0,0)"/>
<path d="" fill="#AAAAAA" transform="translate(0,0)"/>
<path d="" fill="#7F7F7F" transform="translate(0,0)"/>
<path d="" fill="#7F7F7F" transform="translate(0,0)"/>
<path d="" fill="#7F7F7F" transform="translate(0,0)"/>
<path d="" fill="#7F7F7F" transform="translate(0,0)"/>
<path d="" fill="#7F7F7F" transform="translate(0,0)"/>
<path d="" fill="#7F7F7F" transform="translate(0,0)"/>
<path d="" fill="#AAAAAA" transform="translate(0,0)"/>
<path d="" fill="#7F7F7F" transform="translate(0,0)"/>
<path d="" fill="#AAAAAA" transform="translate(0,0)"/>
<path d="" fill="#AAAAAA" transform="translate(0,0)"/>
<path d="" fill="#7F7F7F" transform="translate(0,0)"/>
<path d="" fill="#AAAAAA" transform="translate(0,0)"/>
<path d="" fill="#7F7F7F" transform="translate(0,0)"/>
<path d="" fill="#AAAAAA" transform="translate(0,0)"/>
<path d="" fill="#5555AA" transform="translate(0,0)"/>
<path d="" fill="#FFFFFF" transform="translate(0,0)"/>
<path d="" fill="#000000" transform="translate(0,0)"/>
<path d="" fill="#7F7F7F" transform="translate(0,0)"/>
<path d="" fill="#FFFFFF" transform="translate(0,0)"/>
</svg>
