<?xml version="1.0" encoding="UTF-8"?>
<!-- Generator: visioncortex VTracer 0.6.12 -->
<svg version="1.1" xmlns="http://www.w3.org/2000/svg" width="314" height="80">
<path d="M0 0 C0 16.5 0 33 0 50 C-20.226 50 -20.226 50 -25.371 45.711 C-32.257 38.478 -33.463 31.166 -33.32 21.484 C-32.696 14.693 -29.833 8.833 -25 4 C-18 0 -18 0 0 0 Z " fill="#888D93" transform="translate(89,15)"/>
<path d="M0 0 C19.931 0 19.931 0 25 5 C30.643 10.795 32.536 17.271 33.066 25.156 C32.901 32.228 30.442 38.512 26 44 C17.328 51.805 13.618 50 0 50 C0 33.5 0 17 0 0 Z " fill="#888D93" transform="translate(14,15)"/>
<path d="M0 0 C3.96 0 7.92 0 12 0 C15.63 10.89 19.26 21.78 23 33 C27.938 17.062 27.938 17.062 29.492 12.028 C29.899 10.718 30.307 9.408 30.715 8.098 C30.926 7.412 31.136 6.726 31.354 6.019 C32.886 1.114 32.886 1.114 34 0 C36.02 -0.072 38.042 -0.084 40.062 -0.062 C40.615 -0.058 40.615 -0.058 43.41 -0.035 C44.265 -0.024 45.119 -0.012 46 0 C44.366 4.926 42.73 9.852 41.093 14.777 C40.538 16.447 39.983 18.118 39.429 19.789 C30.605 46.395 30.605 46.395 29 48 C26.814 48.073 24.625 48.084 22.438 48.062 C21.839 48.058 21.839 48.058 18.809 48.035 C17.882 48.024 16.955 48.012 16 48 C12.988 39.671 9.99 31.337 7 23 C6.816 22.489 6.816 22.489 5.887 19.901 C4.898 17.144 3.917 14.385 2.938 11.625 C2.639 10.795 2.341 9.964 2.033 9.108 C0 3.345 0 3.345 0 0 Z " fill="#888D93" transform="translate(120,17)"/>
<path d="M0 0 C2.828 3.62 2.68 5.976 2.66 10.539 C2.657 11.841 2.654 13.143 2.65 14.484 C2.642 15.865 2.634 17.245 2.625 18.625 C2.62 20.013 2.615 21.401 2.611 22.789 C2.6 26.193 2.583 29.596 2.562 33 C-0.738 33 -4.038 33 -7.438 33 C-7.463 32.283 -7.488 31.567 -7.513 30.829 C-7.629 27.594 -7.752 24.359 -7.875 21.125 C-7.914 19.997 -7.954 18.869 -7.994 17.707 C-8.036 16.631 -8.078 15.554 -8.121 14.445 C-8.158 13.45 -8.194 12.455 -8.232 11.43 C-8.438 9 -8.438 9 -9.438 7 C-13.082 5.916 -14.617 6.045 -18.438 7 C-18.767 15.58 -19.098 24.16 -19.438 33 C-23.067 33 -26.697 33 -30.438 33 C-30.438 21.12 -30.438 9.24 -30.438 -3 C-27.137 -3 -23.837 -3 -20.438 -3 C-20.108 -1.68 -19.777 -0.36 -19.438 1 C-18.881 0.361 -18.324 -0.279 -17.75 -0.938 C-12.434 -5.679 -5.241 -4.301 0 0 Z " fill="#888D93" transform="translate(297.4375,32)"/>
<path d="M0 0 C4.356 3.529 5.797 7.247 6.938 12.688 C7.467 18.466 6.06 23.043 3.375 28.125 C0.074 32.068 -2.531 33.548 -7.684 34.129 C-14.316 34.386 -18.627 33.967 -23.875 29.812 C-28.466 24.013 -29.594 19.149 -28.875 11.812 C-27.556 5.741 -25.179 2.281 -19.875 -1.188 C-13.105 -3.998 -6.23 -4.074 0 0 Z M-15.688 7.125 C-18.381 10.952 -18.393 15.308 -17.875 19.812 C-16.719 22.175 -15.725 23.962 -13.875 25.812 C-10.5 25.75 -10.5 25.75 -6.875 24.812 C-4.079 21.318 -3.671 18.517 -4 14.188 C-4.557 10.712 -5.006 8.088 -7.875 5.812 C-11.122 5.339 -12.983 5.167 -15.688 7.125 Z " fill="#888D93" transform="translate(257.875,31.1875)"/>
<path d="M0 0 C2.82 3.015 3 3.667 3 8 C1.397 8.081 -0.208 8.139 -1.812 8.188 C-2.259 8.205 -2.259 8.205 -4.52 8.293 C-7.485 7.943 -8.025 7.109 -10 5 C-13.188 5.312 -13.188 5.312 -16 6 C-15.67 6.99 -15.34 7.98 -15 9 C-12.488 9.809 -12.488 9.809 -9.312 10.438 C-4.305 11.57 -0.928 12.709 3 16 C4.532 19.064 4.229 21.617 4 25 C2.6 28.423 1.495 29.702 -1.68 31.613 C-7.545 34.063 -15.081 34.397 -21.137 32.238 C-24.015 30.404 -26.293 27.939 -28 25 C-28 24.01 -28 23.02 -28 22 C-24.7 21.67 -21.4 21.34 -18 21 C-17.34 21.99 -16.68 22.98 -16 24 C-12.699 25.016 -11.328 25.109 -8 24 C-8 23.01 -8 22.02 -8 21 C-9.12 20.685 -10.24 20.371 -11.395 20.047 C-12.867 19.615 -14.34 19.183 -15.812 18.75 C-16.55 18.545 -17.288 18.34 -18.049 18.129 C-21.311 17.155 -23.512 16.475 -25.98 14.07 C-27.624 10.732 -27.715 7.576 -27 4 C-24.681 0.086 -22.583 -2.129 -18.25 -3.438 C-11.804 -4.632 -5.258 -4.175 0 0 Z " fill="#888D93" transform="translate(209,32)"/>
<path d="M0 0 C3.3 0 6.6 0 10 0 C10 11.88 10 23.76 10 36 C6.7 36 3.4 36 0 36 C0 24.12 0 12.24 0 0 Z " fill="#888D93" transform="translate(216,29)"/>
<path d="M0 0 C3.3 0 6.6 0 10 0 C10 11.88 10 23.76 10 36 C6.7 36 3.4 36 0 36 C0 24.12 0 12.24 0 0 Z " fill="#888D93" transform="translate(168,29)"/>
<path d="M0 0 C2 1.688 2 1.688 3 4 C2.332 6.393 1.779 8.221 0 10 C-5.218 10.454 -5.218 10.454 -7.938 8.875 C-9 7 -9 7 -8.812 3.875 C-8.544 2.926 -8.276 1.977 -8 1 C-5.171 -0.414 -3.126 -0.319 0 0 Z " fill="#888D93" transform="translate(176,15)"/>
<path d="M0 0 C3.125 0.25 3.125 0.25 5.062 1.438 C6.125 3.25 6.125 3.25 5.938 5.812 C5.125 8.25 5.125 8.25 3.125 10.25 C0.188 10.625 0.188 10.625 -2.875 10.25 C-4.875 8.562 -4.875 8.562 -5.875 6.25 C-4.234 0.368 -4.234 0.368 0 0 Z " fill="#888D93" transform="translate(220.875,14.75)"/>
</svg>
