<?xml version="1.0" encoding="UTF-8"?>
<!-- Generator: visioncortex VTracer 0.6.12 -->
<svg version="1.1" xmlns="http://www.w3.org/2000/svg" width="972" height="320">
<path d="M0 0 C0.372 -0 0.372 -0 2.254 -0 C4.624 0 6.993 0.008 9.363 0.016 C11.041 0.018 12.719 0.019 14.397 0.02 C18.747 0.024 23.097 0.034 27.447 0.045 C31.912 0.055 36.378 0.06 40.843 0.065 C49.556 0.075 58.268 0.092 66.98 0.114 C67.642 1.372 68.305 2.631 68.968 3.89 C69.179 4.291 69.179 4.291 70.247 6.32 C71.17 8.075 72.094 9.83 73.017 11.584 C74.907 15.175 76.796 18.765 78.688 22.354 C85.141 34.597 91.411 46.922 97.575 59.313 C101.816 67.836 106.132 76.312 110.603 84.717 C114.533 92.114 118.272 99.603 121.98 107.114 C126.009 102.603 128.459 97.558 131.116 92.183 C131.614 91.187 132.112 90.191 132.625 89.166 C134.265 85.884 135.896 82.599 137.527 79.313 C138.664 77.033 139.802 74.753 140.94 72.474 C143.625 67.093 146.305 61.709 148.983 56.324 C152.332 49.589 155.689 42.858 159.046 36.127 C165.032 24.127 171.005 12.12 176.98 0.114 C208.33 0.114 239.68 0.114 271.98 0.114 C271.98 60.834 271.98 121.554 271.98 184.114 C254.49 184.114 237 184.114 218.98 184.114 C218.98 140.554 218.98 96.994 218.98 52.114 C208.98 53.114 208.98 53.114 206.459 56.091 C205.823 57.407 205.229 58.743 204.671 60.094 C204.338 60.81 204.005 61.526 203.661 62.263 C202.585 64.594 201.565 66.946 200.542 69.301 C199.806 70.918 199.066 72.534 198.321 74.148 C196.851 77.343 195.399 80.544 193.96 83.754 C191.503 89.206 188.83 94.54 186.105 99.864 C182.034 107.931 178.12 116.067 174.244 124.23 C170.224 132.667 166.042 141.019 161.843 149.368 C156.721 159.575 151.783 169.866 146.897 180.188 C146.271 181.503 145.631 182.811 144.98 184.114 C130.13 184.114 115.28 184.114 99.98 184.114 C96.904 177.985 93.829 171.855 90.758 165.724 C89.718 163.649 88.678 161.575 87.636 159.502 C81.552 147.384 75.564 135.229 69.738 122.985 C66.405 115.982 62.984 109.033 59.48 102.114 C54.766 92.747 50.171 83.332 45.676 73.859 C42.845 67.897 39.943 61.985 36.906 56.125 C35.98 54.114 35.98 54.114 35.98 52.114 C32.68 52.114 29.38 52.114 25.98 52.114 C25.98 95.674 25.98 139.234 25.98 184.114 C8.49 184.114 -9 184.114 -27.02 184.114 C-27.02 123.724 -27.02 63.334 -27.02 1.114 C-6.77 -0.011 -6.77 -0.011 0 0 Z " fill="#888D93" transform="translate(125.02001953125,67.886474609375)"/>
<path d="M0 0 C28.71 0 57.42 0 87 0 C112.56 49.964 112.56 49.964 121.004 67.045 C124.176 73.44 127.449 79.771 130.789 86.078 C136.463 96.8 141.861 107.654 147.25 118.521 C152.189 128.472 157.21 138.367 162.409 148.185 C166.251 155.448 169.96 162.771 173.625 170.125 C174.254 171.379 174.883 172.633 175.512 173.887 C176.098 175.061 176.685 176.235 177.289 177.445 C177.551 177.969 177.551 177.969 178.874 180.618 C180 183 180 183 180 184 C159.21 184 138.42 184 117 184 C111.496 174.093 106.068 164.137 101 154 C63.05 154 25.1 154 -14 154 C-24 174 -24 174 -26.727 180.189 C-28.608 183.167 -29.511 183.864 -32.943 184.816 C-36.781 185.164 -40.525 185.127 -44.367 184.977 C-45.771 184.958 -47.175 184.944 -48.579 184.934 C-52.26 184.896 -55.937 184.798 -59.616 184.687 C-63.377 184.584 -67.137 184.539 -70.898 184.488 C-78.267 184.381 -85.633 184.211 -93 184 C-87.474 172.158 -81.755 160.445 -75.745 148.841 C-73.564 144.631 -71.395 140.415 -69.227 136.199 C-68.788 135.347 -68.35 134.494 -67.898 133.616 C-62.813 123.715 -57.848 113.754 -52.908 103.779 C-49.418 96.745 -45.841 89.767 -42.164 82.828 C-36.768 72.638 -31.625 62.328 -26.5 52 C-20.968 40.85 -15.403 29.728 -9.549 18.742 C-6.252 12.543 -3.144 6.288 0 0 Z M41 43 C30.897 62.111 20.856 81.259 11.125 100.562 C10.702 101.395 10.279 102.228 9.844 103.086 C7 108.764 7 108.764 7 111 C31.09 111 55.18 111 80 111 C78.511 106.533 77.015 102.786 74.927 98.627 C74.625 98.022 74.322 97.416 74.01 96.792 C73.018 94.81 72.021 92.831 71.023 90.852 C70.331 89.47 69.639 88.089 68.947 86.707 C67.132 83.085 65.313 79.466 63.492 75.847 C61.633 72.148 59.777 68.447 57.922 64.746 C54.286 57.495 50.644 50.247 47 43 C45.02 43 43.04 43 41 43 Z " fill="#888D93" transform="translate(499,68)"/>
<path d="M0 0 C9.379 -0.232 18.758 -0.41 28.14 -0.518 C32.497 -0.57 36.852 -0.641 41.208 -0.754 C45.416 -0.863 49.622 -0.923 53.832 -0.949 C55.433 -0.967 57.034 -1.003 58.635 -1.057 C71.162 -1.464 71.162 -1.464 75.698 2.149 C77.735 4.675 79.371 7.199 81 10 C82.078 11.383 83.177 12.75 84.309 14.09 C84.823 14.723 85.337 15.356 85.867 16.008 C86.385 16.645 86.904 17.281 87.438 17.938 C87.718 18.282 87.718 18.282 89.137 20.027 C92.951 24.716 96.775 29.398 100.609 34.07 C102.504 36.392 104.387 38.72 106.266 41.055 C106.841 41.768 107.417 42.482 108.01 43.217 C109.141 44.62 110.27 46.025 111.396 47.432 C114.421 51.178 117.525 54.666 121 58 C127.675 50.356 134.304 42.696 140.691 34.809 C143.413 31.497 146.201 28.247 149 25 C153.371 19.929 157.658 14.805 161.867 9.598 C162.571 8.74 163.275 7.883 164 7 C164.156 6.709 164.156 6.709 164.946 5.239 C166.427 2.879 167.667 1.557 170 0 C175.437 -1.007 180.834 -0.815 186.336 -0.684 C187.942 -0.671 189.547 -0.661 191.153 -0.654 C195.366 -0.627 199.577 -0.558 203.788 -0.481 C208.092 -0.409 212.395 -0.377 216.699 -0.342 C225.134 -0.267 233.567 -0.148 242 0 C241.055 1.268 240.109 2.535 239.163 3.802 C238.636 4.508 238.11 5.213 237.567 5.941 C235.408 8.778 233.13 11.477 230.812 14.188 C229.853 15.314 228.893 16.44 227.934 17.566 C227.449 18.134 226.964 18.701 226.464 19.286 C224.095 22.06 221.734 24.841 219.375 27.625 C219.145 27.896 219.145 27.896 217.983 29.267 C215.14 32.628 212.339 36.02 209.562 39.438 C205.605 44.301 201.535 49.059 197.442 53.808 C193.675 58.188 190.006 62.637 186.375 67.129 C184.55 69.335 182.7 71.501 180.812 73.652 C180.538 73.966 180.538 73.966 179.15 75.555 C178.072 76.785 176.987 78.011 175.896 79.23 C173.402 82.081 171.546 84.212 171 88 C172.188 89.641 172.188 89.641 174 91.25 C176.607 93.676 179.051 96.112 181.375 98.812 C183.997 101.856 186.669 104.844 189.375 107.812 C192.429 111.189 195.344 114.632 198.188 118.188 C203.09 124.253 208.423 129.882 213.77 135.555 C216.714 138.681 219.571 141.869 222.371 145.125 C224.337 147.388 226.357 149.597 228.375 151.812 C231.429 155.189 234.344 158.632 237.188 162.188 C241.682 167.762 246.542 172.954 251.479 178.137 C252.065 178.755 252.651 179.372 253.254 180.008 C253.519 180.284 253.519 180.284 254.858 181.684 C256 183 256 183 256 184 C245.951 184.162 235.903 184.287 225.853 184.363 C221.186 184.399 216.52 184.449 211.853 184.528 C207.347 184.604 202.841 184.646 198.334 184.664 C196.618 184.677 194.901 184.702 193.185 184.74 C179.745 185.025 179.745 185.025 175.427 182.489 C173.657 180.746 172.332 179.087 171 177 C170.252 176.12 169.505 175.239 168.734 174.332 C168.08 173.501 167.425 172.669 166.75 171.812 C163.467 167.731 160.068 163.83 156.5 160 C152.231 155.413 148.242 150.666 144.312 145.781 C141.367 142.238 138.249 138.879 135.11 135.507 C130.503 130.527 126.23 125.305 122 120 C118.259 121.5 116.501 123.586 114.062 126.75 C110.348 131.422 106.46 135.837 102.375 140.188 C101.249 141.389 100.122 142.591 98.996 143.793 C98.473 144.352 97.949 144.91 97.41 145.486 C93.577 149.602 89.945 153.889 86.301 158.172 C85.284 159.365 84.267 160.558 83.25 161.75 C82.74 162.348 82.231 162.946 81.705 163.562 C77.318 168.682 72.781 173.646 68.18 178.574 C66 181 66 181 64 184 C61.427 184.287 59.095 184.379 56.521 184.341 C56.136 184.341 56.136 184.341 54.185 184.342 C51.631 184.34 49.077 184.316 46.523 184.293 C44.755 184.287 42.987 184.283 41.218 184.28 C36.559 184.269 31.9 184.239 27.241 184.206 C22.489 184.175 17.737 184.162 12.984 184.146 C3.656 184.114 -5.672 184.063 -15 184 C-14.053 182.891 -13.106 181.783 -12.158 180.676 C-11.63 180.058 -11.103 179.441 -10.559 178.806 C-8.438 176.35 -6.255 173.954 -4.062 171.562 C-0.588 167.756 2.842 163.918 6.223 160.027 C9.053 156.799 11.94 153.621 14.816 150.434 C16.708 148.325 18.579 146.201 20.438 144.062 C24.089 139.868 27.843 135.769 31.59 131.66 C34.17 128.812 36.702 125.928 39.223 123.027 C42.053 119.799 44.94 116.621 47.816 113.434 C50.276 110.692 52.695 107.918 55.109 105.137 C58.234 101.605 61.455 98.162 64.668 94.711 C67.073 91.916 69.021 89.103 71 86 C70.455 85.406 69.909 84.811 69.348 84.199 C64.542 78.917 59.935 73.525 55.441 67.977 C52.715 64.652 49.929 61.384 47.125 58.125 C39.874 49.695 32.629 41.262 25.625 32.625 C21.985 28.148 18.23 23.785 14.438 19.438 C0 2.854 0 2.854 0 0 Z " fill="#888D93" transform="translate(695,68)"/>
<path d="M0 0 C19.14 0 38.28 0 58 0 C58 60.72 58 121.44 58 184 C38.86 184 19.72 184 0 184 C0 123.28 0 62.56 0 0 Z " fill="#888D93" transform="translate(0,68)"/>
<path d="M0 0 C3.904 3.329 5.833 5.604 7.062 10.688 C7.489 16.075 5.571 20.095 2.125 24.188 C-1.694 27.29 -5.654 27.149 -10.367 27.094 C-15.11 26.562 -17.746 24.129 -20.75 20.625 C-22.592 16.021 -22.834 11.494 -21.148 6.781 C-16.752 -1.655 -8.556 -3.534 0 0 Z M-16.875 5.812 C-19.227 9.02 -19.343 11.909 -18.875 15.812 C-17.241 18.848 -15.819 21.096 -13.062 23.188 C-9.765 24.13 -7.294 24.225 -3.875 23.812 C-0.903 22.028 1.551 19.96 3.125 16.812 C3.806 10 3.806 10 2.078 6.988 C0.297 4.824 -1.351 3.074 -3.875 1.812 C-9.557 1.266 -12.492 2.143 -16.875 5.812 Z " fill="#888D93" transform="translate(964.875,69.1875)"/>
<path d="M0 0 C10.75 -0.125 10.75 -0.125 13 1 C13 5.95 13 10.9 13 16 C11.68 16 10.36 16 9 16 C9 14.35 9 12.7 9 11 C7.35 11 5.7 11 4 11 C4 12.65 4 14.3 4 16 C2.68 16 1.36 16 0 16 C0 10.72 0 5.44 0 0 Z M4 3 C4 4.32 4 5.64 4 7 C5.65 7 7.3 7 9 7 C9 5.68 9 4.36 9 3 C7.35 3 5.7 3 4 3 Z " fill="#888D93" transform="translate(951,74)"/>
</svg>
