<?xml version="1.0" encoding="UTF-8"?>
<!-- Generator: visioncortex VTracer 0.6.12 -->
<svg version="1.1" xmlns="http://www.w3.org/2000/svg" width="668" height="320">
<path d="M0 0 C44 0 44 0 46 1 C46 21.46 46 41.92 46 63 C65.8 63 85.6 63 106 63 C106 42.54 106 22.08 106 1 C108.322 -0.161 109.666 -0.127 112.25 -0.129 C113.128 -0.133 114.005 -0.136 114.909 -0.139 C115.384 -0.138 115.384 -0.138 117.785 -0.133 C118.757 -0.134 119.728 -0.135 120.729 -0.136 C122.784 -0.136 124.839 -0.135 126.895 -0.13 C130.053 -0.125 133.211 -0.13 136.369 -0.137 C138.362 -0.136 140.355 -0.135 142.348 -0.133 C143.299 -0.135 144.25 -0.137 145.23 -0.139 C146.104 -0.136 146.978 -0.133 147.879 -0.129 C148.653 -0.129 149.426 -0.128 150.223 -0.127 C152 0 152 0 153 1 C153.097 3.19 153.122 5.382 153.12 7.574 C153.121 7.922 153.121 7.922 153.123 9.68 C153.125 12.027 153.119 14.373 153.114 16.719 C153.113 18.394 153.113 20.069 153.114 21.744 C153.114 26.306 153.108 30.868 153.101 35.429 C153.095 40.191 153.095 44.953 153.093 49.715 C153.09 58.739 153.082 67.763 153.072 76.787 C153.061 87.058 153.055 97.328 153.05 107.599 C153.04 128.733 153.022 149.866 153 171 C137.49 171 121.98 171 106 171 C106 147.9 106 124.8 106 101 C86.2 101 66.4 101 46 101 C46 124.1 46 147.2 46 171 C30.82 171 15.64 171 0 171 C0 114.57 0 58.14 0 0 Z M44 64 C44 64.33 44 64.66 44 65 C65.12 65 86.24 65 108 65 C108 64.67 108 64.34 108 64 C86.88 64 65.76 64 44 64 Z M44 99 C44 99.33 44 99.66 44 100 C65.12 100 86.24 100 108 100 C108 99.67 108 99.34 108 99 C86.88 99 65.76 99 44 99 Z " fill="#888D93" transform="translate(0,74)"/>
<path d="M0 0 C39.27 0 78.54 0 119 0 C119 12.21 119 24.42 119 37 C95.24 37 71.48 37 47 37 C47 45.58 47 54.16 47 63 C69.44 63 91.88 63 115 63 C115.021 68.899 115.041 74.798 115.062 80.875 C115.072 82.736 115.081 84.597 115.09 86.515 C115.093 87.987 115.096 89.458 115.098 90.93 C115.103 91.697 115.108 92.464 115.113 93.254 C115.114 98.772 115.114 98.772 114 101 C91.89 101 69.78 101 47 101 C47 112.22 47 123.44 47 135 C71.42 135 95.84 135 121 135 C126.369 145.737 122 158.995 122 171 C81.74 171 41.48 171 0 171 C0 114.57 0 58.14 0 0 Z M45 37 C45 45.58 45 54.16 45 63 C45.33 63 45.66 63 46 63 C46 54.42 46 45.84 46 37 C45.67 37 45.34 37 45 37 Z M45 101 C45 112.22 45 123.44 45 135 C45.33 135 45.66 135 46 135 C46 123.78 46 112.56 46 101 C45.67 101 45.34 101 45 101 Z " fill="#888D93" transform="translate(194,74)"/>
<path d="M0 0 C6.211 -0.074 12.422 -0.129 18.634 -0.165 C20.748 -0.18 22.861 -0.2 24.975 -0.226 C28.011 -0.263 31.046 -0.28 34.082 -0.293 C34.556 -0.301 34.556 -0.301 36.952 -0.34 C37.392 -0.34 37.392 -0.34 39.62 -0.341 C40.395 -0.347 41.17 -0.354 41.969 -0.361 C44.564 0.1 45.359 0.976 47 3 C50.189 7.784 51.269 11.224 51 17 C51.66 17 52.32 17 53 17 C53 18.65 53 20.3 53 22 C53.66 22 54.32 22 55 22 C55.165 23.485 55.165 23.485 56 31 C56.66 31 57.32 31 58 31 C58 32.65 58 34.3 58 36 C58.66 36 59.32 36 60 36 C60 37.98 60 39.96 60 42 C60.66 42 61.32 42 62 42 C64.04 46.93 65.407 50.58 65 56 C65.66 56 66.32 56 67 56 C67 57.65 67 59.3 67 61 C67.66 61 68.32 61 69 61 C72.444 70.41 72.444 70.41 72 75 C72.66 75 73.32 75 74 75 C74 76.98 74 78.96 74 81 C74.66 81 75.32 81 76 81 C76 82.65 76 84.3 76 86 C76.66 86 77.32 86 78 86 C78.165 87.485 78.165 87.485 79 95 C79.66 95 80.32 95 81 95 C81 96.65 81 98.3 81 100 C81.66 100 82.32 100 83 100 C84.98 105.61 86.96 111.22 89 117 C91.362 114.638 91.939 113.182 93 110 C93.165 109.505 93.165 109.505 94 107 C94.352 105.003 94.688 103.003 95 101 C95.66 101 96.32 101 97 101 C97 99.35 97 97.7 97 96 C97.66 96 98.32 96 99 96 C99.024 95.704 99.024 95.704 99.148 94.207 C99.565 89.809 100.05 86.031 102 82 C102.66 82 103.32 82 104 82 C104.082 80.742 104.165 79.484 104.25 78.188 C104.863 72.442 106.857 67.332 109 62 C109.66 62 110.32 62 111 62 C111 60.35 111 58.7 111 57 C111.66 57 112.32 57 113 57 C113.33 54.03 113.66 51.06 114 48 C114.66 48 115.32 48 116 48 C116 46.35 116 44.7 116 43 C116.66 43 117.32 43 118 43 C118.049 42.408 118.098 41.817 118.148 41.207 C118.565 36.809 119.05 33.031 121 29 C121.66 29 122.32 29 123 29 C123 27.02 123 25.04 123 23 C123.66 23 124.32 23 125 23 C125.33 20.36 125.66 17.72 126 15 C126.66 15 127.32 15 128 15 C128 13.02 128 11.04 128 9 C128.66 9 129.32 9 130 9 C130.33 6.36 130.66 3.72 131 1 C133.83 0.057 135.543 -0.122 138.471 -0.114 C138.922 -0.113 138.922 -0.113 141.201 -0.113 C142.17 -0.108 143.139 -0.103 144.137 -0.098 C144.634 -0.097 144.634 -0.097 147.151 -0.093 C150.33 -0.088 153.509 -0.075 156.688 -0.062 C158.842 -0.057 160.996 -0.053 163.15 -0.049 C168.434 -0.038 173.717 -0.021 179 0 C179.33 1.32 179.66 2.64 180 4 C179.34 4 178.68 4 178 4 C178.041 4.949 178.082 5.897 178.125 6.875 C178 10 178 10 176 12 C175.67 12.99 175.34 13.98 175 15 C174 18 174 18 173 20 C172.641 21.996 172.305 23.995 172 26 C171.34 26 170.68 26 170 26 C170 27.65 170 29.3 170 31 C169.34 31 168.68 31 168 31 C167.67 33.64 167.34 36.28 167 39 C166.34 39 165.68 39 165 39 C165 40.98 165 42.96 165 45 C164.34 45 163.68 45 163 45 C162.67 47.64 162.34 50.28 162 53 C161.34 53 160.68 53 160 53 C160 54.65 160 56.3 160 58 C159.34 58 158.68 58 158 58 C158.041 58.949 158.082 59.898 158.125 60.875 C158 64 158 64 156 66 C155.67 66.99 155.34 67.98 155 69 C154 72 154 72 153 74 C152.641 75.996 152.305 77.995 152 80 C151.34 80 150.68 80 150 80 C150 81.65 150 83.3 150 85 C149.34 85 148.68 85 148 85 C148.041 85.949 148.082 86.897 148.125 87.875 C148 91 148 91 146 93 C145.67 93.99 145.34 94.98 145 96 C144 99 144 99 143 101 C142.641 102.996 142.305 104.995 142 107 C141.34 107 140.68 107 140 107 C140 108.65 140 110.3 140 112 C139.34 112 138.68 112 138 112 C138 113.98 138 115.96 138 118 C137.34 118 136.68 118 136 118 C135.67 120.64 135.34 123.28 135 126 C134.34 126 133.68 126 133 126 C132.938 126.608 132.938 126.608 132.625 129.688 C132.211 133.065 131.454 135.898 130 139 C129.34 139 128.68 139 128 139 C128 140.98 128 142.96 128 145 C127.34 145 126.68 145 126 145 C125.856 145.763 125.711 146.526 125.562 147.312 C124.987 150.062 124.257 152.485 123 155 C122.641 156.996 122.305 158.995 122 161 C121.34 161 120.68 161 120 161 C120 162.65 120 164.3 120 166 C119.34 166 118.68 166 118 166 C118 167.65 118 169.3 118 171 C98.86 171 79.72 171 60 171 C59.67 168.36 59.34 165.72 59 163 C58.34 163 57.68 163 57 163 C56.67 160.36 56.34 157.72 56 155 C55.34 155 54.68 155 54 155 C54 153.02 54 151.04 54 149 C53.34 149 52.68 149 52 149 C52 147.35 52 145.7 52 144 C51.34 144 50.68 144 50 144 C49.67 141.36 49.34 138.72 49 136 C48.34 136 47.68 136 47 136 C47.041 135.051 47.082 134.102 47.125 133.125 C47 130 47 130 45 128 C41.875 118.625 41.875 118.625 41 114 C40.34 114 39.68 114 39 114 C39 112.35 39 110.7 39 109 C38.34 109 37.68 109 37 109 C37.041 108.051 37.082 107.103 37.125 106.125 C37 103 37 103 35 101 C34.333 99 33.667 97 33 95 C32.67 94.67 32.67 94.67 31 93 C30.402 90.906 30.402 90.906 29.938 88.5 C29.088 84.176 29.088 84.176 28 82 C27.109 79.326 26.523 76.763 26 74 C25.34 74 24.68 74 24 74 C24 72.02 24 70.04 24 68 C23.34 68 22.68 68 22 68 C22 66.35 22 64.7 22 63 C21.34 63 20.68 63 20 63 C19.67 60.36 19.34 57.72 19 55 C18.34 55 17.68 55 17 55 C17 53.02 17 51.04 17 49 C16.34 49 15.68 49 15 49 C14.928 48.618 14.928 48.618 14.562 46.688 C14 44 14 44 13 41 C12.835 40.505 12.835 40.505 12 38 C11 36 11 36 9 33 C8.875 30.312 8.875 30.312 9 28 C8.34 28 7.68 28 7 28 C7.041 27.051 7.082 26.102 7.125 25.125 C7 22 7 22 5 20 C4 17 3 14 2 11 C1.67 10.34 1.34 9.68 1 9 C-0.065 5.804 -0.074 3.343 0 0 Z M131 4 C132 6 132 6 132 6 Z M47 6 C48 8 48 8 48 8 Z M48 9 C49 11 49 11 49 11 Z M171 21 C172 23 172 23 172 23 Z M10 31 C11 33 11 33 11 33 Z M121 32 C122 34 122 34 122 34 Z M120 35 C121 37 121 37 121 37 Z M61 45 C62 47 62 47 62 47 Z M62 48 C63 50 63 50 63 50 Z M161 48 C162 50 162 50 162 50 Z M20 58 C21 60 21 60 21 60 Z M69 67 C70 69 70 69 70 69 Z M108 68 C109 70 109 70 109 70 Z M70 70 C71 72 71 72 71 72 Z M107 71 C108 73 108 73 108 73 Z M106 74 C107 76 107 76 107 76 Z M151 75 C152 77 152 77 152 77 Z M30 85 C31 87 31 87 31 87 Z M102 85 C103 87 103 87 103 87 Z M101 88 C102 90 102 90 102 90 Z M32 90 C33 92 33 92 33 92 Z M141 102 C142 104 142 104 142 104 Z M83 106 C84 108 84 108 84 108 Z M84 109 C85 111 85 111 85 111 Z M85 112 C86 114 86 114 86 114 Z M87 117 C88 120 88 120 88 120 Z M88 120 C88 120.66 88 121.32 88 122 C88.66 121.67 89.32 121.34 90 121 C89.34 120.67 88.68 120.34 88 120 Z M134 121 C135 123 135 123 135 123 Z M131 129 C132 131 132 131 132 131 Z M129 134 C130 136 130 136 130 136 Z M50 139 C51 141 51 141 51 141 Z M121 156 C122 158 122 158 122 158 Z M57 158 C58 160 58 160 58 160 Z M60 166 C61 168 61 168 61 168 Z " fill="#878C92" transform="translate(333,74)"/>
<path d="M0 0 C0.267 2.766 0.348 5.306 0.293 8.07 C0.289 8.867 0.284 9.663 0.28 10.483 C0.263 13.031 0.226 15.578 0.188 18.125 C0.172 19.85 0.159 21.576 0.146 23.301 C0.113 27.534 0.062 31.767 0 36 C-0.711 35.604 -1.421 35.208 -2.154 34.8 C-21.373 24.183 -42.954 16.656 -65 23 C-71.976 25.283 -71.976 25.283 -75 27 C-75.33 27.99 -75.66 28.98 -76 30 C-76.392 30.052 -76.392 30.052 -78.375 30.312 C-81 31 -81 31 -83 34 C-83.33 34.701 -83.66 35.403 -84 36.125 C-85 38 -85 38 -87 39 C-87.73 40.64 -88.387 42.313 -89 44 C-89.666 45.688 -90.332 47.375 -91 49.062 C-91.33 49.899 -91.66 50.736 -92 51.598 C-92.912 53.788 -93.91 55.893 -95 58 C-95.33 58 -95.66 58 -96 58 C-96.862 61.727 -97.129 65.178 -97.133 69 C-97.134 70.134 -97.135 71.269 -97.137 72.438 C-97.135 73.025 -97.135 73.025 -97.125 76 C-97.129 77.176 -97.133 78.351 -97.137 79.562 C-97.135 80.697 -97.134 81.831 -97.133 83 C-97.132 83.516 -97.132 83.516 -97.129 86.125 C-97.006 88.856 -96.615 91.341 -96 94 C-95.34 94 -94.68 94 -94 94 C-93.746 94.808 -93.492 95.616 -93.23 96.449 C-92.886 97.518 -92.542 98.586 -92.188 99.688 C-91.851 100.743 -91.515 101.799 -91.168 102.887 C-90.051 105.865 -88.674 108.308 -87 111 C-86.67 111.99 -86.34 112.98 -86 114 C-85.01 114.66 -84.02 115.32 -83 116 C-82.856 116.66 -82.711 117.32 -82.562 118 C-82 120 -82 120 -80.125 121.188 C-78.432 121.835 -76.719 122.427 -75 123 C-75 123.66 -75 124.32 -75 125 C-61.075 130.675 -61.075 130.675 -55 131 C-54.094 131.05 -53.188 131.101 -52.254 131.152 C-32.559 131.755 -17.079 125.316 0 116 C0 127.88 0 139.76 0 152 C-13.582 158.791 -13.582 158.791 -18.562 160.25 C-19.533 160.544 -20.504 160.838 -21.504 161.141 C-31.907 163.698 -41.893 164.403 -52.562 164.375 C-53.315 164.375 -54.068 164.375 -54.843 164.374 C-79.28 164.306 -101.948 158.328 -119.904 140.82 C-122.106 138.678 -124.129 136.924 -126.785 135.359 C-129 134 -129 134 -130 131 C-130.598 130.423 -131.196 129.845 -131.812 129.25 C-136.751 124.17 -138.117 119.843 -139 113 C-139.622 110.972 -140.271 108.952 -140.938 106.938 C-147.111 87.182 -147.612 61.837 -141 42 C-140.34 41.01 -139.68 40.02 -139 39 C-138.704 37.634 -138.458 36.257 -138.25 34.875 C-137.146 29.445 -134.494 25.254 -131 21 C-130.67 20.835 -130.67 20.835 -129 20 C-128.711 19.361 -128.423 18.721 -128.125 18.062 C-127 16 -127 16 -125.109 15.062 C-122.855 13.927 -121.775 12.823 -120.125 10.938 C-92.623 -17.332 -32.806 -21.871 0 0 Z M-94 48 C-93 51 -93 51 -93 51 Z M-94 101 C-93 104 -93 104 -93 104 Z " fill="#888D93" transform="translate(668,84)"/>
<path d="M0 0 C0.33 0.165 0.33 0.165 2 1 C4.185 1.092 6.374 1.118 8.561 1.114 C9.234 1.114 9.908 1.114 10.601 1.114 C12.831 1.113 15.06 1.105 17.289 1.098 C18.833 1.096 20.377 1.094 21.921 1.093 C25.989 1.09 30.056 1.08 34.123 1.069 C38.272 1.058 42.421 1.054 46.57 1.049 C54.714 1.038 62.857 1.021 71 1 C71 1.33 71 1.66 71 2 C48.89 2 26.78 2 4 2 C4 13.22 4 24.44 4 36 C28.42 36 52.84 36 78 36 C78 36.33 78 36.66 78 37 C77.052 37.01 76.105 37.021 75.128 37.031 C66.211 37.129 57.293 37.232 48.376 37.339 C43.791 37.395 39.206 37.448 34.622 37.497 C30.2 37.545 25.778 37.597 21.356 37.653 C19.666 37.673 17.976 37.692 16.286 37.709 C13.925 37.733 11.565 37.763 9.204 37.795 C8.852 37.798 8.852 37.798 7.072 37.812 C2.228 37.886 2.228 37.886 0 39 C0 26.13 0 13.26 0 0 Z M2 2 C2 13.22 2 24.44 2 36 C2.33 36 2.66 36 3 36 C3 24.78 3 13.56 3 2 C2.67 2 2.34 2 2 2 Z " fill="#ABACAE" transform="translate(237,173)"/>
<path d="M0 0 C0.33 0 0.66 0 1 0 C1 56.1 1 112.2 1 170 C0.67 170 0.34 170 0 170 C0 113.9 0 57.8 0 0 Z " fill="#7F7F7F" transform="translate(192,75)"/>
<path d="M0 0 C0.33 0 0.66 0 1 0 C1 56.1 1 112.2 1 170 C0.67 170 0.34 170 0 170 C0 113.9 0 57.8 0 0 Z " fill="#00FFFF" transform="translate(154,75)"/>
<path d="M0 0 C39.93 0 79.86 0 121 0 C121 0.33 121 0.66 121 1 C81.07 1 41.14 1 0 1 C0 0.67 0 0.34 0 0 Z " fill="#AAAAAA" transform="translate(194,246)"/>
<path d="M0 0 C38.61 0 77.22 0 117 0 C117 0.33 117 0.66 117 1 C78.39 1 39.78 1 0 1 C0 0.67 0 0.34 0 0 Z " fill="#000000" transform="translate(195,72)"/>
<path d="M0 0 C17.82 0 35.64 0 54 0 C54 0.33 54 0.66 54 1 C36.18 1 18.36 1 0 1 C0 0.67 0 0.34 0 0 Z " fill="#A8A8A8" transform="translate(395,246)"/>
<path d="M0 0 C14.52 0 29.04 0 44 0 C44 0.33 44 0.66 44 1 C29.48 1 14.96 1 0 1 C0 0.67 0 0.34 0 0 Z " fill="#A7A7A9" transform="translate(108,246)"/>
<path d="M0 0 C14.52 0 29.04 0 44 0 C44 0.33 44 0.66 44 1 C29.48 1 14.96 1 0 1 C0 0.67 0 0.34 0 0 Z " fill="#A9A9A9" transform="translate(0,246)"/>
<path d="M0 0 C14.52 0 29.04 0 44 0 C44 0.33 44 0.66 44 1 C29.48 1 14.96 1 0 1 C0 0.67 0 0.34 0 0 Z " fill="#000000" transform="translate(467,72)"/>
<path d="M0 0 C14.19 0 28.38 0 43 0 C43 0.33 43 0.66 43 1 C28.81 1 14.62 1 0 1 C0 0.67 0 0.34 0 0 Z " fill="#000000" transform="translate(334,72)"/>
<path d="M0 0 C14.19 0 28.38 0 43 0 C43 0.33 43 0.66 43 1 C28.81 1 14.62 1 0 1 C0 0.67 0 0.34 0 0 Z " fill="#000000" transform="translate(109,72)"/>
<path d="M0 0 C14.19 0 28.38 0 43 0 C43 0.33 43 0.66 43 1 C28.81 1 14.62 1 0 1 C0 0.67 0 0.34 0 0 Z " fill="#000000" transform="translate(0,72)"/>
<path d="M0 0 C0.33 0 0.66 0 1 0 C1 11.22 1 22.44 1 34 C0.67 34 0.34 34 0 34 C0 22.78 0 11.56 0 0 Z " fill="#7F7F7F" transform="translate(317,211)"/>
<path d="M0 0 C0.33 0 0.66 0 1 0 C1 11.22 1 22.44 1 34 C0.67 34 0.34 34 0 34 C0 22.78 0 11.56 0 0 Z " fill="#7B7B7B" transform="translate(310,139)"/>
<path d="M0 0 C0.33 0 0.66 0 1 0 C1 11.22 1 22.44 1 34 C0.67 34 0.34 34 0 34 C0 22.78 0 11.56 0 0 Z " fill="#848484" transform="translate(314,75)"/>
<path d="M0 0 C0.33 0 0.66 0 1 0 C1 8.58 1 17.16 1 26 C0.67 26 0.34 26 0 26 C0 17.42 0 8.84 0 0 Z " fill="#ABABAB" transform="translate(571,147)"/>
<path d="M0 0 C1.6 3.201 0.032 5.723 -1 9 C-1.99 8.34 -2.98 7.68 -4 7 C-3.67 5.02 -3.34 3.04 -3 1 C-2.01 0.67 -1.02 0.34 0 0 Z M-3 4 C-2 6 -2 6 -2 6 Z " fill="#7A7D81" transform="translate(467,74)"/>
<path d="M0 0 C0.33 0 0.66 0 1 0 C1 6.6 1 13.2 1 20 C0.67 20 0.34 20 0 20 C0 13.4 0 6.8 0 0 Z " fill="#65768C" transform="translate(521,150)"/>
<path d="M0 0 C3.96 0 7.92 0 12 0 C12 0.33 12 0.66 12 1 C8.04 1 4.08 1 0 1 C0 0.67 0 0.34 0 0 Z " fill="#747B82" transform="translate(613,214)"/>
<path d="M0 0 C3.63 0 7.26 0 11 0 C11 0.33 11 0.66 11 1 C7.37 1 3.74 1 0 1 C0 0.67 0 0.34 0 0 Z " fill="#7F868E" transform="translate(614,105)"/>
<path d="M0 0 C0.33 0 0.66 0 1 0 C1 2.64 1 5.28 1 8 C0.67 8 0.34 8 0 8 C0 5.36 0 2.72 0 0 Z " fill="#9FA9A9" transform="translate(522,170)"/>
<path d="M0 0 C0.33 0 0.66 0 1 0 C1 2.64 1 5.28 1 8 C0.67 8 0.34 8 0 8 C0 5.36 0 2.72 0 0 Z " fill="#7F89A9" transform="translate(522,142)"/>
<path d="M0 0 C2.31 0 4.62 0 7 0 C7 0.33 7 0.66 7 1 C4.69 1 2.38 1 0 1 C0 0.67 0 0.34 0 0 Z " fill="#8B8B8B" transform="translate(626,213)"/>
<path d="M0 0 C2.31 0 4.62 0 7 0 C7 0.33 7 0.66 7 1 C4.69 1 2.38 1 0 1 C0 0.67 0 0.34 0 0 Z " fill="#8B8B8B" transform="translate(626,106)"/>
<path d="M0 0 C1.98 0 3.96 0 6 0 C6 0.33 6 0.66 6 1 C4.02 1 2.04 1 0 1 C0 0.67 0 0.34 0 0 Z " fill="#8D8D8D" transform="translate(607,213)"/>
<path d="M0 0 C1.98 0 3.96 0 6 0 C6 0.33 6 0.66 6 1 C4.02 1 2.04 1 0 1 C0 0.67 0 0.34 0 0 Z " fill="#8D8D8D" transform="translate(607,106)"/>
<path d="M0 0 C1.65 0 3.3 0 5 0 C5 0.33 5 0.66 5 1 C3.35 1 1.7 1 0 1 C0 0.67 0 0.34 0 0 Z " fill="#7F7FB2" transform="translate(638,247)"/>
<path d="M0 0 C1.65 0 3.3 0 5 0 C5 0.33 5 0.66 5 1 C3.35 1 1.7 1 0 1 C0 0.67 0 0.34 0 0 Z " fill="#A9A9BA" transform="translate(587,247)"/>
<path d="M0 0 C0.33 0 0.66 0 1 0 C1 1.65 1 3.3 1 5 C0.67 5 0.34 5 0 5 C0 3.35 0 1.7 0 0 Z " fill="#A1A1A1" transform="translate(523,178)"/>
<path d="M0 0 C0.33 0 0.66 0 1 0 C1 1.65 1 3.3 1 5 C0.67 5 0.34 5 0 5 C0 3.35 0 1.7 0 0 Z " fill="#7676A9" transform="translate(572,173)"/>
<path d="M0 0 C0.33 0 0.66 0 1 0 C1 1.65 1 3.3 1 5 C0.67 5 0.34 5 0 5 C0 3.35 0 1.7 0 0 Z " fill="#65B2B2" transform="translate(572,142)"/>
<path d="M0 0 C0.33 0 0.66 0 1 0 C1 1.65 1 3.3 1 5 C0.67 5 0.34 5 0 5 C0 3.35 0 1.7 0 0 Z " fill="#A1A1A1" transform="translate(523,137)"/>
<path d="M0 0 C1.65 0 3.3 0 5 0 C5 0.33 5 0.66 5 1 C3.35 1 1.7 1 0 1 C0 0.67 0 0.34 0 0 Z " fill="#7F7FB2" transform="translate(638,72)"/>
<path d="M0 0 C1.65 0 3.3 0 5 0 C5 0.33 5 0.66 5 1 C3.35 1 1.7 1 0 1 C0 0.67 0 0.34 0 0 Z " fill="#A9A9BA" transform="translate(587,72)"/>
<path d="M0 0 C4 1 4 1 4 1 Z " fill="#6A6A6A" transform="translate(643,246)"/>
<path d="M0 0 C4 1 4 1 4 1 Z " fill="#5F5F5F" transform="translate(583,246)"/>
<path d="M0 0 C4 1 4 1 4 1 Z " fill="#9FB4B4" transform="translate(634,212)"/>
<path d="M0 0 C4 1 4 1 4 1 Z " fill="#5F5F5F" transform="translate(638,211)"/>
<path d="M0 0 C0.99 0.33 1.98 0.66 3 1 C2.01 1 1.02 1 0 1 C0 0.67 0 0.34 0 0 Z " fill="#5F5F8F" transform="translate(586,203)"/>
<path d="M0 0 C1 4 1 4 1 4 Z " fill="#6A6A6A" transform="translate(524,184)"/>
<path d="M0 0 C0.66 0.33 1.32 0.66 2 1 C1.01 1 0.02 1 -1 1 C-0.67 0.67 -0.34 0.34 0 0 Z " fill="#5F5F6F" transform="translate(587,115)"/>
<path d="M0 0 C4 1 4 1 4 1 Z " fill="#5F5F5F" transform="translate(638,108)"/>
<path d="M0 0 C4 1 4 1 4 1 Z " fill="#9FB4B4" transform="translate(634,107)"/>
<path d="M0 0 C4 1 4 1 4 1 Z " fill="#6A6A6A" transform="translate(643,73)"/>
<path d="M0 0 C4 1 4 1 4 1 Z " fill="#5F5F5F" transform="translate(583,73)"/>
<path d="M0 0 C3 1 3 1 3 1 Z " fill="#B8B8B8" transform="translate(647,245)"/>
<path d="M0 0 C3 1 3 1 3 1 Z " fill="#C6C6C6" transform="translate(580,245)"/>
<path d="M0 0 C3 1 3 1 3 1 Z " fill="#AAC6C6" transform="translate(650,244)"/>
<path d="M0 0 C3 1 3 1 3 1 Z " fill="#B8B8B8" transform="translate(577,244)"/>
<path d="M0 0 C3 1 3 1 3 1 Z " fill="#AAC6C6" transform="translate(653,243)"/>
<path d="M0 0 C3 1 3 1 3 1 Z " fill="#717171" transform="translate(574,243)"/>
<path d="M0 0 C3 1 3 1 3 1 Z " fill="#8D8D8D" transform="translate(658,241)"/>
<path d="" fill="#A9A9A9" transform="translate(0,0)"/>
<path d="" fill="#A9A9A9" transform="translate(0,0)"/>
<path d="" fill="#7F7F7F" transform="translate(0,0)"/>
<path d="" fill="#A9A9A9" transform="translate(0,0)"/>
<path d="M0 0 C3 1 3 1 3 1 Z " fill="#8D8D8D" transform="translate(603,212)"/>
<path d="M0 0 C3 1 3 1 3 1 Z " fill="#545454" transform="translate(600,211)"/>
<path d="M0 0 C3 1 3 1 3 1 Z " fill="#C6C6C6" transform="translate(642,210)"/>
<path d="M0 0 C3 1 3 1 3 1 Z " fill="#557171" transform="translate(597,210)"/>
<path d="M0 0 C3 1 3 1 3 1 Z " fill="#B8B8B8" transform="translate(645,209)"/>
<path d="" fill="#A9A9A9" transform="translate(0,0)"/>
<path d="" fill="#A9A9A9" transform="translate(0,0)"/>
<path d="" fill="#A9A9A9" transform="translate(0,0)"/>
<path d="" fill="#7F7F7F" transform="translate(0,0)"/>
<path d="" fill="#8D8D8D" transform="translate(0,0)"/>
<path d="" fill="#A9A9A9" transform="translate(0,0)"/>
<path d="" fill="#A9A9A9" transform="translate(0,0)"/>
<path d="" fill="#A9A9A9" transform="translate(0,0)"/>
<path d="" fill="#A9A9A9" transform="translate(0,0)"/>
<path d="" fill="#A9A9A9" transform="translate(0,0)"/>
<path d="" fill="#A9A9A9" transform="translate(0,0)"/>
<path d="" fill="#A9A9A9" transform="translate(0,0)"/>
<path d="" fill="#7F7F7F" transform="translate(0,0)"/>
<path d="" fill="#A9A9A9" transform="translate(0,0)"/>
<path d="" fill="#A9A9A9" transform="translate(0,0)"/>
<path d="" fill="#7F7F7F" transform="translate(0,0)"/>
<path d="" fill="#A9A9A9" transform="translate(0,0)"/>
<path d="" fill="#A9A9A9" transform="translate(0,0)"/>
<path d="" fill="#7F7F7F" transform="translate(0,0)"/>
<path d="" fill="#7F7F7F" transform="translate(0,0)"/>
<path d="" fill="#A9A9A9" transform="translate(0,0)"/>
<path d="" fill="#B8B8B8" transform="translate(0,0)"/>
<path d="" fill="#A9A9A9" transform="translate(0,0)"/>
<path d="" fill="#7F7F7F" transform="translate(0,0)"/>
<path d="" fill="#A9A9A9" transform="translate(0,0)"/>
<path d="" fill="#D4D4D4" transform="translate(0,0)"/>
<path d="" fill="#A9A9A9" transform="translate(0,0)"/>
<path d="" fill="#7F7F7F" transform="translate(0,0)"/>
<path d="" fill="#A9A9A9" transform="translate(0,0)"/>
<path d="" fill="#A9A9A9" transform="translate(0,0)"/>
<path d="M0 0 C3 1 3 1 3 1 Z " fill="#B8B8B8" transform="translate(645,110)"/>
<path d="M0 0 C3 1 3 1 3 1 Z " fill="#C6C6C6" transform="translate(642,109)"/>
<path d="M0 0 C3 1 3 1 3 1 Z " fill="#717171" transform="translate(597,109)"/>
<path d="M0 0 C3 1 3 1 3 1 Z " fill="#545454" transform="translate(600,108)"/>
<path d="M0 0 C3 1 3 1 3 1 Z " fill="#8D8D8D" transform="translate(603,107)"/>
<path d="" fill="#A9A9A9" transform="translate(0,0)"/>
<path d="" fill="#A9A9A9" transform="translate(0,0)"/>
<path d="" fill="#A9A9A9" transform="translate(0,0)"/>
<path d="" fill="#7F7F7F" transform="translate(0,0)"/>
<path d="" fill="#717171" transform="translate(0,0)"/>
<path d="" fill="#7F7F7F" transform="translate(0,0)"/>
<path d="" fill="#A9A9A9" transform="translate(0,0)"/>
<path d="" fill="#A9A9A9" transform="translate(0,0)"/>
<path d="" fill="#A9A9A9" transform="translate(0,0)"/>
<path d="" fill="#A9A9A9" transform="translate(0,0)"/>
<path d="M0 0 C3 1 3 1 3 1 Z " fill="#8D8D8D" transform="translate(658,78)"/>
<path d="" fill="#A9A9A9" transform="translate(0,0)"/>
<path d="M0 0 C3 1 3 1 3 1 Z " fill="#AAC6C6" transform="translate(653,76)"/>
<path d="M0 0 C3 1 3 1 3 1 Z " fill="#717171" transform="translate(574,76)"/>
<path d="M0 0 C3 1 3 1 3 1 Z " fill="#AAC6C6" transform="translate(650,75)"/>
<path d="M0 0 C3 1 3 1 3 1 Z " fill="#B8B8B8" transform="translate(577,75)"/>
<path d="M0 0 C3 1 3 1 3 1 Z " fill="#B8B8B8" transform="translate(647,74)"/>
<path d="M0 0 C3 1 3 1 3 1 Z " fill="#C6C6C6" transform="translate(580,74)"/>
<path d="M0 0 C2 1 2 1 2 1 Z " fill="#949494" transform="translate(656,242)"/>
<path d="M0 0 C2 1 2 1 2 1 Z " fill="#7F7F7F" transform="translate(572,242)"/>
<path d="M0 0 C2 1 2 1 2 1 Z " fill="#949494" transform="translate(570,241)"/>
<path d="M0 0 C2 1 2 1 2 1 Z " fill="#7F7F7F" transform="translate(661,240)"/>
<path d="M0 0 C2 1 2 1 2 1 Z " fill="#6A6A94" transform="translate(568,240)"/>
<path d="M0 0 C2 1 2 1 2 1 Z " fill="#949494" transform="translate(663,239)"/>
<path d="M0 0 C2 1 2 1 2 1 Z " fill="#6A6A6A" transform="translate(566,239)"/>
<path d="M0 0 C2 1 2 1 2 1 Z " fill="#6A6A94" transform="translate(665,238)"/>
<path d="M0 0 C2 1 2 1 2 1 Z " fill="#7F7FBF" transform="translate(564,238)"/>
<path d="" fill="#949494" transform="translate(0,0)"/>
<path d="M0 0 C2 1 2 1 2 1 Z " fill="#D4D4D4" transform="translate(562,237)"/>
<path d="" fill="#AAAAAA" transform="translate(0,0)"/>
<path d="M0 0 C2 1 2 1 2 1 Z " fill="#7F7F7F" transform="translate(559,235)"/>
<path d="M0 0 C2 1 2 1 2 1 Z " fill="#BFBFBF" transform="translate(556,233)"/>
<path d="M0 0 C2 1 2 1 2 1 Z " fill="#AAD4D4" transform="translate(552,230)"/>
<path d="" fill="#6A6A6A" transform="translate(0,0)"/>
<path d="" fill="#946A94" transform="translate(0,0)"/>
<path d="" fill="#6A6A6A" transform="translate(0,0)"/>
<path d="" fill="#AAAAAA" transform="translate(0,0)"/>
<path d="" fill="#6A9494" transform="translate(0,0)"/>
<path d="M0 0 C2 1 2 1 2 1 Z " fill="#949494" transform="translate(595,209)"/>
<path d="M0 0 C2 1 2 1 2 1 Z " fill="#7F7F7F" transform="translate(648,208)"/>
<path d="M0 0 C2 1 2 1 2 1 Z " fill="#949494" transform="translate(593,208)"/>
<path d="M0 0 C2 1 2 1 2 1 Z " fill="#555555" transform="translate(650,207)"/>
<path d="M0 0 C2 1 2 1 2 1 Z " fill="#D4D4D4" transform="translate(653,206)"/>
<path d="M0 0 C2 1 2 1 2 1 Z " fill="#D4D4D4" transform="translate(655,205)"/>
<path d="" fill="#7F7F7F" transform="translate(0,0)"/>
<path d="M0 0 C2 1 2 1 2 1 Z " fill="#BFBFBF" transform="translate(660,202)"/>
<path d="M0 0 C2 1 2 1 2 1 Z " fill="#7F7F7F" transform="translate(662,201)"/>
<path d="" fill="#6A9494" transform="translate(0,0)"/>
<path d="" fill="#7F7F7F" transform="translate(0,0)"/>
<path d="M0 0 C2 1 2 1 2 1 Z " fill="#BFBFBF" transform="translate(665,199)"/>
<path d="" fill="#7F7FAA" transform="translate(0,0)"/>
<path d="" fill="#6A6A6A" transform="translate(0,0)"/>
<path d="" fill="#AAAAAA" transform="translate(0,0)"/>
<path d="" fill="#949494" transform="translate(0,0)"/>
<path d="" fill="#6A6A6A" transform="translate(0,0)"/>
<path d="" fill="#AAAAAA" transform="translate(0,0)"/>
<path d="" fill="#6A6A6A" transform="translate(0,0)"/>
<path d="" fill="#7FAAAA" transform="translate(0,0)"/>
<path d="" fill="#6A6A6A" transform="translate(0,0)"/>
<path d="" fill="#6A9494" transform="translate(0,0)"/>
<path d="" fill="#6A9494" transform="translate(0,0)"/>
<path d="" fill="#949494" transform="translate(0,0)"/>
<path d="" fill="#AAAAAA" transform="translate(0,0)"/>
<path d="" fill="#7F7F7F" transform="translate(0,0)"/>
<path d="" fill="#AAAAAA" transform="translate(0,0)"/>
<path d="" fill="#6A6A94" transform="translate(0,0)"/>
<path d="" fill="#949494" transform="translate(0,0)"/>
<path d="" fill="#949494" transform="translate(0,0)"/>
<path d="" fill="#949494" transform="translate(0,0)"/>
<path d="" fill="#6A9494" transform="translate(0,0)"/>
<path d="" fill="#AAAAAA" transform="translate(0,0)"/>
<path d="" fill="#7F7F7F" transform="translate(0,0)"/>
<path d="" fill="#949494" transform="translate(0,0)"/>
<path d="M0 0 C2 1 2 1 2 1 Z " fill="#BFBFBF" transform="translate(665,120)"/>
<path d="" fill="#7F7F7F" transform="translate(0,0)"/>
<path d="" fill="#6A9494" transform="translate(0,0)"/>
<path d="M0 0 C2 1 2 1 2 1 Z " fill="#7F7F7F" transform="translate(662,118)"/>
<path d="M0 0 C2 1 2 1 2 1 Z " fill="#BFBFBF" transform="translate(660,117)"/>
<path d="M0 0 C2 1 2 1 2 1 Z " fill="#D4D4D4" transform="translate(655,114)"/>
<path d="M0 0 C2 1 2 1 2 1 Z " fill="#D4D4D4" transform="translate(653,113)"/>
<path d="M0 0 C2 1 2 1 2 1 Z " fill="#555555" transform="translate(650,112)"/>
<path d="M0 0 C2 1 2 1 2 1 Z " fill="#7F7F7F" transform="translate(648,111)"/>
<path d="M0 0 C2 1 2 1 2 1 Z " fill="#949494" transform="translate(593,111)"/>
<path d="" fill="#AAAAAA" transform="translate(0,0)"/>
<path d="M0 0 C2 1 2 1 2 1 Z " fill="#949494" transform="translate(595,110)"/>
<path d="" fill="#AAAAAA" transform="translate(0,0)"/>
<path d="" fill="#AAAAAA" transform="translate(0,0)"/>
<path d="" fill="#6A6A6A" transform="translate(0,0)"/>
<path d="" fill="#AAAAAA" transform="translate(0,0)"/>
<path d="" fill="#949494" transform="translate(0,0)"/>
<path d="" fill="#7F7F7F" transform="translate(0,0)"/>
<path d="" fill="#6A9494" transform="translate(0,0)"/>
<path d="" fill="#6A6A6A" transform="translate(0,0)"/>
<path d="M0 0 C2 1 2 1 2 1 Z " fill="#AAAAD4" transform="translate(552,89)"/>
<path d="M0 0 C2 1 2 1 2 1 Z " fill="#BFBFBF" transform="translate(556,86)"/>
<path d="M0 0 C2 1 2 1 2 1 Z " fill="#7F7F7F" transform="translate(559,84)"/>
<path d="" fill="#AAAAAA" transform="translate(0,0)"/>
<path d="M0 0 C2 1 2 1 2 1 Z " fill="#D4D4D4" transform="translate(562,82)"/>
<path d="" fill="#949494" transform="translate(0,0)"/>
<path d="M0 0 C2 1 2 1 2 1 Z " fill="#6A6A94" transform="translate(665,81)"/>
<path d="M0 0 C2 1 2 1 2 1 Z " fill="#7F7FBF" transform="translate(564,81)"/>
<path d="M0 0 C2 1 2 1 2 1 Z " fill="#949494" transform="translate(663,80)"/>
<path d="M0 0 C2 1 2 1 2 1 Z " fill="#6A6A6A" transform="translate(566,80)"/>
<path d="M0 0 C2 1 2 1 2 1 Z " fill="#7F7F7F" transform="translate(661,79)"/>
<path d="M0 0 C2 1 2 1 2 1 Z " fill="#6A6A94" transform="translate(568,79)"/>
<path d="M0 0 C2 1 2 1 2 1 Z " fill="#949494" transform="translate(570,78)"/>
<path d="M0 0 C2 1 2 1 2 1 Z " fill="#949494" transform="translate(656,77)"/>
<path d="M0 0 C2 1 2 1 2 1 Z " fill="#7F7F7F" transform="translate(572,77)"/>
<path d="" fill="#7F7F7F" transform="translate(0,0)"/>
<path d="" fill="#7FAAAA" transform="translate(0,0)"/>
<path d="" fill="#7F7F7F" transform="translate(0,0)"/>
<path d="" fill="#AAAAAA" transform="translate(0,0)"/>
<path d="" fill="#7F7F7F" transform="translate(0,0)"/>
<path d="" fill="#AAAAAA" transform="translate(0,0)"/>
<path d="" fill="#7F7F7F" transform="translate(0,0)"/>
<path d="" fill="#7F7F7F" transform="translate(0,0)"/>
<path d="" fill="#AAAAAA" transform="translate(0,0)"/>
<path d="" fill="#7F7F7F" transform="translate(0,0)"/>
<path d="" fill="#7F7FBF" transform="translate(0,0)"/>
<path d="" fill="#7F7F7F" transform="translate(0,0)"/>
<path d="" fill="#7F7F7F" transform="translate(0,0)"/>
<path d="" fill="#7F7F7F" transform="translate(0,0)"/>
<path d="" fill="#7F7F7F" transform="translate(0,0)"/>
<path d="" fill="#7F7F7F" transform="translate(0,0)"/>
<path d="" fill="#AAAAAA" transform="translate(0,0)"/>
<path d="" fill="#555555" transform="translate(0,0)"/>
<path d="" fill="#7F7F7F" transform="translate(0,0)"/>
<path d="" fill="#AAAAAA" transform="translate(0,0)"/>
<path d="" fill="#AAAAAA" transform="translate(0,0)"/>
<path d="" fill="#7F7F7F" transform="translate(0,0)"/>
<path d="" fill="#669999" transform="translate(0,0)"/>
<path d="" fill="#7F7F7F" transform="translate(0,0)"/>
<path d="" fill="#AAAAAA" transform="translate(0,0)"/>
<path d="" fill="#AAAAAA" transform="translate(0,0)"/>
<path d="" fill="#AAAAAA" transform="translate(0,0)"/>
<path d="" fill="#AAAAAA" transform="translate(0,0)"/>
<path d="" fill="#7F7F7F" transform="translate(0,0)"/>
<path d="" fill="#7FBFBF" transform="translate(0,0)"/>
<path d="" fill="#7F7F7F" transform="translate(0,0)"/>
<path d="" fill="#AAAAAA" transform="translate(0,0)"/>
<path d="" fill="#AAAAAA" transform="translate(0,0)"/>
<path d="" fill="#7F7F7F" transform="translate(0,0)"/>
<path d="" fill="#AAAAAA" transform="translate(0,0)"/>
<path d="" fill="#7F7F7F" transform="translate(0,0)"/>
<path d="" fill="#7F7F7F" transform="translate(0,0)"/>
<path d="" fill="#7F7F7F" transform="translate(0,0)"/>
<path d="" fill="#7F7F7F" transform="translate(0,0)"/>
<path d="" fill="#7F7F7F" transform="translate(0,0)"/>
<path d="" fill="#7F7FBF" transform="translate(0,0)"/>
<path d="" fill="#7F7F7F" transform="translate(0,0)"/>
<path d="" fill="#AAAAAA" transform="translate(0,0)"/>
<path d="" fill="#7F7F7F" transform="translate(0,0)"/>
<path d="" fill="#7F7F7F" transform="translate(0,0)"/>
<path d="" fill="#AAAAAA" transform="translate(0,0)"/>
<path d="" fill="#7F7F7F" transform="translate(0,0)"/>
<path d="" fill="#AAAAAA" transform="translate(0,0)"/>
<path d="" fill="#7F7F7F" transform="translate(0,0)"/>
<path d="" fill="#000000" transform="translate(0,0)"/>
<path d="" fill="#000000" transform="translate(0,0)"/>
</svg>
