<?xml version="1.0" encoding="UTF-8"?>
<!-- Generator: visioncortex VTracer 0.6.12 -->
<svg version="1.1" xmlns="http://www.w3.org/2000/svg" width="363" height="80">
<path d="M0 0 C0 16.5 0 33 0 50 C-20.36 50 -20.36 50 -24.461 46.676 C-30.533 40.064 -33.831 33.592 -34.062 24.562 C-33.705 17.415 -31.359 10.677 -26.477 5.332 C-17.804 -2.174 -13.227 0 0 0 Z " fill="#888D93" transform="translate(93,9)"/>
<path d="M0 0 C20.29 0 20.29 0 25.301 4.145 C32.214 11.694 33.544 18.935 33.344 28.898 C33 35.137 30.717 40.075 26.473 44.645 C17.906 52.208 13.054 50 0 50 C0 33.5 0 17 0 0 Z " fill="#888D93" transform="translate(17,9)"/>
<path d="M0 0 C0.771 -0.014 1.542 -0.028 2.336 -0.043 C4.883 0.213 6.465 0.831 8.625 2.188 C8.955 2.848 9.285 3.508 9.625 4.188 C9.955 2.867 10.285 1.547 10.625 0.188 C13.925 0.188 17.225 0.188 20.625 0.188 C20.699 5.793 20.754 11.397 20.79 17.003 C20.805 18.909 20.825 20.815 20.851 22.72 C20.888 25.463 20.905 28.206 20.918 30.949 C20.933 31.798 20.949 32.648 20.965 33.522 C20.966 38.247 20.711 41.363 17.625 45.188 C11.627 49.782 7.104 50.72 -0.375 50.188 C-5.897 49.158 -8.825 47.573 -12.375 43.188 C-13.008 41.023 -13.008 41.023 -13.375 39.188 C-11.795 38.937 -10.211 38.713 -8.625 38.5 C-7.743 38.372 -6.862 38.245 -5.953 38.113 C-2.781 38.205 -1.776 39.213 0.625 41.188 C3.737 41.436 5.816 41.592 8.625 40.188 C9.039 38.34 9.039 38.34 9.25 36.125 C9.374 34.826 9.498 33.526 9.625 32.188 C9.075 32.671 8.524 33.154 7.957 33.652 C3.817 36.377 -0.612 36.015 -5.375 35.188 C-9.412 33.104 -11.726 30.429 -13.812 26.438 C-15.086 19.077 -15.26 11.811 -11.375 5.188 C-7.657 1.651 -5.086 0.042 0 0 Z M-2.375 11.188 C-3.868 15.667 -4.096 20.18 -2.5 24.625 C-1.375 26.188 -1.375 26.188 0.625 27.188 C6.02 27.647 6.02 27.647 8.262 25.945 C10.718 22.779 10.749 19.094 10.625 15.188 C9.063 11.517 7.966 10.415 4.625 8.188 C1.077 8.188 0.206 8.865 -2.375 11.188 Z " fill="#888D93" transform="translate(199.375,21.8125)"/>
<path d="M0 0 C3.939 -0.103 7.879 -0.206 11.938 -0.312 C12.549 -0.335 12.549 -0.335 15.644 -0.45 C22.93 -0.542 28.174 0.454 34 5 C39.29 11.24 40.495 18.173 40.309 26.156 C39.508 33.532 36.767 39.102 31.074 43.844 C21.333 49.274 11.085 47 0 47 C0 31.49 0 15.98 0 0 Z M10 9 C10 18.57 10 28.14 10 38 C21 38 21 38 26 35 C29.667 30.53 29.5 25.416 29.355 19.852 C28.844 15.75 27.833 13.99 25 11 C21 9 21 9 10 9 Z " fill="#888D93" transform="translate(128,11)"/>
<path d="M0 0 C3.466 1.865 5.384 3.591 6.727 7.246 C6.954 10.271 6.954 10.271 6.922 13.762 C6.915 15.012 6.909 16.263 6.902 17.551 C6.886 18.853 6.869 20.155 6.852 21.496 C6.843 22.814 6.834 24.131 6.824 25.488 C6.801 28.741 6.768 31.993 6.727 35.246 C3.427 35.246 0.127 35.246 -3.273 35.246 C-3.603 34.586 -3.933 33.926 -4.273 33.246 C-5.263 33.762 -6.253 34.277 -7.273 34.809 C-11.713 36.696 -14.596 36.378 -19.273 35.246 C-22.034 33.425 -23.794 32.204 -25.273 29.246 C-25.738 24.597 -25.713 22.178 -23.711 17.934 C-19.399 13.28 -11.269 13.106 -5.273 12.246 C-5.273 10.926 -5.273 9.606 -5.273 8.246 C-8.648 8.059 -8.648 8.059 -12.273 8.246 C-12.603 8.741 -12.603 8.741 -14.273 11.246 C-17.573 10.916 -20.873 10.586 -24.273 10.246 C-23.035 5.292 -21.546 3.06 -17.273 0.246 C-11.888 -1.549 -5.428 -1.8 0 0 Z M-9.836 20.496 C-10.642 20.728 -11.447 20.96 -12.277 21.199 C-14.273 22.246 -14.273 22.246 -15.176 24.23 C-15.208 24.896 -15.24 25.561 -15.273 26.246 C-13.273 28.246 -13.273 28.246 -10.398 28.684 C-7.273 28.246 -7.273 28.246 -4.898 25.996 C-3.273 23.246 -3.273 23.246 -3.273 19.246 C-5.67 19.246 -7.541 19.803 -9.836 20.496 Z " fill="#888D93" transform="translate(285.2734375,22.75390625)"/>
<path d="M0 0 C3.3 0 6.6 0 10 0 C10 2.64 10 5.28 10 8 C12.31 8 14.62 8 17 8 C17 10.64 17 13.28 17 16 C14.69 16 12.38 16 10 16 C10.33 21.94 10.66 27.88 11 34 C12.65 34.33 14.3 34.66 16 35 C16.33 37.97 16.66 40.94 17 44 C15.106 44.136 13.21 44.232 11.312 44.312 C10.257 44.371 9.201 44.429 8.113 44.488 C5 44 5 44 2.125 42.219 C-1.089 37.35 -0.539 32.88 -0.312 27.188 C-0.29 26.113 -0.267 25.039 -0.244 23.932 C-0.185 21.286 -0.103 18.644 0 16 C-1.65 16 -3.3 16 -5 16 C-5 13.36 -5 10.72 -5 8 C-3.35 8 -1.7 8 0 8 C0 5.36 0 2.72 0 0 Z " fill="#888D93" transform="translate(242,14)"/>
<path d="M0 0 C3.63 0 7.26 0 11 0 C11 15.51 11 31.02 11 47 C7.37 47 3.74 47 0 47 C0 31.49 0 15.98 0 0 Z " fill="#888D93" transform="translate(296,11)"/>
<path d="M0 0 C2.97 0 5.94 0 9 0 C9 3.96 9 7.92 9 12 C12.96 12 16.92 12 21 12 C21 14.97 21 17.94 21 21 C17.04 21 13.08 21 9 21 C9 24.96 9 28.92 9 33 C6.03 33 3.06 33 0 33 C0 29.04 0 25.08 0 21 C-3.96 21 -7.92 21 -12 21 C-12 18.03 -12 15.06 -12 12 C-8.04 12 -4.08 12 0 12 C0 8.04 0 4.08 0 0 Z " fill="#888D93" transform="translate(325,22)"/>
<path d="M0 0 C3.63 0 7.26 0 11 0 C11 11.88 11 23.76 11 36 C7.37 36 3.74 36 0 36 C0 24.12 0 12.24 0 0 Z " fill="#888D93" transform="translate(224,22)"/>
<path d="M0 0 C3.3 0 6.6 0 10 0 C10 11.88 10 23.76 10 36 C6.7 36 3.4 36 0 36 C0 24.12 0 12.24 0 0 Z " fill="#888D93" transform="translate(172,22)"/>
<path d="M0 0 C2 1.687 2 1.687 3 4 C2.5 6.625 2.5 6.625 1 9 C-1.724 10.649 -3.123 11.195 -6.25 10.5 C-8 9 -8 9 -8.938 6.062 C-9 3 -9 3 -7.938 1.125 C-5.11 -0.517 -3.207 -0.468 0 0 Z " fill="#888D93" transform="translate(180,8)"/>
<path d="M0 0 C1 1 1 1 1.312 3.875 C1 7 1 7 -0.625 9 C-3 10 -3 10 -6.188 9.25 C-9 8 -9 8 -10 7 C-9.688 3.5 -9.688 3.5 -9 0 C-5.908 -1.546 -3.315 -0.603 0 0 Z " fill="#888D93" transform="translate(234,9)"/>
</svg>
