<?xml version="1.0" encoding="UTF-8"?>
<!-- Generator: visioncortex VTracer 0.6.12 -->
<svg version="1.1" xmlns="http://www.w3.org/2000/svg" width="978" height="320">
<path d="M0 0 C88.342 0 88.342 0 108.098 19.301 C110 21 110 21 112.184 22.043 C114 23 114 23 115 26 C115.619 26.619 116.237 27.237 116.875 27.875 C120.85 31.85 122.198 35.014 122.684 40.617 C123.051 43.386 123.808 45.936 124.562 48.625 C128.279 64.504 126.248 80.475 122 96 C121.858 96.709 121.716 97.418 121.57 98.148 C119.364 105.312 114.413 111.353 108 115 C106.47 116.281 104.951 117.574 103.438 118.875 C75.698 141.208 31.201 134 0 134 C0 89.78 0 45.56 0 0 Z M36 27 C36.66 27.66 37.32 28.32 38 29 C38.198 31.428 38.273 33.743 38.259 36.172 C38.262 36.91 38.266 37.649 38.269 38.409 C38.278 40.856 38.272 43.303 38.266 45.75 C38.267 47.446 38.269 49.143 38.271 50.839 C38.274 54.397 38.27 57.954 38.261 61.512 C38.249 66.079 38.256 70.645 38.268 75.212 C38.275 78.715 38.273 82.219 38.268 85.722 C38.266 87.406 38.268 89.091 38.273 90.775 C38.278 93.126 38.27 95.477 38.259 97.828 C38.263 98.528 38.267 99.229 38.271 99.95 C38.229 104.771 38.229 104.771 36 107 C50.29 107.467 64.632 107.197 77 99 C80.12 95.88 81.403 93.038 83 89 C83.865 87.058 84.74 85.12 85.625 83.188 C86.071 82.212 86.517 81.236 86.977 80.23 C87.314 79.494 87.652 78.758 88 78 C88.33 78 88.66 78 89 78 C90.555 68.864 90.493 60.003 88 51 C87.34 50.34 86.68 49.68 86 49 C84 46 84 46 83.188 43.688 C79.807 36.036 74.471 33.101 67 30 C56.818 26.489 46.609 26.884 36 27 Z M36 29 C36 54.08 36 79.16 36 105 C36.33 105 36.66 105 37 105 C37 79.92 37 54.84 37 29 C36.67 29 36.34 29 36 29 Z M85 46 C86 48 86 48 86 48 Z M87 79 C88 82 88 82 88 82 Z M86 83 C87 85 87 85 87 85 Z " fill="#888D93" transform="translate(519,77)"/>
<path d="M0 0 C87.46 0 87.46 0 106.816 18.887 C109.099 21.096 111.499 23.044 114 25 C119.172 29.364 122.996 35.522 123.688 42.312 C123.731 43.06 123.775 43.808 123.82 44.578 C124.022 47.302 124.534 49.883 125.062 52.562 C127.027 64.29 126.374 75.194 123.656 86.695 C123 90 123 90 123.105 93.043 C122.97 96.831 121.74 98.945 119.812 102.188 C119.221 103.212 118.629 104.237 118.02 105.293 C115.87 108.175 114.101 109.271 111 111 C109.608 112.379 108.254 113.799 106.938 115.25 C91.96 130.5 72.265 132.441 52 134 C34.84 134 17.68 134 0 134 C0 89.78 0 45.56 0 0 Z M35 27 C35.66 27.66 36.32 28.32 37 29 C37.188 31.439 37.252 33.764 37.227 36.204 C37.227 36.945 37.228 37.687 37.228 38.451 C37.227 40.907 37.211 43.364 37.195 45.82 C37.192 47.521 37.189 49.222 37.187 50.924 C37.179 55.405 37.159 59.887 37.137 64.368 C37.117 68.939 37.108 73.511 37.098 78.082 C37.076 87.055 37.042 96.027 37 105 C40.684 105.217 44.369 105.411 48.055 105.602 C49.092 105.663 50.129 105.724 51.198 105.787 C60.293 106.239 67.478 105.539 74.875 99.75 C75.226 99.296 75.226 99.296 77 97 C77.512 96.366 78.024 95.732 78.551 95.078 C81.324 91.557 83.647 88.331 85 84 C85.66 84 86.32 84 87 84 C89.003 78.175 89.304 72.946 89.25 66.812 C89.258 65.924 89.265 65.035 89.273 64.119 C89.272 63.69 89.272 63.69 89.266 61.52 C89.263 60.747 89.261 59.975 89.259 59.179 C88.968 56.728 88.214 55.134 87 53 C86.31 51.668 85.623 50.334 84.938 49 C84.596 48.34 84.254 47.68 83.902 47 C83 45 83 45 82.508 42.828 C82 41 82 41 79.938 39.75 C79.618 39.626 79.618 39.626 78 39 C78 38.01 78 37.02 78 36 C68.759 27.534 54.854 26.804 43 26.938 C42.225 26.942 41.451 26.947 40.652 26.951 C38.768 26.963 36.884 26.981 35 27 Z M35 29 C35 54.08 35 79.16 35 105 C35.33 105 35.66 105 36 105 C36 79.92 36 54.84 36 29 C35.67 29 35.34 29 35 29 Z M121 39 C122 41 122 41 122 41 Z M86 50 C87 52 87 52 87 52 Z M121 93 C122 95 122 95 122 95 Z M35 106 C35 106.33 35 106.66 35 107 C40.61 107 46.22 107 52 107 C52 106.67 52 106.34 52 106 C46.39 106 40.78 106 35 106 Z " fill="#888D93" transform="translate(228,77)"/>
<path d="M0 0 C81.692 0 81.692 0 99 15 C99.598 15.454 100.196 15.907 100.812 16.375 C102.73 18.999 102.671 21.823 103 25 C103.168 25.764 103.335 26.529 103.508 27.316 C105.292 37.047 104.03 46.675 101 56 C100.74 56.875 100.479 57.751 100.211 58.652 C98.642 61.693 97.019 62.454 94 64 C93.57 64.259 93.57 64.259 91.395 65.57 C90.542 66.083 89.69 66.596 88.812 67.125 C88.383 67.384 88.383 67.384 86.207 68.695 C84.831 69.509 83.43 70.285 82 71 C82.519 71.387 83.039 71.773 83.574 72.172 C98.306 83.173 98.306 83.173 101.594 89.578 C102.061 90.481 102.529 91.384 103.011 92.314 C103.502 93.283 103.994 94.252 104.5 95.25 C105.014 96.252 105.528 97.254 106.057 98.286 C107.147 100.415 108.232 102.546 109.314 104.679 C111.027 108.054 112.757 111.42 114.488 114.785 C115.597 116.96 116.706 119.136 117.812 121.312 C118.346 122.35 118.88 123.387 119.43 124.456 C119.671 124.936 119.671 124.936 120.895 127.363 C121.11 127.788 121.11 127.788 122.202 129.935 C122.334 130.276 122.334 130.276 123 132 C122.67 132.66 122.34 133.32 122 134 C108.47 134 94.94 134 81 134 C79.041 129.999 77.081 125.998 75.062 121.875 C74.445 120.624 73.828 119.374 73.192 118.085 C72.949 117.585 72.949 117.585 71.723 115.055 C71.225 114.039 70.728 113.023 70.215 111.976 C68.982 108.955 68.481 106.214 68 103 C66.688 100.938 66.688 100.938 65 99 C61.169 94.472 61.169 94.472 60.062 91.375 C59 89 59 89 54 86 C48.39 86 42.78 86 37 86 C37 101.51 37 117.02 37 133 C25.965 138.518 12.338 134 0 134 C0 89.78 0 45.56 0 0 Z M35 26 C35 26.33 35 26.66 35 27 C41.6 27 48.2 27 55 27 C55 26.67 55 26.34 55 26 C48.4 26 41.8 26 35 26 Z M35 28 C35 37.57 35 47.14 35 57 C35.33 57 35.66 57 36 57 C36 47.43 36 37.86 36 28 C35.67 28 35.34 28 35 28 Z M45.562 27.438 C42.737 27.623 39.911 27.809 37 28 C37 37.57 37 47.14 37 57 C40.712 57.227 44.425 57.454 48.25 57.688 C49.414 57.767 50.579 57.847 51.778 57.928 C52.702 57.977 53.626 58.025 54.578 58.074 C55.521 58.132 56.463 58.189 57.435 58.249 C60.502 57.951 61.812 57.134 64 55 C64 54.34 64 53.68 64 53 C64.32 52.639 64.32 52.639 65.938 50.812 C68.428 47.416 68.848 45.18 69 41 C68.188 38.938 68.188 38.938 67 37 C66.845 36.495 66.845 36.495 66.062 33.938 C64.51 29.644 64.51 29.644 62 28 C56.402 26.886 51.204 27.043 45.562 27.438 Z M35 58 C35 58.33 35 58.66 35 59 C41.6 59 48.2 59 55 59 C55 58.67 55 58.34 55 58 C48.4 58 41.8 58 35 58 Z M35 84 C35 84.33 35 84.66 35 85 C40.28 85 45.56 85 51 85 C51 84.67 51 84.34 51 84 C45.72 84 40.44 84 35 84 Z " fill="#878C92" transform="translate(670,77)"/>
<path d="M0 0 C0.99 0.33 1.98 0.66 3 1 C3.165 1.495 3.165 1.495 4 4 C4.33 4.165 4.33 4.165 6 5 C6.33 5.165 6.33 5.165 8 6 C8.165 6.495 8.165 6.495 9 9 C9.639 9.598 10.279 10.196 10.938 10.812 C13.389 13.413 14.055 15.585 15 19 C15.165 19.495 15.165 19.495 16 22 C18.578 29.734 18.152 37.943 18.125 46 C18.129 47.137 18.133 48.274 18.137 49.445 C18.128 57.157 17.652 64.448 16 72 C15.34 72 14.68 72 14 72 C13.897 72.928 13.794 73.856 13.688 74.812 C12.96 78.184 12.47 78.826 10 81 C9.691 81.681 9.381 82.361 9.062 83.062 C7.727 85.497 6.457 85.809 4 87 C2.363 88.941 1.134 90.732 0 93 C-1.661 93.358 -3.329 93.688 -5 94 C-6.405 94.669 -7.8 95.358 -9.188 96.062 C-18.215 99.752 -29.854 99.433 -39.062 96.438 C-43.653 94.468 -47.419 91.7 -51.223 88.488 C-53 87 -53 87 -55 86 C-55.33 101.84 -55.66 117.68 -56 134 C-66.89 134 -77.78 134 -89 134 C-89 88.13 -89 42.26 -89 -5 C-56 -5 -56 -5 -54 -4 C-53.375 -0.938 -53.375 -0.938 -53 2 C-48.091 0.129 -43.504 -2.254 -38.84 -4.66 C-26.255 -10.598 -11.352 -6.883 0 0 Z M-47 20 C-48.812 22.787 -50.303 25.604 -51.738 28.602 C-53 31 -53 31 -55 32 C-55.049 35.933 -55.086 39.865 -55.11 43.798 C-55.125 45.793 -55.15 47.788 -55.176 49.783 C-55.182 51.037 -55.189 52.29 -55.195 53.582 C-55.206 54.739 -55.216 55.897 -55.227 57.089 C-55 60 -55 60 -53 63 C-52.67 63.99 -52.34 64.98 -52 66 C-51.34 66 -50.68 66 -50 66 C-49.905 66.614 -49.809 67.227 -49.711 67.859 C-48.828 70.518 -48.084 70.985 -45.625 72.25 C-40.481 74.564 -35.542 74.941 -30 74 C-26.175 72.432 -22.989 70.67 -20.848 67.055 C-20 65 -20 65 -19 61.375 C-18 58 -18 58 -16 56 C-15.741 53.94 -15.741 53.94 -15.734 51.422 C-15.732 50.508 -15.729 49.594 -15.727 48.652 C-15.73 48.173 -15.73 48.173 -15.75 45.75 C-15.742 44.808 -15.735 43.865 -15.727 42.895 C-15.741 37.861 -16.018 33.71 -18 29 C-18.289 28.257 -18.577 27.515 -18.875 26.75 C-20 25 -20 25 -22 24 C-24 23 -24 23 -24.875 21 C-26 19 -26 19 -28.625 17.75 C-34.742 16.391 -41.876 15.716 -47 20 Z M-56 36 C-56 42.27 -56 48.54 -56 55 C-55.67 55 -55.34 55 -55 55 C-55 48.73 -55 42.46 -55 36 C-55.33 36 -55.66 36 -56 36 Z M15 67 C16 69 16 69 16 69 Z " fill="#888D93" transform="translate(960,115)"/>
<path d="M0 0 C4.93 -0.025 9.859 -0.043 14.789 -0.055 C16.466 -0.06 18.143 -0.067 19.82 -0.075 C22.23 -0.088 24.641 -0.093 27.051 -0.098 C27.801 -0.103 28.551 -0.108 29.324 -0.113 C32.49 -0.114 34.973 -0.009 38 1 C38.165 2.32 38.165 2.32 39 9 C39.66 9 40.32 9 41 9 C41 10.98 41 12.96 41 15 C41.66 15 42.32 15 43 15 C43 16.65 43 18.3 43 20 C43.66 20 44.32 20 45 20 C47.112 29.41 47.112 29.41 48 34 C48.66 34 49.32 34 50 34 C50 35.98 50 37.96 50 40 C50.66 40 51.32 40 52 40 C52 41.65 52 43.3 52 45 C52.66 45 53.32 45 54 45 C54.845 47.204 55.676 49.412 56.5 51.625 C56.964 52.855 57.428 54.085 57.906 55.352 C58.943 58.81 59.22 61.422 59 65 C59.66 65 60.32 65 61 65 C61 66.65 61 68.3 61 70 C61.66 70 62.32 70 63 70 C63.165 71.485 63.165 71.485 64 79 C64.66 79 65.32 79 66 79 C66 80.65 66 82.3 66 84 C66.66 84 67.32 84 68 84 C68 85.98 68 87.96 68 90 C69.32 90 70.64 90 72 90 C72.205 89.241 72.41 88.481 72.621 87.699 C72.891 86.705 73.16 85.711 73.438 84.688 C73.704 83.701 73.971 82.715 74.246 81.699 C77.163 71.255 77.163 71.255 80 67 C80.125 64.312 80.125 64.312 80 62 C80.66 62 81.32 62 82 62 C82.049 61.408 82.098 60.817 82.148 60.207 C82.565 55.809 83.05 52.031 85 48 C85.66 48 86.32 48 87 48 C87.049 47.374 87.098 46.747 87.148 46.102 C87.186 45.693 87.186 45.693 87.375 43.625 C87.445 42.813 87.514 42.001 87.586 41.164 C88 39 88 39 90 37 C90.33 36.01 90.66 35.02 91 34 C92 31 92 31 94 28 C94.125 25.312 94.125 25.312 94 23 C94.66 23 95.32 23 96 23 C96 21.02 96 19.04 96 17 C96.66 17 97.32 17 98 17 C98.33 14.36 98.66 11.72 99 9 C99.66 9 100.32 9 101 9 C100.938 8.072 100.876 7.144 100.812 6.188 C101 3 101 3 102.001 1.319 C105.164 -0.768 108.508 -0.366 112.168 -0.293 C112.963 -0.289 113.758 -0.284 114.576 -0.28 C117.114 -0.263 119.65 -0.226 122.188 -0.188 C123.908 -0.172 125.629 -0.159 127.35 -0.146 C131.567 -0.113 135.783 -0.062 140 0 C139.67 3.3 139.34 6.6 139 10 C138.34 10 137.68 10 137 10 C137 11.98 137 13.96 137 16 C136.34 16 135.68 16 135 16 C134.928 16.382 134.928 16.382 134.562 18.312 C133.987 21.062 133.257 23.485 132 26 C131.641 27.996 131.305 29.995 131 32 C130.34 32 129.68 32 129 32 C129 33.65 129 35.3 129 37 C128.34 37 127.68 37 127 37 C127.041 37.949 127.082 38.898 127.125 39.875 C127 43 127 43 125 45 C124.67 45.99 124.34 46.98 124 48 C123 51 123 51 122 53 C121.641 54.996 121.305 56.995 121 59 C120.34 59 119.68 59 119 59 C119 60.65 119 62.3 119 64 C118.34 64 117.68 64 117 64 C117.041 64.949 117.082 65.897 117.125 66.875 C117 70 117 70 115 72 C114.835 72.495 114.835 72.495 114 75 C113 78 113 78 112 80 C111.641 81.996 111.305 83.995 111 86 C110.34 86 109.68 86 109 86 C109 87.65 109 89.3 109 91 C108.34 91 107.68 91 107 91 C107.041 91.949 107.082 92.897 107.125 93.875 C107 97 107 97 105 99 C104.835 99.495 104.835 99.495 104 102 C103 105 103 105 102 107 C101.641 108.996 101.305 110.995 101 113 C100.34 113 99.68 113 99 113 C99 114.65 99 116.3 99 118 C98.34 118 97.68 118 97 118 C96.67 120.64 96.34 123.28 96 126 C95.34 126 94.68 126 94 126 C94 127.98 94 129.96 94 132 C93.34 132 92.68 132 92 132 C91.67 132.66 91.34 133.32 91 134 C76.48 134 61.96 134 47 134 C47 132.35 47 130.7 47 129 C46.34 129 45.68 129 45 129 C44.856 128.237 44.711 127.474 44.562 126.688 C43.867 123.363 43.434 121.434 41 119 C40.875 115.875 40.875 115.875 41 113 C40.34 113 39.68 113 39 113 C39 111.35 39 109.7 39 108 C38.34 108 37.68 108 37 108 C34.96 103.07 33.593 99.42 34 94 C33.34 94 32.68 94 32 94 C31.856 93.237 31.711 92.474 31.562 91.688 C31 89 31 89 30 86 C29.67 85.01 29.34 84.02 29 83 C28 81 28 81 26 78 C25.875 75.312 25.875 75.312 26 73 C25.34 73 24.68 73 24 73 C24 71.02 24 69.04 24 67 C23.34 67 22.68 67 22 67 C21.856 66.237 21.711 65.474 21.562 64.688 C21 62 21 62 20 59 C19.67 58.01 19.34 57.02 19 56 C18 54 18 54 16 51 C14.145 47.186 13.803 44.226 14 40 C13.34 40 12.68 40 12 40 C11.928 39.618 11.928 39.618 11.562 37.688 C11 35 11 35 10 32 C9.67 31.01 9.34 30.02 9 29 C8 27 8 27 6 24 C5.875 21.312 5.875 21.312 6 19 C5.34 19 4.68 19 4 19 C4 17.02 4 15.04 4 13 C3.34 13 2.68 13 2 13 C1.67 10.36 1.34 7.72 1 5 C0.34 5 -0.32 5 -1 5 C-0.67 3.35 -0.34 1.7 0 0 Z M7 22 C8 24 8 24 8 24 Z M45 26 C46 28 46 28 46 28 Z M130 27 C131 29 131 29 131 29 Z M12 35 C13 37 13 37 13 37 Z M89 40 C90 42 90 42 90 42 Z M125 40 C126 42 126 42 126 42 Z M15 43 C16 45 16 45 16 45 Z M16 46 C17 48 17 48 17 48 Z M17 49 C18 51 18 51 18 51 Z M54 51 C55 53 55 53 55 53 Z M85 51 C86 53 86 53 86 53 Z M55 54 C56 56 56 56 56 56 Z M84 54 C85 56 85 56 85 56 Z M120 54 C121 56 121 56 121 56 Z M56 57 C57 59 57 59 57 59 Z M22 62 C23 64 23 64 23 64 Z M115 67 C116 69 116 69 116 69 Z M27 76 C28 78 28 78 28 78 Z M110 81 C111 83 111 83 111 83 Z M32 89 C33 91 33 91 33 91 Z M69 93 C69 93.66 69 94.32 69 95 C69.66 95 70.32 95 71 95 C71 94.34 71 93.68 71 93 C70.34 93 69.68 93 69 93 Z M105 94 C106 96 106 96 106 96 Z M36 100 C37 102 37 102 37 102 Z M37 103 C38 105 38 105 38 105 Z M100 108 C101 110 101 110 101 110 Z M42 116 C43 118 43 118 43 118 Z " fill="#878C92" transform="translate(363,77)"/>
<path d="M0 0 C0.963 0.491 1.926 0.982 2.918 1.488 C9.994 5.324 15.551 9.911 21.309 15.449 C27.35 21.175 27.35 21.175 31 23 C31.33 23.99 31.66 24.98 32 26 C32.605 26.592 33.209 27.183 33.832 27.793 C36.405 30.413 37.94 33.086 39.688 36.312 C40.289 37.402 40.891 38.491 41.512 39.613 C43.066 43.149 43.513 46.192 44 50 C44.66 50.99 45.32 51.98 46 53 C48.079 56.118 48.22 56.582 48.062 60.062 C47.982 63.373 48.113 66.523 48.5 69.812 C49.832 82.147 48.99 94.775 47 107 C46.34 107 45.68 107 45 107 C44.711 108.196 44.423 109.392 44.125 110.625 C42.672 116.645 40.696 121.886 37.562 127.25 C37.264 127.768 37.264 127.768 35.754 130.391 C34 133 34 133 31 135 C30.67 135.99 30.34 136.98 30 138 C28.669 138.671 27.335 139.337 26 140 C24.503 141.483 23.049 143.01 21.625 144.562 C6.32 160.183 -14.948 168.956 -36.671 169.293 C-57.884 169.405 -74.886 165.16 -93 154 C-93.66 153.67 -94.32 153.34 -95 153 C-97.447 150.627 -99.818 148.189 -102.188 145.738 C-102.971 144.938 -103.755 144.137 -104.562 143.312 C-105.306 142.546 -106.05 141.779 -106.816 140.988 C-109 139 -109 139 -111.215 137.918 C-113 137 -113 137 -114 134 C-114.594 133.428 -115.189 132.855 -115.801 132.266 C-118.569 129.414 -120.338 126.228 -122.188 122.75 C-122.543 122.12 -122.898 121.489 -123.264 120.84 C-125.761 116.187 -126.608 112.265 -127 107 C-127.66 107 -128.32 107 -129 107 C-129.865 101.02 -130.16 95.21 -130.168 89.172 C-130.171 88.26 -130.175 87.349 -130.178 86.41 C-130.183 84.497 -130.185 82.585 -130.185 80.672 C-130.188 77.745 -130.206 74.818 -130.225 71.891 C-130.228 70.026 -130.23 68.161 -130.23 66.297 C-130.238 65.424 -130.245 64.551 -130.252 63.652 C-130.249 62.837 -130.246 62.022 -130.243 61.183 C-130.244 60.47 -130.246 59.756 -130.247 59.022 C-129.809 55.441 -127.978 52.967 -126 50 C-125.931 49.461 -125.931 49.461 -125.582 46.73 C-124.944 42.64 -123.683 39.923 -121.688 36.312 C-121.39 35.764 -121.39 35.764 -119.887 32.988 C-118.14 30.222 -116.358 28.237 -114 26 C-113.691 25.319 -113.381 24.639 -113.062 23.938 C-112 22 -112 22 -109.875 20.75 C-104.847 17.689 -101.011 13.145 -97.004 8.871 C-95.008 7.007 -93.466 6.122 -91 5 C-89.974 4.416 -88.948 3.832 -87.891 3.23 C-60.984 -11.988 -27.834 -14.721 0 0 Z M-93 23 C-93 23.99 -93 24.98 -93 26 C-95.312 28 -95.312 28 -98 30 C-100.129 31.814 -100.947 32.868 -102 35.5 C-103.265 38.662 -105.002 40.162 -107.562 42.312 C-110.13 45.327 -110.819 48.982 -111.5 52.812 C-111.665 53.534 -111.83 54.256 -112 55 C-112.33 55.165 -112.33 55.165 -114 56 C-115.077 61.275 -115.16 66.487 -115.168 71.855 C-115.171 72.68 -115.175 73.504 -115.178 74.353 C-115.183 76.083 -115.185 77.813 -115.185 79.544 C-115.188 82.19 -115.206 84.836 -115.225 87.482 C-115.228 89.169 -115.23 90.856 -115.23 92.543 C-115.238 93.332 -115.245 94.12 -115.252 94.933 C-115.23 100.279 -114.774 103.226 -111 107 C-110.856 108.093 -110.711 109.186 -110.562 110.312 C-110 114.002 -109.235 116.049 -107 119 C-106.34 119 -105.68 119 -105 119 C-101.182 124.091 -101.182 124.091 -100.562 127.188 C-99.682 130.024 -97.521 130.619 -95 132 C-93.187 133.688 -93.187 133.688 -92 135 C-92.33 135.66 -92.66 136.32 -93 137 C-73.354 152.436 -53.666 158.025 -29 156 C-19.191 154.691 -10.597 150.724 -2 146 C-1.346 145.702 -0.693 145.404 -0.02 145.098 C2.803 143.563 5.144 141.599 7.625 139.562 C8.587 138.78 9.548 137.998 10.539 137.191 C13.403 134.642 14.787 132.639 16 129 C16.99 128.67 17.98 128.34 19 128 C19.33 127.01 19.66 126.02 20 125 C20.66 124.34 21.32 123.68 22 123 C22.702 121.348 23.363 119.678 24 118 C24.865 116.058 25.74 114.12 26.625 112.188 C27.071 111.212 27.517 110.236 27.977 109.23 C28.314 108.494 28.652 107.758 29 107 C29.66 107 30.32 107 31 107 C31.062 106.361 31.062 106.361 31.375 103.125 C31.75 99.25 31.75 99.25 34 97 C36.709 84.898 37.689 70.378 32 59 C31.641 57.004 31.305 55.005 31 53 C30.34 53 29.68 53 29 53 C27.849 50.752 26.704 48.502 25.562 46.25 C25.237 45.616 24.912 44.982 24.576 44.328 C23.029 41.266 21.608 38.394 21 35 C20.34 35 19.68 35 19 35 C18.948 34.68 18.948 34.68 18.688 33.062 C18.461 32.382 18.234 31.701 18 31 C17.01 30.67 16.02 30.34 15 30 C14.859 29.403 14.719 28.806 14.574 28.191 C13.383 23.647 8.577 20.788 5 18 C1.938 16.312 1.938 16.312 -1 15 C-2.15 14.214 -3.295 13.422 -4.438 12.625 C-29.347 -3.306 -72.673 0.697 -93 23 Z M37 35 C38 37 38 37 38 37 Z M40 41 C41 43 41 43 41 43 Z M46 56 C47 58 47 58 47 58 Z M-129 57 C-128 60 -128 60 -128 60 Z M-116 64 C-115 68 -115 68 -115 68 Z M-117 69 C-117 76.26 -117 83.52 -117 91 C-116.67 91 -116.34 91 -116 91 C-116 83.74 -116 76.48 -116 69 C-116.33 69 -116.66 69 -117 69 Z M-116 92 C-115 96 -115 96 -115 96 Z M-129 100 C-128 103 -128 103 -128 103 Z M46 102 C47 104 47 104 47 104 Z M40 117 C41 119 41 119 41 119 Z M37 123 C38 125 38 125 38 125 Z " fill="#888D93" transform="translate(130,80)"/>
<path d="M0 0 C10.89 0 21.78 0 33 0 C33 33.33 33 66.66 33 101 C22.11 101 11.22 101 0 101 C0 67.67 0 34.34 0 0 Z " fill="#888D93" transform="translate(808,110)"/>
<path d="M0 0 C0.825 0.33 0.825 0.33 5 2 C5.443 2.175 5.443 2.175 7.688 3.062 C9.985 3.994 11.792 4.837 13.742 6.367 C16.41 8.296 19.169 9.68 22.125 11.125 C22.652 11.384 22.652 11.384 25.32 12.695 C26.205 13.126 27.089 13.556 28 14 C30 15 30 15 31.805 16.398 C34.153 18.112 36.513 19.354 39.125 20.625 C39.994 21.05 40.863 21.476 41.758 21.914 C42.498 22.272 43.238 22.631 44 23 C46 24 46 24 47.812 25.5 C50.24 27.164 52.111 27.599 55 28 C55 28.66 55 29.32 55 30 C56.32 30.33 57.64 30.66 59 31 C59 31.66 59 32.32 59 33 C58.551 33.179 58.551 33.179 56.277 34.082 C50.508 36.555 45.062 39.675 39.562 42.688 C38.449 43.294 37.336 43.901 36.189 44.525 C33.458 46.014 30.728 47.506 28 49 C28 49.66 28 50.32 28 51 C27.629 51.052 27.629 51.052 25.75 51.312 C22.796 52.051 21.347 53.122 19 55 C18.505 55.165 18.505 55.165 16 56 C13.36 57.32 13.36 57.32 0 64 C0 42.88 0 21.76 0 0 Z " fill="#878C92" transform="translate(68,128)"/>
<path d="M0 0 C10.89 0 21.78 0 33 0 C33 8.91 33 17.82 33 27 C22.11 27 11.22 27 0 27 C0 18.09 0 9.18 0 0 Z " fill="#898D93" transform="translate(808,72)"/>
<path d="M0 0 C0.33 0 0.66 0 1 0 C1 45.21 1 90.42 1 137 C0.67 137 0.34 137 0 137 C0 91.79 0 46.58 0 0 Z " fill="#7F7F7F" transform="translate(869,111)"/>
<path d="M0 0 C0.33 0 0.66 0 1 0 C1 44.22 1 88.44 1 134 C0.67 134 0.34 134 0 134 C0 89.78 0 45.56 0 0 Z " fill="#A7A7A7" transform="translate(668,77)"/>
<path d="M0 0 C0.33 0 0.66 0 1 0 C1 44.22 1 88.44 1 134 C0.67 134 0.34 134 0 134 C0 89.78 0 45.56 0 0 Z " fill="#7D7D7F" transform="translate(226,77)"/>
<path d="M0 0 C0.33 0 0.66 0 1 0 C1 43.56 1 87.12 1 132 C0.67 132 0.34 132 0 132 C0 88.44 0 44.88 0 0 Z " fill="#7F7F7F" transform="translate(517,78)"/>
<path d="M0 0 C0.33 0 0.66 0 1 0 C1 32.67 1 65.34 1 99 C0.67 99 0.34 99 0 99 C0 66.33 0 33.66 0 0 Z " fill="#000000" transform="translate(842,111)"/>
<path d="M0 0 C0.33 0 0.66 0 1 0 C1 32.67 1 65.34 1 99 C0.67 99 0.34 99 0 99 C0 66.33 0 33.66 0 0 Z " fill="#000000" transform="translate(806,111)"/>
<path d="M0 0 C0.33 0 0.66 0 1 0 C1 20.79 1 41.58 1 63 C0.67 63 0.34 63 0 63 C0 42.21 0 21.42 0 0 Z " fill="#A7A7A7" transform="translate(66,128)"/>
<path d="M0 0 C20.46 0 40.92 0 62 0 C62 0.33 62 0.66 62 1 C41.54 1 21.08 1 0 1 C0 0.67 0 0.34 0 0 Z " fill="#7C7C81" transform="translate(670,75)"/>
<path d="M0 0 C17.16 0 34.32 0 52 0 C52 0.33 52 0.66 52 1 C34.84 1 17.68 1 0 1 C0 0.67 0 0.34 0 0 Z " fill="#626267" transform="translate(520,212)"/>
<path d="M0 0 C17.16 0 34.32 0 52 0 C52 0.33 52 0.66 52 1 C34.84 1 17.68 1 0 1 C0 0.67 0 0.34 0 0 Z " fill="#676969" transform="translate(228,212)"/>
<path d="M0 0 C17.16 0 34.32 0 52 0 C52 0.33 52 0.66 52 1 C34.84 1 17.68 1 0 1 C0 0.67 0 0.34 0 0 Z " fill="#818181" transform="translate(228,75)"/>
<path d="M0 0 C16.83 0 33.66 0 51 0 C51 0.33 51 0.66 51 1 C34.17 1 17.34 1 0 1 C0 0.67 0 0.34 0 0 Z " fill="#7F7F84" transform="translate(520,75)"/>
<path d="M0 0 C2 2 2 2 2.203 3.949 C2.18 4.744 2.158 5.539 2.135 6.358 C2.115 7.259 2.095 8.159 2.074 9.088 C2.042 10.062 2.01 11.036 1.977 12.039 C1.964 12.537 1.964 12.537 1.901 15.057 C1.818 18.247 1.722 21.436 1.625 24.625 C1.567 26.784 1.509 28.943 1.453 31.102 C1.313 36.401 1.161 41.701 1 47 C0.67 47 0.34 47 0 47 C0 31.49 0 15.98 0 0 Z " fill="#FBFBFB" transform="translate(905,201)"/>
<path d="M0 0 C13.86 0 27.72 0 42 0 C42 0.33 42 0.66 42 1 C28.14 1 14.28 1 0 1 C0 0.67 0 0.34 0 0 Z " fill="#5F6363" transform="translate(412,212)"/>
<path d="M0 0 C12.21 0 24.42 0 37 0 C37 0.33 37 0.66 37 1 C24.79 1 12.58 1 0 1 C0 0.67 0 0.34 0 0 Z " fill="#545457" transform="translate(753,212)"/>
<path d="M0 0 C0.99 0.33 1.98 0.66 3 1 C2.67 1.66 2.34 2.32 2 3 C1.732 3.66 1.464 4.32 1.188 5 C-0.257 7.432 -1.466 7.848 -4 9 C-5.75 10.625 -5.75 10.625 -7 12 C-7.99 11.67 -8.98 11.34 -10 11 C-9.446 10.457 -8.891 9.915 -8.32 9.355 C-7.958 8.998 -7.958 8.998 -6.125 7.188 C-5.406 6.48 -4.686 5.772 -3.945 5.043 C-2 3 -2 3 0 0 Z " fill="#93979B" transform="translate(968,193)"/>
<path d="M0 0 C11.55 0 23.1 0 35 0 C35 0.33 35 0.66 35 1 C23.45 1 11.9 1 0 1 C0 0.67 0 0.34 0 0 Z " fill="#5D6262" transform="translate(670,212)"/>
<path d="M0 0 C11.55 0 23.1 0 35 0 C35 0.33 35 0.66 35 1 C23.45 1 11.9 1 0 1 C0 0.67 0 0.34 0 0 Z " fill="#7B7B7B" transform="translate(468,75)"/>
<path d="M0 0 C11.55 0 23.1 0 35 0 C35 0.33 35 0.66 35 1 C23.45 1 11.9 1 0 1 C0 0.67 0 0.34 0 0 Z " fill="#828282" transform="translate(363,75)"/>
<path d="M0 0 C0.495 0.33 0.495 0.33 3 2 C3.66 2 4.32 2 5 2 C8 7.75 8 7.75 8 10 C5.688 9.875 5.688 9.875 3 9 C0.978 5.793 0 3.808 0 0 Z " fill="#828689" transform="translate(741,188)"/>
<path d="M0 0 C3.483 3.019 4.792 5.569 6 10 C4.68 10.33 3.36 10.66 2 11 C1.303 9.713 0.618 8.421 -0.062 7.125 C-0.254 6.765 -0.254 6.765 -1.223 4.945 C-1.479 4.303 -1.736 3.661 -2 3 C-1 1 -1 1 0 0 Z M2 6 C3 8 3 8 3 8 Z " fill="#8B989B" transform="translate(602,117)"/>
<path d="M0 0 C10.56 0 21.12 0 32 0 C32 0.33 32 0.66 32 1 C21.44 1 10.88 1 0 1 C0 0.67 0 0.34 0 0 Z " fill="#5A5C5F" transform="translate(809,212)"/>
<path d="M0 0 C10.56 0 21.12 0 32 0 C32 0.33 32 0.66 32 1 C21.44 1 10.88 1 0 1 C0 0.67 0 0.34 0 0 Z " fill="#FFFFFF" transform="translate(871,108)"/>
<path d="M0 0 C10.56 0 21.12 0 32 0 C32 0.33 32 0.66 32 1 C21.44 1 10.88 1 0 1 C0 0.67 0 0.34 0 0 Z " fill="#FFFFFF" transform="translate(809,108)"/>
<path d="M0 0 C10.56 0 21.12 0 32 0 C32 0.33 32 0.66 32 1 C21.44 1 10.88 1 0 1 C0 0.67 0 0.34 0 0 Z " fill="#A6A6A8" transform="translate(809,100)"/>
<path d="M0 0 C3.086 1.2 6.04 2.52 9 4 C9.99 4.33 10.98 4.66 12 5 C12 5.99 12 6.98 12 8 C8.703 7.342 6.159 6.106 3.25 4.438 C2.451 3.982 1.652 3.527 0.828 3.059 C0.225 2.709 -0.378 2.36 -1 2 C-0.67 1.34 -0.34 0.68 0 0 Z " fill="#7F838C" transform="translate(951,111)"/>
<path d="M0 0 C2.154 2.622 3.401 4.644 4 8 C2.35 8 0.7 8 -1 8 C-1 6.35 -1 4.7 -1 3 C-1.66 3 -2.32 3 -3 3 C-3 2.34 -3 1.68 -3 1 C-2.01 0.67 -1.02 0.34 0 0 Z " fill="#757783" transform="translate(789,203)"/>
<path d="M0 0 C3.795 1.491 5.61 3.757 8 7 C7.01 7.66 6.02 8.32 5 9 C0.571 3.857 0.571 3.857 0 0 Z " fill="#83868C" transform="translate(303,110)"/>
<path d="M0 0 C7.483 6.15 7.483 6.15 10 10 C9.34 10 8.68 10 8 10 C7.67 10.66 7.34 11.32 7 12 C6.773 11.464 6.546 10.927 6.312 10.375 C5.138 8.25 3.952 6.698 2.375 4.875 C0 2 0 2 0 0 Z " fill="#89969B" transform="translate(139,100)"/>
<path d="M0 0 C0.33 0 0.66 0 1 0 C1 8.58 1 17.16 1 26 C0.67 26 0.34 26 0 26 C0 17.42 0 8.84 0 0 Z " fill="#000000" transform="translate(842,72)"/>
<path d="M0 0 C0.33 0 0.66 0 1 0 C1 8.58 1 17.16 1 26 C0.67 26 0.34 26 0 26 C0 17.42 0 8.84 0 0 Z " fill="#000000" transform="translate(806,72)"/>
<path d="M0 0 C1.5 1.375 1.5 1.375 3 3 C3 3.66 3 4.32 3 5 C3.99 4.67 4.98 4.34 6 4 C6.66 5.65 7.32 7.3 8 9 C7.01 9.33 6.02 9.66 5 10 C4.161 8.712 3.329 7.419 2.5 6.125 C2.036 5.406 1.572 4.686 1.094 3.945 C0 2 0 2 0 0 Z " fill="#A7AAB2" transform="translate(8,201)"/>
<path d="M0 0 C7.59 0 15.18 0 23 0 C23 0.33 23 0.66 23 1 C15.41 1 7.82 1 0 1 C0 0.67 0 0.34 0 0 Z " fill="#ABAFB8" transform="translate(78,234)"/>
<path d="M0 0 C7.59 0 15.18 0 23 0 C23 0.33 23 0.66 23 1 C15.41 1 7.82 1 0 1 C0 0.67 0 0.34 0 0 Z " fill="#ABAFB8" transform="translate(78,85)"/>
<path d="M0 0 C2.154 2.622 3.401 4.644 4 8 C3.67 8.165 3.67 8.165 2 9 C-2 4.25 -2 4.25 -2 2 C-1.34 2 -0.68 2 0 2 C0 1.34 0 0.68 0 0 Z " fill="#94989C" transform="translate(741,182)"/>
<path d="M0 0 C0.33 0 0.66 0 1 0 C1 7.26 1 14.52 1 22 C0.67 22 0.34 22 0 22 C0 14.74 0 7.48 0 0 Z " fill="#818188" transform="translate(646,133)"/>
<path d="M0 0 C0.66 0.33 1.32 0.66 2 1 C1.67 2.65 1.34 4.3 1 6 C0.01 5.67 -0.98 5.34 -2 5 C-2.66 6.65 -3.32 8.3 -4 10 C-4.33 9.34 -4.66 8.68 -5 8 C-4.004 6.055 -4.004 6.055 -2.562 3.875 C-2.089 3.151 -1.616 2.426 -1.129 1.68 C-0.756 1.125 -0.384 0.571 0 0 Z " fill="#AAACB4" transform="translate(13,109)"/>
<path d="M0 0 C0.33 0 0.66 0 1 0 C1 6.93 1 13.86 1 21 C0.67 21 0.34 21 0 21 C0 14.07 0 7.14 0 0 Z " fill="#A9B5BA" transform="translate(942,150)"/>
<path d="M0 0 C0.33 0 0.66 0 1 0 C1 6.6 1 13.2 1 20 C0.67 20 0.34 20 0 20 C0 13.4 0 6.8 0 0 Z " fill="#9F9F9F" transform="translate(315,134)"/>
<path d="M0 0 C5.94 0 11.88 0 18 0 C18 0.33 18 0.66 18 1 C12.06 1 6.12 1 0 1 C0 0.67 0 0.34 0 0 Z " fill="#868B8B" transform="translate(927,214)"/>
<path d="M0 0 C1.32 0.66 2.64 1.32 4 2 C4 2.66 4 3.32 4 4 C3.361 4.103 2.721 4.206 2.062 4.312 C1.382 4.539 0.701 4.766 0 5 C-0.33 5.99 -0.66 6.98 -1 8 C-2 6 -2 6 -1.062 2.875 C-0.887 2.401 -0.887 2.401 0 0 Z " fill="#727779" transform="translate(313,158)"/>
<path d="M0 0 C0.99 0.165 0.99 0.165 6 1 C6 1.66 6 2.32 6 3 C3.69 3.33 1.38 3.66 -1 4 C-0.67 2.68 -0.34 1.36 0 0 Z " fill="#979AA0" transform="translate(121,158)"/>
<path d="M0 0 C0.33 0 0.66 0 1 0 C1 5.28 1 10.56 1 16 C0.67 16 0.34 16 0 16 C0 10.72 0 5.44 0 0 Z " fill="#7F7F8F" transform="translate(355,136)"/>
<path d="M0 0 C4.95 0 9.9 0 15 0 C15 0.33 15 0.66 15 1 C10.05 1 5.1 1 0 1 C0 0.67 0 0.34 0 0 Z " fill="#8D9393" transform="translate(928,106)"/>
<path d="M0 0 C0.33 0 0.66 0 1 0 C1 4.62 1 9.24 1 14 C0.67 14 0.34 14 0 14 C0 9.38 0 4.76 0 0 Z " fill="#94949A" transform="translate(775,107)"/>
<path d="M0 0 C4.29 0 8.58 0 13 0 C13 0.33 13 0.66 13 1 C8.71 1 4.42 1 0 1 C0 0.67 0 0.34 0 0 Z " fill="#8F8F8F" transform="translate(572,211)"/>
<path d="M0 0 C0 3 0 3 -2 5.188 C-2.66 5.786 -3.32 6.384 -4 7 C-4.66 6.67 -5.32 6.34 -6 6 C-4.02 4.02 -2.04 2.04 0 0 Z " fill="#587F7F" transform="translate(339,188)"/>
<path d="M0 0 C4.29 0 8.58 0 13 0 C13 0.33 13 0.66 13 1 C8.71 1 4.42 1 0 1 C0 0.67 0 0.34 0 0 Z " fill="#969696" transform="translate(572,76)"/>
<path d="M0 0 C4.29 0 8.58 0 13 0 C13 0.33 13 0.66 13 1 C8.71 1 4.42 1 0 1 C0 0.67 0 0.34 0 0 Z " fill="#757C82" transform="translate(280,76)"/>
<path d="M0 0 C3.96 0 7.92 0 12 0 C12 0.33 12 0.66 12 1 C8.04 1 4.08 1 0 1 C0 0.67 0 0.34 0 0 Z " fill="#8D94A9" transform="translate(281,211)"/>
<path d="M0 0 C2.622 1.049 3.794 1.649 5.25 4.125 C5.498 4.744 5.745 5.362 6 6 C3.979 4.358 1.98 2.691 0 1 C0 0.67 0 0.34 0 0 Z " fill="#365C6C" transform="translate(334,94)"/>
<path d="M0 0 C3.3 0 6.6 0 10 0 C10 0.33 10 0.66 10 1 C6.7 1 3.4 1 0 1 C0 0.67 0 0.34 0 0 Z " fill="#989898" transform="translate(919,187)"/>
<path d="M0 0 C0.33 0 0.66 0 1 0 C1 3.3 1 6.6 1 10 C0.67 10 0.34 10 0 10 C0 6.7 0 3.4 0 0 Z " fill="#989898" transform="translate(180,155)"/>
<path d="M0 0 C2.64 0 5.28 0 8 0 C8 0.33 8 0.66 8 1 C5.36 1 2.72 1 0 1 C0 0.67 0 0.34 0 0 Z " fill="#84A4A4" transform="translate(280,181)"/>
<path d="M0 0 C0.33 0 0.66 0 1 0 C1 2.64 1 5.28 1 8 C0.67 8 0.34 8 0 8 C0 5.36 0 2.72 0 0 Z " fill="#898989" transform="translate(163,164)"/>
<path d="M0 0 C0.33 0 0.66 0 1 0 C1 2.64 1 5.28 1 8 C0.67 8 0.34 8 0 8 C0 5.36 0 2.72 0 0 Z " fill="#898989" transform="translate(163,148)"/>
<path d="M0 0 C0.33 0 0.66 0 1 0 C1 2.64 1 5.28 1 8 C0.67 8 0.34 8 0 8 C0 5.36 0 2.72 0 0 Z " fill="#7A848F" transform="translate(607,140)"/>
<path d="M0 0 C2.64 0 5.28 0 8 0 C8 0.33 8 0.66 8 1 C5.36 1 2.72 1 0 1 C0 0.67 0 0.34 0 0 Z " fill="#898989" transform="translate(920,133)"/>
<path d="M0 0 C2.64 0 5.28 0 8 0 C8 0.33 8 0.66 8 1 C5.36 1 2.72 1 0 1 C0 0.67 0 0.34 0 0 Z " fill="#749494" transform="translate(571,106)"/>
<path d="M0 0 C2.64 0 5.28 0 8 0 C8 0.33 8 0.66 8 1 C5.36 1 2.72 1 0 1 C0 0.67 0 0.34 0 0 Z " fill="#999999" transform="translate(280,106)"/>
<path d="M0 0 C2.64 0 5.28 0 8 0 C8 0.33 8 0.66 8 1 C5.36 1 2.72 1 0 1 C0 0.67 0 0.34 0 0 Z " fill="#6F7A7A" transform="translate(293,77)"/>
<path d="M0 0 C2.64 0 5.28 0 8 0 C8 0.33 8 0.66 8 1 C5.36 1 2.72 1 0 1 C0 0.67 0 0.34 0 0 Z " fill="#74747F" transform="translate(733,76)"/>
<path d="M0 0 C2.31 0 4.62 0 7 0 C7 0.33 7 0.66 7 1 C4.69 1 2.38 1 0 1 C0 0.67 0 0.34 0 0 Z " fill="#6D7979" transform="translate(585,210)"/>
<path d="M0 0 C2.31 0 4.62 0 7 0 C7 0.33 7 0.66 7 1 C4.69 1 2.38 1 0 1 C0 0.67 0 0.34 0 0 Z " fill="#858585" transform="translate(293,210)"/>
<path d="M0 0 C2.31 0 4.62 0 7 0 C7 0.33 7 0.66 7 1 C4.69 1 2.38 1 0 1 C0 0.67 0 0.34 0 0 Z " fill="#858585" transform="translate(572,181)"/>
<path d="M0 0 C0.33 0 0.66 0 1 0 C1 2.31 1 4.62 1 7 C0.67 7 0.34 7 0 7 C0 4.69 0 2.38 0 0 Z " fill="#AFAFAF" transform="translate(354,152)"/>
<path d="M0 0 C0.33 0 0.66 0 1 0 C1 2.31 1 4.62 1 7 C0.67 7 0.34 7 0 7 C0 4.69 0 2.38 0 0 Z " fill="#979797" transform="translate(606,132)"/>
<path d="M0 0 C0.33 0 0.66 0 1 0 C1 2.31 1 4.62 1 7 C0.67 7 0.34 7 0 7 C0 4.69 0 2.38 0 0 Z " fill="#8B8B8B" transform="translate(354,129)"/>
<path d="M0 0 C2.31 0 4.62 0 7 0 C7 0.33 7 0.66 7 1 C4.69 1 2.38 1 0 1 C0 0.67 0 0.34 0 0 Z " fill="#6D7979" transform="translate(585,77)"/>
<path d="M0 0 C0.33 0 0.66 0 1 0 C1 1.98 1 3.96 1 6 C0.67 6 0.34 6 0 6 C0 4.02 0 2.04 0 0 Z " fill="#7F7F7F" transform="translate(179,168)"/>
<path d="M0 0 C0.33 0 0.66 0 1 0 C1 1.98 1 3.96 1 6 C0.67 6 0.34 6 0 6 C0 4.02 0 2.04 0 0 Z " fill="#787878" transform="translate(645,155)"/>
<path d="M0 0 C0.33 0 0.66 0 1 0 C1 1.98 1 3.96 1 6 C0.67 6 0.34 6 0 6 C0 4.02 0 2.04 0 0 Z " fill="#7F7F7F" transform="translate(179,146)"/>
<path d="M0 0 C0.33 0 0.66 0 1 0 C1 1.98 1 3.96 1 6 C0.67 6 0.34 6 0 6 C0 4.02 0 2.04 0 0 Z " fill="#8D8DB8" transform="translate(645,127)"/>
<path d="M0 0 C1.65 0 3.3 0 5 0 C5 0.33 5 0.66 5 1 C3.35 1 1.7 1 0 1 C0 0.67 0 0.34 0 0 Z " fill="#989898" transform="translate(101,233)"/>
<path d="M0 0 C1.65 0 3.3 0 5 0 C5 0.33 5 0.66 5 1 C3.35 1 1.7 1 0 1 C0 0.67 0 0.34 0 0 Z " fill="#B2B2C3" transform="translate(72,233)"/>
<path d="M0 0 C1.65 0 3.3 0 5 0 C5 0.33 5 0.66 5 1 C3.35 1 1.7 1 0 1 C0 0.67 0 0.34 0 0 Z " fill="#659898" transform="translate(592,209)"/>
<path d="M0 0 C1.65 0 3.3 0 5 0 C5 0.33 5 0.66 5 1 C3.35 1 1.7 1 0 1 C0 0.67 0 0.34 0 0 Z " fill="#767676" transform="translate(301,209)"/>
<path d="M0 0 C0.33 0 0.66 0 1 0 C1 1.65 1 3.3 1 5 C0.67 5 0.34 5 0 5 C0 3.35 0 1.7 0 0 Z " fill="#656565" transform="translate(178,175)"/>
<path d="M0 0 C0.33 0 0.66 0 1 0 C1 1.65 1 3.3 1 5 C0.67 5 0.34 5 0 5 C0 3.35 0 1.7 0 0 Z " fill="#7F7F7F" transform="translate(353,159)"/>
<path d="M0 0 C0.33 0 0.66 0 1 0 C1 1.65 1 3.3 1 5 C0.67 5 0.34 5 0 5 C0 3.35 0 1.7 0 0 Z " fill="#656565" transform="translate(178,140)"/>
<path d="M0 0 C1.65 0 3.3 0 5 0 C5 0.33 5 0.66 5 1 C3.35 1 1.7 1 0 1 C0 0.67 0 0.34 0 0 Z " fill="#545454" transform="translate(725,133)"/>
<path d="M0 0 C0.33 0 0.66 0 1 0 C1 1.65 1 3.3 1 5 C0.67 5 0.34 5 0 5 C0 3.35 0 1.7 0 0 Z " fill="#4C4C4C" transform="translate(353,124)"/>
<path d="M0 0 C0.33 0 0.66 0 1 0 C1 1.65 1 3.3 1 5 C0.67 5 0.34 5 0 5 C0 3.35 0 1.7 0 0 Z " fill="#7F9090" transform="translate(774,121)"/>
<path d="M0 0 C1.65 0 3.3 0 5 0 C5 0.33 5 0.66 5 1 C3.35 1 1.7 1 0 1 C0 0.67 0 0.34 0 0 Z " fill="#545454" transform="translate(725,105)"/>
<path d="M0 0 C1.65 0 3.3 0 5 0 C5 0.33 5 0.66 5 1 C3.35 1 1.7 1 0 1 C0 0.67 0 0.34 0 0 Z " fill="#989898" transform="translate(101,86)"/>
<path d="M0 0 C1.65 0 3.3 0 5 0 C5 0.33 5 0.66 5 1 C3.35 1 1.7 1 0 1 C0 0.67 0 0.34 0 0 Z " fill="#B2B2C3" transform="translate(72,86)"/>
<path d="M0 0 C1.65 0 3.3 0 5 0 C5 0.33 5 0.66 5 1 C3.35 1 1.7 1 0 1 C0 0.67 0 0.34 0 0 Z " fill="#989898" transform="translate(592,78)"/>
<path d="M0 0 C1.65 0 3.3 0 5 0 C5 0.33 5 0.66 5 1 C3.35 1 1.7 1 0 1 C0 0.67 0 0.34 0 0 Z " fill="#767676" transform="translate(301,78)"/>
<path d="M0 0 C1.65 0 3.3 0 5 0 C5 0.33 5 0.66 5 1 C3.35 1 1.7 1 0 1 C0 0.67 0 0.34 0 0 Z " fill="#659898" transform="translate(741,77)"/>
<path d="M0 0 C4 1 4 1 4 1 Z " fill="#5F5F5F" transform="translate(109,248)"/>
<path d="M0 0 C4 1 4 1 4 1 Z " fill="#94A9A9" transform="translate(106,232)"/>
<path d="M0 0 C4 1 4 1 4 1 Z " fill="#C9C9C9" transform="translate(68,232)"/>
<path d="M0 0 C0.66 0.33 1.32 0.66 2 1 C1.01 1 0.02 1 -1 1 C-0.67 0.67 -0.34 0.34 0 0 Z " fill="#7F7F7F" transform="translate(134,219)"/>
<path d="M0 0 C0.66 0.33 1.32 0.66 2 1 C1.01 1 0.02 1 -1 1 C-0.67 0.67 -0.34 0.34 0 0 Z " fill="#5F5F5F" transform="translate(139,215)"/>
<path d="M0 0 C4 1 4 1 4 1 Z " fill="#8A8A8A" transform="translate(923,213)"/>
<path d="M0 0 C4 1 4 1 4 1 Z " fill="#545454" transform="translate(597,208)"/>
<path d="M0 0 C0.66 0.33 1.32 0.66 2 1 C1.01 1 0.02 1 -1 1 C-0.67 0.67 -0.34 0.34 0 0 Z " fill="#7F7F7F" transform="translate(623,195)"/>
<path d="M0 0 C0.99 0.33 1.98 0.66 3 1 C2.01 1 1.02 1 0 1 C0 0.67 0 0.34 0 0 Z " fill="#707070" transform="translate(911,183)"/>
<path d="M0 0 C0 3 0 3 0 3 Z " fill="#5B5B5B" transform="translate(938,180)"/>
<path d="M0 0 C4 1 4 1 4 1 Z " fill="#747474" transform="translate(579,180)"/>
<path d="M0 0 C4 1 4 1 4 1 Z " fill="#9F9F9F" transform="translate(288,180)"/>
<path d="M0 0 C1 4 1 4 1 4 Z " fill="#A9A9B9" transform="translate(16,177)"/>
<path d="M0 0 C1 4 1 4 1 4 Z " fill="#6A6AA9" transform="translate(977,178)"/>
<path d="M0 0 C1 4 1 4 1 4 Z " fill="#A9A9A9" transform="translate(906,171)"/>
<path d="M0 0 C1 4 1 4 1 4 Z " fill="#7F7F7F" transform="translate(162,173)"/>
<path d="M0 0 C1 4 1 4 1 4 Z " fill="#A9A9A9" transform="translate(644,161)"/>
<path d="M0 0 C1 4 1 4 1 4 Z " fill="#6A6A6A" transform="translate(314,154)"/>
<path d="M0 0 C1 4 1 4 1 4 Z " fill="#5F5F5F" transform="translate(906,147)"/>
<path d="M0 0 C0.66 0.33 1.32 0.66 2 1 C1.01 1 0.02 1 -1 1 C-0.67 0.67 -0.34 0.34 0 0 Z " fill="#B0B0B0" transform="translate(754,147)"/>
<path d="M0 0 C1 4 1 4 1 4 Z " fill="#9494A9" transform="translate(941,146)"/>
<path d="M0 0 C1 4 1 4 1 4 Z " fill="#7F7F7F" transform="translate(162,143)"/>
<path d="M0 0 C1 4 1 4 1 4 Z " fill="#A9A9B9" transform="translate(16,139)"/>
<path d="M0 0 C4 1 4 1 4 1 Z " fill="#5F5F5F" transform="translate(928,134)"/>
<path d="M0 0 C1 4 1 4 1 4 Z " fill="#B4C9C9" transform="translate(605,128)"/>
<path d="M0 0 C1 4 1 4 1 4 Z " fill="#A9A9A9" transform="translate(644,123)"/>
<path d="M0 0 C4 1 4 1 4 1 Z " fill="#A9A9A9" transform="translate(943,107)"/>
<path d="M0 0 C4 1 4 1 4 1 Z " fill="#9F9F9F" transform="translate(924,107)"/>
<path d="M0 0 C4 1 4 1 4 1 Z " fill="#6A6A6A" transform="translate(579,107)"/>
<path d="M0 0 C4 1 4 1 4 1 Z " fill="#949494" transform="translate(288,107)"/>
<path d="M0 0 C1 4 1 4 1 4 Z " fill="#7F7F7F" transform="translate(774,103)"/>
<path d="M0 0 C0.99 0.33 1.98 0.66 3 1 C2.01 1 1.02 1 0 1 C0 0.67 0 0.34 0 0 Z " fill="#5F5F5F" transform="translate(138,103)"/>
<path d="M0 0 C0.99 0.33 1.98 0.66 3 1 C2.01 1 1.02 1 0 1 C0 0.67 0 0.34 0 0 Z " fill="#7F7F7F" transform="translate(133,99)"/>
<path d="M0 0 C0.99 0.33 1.98 0.66 3 1 C2.01 1 1.02 1 0 1 C0 0.67 0 0.34 0 0 Z " fill="#8A8A8A" transform="translate(622,91)"/>
<path d="M0 0 C4 1 4 1 4 1 Z " fill="#94A9A9" transform="translate(106,87)"/>
<path d="M0 0 C4 1 4 1 4 1 Z " fill="#C9C9C9" transform="translate(68,87)"/>
<path d="M0 0 C4 1 4 1 4 1 Z " fill="#A9A9A9" transform="translate(597,79)"/>
<path d="M0 0 C4 1 4 1 4 1 Z " fill="#6A6A6A" transform="translate(306,79)"/>
<path d="M0 0 C4 1 4 1 4 1 Z " fill="#5F5F5F" transform="translate(746,78)"/>
<path d="M0 0 C4 1 4 1 4 1 Z " fill="#5F5F5F" transform="translate(109,71)"/>
<path d="M0 0 C3 1 3 1 3 1 Z " fill="#7F7F7F" transform="translate(66,248)"/>
<path d="M0 0 C3 1 3 1 3 1 Z " fill="#C6C6C6" transform="translate(113,247)"/>
<path d="M0 0 C3 1 3 1 3 1 Z " fill="#4663B8" transform="translate(62,247)"/>
<path d="M0 0 C3 1 3 1 3 1 Z " fill="#B8B8B8" transform="translate(116,246)"/>
<path d="M0 0 C3 1 3 1 3 1 Z " fill="#C6C6C6" transform="translate(59,246)"/>
<path d="M0 0 C3 1 3 1 3 1 Z " fill="#717171" transform="translate(119,245)"/>
<path d="M0 0 C3 1 3 1 3 1 Z " fill="#9B9B9B" transform="translate(110,231)"/>
<path d="M0 0 C3 1 3 1 3 1 Z " fill="#9B9B9B" transform="translate(65,231)"/>
<path d="M0 0 C3 1 3 1 3 1 Z " fill="#C6C6C6" transform="translate(113,230)"/>
<path d="M0 0 C3 1 3 1 3 1 Z " fill="#C6C6C6" transform="translate(62,230)"/>
<path d="M0 0 C3 1 3 1 3 1 Z " fill="#E2E2E2" transform="translate(116,229)"/>
<path d="M0 0 C3 1 3 1 3 1 Z " fill="#8D8D8D" transform="translate(945,213)"/>
<path d="M0 0 C3 1 3 1 3 1 Z " fill="#545454" transform="translate(948,212)"/>
<path d="M0 0 C3 1 3 1 3 1 Z " fill="#B8B8B8" transform="translate(920,212)"/>
<path d="M0 0 C3 1 3 1 3 1 Z " fill="#8D8D8D" transform="translate(306,208)"/>
<path d="M0 0 C3 1 3 1 3 1 Z " fill="#C6C6C6" transform="translate(601,207)"/>
<path d="" fill="#A9A9A9" transform="translate(0,0)"/>
<path d="M0 0 C3 1 3 1 3 1 Z " fill="#464663" transform="translate(310,207)"/>
<path d="M0 0 C3 1 3 1 3 1 Z " fill="#717171" transform="translate(604,206)"/>
<path d="M0 0 C3 1 3 1 3 1 Z " fill="#8D8D8D" transform="translate(315,205)"/>
<path d="" fill="#7F7F7F" transform="translate(0,0)"/>
<path d="" fill="#A9A9A9" transform="translate(0,0)"/>
<path d="" fill="#A9A9A9" transform="translate(0,0)"/>
<path d="" fill="#A9A9A9" transform="translate(0,0)"/>
<path d="" fill="#464646" transform="translate(0,0)"/>
<path d="" fill="#7F7F7F" transform="translate(0,0)"/>
<path d="" fill="#AAAAE2" transform="translate(0,0)"/>
<path d="M0 0 C3 1 3 1 3 1 Z " fill="#545454" transform="translate(916,186)"/>
<path d="" fill="#464646" transform="translate(0,0)"/>
<path d="" fill="#7171A2" transform="translate(0,0)"/>
<path d="M0 0 C3 1 3 1 3 1 Z " fill="#545454" transform="translate(583,179)"/>
<path d="M0 0 C3 1 3 1 3 1 Z " fill="#C6C6C6" transform="translate(292,179)"/>
<path d="M0 0 C3 1 3 1 3 1 Z " fill="#636363" transform="translate(586,178)"/>
<path d="" fill="#A9A9A9" transform="translate(0,0)"/>
<path d="" fill="#A9A9A9" transform="translate(0,0)"/>
<path d="" fill="#A9A9A9" transform="translate(0,0)"/>
<path d="" fill="#A9A9A9" transform="translate(0,0)"/>
<path d="" fill="#7F7F7F" transform="translate(0,0)"/>
<path d="" fill="#717171" transform="translate(0,0)"/>
<path d="" fill="#7F7F7F" transform="translate(0,0)"/>
<path d="" fill="#A9A9A9" transform="translate(0,0)"/>
<path d="" fill="#8D8D8D" transform="translate(0,0)"/>
<path d="" fill="#A9A9A9" transform="translate(0,0)"/>
<path d="M0 0 C3 1 3 1 3 1 Z " fill="#464646" transform="translate(721,163)"/>
<path d="" fill="#A9A9A9" transform="translate(0,0)"/>
<path d="" fill="#717171" transform="translate(0,0)"/>
<path d="" fill="#7F7F7F" transform="translate(0,0)"/>
<path d="" fill="#7F7F7F" transform="translate(0,0)"/>
<path d="" fill="#A9A9A9" transform="translate(0,0)"/>
<path d="" fill="#A9A9A9" transform="translate(0,0)"/>
<path d="" fill="#717171" transform="translate(0,0)"/>
<path d="" fill="#A9A9A9" transform="translate(0,0)"/>
<path d="" fill="#A9A9A9" transform="translate(0,0)"/>
<path d="" fill="#717171" transform="translate(0,0)"/>
<path d="" fill="#A9A9A9" transform="translate(0,0)"/>
<path d="" fill="#A9A9A9" transform="translate(0,0)"/>
<path d="" fill="#A9A9A9" transform="translate(0,0)"/>
<path d="" fill="#464646" transform="translate(0,0)"/>
<path d="" fill="#7171A2" transform="translate(0,0)"/>
<path d="" fill="#54A9A9" transform="translate(0,0)"/>
<path d="M0 0 C3 1 3 1 3 1 Z " fill="#9B9B9B" transform="translate(917,134)"/>
<path d="" fill="#7F7F7F" transform="translate(0,0)"/>
<path d="" fill="#AAAAE2" transform="translate(0,0)"/>
<path d="" fill="#464646" transform="translate(0,0)"/>
<path d="" fill="#A9A9A9" transform="translate(0,0)"/>
<path d="" fill="#A9A9A9" transform="translate(0,0)"/>
<path d="" fill="#A9A9A9" transform="translate(0,0)"/>
<path d="" fill="#8D8D8D" transform="translate(0,0)"/>
<path d="" fill="#7F7F7F" transform="translate(0,0)"/>
<path d="" fill="#AAAAAA" transform="translate(0,0)"/>
<path d="" fill="#7F7F7F" transform="translate(0,0)"/>
<path d="" fill="#7F7F7F" transform="translate(0,0)"/>
<path d="" fill="#A9A9A9" transform="translate(0,0)"/>
<path d="" fill="#A9A9A9" transform="translate(0,0)"/>
<path d="" fill="#7F7F7F" transform="translate(0,0)"/>
<path d="" fill="#A9A9A9" transform="translate(0,0)"/>
<path d="" fill="#A9A9A9" transform="translate(0,0)"/>
<path d="M0 0 C3 1 3 1 3 1 Z " fill="#8D8D8D" transform="translate(950,109)"/>
<path d="M0 0 C3 1 3 1 3 1 Z " fill="#557171" transform="translate(586,109)"/>
<path d="M0 0 C3 1 3 1 3 1 Z " fill="#8D8D8D" transform="translate(295,109)"/>
<path d="M0 0 C3 1 3 1 3 1 Z " fill="#545454" transform="translate(947,108)"/>
<path d="M0 0 C3 1 3 1 3 1 Z " fill="#7F7F7F" transform="translate(921,108)"/>
<path d="M0 0 C3 1 3 1 3 1 Z " fill="#545454" transform="translate(583,108)"/>
<path d="M0 0 C3 1 3 1 3 1 Z " fill="#C6C6C6" transform="translate(292,108)"/>
<path d="" fill="#717171" transform="translate(0,0)"/>
<path d="" fill="#717171" transform="translate(0,0)"/>
<path d="" fill="#7F7F7F" transform="translate(0,0)"/>
<path d="" fill="#A9A9A9" transform="translate(0,0)"/>
<path d="" fill="#D4D4D4" transform="translate(0,0)"/>
<path d="" fill="#7F7F7F" transform="translate(0,0)"/>
<path d="M0 0 C3 1 3 1 3 1 Z " fill="#E2E2E2" transform="translate(116,90)"/>
<path d="M0 0 C3 1 3 1 3 1 Z " fill="#C6C6C6" transform="translate(113,89)"/>
<path d="M0 0 C3 1 3 1 3 1 Z " fill="#C6C6C6" transform="translate(62,89)"/>
<path d="M0 0 C0.66 0 1.32 0 2 0 C1.67 0.66 1.34 1.32 1 2 C0.67 1.34 0.34 0.68 0 0 Z " fill="#636363" transform="translate(765,88)"/>
<path d="" fill="#A9A9A9" transform="translate(0,0)"/>
<path d="M0 0 C3 1 3 1 3 1 Z " fill="#9B9B9B" transform="translate(110,88)"/>
<path d="M0 0 C3 1 3 1 3 1 Z " fill="#9B9B9B" transform="translate(65,88)"/>
<path d="" fill="#A9A9A9" transform="translate(0,0)"/>
<path d="" fill="#717171" transform="translate(0,0)"/>
<path d="" fill="#A9A9A9" transform="translate(0,0)"/>
<path d="M0 0 C3 1 3 1 3 1 Z " fill="#8D8D8D" transform="translate(315,82)"/>
<path d="M0 0 C3 1 3 1 3 1 Z " fill="#5571C6" transform="translate(604,81)"/>
<path d="M0 0 C3 1 3 1 3 1 Z " fill="#C6C6C6" transform="translate(601,80)"/>
<path d="" fill="#5454A9" transform="translate(0,0)"/>
<path d="M0 0 C3 1 3 1 3 1 Z " fill="#636363" transform="translate(310,80)"/>
<path d="M0 0 C3 1 3 1 3 1 Z " fill="#717171" transform="translate(750,79)"/>
<path d="M0 0 C3 1 3 1 3 1 Z " fill="#717171" transform="translate(119,74)"/>
<path d="M0 0 C3 1 3 1 3 1 Z " fill="#B8B8B8" transform="translate(116,73)"/>
<path d="M0 0 C3 1 3 1 3 1 Z " fill="#C6C6C6" transform="translate(59,73)"/>
<path d="M0 0 C3 1 3 1 3 1 Z " fill="#C6C6C6" transform="translate(113,72)"/>
<path d="M0 0 C3 1 3 1 3 1 Z " fill="#4663B8" transform="translate(62,72)"/>
<path d="M0 0 C3 1 3 1 3 1 Z " fill="#7F7F7F" transform="translate(66,71)"/>
<path d="M0 0 C2 1 2 1 2 1 Z " fill="#6A9494" transform="translate(57,245)"/>
<path d="M0 0 C2 1 2 1 2 1 Z " fill="#7F7F7F" transform="translate(122,244)"/>
<path d="M0 0 C2 1 2 1 2 1 Z " fill="#BFBFBF" transform="translate(54,244)"/>
<path d="M0 0 C2 1 2 1 2 1 Z " fill="#7F7F7F" transform="translate(124,243)"/>
<path d="M0 0 C2 1 2 1 2 1 Z " fill="#7F7F7F" transform="translate(52,243)"/>
<path d="M0 0 C2 1 2 1 2 1 Z " fill="#7F7F7F" transform="translate(126,242)"/>
<path d="M0 0 C2 1 2 1 2 1 Z " fill="#6A9494" transform="translate(50,242)"/>
<path d="M0 0 C2 1 2 1 2 1 Z " fill="#BFBFBF" transform="translate(48,241)"/>
<path d="M0 0 C2 1 2 1 2 1 Z " fill="#7F7F7F" transform="translate(130,240)"/>
<path d="M0 0 C2 1 2 1 2 1 Z " fill="#949494" transform="translate(46,240)"/>
<path d="M0 0 C2 1 2 1 2 1 Z " fill="#7F7F7F" transform="translate(132,239)"/>
<path d="M0 0 C2 1 2 1 2 1 Z " fill="#AAD4D4" transform="translate(44,239)"/>
<path d="M0 0 C2 1 2 1 2 1 Z " fill="#D4D4D4" transform="translate(134,238)"/>
<path d="M0 0 C2 1 2 1 2 1 Z " fill="#555555" transform="translate(42,238)"/>
<path d="M0 0 C2 1 2 1 2 1 Z " fill="#D4D4D4" transform="translate(137,236)"/>
<path d="M0 0 C2 1 2 1 2 1 Z " fill="#BFBFBF" transform="translate(39,236)"/>
<path d="M0 0 C2 1 2 1 2 1 Z " fill="#3F3F3F" transform="translate(140,234)"/>
<path d="M0 0 C2 1 2 1 2 1 Z " fill="#3F3FBF" transform="translate(144,231)"/>
<path d="M0 0 C2 1 2 1 2 1 Z " fill="#FFFFFF" transform="translate(31,230)"/>
<path d="M0 0 C2 1 2 1 2 1 Z " fill="#949494" transform="translate(60,229)"/>
<path d="M0 0 C2 1 2 1 2 1 Z " fill="#AAAAAA" transform="translate(119,228)"/>
<path d="M0 0 C2 1 2 1 2 1 Z " fill="#949494" transform="translate(57,228)"/>
<path d="M0 0 C2 1 2 1 2 1 Z " fill="#949494" transform="translate(121,227)"/>
<path d="M0 0 C2 1 2 1 2 1 Z " fill="#7F7F7F" transform="translate(55,227)"/>
<path d="M0 0 C2 1 2 1 2 1 Z " fill="#949494" transform="translate(123,226)"/>
<path d="M0 0 C2 1 2 1 2 1 Z " fill="#7F7FBF" transform="translate(53,226)"/>
<path d="M0 0 C2 1 2 1 2 1 Z " fill="#949494" transform="translate(125,225)"/>
<path d="M0 0 C2 1 2 1 2 1 Z " fill="#6AAAAA" transform="translate(51,225)"/>
<path d="M0 0 C2 1 2 1 2 1 Z " fill="#3F3F3F" transform="translate(48,223)"/>
<path d="M0 0 C2 1 2 1 2 1 Z " fill="#6A6A6A" transform="translate(130,222)"/>
<path d="M0 0 C2 1 2 1 2 1 Z " fill="#7F7F7F" transform="translate(46,222)"/>
<path d="M0 0 C2 1 2 1 2 1 Z " fill="#55D4D4" transform="translate(42,219)"/>
<path d="M0 0 C2 1 2 1 2 1 Z " fill="#949494" transform="translate(951,211)"/>
<path d="M0 0 C2 1 2 1 2 1 Z " fill="#949494" transform="translate(918,211)"/>
<path d="M0 0 C2 1 2 1 2 1 Z " fill="#7F7F7F" transform="translate(953,210)"/>
<path d="M0 0 C2 1 2 1 2 1 Z " fill="#949494" transform="translate(916,210)"/>
<path d="" fill="#3F3F3F" transform="translate(0,0)"/>
<path d="M0 0 C2 1 2 1 2 1 Z " fill="#D4D4D4" transform="translate(955,209)"/>
<path d="M0 0 C2 1 2 1 2 1 Z " fill="#555555" transform="translate(914,209)"/>
<path d="M0 0 C2 1 2 1 2 1 Z " fill="#BFBFBF" transform="translate(910,206)"/>
<path d="M0 0 C2 1 2 1 2 1 Z " fill="#7F7F7F" transform="translate(313,206)"/>
<path d="M0 0 C2 1 2 1 2 1 Z " fill="#7F7F7F" transform="translate(607,205)"/>
<path d="M0 0 C2 1 2 1 2 1 Z " fill="#949494" transform="translate(609,204)"/>
<path d="M0 0 C2 1 2 1 2 1 Z " fill="#D4D4D4" transform="translate(318,204)"/>
<path d="M0 0 C2 1 2 1 2 1 Z " fill="#7F7F7F" transform="translate(611,203)"/>
<path d="M0 0 C2 1 2 1 2 1 Z " fill="#D4D4D4" transform="translate(320,203)"/>
<path d="M0 0 C2 1 2 1 2 1 Z " fill="#949494" transform="translate(613,202)"/>
<path d="M0 0 C2 1 2 1 2 1 Z " fill="#555555" transform="translate(322,202)"/>
<path d="M0 0 C2 1 2 1 2 1 Z " fill="#555555" transform="translate(615,201)"/>
<path d="M0 0 C2 1 2 1 2 1 Z " fill="#BFFFFF" transform="translate(325,200)"/>
<path d="M0 0 C2 1 2 1 2 1 Z " fill="#555555" transform="translate(618,199)"/>
<path d="" fill="#AAAAAA" transform="translate(0,0)"/>
<path d="M0 0 C2 1 2 1 2 1 Z " fill="#D4D4D4" transform="translate(328,198)"/>
<path d="" fill="#949494" transform="translate(0,0)"/>
<path d="" fill="#7F7FAA" transform="translate(0,0)"/>
<path d="" fill="#7F7F7F" transform="translate(0,0)"/>
<path d="" fill="#7F7FAA" transform="translate(0,0)"/>
<path d="M0 0 C2 1 2 1 2 1 Z " fill="#7F7F7F" transform="translate(69,192)"/>
<path d="" fill="#6A9494" transform="translate(0,0)"/>
<path d="M0 0 C2 1 2 1 2 1 Z " fill="#BFBFBF" transform="translate(71,191)"/>
<path d="" fill="#7F7FD4" transform="translate(0,0)"/>
<path d="" fill="#AAAAAA" transform="translate(0,0)"/>
<path d="M0 0 C2 1 2 1 2 1 Z " fill="#3F3F3F" transform="translate(73,190)"/>
<path d="" fill="#7F7F7F" transform="translate(0,0)"/>
<path d="M0 0 C2 1 2 1 2 1 Z " fill="#3F3F3F" transform="translate(76,188)"/>
<path d="M0 0 C2 1 2 1 2 1 Z " fill="#949494" transform="translate(78,187)"/>
<path d="M0 0 C2 1 2 1 2 1 Z " fill="#7F7F7F" transform="translate(930,186)"/>
<path d="" fill="#6A9494" transform="translate(0,0)"/>
<path d="M0 0 C2 1 2 1 2 1 Z " fill="#BFBFBF" transform="translate(80,186)"/>
<path d="M0 0 C2 1 2 1 2 1 Z " fill="#3F3F3F" transform="translate(914,185)"/>
<path d="M0 0 C2 1 2 1 2 1 Z " fill="#3F3F3F" transform="translate(82,185)"/>
<path d="M0 0 C2 1 2 1 2 1 Z " fill="#4C4C4C" transform="translate(934,184)"/>
<path d="" fill="#949494" transform="translate(0,0)"/>
<path d="" fill="#7F7F7F" transform="translate(0,0)"/>
<path d="M0 0 C2 1 2 1 2 1 Z " fill="#949494" transform="translate(87,182)"/>
<path d="" fill="#949494" transform="translate(0,0)"/>
<path d="M0 0 C2 1 2 1 2 1 Z " fill="#BFBFBF" transform="translate(89,181)"/>
<path d="M0 0 C2 1 2 1 2 1 Z " fill="#3F3F3F" transform="translate(91,180)"/>
<path d="" fill="#AAAAAA" transform="translate(0,0)"/>
<path d="" fill="#949494" transform="translate(0,0)"/>
<path d="M0 0 C2 1 2 1 2 1 Z " fill="#D4D4D4" transform="translate(295,178)"/>
<path d="" fill="#7F7F7F" transform="translate(0,0)"/>
<path d="M0 0 C2 1 2 1 2 1 Z " fill="#949494" transform="translate(589,177)"/>
<path d="M0 0 C2 1 2 1 2 1 Z " fill="#55D4D4" transform="translate(298,177)"/>
<path d="M0 0 C2 1 2 1 2 1 Z " fill="#6A9494" transform="translate(96,177)"/>
<path d="M0 0 C2 1 2 1 2 1 Z " fill="#7F7F7F" transform="translate(591,176)"/>
<path d="M0 0 C2 1 2 1 2 1 Z " fill="#555555" transform="translate(98,176)"/>
<path d="M0 0 C2 1 2 1 2 1 Z " fill="#3F3FBF" transform="translate(301,175)"/>
<path d="M0 0 C2 1 2 1 2 1 Z " fill="#7F7F7F" transform="translate(594,174)"/>
<path d="M0 0 C2 1 2 1 2 1 Z " fill="#7F7F7F" transform="translate(103,173)"/>
<path d="" fill="#7FAAAA" transform="translate(0,0)"/>
<path d="M0 0 C2 1 2 1 2 1 Z " fill="#6A9494" transform="translate(105,172)"/>
<path d="M0 0 C2 1 2 1 2 1 Z " fill="#555555" transform="translate(107,171)"/>
<path d="M0 0 C2 1 2 1 2 1 Z " fill="#BFBFBF" transform="translate(112,168)"/>
<path d="M0 0 C2 1 2 1 2 1 Z " fill="#6A9494" transform="translate(114,167)"/>
<path d="M0 0 C2 1 2 1 2 1 Z " fill="#5555D4" transform="translate(116,166)"/>
<path d="M0 0 C2 1 2 1 2 1 Z " fill="#B2B2CC" transform="translate(726,165)"/>
<path d="M0 0 C2 1 2 1 2 1 Z " fill="#3F3F3F" transform="translate(724,164)"/>
<path d="" fill="#7FAAAA" transform="translate(0,0)"/>
<path d="M0 0 C2 1 2 1 2 1 Z " fill="#BFBFBF" transform="translate(121,163)"/>
<path d="M0 0 C2 1 2 1 2 1 Z " fill="#AAD4D4" transform="translate(123,162)"/>
<path d="" fill="#6A9494" transform="translate(0,0)"/>
<path d="" fill="#6A6A94" transform="translate(0,0)"/>
<path d="" fill="#6A6A94" transform="translate(0,0)"/>
<path d="M0 0 C2 1 2 1 2 1 Z " fill="#AAD4D4" transform="translate(123,157)"/>
<path d="" fill="#6A6A6A" transform="translate(0,0)"/>
<path d="M0 0 C2 1 2 1 2 1 Z " fill="#3F3F3F" transform="translate(118,154)"/>
<path d="M0 0 C2 1 2 1 2 1 Z " fill="#BFBFBF" transform="translate(116,153)"/>
<path d="M0 0 C2 1 2 1 2 1 Z " fill="#949494" transform="translate(114,152)"/>
<path d="" fill="#6A6A6A" transform="translate(0,0)"/>
<path d="M0 0 C2 1 2 1 2 1 Z " fill="#5555D4" transform="translate(109,149)"/>
<path d="M0 0 C2 1 2 1 2 1 Z " fill="#7F7F7F" transform="translate(107,148)"/>
<path d="M0 0 C2 1 2 1 2 1 Z " fill="#7F7F7F" transform="translate(105,147)"/>
<path d="M0 0 C2 1 2 1 2 1 Z " fill="#BFBFBF" transform="translate(756,146)"/>
<path d="" fill="#6A6A6A" transform="translate(0,0)"/>
<path d="M0 0 C2 1 2 1 2 1 Z " fill="#D4D4D4" transform="translate(758,145)"/>
<path d="M0 0 C2 1 2 1 2 1 Z " fill="#555555" transform="translate(100,144)"/>
<path d="" fill="#7F7F7F" transform="translate(0,0)"/>
<path d="M0 0 C2 1 2 1 2 1 Z " fill="#949494" transform="translate(98,143)"/>
<path d="" fill="#AAAAAA" transform="translate(0,0)"/>
<path d="M0 0 C2 1 2 1 2 1 Z " fill="#3FBFBF" transform="translate(762,142)"/>
<path d="M0 0 C2 1 2 1 2 1 Z " fill="#3F3F3F" transform="translate(93,140)"/>
<path d="M0 0 C2 1 2 1 2 1 Z " fill="#BFBFBF" transform="translate(91,139)"/>
<path d="M0 0 C2 1 2 1 2 1 Z " fill="#949494" transform="translate(89,138)"/>
<path d="" fill="#7F7FAA" transform="translate(0,0)"/>
<path d="M0 0 C2 1 2 1 2 1 Z " fill="#3F3F3F" transform="translate(87,137)"/>
<path d="M0 0 C2 1 2 1 2 1 Z " fill="#7F7F7F" transform="translate(932,135)"/>
<path d="M0 0 C2 1 2 1 2 1 Z " fill="#949494" transform="translate(914,135)"/>
<path d="M0 0 C2 1 2 1 2 1 Z " fill="#555555" transform="translate(84,135)"/>
<path d="M0 0 C2 1 2 1 2 1 Z " fill="#6A9494" transform="translate(82,134)"/>
<path d="M0 0 C2 1 2 1 2 1 Z " fill="#7F7F7F" transform="translate(80,133)"/>
<path d="" fill="#6A6A6A" transform="translate(0,0)"/>
<path d="M0 0 C2 1 2 1 2 1 Z " fill="#7F7F7F" transform="translate(730,132)"/>
<path d="" fill="#7F7F7F" transform="translate(0,0)"/>
<path d="" fill="#557F7F" transform="translate(0,0)"/>
<path d="M0 0 C2 1 2 1 2 1 Z " fill="#BFBFBF" transform="translate(75,130)"/>
<path d="" fill="#6A6A6A" transform="translate(0,0)"/>
<path d="M0 0 C2 1 2 1 2 1 Z " fill="#949494" transform="translate(73,129)"/>
<path d="" fill="#7F7FD4" transform="translate(0,0)"/>
<path d="" fill="#AAAAAA" transform="translate(0,0)"/>
<path d="M0 0 C2 1 2 1 2 1 Z " fill="#3F3F3F" transform="translate(71,128)"/>
<path d="" fill="#7F7FAA" transform="translate(0,0)"/>
<path d="" fill="#7F7F7F" transform="translate(0,0)"/>
<path d="M0 0 C2 1 2 1 2 1 Z " fill="#FFFFFF" transform="translate(68,126)"/>
<path d="" fill="#7F7FAA" transform="translate(0,0)"/>
<path d="" fill="#949494" transform="translate(0,0)"/>
<path d="" fill="#6A9494" transform="translate(0,0)"/>
<path d="" fill="#AAAAAA" transform="translate(0,0)"/>
<path d="M0 0 C2 1 2 1 2 1 Z " fill="#D4D4D4" transform="translate(594,113)"/>
<path d="M0 0 C2 1 2 1 2 1 Z " fill="#AAD4D4" transform="translate(956,112)"/>
<path d="M0 0 C2 1 2 1 2 1 Z " fill="#555555" transform="translate(913,112)"/>
<path d="M0 0 C2 1 2 1 2 1 Z " fill="#3F3F5F" transform="translate(301,112)"/>
<path d="M0 0 C2 1 2 1 2 1 Z " fill="#BFBFBF" transform="translate(915,111)"/>
<path d="M0 0 C2 1 2 1 2 1 Z " fill="#949494" transform="translate(591,111)"/>
<path d="M0 0 C2 1 2 1 2 1 Z " fill="#555555" transform="translate(917,110)"/>
<path d="M0 0 C2 1 2 1 2 1 Z " fill="#949494" transform="translate(589,110)"/>
<path d="" fill="#AAAAAA" transform="translate(0,0)"/>
<path d="" fill="#AAAAAA" transform="translate(0,0)"/>
<path d="M0 0 C2 1 2 1 2 1 Z " fill="#949494" transform="translate(298,110)"/>
<path d="M0 0 C2 1 2 1 2 1 Z " fill="#7FAAAA" transform="translate(919,109)"/>
<path d="M0 0 C2 1 2 1 2 1 Z " fill="#7F7F7F" transform="translate(732,107)"/>
<path d="" fill="#6A6A6A" transform="translate(0,0)"/>
<path d="M0 0 C2 1 2 1 2 1 Z " fill="#7F7F7F" transform="translate(730,106)"/>
<path d="" fill="#AAAAAA" transform="translate(0,0)"/>
<path d="" fill="#949494" transform="translate(0,0)"/>
<path d="" fill="#949494" transform="translate(0,0)"/>
<path d="M0 0 C2 1 2 1 2 1 Z " fill="#55D4D4" transform="translate(42,100)"/>
<path d="" fill="#7F7F7F" transform="translate(0,0)"/>
<path d="" fill="#BFBF7F" transform="translate(0,0)"/>
<path d="M0 0 C2 1 2 1 2 1 Z " fill="#6A6A6A" transform="translate(130,97)"/>
<path d="M0 0 C2 1 2 1 2 1 Z " fill="#7F7F7F" transform="translate(46,97)"/>
<path d="" fill="#949494" transform="translate(0,0)"/>
<path d="M0 0 C2 1 2 1 2 1 Z " fill="#3F3F3F" transform="translate(48,96)"/>
<path d="" fill="#7F7FBF" transform="translate(0,0)"/>
<path d="M0 0 C2 1 2 1 2 1 Z " fill="#949494" transform="translate(125,94)"/>
<path d="M0 0 C2 1 2 1 2 1 Z " fill="#6AAAAA" transform="translate(51,94)"/>
<path d="" fill="#AAAAAA" transform="translate(0,0)"/>
<path d="M0 0 C2 1 2 1 2 1 Z " fill="#949494" transform="translate(123,93)"/>
<path d="M0 0 C2 1 2 1 2 1 Z " fill="#7F7FBF" transform="translate(53,93)"/>
<path d="M0 0 C2 1 2 1 2 1 Z " fill="#949494" transform="translate(121,92)"/>
<path d="M0 0 C2 1 2 1 2 1 Z " fill="#7F7F7F" transform="translate(55,92)"/>
<path d="M0 0 C2 1 2 1 2 1 Z " fill="#AAAAAA" transform="translate(119,91)"/>
<path d="M0 0 C2 1 2 1 2 1 Z " fill="#949494" transform="translate(57,91)"/>
<path d="" fill="#7FBFBF" transform="translate(0,0)"/>
<path d="M0 0 C2 1 2 1 2 1 Z " fill="#949494" transform="translate(60,90)"/>
<path d="M0 0 C2 1 2 1 2 1 Z " fill="#D4D4D4" transform="translate(328,89)"/>
<path d="M0 0 C2 1 2 1 2 1 Z " fill="#FFFFFF" transform="translate(31,89)"/>
<path d="M0 0 C2 1 2 1 2 1 Z " fill="#555555" transform="translate(618,88)"/>
<path d="M0 0 C2 1 2 1 2 1 Z " fill="#3F3FBF" transform="translate(144,88)"/>
<path d="M0 0 C2 1 2 1 2 1 Z " fill="#7F7F7F" transform="translate(325,87)"/>
<path d="M0 0 C2 1 2 1 2 1 Z " fill="#555555" transform="translate(615,86)"/>
<path d="" fill="#AAAAAA" transform="translate(0,0)"/>
<path d="M0 0 C2 1 2 1 2 1 Z " fill="#6A6A94" transform="translate(613,85)"/>
<path d="M0 0 C2 1 2 1 2 1 Z " fill="#555555" transform="translate(322,85)"/>
<path d="M0 0 C2 1 2 1 2 1 Z " fill="#3F3F3F" transform="translate(140,85)"/>
<path d="M0 0 C2 1 2 1 2 1 Z " fill="#7F7F7F" transform="translate(611,84)"/>
<path d="M0 0 C2 1 2 1 2 1 Z " fill="#D4D4D4" transform="translate(320,84)"/>
<path d="M0 0 C2 1 2 1 2 1 Z " fill="#555555" transform="translate(759,83)"/>
<path d="M0 0 C2 1 2 1 2 1 Z " fill="#949494" transform="translate(609,83)"/>
<path d="" fill="#AAAAAA" transform="translate(0,0)"/>
<path d="M0 0 C2 1 2 1 2 1 Z " fill="#D4D4D4" transform="translate(318,83)"/>
<path d="M0 0 C2 1 2 1 2 1 Z " fill="#D4D4D4" transform="translate(137,83)"/>
<path d="M0 0 C2 1 2 1 2 1 Z " fill="#BFBFBF" transform="translate(39,83)"/>
<path d="M0 0 C2 1 2 1 2 1 Z " fill="#6A9494" transform="translate(757,82)"/>
<path d="M0 0 C2 1 2 1 2 1 Z " fill="#7F7F7F" transform="translate(607,82)"/>
<path d="" fill="#7F7FBF" transform="translate(0,0)"/>
<path d="M0 0 C2 1 2 1 2 1 Z " fill="#949494" transform="translate(755,81)"/>
<path d="M0 0 C2 1 2 1 2 1 Z " fill="#949494" transform="translate(313,81)"/>
<path d="M0 0 C2 1 2 1 2 1 Z " fill="#D4D4D4" transform="translate(134,81)"/>
<path d="M0 0 C2 1 2 1 2 1 Z " fill="#555555" transform="translate(42,81)"/>
<path d="M0 0 C2 1 2 1 2 1 Z " fill="#7F7F7F" transform="translate(753,80)"/>
<path d="M0 0 C2 1 2 1 2 1 Z " fill="#7F7F7F" transform="translate(132,80)"/>
<path d="M0 0 C2 1 2 1 2 1 Z " fill="#AAD4D4" transform="translate(44,80)"/>
<path d="M0 0 C2 1 2 1 2 1 Z " fill="#7F7F7F" transform="translate(130,79)"/>
<path d="M0 0 C2 1 2 1 2 1 Z " fill="#949494" transform="translate(46,79)"/>
<path d="" fill="#3F3F3F" transform="translate(0,0)"/>
<path d="" fill="#555555" transform="translate(0,0)"/>
<path d="M0 0 C2 1 2 1 2 1 Z " fill="#BFBFBF" transform="translate(48,78)"/>
<path d="M0 0 C2 1 2 1 2 1 Z " fill="#7F7F7F" transform="translate(126,77)"/>
<path d="M0 0 C2 1 2 1 2 1 Z " fill="#6A9494" transform="translate(50,77)"/>
<path d="M0 0 C2 1 2 1 2 1 Z " fill="#7F7F7F" transform="translate(124,76)"/>
<path d="M0 0 C2 1 2 1 2 1 Z " fill="#7F7F7F" transform="translate(52,76)"/>
<path d="M0 0 C2 1 2 1 2 1 Z " fill="#7F7F7F" transform="translate(122,75)"/>
<path d="M0 0 C2 1 2 1 2 1 Z " fill="#BFBFBF" transform="translate(54,75)"/>
<path d="M0 0 C2 1 2 1 2 1 Z " fill="#6A9494" transform="translate(57,74)"/>
<path d="" fill="#55AAAA" transform="translate(0,0)"/>
<path d="" fill="#AAAAAA" transform="translate(0,0)"/>
<path d="" fill="#555555" transform="translate(0,0)"/>
<path d="" fill="#AAAAAA" transform="translate(0,0)"/>
<path d="" fill="#5555AA" transform="translate(0,0)"/>
<path d="" fill="#7F7F7F" transform="translate(0,0)"/>
<path d="" fill="#7F7F7F" transform="translate(0,0)"/>
<path d="" fill="#7F7F7F" transform="translate(0,0)"/>
<path d="" fill="#AAAAAA" transform="translate(0,0)"/>
<path d="" fill="#7F7F7F" transform="translate(0,0)"/>
<path d="" fill="#7F7F7F" transform="translate(0,0)"/>
<path d="" fill="#55AAAA" transform="translate(0,0)"/>
<path d="" fill="#7F7F7F" transform="translate(0,0)"/>
<path d="" fill="#7F7F7F" transform="translate(0,0)"/>
<path d="" fill="#AAAAAA" transform="translate(0,0)"/>
<path d="" fill="#7F7F7F" transform="translate(0,0)"/>
<path d="" fill="#7F7F7F" transform="translate(0,0)"/>
<path d="" fill="#666699" transform="translate(0,0)"/>
<path d="" fill="#7F7FBF" transform="translate(0,0)"/>
<path d="" fill="#666699" transform="translate(0,0)"/>
<path d="" fill="#7F7FBF" transform="translate(0,0)"/>
<path d="" fill="#666699" transform="translate(0,0)"/>
<path d="" fill="#AAAAAA" transform="translate(0,0)"/>
<path d="" fill="#7F7FBF" transform="translate(0,0)"/>
<path d="" fill="#666699" transform="translate(0,0)"/>
<path d="" fill="#7F7F7F" transform="translate(0,0)"/>
<path d="" fill="#7F7FBF" transform="translate(0,0)"/>
<path d="" fill="#666699" transform="translate(0,0)"/>
<path d="" fill="#7F7FBF" transform="translate(0,0)"/>
<path d="" fill="#666699" transform="translate(0,0)"/>
<path d="" fill="#7F7F7F" transform="translate(0,0)"/>
<path d="" fill="#7FBFBF" transform="translate(0,0)"/>
<path d="" fill="#7F7FBF" transform="translate(0,0)"/>
<path d="" fill="#7F7F7F" transform="translate(0,0)"/>
<path d="" fill="#55AAAA" transform="translate(0,0)"/>
<path d="" fill="#AAAAAA" transform="translate(0,0)"/>
<path d="" fill="#7F7F7F" transform="translate(0,0)"/>
<path d="" fill="#AAAAAA" transform="translate(0,0)"/>
<path d="" fill="#555555" transform="translate(0,0)"/>
<path d="" fill="#7F7F7F" transform="translate(0,0)"/>
<path d="" fill="#7F7F7F" transform="translate(0,0)"/>
<path d="" fill="#7F7F7F" transform="translate(0,0)"/>
<path d="" fill="#55AAAA" transform="translate(0,0)"/>
<path d="" fill="#7F7F7F" transform="translate(0,0)"/>
<path d="" fill="#7F7F7F" transform="translate(0,0)"/>
<path d="" fill="#7F7F7F" transform="translate(0,0)"/>
<path d="" fill="#AAAAAA" transform="translate(0,0)"/>
<path d="" fill="#7F7F7F" transform="translate(0,0)"/>
<path d="" fill="#7F7F7F" transform="translate(0,0)"/>
<path d="" fill="#AAAAAA" transform="translate(0,0)"/>
<path d="" fill="#7F7F7F" transform="translate(0,0)"/>
<path d="" fill="#AAAAAA" transform="translate(0,0)"/>
<path d="" fill="#7F7F7F" transform="translate(0,0)"/>
<path d="" fill="#AAAAAA" transform="translate(0,0)"/>
<path d="" fill="#7F7FBF" transform="translate(0,0)"/>
<path d="" fill="#AAAAAA" transform="translate(0,0)"/>
<path d="" fill="#7F7F7F" transform="translate(0,0)"/>
<path d="" fill="#AAAAAA" transform="translate(0,0)"/>
<path d="" fill="#AAAAAA" transform="translate(0,0)"/>
<path d="" fill="#AAAAAA" transform="translate(0,0)"/>
<path d="" fill="#AAAAAA" transform="translate(0,0)"/>
<path d="" fill="#7F7F7F" transform="translate(0,0)"/>
<path d="" fill="#7F7F7F" transform="translate(0,0)"/>
<path d="" fill="#AAAAAA" transform="translate(0,0)"/>
<path d="" fill="#AAAAAA" transform="translate(0,0)"/>
<path d="" fill="#555555" transform="translate(0,0)"/>
<path d="" fill="#55AAAA" transform="translate(0,0)"/>
<path d="" fill="#AAAAAA" transform="translate(0,0)"/>
<path d="" fill="#7F7F7F" transform="translate(0,0)"/>
<path d="" fill="#7F7F7F" transform="translate(0,0)"/>
<path d="" fill="#7F7F7F" transform="translate(0,0)"/>
<path d="" fill="#AAAAAA" transform="translate(0,0)"/>
<path d="" fill="#7F7F7F" transform="translate(0,0)"/>
<path d="" fill="#7F7F7F" transform="translate(0,0)"/>
<path d="" fill="#7F7F7F" transform="translate(0,0)"/>
<path d="" fill="#555555" transform="translate(0,0)"/>
<path d="" fill="#5555AA" transform="translate(0,0)"/>
<path d="" fill="#AAAAAA" transform="translate(0,0)"/>
<path d="" fill="#AAAAAA" transform="translate(0,0)"/>
<path d="" fill="#AAAAAA" transform="translate(0,0)"/>
<path d="" fill="#7F7F7F" transform="translate(0,0)"/>
<path d="" fill="#AAAAAA" transform="translate(0,0)"/>
<path d="" fill="#AAAAAA" transform="translate(0,0)"/>
<path d="" fill="#AAAAAA" transform="translate(0,0)"/>
<path d="" fill="#999999" transform="translate(0,0)"/>
<path d="" fill="#AAAAAA" transform="translate(0,0)"/>
<path d="" fill="#AAAAAA" transform="translate(0,0)"/>
<path d="" fill="#7F7F7F" transform="translate(0,0)"/>
<path d="" fill="#7F7F7F" transform="translate(0,0)"/>
<path d="" fill="#AAAAAA" transform="translate(0,0)"/>
<path d="" fill="#AAAAAA" transform="translate(0,0)"/>
<path d="" fill="#669999" transform="translate(0,0)"/>
<path d="" fill="#999999" transform="translate(0,0)"/>
<path d="" fill="#666699" transform="translate(0,0)"/>
<path d="" fill="#7F7F7F" transform="translate(0,0)"/>
<path d="" fill="#AAAAAA" transform="translate(0,0)"/>
<path d="" fill="#999999" transform="translate(0,0)"/>
<path d="" fill="#669999" transform="translate(0,0)"/>
<path d="" fill="#7F7F7F" transform="translate(0,0)"/>
<path d="" fill="#AAAAAA" transform="translate(0,0)"/>
<path d="" fill="#AAAAAA" transform="translate(0,0)"/>
<path d="" fill="#7F7F7F" transform="translate(0,0)"/>
<path d="" fill="#7F7F7F" transform="translate(0,0)"/>
<path d="" fill="#AAAAAA" transform="translate(0,0)"/>
<path d="" fill="#7F7F7F" transform="translate(0,0)"/>
<path d="" fill="#7F7F7F" transform="translate(0,0)"/>
<path d="" fill="#7F7F7F" transform="translate(0,0)"/>
<path d="" fill="#AAAAAA" transform="translate(0,0)"/>
<path d="" fill="#7F7F7F" transform="translate(0,0)"/>
<path d="" fill="#AAAAAA" transform="translate(0,0)"/>
<path d="" fill="#AAAAAA" transform="translate(0,0)"/>
<path d="" fill="#AAAAAA" transform="translate(0,0)"/>
<path d="" fill="#7F7F7F" transform="translate(0,0)"/>
<path d="" fill="#55AAAA" transform="translate(0,0)"/>
<path d="" fill="#AAAAAA" transform="translate(0,0)"/>
<path d="" fill="#7F7F7F" transform="translate(0,0)"/>
<path d="" fill="#AAAAAA" transform="translate(0,0)"/>
<path d="" fill="#7F7F7F" transform="translate(0,0)"/>
<path d="" fill="#7F7F7F" transform="translate(0,0)"/>
<path d="" fill="#AAAAAA" transform="translate(0,0)"/>
<path d="" fill="#7F7F7F" transform="translate(0,0)"/>
<path d="" fill="#AAAAAA" transform="translate(0,0)"/>
<path d="" fill="#AAAAAA" transform="translate(0,0)"/>
<path d="" fill="#AAAAAA" transform="translate(0,0)"/>
<path d="" fill="#7F7F7F" transform="translate(0,0)"/>
<path d="" fill="#7F7F7F" transform="translate(0,0)"/>
<path d="" fill="#669999" transform="translate(0,0)"/>
<path d="" fill="#669999" transform="translate(0,0)"/>
<path d="" fill="#7F7F7F" transform="translate(0,0)"/>
<path d="" fill="#AAAAAA" transform="translate(0,0)"/>
<path d="" fill="#666699" transform="translate(0,0)"/>
<path d="" fill="#7F7F7F" transform="translate(0,0)"/>
<path d="" fill="#AAAAAA" transform="translate(0,0)"/>
<path d="" fill="#7FBFBF" transform="translate(0,0)"/>
<path d="" fill="#AAAAAA" transform="translate(0,0)"/>
<path d="" fill="#7F7F7F" transform="translate(0,0)"/>
<path d="" fill="#AAAAAA" transform="translate(0,0)"/>
<path d="" fill="#AAAAAA" transform="translate(0,0)"/>
<path d="" fill="#AAAAAA" transform="translate(0,0)"/>
<path d="" fill="#7F7FBF" transform="translate(0,0)"/>
<path d="" fill="#55AAAA" transform="translate(0,0)"/>
<path d="" fill="#AAAAAA" transform="translate(0,0)"/>
<path d="" fill="#AAAAAA" transform="translate(0,0)"/>
<path d="" fill="#AAAAAA" transform="translate(0,0)"/>
<path d="" fill="#7F7F7F" transform="translate(0,0)"/>
<path d="" fill="#7F7F7F" transform="translate(0,0)"/>
<path d="" fill="#7F7F7F" transform="translate(0,0)"/>
<path d="" fill="#7F7F7F" transform="translate(0,0)"/>
<path d="" fill="#AAAAAA" transform="translate(0,0)"/>
<path d="" fill="#7F7F7F" transform="translate(0,0)"/>
<path d="" fill="#7F7F7F" transform="translate(0,0)"/>
<path d="" fill="#7F7F7F" transform="translate(0,0)"/>
<path d="" fill="#55AAAA" transform="translate(0,0)"/>
<path d="" fill="#AAAAAA" transform="translate(0,0)"/>
<path d="" fill="#555555" transform="translate(0,0)"/>
<path d="" fill="#7F7F7F" transform="translate(0,0)"/>
<path d="" fill="#7F7F7F" transform="translate(0,0)"/>
<path d="" fill="#7F7F7F" transform="translate(0,0)"/>
<path d="" fill="#7F7F7F" transform="translate(0,0)"/>
<path d="" fill="#AAAAAA" transform="translate(0,0)"/>
<path d="" fill="#7F7F7F" transform="translate(0,0)"/>
<path d="" fill="#55AAAA" transform="translate(0,0)"/>
<path d="" fill="#AAAAAA" transform="translate(0,0)"/>
<path d="" fill="#666699" transform="translate(0,0)"/>
<path d="" fill="#7F7F7F" transform="translate(0,0)"/>
<path d="" fill="#7FBFBF" transform="translate(0,0)"/>
<path d="" fill="#7F7FBF" transform="translate(0,0)"/>
<path d="" fill="#7FFFFF" transform="translate(0,0)"/>
<path d="" fill="#666699" transform="translate(0,0)"/>
<path d="" fill="#7F7FBF" transform="translate(0,0)"/>
<path d="" fill="#AAAAAA" transform="translate(0,0)"/>
<path d="" fill="#666699" transform="translate(0,0)"/>
<path d="" fill="#7F7F7F" transform="translate(0,0)"/>
<path d="" fill="#7F7FBF" transform="translate(0,0)"/>
<path d="" fill="#AAAAAA" transform="translate(0,0)"/>
<path d="" fill="#666699" transform="translate(0,0)"/>
<path d="" fill="#AAAAAA" transform="translate(0,0)"/>
<path d="" fill="#7F7FBF" transform="translate(0,0)"/>
<path d="" fill="#555555" transform="translate(0,0)"/>
<path d="" fill="#666699" transform="translate(0,0)"/>
<path d="" fill="#7F7FBF" transform="translate(0,0)"/>
<path d="" fill="#7F7F7F" transform="translate(0,0)"/>
<path d="" fill="#7F7F7F" transform="translate(0,0)"/>
<path d="" fill="#666699" transform="translate(0,0)"/>
<path d="" fill="#7F7FBF" transform="translate(0,0)"/>
<path d="" fill="#7F7F7F" transform="translate(0,0)"/>
<path d="" fill="#7F7F7F" transform="translate(0,0)"/>
<path d="" fill="#7F7F7F" transform="translate(0,0)"/>
<path d="" fill="#AAAAAA" transform="translate(0,0)"/>
<path d="" fill="#AAAAAA" transform="translate(0,0)"/>
<path d="" fill="#7F7F7F" transform="translate(0,0)"/>
<path d="" fill="#AAAAAA" transform="translate(0,0)"/>
<path d="" fill="#7F7F7F" transform="translate(0,0)"/>
<path d="" fill="#7F7F7F" transform="translate(0,0)"/>
<path d="" fill="#7F7F7F" transform="translate(0,0)"/>
<path d="" fill="#55AAAA" transform="translate(0,0)"/>
<path d="" fill="#7F7F7F" transform="translate(0,0)"/>
<path d="" fill="#7F7F7F" transform="translate(0,0)"/>
<path d="" fill="#7F7F7F" transform="translate(0,0)"/>
<path d="" fill="#AAAAAA" transform="translate(0,0)"/>
<path d="" fill="#7F7F7F" transform="translate(0,0)"/>
<path d="" fill="#AAAAAA" transform="translate(0,0)"/>
<path d="" fill="#55AAAA" transform="translate(0,0)"/>
<path d="" fill="#7F7F7F" transform="translate(0,0)"/>
<path d="" fill="#AAAAAA" transform="translate(0,0)"/>
<path d="" fill="#7F7F7F" transform="translate(0,0)"/>
<path d="" fill="#AAAAAA" transform="translate(0,0)"/>
<path d="" fill="#7F7F7F" transform="translate(0,0)"/>
<path d="" fill="#AAAAAA" transform="translate(0,0)"/>
<path d="" fill="#7F7F7F" transform="translate(0,0)"/>
<path d="" fill="#7F7F7F" transform="translate(0,0)"/>
<path d="" fill="#AAAAAA" transform="translate(0,0)"/>
<path d="" fill="#5555AA" transform="translate(0,0)"/>
<path d="" fill="#AAAAAA" transform="translate(0,0)"/>
<path d="" fill="#555555" transform="translate(0,0)"/>
<path d="" fill="#55AAAA" transform="translate(0,0)"/>
</svg>
