<?xml version="1.0" encoding="UTF-8"?>
<!-- Generator: visioncortex VTracer 0.6.12 -->
<svg version="1.1" xmlns="http://www.w3.org/2000/svg" width="864" height="320">
<path d="M0 0 C0.675 -0.001 1.351 -0.001 2.047 -0.002 C11.873 0.014 21.108 0.297 30.562 3.25 C31.116 3.42 31.116 3.42 33.914 4.281 C49.706 9.755 61.713 19.544 69.562 34.25 C73.289 42.66 73.838 49.835 74.562 59.25 C61.692 59.25 48.822 59.25 35.562 59.25 C34.573 55.95 33.582 52.65 32.562 49.25 C28.127 41.52 22.517 37.899 14 35.438 C0.628 32.507 -11.798 33.855 -24 40.062 C-29.007 44.556 -31.081 49.375 -31.531 55.98 C-31.31 61.336 -29.574 64.997 -26 68.938 C-14.434 77.271 0.855 78.995 14.453 81.859 C58.421 91.177 58.421 91.177 69.935 108.29 C71.17 110.262 72.38 112.245 73.562 114.25 C73.672 113.698 73.782 113.145 73.895 112.576 C78.176 91.569 85.074 72.575 103.633 60.031 C121.602 49.106 142.079 46.629 162.562 51.25 C179.297 55.973 193.104 64.879 201.938 80.125 C210.877 96.349 211.883 113.147 212.562 131.25 C212.939 130.787 213.316 130.323 213.704 129.846 C225.107 116.128 241.503 112.331 258.562 110.25 C263.172 109.836 267.784 109.516 272.403 109.245 C274.457 109.124 276.51 108.994 278.562 108.863 C284.575 108.493 290.536 108.205 296.562 108.25 C296.086 91.269 296.086 91.269 291.562 86.25 C284.186 80.269 275.655 80.335 266.562 81.25 C260.647 82.381 255.373 85.581 251.562 90.25 C251.067 91.405 251.067 91.405 248.562 97.25 C236.683 97.25 224.803 97.25 212.562 97.25 C214.073 82.146 218.345 71.759 230.145 61.945 C248.549 49.041 271.341 46.966 293.086 50.5 C307.677 53.648 320.698 59.94 329.562 72.25 C335.396 81.7 336.873 90.859 336.79 101.819 C336.79 102.834 336.79 103.85 336.79 104.896 C336.789 108.224 336.774 111.551 336.758 114.879 C336.754 117.198 336.751 119.517 336.749 121.835 C336.742 127.916 336.722 133.997 336.7 140.078 C336.679 146.293 336.67 152.507 336.66 158.721 C336.639 170.897 336.604 183.074 336.562 195.25 C323.363 195.25 310.163 195.25 296.562 195.25 C296.233 189.31 295.902 183.37 295.562 177.25 C294.552 178.446 293.541 179.643 292.5 180.875 C282.627 192.049 271.856 197.233 256.918 198.469 C242.921 198.961 230.007 195.086 219.312 186.062 C212.873 179.967 207.956 173.309 207.562 164.25 C206.902 164.25 206.243 164.25 205.562 164.25 C205.377 165.054 205.191 165.859 205 166.688 C200.409 178.064 190.443 186.078 179.812 191.562 C179.194 191.888 178.575 192.214 177.938 192.549 C167.613 197.594 156.606 198.792 145.25 198.688 C144.071 198.678 142.892 198.669 141.677 198.66 C122.906 198.289 105.937 192.782 92.648 179.104 C85.678 171.428 80.715 162.101 77.562 152.25 C77.417 152.667 77.417 152.667 76.68 154.777 C70.635 171.373 61.263 182.517 45.645 190.797 C19.908 202.298 -12.32 202.572 -38.605 192.953 C-53.253 187.333 -64.852 178.496 -71.902 164.301 C-75.403 156.375 -77.438 148.923 -77.438 140.25 C-64.567 140.25 -51.697 140.25 -38.438 140.25 C-37.117 143.55 -35.797 146.85 -34.438 150.25 C-29.321 158.473 -20.213 161.51 -11.262 163.809 C2.362 165.938 17.298 165.236 29.125 157.625 C33.405 154.025 35.405 149.664 36.562 144.25 C36.823 138.752 35.73 134.795 32.562 130.25 C32.562 129.59 32.562 128.93 32.562 128.25 C18.803 121.291 4.69 118.108 -10.344 115.035 C-26.325 111.749 -41.091 108.129 -54.438 98.25 C-54.801 97.984 -54.801 97.984 -56.641 96.637 C-66.317 88.899 -70.794 78.619 -73.125 66.75 C-74.394 52.539 -72.451 38.141 -63.395 26.66 C-61.155 24.097 -58.84 21.66 -56.438 19.25 C-55.821 18.611 -55.205 17.971 -54.57 17.312 C-40.107 3.408 -19.199 0.017 0 0 Z M119.562 91.25 C115.591 96.736 115.336 101.293 114.562 108.25 C134.032 108.25 153.502 108.25 173.562 108.25 C168.717 88.867 168.717 88.867 159.562 83.25 C144.381 75.328 130.794 78.867 119.562 91.25 Z M113.562 133.25 C113.562 144.623 116.438 154.073 124.562 162.25 C131.802 168.012 140.25 169.803 149.371 169.004 C158.892 167.512 164.926 164.585 171.215 157.25 C172.562 155.25 172.562 155.25 173.562 151.25 C184.452 151.25 195.342 151.25 206.562 151.25 C207.553 146.96 208.543 142.67 209.562 138.25 C210.222 136.6 210.882 134.95 211.562 133.25 C179.222 133.25 146.882 133.25 113.562 133.25 Z M277.875 134.062 C277.26 134.098 277.26 134.098 274.15 134.275 C254.869 135.561 254.869 135.561 248.562 142.25 C245.321 147.057 244.66 151.604 245.562 157.25 C247.949 162.116 250.71 164.867 255.562 167.25 C264.493 169.591 273.331 170.19 281.848 166.172 C288.554 162.211 294.494 156.968 296.562 149.25 C297.025 143.926 296.795 138.581 296.562 133.25 C290.315 133.189 284.106 133.654 277.875 134.062 Z " fill="#888D93" transform="translate(84.4375,59.75)"/>
<path d="M0 0 C113.21 0 113.21 0 137 20 C137.828 20.634 138.655 21.268 139.508 21.922 C160.073 39.071 164.4 67.011 167 92 C167.14 91.631 167.14 91.631 167.848 89.762 C174.943 71.807 185.811 58.699 203.688 50.75 C223.209 43.573 245.354 44.021 264.324 52.621 C268.483 54.764 272.269 57.181 276 60 C276.333 60.238 276.333 60.238 278.016 61.445 C291.172 71.753 296.85 88.251 300 104 C300 112.58 300 121.16 300 130 C283.995 130.165 283.995 130.165 203 131 C206.216 151.903 206.216 151.903 215.902 159.598 C223.564 164.72 232.499 165.682 241.5 164.438 C247.335 163.183 252.515 160.985 257 157 C257.162 156.637 257.162 156.637 257.98 154.798 C259.373 151.834 260.46 150.102 263 148 C269.147 146.836 275.152 147.152 281.375 147.438 C283.082 147.483 284.789 147.524 286.496 147.561 C290.667 147.659 294.832 147.815 299 148 C297.161 162.612 289.135 173.753 278 183 C261.395 195.763 238.52 196.953 218.45 194.716 C201.787 191.986 187.205 183.543 176.875 170.27 C168.261 157.404 164.347 143.26 163 128 C162.587 129.221 162.175 130.441 161.75 131.699 C156.582 146.594 150.288 158.692 139 170 C138.388 170.624 137.775 171.248 137.145 171.891 C102.638 204.558 36.86 192 0 192 C0 128.64 0 65.28 0 0 Z M41 34 C41 74.92 41 115.84 41 158 C93.837 158 93.837 158 108.246 144.969 C122.489 130.107 124.461 110.259 124.203 90.652 C123.786 75.442 119.708 58.767 108.742 47.445 C88.167 30.377 68.27 34 41 34 Z M210 86 C206.068 92.41 204.075 97.473 203 105 C222.47 105 241.94 105 262 105 C260.811 95.488 258.262 88.068 251.074 81.473 C238.722 72.703 219.785 73.726 210 86 Z " fill="#888D93" transform="translate(429,63)"/>
<path d="M0 0 C14.85 0 29.7 0 45 0 C53.552 15.559 61.866 31.219 70 47 C75.669 38.458 80.081 29.242 84.71 20.112 C85.826 17.914 86.946 15.719 88.066 13.523 C88.402 12.858 88.737 12.192 89.083 11.506 C89.725 10.249 90.382 9 91.055 7.76 C91.969 6.057 92.803 4.312 93.634 2.566 C96.273 -0.296 96.719 -0.413 100.401 -0.681 C102.2 -0.68 103.999 -0.646 105.797 -0.586 C106.746 -0.577 107.694 -0.569 108.672 -0.56 C111.699 -0.527 114.724 -0.451 117.75 -0.375 C119.803 -0.345 121.857 -0.318 123.91 -0.293 C128.941 -0.227 133.97 -0.123 139 0 C135.09 7.378 130.906 14.489 126.375 21.5 C125.136 23.431 123.898 25.362 122.66 27.293 C122.045 28.25 121.431 29.207 120.797 30.193 C117.621 35.154 114.485 40.142 111.358 45.135 C108.891 49.062 106.377 52.947 103.773 56.785 C103.514 57.171 103.514 57.171 102.204 59.124 C101.219 60.586 100.223 62.039 99.212 63.484 C98.775 64.136 98.337 64.789 97.887 65.461 C97.497 66.026 97.107 66.591 96.706 67.173 C95.69 69.801 96.182 71.329 97 74 C98.237 76.45 98.237 76.45 99.816 79.043 C100.408 80.021 100.999 81 101.609 82.008 C102.253 83.057 102.898 84.106 103.562 85.188 C103.896 85.736 103.896 85.736 105.581 88.51 C107.352 91.423 109.133 94.331 110.918 97.237 C111.985 98.976 113.05 100.716 114.115 102.456 C125.623 121.257 125.623 121.257 131.23 130.121 C131.468 130.497 131.468 130.497 132.669 132.398 C133.528 133.755 134.391 135.108 135.259 136.459 C138 140.781 138 140.781 138 143 C123.81 143 109.62 143 95 143 C88.429 131.172 81.869 119.34 75.362 107.477 C74.325 105.587 73.286 103.697 72.246 101.809 C71.645 100.713 71.043 99.618 70.424 98.49 C69 96 69 96 68 95 C67.699 95.582 67.399 96.163 67.089 96.762 C61.282 107.978 55.421 119.161 49.375 130.25 C48.867 131.183 48.359 132.117 47.835 133.079 C45.978 136.471 44.147 139.78 42 143 C40.165 143.361 40.165 143.361 37.917 143.341 C37.077 143.34 36.236 143.34 35.37 143.34 C34.461 143.324 33.553 143.309 32.617 143.293 C31.688 143.289 30.758 143.284 29.801 143.28 C26.825 143.263 23.85 143.226 20.875 143.188 C18.861 143.172 16.846 143.159 14.832 143.146 C9.888 143.113 4.944 143.062 0 143 C3.469 136.49 7.048 130.147 11.125 124 C12.091 122.525 13.056 121.05 14.02 119.574 C14.511 118.822 15.003 118.07 15.51 117.294 C18.482 112.718 21.383 108.096 24.279 103.47 C27.101 98.97 29.973 94.511 32.906 90.082 C33.556 89.09 34.206 88.099 34.876 87.077 C36.145 85.142 37.426 83.215 38.72 81.296 C39.293 80.417 39.866 79.538 40.457 78.633 C40.972 77.858 41.488 77.084 42.019 76.286 C43.288 73.33 43.014 72.031 42 69 C40.656 66.427 40.656 66.427 38.93 63.668 C38.288 62.634 37.646 61.6 36.985 60.535 C36.289 59.43 35.592 58.326 34.875 57.188 C34.151 56.026 33.427 54.865 32.704 53.703 C30.841 50.712 28.969 47.727 27.095 44.744 C25.388 42.026 23.688 39.304 21.988 36.582 C20.103 33.565 18.217 30.548 16.329 27.532 C12.382 21.224 8.454 14.905 4.562 8.562 C4.329 8.184 4.329 8.184 3.147 6.266 C0 1.119 0 1.119 0 0 Z " fill="#888D93" transform="translate(718,112)"/>
</svg>
