<?xml version="1.0" encoding="UTF-8"?>
<!-- Generator: visioncortex VTracer 0.6.12 -->
<svg version="1.1" xmlns="http://www.w3.org/2000/svg" width="575" height="320">
<path d="M0 0 C111.192 0 111.192 0 135.246 23.352 C138.066 26.063 140.976 28.521 144 31 C147.151 33.801 148.636 36.012 150 40 C150.621 41.242 151.263 42.474 151.938 43.688 C153.323 46.703 154.139 49.8 155 53 C155.66 53 156.32 53 157 53 C158.603 63.536 159.158 73.836 159.125 84.5 C159.129 85.754 159.133 87.009 159.137 88.301 C159.114 109.829 159.114 109.829 155 116 C153.998 119.182 153.108 122.26 152.625 125.562 C151.765 128.917 150.064 131.248 148 134 C147.34 134.33 146.68 134.66 146 135 C145.67 135.99 145.34 136.98 145 138 C144.01 138.33 143.02 138.66 142 139 C141.876 139.619 141.752 140.238 141.625 140.875 C140.718 143.958 138.703 144.446 136 146 C135.67 146.99 135.34 147.98 135 149 C134.68 149.072 134.68 149.072 133.062 149.438 C132.382 149.623 131.701 149.809 131 150 C130.691 150.66 130.381 151.32 130.062 152 C129.712 152.66 129.361 153.32 129 154 C128.652 154.064 128.652 154.064 126.891 154.387 C123.115 155.188 120.047 156.992 116.688 158.812 C82.072 176.751 34.814 169 0 169 C0 113.23 0 57.46 0 0 Z M44 34 C44 34.33 44 34.66 44 35 C52.91 35 61.82 35 71 35 C71 34.67 71 34.34 71 34 C62.09 34 53.18 34 44 34 Z M44 36 C44 68.01 44 100.02 44 133 C44.33 133 44.66 133 45 133 C45 100.99 45 68.98 45 36 C44.67 36 44.34 36 44 36 Z M46 36 C46 68.01 46 100.02 46 133 C85.557 134.276 85.557 134.276 98 124 C100.738 121.349 102.695 118.764 104.125 115.188 C104.269 114.827 104.269 114.827 105 113 C105.99 112.67 106.98 112.34 108 112 C109.133 109.707 109.133 109.707 110.125 106.812 C110.458 105.87 110.79 104.928 111.133 103.957 C113.075 97.335 113.183 90.975 113.188 84.125 C113.2 83.17 113.212 82.215 113.225 81.23 C113.236 75.48 112.811 70.478 111 65 C110.34 64.67 109.68 64.34 109 64 C108.271 61.685 107.608 59.349 107 57 C106.835 56.505 106.835 56.505 106 54 C105.34 54 104.68 54 104 54 C103.893 53.41 103.786 52.819 103.676 52.211 C102.115 47.105 97.541 43.916 93.113 41.285 C76.612 32.817 66.235 35.191 46 36 Z M156 56 C157 59 157 59 157 59 Z M108 59 C109 61 109 61 109 61 Z M109 62 C110 64 110 64 110 64 Z M44 134 C44 134.33 44 134.66 44 135 C53.24 135 62.48 135 72 135 C72 134.67 72 134.34 72 134 C62.76 134 53.52 134 44 134 Z " fill="#888D93" transform="translate(0,79)"/>
<path d="M0 0 C0.955 -0.015 1.91 -0.031 2.894 -0.046 C7.279 -0.056 11.663 -0.056 16.048 -0.018 C18.357 -0.008 20.665 -0.021 22.973 -0.057 C42.08 -0.354 42.08 -0.354 47.55 3.566 C49.622 6.399 51.019 9.093 52.402 12.31 C53.347 13.749 54.322 15.168 55.335 16.56 C56.172 17.808 57.007 19.058 57.839 20.31 C58.272 20.95 58.704 21.591 59.15 22.251 C60.929 24.919 62.383 27.253 63.402 30.31 C63.974 30.874 64.547 31.439 65.136 32.021 C68.122 35.037 70.323 38.401 72.652 41.935 C72.881 42.275 72.881 42.275 74.042 43.997 C77.402 49.056 77.402 49.056 77.402 51.31 C78.062 51.31 78.722 51.31 79.402 51.31 C79.536 50.918 79.536 50.918 80.214 48.935 C81.402 46.31 81.402 46.31 84.402 44.31 C85.097 42.655 85.759 40.986 86.402 39.31 C87.637 37.307 88.924 35.335 90.246 33.388 C90.615 32.842 90.985 32.297 91.366 31.735 C92.144 30.591 92.924 29.448 93.706 28.306 C94.905 26.556 96.093 24.798 97.281 23.04 C98.039 21.927 98.798 20.813 99.558 19.7 C100.247 18.69 100.936 17.68 101.646 16.639 C103.402 14.31 103.402 14.31 105.402 13.31 C105.67 12.609 105.938 11.907 106.214 11.185 C107.801 7.344 109.2 4.066 112.402 1.31 C116.128 0.271 119.76 0.355 123.609 0.407 C124.149 0.401 124.149 0.401 126.883 0.37 C130.328 0.338 133.77 0.355 137.214 0.372 C139.552 0.359 141.89 0.343 144.228 0.323 C149.953 0.283 155.677 0.281 161.402 0.31 C161.732 1.63 162.062 2.95 162.402 4.31 C161.742 4.64 161.082 4.97 160.402 5.31 C160.134 6.011 159.866 6.712 159.589 7.435 C158.074 11.103 156.073 14.361 153.402 17.31 C152.412 17.64 151.422 17.97 150.402 18.31 C150.134 19.128 149.866 19.947 149.589 20.79 C147.961 25.617 145.252 29.431 142.402 33.622 C141.855 34.445 141.309 35.268 140.746 36.116 C136.669 42.176 136.669 42.176 134.402 43.31 C133.72 44.97 133.056 46.638 132.402 48.31 C131.393 49.953 130.336 51.567 129.242 53.154 C128.929 53.609 128.929 53.609 127.347 55.915 C126.685 56.87 126.022 57.826 125.339 58.81 C124.667 59.787 123.995 60.764 123.302 61.771 C121.34 64.621 119.372 67.466 117.402 70.31 C116.404 71.755 115.407 73.2 114.41 74.646 C112.413 77.538 110.41 80.426 108.402 83.31 C111.971 90.201 116.183 96.485 120.655 102.812 C121.123 103.479 121.591 104.146 122.074 104.833 C122.498 105.431 122.921 106.028 123.358 106.643 C124.402 108.31 124.402 108.31 125.402 111.31 C125.678 111.579 125.678 111.579 127.078 112.939 C130.434 116.362 132.938 120.266 135.589 124.247 C136.135 125.046 136.681 125.844 137.244 126.667 C137.504 127.056 137.504 127.056 138.82 129.025 C139.056 129.376 139.056 129.376 140.25 131.153 C141.402 133.31 141.402 133.31 141.813 135.953 C141.91 136.342 141.91 136.342 142.402 138.31 C144.255 139.332 144.255 139.332 146.402 140.31 C148.094 142.401 148.094 142.401 149.75 144.958 C150.355 145.881 150.96 146.804 151.583 147.755 C152.204 148.722 152.825 149.689 153.464 150.685 C154.704 152.589 155.945 154.493 157.187 156.396 C157.732 157.242 158.278 158.088 158.84 158.96 C160.402 161.31 160.402 161.31 162.103 163.304 C163.723 165.805 163.502 167.386 163.402 170.31 C156.608 170.692 149.818 170.954 143.016 171.134 C140.707 171.209 138.398 171.311 136.091 171.441 C117.41 172.47 117.41 172.47 112.351 168.837 C107.879 164.074 105.451 158.456 103.402 152.31 C102.077 150.968 100.742 149.636 99.402 148.31 C98.192 146.632 97.029 144.92 95.902 143.185 C95.219 142.145 94.535 141.104 93.832 140.032 C93.452 139.451 93.073 138.87 92.682 138.271 C90.142 134.38 87.588 130.499 85.027 126.622 C84.503 125.82 83.979 125.017 83.439 124.19 C82.945 123.442 82.45 122.694 81.941 121.923 C81.72 121.587 81.72 121.587 80.604 119.885 C79.402 118.31 79.402 118.31 77.402 117.31 C77.271 117.672 77.271 117.672 76.606 119.504 C75.374 122.374 73.933 124.652 72.128 127.197 C71.474 128.127 70.819 129.058 70.145 130.016 C69.446 131 68.747 131.984 68.027 132.997 C62.221 141.239 56.519 149.529 51.033 157.988 C47.614 163.204 47.614 163.204 45.402 164.31 C45.092 165.135 44.783 165.96 44.464 166.81 C44.114 167.635 43.763 168.46 43.402 169.31 C40.522 170.27 38.736 170.431 35.747 170.423 C34.806 170.423 33.865 170.423 32.896 170.423 C31.883 170.418 30.871 170.413 29.828 170.407 C29.308 170.407 29.308 170.407 26.679 170.403 C23.358 170.398 20.036 170.385 16.714 170.372 C14.464 170.367 12.213 170.363 9.962 170.359 C4.442 170.348 -1.078 170.331 -6.598 170.31 C-6.598 165.628 -5.071 163.509 -2.512 159.829 C-2.095 159.216 -1.678 158.602 -1.249 157.97 C-0.367 156.677 0.519 155.387 1.41 154.1 C2.775 152.126 4.124 150.142 5.472 148.156 C6.331 146.9 7.19 145.646 8.05 144.392 C8.456 143.797 8.861 143.202 9.278 142.59 C12.17 138.426 12.17 138.426 14.402 137.31 C15.035 136.044 15.658 134.772 16.267 133.494 C18.604 128.996 21.546 124.845 24.339 120.622 C24.973 119.647 25.607 118.672 26.259 117.667 C26.872 116.741 27.485 115.815 28.117 114.861 C28.396 114.436 28.396 114.436 29.808 112.288 C31.402 110.31 31.402 110.31 34.402 109.31 C34.533 108.898 34.533 108.898 35.199 106.814 C37.14 101.162 40.892 96.643 44.41 91.855 C48.514 85.998 48.514 85.998 47.953 82.54 C47.441 81.804 46.929 81.068 46.402 80.31 C45.916 79.534 45.43 78.758 44.929 77.958 C44.405 77.208 43.88 76.458 43.339 75.685 C41.562 73.138 40.391 71.278 39.402 68.31 C39.125 68.042 39.125 68.042 37.726 66.689 C34.351 63.234 31.864 59.271 29.214 55.247 C28.668 54.432 28.123 53.617 27.56 52.777 C23.533 46.704 23.533 46.704 22.402 43.31 C21.828 42.741 21.255 42.173 20.664 41.587 C17.72 38.623 15.523 35.341 13.214 31.872 C12.989 31.545 12.989 31.545 11.849 29.886 C9.923 27.008 8.515 24.897 7.851 21.462 C7.703 20.752 7.555 20.042 7.402 19.31 C6.786 19.007 6.17 18.704 5.535 18.393 C3.101 17.157 2.287 16.105 0.824 13.833 C0.385 13.163 -0.053 12.493 -0.504 11.802 C-0.948 11.103 -1.391 10.405 -1.848 9.685 C-2.078 9.332 -2.078 9.332 -3.239 7.544 C-4.367 5.805 -5.484 4.058 -6.598 2.31 C-4.131 -0.157 -3.399 0.044 0 0 Z M50.402 83.31 C51.402 85.31 51.402 85.31 51.402 85.31 Z " fill="#888C92" transform="translate(411.59814453125,77.690185546875)"/>
<path d="M0 0 C5.945 -0.074 11.889 -0.129 17.834 -0.165 C19.858 -0.18 21.881 -0.2 23.905 -0.226 C26.809 -0.263 29.713 -0.28 32.617 -0.293 C33.526 -0.308 34.434 -0.324 35.37 -0.34 C36.211 -0.34 37.051 -0.34 37.917 -0.341 C38.288 -0.344 38.288 -0.344 40.165 -0.361 C40.771 -0.242 41.376 -0.123 42 0 C44 3 44 3 45 6 C45.165 6.33 45.165 6.33 46 8 C47 11 48 14 49 17 C50 19 50 19 52 22 C52.598 24.191 52.598 24.191 53.062 26.562 C53.535 28.94 53.914 30.829 55 33 C56 36 57 39 58 42 C59 44 59 44 61 47 C61.441 48.882 61.811 50.781 62.125 52.688 C62.209 53.184 62.209 53.184 62.633 55.699 C62.693 56.079 62.693 56.079 63 58 C63.66 58 64.32 58 65 58 C65 59.98 65 61.96 65 64 C65.66 64 66.32 64 67 64 C68.802 67.83 69.196 70.781 69 75 C69.66 75 70.32 75 71 75 C71 76.65 71 78.3 71 80 C73 78 73 78 75 75 C75.33 74.505 75.33 74.505 77 72 C77.125 69.312 77.125 69.312 77 67 C77.66 67 78.32 67 79 67 C79.082 65.742 79.165 64.484 79.25 63.188 C79.863 57.442 81.857 52.332 84 47 C84.66 47 85.32 47 86 47 C86 45.35 86 43.7 86 42 C86.66 42 87.32 42 88 42 C88 40.02 88 38.04 88 36 C88.66 36 89.32 36 90 36 C90.33 33.36 90.66 30.72 91 28 C91.66 28 92.32 28 93 28 C93 26.02 93 24.04 93 22 C93.66 22 94.32 22 95 22 C95.082 20.907 95.165 19.814 95.25 18.688 C95.915 13.159 97.965 8.15 100 3 C100.66 3 101.32 3 102 3 C102.33 2.01 102.66 1.02 103 0 C116.86 0 130.72 0 145 0 C145.33 1.65 145.66 3.3 146 5 C145.34 5.66 144.68 6.32 144 7 C141.798 10.303 141.022 13.184 140 17 C139 20 139 20 138 22 C137.938 22.443 137.938 22.443 137.625 24.688 C136.905 28.504 135.619 31.48 134 35 C133.34 35 132.68 35 132 35 C131.156 37.058 130.325 39.122 129.5 41.188 C129.036 42.336 128.572 43.485 128.094 44.668 C127.092 47.72 126.761 49.831 127 53 C126.34 53 125.68 53 125 53 C124.897 54.176 124.794 55.351 124.688 56.562 C124.171 60.825 122.849 64.141 121 68 C120.34 68 119.68 68 119 68 C118.795 68.687 118.59 69.374 118.379 70.082 C118.109 70.983 117.84 71.884 117.562 72.812 C117.296 73.706 117.029 74.599 116.754 75.52 C115.968 78.104 115.21 80.58 114 83 C113.938 83.351 113.938 83.351 113.625 85.125 C112.798 88.93 111.414 92.372 110 96 C109.34 96 108.68 96 108 96 C107.156 98.058 106.325 100.122 105.5 102.188 C105.268 102.762 105.268 102.762 104.094 105.668 C103.092 108.72 102.761 110.831 103 114 C102.34 114 101.68 114 101 114 C100.938 114.516 100.938 114.516 100.625 117.125 C100 121 100 121 98 127 C81.17 127 64.34 127 47 127 C46.835 125.68 46.835 125.68 46 119 C45.34 119 44.68 119 44 119 C43.948 118.412 43.948 118.412 43.688 115.438 C43.171 111.175 41.849 107.859 40 104 C39.34 104 38.68 104 38 104 C34.571 95.571 34.571 95.571 35 91 C34.34 91 33.68 91 33 91 C32.876 89.783 32.752 88.566 32.625 87.312 C32.211 83.935 31.454 81.102 30 78 C29.34 78 28.68 78 28 78 C27.322 76.442 26.658 74.878 26 73.312 C25.629 72.442 25.257 71.572 24.875 70.676 C23.981 67.943 23.836 65.853 24 63 C23.34 63 22.68 63 22 63 C21.876 61.783 21.752 60.566 21.625 59.312 C21.211 55.935 20.454 53.102 19 50 C18.34 50 17.68 50 17 50 C15.396 46.492 14.78 43.856 15 40 C14.34 40 13.68 40 13 40 C13 38.35 13 36.7 13 35 C12.34 35 11.68 35 11 35 C10.876 33.783 10.752 32.566 10.625 31.312 C10.211 27.935 9.454 25.102 8 22 C7.34 22 6.68 22 6 22 C3.321 15.92 1.571 10.621 1 4 C0.688 2.662 0.359 1.327 0 0 Z M144 2 C145 4 145 4 145 4 Z M100 6 C101 8 101 8 101 8 Z M3 10 C4 12 4 12 4 12 Z M97 14 C98 16 98 16 98 16 Z M5 15 C6 17 6 17 6 17 Z M96 17 C97 19 97 19 97 19 Z M136 23 C137 25 137 25 137 25 Z M51 25 C52 27 52 27 52 27 Z M52 28 C53 30 53 30 53 30 Z M134 28 C135 30 135 30 135 30 Z M16 43 C17 45 17 45 17 45 Z M60 50 C61 52 61 52 61 52 Z M83 53 C84 55 84 55 84 55 Z M82 56 C83 58 83 58 83 58 Z M123 56 C124 58 124 58 124 58 Z M81 59 C82 61 82 61 82 61 Z M121 61 C122 63 122 63 122 63 Z M120 63 C121 65 121 65 121 65 Z M25 66 C26 68 26 68 26 68 Z M66 67 C67 69 67 69 67 69 Z M27 71 C28 73 28 73 28 73 Z M74 78 C75 81 75 81 75 81 Z M73 81 C74 83 74 83 74 83 Z M112 84 C113 86 113 86 113 86 Z M110 89 C111 91 111 91 111 91 Z M36 94 C37 96 37 96 37 96 Z M38 99 C39 101 39 101 39 101 Z M99 117 C100 119 100 119 100 119 Z M47 122 C48 124 48 124 48 124 Z M97 122 C98 124 98 124 98 124 Z " fill="#878C92" transform="translate(253,121)"/>
<path d="M0 0 C13.53 0 27.06 0 41 0 C41 41.91 41 83.82 41 127 C27.47 127 13.94 127 0 127 C0 85.09 0 43.18 0 0 Z " fill="#888D93" transform="translate(190,121)"/>
<path d="M0 0 C13.53 0 27.06 0 41 0 C41 11.22 41 22.44 41 34 C27.47 34 13.94 34 0 34 C0 22.78 0 11.56 0 0 Z " fill="#888D93" transform="translate(190,72)"/>
<path d="M0 0 C0.33 0 0.66 0 1 0 C1 41.91 1 83.82 1 127 C0.67 127 0.34 127 0 127 C0 85.09 0 43.18 0 0 Z " fill="#808080" transform="translate(232,121)"/>
<path d="M0 0 C0.33 0 0.66 0 1 0 C1 41.91 1 83.82 1 127 C0.67 127 0.34 127 0 127 C0 85.09 0 43.18 0 0 Z " fill="#808080" transform="translate(188,121)"/>
<path d="M0 0 C0.399 0.01 0.399 0.01 2.416 0.061 C2.866 0.071 2.866 0.071 5.146 0.121 C6.125 0.148 7.104 0.176 8.113 0.203 C9.11 0.227 10.108 0.251 11.135 0.275 C14.335 0.352 17.534 0.436 20.734 0.52 C22.897 0.573 25.061 0.626 27.224 0.678 C32.54 0.807 37.856 0.943 43.171 1.082 C43.171 1.412 43.171 1.742 43.171 2.082 C42.563 2.087 42.563 2.087 39.487 2.111 C34.967 2.151 30.448 2.216 25.929 2.29 C23.975 2.318 22.02 2.339 20.066 2.353 C17.253 2.375 14.441 2.421 11.628 2.473 C11.193 2.474 11.193 2.474 8.989 2.477 C3.784 2.602 0.975 3.173 -2.829 7.082 C-3.489 6.752 -4.149 6.422 -4.829 6.082 C-2.533 0.114 -2.533 0.114 0 0 Z " fill="#90949A" transform="translate(525.8286285400391,78.91770935058594)"/>
<path d="M0 0 C0.795 0.022 1.59 0.044 2.409 0.067 C2.859 0.077 2.859 0.077 5.139 0.128 C5.626 0.145 5.626 0.145 8.09 0.226 C9.086 0.251 10.082 0.276 11.108 0.302 C14.298 0.384 17.487 0.481 20.676 0.578 C22.835 0.636 24.994 0.693 27.153 0.749 C32.452 0.89 37.752 1.042 43.051 1.203 C43.051 1.533 43.051 1.863 43.051 2.203 C29.521 2.203 15.991 2.203 2.051 2.203 C1.721 2.863 1.391 3.523 1.051 4.203 C0.226 3.873 0.226 3.873 -3.949 2.203 C-1.949 0.203 -1.949 0.203 0 0 Z " fill="#878B91" transform="translate(408.9488830566406,77.79745483398438)"/>
<path d="M0 0 C13.86 0 27.72 0 42 0 C42 0.33 42 0.66 42 1 C28.14 1 14.28 1 0 1 C0 0.67 0 0.34 0 0 Z " fill="#7F8585" transform="translate(356,119)"/>
<path d="M0 0 C13.86 0 27.72 0 42 0 C42 0.33 42 0.66 42 1 C28.14 1 14.28 1 0 1 C0 0.67 0 0.34 0 0 Z " fill="#7F8585" transform="translate(253,119)"/>
<path d="M0 0 C13.53 0 27.06 0 41 0 C41 0.33 41 0.66 41 1 C27.47 1 13.94 1 0 1 C0 0.67 0 0.34 0 0 Z " fill="#818181" transform="translate(190,119)"/>
<path d="M0 0 C13.53 0 27.06 0 41 0 C41 0.33 41 0.66 41 1 C27.47 1 13.94 1 0 1 C0 0.67 0 0.34 0 0 Z " fill="#575B5B" transform="translate(190,107)"/>
<path d="M0 0 C2.25 0.125 2.25 0.125 5 1 C7.312 4.062 7.312 4.062 9 7 C8.34 8.32 7.68 9.64 7 11 C5.661 9.338 4.329 7.67 3 6 C2.423 5.278 1.845 4.556 1.25 3.812 C0 2 0 2 0 0 Z " fill="#91979C" transform="translate(478,117)"/>
<path d="M0 0 C0.33 0 0.66 0 1 0 C1 10.89 1 21.78 1 33 C0.67 33 0.34 33 0 33 C0 22.11 0 11.22 0 0 Z " fill="#7F7F7F" transform="translate(232,72)"/>
<path d="M0 0 C0.33 0 0.66 0 1 0 C1 10.89 1 21.78 1 33 C0.67 33 0.34 33 0 33 C0 22.11 0 11.22 0 0 Z " fill="#7F7F7F" transform="translate(188,72)"/>
<path d="M0 0 C0.33 0 0.66 0 1 0 C1 9.57 1 19.14 1 29 C0.67 29 0.34 29 0 29 C0 19.43 0 9.86 0 0 Z " fill="#878787" transform="translate(160,149)"/>
<path d="M0 0 C7.92 0 15.84 0 24 0 C24 0.33 24 0.66 24 1 C16.08 1 8.16 1 0 1 C0 0.67 0 0.34 0 0 Z " fill="#868686" transform="translate(51,77)"/>
<path d="M0 0 C2.526 2.363 3.888 3.665 5 7 C4.01 7.66 3.02 8.32 2 9 C0.438 7.312 0.438 7.312 -1 5 C-0.688 2.25 -0.688 2.25 0 0 Z " fill="#83868A" transform="translate(499,202)"/>
<path d="M0 0 C3.875 4.75 3.875 4.75 5 7 C3.35 7 1.7 7 0 7 C-0.66 5.35 -1.32 3.7 -2 2 C-1.34 1.34 -0.68 0.68 0 0 Z " fill="#838589" transform="translate(526,241)"/>
<path d="M0 0 C0.33 0 0.66 0 1 0 C1 7.26 1 14.52 1 22 C0.67 22 0.34 22 0 22 C0 14.74 0 7.48 0 0 Z " fill="#7F7F83" transform="translate(111,152)"/>
<path d="M0 0 C1.875 0.188 1.875 0.188 4 1 C5.25 3.562 5.25 3.562 6 6 C5.01 6.33 4.02 6.66 3 7 C0 3.375 0 3.375 0 0 Z " fill="#91939B" transform="translate(560,226)"/>
<path d="M0 0 C1.32 0.66 2.64 1.32 4 2 C2.35 3.65 0.7 5.3 -1 7 C-1.66 6.67 -2.32 6.34 -3 6 C-1.125 1.125 -1.125 1.125 0 0 Z " fill="#909DA0" transform="translate(456,169)"/>
<path d="M0 0 C1.32 1.65 2.64 3.3 4 5 C3.01 5.99 2.02 6.98 1 8 C0.01 6.68 -0.98 5.36 -2 4 C-1.34 2.68 -0.68 1.36 0 0 Z " fill="#7D8191" transform="translate(415,88)"/>
<path d="M0 0 C1.875 0.188 1.875 0.188 4 1 C5.25 3.562 5.25 3.562 6 6 C4.35 5.67 2.7 5.34 1 5 C0.67 3.35 0.34 1.7 0 0 Z " fill="#9599A3" transform="translate(460,89)"/>
<path d="M0 0 C1.32 1.32 2.64 2.64 4 4 C3.34 5.32 2.68 6.64 2 8 C0.438 6.812 0.438 6.812 -1 5 C-0.688 2.312 -0.688 2.312 0 0 Z " fill="#7A7D87" transform="translate(458,83)"/>
<path d="M0 0 C0.825 0.165 0.825 0.165 5 1 C5.33 2.65 5.66 4.3 6 6 C4.125 5.812 4.125 5.812 2 5 C0.75 2.438 0.75 2.438 0 0 Z " fill="#9094A1" transform="translate(409,84)"/>
<path d="M0 0 C0.825 0.165 0.825 0.165 5 1 C5.33 1.99 5.66 2.98 6 4 C5.01 4.99 4.02 5.98 3 7 C0 2.25 0 2.25 0 0 Z " fill="#939B9E" transform="translate(458,156)"/>
<path d="M0 0 C0.33 0.66 0.66 1.32 1 2 C1.66 2.33 2.32 2.66 3 3 C2.67 4.65 2.34 6.3 2 8 C1.01 7.34 0.02 6.68 -1 6 C-0.67 4.02 -0.34 2.04 0 0 Z M0 3 C1 5 1 5 1 5 Z " fill="#7F8285" transform="translate(349,135)"/>
<path d="M0 0 C3.366 1.443 5.51 3.333 8 6 C7.67 6.66 7.34 7.32 7 8 C5.83 6.857 4.664 5.711 3.5 4.562 C2.85 3.924 2.201 3.286 1.531 2.629 C0 1 0 1 0 0 Z " fill="#8A8A8A" transform="translate(134,100)"/>
<path d="M0 0 C2.97 0 5.94 0 9 0 C9 0.33 9 0.66 9 1 C6.03 1 3.06 1 0 1 C0 0.67 0 0.34 0 0 Z " fill="#7A7A7A" transform="translate(76,78)"/>
<path d="M0 0 C2.31 0 4.62 0 7 0 C7 0.33 7 0.66 7 1 C4.69 1 2.38 1 0 1 C0 0.67 0 0.34 0 0 Z " fill="#8B97A0" transform="translate(86,247)"/>
<path d="M0 0 C2.31 0 4.62 0 7 0 C7 0.33 7 0.66 7 1 C4.69 1 2.38 1 0 1 C0 0.67 0 0.34 0 0 Z " fill="#676767" transform="translate(85,79)"/>
<path d="M0 0 C0.33 0 0.66 0 1 0 C1 1.98 1 3.96 1 6 C0.67 6 0.34 6 0 6 C0 4.02 0 2.04 0 0 Z " fill="#A97F7F" transform="translate(159,178)"/>
<path d="M0 0 C0.33 0 0.66 0 1 0 C1 1.98 1 3.96 1 6 C0.67 6 0.34 6 0 6 C0 4.02 0 2.04 0 0 Z " fill="#949494" transform="translate(110,174)"/>
<path d="M0 0 C0.33 0 0.66 0 1 0 C1 1.98 1 3.96 1 6 C0.67 6 0.34 6 0 6 C0 4.02 0 2.04 0 0 Z " fill="#A9A9A9" transform="translate(159,143)"/>
<path d="M0 0 C1.98 0 3.96 0 6 0 C6 0.33 6 0.66 6 1 C4.02 1 2.04 1 0 1 C0 0.67 0 0.34 0 0 Z " fill="#868686" transform="translate(71,115)"/>
<path d="M0 0 C1.65 0 3.3 0 5 0 C5 0.33 5 0.66 5 1 C3.35 1 1.7 1 0 1 C0 0.67 0 0.34 0 0 Z " fill="#767676" transform="translate(93,246)"/>
<path d="M0 0 C1.65 0 3.3 0 5 0 C5 0.33 5 0.66 5 1 C3.35 1 1.7 1 0 1 C0 0.67 0 0.34 0 0 Z " fill="#7676A9" transform="translate(72,211)"/>
<path d="M0 0 C0.33 0 0.66 0 1 0 C1 1.65 1 3.3 1 5 C0.67 5 0.34 5 0 5 C0 3.35 0 1.7 0 0 Z " fill="#989898" transform="translate(110,147)"/>
<path d="M0 0 C1.65 0 3.3 0 5 0 C5 0.33 5 0.66 5 1 C3.35 1 1.7 1 0 1 C0 0.67 0 0.34 0 0 Z " fill="#90A1A1" transform="translate(92,80)"/>
<path d="M0 0 C4 1 4 1 4 1 Z " fill="#6A6A6A" transform="translate(98,245)"/>
<path d="M0 0 C0.33 0.165 0.33 0.165 2 1 C1.67 1.66 1.34 2.32 1 3 C0.67 2.01 0.34 1.02 0 0 Z " fill="#5F5F5F" transform="translate(554,214)"/>
<path d="M0 0 C4 1 4 1 4 1 Z " fill="#6A6A6A" transform="translate(77,210)"/>
<path d="M0 0 C1 4 1 4 1 4 Z " fill="#7F7F7F" transform="translate(158,184)"/>
<path d="M0 0 C1 4 1 4 1 4 Z " fill="#7F7F7F" transform="translate(158,139)"/>
<path d="M0 0 C4 1 4 1 4 1 Z " fill="#A9A9A9" transform="translate(77,116)"/>
<path d="M0 0 C0 3 0 3 0 3 Z " fill="#6A6A6A" transform="translate(563,95)"/>
<path d="M0 0 C4 1 4 1 4 1 Z " fill="#9F9F9F" transform="translate(97,81)"/>
<path d="M0 0 C3 1 3 1 3 1 Z " fill="#C6C6C6" transform="translate(102,244)"/>
<path d="M0 0 C3 1 3 1 3 1 Z " fill="#9B9B9B" transform="translate(105,243)"/>
<path d="M0 0 C3 1 3 1 3 1 Z " fill="#717171" transform="translate(108,242)"/>
<path d="" fill="#A9A9A9" transform="translate(0,0)"/>
<path d="" fill="#A9A9A9" transform="translate(0,0)"/>
<path d="" fill="#545454" transform="translate(0,0)"/>
<path d="" fill="#545454" transform="translate(0,0)"/>
<path d="" fill="#545454" transform="translate(0,0)"/>
<path d="M0 0 C3 1 3 1 3 1 Z " fill="#71C6C6" transform="translate(81,209)"/>
<path d="M0 0 C3 1 3 1 3 1 Z " fill="#63B8B8" transform="translate(84,208)"/>
<path d="" fill="#A9A9A9" transform="translate(0,0)"/>
<path d="" fill="#545454" transform="translate(0,0)"/>
<path d="" fill="#A9A9A9" transform="translate(0,0)"/>
<path d="" fill="#54A9A9" transform="translate(0,0)"/>
<path d="" fill="#717171" transform="translate(0,0)"/>
<path d="" fill="#A9A9A9" transform="translate(0,0)"/>
<path d="" fill="#7F7F7F" transform="translate(0,0)"/>
<path d="" fill="#545454" transform="translate(0,0)"/>
<path d="" fill="#545454" transform="translate(0,0)"/>
<path d="" fill="#A9A9A9" transform="translate(0,0)"/>
<path d="" fill="#636363" transform="translate(0,0)"/>
<path d="" fill="#7F7F7F" transform="translate(0,0)"/>
<path d="" fill="#8D8D8D" transform="translate(0,0)"/>
<path d="" fill="#717171" transform="translate(0,0)"/>
<path d="" fill="#A9A9A9" transform="translate(0,0)"/>
<path d="" fill="#5454A9" transform="translate(0,0)"/>
<path d="" fill="#A9A9A9" transform="translate(0,0)"/>
<path d="" fill="#545454" transform="translate(0,0)"/>
<path d="" fill="#7F7F7F" transform="translate(0,0)"/>
<path d="" fill="#7F7F7F" transform="translate(0,0)"/>
<path d="" fill="#545454" transform="translate(0,0)"/>
<path d="" fill="#717171" transform="translate(0,0)"/>
<path d="" fill="#A9A9A9" transform="translate(0,0)"/>
<path d="" fill="#7F7F7F" transform="translate(0,0)"/>
<path d="" fill="#5454A9" transform="translate(0,0)"/>
<path d="" fill="#54A9A9" transform="translate(0,0)"/>
<path d="" fill="#A9A9A9" transform="translate(0,0)"/>
<path d="" fill="#545454" transform="translate(0,0)"/>
<path d="" fill="#545454" transform="translate(0,0)"/>
<path d="" fill="#A9A9A9" transform="translate(0,0)"/>
<path d="" fill="#A9A9A9" transform="translate(0,0)"/>
<path d="" fill="#A9A9A9" transform="translate(0,0)"/>
<path d="M0 0 C3 1 3 1 3 1 Z " fill="#D47FD4" transform="translate(84,118)"/>
<path d="M0 0 C3 1 3 1 3 1 Z " fill="#C6C6C6" transform="translate(81,117)"/>
<path d="M0 0 C3 1 3 1 3 1 Z " fill="#557171" transform="translate(108,84)"/>
<path d="M0 0 C3 1 3 1 3 1 Z " fill="#C6C6C6" transform="translate(105,83)"/>
<path d="M0 0 C3 1 3 1 3 1 Z " fill="#B8B8B8" transform="translate(102,82)"/>
<path d="" fill="#AAAAAA" transform="translate(0,0)"/>
<path d="M0 0 C2 1 2 1 2 1 Z " fill="#7F7F7F" transform="translate(111,241)"/>
<path d="M0 0 C2 1 2 1 2 1 Z " fill="#949494" transform="translate(113,240)"/>
<path d="M0 0 C2 1 2 1 2 1 Z " fill="#6A6A94" transform="translate(115,239)"/>
<path d="M0 0 C2 1 2 1 2 1 Z " fill="#7F7F7F" transform="translate(117,238)"/>
<path d="M0 0 C2 1 2 1 2 1 Z " fill="#6A9494" transform="translate(119,237)"/>
<path d="" fill="#AAAAAA" transform="translate(0,0)"/>
<path d="" fill="#AAAAAA" transform="translate(0,0)"/>
<path d="M0 0 C2 1 2 1 2 1 Z " fill="#555555" transform="translate(121,236)"/>
<path d="M0 0 C2 1 2 1 2 1 Z " fill="#D4D4D4" transform="translate(124,234)"/>
<path d="" fill="#7F7FAA" transform="translate(0,0)"/>
<path d="" fill="#7F7F7F" transform="translate(0,0)"/>
<path d="" fill="#6A6A6A" transform="translate(0,0)"/>
<path d="" fill="#7F7F7F" transform="translate(0,0)"/>
<path d="" fill="#7F7F7F" transform="translate(0,0)"/>
<path d="" fill="#AAAAAA" transform="translate(0,0)"/>
<path d="" fill="#AAAAAA" transform="translate(0,0)"/>
<path d="M0 0 C2 1 2 1 2 1 Z " fill="#949494" transform="translate(87,207)"/>
<path d="M0 0 C2 1 2 1 2 1 Z " fill="#949494" transform="translate(89,206)"/>
<path d="M0 0 C2 1 2 1 2 1 Z " fill="#6A6A6A" transform="translate(91,205)"/>
<path d="" fill="#AAAAAA" transform="translate(0,0)"/>
<path d="" fill="#7F7F7F" transform="translate(0,0)"/>
<path d="M0 0 C2 1 2 1 2 1 Z " fill="#D4D4D4" transform="translate(94,203)"/>
<path d="" fill="#7F7F7F" transform="translate(0,0)"/>
<path d="" fill="#7F7F7F" transform="translate(0,0)"/>
<path d="" fill="#7FAAAA" transform="translate(0,0)"/>
<path d="" fill="#6A6A6A" transform="translate(0,0)"/>
<path d="" fill="#7F7F7F" transform="translate(0,0)"/>
<path d="" fill="#6A6A94" transform="translate(0,0)"/>
<path d="" fill="#7F7F7F" transform="translate(0,0)"/>
<path d="" fill="#949494" transform="translate(0,0)"/>
<path d="" fill="#AAAAAA" transform="translate(0,0)"/>
<path d="" fill="#6A6A94" transform="translate(0,0)"/>
<path d="" fill="#AAAAAA" transform="translate(0,0)"/>
<path d="" fill="#6A6A94" transform="translate(0,0)"/>
<path d="" fill="#7F7F7F" transform="translate(0,0)"/>
<path d="" fill="#AAAAAA" transform="translate(0,0)"/>
<path d="" fill="#949494" transform="translate(0,0)"/>
<path d="" fill="#6A6A6A" transform="translate(0,0)"/>
<path d="" fill="#949494" transform="translate(0,0)"/>
<path d="" fill="#AAAAAA" transform="translate(0,0)"/>
<path d="" fill="#7F7F7F" transform="translate(0,0)"/>
<path d="" fill="#AAAAAA" transform="translate(0,0)"/>
<path d="" fill="#6A9494" transform="translate(0,0)"/>
<path d="" fill="#949494" transform="translate(0,0)"/>
<path d="" fill="#6A6A6A" transform="translate(0,0)"/>
<path d="" fill="#6A6A6A" transform="translate(0,0)"/>
<path d="" fill="#AAAAAA" transform="translate(0,0)"/>
<path d="" fill="#949494" transform="translate(0,0)"/>
<path d="" fill="#6A6A94" transform="translate(0,0)"/>
<path d="" fill="#AAAAAA" transform="translate(0,0)"/>
<path d="" fill="#AAAAAA" transform="translate(0,0)"/>
<path d="" fill="#6A6A6A" transform="translate(0,0)"/>
<path d="" fill="#AAAAAA" transform="translate(0,0)"/>
<path d="" fill="#AAAAAA" transform="translate(0,0)"/>
<path d="" fill="#6A6A6A" transform="translate(0,0)"/>
<path d="" fill="#949494" transform="translate(0,0)"/>
<path d="" fill="#949494" transform="translate(0,0)"/>
<path d="M0 0 C2 1 2 1 2 1 Z " fill="#D4D4D4" transform="translate(94,123)"/>
<path d="" fill="#7F7F7F" transform="translate(0,0)"/>
<path d="" fill="#BFBFBF" transform="translate(0,0)"/>
<path d="M0 0 C2 1 2 1 2 1 Z " fill="#7F7F7F" transform="translate(91,121)"/>
<path d="" fill="#949494" transform="translate(0,0)"/>
<path d="M0 0 C2 1 2 1 2 1 Z " fill="#949494" transform="translate(89,120)"/>
<path d="M0 0 C2 1 2 1 2 1 Z " fill="#7F7F7F" transform="translate(87,119)"/>
<path d="" fill="#949494" transform="translate(0,0)"/>
<path d="M0 0 C2 1 2 1 2 1 Z " fill="#BFBFBF" transform="translate(128,95)"/>
<path d="M0 0 C2 1 2 1 2 1 Z " fill="#555555" transform="translate(124,92)"/>
<path d="M0 0 C2 1 2 1 2 1 Z " fill="#3F3F3F" transform="translate(121,90)"/>
<path d="M0 0 C2 1 2 1 2 1 Z " fill="#D4D4D4" transform="translate(119,89)"/>
<path d="M0 0 C2 1 2 1 2 1 Z " fill="#949494" transform="translate(117,88)"/>
<path d="M0 0 C2 1 2 1 2 1 Z " fill="#949494" transform="translate(115,87)"/>
<path d="M0 0 C2 1 2 1 2 1 Z " fill="#949494" transform="translate(113,86)"/>
<path d="M0 0 C2 1 2 1 2 1 Z " fill="#BFBFBF" transform="translate(111,85)"/>
<path d="" fill="#555555" transform="translate(0,0)"/>
<path d="" fill="#AAAAAA" transform="translate(0,0)"/>
<path d="" fill="#AAAAAA" transform="translate(0,0)"/>
<path d="" fill="#AAAAAA" transform="translate(0,0)"/>
<path d="" fill="#7F7F7F" transform="translate(0,0)"/>
<path d="" fill="#AAAAAA" transform="translate(0,0)"/>
<path d="" fill="#7F7F7F" transform="translate(0,0)"/>
<path d="" fill="#7F7F7F" transform="translate(0,0)"/>
<path d="" fill="#7F7F7F" transform="translate(0,0)"/>
<path d="" fill="#7F7F7F" transform="translate(0,0)"/>
<path d="" fill="#7F7F7F" transform="translate(0,0)"/>
<path d="" fill="#7F7F7F" transform="translate(0,0)"/>
<path d="" fill="#7F7F7F" transform="translate(0,0)"/>
<path d="" fill="#AAAAAA" transform="translate(0,0)"/>
<path d="" fill="#7F7F7F" transform="translate(0,0)"/>
<path d="" fill="#7F7F7F" transform="translate(0,0)"/>
<path d="" fill="#7F7F7F" transform="translate(0,0)"/>
<path d="" fill="#AAAAAA" transform="translate(0,0)"/>
<path d="" fill="#7F7FBF" transform="translate(0,0)"/>
<path d="" fill="#7F7F7F" transform="translate(0,0)"/>
<path d="" fill="#AAAAAA" transform="translate(0,0)"/>
<path d="" fill="#5555AA" transform="translate(0,0)"/>
<path d="" fill="#55AAAA" transform="translate(0,0)"/>
<path d="" fill="#7F7F7F" transform="translate(0,0)"/>
<path d="" fill="#AAAAAA" transform="translate(0,0)"/>
<path d="" fill="#AAAAAA" transform="translate(0,0)"/>
<path d="" fill="#7F7F7F" transform="translate(0,0)"/>
<path d="" fill="#7F7F7F" transform="translate(0,0)"/>
<path d="" fill="#666666" transform="translate(0,0)"/>
<path d="" fill="#7F7F7F" transform="translate(0,0)"/>
<path d="" fill="#555555" transform="translate(0,0)"/>
<path d="" fill="#555555" transform="translate(0,0)"/>
<path d="" fill="#55AAAA" transform="translate(0,0)"/>
<path d="" fill="#AAAAAA" transform="translate(0,0)"/>
<path d="" fill="#7F7FBF" transform="translate(0,0)"/>
<path d="" fill="#AAAAAA" transform="translate(0,0)"/>
<path d="" fill="#7F7F7F" transform="translate(0,0)"/>
<path d="" fill="#AAAAAA" transform="translate(0,0)"/>
<path d="" fill="#AAAAAA" transform="translate(0,0)"/>
<path d="" fill="#AAAAAA" transform="translate(0,0)"/>
<path d="" fill="#7F7F7F" transform="translate(0,0)"/>
<path d="" fill="#7F7F7F" transform="translate(0,0)"/>
<path d="" fill="#AAAAAA" transform="translate(0,0)"/>
<path d="" fill="#7F7F7F" transform="translate(0,0)"/>
<path d="" fill="#AAAAAA" transform="translate(0,0)"/>
<path d="" fill="#7F7F7F" transform="translate(0,0)"/>
<path d="" fill="#7F7F7F" transform="translate(0,0)"/>
<path d="" fill="#7F7F7F" transform="translate(0,0)"/>
<path d="" fill="#5555AA" transform="translate(0,0)"/>
<path d="" fill="#7F7F7F" transform="translate(0,0)"/>
<path d="" fill="#55AAAA" transform="translate(0,0)"/>
<path d="" fill="#7F7F7F" transform="translate(0,0)"/>
<path d="" fill="#555555" transform="translate(0,0)"/>
<path d="" fill="#AAAAAA" transform="translate(0,0)"/>
<path d="" fill="#5555AA" transform="translate(0,0)"/>
<path d="" fill="#FFFFFF" transform="translate(0,0)"/>
<path d="" fill="#FFFFFF" transform="translate(0,0)"/>
<path d="" fill="#7F7F7F" transform="translate(0,0)"/>
<path d="" fill="#7F7F7F" transform="translate(0,0)"/>
</svg>
