<?xml version="1.0" encoding="UTF-8"?>
<!-- Generator: visioncortex VTracer 0.6.12 -->
<svg version="1.1" xmlns="http://www.w3.org/2000/svg" width="814" height="320">
<path d="M0 0 C3.425 0.006 6.85 0.002 10.274 -0.003 C23.041 -0.022 35.8 0.029 48.557 0.556 C49.01 0.574 49.01 0.574 51.302 0.666 C68.924 1.504 82.897 5.964 95.299 18.755 C108.59 34.04 107.763 55.842 107.78 74.951 C107.783 76.344 107.786 77.737 107.79 79.13 C107.796 82.033 107.798 84.936 107.797 87.838 C107.797 90.772 107.804 93.706 107.818 96.64 C108.074 152.635 108.074 152.635 91.479 170.416 C78.769 182.602 62.163 184.284 45.357 184.276 C44.865 184.277 44.865 184.277 42.377 184.286 C39.149 184.295 35.922 184.297 32.694 184.298 C30.431 184.302 28.168 184.305 25.905 184.308 C21.169 184.314 16.432 184.316 11.696 184.316 C5.658 184.316 -0.379 184.329 -6.416 184.346 C-11.089 184.358 -15.762 184.36 -20.436 184.359 C-22.66 184.36 -24.884 184.365 -27.108 184.372 C-48.394 184.44 -68.596 184.206 -85.076 168.88 C-99.952 153.005 -99.545 131.102 -99.556 110.619 C-99.559 109.156 -99.563 107.693 -99.566 106.23 C-99.572 103.182 -99.574 100.134 -99.573 97.086 C-99.573 93.999 -99.58 90.913 -99.594 87.827 C-99.837 32.036 -99.837 32.036 -83.513 14.88 C-62.496 -5.18 -26.717 -0.045 0 0 Z M-52.201 46.255 C-58.401 54.404 -57.833 63.991 -57.787 73.787 C-57.789 75.299 -57.792 76.812 -57.795 78.324 C-57.8 81.481 -57.793 84.638 -57.779 87.795 C-57.762 91.82 -57.772 95.843 -57.79 99.868 C-57.801 102.988 -57.797 106.107 -57.79 109.226 C-57.788 110.709 -57.79 112.192 -57.797 113.675 C-57.863 131.429 -57.863 131.429 -52.263 139.005 C-45.961 143.664 -38.998 144.578 -31.339 144.519 C-30.484 144.524 -29.63 144.529 -28.749 144.534 C-25.951 144.548 -23.154 144.539 -20.357 144.529 C-18.396 144.531 -16.435 144.534 -14.474 144.538 C-10.375 144.542 -6.277 144.536 -2.179 144.521 C3.057 144.504 8.291 144.514 13.526 144.532 C17.572 144.543 21.618 144.54 25.664 144.532 C27.594 144.53 29.523 144.532 31.453 144.539 C34.157 144.547 36.859 144.535 39.563 144.519 C39.956 144.522 39.956 144.522 41.944 144.537 C48.743 144.46 54.907 143.071 60.487 139.068 C66.519 130.729 66.059 120.74 66.01 110.849 C66.012 109.385 66.015 107.921 66.019 106.457 C66.023 103.405 66.017 100.352 66.003 97.3 C65.986 93.413 65.996 89.527 66.014 85.641 C66.025 82.622 66.021 79.604 66.013 76.586 C66.011 75.154 66.014 73.722 66.021 72.29 C66.092 53.803 66.092 53.803 60.424 46.193 C54.119 41.569 48.055 40.685 40.477 40.742 C40.039 40.74 40.039 40.74 37.823 40.726 C34.95 40.713 32.078 40.722 29.206 40.732 C27.196 40.73 25.186 40.727 23.177 40.723 C18.974 40.719 14.771 40.725 10.568 40.739 C5.195 40.756 -0.178 40.747 -5.551 40.729 C-9.698 40.718 -13.845 40.721 -17.992 40.729 C-19.973 40.731 -21.953 40.728 -23.934 40.721 C-26.707 40.714 -29.48 40.726 -32.253 40.742 C-33.063 40.736 -33.873 40.73 -34.707 40.724 C-41.362 40.797 -46.78 42.16 -52.201 46.255 Z " fill="#888D93" transform="translate(706.38818359375,67.86962890625)"/>
<path d="M0 0 C9.729 -0.047 19.457 -0.082 29.186 -0.104 C33.705 -0.114 38.225 -0.128 42.744 -0.151 C47.121 -0.173 51.497 -0.185 55.874 -0.19 C57.528 -0.193 59.183 -0.201 60.837 -0.211 C69.536 -0.267 78.106 -0.041 86.76 0.903 C87.493 0.983 88.226 1.062 88.981 1.145 C105.248 3.104 119.554 10.856 130.039 23.449 C141.401 38.848 143.148 57.716 140.695 76.31 C138.27 89.069 130.755 101.501 120.113 109.047 C118.2 110.257 116.271 111.441 114.32 112.59 C112 114 112 114 110 116 C125.068 144.513 125.068 144.513 132.938 158.312 C136.809 165.104 140.635 171.913 144.312 178.812 C144.692 179.519 145.072 180.225 145.463 180.952 C148 185.757 148 185.757 148 188 C133.48 188 118.96 188 104 188 C93.664 169.625 93.664 169.625 90.465 163.527 C90.097 162.831 89.729 162.134 89.35 161.417 C88.211 159.258 87.074 157.098 85.938 154.938 C85.179 153.499 84.421 152.061 83.662 150.623 C83.29 149.913 82.918 149.204 82.534 148.473 C81.782 147.056 81.017 145.646 80.237 144.244 C78.317 140.753 76.766 137.468 75.645 133.637 C72.968 125.514 72.968 125.514 69 123 C59.896 120.835 50.275 121.445 41 122 C41.002 122.812 41.004 123.624 41.007 124.461 C41.027 132.098 41.042 139.736 41.052 147.373 C41.057 151.3 41.064 155.227 41.075 159.154 C41.086 162.94 41.092 166.727 41.095 170.513 C41.097 171.961 41.1 173.409 41.106 174.857 C41.113 176.878 41.113 178.899 41.114 180.92 C41.116 182.072 41.118 183.225 41.12 184.412 C41 187 41 187 40 188 C37.127 188.101 34.279 188.14 31.406 188.133 C30.544 188.134 29.683 188.135 28.795 188.136 C26.969 188.136 25.143 188.135 23.317 188.13 C20.512 188.125 17.707 188.13 14.902 188.137 C13.133 188.136 11.363 188.135 9.594 188.133 C8.749 188.135 7.904 188.137 7.034 188.139 C1.115 188.115 1.115 188.115 0 187 C-0.098 184.584 -0.13 182.197 -0.12 179.781 C-0.121 179.016 -0.122 178.252 -0.123 177.464 C-0.125 174.883 -0.119 172.302 -0.114 169.72 C-0.113 167.878 -0.113 166.035 -0.114 164.193 C-0.114 159.175 -0.108 154.156 -0.101 149.138 C-0.095 143.899 -0.095 138.661 -0.093 133.423 C-0.09 123.496 -0.082 113.568 -0.072 103.641 C-0.061 92.343 -0.055 81.044 -0.05 69.746 C-0.04 46.497 -0.022 23.249 0 0 Z M41 34 C41 52.15 41 70.3 41 89 C46.383 89.062 51.766 89.124 57.312 89.188 C58.987 89.215 60.662 89.242 62.388 89.27 C72.962 89.37 83.476 89.103 92 82 C97.849 76.014 100.116 70.465 100.438 62.188 C100.154 53.542 98.164 46.585 91.812 40.5 C85.302 34.798 77.412 33.536 69.027 33.707 C68.309 33.71 67.591 33.713 66.851 33.716 C64.213 33.732 61.575 33.774 58.938 33.812 C53.018 33.874 47.099 33.936 41 34 Z " fill="#888D93" transform="translate(356,66)"/>
<path d="M0 0 C8.781 -0.047 17.563 -0.082 26.344 -0.104 C30.424 -0.114 34.504 -0.128 38.584 -0.151 C106.386 -0.522 106.386 -0.522 131 22 C131.682 22.59 132.364 23.181 133.066 23.789 C148.781 38.243 157.199 61.148 158.14 82.122 C159.001 113.001 155.195 140.897 133.312 164.25 C111.24 185.2 82.763 188.179 53.574 188.133 C52.05 188.133 50.525 188.134 49 188.136 C45.84 188.137 42.679 188.135 39.519 188.13 C35.461 188.125 31.404 188.128 27.346 188.134 C24.214 188.138 21.082 188.136 17.95 188.134 C16.452 188.133 14.954 188.134 13.456 188.136 C11.379 188.139 9.302 188.135 7.225 188.129 C6.044 188.129 4.863 188.128 3.646 188.127 C1 188 1 188 0 187 C-0.098 184.584 -0.13 182.197 -0.12 179.781 C-0.121 179.016 -0.122 178.252 -0.123 177.464 C-0.125 174.883 -0.119 172.302 -0.114 169.72 C-0.113 167.878 -0.113 166.035 -0.114 164.193 C-0.114 159.175 -0.108 154.156 -0.101 149.138 C-0.095 143.899 -0.095 138.661 -0.093 133.423 C-0.09 123.496 -0.082 113.568 -0.072 103.641 C-0.061 92.343 -0.055 81.044 -0.05 69.746 C-0.04 46.497 -0.022 23.249 0 0 Z M41 35 C41 73.94 41 112.88 41 153 C90.41 153 90.41 153 104.965 139.215 C118.498 124.486 118.609 103.761 118.141 84.909 C117.381 69.204 112.226 55.663 100.812 44.75 C84.377 31.513 60.018 35 41 35 Z " fill="#888D93" transform="translate(180,66)"/>
<path d="M0 0 C13.2 0 26.4 0 40 0 C40 25.41 40 50.82 40 77 C66.07 77 92.14 77 119 77 C119 51.59 119 26.18 119 0 C132.2 0 145.4 0 159 0 C159 62.04 159 124.08 159 188 C145.8 188 132.6 188 119 188 C119 162.59 119 137.18 119 111 C92.93 111 66.86 111 40 111 C40 136.41 40 161.82 40 188 C26.8 188 13.6 188 0 188 C0 125.96 0 63.92 0 0 Z " fill="#888D93" transform="translate(0,66)"/>
<path d="M0 0 C18.003 0 36.004 0.486 54 1 C54 62.05 54 123.1 54 186 C39.48 186 24.96 186 10 186 C10 137.82 10 89.64 10 40 C6.7 40 3.4 40 0 40 C0 26.8 0 13.6 0 0 Z " fill="#888D93" transform="translate(535,67)"/>
</svg>
