<?xml version="1.0" encoding="UTF-8"?>
<!-- Generator: visioncortex VTracer 0.6.12 -->
<svg version="1.1" xmlns="http://www.w3.org/2000/svg" width="884" height="320">
<path d="M0 0 C19.47 0 38.94 0 59 0 C61.289 5.34 62.438 8.493 63 14 C63.66 14 64.32 14 65 14 C67.227 18.744 68.461 22.723 69 28 C69.66 28 70.32 28 71 28 C74.429 35.286 74.429 35.286 74 40 C74.66 40 75.32 40 76 40 C76.165 41.155 76.165 41.155 77 47 C77.66 47 78.32 47 79 47 C79.165 48.155 79.165 48.155 80 54 C80.66 54 81.32 54 82 54 C84.227 58.744 85.461 62.723 86 68 C86.66 68 87.32 68 88 68 C88 69.65 88 71.3 88 73 C88.66 73 89.32 73 90 73 C91.32 75.97 92.64 78.94 94 82 C96.325 79.147 97.751 76.459 99 73 C99.66 73 100.32 73 101 73 C101.33 70.69 101.66 68.38 102 66 C102.66 66 103.32 66 104 66 C104.33 63.69 104.66 61.38 105 59 C105.66 59 106.32 59 107 59 C107.33 56.69 107.66 54.38 108 52 C108.66 52 109.32 52 110 52 C110.33 49.69 110.66 47.38 111 45 C111.66 45 112.32 45 113 45 C113.102 43.998 113.204 42.997 113.309 41.965 C113.899 37.834 115.341 34.338 117.062 30.562 C117.203 30.244 117.203 30.244 117.916 28.635 C118.603 27.086 119.3 25.543 120 24 C120.66 24 121.32 24 122 24 C122.103 22.989 122.206 21.979 122.312 20.938 C123.037 16.788 124.223 13.786 126 10 C126.66 10 127.32 10 128 10 C128.11 9.362 128.219 8.724 128.332 8.066 C128.491 7.24 128.649 6.414 128.812 5.562 C128.888 5.151 128.888 5.151 129.27 3.066 C129.511 2.384 129.752 1.703 130 1 C148.66 -5.22 169.331 0 189 0 C189 56.1 189 112.2 189 170 C175.14 170 161.28 170 147 170 C146.67 131.72 146.34 93.44 146 54 C146 92.28 146 130.56 146 170 C145.67 170 145.34 170 145 170 C144.67 133.37 144.34 96.74 144 59 C143 61 143 61 142.625 63.188 C141.84 66.719 140.487 69.704 139 73 C138.34 73 137.68 73 137 73 C136.948 73.505 136.948 73.505 136.688 76.062 C135.963 80.212 134.777 83.214 133 87 C132.34 87 131.68 87 131 87 C130.876 88.052 130.753 89.104 130.625 90.188 C130.089 93.46 129.361 96.005 128 99 C127.34 99 126.68 99 126 99 C125.67 101.31 125.34 103.62 125 106 C124.34 106 123.68 106 123 106 C122.67 108.31 122.34 110.62 122 113 C121.34 113 120.68 113 120 113 C119.34 115.97 118.68 118.94 118 122 C117.34 122 116.68 122 116 122 C116 123.65 116 125.3 116 127 C115.34 127 114.68 127 114 127 C113.876 128.072 113.753 129.145 113.625 130.25 C113.092 133.447 112.502 135.241 111 138 C106.64 138.049 102.28 138.086 97.92 138.11 C96.437 138.12 94.954 138.134 93.471 138.151 C91.339 138.175 89.207 138.186 87.074 138.195 C86.433 138.201 86.433 138.201 83.186 138.227 C80 138 80 138 77 136 C76.812 133.375 76.812 133.375 77 131 C76.34 131 75.68 131 75 131 C74.835 129.845 74.835 129.845 74 124 C73.34 124 72.68 124 72 124 C71.835 122.845 71.835 122.845 71 117 C70.34 117 69.68 117 69 117 C66.773 112.256 65.539 108.277 65 103 C64.34 103 63.68 103 63 103 C62.835 101.845 62.835 101.845 62 96 C61.34 96 60.68 96 60 96 C59.835 94.845 59.835 94.845 59 89 C58.34 89 57.68 89 57 89 C56.835 87.845 56.835 87.845 56 82 C55.34 82 54.68 82 54 82 C53.835 80.845 53.835 80.845 53 75 C52.34 75 51.68 75 51 75 C51 73.35 51 71.7 51 70 C50.34 70 49.68 70 49 70 C47.68 67.03 46.36 64.06 45 61 C44.67 96.97 44.34 132.94 44 170 C43.67 170 43.34 170 43 170 C43 131.06 43 92.12 43 52 C42.67 90.94 42.34 129.88 42 170 C28.14 170 14.28 170 0 170 C0 113.9 0 57.8 0 0 Z M130 3 C131 5 131 5 131 5 Z M59 5 C60 7 60 7 60 7 Z M126 13 C127 15 127 15 127 15 Z M124 17 C125 19 125 19 125 19 Z M65 19 C66 21 66 21 66 21 Z M123 20 C124 22 124 22 124 22 Z M120 27 C121 29 121 29 121 29 Z M71 33 C72 35 72 35 72 35 Z M117 34 C118 36 118 36 118 36 Z M72 36 C73 38 73 38 73 38 Z M116 36 C117 38 117 38 117 38 Z M114 41 C115 43 115 43 115 43 Z M75 43 C76 45 76 45 76 45 Z M111 48 C112 50 112 50 112 50 Z M78 50 C79 52 79 52 79 52 Z M44 54 C45 56 45 56 45 56 Z M108 55 C109 57 109 57 109 57 Z M45 56 C46 58 46 58 46 58 Z M81 57 C82 59 82 59 82 59 Z M47 61 C48 63 48 63 48 63 Z M83 61 C84 63 84 63 84 63 Z M105 62 C106 64 106 64 106 64 Z M48 63 C49 65 49 65 49 65 Z M140 64 C141 66 141 66 141 66 Z M102 69 C103 71 103 71 103 71 Z M99 76 C100 78 100 78 100 78 Z M98 78 C99 80 99 80 99 80 Z M134 78 C135 80 135 80 135 80 Z M91 80 C92 82 92 82 92 82 Z M96 83 C97 85 97 85 97 85 Z M93 85 C94 87 94 87 94 87 Z M128 92 C129 94 129 94 129 94 Z M69 112 C70 114 70 114 70 114 Z M72 119 C73 121 73 121 73 121 Z M75 126 C76 128 76 128 76 128 Z M112 129 C113 131 113 131 113 131 Z M111 132 C112 134 112 134 112 134 Z M78 133 C79 135 79 135 79 135 Z " fill="#878C93" transform="translate(695,75)"/>
<path d="M0 0 C18.48 0 36.96 0 56 0 C57.32 3.3 58.64 6.6 60 10 C60.66 10 61.32 10 62 10 C62 11.98 62 13.96 62 16 C62.66 16 63.32 16 64 16 C64.072 16.382 64.072 16.382 64.438 18.312 C65 21 65 21 66 24 C66.165 24.495 66.165 24.495 67 27 C68 29 68 29 70 32 C70.125 34.688 70.125 34.688 70 37 C70.66 37 71.32 37 72 37 C72 38.98 72 40.96 72 43 C72.66 43 73.32 43 74 43 C74.144 43.763 74.289 44.526 74.438 45.312 C75.133 48.637 75.566 50.566 78 53 C78.598 55.094 78.598 55.094 79.062 57.5 C79.827 61.39 80.766 63.649 83 67 C83.125 69.688 83.125 69.688 83 72 C83.66 72 84.32 72 85 72 C85 73.98 85 75.96 85 78 C85.66 78 86.32 78 87 78 C87.33 80.64 87.66 83.28 88 86 C88.66 86 89.32 86 90 86 C90 87.65 90 89.3 90 91 C90.66 91 91.32 91 92 91 C92.33 93.64 92.66 96.28 93 99 C93.66 99 94.32 99 95 99 C95.33 101.64 95.66 104.28 96 107 C96.66 107 97.32 107 98 107 C98 108.98 98 110.96 98 113 C98.66 113 99.32 113 100 113 C100.072 113.382 100.072 113.382 100.438 115.312 C101 118 101 118 102 121 C102.33 121.99 102.66 122.98 103 124 C104 126 104 126 106 129 C106.125 131.688 106.125 131.688 106 134 C106.66 134 107.32 134 108 134 C110.04 138.93 111.407 142.58 111 148 C111.66 148 112.32 148 113 148 C113.072 148.382 113.072 148.382 113.438 150.312 C114 153 114 153 115 156 C115.33 156.99 115.66 157.98 116 159 C117 161 117 161 119 164 C119 165.98 119 167.96 119 170 C103.16 170 87.32 170 71 170 C70.67 167.03 70.34 164.06 70 161 C69.34 161 68.68 161 68 161 C66.198 157.17 65.804 154.219 66 150 C65.34 150 64.68 150 64 150 C63.67 148.515 63.67 148.515 62 141 C40.55 141.33 19.1 141.66 -3 142 C-3.99 144.64 -4.98 147.28 -6 150 C-6.66 150 -7.32 150 -8 150 C-8.33 152.97 -8.66 155.94 -9 159 C-9.66 159 -10.32 159 -11 159 C-11.309 160.258 -11.619 161.516 -11.938 162.812 C-12.54 165.262 -13.201 167.603 -14 170 C-29.18 170 -44.36 170 -60 170 C-60.33 168.02 -60.66 166.04 -61 164 C-60.34 164 -59.68 164 -59 164 C-59 162.35 -59 160.7 -59 159 C-58.34 159 -57.68 159 -57 159 C-57.041 158.051 -57.082 157.102 -57.125 156.125 C-57 153 -57 153 -55 151 C-54 148 -54 148 -53.562 145.688 C-52.936 142.695 -52.006 139.884 -51 137 C-50.34 137 -49.68 137 -49 137 C-48.835 135.68 -48.835 135.68 -48 129 C-47.34 129 -46.68 129 -46 129 C-46 127.35 -46 125.7 -46 124 C-45.34 124 -44.68 124 -44 124 C-44.041 123.051 -44.082 122.103 -44.125 121.125 C-44 118 -44 118 -42 116 C-41.835 115.505 -41.835 115.505 -41 113 C-40 110 -40 110 -39 108 C-38.835 107.505 -38.835 107.505 -38 105 C-37.34 104.01 -36.68 103.02 -36 102 C-35.586 99.957 -35.586 99.957 -35.375 97.812 C-35.313 97.183 -35.313 97.183 -35 94 C-34.34 94 -33.68 94 -33 94 C-33 92.35 -33 90.7 -33 89 C-32.34 89 -31.68 89 -31 89 C-30.67 86.36 -30.34 83.72 -30 81 C-29.34 81 -28.68 81 -28 81 C-28 79.02 -28 77.04 -28 75 C-27.34 75 -26.68 75 -26 75 C-25.67 72.36 -25.34 69.72 -25 67 C-24.34 67 -23.68 67 -23 67 C-23 65.35 -23 63.7 -23 62 C-22.34 62 -21.68 62 -21 62 C-21.041 61.051 -21.082 60.102 -21.125 59.125 C-21 56 -21 56 -19 54 C-18.109 51.326 -17.523 48.763 -17 46 C-16.34 46 -15.68 46 -15 46 C-15 44.02 -15 42.04 -15 40 C-14.34 40 -13.68 40 -13 40 C-12.67 37.36 -12.34 34.72 -12 32 C-11.34 32 -10.68 32 -10 32 C-10 30.35 -10 28.7 -10 27 C-9.34 27 -8.68 27 -8 27 C-8.041 26.051 -8.082 25.102 -8.125 24.125 C-8 21 -8 21 -6 19 C-5.835 18.505 -5.835 18.505 -5 16 C-4 13 -4 13 -2 11 C-1.367 9.16 -1.367 9.16 -0.875 7.062 C-0.707 6.373 -0.54 5.683 -0.367 4.973 C0 3 0 3 0 0 Z M63 19 C64 21 64 21 64 21 Z M-7 22 C-6 24 -6 24 -6 24 Z M68 32 C69 34 69 34 69 34 Z M-12 35 C-11 37 -11 37 -11 37 Z M29 43 C28.67 43.99 28.34 44.98 28 46 C28.66 46 29.32 46 30 46 C29.67 45.01 29.34 44.02 29 43 Z M27 47 C28 49 28 49 28 49 Z M28 48.625 C25.326 50.463 24.849 51.889 24 55 C24.021 56.031 24.041 57.062 24.062 58.125 C24.042 59.074 24.021 60.023 24 61 C23.513 61.464 23.025 61.928 22.523 62.406 C20.566 64.454 20.643 65.587 20.562 68.375 C20.225 72.846 18.799 74.502 16 78 C15.554 80.286 15.373 82.521 15.207 84.844 C14.951 87.512 14.256 89.636 13 92 C12.67 92.165 12.67 92.165 11 93 C10.326 97.112 10 100.83 10 105 C22.87 105 35.74 105 49 105 C49 98.225 48.608 95.818 46 90 C45.67 89.835 45.67 89.835 44 89 C42.498 86.08 41.996 84.182 42.062 80.875 C42.042 79.926 42.021 78.977 42 78 C41.758 77.768 41.758 77.768 40.531 76.594 C38.579 74.561 38.584 73.401 38.438 70.625 C38.148 67.075 37.698 64.196 36 61 C35.34 60.67 34.68 60.34 34 60 C32.067 56.241 31.805 53.191 32 49 C30 48 30 48 28 48.625 Z M32 52 C33 54 33 54 33 54 Z M76 54 C77 56 77 56 77 56 Z M33 55 C34 57 34 57 34 57 Z M-20 57 C-19 59 -19 59 -19 59 Z M34 58 C35 60 35 60 35 60 Z M78 59 C79 61 79 61 79 61 Z M81 67 C82 69 82 69 82 69 Z M-25 70 C-24 72 -24 72 -24 72 Z M19 70 C20 72 20 72 20 72 Z M18 73 C19 75 19 75 19 75 Z M42 81 C43 83 43 83 43 83 Z M43 84 C44 86 44 86 44 86 Z M44 87 C45 89 45 89 45 89 Z M91 94 C92 96 92 96 92 96 Z M-35 97 C-34 99 -34 99 -34 99 Z M9 99 C10 101 10 101 10 101 Z M8 102 C9 104 9 104 9 104 Z M94 102 C95 104 95 104 95 104 Z M7 106 C7 106.33 7 106.66 7 107 C21.52 107 36.04 107 51 107 C51 106.67 51 106.34 51 106 C36.48 106 21.96 106 7 106 Z M99 116 C100 118 100 118 100 118 Z M-43 119 C-42 121 -42 121 -42 121 Z M104 129 C105 131 105 131 105 131 Z M-48 132 C-47 134 -47 134 -47 134 Z M107 137 C108 139 108 139 108 139 Z M-5 139 C-5 139.33 -5 139.66 -5 140 C17.44 140 39.88 140 63 140 C63 139.67 63 139.34 63 139 C40.56 139 18.12 139 -5 139 Z M-51 140 C-50 142 -50 142 -50 142 Z M108 140 C109 142 109 142 109 142 Z M-6 142 C-5 144 -5 144 -5 144 Z M-52 143 C-51 145 -51 145 -51 145 Z M-7 145 C-6 147 -6 147 -6 147 Z M112 151 C113 153 113 153 113 153 Z M67 153 C68 155 68 155 68 155 Z M-56 154 C-55 156 -55 156 -55 156 Z M68 156 C69 158 69 158 69 158 Z M117 164 C118 166 118 166 118 166 Z " fill="#878C92" transform="translate(555,75)"/>
<path d="M0 0 C0.68 0.001 1.361 0.001 2.062 0.002 C18.099 0.06 31.616 3.068 46.422 9.008 C49.532 10.239 52.702 11.317 55.875 12.375 C55.875 24.255 55.875 36.135 55.875 48.375 C49.147 47.254 49.147 47.254 46.098 45.449 C45.762 45.258 45.762 45.258 44.064 44.289 C43.363 43.884 42.661 43.48 41.938 43.062 C31.578 37.336 20.797 33.903 8.875 33.375 C8.175 33.335 7.475 33.295 6.754 33.254 C-5.552 32.881 -17.324 35.725 -27.125 43.375 C-28.25 45.437 -28.25 45.437 -29.125 47.375 C-29.785 47.849 -30.445 48.324 -31.125 48.812 C-33.642 50.779 -34.009 52.399 -35.125 55.375 C-35.948 57.234 -36.781 59.088 -37.625 60.938 C-38.048 61.867 -38.471 62.796 -38.906 63.754 C-39.624 65.298 -40.365 66.832 -41.156 68.34 C-44.421 75.198 -44.364 81.273 -44.25 88.75 C-44.241 89.868 -44.232 90.985 -44.223 92.137 C-44.199 94.883 -44.166 97.629 -44.125 100.375 C-43.465 100.375 -42.805 100.375 -42.125 100.375 C-41.96 102.52 -41.96 102.52 -41.125 113.375 C-40.465 113.375 -39.805 113.375 -39.125 113.375 C-34.125 123.375 -34.125 123.375 -33.109 125.547 C-31.613 128.325 -29.398 130.21 -27.125 132.375 C-26.527 133.056 -25.929 133.736 -25.312 134.438 C-16.192 142.516 -2.869 144.062 8.875 143.375 C22.766 142.061 34.027 138.195 46.089 131.373 C46.782 130.987 47.474 130.601 48.188 130.203 C48.802 129.852 49.417 129.5 50.051 129.138 C51.875 128.375 51.875 128.375 55.875 128.375 C55.875 140.255 55.875 152.135 55.875 164.375 C36.532 171.629 21.146 176.803 0.688 176.688 C0.001 176.685 -0.685 176.683 -1.391 176.681 C-20.849 176.583 -37.946 172.652 -55.125 163.375 C-55.785 163.045 -56.445 162.715 -57.125 162.375 C-57.744 161.715 -58.363 161.055 -59 160.375 C-61.125 158.375 -61.125 158.375 -63.25 157.875 C-63.869 157.71 -64.488 157.545 -65.125 157.375 C-65.81 156.051 -66.474 154.716 -67.125 153.375 C-69.686 151.142 -72.298 149.26 -75.125 147.375 C-75.455 146.385 -75.785 145.395 -76.125 144.375 C-76.434 144.066 -76.434 144.066 -78 142.5 C-82.074 138.426 -83.253 134.98 -84.125 129.375 C-84.785 128.715 -85.445 128.055 -86.125 127.375 C-94.462 102.365 -94.464 74.393 -86.125 49.375 C-85.63 48.777 -85.135 48.179 -84.625 47.562 C-83.125 45.375 -83.125 45.375 -82.75 42.562 C-81.929 38.374 -79.931 35.549 -77.125 32.375 C-76.465 32.045 -75.805 31.715 -75.125 31.375 C-74.836 30.736 -74.548 30.096 -74.25 29.438 C-73.125 27.375 -73.125 27.375 -71.34 26.492 C-68.674 25.148 -66.77 23.443 -64.562 21.438 C-63.798 20.748 -63.034 20.058 -62.246 19.348 C-60.973 18.164 -59.726 16.95 -58.535 15.684 C-57.125 14.375 -57.125 14.375 -54.125 13.375 C-51.995 12.281 -49.871 11.175 -47.75 10.062 C-32.506 2.298 -16.983 -0.023 0 0 Z M-41.125 61.375 C-40.125 63.375 -40.125 63.375 -40.125 63.375 Z M-42.125 64.375 C-41.125 66.375 -41.125 66.375 -41.125 66.375 Z M-43.125 106.375 C-42.125 109.375 -42.125 109.375 -42.125 109.375 Z " fill="#888D93" transform="translate(426.125,71.625)"/>
<path d="M0 0 C1.358 -0.004 2.715 -0.009 4.073 -0.016 C7.74 -0.03 11.407 -0.024 15.075 -0.015 C18.924 -0.007 22.773 -0.014 26.623 -0.019 C33.085 -0.024 39.548 -0.017 46.01 -0.003 C53.468 0.013 60.925 0.008 68.382 -0.008 C74.8 -0.022 81.218 -0.024 87.636 -0.016 C91.463 -0.011 95.289 -0.011 99.115 -0.021 C102.714 -0.029 106.312 -0.023 109.911 -0.006 C111.851 -0 113.791 -0.009 115.731 -0.018 C125.149 0.05 131.739 1.127 138.709 7.951 C143.125 12.233 143.125 12.233 145.619 13.392 C148.117 14.744 148.589 16.165 149.646 18.763 C149.97 19.534 150.294 20.305 150.627 21.099 C152.093 25.131 152.587 28.581 152.606 32.882 C152.61 33.441 152.61 33.441 152.628 36.267 C152.631 37.489 152.633 38.71 152.636 39.969 C152.643 41.258 152.649 42.548 152.656 43.877 C152.677 48.153 152.687 52.429 152.697 56.705 C152.701 58.18 152.705 59.656 152.71 61.132 C152.729 68.069 152.743 75.007 152.751 81.944 C152.761 89.932 152.787 97.919 152.828 105.907 C152.858 112.093 152.873 118.279 152.876 124.465 C152.878 128.154 152.887 131.843 152.912 135.531 C152.94 139.655 152.936 143.778 152.929 147.902 C152.935 148.506 152.935 148.506 152.968 151.56 C152.921 159.292 152.345 168.061 146.918 174.104 C146.437 174.528 145.955 174.951 145.459 175.388 C145.21 175.618 145.21 175.618 143.951 176.783 C136.417 183.389 130.03 188.492 119.762 188.535 C119.181 188.539 119.181 188.539 116.24 188.557 C114.969 188.56 113.698 188.562 112.388 188.565 C111.033 188.571 109.677 188.578 108.322 188.585 C103.874 188.606 99.426 188.616 94.979 188.626 C93.445 188.631 91.911 188.635 90.377 188.639 C83.168 188.658 75.959 188.672 68.751 188.68 C60.443 188.69 52.136 188.716 43.828 188.757 C37.398 188.787 30.969 188.802 24.539 188.805 C20.703 188.808 16.867 188.816 13.031 188.842 C9.418 188.865 5.806 188.869 2.194 188.859 C0.247 188.858 -1.699 188.877 -3.645 188.897 C-12.798 188.843 -20.121 187.308 -26.854 180.763 C-30.223 177.528 -30.223 177.528 -32.584 176.49 C-35.346 174.935 -36.139 173.215 -37.541 170.388 C-37.921 167.416 -37.921 167.416 -37.929 164.057 C-37.939 162.78 -37.949 161.502 -37.959 160.187 C-37.954 158.779 -37.95 157.371 -37.945 155.963 C-37.951 154.474 -37.958 152.986 -37.966 151.497 C-37.984 147.46 -37.983 143.423 -37.977 139.386 C-37.974 136.013 -37.98 132.641 -37.986 129.269 C-38 121.312 -37.998 113.356 -37.987 105.399 C-37.976 97.195 -37.99 88.991 -38.016 80.787 C-38.039 73.739 -38.045 66.691 -38.039 59.642 C-38.036 55.435 -38.038 51.227 -38.056 47.02 C-38.071 43.062 -38.067 39.106 -38.048 35.148 C-38.045 33.698 -38.048 32.248 -38.058 30.797 C-38.071 28.814 -38.057 26.83 -38.042 24.847 C-38.042 23.738 -38.042 22.629 -38.042 21.486 C-37.419 17.632 -35.934 15.437 -33.541 12.388 C-31.525 11.228 -31.525 11.228 -29.541 10.388 C-27.605 8.7 -25.772 6.933 -23.932 5.142 C-16.527 -0.291 -8.835 -0.043 0 0 Z M-18.541 21.388 C-20.142 25.428 -20.792 28.825 -20.795 33.156 C-20.801 34.284 -20.806 35.411 -20.812 36.572 C-20.808 37.794 -20.804 39.016 -20.8 40.275 C-20.803 41.573 -20.807 42.871 -20.81 44.209 C-20.82 47.758 -20.816 51.308 -20.81 54.857 C-20.805 58.578 -20.809 62.299 -20.812 66.02 C-20.816 72.267 -20.811 78.515 -20.802 84.762 C-20.791 91.977 -20.794 99.193 -20.805 106.408 C-20.814 112.611 -20.816 118.814 -20.811 125.017 C-20.807 128.719 -20.807 132.42 -20.814 136.121 C-20.82 140.248 -20.811 144.375 -20.8 148.501 C-20.804 149.723 -20.808 150.945 -20.812 152.204 C-20.806 153.332 -20.801 154.459 -20.795 155.62 C-20.794 156.595 -20.793 157.57 -20.793 158.574 C-20.448 162.423 -19.63 165.988 -17.229 169.076 C-13.12 172.271 -10.151 173.763 -4.893 173.776 C-3.767 173.786 -2.642 173.796 -1.482 173.806 C-0.256 173.801 0.969 173.797 2.232 173.792 C3.53 173.799 4.828 173.806 6.166 173.813 C9.72 173.831 13.273 173.83 16.827 173.824 C19.797 173.821 22.766 173.827 25.736 173.833 C32.743 173.847 39.75 173.846 46.758 173.834 C53.98 173.823 61.203 173.837 68.425 173.864 C74.633 173.886 80.84 173.892 87.047 173.887 C90.752 173.883 94.457 173.886 98.161 173.903 C102.293 173.921 106.424 173.907 110.556 173.89 C111.78 173.9 113.004 173.909 114.264 173.919 C120.591 173.864 124.726 173.79 129.459 169.388 C134.224 162.24 133.747 154.16 133.718 145.873 C133.721 144.638 133.725 143.402 133.728 142.13 C133.736 138.762 133.734 135.394 133.728 132.026 C133.723 128.489 133.727 124.951 133.73 121.413 C133.734 115.472 133.729 109.532 133.72 103.592 C133.709 96.742 133.712 89.893 133.723 83.043 C133.732 77.144 133.734 71.245 133.729 65.346 C133.725 61.831 133.725 58.316 133.732 54.8 C133.738 50.878 133.729 46.955 133.718 43.033 C133.72 42.457 133.72 42.457 133.73 39.542 C133.648 23.946 133.648 23.946 130.073 19.77 C125.99 16.275 123.401 15.263 118.158 15.254 C117.034 15.25 115.909 15.246 114.751 15.242 C113.511 15.242 112.272 15.242 110.995 15.243 C109.694 15.24 108.393 15.236 107.053 15.233 C103.478 15.224 99.904 15.222 96.329 15.221 C93.347 15.22 90.365 15.216 87.383 15.213 C80.348 15.205 73.312 15.202 66.277 15.203 C59.016 15.203 51.756 15.193 44.495 15.177 C38.265 15.164 32.035 15.159 25.804 15.159 C22.082 15.16 18.36 15.157 14.637 15.146 C10.485 15.135 6.334 15.139 2.182 15.145 C0.947 15.14 -0.289 15.134 -1.562 15.128 C-2.692 15.132 -3.822 15.137 -4.986 15.141 C-5.968 15.14 -6.95 15.14 -7.962 15.139 C-12.694 15.596 -15.54 17.787 -18.541 21.388 Z M148.459 20.388 C149.459 22.388 149.459 22.388 149.459 22.388 Z M149.459 23.388 C150.459 27.388 150.459 27.388 150.459 27.388 Z M-22.541 27.388 C-22.541 71.608 -22.541 115.828 -22.541 161.388 C-22.211 161.388 -21.881 161.388 -21.541 161.388 C-21.541 117.168 -21.541 72.948 -21.541 27.388 C-21.871 27.388 -22.201 27.388 -22.541 27.388 Z M133.459 28.388 C134.459 30.388 134.459 30.388 134.459 30.388 Z M150.459 28.388 C150.459 71.948 150.459 115.508 150.459 160.388 C150.789 160.388 151.119 160.388 151.459 160.388 C151.459 116.828 151.459 73.268 151.459 28.388 C151.129 28.388 150.799 28.388 150.459 28.388 Z M134.459 31.388 C134.459 72.968 134.459 114.548 134.459 157.388 C134.789 157.388 135.119 157.388 135.459 157.388 C135.459 115.808 135.459 74.228 135.459 31.388 C135.129 31.388 134.799 31.388 134.459 31.388 Z M133.459 158.388 C134.459 160.388 134.459 160.388 134.459 160.388 Z M149.459 161.388 C150.459 165.388 150.459 165.388 150.459 165.388 Z M148.459 166.388 C149.459 168.388 149.459 168.388 149.459 168.388 Z " fill="#8A8E94" transform="translate(37.541015625,65.61181640625)"/>
<path d="M0 0 C0 50.82 0 101.64 0 154 C-4.721 152.426 -9.003 150.66 -13.434 148.473 C-14.14 148.128 -14.846 147.783 -15.573 147.428 C-17.082 146.691 -18.589 145.953 -20.096 145.212 C-23.26 143.659 -26.428 142.114 -29.596 140.568 C-31.954 139.417 -34.311 138.265 -36.669 137.113 C-50.773 130.226 -64.937 123.495 -79.263 117.082 C-80.133 116.692 -81.002 116.301 -81.898 115.898 C-82.668 115.555 -83.439 115.211 -84.232 114.857 C-86 114 -86 114 -87 113 C-87.094 110.73 -87.117 108.457 -87.114 106.185 C-87.114 105.473 -87.114 104.761 -87.114 104.027 C-87.113 101.663 -87.105 99.298 -87.098 96.934 C-87.096 95.298 -87.094 93.663 -87.093 92.028 C-87.09 87.716 -87.08 83.403 -87.069 79.091 C-87.058 74.694 -87.054 70.297 -87.049 65.9 C-87.038 57.267 -87.021 48.633 -87 40 C-86.7 39.885 -86.7 39.885 -85.18 39.302 C-78.811 36.813 -72.676 33.999 -66.551 30.965 C-65.576 30.486 -64.602 30.007 -63.598 29.514 C-60.501 27.992 -57.407 26.465 -54.312 24.938 C-50.268 22.945 -46.222 20.954 -42.176 18.965 C-41.178 18.474 -40.181 17.984 -39.153 17.479 C-31.883 13.91 -24.596 10.38 -17.293 6.879 C-16.332 6.417 -15.371 5.955 -14.381 5.48 C-13.933 5.266 -13.933 5.266 -11.665 4.182 C-10.882 3.807 -10.1 3.433 -9.293 3.047 C-2.621 0 -2.621 0 0 0 Z M-86 41 C-86 64.76 -86 88.52 -86 113 C-85.67 113 -85.34 113 -85 113 C-85 89.24 -85 65.48 -85 41 C-85.33 41 -85.66 41 -86 41 Z " fill="#898E94" transform="translate(283,83)"/>
<path d="M0 0 C0.33 0 0.66 0 1 0 C1 56.1 1 112.2 1 170 C0.67 170 0.34 170 0 170 C0 113.9 0 57.8 0 0 Z " fill="#808080" transform="translate(693,75)"/>
<path d="M0 0 C0.33 0 0.66 0 1 0 C1 50.82 1 101.64 1 154 C0.67 154 0.34 154 0 154 C0 103.18 0 52.36 0 0 Z " fill="#7F7FBF" transform="translate(284,83)"/>
<path d="M0 0 C43.89 0 87.78 0 133 0 C133 0.33 133 0.66 133 1 C89.11 1 45.22 1 0 1 C0 0.67 0 0.34 0 0 Z " fill="#090BF9" transform="translate(27,237)"/>
<path d="M0 0 C43.89 0 87.78 0 133 0 C133 0.33 133 0.66 133 1 C89.11 1 45.22 1 0 1 C0 0.67 0 0.34 0 0 Z " fill="#090BF9" transform="translate(27,82)"/>
<path d="M0 0 C0.99 0 1.98 0 3 0 C3 0.66 3 1.32 3 2 C2.01 1.67 1.02 1.34 0 1 C0 0.67 0 0.34 0 0 Z M0 1 C0 1.66 0 2.32 0 3 C-5.75 6 -5.75 6 -8 6 C-8.227 6.536 -8.454 7.073 -8.688 7.625 C-10.42 10.761 -12.676 13.28 -15 16 C-16.011 17.325 -17.017 18.654 -18 20 C-18 19.34 -18 18.68 -18 18 C-18.99 17.67 -19.98 17.34 -21 17 C-18.606 13.067 -17.079 10.979 -13 9 C-11.593 7.851 -10.218 6.661 -8.875 5.438 C-3.985 1 -3.985 1 0 1 Z " fill="#8B9096" transform="translate(21,67)"/>
<path d="M0 0 C17.49 0.33 34.98 0.66 53 1 C53 1.33 53 1.66 53 2 C35.51 2.33 18.02 2.66 0 3 C0 2.01 0 1.02 0 0 Z " fill="#90959B" transform="translate(555,75)"/>
<path d="M0 0 C18.81 0 37.62 0 57 0 C57 0.33 57 0.66 57 1 C38.19 1 19.38 1 0 1 C0 0.67 0 0.34 0 0 Z " fill="#57A4A6" transform="translate(695,73)"/>
<path d="M0 0 C18.48 0 36.96 0 56 0 C56 0.33 56 0.66 56 1 C37.52 1 19.04 1 0 1 C0 0.67 0 0.34 0 0 Z " fill="#55A7A9" transform="translate(828,73)"/>
<path d="M0 0 C17.82 0 35.64 0 54 0 C54 0.33 54 0.66 54 1 C36.18 1 18.36 1 0 1 C0 0.67 0 0.34 0 0 Z " fill="#59A6AD" transform="translate(557,73)"/>
<path d="M0 0 C14.85 0 29.7 0 45 0 C45 0.33 45 0.66 45 1 C30.15 1 15.3 1 0 1 C0 0.67 0 0.34 0 0 Z " fill="#7D7D7D" transform="translate(628,246)"/>
<path d="M0 0 C14.85 0 29.7 0 45 0 C45 0.33 45 0.66 45 1 C30.15 1 15.3 1 0 1 C0 0.67 0 0.34 0 0 Z " fill="#808284" transform="translate(495,246)"/>
<path d="M0 0 C13.86 0 27.72 0 42 0 C42 0.33 42 0.66 42 1 C28.14 1 14.28 1 0 1 C0 0.67 0 0.34 0 0 Z " fill="#7F7F80" transform="translate(842,246)"/>
<path d="M0 0 C13.86 0 27.72 0 42 0 C42 0.33 42 0.66 42 1 C28.14 1 14.28 1 0 1 C0 0.67 0 0.34 0 0 Z " fill="#818184" transform="translate(695,246)"/>
<path d="M0 0 C10.23 0 20.46 0 31 0 C31 0.33 31 0.66 31 1 C20.77 1 10.54 1 0 1 C0 0.67 0 0.34 0 0 Z " fill="#848795" transform="translate(411,249)"/>
<path d="M0 0 C10.23 0 20.46 0 31 0 C31 0.33 31 0.66 31 1 C20.77 1 10.54 1 0 1 C0 0.67 0 0.34 0 0 Z " fill="#848495" transform="translate(411,70)"/>
<path d="M0 0 C1 3 1 3 0.223 4.824 C-0.852 6.549 -1.926 8.275 -3 10 C-3.33 9.34 -3.66 8.68 -4 8 C-4.99 7.67 -5.98 7.34 -7 7 C-3.375 1.125 -3.375 1.125 0 0 Z " fill="#9B9EAC" transform="translate(7,77)"/>
<path d="M0 0 C3.592 0.568 5.133 1.847 7.562 4.5 C9.834 6.969 10.743 7.914 14 9 C13.67 9.99 13.34 10.98 13 12 C13 11.34 13 10.68 13 10 C12.01 10.33 11.02 10.66 10 11 C9.529 10.457 9.059 9.915 8.574 9.355 C7.952 8.64 7.329 7.925 6.688 7.188 C6.073 6.48 5.458 5.772 4.824 5.043 C3.267 3.299 1.673 1.632 0 0 Z " fill="#939BA4" transform="translate(171,71)"/>
<path d="M0 0 C9.24 0 18.48 0 28 0 C28 0.33 28 0.66 28 1 C18.76 1 9.52 1 0 1 C0 0.67 0 0.34 0 0 Z " fill="#F5F5F5" transform="translate(776,214)"/>
<path d="M0 0 C0.33 0.66 0.66 1.32 1 2 C1.66 2.33 2.32 2.66 3 3 C2.34 3.66 1.68 4.32 1 5 C0.34 5 -0.32 5 -1 5 C-0.67 3.35 -0.34 1.7 0 0 Z M0 5 C0.33 5.165 0.33 5.165 2 6 C2 6.66 2 7.32 2 8 C1.34 8 0.68 8 0 8 C0 7.01 0 6.02 0 5 Z M-3 8 C-1.68 8.33 -0.36 8.66 1 9 C0.34 10.32 -0.32 11.64 -1 13 C-1.66 12.34 -2.32 11.68 -3 11 C-3 10.01 -3 9.02 -3 8 Z " fill="#7A7F83" transform="translate(525,156)"/>
<path d="M0 0 C0.33 0 0.66 0 1 0 C1 7.92 1 15.84 1 24 C0.67 24 0.34 24 0 24 C0 16.08 0 8.16 0 0 Z " fill="#7B7B89" transform="translate(382,148)"/>
<path d="M0 0 C0.66 0 1.32 0 2 0 C2 0.66 2 1.32 2 2 C1.34 2 0.68 2 0 2 C0 1.34 0 0.68 0 0 Z M-3 2 C-2.34 2.165 -2.34 2.165 1 3 C0.34 4.32 -0.32 5.64 -1 7 C-1.99 7 -2.98 7 -4 7 C-3.67 5.35 -3.34 3.7 -3 2 Z " fill="#808387" transform="translate(502,224)"/>
<path d="M0 0 C0.66 0.165 0.66 0.165 4 1 C3.67 2.32 3.34 3.64 3 5 C1.68 5 0.36 5 -1 5 C-0.67 3.35 -0.34 1.7 0 0 Z M0 5 C0.66 5.66 1.32 6.32 2 7 C1.34 7 0.68 7 0 7 C0 6.34 0 5.68 0 5 Z " fill="#7D8084" transform="translate(797,141)"/>
<path d="M0 0 C0.66 0 1.32 0 2 0 C2 0.66 2 1.32 2 2 C1.34 2 0.68 2 0 2 C0 1.34 0 0.68 0 0 Z M-3 2 C-2.34 2.165 -2.34 2.165 1 3 C0.34 4.32 -0.32 5.64 -1 7 C-1.99 7 -2.98 7 -4 7 C-3.67 5.35 -3.34 3.7 -3 2 Z " fill="#7B7E87" transform="translate(538,127)"/>
<path d="M0 0 C2 1 2 1 2 1 Z M-3 1 C-2.34 1.165 -2.34 1.165 1 2 C0.34 3.32 -0.32 4.64 -1 6 C-1.99 6 -2.98 6 -4 6 C-3.67 4.35 -3.34 2.7 -3 1 Z " fill="#90878B" transform="translate(803,133)"/>
<path d="M0 0 C0.33 0 0.66 0 1 0 C1 5.28 1 10.56 1 16 C0.67 16 0.34 16 0 16 C0 10.72 0 5.44 0 0 Z " fill="#7F7F7F" transform="translate(332,152)"/>
<path d="M0 0 C0 3 0 3 -1.5 4.688 C-1.995 5.121 -2.49 5.554 -3 6 C-3.66 5.67 -4.32 5.34 -5 5 C-3.35 3.35 -1.7 1.7 0 0 Z " fill="#A5A5BD" transform="translate(181,242)"/>
<path d="M0 0 C2.622 1.049 3.794 1.649 5.25 4.125 C5.498 4.744 5.745 5.362 6 6 C3.979 4.358 1.98 2.691 0 1 C0 0.67 0 0.34 0 0 Z " fill="#A5A5BD" transform="translate(176,72)"/>
<path d="M0 0 C2.97 0 5.94 0 9 0 C9 0.33 9 0.66 9 1 C6.03 1 3.06 1 0 1 C0 0.67 0 0.34 0 0 Z " fill="#969696" transform="translate(435,213)"/>
<path d="M0 0 C2.97 0 5.94 0 9 0 C9 0.33 9 0.66 9 1 C6.03 1 3.06 1 0 1 C0 0.67 0 0.34 0 0 Z " fill="#969696" transform="translate(435,106)"/>
<path d="M0 0 C2.64 0 5.28 0 8 0 C8 0.33 8 0.66 8 1 C5.36 1 2.72 1 0 1 C0 0.67 0 0.34 0 0 Z " fill="#747474" transform="translate(418,213)"/>
<path d="M0 0 C0.33 0 0.66 0 1 0 C1 2.64 1 5.28 1 8 C0.67 8 0.34 8 0 8 C0 5.36 0 2.72 0 0 Z " fill="#999999" transform="translate(333,169)"/>
<path d="M0 0 C0.33 0 0.66 0 1 0 C1 2.64 1 5.28 1 8 C0.67 8 0.34 8 0 8 C0 5.36 0 2.72 0 0 Z " fill="#9F9F9F" transform="translate(333,143)"/>
<path d="M0 0 C2.64 0 5.28 0 8 0 C8 0.33 8 0.66 8 1 C5.36 1 2.72 1 0 1 C0 0.67 0 0.34 0 0 Z " fill="#747474" transform="translate(418,106)"/>
<path d="M0 0 C2.31 0 4.62 0 7 0 C7 0.33 7 0.66 7 1 C4.69 1 2.38 1 0 1 C0 0.67 0 0.34 0 0 Z " fill="#676767" transform="translate(404,248)"/>
<path d="M0 0 C2.31 0 4.62 0 7 0 C7 0.33 7 0.66 7 1 C4.69 1 2.38 1 0 1 C0 0.67 0 0.34 0 0 Z " fill="#A3A3C8" transform="translate(427,214)"/>
<path d="M0 0 C2.31 0 4.62 0 7 0 C7 0.33 7 0.66 7 1 C4.69 1 2.38 1 0 1 C0 0.67 0 0.34 0 0 Z " fill="#A3A3A3" transform="translate(427,105)"/>
<path d="M0 0 C2.31 0 4.62 0 7 0 C7 0.33 7 0.66 7 1 C4.69 1 2.38 1 0 1 C0 0.67 0 0.34 0 0 Z " fill="#676767" transform="translate(404,71)"/>
<path d="M0 0 C1.98 0 3.96 0 6 0 C6 0.33 6 0.66 6 1 C4.02 1 2.04 1 0 1 C0 0.67 0 0.34 0 0 Z " fill="#A2A2A2" transform="translate(442,248)"/>
<path d="M0 0 C1.98 0 3.96 0 6 0 C6 0.33 6 0.66 6 1 C4.02 1 2.04 1 0 1 C0 0.67 0 0.34 0 0 Z " fill="#A2A2A2" transform="translate(442,71)"/>
<path d="M0 0 C1.65 0 3.3 0 5 0 C5 0.33 5 0.66 5 1 C3.35 1 1.7 1 0 1 C0 0.67 0 0.34 0 0 Z " fill="#BABABA" transform="translate(448,247)"/>
<path d="M0 0 C1.65 0 3.3 0 5 0 C5 0.33 5 0.66 5 1 C3.35 1 1.7 1 0 1 C0 0.67 0 0.34 0 0 Z " fill="#656565" transform="translate(399,247)"/>
<path d="M0 0 C1.65 0 3.3 0 5 0 C5 0.33 5 0.66 5 1 C3.35 1 1.7 1 0 1 C0 0.67 0 0.34 0 0 Z " fill="#BABABA" transform="translate(444,212)"/>
<path d="M0 0 C0.33 0 0.66 0 1 0 C1 1.65 1 3.3 1 5 C0.67 5 0.34 5 0 5 C0 3.35 0 1.7 0 0 Z " fill="#767676" transform="translate(334,178)"/>
<path d="M0 0 C0.33 0 0.66 0 1 0 C1 1.65 1 3.3 1 5 C0.67 5 0.34 5 0 5 C0 3.35 0 1.7 0 0 Z " fill="#A9A9A9" transform="translate(383,143)"/>
<path d="M0 0 C0.33 0 0.66 0 1 0 C1 1.65 1 3.3 1 5 C0.67 5 0.34 5 0 5 C0 3.35 0 1.7 0 0 Z " fill="#767676" transform="translate(334,137)"/>
<path d="M0 0 C1.65 0 3.3 0 5 0 C5 0.33 5 0.66 5 1 C3.35 1 1.7 1 0 1 C0 0.67 0 0.34 0 0 Z " fill="#BABABA" transform="translate(444,107)"/>
<path d="M0 0 C1.65 0 3.3 0 5 0 C5 0.33 5 0.66 5 1 C3.35 1 1.7 1 0 1 C0 0.67 0 0.34 0 0 Z " fill="#BABABA" transform="translate(448,72)"/>
<path d="M0 0 C1.65 0 3.3 0 5 0 C5 0.33 5 0.66 5 1 C3.35 1 1.7 1 0 1 C0 0.67 0 0.34 0 0 Z " fill="#656565" transform="translate(399,72)"/>
<path d="M0 0 C4 1 4 1 4 1 Z " fill="#94A9A9" transform="translate(453,246)"/>
<path d="M0 0 C4 1 4 1 4 1 Z " fill="#54548A" transform="translate(395,246)"/>
<path d="M0 0 C4 1 4 1 4 1 Z " fill="#A9A9A9" transform="translate(414,212)"/>
<path d="M0 0 C4 1 4 1 4 1 Z " fill="#8A8A8A" transform="translate(449,211)"/>
<path d="M0 0 C1 4 1 4 1 4 Z " fill="#545454" transform="translate(336,187)"/>
<path d="M0 0 C1 4 1 4 1 4 Z " fill="#A9A9A9" transform="translate(335,183)"/>
<path d="M0 0 C1 4 1 4 1 4 Z " fill="#A9A9A9" transform="translate(335,133)"/>
<path d="M0 0 C1 4 1 4 1 4 Z " fill="#5F5F5F" transform="translate(336,129)"/>
<path d="M0 0 C4 1 4 1 4 1 Z " fill="#8A8A8A" transform="translate(449,108)"/>
<path d="M0 0 C4 1 4 1 4 1 Z " fill="#A9A9A9" transform="translate(414,107)"/>
<path d="M0 0 C0.66 0.33 1.32 0.66 2 1 C1.01 1 0.02 1 -1 1 C-0.67 0.67 -0.34 0.34 0 0 Z " fill="#8A8A8A" transform="translate(362,90)"/>
<path d="M0 0 C4 1 4 1 4 1 Z " fill="#94A9A9" transform="translate(453,73)"/>
<path d="M0 0 C4 1 4 1 4 1 Z " fill="#54546A" transform="translate(395,73)"/>
<path d="M0 0 C3 1 3 1 3 1 Z " fill="#8D8D8D" transform="translate(18,253)"/>
<path d="M0 0 C3 1 3 1 3 1 Z " fill="#717171" transform="translate(457,245)"/>
<path d="M0 0 C3 1 3 1 3 1 Z " fill="#8D8D8D" transform="translate(392,245)"/>
<path d="M0 0 C3 1 3 1 3 1 Z " fill="#545454" transform="translate(461,244)"/>
<path d="M0 0 C3 1 3 1 3 1 Z " fill="#A9A9A9" transform="translate(389,244)"/>
<path d="" fill="#A9A9A9" transform="translate(0,0)"/>
<path d="M0 0 C3 1 3 1 3 1 Z " fill="#D4D4D4" transform="translate(386,243)"/>
<path d="M0 0 C3 1 3 1 3 1 Z " fill="#7F7F7F" transform="translate(466,242)"/>
<path d="M0 0 C3 1 3 1 3 1 Z " fill="#383838" transform="translate(381,241)"/>
<path d="" fill="#7F7F7F" transform="translate(0,0)"/>
<path d="" fill="#717171" transform="translate(0,0)"/>
<path d="" fill="#A9A9A9" transform="translate(0,0)"/>
<path d="M0 0 C3 1 3 1 3 1 Z " fill="#63638D" transform="translate(24,236)"/>
<path d="" fill="#717171" transform="translate(0,0)"/>
<path d="" fill="#A9A9A9" transform="translate(0,0)"/>
<path d="" fill="#A9A9A9" transform="translate(0,0)"/>
<path d="" fill="#717171" transform="translate(0,0)"/>
<path d="" fill="#7F7F7F" transform="translate(0,0)"/>
<path d="" fill="#A9A9A9" transform="translate(0,0)"/>
<path d="" fill="#A9A9A9" transform="translate(0,0)"/>
<path d="M0 0 C3 1 3 1 3 1 Z " fill="#636363" transform="translate(239,218)"/>
<path d="M0 0 C3 1 3 1 3 1 Z " fill="#B8B8B8" transform="translate(411,211)"/>
<path d="M0 0 C3 1 3 1 3 1 Z " fill="#7F7F7F" transform="translate(453,210)"/>
<path d="M0 0 C3 1 3 1 3 1 Z " fill="#545454" transform="translate(456,209)"/>
<path d="M0 0 C3 1 3 1 3 1 Z " fill="#383838" transform="translate(406,209)"/>
<path d="M0 0 C3 1 3 1 3 1 Z " fill="#8D8D8D" transform="translate(208,203)"/>
<path d="" fill="#A9A9A9" transform="translate(0,0)"/>
<path d="" fill="#A9A9A9" transform="translate(0,0)"/>
<path d="" fill="#636363" transform="translate(0,0)"/>
<path d="" fill="#A9A9A9" transform="translate(0,0)"/>
<path d="" fill="#A9A9A9" transform="translate(0,0)"/>
<path d="" fill="#A9A9A9" transform="translate(0,0)"/>
<path d="" fill="#555555" transform="translate(0,0)"/>
<path d="" fill="#A9A9A9" transform="translate(0,0)"/>
<path d="" fill="#A9A9A9" transform="translate(0,0)"/>
<path d="" fill="#717171" transform="translate(0,0)"/>
<path d="" fill="#A9A9A9" transform="translate(0,0)"/>
<path d="" fill="#54A9A9" transform="translate(0,0)"/>
<path d="" fill="#54A9A9" transform="translate(0,0)"/>
<path d="" fill="#717171" transform="translate(0,0)"/>
<path d="" fill="#7F7F7F" transform="translate(0,0)"/>
<path d="" fill="#D4D4D4" transform="translate(0,0)"/>
<path d="" fill="#D4D4D4" transform="translate(0,0)"/>
<path d="" fill="#A9A9A9" transform="translate(0,0)"/>
<path d="" fill="#717171" transform="translate(0,0)"/>
<path d="" fill="#A9A9A9" transform="translate(0,0)"/>
<path d="" fill="#71C6C6" transform="translate(0,0)"/>
<path d="" fill="#A9A9A9" transform="translate(0,0)"/>
<path d="" fill="#5454A9" transform="translate(0,0)"/>
<path d="" fill="#7F7F7F" transform="translate(0,0)"/>
<path d="" fill="#7F7F7F" transform="translate(0,0)"/>
<path d="" fill="#A9A9A9" transform="translate(0,0)"/>
<path d="" fill="#636363" transform="translate(0,0)"/>
<path d="" fill="#717171" transform="translate(0,0)"/>
<path d="" fill="#A9A9A9" transform="translate(0,0)"/>
<path d="" fill="#D4D4D4" transform="translate(0,0)"/>
<path d="" fill="#D4D4D4" transform="translate(0,0)"/>
<path d="M0 0 C3 1 3 1 3 1 Z " fill="#545454" transform="translate(456,110)"/>
<path d="M0 0 C3 1 3 1 3 1 Z " fill="#383838" transform="translate(406,110)"/>
<path d="M0 0 C3 1 3 1 3 1 Z " fill="#7F7F7F" transform="translate(453,109)"/>
<path d="M0 0 C3 1 3 1 3 1 Z " fill="#B8B8B8" transform="translate(411,108)"/>
<path d="M0 0 C3 1 3 1 3 1 Z " fill="#636363" transform="translate(224,108)"/>
<path d="" fill="#A9A9A9" transform="translate(0,0)"/>
<path d="" fill="#A9A9A9" transform="translate(0,0)"/>
<path d="M0 0 C3 1 3 1 3 1 Z " fill="#8D8D8D" transform="translate(253,94)"/>
<path d="" fill="#A9A9A9" transform="translate(0,0)"/>
<path d="" fill="#A9A9A9" transform="translate(0,0)"/>
<path d="" fill="#A9A9A9" transform="translate(0,0)"/>
<path d="M0 0 C3 1 3 1 3 1 Z " fill="#63638D" transform="translate(24,83)"/>
<path d="" fill="#A9A9A9" transform="translate(0,0)"/>
<path d="" fill="#555555" transform="translate(0,0)"/>
<path d="" fill="#555555" transform="translate(0,0)"/>
<path d="M0 0 C3 1 3 1 3 1 Z " fill="#383838" transform="translate(381,78)"/>
<path d="M0 0 C3 1 3 1 3 1 Z " fill="#7F7F7F" transform="translate(466,77)"/>
<path d="M0 0 C3 1 3 1 3 1 Z " fill="#A9A9A9" transform="translate(386,76)"/>
<path d="M0 0 C3 1 3 1 3 1 Z " fill="#545454" transform="translate(461,75)"/>
<path d="M0 0 C3 1 3 1 3 1 Z " fill="#A9A9A9" transform="translate(389,75)"/>
<path d="M0 0 C3 1 3 1 3 1 Z " fill="#71718D" transform="translate(457,74)"/>
<path d="M0 0 C3 1 3 1 3 1 Z " fill="#8D8D8D" transform="translate(392,74)"/>
<path d="M0 0 C3 1 3 1 3 1 Z " fill="#8D8D8D" transform="translate(18,66)"/>
<path d="M0 0 C2 1 2 1 2 1 Z " fill="#BFBFBF" transform="translate(167,253)"/>
<path d="M0 0 C2 1 2 1 2 1 Z " fill="#D4D4D4" transform="translate(169,252)"/>
<path d="M0 0 C2 1 2 1 2 1 Z " fill="#555555" transform="translate(16,252)"/>
<path d="M0 0 C2 1 2 1 2 1 Z " fill="#BFBFBF" transform="translate(172,250)"/>
<path d="M0 0 C2 1 2 1 2 1 Z " fill="#D4D4D4" transform="translate(13,250)"/>
<path d="" fill="#949494" transform="translate(0,0)"/>
<path d="M0 0 C2 1 2 1 2 1 Z " fill="#7F7F7F" transform="translate(464,243)"/>
<path d="M0 0 C2 1 2 1 2 1 Z " fill="#7F7FAA" transform="translate(384,242)"/>
<path d="" fill="#6A9494" transform="translate(0,0)"/>
<path d="M0 0 C2 1 2 1 2 1 Z " fill="#7FAAAA" transform="translate(469,241)"/>
<path d="M0 0 C2 1 2 1 2 1 Z " fill="#D4D4D4" transform="translate(472,240)"/>
<path d="M0 0 C2 1 2 1 2 1 Z " fill="#BFBFBF" transform="translate(379,240)"/>
<path d="M0 0 C2 1 2 1 2 1 Z " fill="#BFBFBF" transform="translate(474,239)"/>
<path d="M0 0 C2 1 2 1 2 1 Z " fill="#D4D4D4" transform="translate(377,239)"/>
<path d="" fill="#AAAAAA" transform="translate(0,0)"/>
<path d="M0 0 C2 1 2 1 2 1 Z " fill="#D4D4D4" transform="translate(476,238)"/>
<path d="M0 0 C2 1 2 1 2 1 Z " fill="#555555" transform="translate(375,238)"/>
<path d="M0 0 C2 1 2 1 2 1 Z " fill="#7F7F7F" transform="translate(281,238)"/>
<path d="M0 0 C2 1 2 1 2 1 Z " fill="#D4D4D4" transform="translate(279,237)"/>
<path d="M0 0 C2 1 2 1 2 1 Z " fill="#7F7F7F" transform="translate(372,236)"/>
<path d="M0 0 C2 1 2 1 2 1 Z " fill="#7F7F7F" transform="translate(277,236)"/>
<path d="M0 0 C2 1 2 1 2 1 Z " fill="#7F7F7F" transform="translate(161,236)"/>
<path d="" fill="#AAAAAA" transform="translate(0,0)"/>
<path d="M0 0 C2 1 2 1 2 1 Z " fill="#7F7F7F" transform="translate(275,235)"/>
<path d="M0 0 C2 1 2 1 2 1 Z " fill="#7F7F7F" transform="translate(163,235)"/>
<path d="M0 0 C2 1 2 1 2 1 Z " fill="#949494" transform="translate(273,234)"/>
<path d="M0 0 C2 1 2 1 2 1 Z " fill="#7FBFBF" transform="translate(271,233)"/>
<path d="M0 0 C2 1 2 1 2 1 Z " fill="#BFBFBF" transform="translate(366,232)"/>
<path d="M0 0 C2 1 2 1 2 1 Z " fill="#3FBFBF" transform="translate(262,229)"/>
<path d="M0 0 C2 1 2 1 2 1 Z " fill="#3FBF3F" transform="translate(260,228)"/>
<path d="M0 0 C2 1 2 1 2 1 Z " fill="#3FBFBF" transform="translate(258,227)"/>
<path d="M0 0 C2 1 2 1 2 1 Z " fill="#3FBFBF" transform="translate(256,226)"/>
<path d="M0 0 C2 1 2 1 2 1 Z " fill="#7F7F7F" transform="translate(254,225)"/>
<path d="M0 0 C2 1 2 1 2 1 Z " fill="#949494" transform="translate(252,224)"/>
<path d="M0 0 C2 1 2 1 2 1 Z " fill="#949494" transform="translate(250,223)"/>
<path d="M0 0 C2 1 2 1 2 1 Z " fill="#949494" transform="translate(248,222)"/>
<path d="M0 0 C2 1 2 1 2 1 Z " fill="#6A6A94" transform="translate(246,221)"/>
<path d="M0 0 C2 1 2 1 2 1 Z " fill="#6A6A6A" transform="translate(244,220)"/>
<path d="M0 0 C2 1 2 1 2 1 Z " fill="#6A6A6A" transform="translate(242,219)"/>
<path d="M0 0 C2 1 2 1 2 1 Z " fill="#555555" transform="translate(237,217)"/>
<path d="M0 0 C2 1 2 1 2 1 Z " fill="#555555" transform="translate(235,216)"/>
<path d="M0 0 C2 1 2 1 2 1 Z " fill="#555555" transform="translate(233,215)"/>
<path d="M0 0 C2 1 2 1 2 1 Z " fill="#BFBFBF" transform="translate(231,214)"/>
<path d="M0 0 C2 1 2 1 2 1 Z " fill="#BFBFBF" transform="translate(229,213)"/>
<path d="M0 0 C2 1 2 1 2 1 Z " fill="#BFBFBF" transform="translate(227,212)"/>
<path d="" fill="#6A6A6A" transform="translate(0,0)"/>
<path d="M0 0 C2 1 2 1 2 1 Z " fill="#7F7F7F" transform="translate(225,211)"/>
<path d="M0 0 C2 1 2 1 2 1 Z " fill="#7F7F7F" transform="translate(409,210)"/>
<path d="M0 0 C2 1 2 1 2 1 Z " fill="#949494" transform="translate(223,210)"/>
<path d="M0 0 C2 1 2 1 2 1 Z " fill="#949494" transform="translate(221,209)"/>
<path d="" fill="#6A6A6A" transform="translate(0,0)"/>
<path d="M0 0 C2 1 2 1 2 1 Z " fill="#949494" transform="translate(459,208)"/>
<path d="M0 0 C2 1 2 1 2 1 Z " fill="#949494" transform="translate(219,208)"/>
<path d="" fill="#949494" transform="translate(0,0)"/>
<path d="M0 0 C2 1 2 1 2 1 Z " fill="#BFBFBF" transform="translate(461,207)"/>
<path d="M0 0 C2 1 2 1 2 1 Z " fill="#3F3F3F" transform="translate(403,207)"/>
<path d="M0 0 C2 1 2 1 2 1 Z " fill="#7FAAAA" transform="translate(217,207)"/>
<path d="M0 0 C2 1 2 1 2 1 Z " fill="#555555" transform="translate(463,206)"/>
<path d="M0 0 C2 1 2 1 2 1 Z " fill="#6A6A6A" transform="translate(401,206)"/>
<path d="M0 0 C2 1 2 1 2 1 Z " fill="#D4D4D4" transform="translate(215,206)"/>
<path d="M0 0 C2 1 2 1 2 1 Z " fill="#D4D4D4" transform="translate(213,205)"/>
<path d="" fill="#6A6A6A" transform="translate(0,0)"/>
<path d="M0 0 C2 1 2 1 2 1 Z " fill="#D4D4D4" transform="translate(211,204)"/>
<path d="" fill="#949494" transform="translate(0,0)"/>
<path d="" fill="#AAAAAA" transform="translate(0,0)"/>
<path d="M0 0 C2 1 2 1 2 1 Z " fill="#555555" transform="translate(469,203)"/>
<path d="M0 0 C2 1 2 1 2 1 Z " fill="#D4D4D4" transform="translate(471,202)"/>
<path d="" fill="#557FAA" transform="translate(0,0)"/>
<path d="M0 0 C2 1 2 1 2 1 Z " fill="#555555" transform="translate(206,202)"/>
<path d="M0 0 C2 1 2 1 2 1 Z " fill="#BF3FBF" transform="translate(473,201)"/>
<path d="M0 0 C2 1 2 1 2 1 Z " fill="#555555" transform="translate(204,201)"/>
<path d="" fill="#949494" transform="translate(0,0)"/>
<path d="" fill="#7FAAAA" transform="translate(0,0)"/>
<path d="" fill="#949494" transform="translate(0,0)"/>
<path d="M0 0 C2 1 2 1 2 1 Z " fill="#D4D4D4" transform="translate(202,200)"/>
<path d="M0 0 C2 1 2 1 2 1 Z " fill="#BFBFBF" transform="translate(476,199)"/>
<path d="M0 0 C2 1 2 1 2 1 Z " fill="#D4D4D4" transform="translate(200,199)"/>
<path d="" fill="#7F7F7F" transform="translate(0,0)"/>
<path d="" fill="#7F7FAA" transform="translate(0,0)"/>
<path d="" fill="#949494" transform="translate(0,0)"/>
<path d="" fill="#949494" transform="translate(0,0)"/>
<path d="" fill="#949494" transform="translate(0,0)"/>
<path d="" fill="#7F7F7F" transform="translate(0,0)"/>
<path d="" fill="#7F7F7F" transform="translate(0,0)"/>
<path d="" fill="#949494" transform="translate(0,0)"/>
<path d="" fill="#949494" transform="translate(0,0)"/>
<path d="" fill="#7F7F7F" transform="translate(0,0)"/>
<path d="" fill="#949494" transform="translate(0,0)"/>
<path d="" fill="#7F7F7F" transform="translate(0,0)"/>
<path d="" fill="#949494" transform="translate(0,0)"/>
<path d="" fill="#949494" transform="translate(0,0)"/>
<path d="" fill="#949494" transform="translate(0,0)"/>
<path d="" fill="#7FAAAA" transform="translate(0,0)"/>
<path d="" fill="#949494" transform="translate(0,0)"/>
<path d="" fill="#AAAAAA" transform="translate(0,0)"/>
<path d="" fill="#AAAAAA" transform="translate(0,0)"/>
<path d="" fill="#949494" transform="translate(0,0)"/>
<path d="" fill="#949494" transform="translate(0,0)"/>
<path d="" fill="#AAAAAA" transform="translate(0,0)"/>
<path d="" fill="#949494" transform="translate(0,0)"/>
<path d="" fill="#949494" transform="translate(0,0)"/>
<path d="" fill="#7F7F7F" transform="translate(0,0)"/>
<path d="" fill="#949494" transform="translate(0,0)"/>
<path d="" fill="#949494" transform="translate(0,0)"/>
<path d="" fill="#949494" transform="translate(0,0)"/>
<path d="" fill="#7F7FAA" transform="translate(0,0)"/>
<path d="" fill="#7F7F7F" transform="translate(0,0)"/>
<path d="" fill="#949494" transform="translate(0,0)"/>
<path d="" fill="#949494" transform="translate(0,0)"/>
<path d="" fill="#7F7F7F" transform="translate(0,0)"/>
<path d="" fill="#949494" transform="translate(0,0)"/>
<path d="" fill="#AAAAAA" transform="translate(0,0)"/>
<path d="" fill="#7F7F7F" transform="translate(0,0)"/>
<path d="" fill="#7F7F7F" transform="translate(0,0)"/>
<path d="" fill="#AAAAAA" transform="translate(0,0)"/>
<path d="" fill="#7F7F7F" transform="translate(0,0)"/>
<path d="" fill="#949494" transform="translate(0,0)"/>
<path d="" fill="#949494" transform="translate(0,0)"/>
<path d="" fill="#7F7F7F" transform="translate(0,0)"/>
<path d="" fill="#7F7F7F" transform="translate(0,0)"/>
<path d="" fill="#7FAA7F" transform="translate(0,0)"/>
<path d="M0 0 C2 1 2 1 2 1 Z " fill="#BFBFBF" transform="translate(476,120)"/>
<path d="" fill="#949494" transform="translate(0,0)"/>
<path d="M0 0 C2 1 2 1 2 1 Z " fill="#D4D4D4" transform="translate(200,120)"/>
<path d="" fill="#7F7F7F" transform="translate(0,0)"/>
<path d="M0 0 C2 1 2 1 2 1 Z " fill="#AAAAAA" transform="translate(202,119)"/>
<path d="M0 0 C2 1 2 1 2 1 Z " fill="#BF3FBF" transform="translate(473,118)"/>
<path d="" fill="#7F7F7F" transform="translate(0,0)"/>
<path d="M0 0 C2 1 2 1 2 1 Z " fill="#949494" transform="translate(204,118)"/>
<path d="M0 0 C2 1 2 1 2 1 Z " fill="#D4D4D4" transform="translate(471,117)"/>
<path d="M0 0 C2 1 2 1 2 1 Z " fill="#949494" transform="translate(206,117)"/>
<path d="M0 0 C2 1 2 1 2 1 Z " fill="#555555" transform="translate(469,116)"/>
<path d="" fill="#6A6A6A" transform="translate(0,0)"/>
<path d="M0 0 C2 1 2 1 2 1 Z " fill="#949494" transform="translate(208,116)"/>
<path d="M0 0 C2 1 2 1 2 1 Z " fill="#BFBFBF" transform="translate(210,115)"/>
<path d="" fill="#7F7F7F" transform="translate(0,0)"/>
<path d="" fill="#6A6A6A" transform="translate(0,0)"/>
<path d="M0 0 C2 1 2 1 2 1 Z " fill="#BFBFBF" transform="translate(212,114)"/>
<path d="M0 0 C2 1 2 1 2 1 Z " fill="#555555" transform="translate(463,113)"/>
<path d="M0 0 C2 1 2 1 2 1 Z " fill="#6A6A6A" transform="translate(401,113)"/>
<path d="M0 0 C2 1 2 1 2 1 Z " fill="#BFBFBF" transform="translate(214,113)"/>
<path d="M0 0 C2 1 2 1 2 1 Z " fill="#BFBFBF" transform="translate(461,112)"/>
<path d="M0 0 C2 1 2 1 2 1 Z " fill="#3F3F3F" transform="translate(403,112)"/>
<path d="M0 0 C2 1 2 1 2 1 Z " fill="#BFBFBF" transform="translate(216,112)"/>
<path d="" fill="#6A6A6A" transform="translate(0,0)"/>
<path d="M0 0 C2 1 2 1 2 1 Z " fill="#949494" transform="translate(459,111)"/>
<path d="M0 0 C2 1 2 1 2 1 Z " fill="#555555" transform="translate(218,111)"/>
<path d="M0 0 C2 1 2 1 2 1 Z " fill="#555555" transform="translate(220,110)"/>
<path d="M0 0 C2 1 2 1 2 1 Z " fill="#7F7F7F" transform="translate(409,109)"/>
<path d="M0 0 C2 1 2 1 2 1 Z " fill="#555555" transform="translate(222,109)"/>
<path d="M0 0 C2 1 2 1 2 1 Z " fill="#6A9494" transform="translate(227,107)"/>
<path d="" fill="#7FAAAA" transform="translate(0,0)"/>
<path d="M0 0 C2 1 2 1 2 1 Z " fill="#6A9494" transform="translate(229,106)"/>
<path d="M0 0 C2 1 2 1 2 1 Z " fill="#6A6A94" transform="translate(231,105)"/>
<path d="M0 0 C2 1 2 1 2 1 Z " fill="#949494" transform="translate(233,104)"/>
<path d="" fill="#7FAAAA" transform="translate(0,0)"/>
<path d="M0 0 C2 1 2 1 2 1 Z " fill="#949494" transform="translate(235,103)"/>
<path d="" fill="#949494" transform="translate(0,0)"/>
<path d="M0 0 C2 1 2 1 2 1 Z " fill="#949494" transform="translate(237,102)"/>
<path d="M0 0 C2 1 2 1 2 1 Z " fill="#7F7F7F" transform="translate(239,101)"/>
<path d="" fill="#7FAAAA" transform="translate(0,0)"/>
<path d="M0 0 C2 1 2 1 2 1 Z " fill="#BFBFBF" transform="translate(241,100)"/>
<path d="M0 0 C2 1 2 1 2 1 Z " fill="#BFBFBF" transform="translate(243,99)"/>
<path d="" fill="#949494" transform="translate(0,0)"/>
<path d="M0 0 C2 1 2 1 2 1 Z " fill="#BFBFBF" transform="translate(245,98)"/>
<path d="M0 0 C2 1 2 1 2 1 Z " fill="#BFBFBF" transform="translate(247,97)"/>
<path d="M0 0 C2 1 2 1 2 1 Z " fill="#7F7FBF" transform="translate(256,93)"/>
<path d="M0 0 C2 1 2 1 2 1 Z " fill="#7F7FBF" transform="translate(258,92)"/>
<path d="M0 0 C2 1 2 1 2 1 Z " fill="#7F7F7F" transform="translate(260,91)"/>
<path d="M0 0 C2 1 2 1 2 1 Z " fill="#7F7F7F" transform="translate(262,90)"/>
<path d="M0 0 C2 1 2 1 2 1 Z " fill="#949494" transform="translate(264,89)"/>
<path d="" fill="#949494" transform="translate(0,0)"/>
<path d="M0 0 C2 1 2 1 2 1 Z " fill="#949494" transform="translate(266,88)"/>
<path d="" fill="#7F7F7F" transform="translate(0,0)"/>
<path d="M0 0 C2 1 2 1 2 1 Z " fill="#BFBFBF" transform="translate(366,87)"/>
<path d="M0 0 C2 1 2 1 2 1 Z " fill="#949494" transform="translate(268,87)"/>
<path d="" fill="#7F7F7F" transform="translate(0,0)"/>
<path d="M0 0 C2 1 2 1 2 1 Z " fill="#7F7F7F" transform="translate(270,86)"/>
<path d="M0 0 C2 1 2 1 2 1 Z " fill="#3F3F3F" transform="translate(272,85)"/>
<path d="" fill="#949494" transform="translate(0,0)"/>
<path d="" fill="#7F7F7F" transform="translate(0,0)"/>
<path d="M0 0 C2 1 2 1 2 1 Z " fill="#3F3F3F" transform="translate(274,84)"/>
<path d="M0 0 C2 1 2 1 2 1 Z " fill="#7F7F7F" transform="translate(163,84)"/>
<path d="M0 0 C2 1 2 1 2 1 Z " fill="#7F7F7F" transform="translate(372,83)"/>
<path d="M0 0 C2 1 2 1 2 1 Z " fill="#5555D4" transform="translate(276,83)"/>
<path d="M0 0 C2 1 2 1 2 1 Z " fill="#7F7F7F" transform="translate(161,83)"/>
<path d="" fill="#949494" transform="translate(0,0)"/>
<path d="M0 0 C2 1 2 1 2 1 Z " fill="#D4D4D4" transform="translate(476,81)"/>
<path d="M0 0 C2 1 2 1 2 1 Z " fill="#555555" transform="translate(375,81)"/>
<path d="M0 0 C2 1 2 1 2 1 Z " fill="#949494" transform="translate(281,81)"/>
<path d="M0 0 C2 1 2 1 2 1 Z " fill="#BFBFBF" transform="translate(474,80)"/>
<path d="M0 0 C2 1 2 1 2 1 Z " fill="#55D4D4" transform="translate(377,80)"/>
<path d="" fill="#6A6A94" transform="translate(0,0)"/>
<path d="M0 0 C2 1 2 1 2 1 Z " fill="#D4D4D4" transform="translate(472,79)"/>
<path d="M0 0 C2 1 2 1 2 1 Z " fill="#BFBFBF" transform="translate(379,79)"/>
<path d="M0 0 C2 1 2 1 2 1 Z " fill="#7FAAAA" transform="translate(469,78)"/>
<path d="M0 0 C2 1 2 1 2 1 Z " fill="#7F7FAA" transform="translate(384,77)"/>
<path d="" fill="#7F7F7F" transform="translate(0,0)"/>
<path d="M0 0 C2 1 2 1 2 1 Z " fill="#7F7F7F" transform="translate(464,76)"/>
<path d="M0 0 C2 1 2 1 2 1 Z " fill="#BFBFBF" transform="translate(172,69)"/>
<path d="M0 0 C2 1 2 1 2 1 Z " fill="#D4D4D4" transform="translate(13,69)"/>
<path d="M0 0 C2 1 2 1 2 1 Z " fill="#D4D4D4" transform="translate(169,67)"/>
<path d="M0 0 C2 1 2 1 2 1 Z " fill="#555555" transform="translate(16,67)"/>
<path d="M0 0 C2 1 2 1 2 1 Z " fill="#BFBFBF" transform="translate(167,66)"/>
<path d="" fill="#7F7F7F" transform="translate(0,0)"/>
<path d="" fill="#AAAAAA" transform="translate(0,0)"/>
<path d="" fill="#7F7F7F" transform="translate(0,0)"/>
<path d="" fill="#7F7F7F" transform="translate(0,0)"/>
<path d="" fill="#7F7F7F" transform="translate(0,0)"/>
<path d="" fill="#7F7F7F" transform="translate(0,0)"/>
<path d="" fill="#7F7F7F" transform="translate(0,0)"/>
<path d="" fill="#7F7FBF" transform="translate(0,0)"/>
<path d="" fill="#7FBFBF" transform="translate(0,0)"/>
<path d="" fill="#7F7FBF" transform="translate(0,0)"/>
<path d="" fill="#7F7FBF" transform="translate(0,0)"/>
<path d="" fill="#AAAAAA" transform="translate(0,0)"/>
<path d="" fill="#AAAAAA" transform="translate(0,0)"/>
<path d="" fill="#AAAAAA" transform="translate(0,0)"/>
<path d="" fill="#AAAAAA" transform="translate(0,0)"/>
<path d="" fill="#AAAAAA" transform="translate(0,0)"/>
<path d="" fill="#7F7F7F" transform="translate(0,0)"/>
<path d="" fill="#999999" transform="translate(0,0)"/>
<path d="" fill="#7F7F7F" transform="translate(0,0)"/>
<path d="" fill="#7F7FBF" transform="translate(0,0)"/>
<path d="" fill="#999999" transform="translate(0,0)"/>
<path d="" fill="#AAAAAA" transform="translate(0,0)"/>
<path d="" fill="#7F7FBF" transform="translate(0,0)"/>
<path d="" fill="#AAAAAA" transform="translate(0,0)"/>
<path d="" fill="#AAAAAA" transform="translate(0,0)"/>
<path d="" fill="#7F7F7F" transform="translate(0,0)"/>
<path d="" fill="#AAAAAA" transform="translate(0,0)"/>
<path d="" fill="#7F7F7F" transform="translate(0,0)"/>
<path d="" fill="#5555AA" transform="translate(0,0)"/>
<path d="" fill="#5555AA" transform="translate(0,0)"/>
<path d="" fill="#AAAAAA" transform="translate(0,0)"/>
<path d="" fill="#AAAAAA" transform="translate(0,0)"/>
<path d="" fill="#AAAAAA" transform="translate(0,0)"/>
<path d="" fill="#7F7FFF" transform="translate(0,0)"/>
<path d="" fill="#7F7F7F" transform="translate(0,0)"/>
<path d="" fill="#AAAAAA" transform="translate(0,0)"/>
<path d="" fill="#AAAAAA" transform="translate(0,0)"/>
<path d="" fill="#7F7F7F" transform="translate(0,0)"/>
<path d="" fill="#AAAAAA" transform="translate(0,0)"/>
<path d="" fill="#AAAAAA" transform="translate(0,0)"/>
<path d="" fill="#7F7F7F" transform="translate(0,0)"/>
<path d="" fill="#AAAAAA" transform="translate(0,0)"/>
<path d="" fill="#AAAAAA" transform="translate(0,0)"/>
<path d="" fill="#AAAAAA" transform="translate(0,0)"/>
<path d="" fill="#AAAAAA" transform="translate(0,0)"/>
<path d="" fill="#AAAAAA" transform="translate(0,0)"/>
<path d="" fill="#FFFFFF" transform="translate(0,0)"/>
<path d="" fill="#7F7F7F" transform="translate(0,0)"/>
<path d="" fill="#AAAAAA" transform="translate(0,0)"/>
<path d="" fill="#AAAAAA" transform="translate(0,0)"/>
<path d="" fill="#AAAAAA" transform="translate(0,0)"/>
<path d="" fill="#7F7F7F" transform="translate(0,0)"/>
<path d="" fill="#AAAAAA" transform="translate(0,0)"/>
<path d="" fill="#7F7F7F" transform="translate(0,0)"/>
<path d="" fill="#7F7FFF" transform="translate(0,0)"/>
<path d="" fill="#AAAAAA" transform="translate(0,0)"/>
<path d="" fill="#AAAAAA" transform="translate(0,0)"/>
<path d="" fill="#AAAAAA" transform="translate(0,0)"/>
<path d="" fill="#AAAAAA" transform="translate(0,0)"/>
<path d="" fill="#AAAAAA" transform="translate(0,0)"/>
<path d="" fill="#5555AA" transform="translate(0,0)"/>
<path d="" fill="#5555AA" transform="translate(0,0)"/>
<path d="" fill="#7F7F7F" transform="translate(0,0)"/>
<path d="" fill="#7F7F7F" transform="translate(0,0)"/>
<path d="" fill="#AAAAAA" transform="translate(0,0)"/>
<path d="" fill="#7F7FBF" transform="translate(0,0)"/>
<path d="" fill="#7F7F7F" transform="translate(0,0)"/>
<path d="" fill="#7F7FBF" transform="translate(0,0)"/>
<path d="" fill="#999999" transform="translate(0,0)"/>
<path d="" fill="#7F7F7F" transform="translate(0,0)"/>
<path d="" fill="#999999" transform="translate(0,0)"/>
<path d="" fill="#AAAAAA" transform="translate(0,0)"/>
<path d="" fill="#AAAAAA" transform="translate(0,0)"/>
<path d="" fill="#AAAAAA" transform="translate(0,0)"/>
<path d="" fill="#AAAAAA" transform="translate(0,0)"/>
<path d="" fill="#AAAAAA" transform="translate(0,0)"/>
<path d="" fill="#AAAAAA" transform="translate(0,0)"/>
<path d="" fill="#7F7FBF" transform="translate(0,0)"/>
<path d="" fill="#7F7FBF" transform="translate(0,0)"/>
<path d="" fill="#000000" transform="translate(0,0)"/>
<path d="" fill="#7FBFBF" transform="translate(0,0)"/>
<path d="" fill="#7F7FBF" transform="translate(0,0)"/>
<path d="" fill="#7F7F7F" transform="translate(0,0)"/>
<path d="" fill="#7F7F7F" transform="translate(0,0)"/>
<path d="" fill="#7F7F7F" transform="translate(0,0)"/>
<path d="" fill="#7F7F7F" transform="translate(0,0)"/>
<path d="" fill="#7F7F7F" transform="translate(0,0)"/>
<path d="" fill="#7F7F7F" transform="translate(0,0)"/>
<path d="" fill="#AAAAAA" transform="translate(0,0)"/>
</svg>
