<?xml version="1.0" encoding="UTF-8"?>
<!-- Generator: visioncortex VTracer 0.6.12 -->
<svg version="1.1" xmlns="http://www.w3.org/2000/svg" width="112" height="80">
<path d="M0 0 C9.57 0 19.14 0 29 0 C29 2.64 29 5.28 29 8 C22.4 8 15.8 8 9 8 C9 10.97 9 13.94 9 17 C10.32 16.34 11.64 15.68 13 15 C18.247 14.514 21.576 15.115 26 18 C30.214 21.933 31.808 24.915 32.129 30.695 C31.817 36.269 30.092 39.859 26.25 43.875 C20.627 47.552 15.767 48.501 9.211 47.539 C4.534 46.399 1.102 44.386 -1.938 40.562 C-3 38 -3 38 -3 33 C0.3 33 3.6 33 7 33 C7.66 34.32 8.32 35.64 9 37 C12.622 38.006 14.918 38.444 18.438 37 C20.783 33.997 20.396 31.697 20 28 C18 25 18 25 15.125 24.188 C11.731 23.984 10.906 24.503 8 26 C4.282 26.196 1.54 26.18 -2 25 C-2.32 4.64 -2.32 4.64 0 0 Z " fill="#888D93" transform="translate(25,16)"/>
<path d="M0 0 C0 15.51 0 31.02 0 47 C-3.3 47 -6.6 47 -10 47 C-10.33 35.12 -10.66 23.24 -11 11 C-13.64 12.65 -16.28 14.3 -19 16 C-19.66 16 -20.32 16 -21 16 C-21.623 12.495 -21.824 9.483 -21 6 C-14.829 -0.708 -9.111 0 0 0 Z " fill="#888D93" transform="translate(90,16)"/>
<path d="M0 0 C1.938 1.688 1.938 1.688 3 4 C2.923 7.175 2.399 8.542 0.312 10.938 C-2 12 -2 12 -5.188 11.25 C-8 10 -8 10 -9 9 C-9.456 3.759 -9.456 3.759 -7.875 1.125 C-5.089 -0.547 -3.18 -0.464 0 0 Z " fill="#888D93" transform="translate(68,52)"/>
</svg>
