<?xml version="1.0" encoding="UTF-8"?>
<!-- Generator: visioncortex VTracer 0.6.12 -->
<svg version="1.1" xmlns="http://www.w3.org/2000/svg" width="732" height="320">
<path d="M0 0 C19.8 0 39.6 0 60 0 C61.684 4.21 62.241 5.79 62 10 C62.66 10 63.32 10 64 10 C64 11.98 64 13.96 64 16 C64.66 16 65.32 16 66 16 C69.429 24.429 69.429 24.429 69 29 C69.66 29 70.32 29 71 29 C71.33 31.64 71.66 34.28 72 37 C72.66 37 73.32 37 74 37 C74 38.98 74 40.96 74 43 C74.66 43 75.32 43 76 43 C76.33 45.64 76.66 48.28 77 51 C77.66 51 78.32 51 79 51 C79.33 53.64 79.66 56.28 80 59 C80.66 59 81.32 59 82 59 C82 60.65 82 62.3 82 64 C82.66 64 83.32 64 84 64 C84 65.98 84 67.96 84 70 C84.66 70 85.32 70 86 70 C86.33 72.64 86.66 75.28 87 78 C87.66 78 88.32 78 89 78 C89 79.65 89 81.3 89 83 C89.66 83 90.32 83 91 83 C91.205 83.759 91.41 84.519 91.621 85.301 C91.891 86.295 92.16 87.289 92.438 88.312 C92.704 89.299 92.971 90.285 93.246 91.301 C93.781 93.215 94.371 95.114 95 97 C95.33 97.99 95.66 98.98 96 100 C97 102 97 102 99 105 C99.125 107.688 99.125 107.688 99 110 C99.66 110 100.32 110 101 110 C101 111.98 101 113.96 101 116 C101.66 116 102.32 116 103 116 C103.33 118.64 103.66 121.28 104 124 C104.66 124 105.32 124 106 124 C106 125.65 106 127.3 106 129 C106.66 129 107.32 129 108 129 C108.33 131.64 108.66 134.28 109 137 C109.66 137 110.32 137 111 137 C111 138.98 111 140.96 111 143 C111.66 143 112.32 143 113 143 C113.33 145.64 113.66 148.28 114 151 C114.66 151 115.32 151 116 151 C116.33 153.64 116.66 156.28 117 159 C117.66 159 118.32 159 119 159 C119 160.65 119 162.3 119 164 C119.66 164 120.32 164 121 164 C121 165.98 121 167.96 121 170 C121.66 170 122.32 170 123 170 C123 171.98 123 173.96 123 176 C116.362 176.101 109.723 176.171 103.084 176.22 C100.825 176.24 98.566 176.267 96.307 176.302 C93.063 176.35 89.819 176.373 86.574 176.391 C85.562 176.411 84.549 176.432 83.506 176.453 C83.035 176.453 83.035 176.453 80.655 176.454 C79.827 176.463 78.998 176.472 78.145 176.481 C76 176 76 176 74.334 174.159 C73.894 173.447 73.454 172.734 73 172 C72.34 171.01 71.68 170.02 71 169 C70.556 166.951 70.187 164.885 69.875 162.812 C69.791 162.269 69.791 162.269 69.367 159.52 C69.246 158.688 69.125 157.857 69 157 C68.34 157 67.68 157 67 157 C66.01 153.37 65.02 149.74 64 146 C41.56 146 19.12 146 -4 146 C-4.165 146.99 -4.165 146.99 -5 152 C-5.66 152 -6.32 152 -7 152 C-7.66 155.63 -8.32 159.26 -9 163 C-9.66 163 -10.32 163 -11 163 C-11.049 163.615 -11.098 164.23 -11.148 164.863 C-11.223 165.672 -11.298 166.48 -11.375 167.312 C-11.445 168.113 -11.514 168.914 -11.586 169.738 C-12 172 -12 172 -14 175 C-16.396 176.198 -17.868 176.121 -20.542 176.114 C-21.482 176.113 -22.423 176.113 -23.392 176.113 C-24.41 176.108 -25.428 176.103 -26.477 176.098 C-26.997 176.097 -26.997 176.097 -29.629 176.093 C-32.961 176.088 -36.293 176.075 -39.625 176.062 C-41.88 176.057 -44.135 176.053 -46.391 176.049 C-51.927 176.038 -57.464 176.021 -63 176 C-63 174.02 -63 172.04 -63 170 C-62.34 170 -61.68 170 -61 170 C-61.041 169.051 -61.083 168.102 -61.125 167.125 C-61 164 -61 164 -59 162 C-58.67 161.01 -58.34 160.02 -58 159 C-57 156 -57 156 -56 154 C-55.641 152.004 -55.305 150.005 -55 148 C-54.34 148 -53.68 148 -53 148 C-53 146.35 -53 144.7 -53 143 C-52.34 143 -51.68 143 -51 143 C-51.062 142.175 -51.124 141.35 -51.188 140.5 C-50.953 136.118 -49.674 133.045 -48 129 C-47.34 129 -46.68 129 -46 129 C-46 127.35 -46 125.7 -46 124 C-45.34 124 -44.68 124 -44 124 C-43.67 121.36 -43.34 118.72 -43 116 C-42.34 116 -41.68 116 -41 116 C-40.691 114.742 -40.381 113.484 -40.062 112.188 C-39.123 108.367 -38.215 105.323 -36 102 C-35.875 99.312 -35.875 99.312 -36 97 C-35.34 97 -34.68 97 -34 97 C-33.34 93.37 -32.68 89.74 -32 86 C-31.34 86 -30.68 86 -30 86 C-29.34 82.37 -28.68 78.74 -28 75 C-27.34 75 -26.68 75 -26 75 C-26 73.35 -26 71.7 -26 70 C-25.34 70 -24.68 70 -24 70 C-24.041 69.051 -24.082 68.103 -24.125 67.125 C-24 64 -24 64 -22 62 C-21.67 61.01 -21.34 60.02 -21 59 C-20 56 -20 56 -19 54 C-18.641 52.004 -18.305 50.005 -18 48 C-17.34 48 -16.68 48 -16 48 C-16 46.35 -16 44.7 -16 43 C-15.34 43 -14.68 43 -14 43 C-13.67 40.36 -13.34 37.72 -13 35 C-12.34 35 -11.68 35 -11 35 C-11 33.02 -11 31.04 -11 29 C-10.34 29 -9.68 29 -9 29 C-8.67 26.36 -8.34 23.72 -8 21 C-7.34 21 -6.68 21 -6 21 C-6 19.35 -6 17.7 -6 16 C-5.34 16 -4.68 16 -4 16 C-4 14.02 -4 12.04 -4 10 C-3.34 10 -2.68 10 -2 10 C-2 8.35 -2 6.7 -2 5 C-1.34 5 -0.68 5 0 5 C0 3.35 0 1.7 0 0 Z M60 5 C61 7 61 7 61 7 Z M-8 24 C-7 26 -7 26 -7 26 Z M67 24 C68 26 68 26 68 26 Z M70 32 C71 34 71 34 71 34 Z M30 44 C29.67 45.32 29.34 46.64 29 48 C29.66 47.67 30.32 47.34 31 47 C30.67 46.01 30.34 45.02 30 44 Z M28 48 C29 50 29 50 29 50 Z M31 48 C31 48.66 31 49.32 31 50 C30.34 50 29.68 50 29 50 C28.546 51.114 28.092 52.227 27.625 53.375 C26 57 26 57 24 59 C23.656 60.988 23.656 60.988 23.5 63.312 C23.174 66.867 22.699 69.801 21 73 C20.34 73.33 19.68 73.66 19 74 C18.392 76.764 18.041 79.532 17.66 82.336 C16.93 85.281 16.099 85.952 14 88 C13.594 90.156 13.594 90.156 13.5 92.5 C13.349 96.269 12.738 97.46 10 100 C9.1 103.6 8.817 105.45 10 109 C23.2 109 36.4 109 50 109 C51.041 102.756 50.685 101.37 48 96 C46.596 93.192 46.253 90.268 45.695 87.191 C44.901 84.687 43.839 83.815 42 82 C41.375 80.055 41.375 80.055 41 77.875 C38.587 65.587 38.587 65.587 35 62 C34.372 58.93 33.981 55.855 33.562 52.75 C33 50 33 50 31 48 Z M-18 51 C-17 53 -17 53 -17 53 Z M27 51 C28 53 28 53 28 53 Z M26 54 C27 56 27 56 27 56 Z M-23 65 C-22 67 -22 67 -22 67 Z M40 74 C41 76 41 76 41 76 Z M41 77 C42 79 42 79 42 79 Z M-28 78 C-27 80 -27 80 -27 80 Z M17 80 C18 82 18 82 18 82 Z M42 80 C43 82 43 82 43 82 Z M16 83 C17 85 17 85 17 85 Z M90 86 C91 88 91 88 91 88 Z M-32 89 C-31 91 -31 91 -31 91 Z M91 89 C92 91 92 91 92 91 Z M97 105 C98 107 98 107 98 107 Z M8 106 C9 108 9 108 9 108 Z M51 106 C52 108 52 108 52 108 Z M7 110 C7 110.33 7 110.66 7 111 C22.18 111 37.36 111 53 111 C53 110.67 53 110.34 53 110 C37.82 110 22.64 110 7 110 Z M-48 132 C-47 134 -47 134 -47 134 Z M107 132 C108 134 108 134 108 134 Z M-49 135 C-48 137 -48 137 -48 137 Z M-5 144 C-5 144.33 -5 144.66 -5 145 C18.1 145 41.2 145 65 145 C65 144.67 65 144.34 65 144 C41.9 144 18.8 144 -5 144 Z M65 146 C66 148 66 148 66 148 Z M66 149 C67 151 67 151 67 151 Z M-55 151 C-54 153 -54 153 -54 153 Z M67 152 C68 154 68 154 68 154 Z M-10 158 C-9 160 -9 160 -9 160 Z M-60 165 C-59 167 -59 167 -59 167 Z " fill="#878C91" transform="translate(287,72)"/>
<path d="M0 0 C15.84 0 31.68 0 48 0 C48.66 2.97 49.32 5.94 50 9 C50.66 9 51.32 9 52 9 C52.165 10.32 52.165 10.32 53 17 C53.66 17 54.32 17 55 17 C55 18.98 55 20.96 55 23 C55.66 23 56.32 23 57 23 C57 24.65 57 26.3 57 28 C57.66 28 58.32 28 59 28 C59 29.98 59 31.96 59 34 C59.66 34 60.32 34 61 34 C61.165 35.32 61.165 35.32 62 42 C62.66 42 63.32 42 64 42 C67.444 51.41 67.444 51.41 67 56 C67.66 56 68.32 56 69 56 C69 57.98 69 59.96 69 62 C69.66 62 70.32 62 71 62 C71 63.65 71 65.3 71 67 C71.66 67 72.32 67 73 67 C73.165 68.485 73.165 68.485 74 76 C74.66 76 75.32 76 76 76 C76 77.65 76 79.3 76 81 C76.66 81 77.32 81 78 81 C78 82.98 78 84.96 78 87 C78.66 87 79.32 87 80 87 C80.165 88.32 80.165 88.32 81 95 C81.66 95 82.32 95 83 95 C83 96.98 83 98.96 83 101 C83.66 101 84.32 101 85 101 C85 102.65 85 104.3 85 106 C85.66 106 86.32 106 87 106 C87 107.98 87 109.96 87 112 C87.66 112 88.32 112 89 112 C89.165 113.32 89.165 113.32 90 120 C91.65 119.67 93.3 119.34 95 119 C95.33 116.36 95.66 113.72 96 111 C96.66 111 97.32 111 98 111 C98 109.02 98 107.04 98 105 C98.66 105 99.32 105 100 105 C100.124 103.804 100.248 102.608 100.375 101.375 C100.823 97.724 101.704 94.455 103 91 C103.66 91 104.32 91 105 91 C105 89.35 105 87.7 105 86 C105.66 86 106.32 86 107 86 C107.33 83.03 107.66 80.06 108 77 C108.66 77 109.32 77 110 77 C110 75.35 110 73.7 110 72 C110.66 72 111.32 72 112 72 C112.33 69.03 112.66 66.06 113 63 C113.66 63 114.32 63 115 63 C115 61.35 115 59.7 115 58 C115.66 58 116.32 58 117 58 C117.049 57.408 117.098 56.817 117.148 56.207 C117.565 51.809 118.05 48.031 120 44 C120.66 44 121.32 44 122 44 C122 42.02 122 40.04 122 38 C122.66 38 123.32 38 124 38 C124.33 35.36 124.66 32.72 125 30 C125.66 30 126.32 30 127 30 C127 28.02 127 26.04 127 24 C127.66 24 128.32 24 129 24 C129.33 21.36 129.66 18.72 130 16 C130.66 16 131.32 16 132 16 C132 14.02 132 12.04 132 10 C132.66 10 133.32 10 134 10 C134 8.35 134 6.7 134 5 C134.66 5 135.32 5 136 5 C136 3.35 136 1.7 136 0 C152.83 0 169.66 0 187 0 C186.34 1.32 185.68 2.64 185 4 C184.109 6.674 183.523 9.237 183 12 C182.34 12 181.68 12 181 12 C181 13.98 181 15.96 181 18 C180.34 18 179.68 18 179 18 C178.67 20.64 178.34 23.28 178 26 C177.34 26 176.68 26 176 26 C176 27.65 176 29.3 176 31 C175.34 31 174.68 31 174 31 C174.041 31.887 174.082 32.774 174.125 33.688 C174.001 36.973 173.386 39.054 172 42 C171.34 42 170.68 42 170 42 C169.67 44.64 169.34 47.28 169 50 C168.34 50 167.68 50 167 50 C166.67 52.64 166.34 55.28 166 58 C165.34 58 164.68 58 164 58 C162.795 62.658 161.715 67.236 161 72 C160.34 72 159.68 72 159 72 C159 73.65 159 75.3 159 77 C158.34 77 157.68 77 157 77 C156.67 79.64 156.34 82.28 156 85 C155.34 85 154.68 85 154 85 C154 86.98 154 88.96 154 91 C153.34 91 152.68 91 152 91 C151.67 93.64 151.34 96.28 151 99 C150.34 99 149.68 99 149 99 C149 100.65 149 102.3 149 104 C148.34 104 147.68 104 147 104 C146.67 106.64 146.34 109.28 146 112 C145.34 112 144.68 112 144 112 C144 113.98 144 115.96 144 118 C143.34 118 142.68 118 142 118 C141.67 120.64 141.34 123.28 141 126 C140.34 126 139.68 126 139 126 C139 127.65 139 129.3 139 131 C138.34 131 137.68 131 137 131 C137.041 131.887 137.082 132.774 137.125 133.688 C137.001 136.973 136.386 139.054 135 142 C134.34 142 133.68 142 133 142 C132.67 144.64 132.34 147.28 132 150 C131.34 150 130.68 150 130 150 C129.67 152.64 129.34 155.28 129 158 C128.34 158 127.68 158 127 158 C127.041 158.887 127.082 159.774 127.125 160.688 C127.001 163.973 126.386 166.054 125 169 C124.34 169 123.68 169 123 169 C122.67 171.31 122.34 173.62 122 176 C102.2 176 82.4 176 62 176 C61.67 173.36 61.34 170.72 61 168 C60.34 168 59.68 168 59 168 C59 166.02 59 164.04 59 162 C58.34 162 57.68 162 57 162 C56.67 159.36 56.34 156.72 56 154 C55.34 154 54.68 154 54 154 C54 152.35 54 150.7 54 149 C53.34 149 52.68 149 52 149 C51.67 146.36 51.34 143.72 51 141 C50.34 141 49.68 141 49 141 C49 139.02 49 137.04 49 135 C48.34 135 47.68 135 47 135 C46.67 132.36 46.34 129.72 46 127 C45.34 127 44.68 127 44 127 C44 125.35 44 123.7 44 122 C43.34 122 42.68 122 42 122 C41.835 120.68 41.835 120.68 41 114 C40.34 114 39.68 114 39 114 C39 112.02 39 110.04 39 108 C38.34 108 37.68 108 37 108 C33.571 99.571 33.571 99.571 34 95 C33.34 95 32.68 95 32 95 C32 93.02 32 91.04 32 89 C31.34 89 30.68 89 30 89 C29.67 86.36 29.34 83.72 29 81 C28.34 81 27.68 81 27 81 C27 79.35 27 77.7 27 76 C26.34 76 25.68 76 25 76 C24.67 73.36 24.34 70.72 24 68 C23.34 68 22.68 68 22 68 C22 66.02 22 64.04 22 62 C21.34 62 20.68 62 20 62 C19.67 59.36 19.34 56.72 19 54 C18.34 54 17.68 54 17 54 C17 52.35 17 50.7 17 49 C16.34 49 15.68 49 15 49 C14.879 48.241 14.758 47.481 14.633 46.699 C14.465 45.705 14.298 44.711 14.125 43.688 C13.963 42.701 13.8 41.715 13.633 40.699 C13 38 13 38 11 35 C8.848 31.772 8.799 30.716 9 27 C8.34 27 7.68 27 7 27 C7 25.35 7 23.7 7 22 C6.34 22 5.68 22 5 22 C4.67 19.36 4.34 16.72 4 14 C3.34 14 2.68 14 2 14 C2 12.02 2 10.04 2 8 C1.34 8 0.68 8 0 8 C-0.8 4.713 -1.097 3.29 0 0 Z M51 12 C52 14 52 14 52 14 Z M5 17 C6 19 6 19 6 19 Z M130 19 C131 21 131 21 131 21 Z M177 21 C178 23 178 23 178 23 Z M125 33 C126 35 126 35 126 35 Z M172 34 C173 36 173 36 173 36 Z M60 37 C61 39 61 39 61 39 Z M171 37 C172 39 172 39 172 39 Z M15 44 C16 46 16 46 16 46 Z M120 47 C121 49 121 49 121 49 Z M64 48 C65 50 65 50 65 50 Z M119 50 C120 52 120 52 120 52 Z M65 51 C66 53 66 53 66 53 Z M160 67 C161 69 161 69 161 69 Z M25 71 C26 73 26 73 26 73 Z M79 90 C80 92 80 92 80 92 Z M150 94 C151 96 151 96 151 96 Z M102 97 C103 99 103 99 103 99 Z M35 98 C36 100 36 100 36 100 Z M101 100 C102 102 102 102 102 102 Z M88 115 C89 117 89 117 89 117 Z M42 117 C43 119 43 119 43 119 Z M140 121 C141 123 141 123 141 123 Z M93 122 C94 125 94 125 94 125 Z M91 123 C91 123.99 91 124.98 91 126 C91.66 125.67 92.32 125.34 93 125 C92.34 124.34 91.68 123.68 91 123 Z M135 134 C136 136 136 136 136 136 Z M134 137 C135 139 135 139 135 139 Z M52 144 C53 146 53 146 53 146 Z M125 161 C126 163 126 163 126 163 Z M124 164 C125 166 125 166 125 166 Z M62 171 C63 173 63 173 63 173 Z " fill="#878C92" transform="translate(395,72)"/>
<path d="M0 0 C0 46.86 0 93.72 0 142 C13.2 142 26.4 142 40 142 C40 153.22 40 164.44 40 176 C-0.92 176 -41.84 176 -84 176 C-84 144 -84 144 -83 142 C-70.79 142 -58.58 142 -46 142 C-46.33 106.36 -46.66 70.72 -47 34 C-58.236 35.124 -58.236 35.124 -63.086 36.191 C-64.118 36.414 -65.151 36.636 -66.215 36.865 C-67.258 37.095 -68.301 37.325 -69.375 37.562 C-71.486 38.026 -73.598 38.486 -75.711 38.941 C-76.171 39.043 -76.171 39.043 -78.501 39.557 C-81 40 -81 40 -85 40 C-85 29.44 -85 18.88 -85 8 C-81.04 7.01 -77.08 6.02 -73 5 C-71.449 4.542 -69.899 4.085 -68.301 3.613 C-44.998 -2.463 -25.637 0 0 0 Z M-45 34 C-45 69.64 -45 105.28 -45 142 C-44.67 142 -44.34 142 -44 142 C-44 106.36 -44 70.72 -44 34 C-44.33 34 -44.66 34 -45 34 Z " fill="#898E94" transform="translate(692,72)"/>
<path d="M0 0 C3.092 1.376 5.195 2.95 7.574 5.347 C8.265 6.038 8.956 6.729 9.668 7.442 C10.416 8.2 11.164 8.958 11.934 9.739 C12.729 10.537 13.525 11.335 14.345 12.158 C16.071 13.892 17.795 15.629 19.517 17.367 C22.24 20.115 24.969 22.857 27.699 25.597 C33.493 31.413 39.278 37.237 45.062 43.062 C51.767 49.815 58.476 56.564 65.192 63.304 C67.886 66.011 70.573 68.723 73.261 71.436 C74.905 73.088 76.55 74.739 78.196 76.391 C78.945 77.151 79.695 77.911 80.467 78.694 C81.156 79.382 81.844 80.071 82.553 80.78 C82.851 81.081 82.851 81.081 84.361 82.602 C86 84 86 84 89 85 C87.616 88.115 86.017 90.231 83.608 92.632 C82.907 93.336 82.206 94.04 81.484 94.765 C81.099 95.146 81.099 95.146 79.154 97.073 C78.749 97.478 78.749 97.478 76.7 99.528 C74.021 102.206 71.335 104.876 68.648 107.547 C66.79 109.402 64.932 111.257 63.074 113.112 C58.683 117.497 54.287 121.877 49.889 126.255 C44.882 131.24 39.88 136.231 34.878 141.222 C24.592 151.488 14.298 161.746 4 172 C0.339 170.727 -2.023 169.35 -4.752 166.608 C-5.458 165.907 -6.163 165.206 -6.889 164.484 C-7.268 164.099 -7.268 164.099 -9.187 162.154 C-9.997 161.344 -10.807 160.534 -11.642 159.7 C-14.317 157.023 -16.981 154.336 -19.645 151.648 C-21.498 149.79 -23.351 147.932 -25.206 146.074 C-29.585 141.685 -33.958 137.289 -38.327 132.889 C-43.303 127.88 -48.287 122.879 -53.273 117.878 C-63.525 107.595 -73.766 97.301 -84 87 C-82.629 83.927 -81.072 81.825 -78.691 79.457 C-78.008 78.773 -77.325 78.089 -76.622 77.384 C-76.248 77.014 -76.248 77.014 -74.353 75.142 C-73.959 74.748 -73.959 74.748 -71.963 72.756 C-69.354 70.153 -66.737 67.557 -64.121 64.961 C-62.31 63.156 -60.499 61.35 -58.689 59.544 C-54.408 55.276 -50.124 51.011 -45.837 46.749 C-37.7 38.659 -29.57 30.562 -21.444 22.461 C-18.769 19.796 -16.09 17.135 -13.412 14.474 C-11.78 12.849 -10.149 11.224 -8.517 9.599 C-7.767 8.855 -7.016 8.111 -6.243 7.345 C-5.563 6.666 -4.883 5.988 -4.182 5.289 C-3.588 4.698 -2.994 4.108 -2.382 3.5 C-1 2 -1 2 0 0 Z M-4.057 28.808 C-4.61 29.369 -5.164 29.93 -5.735 30.508 C-6.32 31.093 -6.906 31.678 -7.509 32.281 C-9.451 34.224 -11.386 36.175 -13.32 38.125 C-14.662 39.471 -16.005 40.816 -17.347 42.161 C-20.886 45.707 -24.419 49.26 -27.951 52.814 C-31.554 56.437 -35.162 60.054 -38.77 63.672 C-45.852 70.776 -52.928 77.886 -60 85 C-58.384 89.056 -55.498 91.77 -52.449 94.778 C-52.166 95.061 -52.166 95.061 -50.734 96.494 C-48.866 98.36 -46.992 100.219 -45.117 102.078 C-43.819 103.372 -42.522 104.667 -41.225 105.962 C-37.813 109.366 -34.395 112.764 -30.976 116.161 C-27.487 119.63 -24.003 123.104 -20.52 126.578 C-13.685 133.391 -6.845 140.197 0 147 C4.056 145.384 6.77 142.498 9.778 139.449 C10.345 138.883 10.911 138.317 11.494 137.734 C13.36 135.866 15.219 133.992 17.078 132.117 C18.372 130.819 19.667 129.522 20.962 128.225 C24.366 124.813 27.764 121.395 31.161 117.976 C34.63 114.487 38.104 111.003 41.578 107.52 C48.391 100.685 55.197 93.845 62 87 C60.383 82.955 57.515 80.234 54.48 77.222 C53.918 76.655 53.355 76.089 52.775 75.506 C50.918 73.639 49.053 71.78 47.188 69.922 C45.894 68.628 44.602 67.333 43.309 66.038 C40.602 63.328 37.892 60.622 35.179 57.918 C31.695 54.445 28.22 50.964 24.747 47.48 C22.081 44.806 19.411 42.138 16.738 39.471 C15.455 38.188 14.172 36.904 12.892 35.619 C11.106 33.828 9.314 32.044 7.52 30.261 C6.988 29.725 6.456 29.189 5.907 28.636 C1.361 24.143 0.451 24.325 -4.057 28.808 Z " fill="#888D93" transform="translate(84,74)"/>
<path d="M0 0 C1.65 0.66 3.3 1.32 5 2 C3.616 5.115 2.017 7.231 -0.392 9.632 C-0.742 9.984 -0.742 9.984 -2.516 11.765 C-2.901 12.146 -2.901 12.146 -4.846 14.073 C-5.656 14.883 -6.466 15.694 -7.3 16.528 C-9.979 19.206 -12.665 21.876 -15.352 24.547 C-17.21 26.402 -19.068 28.257 -20.926 30.112 C-25.317 34.497 -29.713 38.877 -34.111 43.255 C-39.118 48.24 -44.12 53.231 -49.122 58.222 C-59.408 68.488 -69.702 78.746 -80 89 C-80.66 88.67 -81.32 88.34 -82 88 C-81.571 87.577 -81.143 87.154 -80.701 86.718 C-70.278 76.427 -59.871 66.12 -49.483 55.793 C-44.458 50.8 -39.429 45.813 -34.386 40.839 C-29.522 36.041 -24.675 31.228 -19.836 26.405 C-17.985 24.565 -16.128 22.73 -14.266 20.9 C-11.665 18.343 -9.083 15.767 -6.506 13.187 C-5.726 12.429 -4.946 11.67 -4.143 10.889 C-3.446 10.184 -2.749 9.479 -2.031 8.752 C-1.418 8.145 -0.805 7.537 -0.173 6.911 C1 5 1 5 0.689 2.265 C0.462 1.518 0.234 0.77 0 0 Z " fill="#4E637C" transform="translate(168,157)"/>
<path d="M0 0 C0 3 0 3 -1.265 4.634 C-1.862 5.229 -2.46 5.823 -3.075 6.436 C-3.757 7.122 -4.438 7.807 -5.14 8.514 C-5.898 9.26 -6.655 10.007 -7.436 10.776 C-8.226 11.567 -9.016 12.357 -9.83 13.172 C-12.452 15.792 -15.085 18.402 -17.719 21.012 C-19.535 22.823 -21.351 24.635 -23.167 26.447 C-27.464 30.734 -31.769 35.015 -36.076 39.292 C-40.979 44.162 -45.874 49.04 -50.767 53.918 C-60.835 63.955 -70.914 73.981 -81 84 C-81 81 -81 81 -79.735 79.366 C-79.138 78.771 -78.54 78.177 -77.925 77.564 C-77.243 76.878 -76.562 76.193 -75.86 75.486 C-75.102 74.74 -74.345 73.993 -73.564 73.224 C-72.774 72.433 -71.984 71.643 -71.17 70.828 C-68.548 68.208 -65.915 65.598 -63.281 62.988 C-61.465 61.177 -59.649 59.365 -57.833 57.553 C-53.536 53.266 -49.231 48.985 -44.924 44.708 C-40.021 39.838 -35.126 34.96 -30.233 30.082 C-20.165 20.045 -10.086 10.019 0 0 Z " fill="#BDC6E3" transform="translate(82,74)"/>
<path d="M0 0 C0.33 0 0.66 0 1 0 C1 10.56 1 21.12 1 32 C0.67 32 0.34 32 0 32 C0 21.44 0 10.88 0 0 Z " fill="#838383" transform="translate(606,216)"/>
<path d="M0 0 C0.33 0 0.66 0 1 0 C1 10.56 1 21.12 1 32 C0.67 32 0.34 32 0 32 C0 21.44 0 10.88 0 0 Z " fill="#878787" transform="translate(605,80)"/>
<path d="M0 0 C0.33 0.66 0.66 1.32 1 2 C0.34 1.67 -0.32 1.34 -1 1 C-0.67 0.67 -0.34 0.34 0 0 Z M-2 2 C-1.67 2.165 -1.67 2.165 0 3 C0 3.66 0 4.32 0 5 C-0.66 5 -1.32 5 -2 5 C-2 4.01 -2 3.02 -2 2 Z M-5 5 C-4.34 5.165 -4.34 5.165 -1 6 C-1.66 7.32 -2.32 8.64 -3 10 C-3.99 10 -4.98 10 -6 10 C-5.67 8.35 -5.34 6.7 -5 5 Z " fill="#818186" transform="translate(269,129)"/>
<path d="M0 0 C1.65 0 3.3 0 5 0 C5 0.33 5 0.66 5 1 C3.35 1 1.7 1 0 1 C0 0.67 0 0.34 0 0 Z " fill="#657676" transform="translate(611,112)"/>
<path d="M0 0 C1.65 0 3.3 0 5 0 C5 0.33 5 0.66 5 1 C3.35 1 1.7 1 0 1 C0 0.67 0 0.34 0 0 Z " fill="#878787" transform="translate(625,109)"/>
<path d="M0 0 C1.65 0 3.3 0 5 0 C5 0.33 5 0.66 5 1 C3.35 1 1.7 1 0 1 C0 0.67 0 0.34 0 0 Z " fill="#87BABA" transform="translate(630,108)"/>
<path d="M0 0 C1.65 0 3.3 0 5 0 C5 0.33 5 0.66 5 1 C3.35 1 1.7 1 0 1 C0 0.67 0 0.34 0 0 Z " fill="#6E6E6E" transform="translate(635,107)"/>
<path d="M0 0 C1.65 0 3.3 0 5 0 C5 0.33 5 0.66 5 1 C3.35 1 1.7 1 0 1 C0 0.67 0 0.34 0 0 Z " fill="#6E6E6E" transform="translate(640,106)"/>
<path d="M0 0 C1.65 0 3.3 0 5 0 C5 0.33 5 0.66 5 1 C3.35 1 1.7 1 0 1 C0 0.67 0 0.34 0 0 Z " fill="#6E6E6E" transform="translate(609,77)"/>
<path d="M0 0 C1.65 0 3.3 0 5 0 C5 0.33 5 0.66 5 1 C3.35 1 1.7 1 0 1 C0 0.67 0 0.34 0 0 Z " fill="#6E6E6E" transform="translate(614,76)"/>
<path d="M0 0 C1.65 0 3.3 0 5 0 C5 0.33 5 0.66 5 1 C3.35 1 1.7 1 0 1 C0 0.67 0 0.34 0 0 Z " fill="#B2B2B2" transform="translate(619,75)"/>
<path d="M0 0 C1.65 0 3.3 0 5 0 C5 0.33 5 0.66 5 1 C3.35 1 1.7 1 0 1 C0 0.67 0 0.34 0 0 Z " fill="#767676" transform="translate(633,72)"/>
<path d="M0 0 C4 1 4 1 4 1 Z " fill="#4A4A4A" transform="translate(607,113)"/>
<path d="M0 0 C4 1 4 1 4 1 Z " fill="#B4B4B4" transform="translate(616,111)"/>
<path d="M0 0 C4 1 4 1 4 1 Z " fill="#9F9FB4" transform="translate(621,110)"/>
<path d="M0 0 C4 1 4 1 4 1 Z " fill="#9F9FB4" transform="translate(624,74)"/>
<path d="M0 0 C4 1 4 1 4 1 Z " fill="#B4B4B4" transform="translate(629,73)"/>
<path d="" fill="#717171" transform="translate(0,0)"/>
<path d="" fill="#545454" transform="translate(0,0)"/>
<path d="" fill="#A9A9A9" transform="translate(0,0)"/>
<path d="" fill="#A9A9A9" transform="translate(0,0)"/>
<path d="" fill="#7F7F7F" transform="translate(0,0)"/>
<path d="" fill="#D4D4D4" transform="translate(0,0)"/>
<path d="" fill="#7F7F7F" transform="translate(0,0)"/>
<path d="" fill="#A9A9A9" transform="translate(0,0)"/>
<path d="" fill="#A9A9A9" transform="translate(0,0)"/>
<path d="" fill="#7F7F7F" transform="translate(0,0)"/>
<path d="" fill="#545454" transform="translate(0,0)"/>
<path d="" fill="#A9A9A9" transform="translate(0,0)"/>
<path d="" fill="#717171" transform="translate(0,0)"/>
<path d="" fill="#A9A9A9" transform="translate(0,0)"/>
<path d="" fill="#54A9A9" transform="translate(0,0)"/>
<path d="" fill="#464646" transform="translate(0,0)"/>
<path d="" fill="#A9A9A9" transform="translate(0,0)"/>
<path d="" fill="#A9A9A9" transform="translate(0,0)"/>
<path d="" fill="#A9A9A9" transform="translate(0,0)"/>
<path d="" fill="#A9A9A9" transform="translate(0,0)"/>
<path d="" fill="#54A9A9" transform="translate(0,0)"/>
<path d="" fill="#A9A9A9" transform="translate(0,0)"/>
<path d="" fill="#A9A9A9" transform="translate(0,0)"/>
<path d="" fill="#A9A9A9" transform="translate(0,0)"/>
<path d="" fill="#A9A9A9" transform="translate(0,0)"/>
<path d="" fill="#A9A9A9" transform="translate(0,0)"/>
<path d="" fill="#555555" transform="translate(0,0)"/>
<path d="" fill="#A9A9A9" transform="translate(0,0)"/>
<path d="" fill="#A9A9A9" transform="translate(0,0)"/>
<path d="" fill="#A9A9A9" transform="translate(0,0)"/>
<path d="" fill="#A9A9A9" transform="translate(0,0)"/>
<path d="" fill="#636363" transform="translate(0,0)"/>
<path d="" fill="#545454" transform="translate(0,0)"/>
<path d="" fill="#717171" transform="translate(0,0)"/>
<path d="" fill="#717171" transform="translate(0,0)"/>
<path d="" fill="#A9A9A9" transform="translate(0,0)"/>
<path d="" fill="#636363" transform="translate(0,0)"/>
<path d="" fill="#A9A9A9" transform="translate(0,0)"/>
<path d="" fill="#A9A9A9" transform="translate(0,0)"/>
<path d="" fill="#9B9B9B" transform="translate(0,0)"/>
<path d="" fill="#A9A9A9" transform="translate(0,0)"/>
<path d="" fill="#D4D4D4" transform="translate(0,0)"/>
<path d="" fill="#A9A9A9" transform="translate(0,0)"/>
<path d="" fill="#7F7F7F" transform="translate(0,0)"/>
<path d="" fill="#D4D4D4" transform="translate(0,0)"/>
<path d="" fill="#A9A9A9" transform="translate(0,0)"/>
<path d="" fill="#A9A9A9" transform="translate(0,0)"/>
<path d="" fill="#A9A9A9" transform="translate(0,0)"/>
<path d="" fill="#464646" transform="translate(0,0)"/>
<path d="" fill="#A9A9A9" transform="translate(0,0)"/>
<path d="" fill="#A9A9A9" transform="translate(0,0)"/>
<path d="" fill="#5454A9" transform="translate(0,0)"/>
<path d="" fill="#A9A9A9" transform="translate(0,0)"/>
<path d="" fill="#D4D4D4" transform="translate(0,0)"/>
<path d="" fill="#A9A9A9" transform="translate(0,0)"/>
<path d="" fill="#A9A9A9" transform="translate(0,0)"/>
<path d="" fill="#717171" transform="translate(0,0)"/>
<path d="" fill="#D4D4D4" transform="translate(0,0)"/>
<path d="" fill="#464646" transform="translate(0,0)"/>
<path d="" fill="#A9A9A9" transform="translate(0,0)"/>
<path d="" fill="#7F7F7F" transform="translate(0,0)"/>
<path d="" fill="#D4D4D4" transform="translate(0,0)"/>
<path d="" fill="#A9A9A9" transform="translate(0,0)"/>
<path d="" fill="#545454" transform="translate(0,0)"/>
<path d="" fill="#A9A9A9" transform="translate(0,0)"/>
<path d="" fill="#A9A9A9" transform="translate(0,0)"/>
<path d="" fill="#A9A9A9" transform="translate(0,0)"/>
<path d="" fill="#A9A9A9" transform="translate(0,0)"/>
<path d="" fill="#7F7F7F" transform="translate(0,0)"/>
<path d="" fill="#54A9A9" transform="translate(0,0)"/>
<path d="" fill="#545454" transform="translate(0,0)"/>
<path d="" fill="#A9A9A9" transform="translate(0,0)"/>
<path d="" fill="#A9A9A9" transform="translate(0,0)"/>
<path d="" fill="#A9A9A9" transform="translate(0,0)"/>
<path d="" fill="#464646" transform="translate(0,0)"/>
<path d="" fill="#A9A9A9" transform="translate(0,0)"/>
<path d="" fill="#A9A9A9" transform="translate(0,0)"/>
<path d="" fill="#A9A9A9" transform="translate(0,0)"/>
<path d="" fill="#A9A9A9" transform="translate(0,0)"/>
<path d="" fill="#A9A9A9" transform="translate(0,0)"/>
<path d="" fill="#A9A9A9" transform="translate(0,0)"/>
<path d="" fill="#A9A9A9" transform="translate(0,0)"/>
<path d="" fill="#A9A9A9" transform="translate(0,0)"/>
<path d="" fill="#A9A9A9" transform="translate(0,0)"/>
<path d="" fill="#A9A9A9" transform="translate(0,0)"/>
<path d="" fill="#A9A9A9" transform="translate(0,0)"/>
<path d="" fill="#A9A9A9" transform="translate(0,0)"/>
<path d="" fill="#A9A9A9" transform="translate(0,0)"/>
<path d="" fill="#A9A9A9" transform="translate(0,0)"/>
<path d="" fill="#464646" transform="translate(0,0)"/>
<path d="" fill="#A9A9A9" transform="translate(0,0)"/>
<path d="" fill="#545454" transform="translate(0,0)"/>
<path d="" fill="#5454A9" transform="translate(0,0)"/>
<path d="" fill="#AAAAAA" transform="translate(0,0)"/>
<path d="" fill="#AAAAAA" transform="translate(0,0)"/>
<path d="M0 0 C2 1 2 1 2 1 Z " fill="#7F7F7F" transform="translate(84,246)"/>
<path d="" fill="#AAAAAA" transform="translate(0,0)"/>
<path d="" fill="#AAAAAA" transform="translate(0,0)"/>
<path d="" fill="#7FBFBF" transform="translate(0,0)"/>
<path d="" fill="#AAAAAA" transform="translate(0,0)"/>
<path d="" fill="#949494" transform="translate(0,0)"/>
<path d="" fill="#AAAAAA" transform="translate(0,0)"/>
<path d="" fill="#AAAAAA" transform="translate(0,0)"/>
<path d="" fill="#AAAAAA" transform="translate(0,0)"/>
<path d="" fill="#AAAAAA" transform="translate(0,0)"/>
<path d="" fill="#AAAAAA" transform="translate(0,0)"/>
<path d="" fill="#AAAAAA" transform="translate(0,0)"/>
<path d="M0 0 C2 1 2 1 2 1 Z " fill="#9F9FBF" transform="translate(84,219)"/>
<path d="" fill="#949494" transform="translate(0,0)"/>
<path d="" fill="#7FBFBF" transform="translate(0,0)"/>
<path d="" fill="#7FBFBF" transform="translate(0,0)"/>
<path d="" fill="#AAAAAA" transform="translate(0,0)"/>
<path d="" fill="#AAAAAA" transform="translate(0,0)"/>
<path d="" fill="#AAAAAA" transform="translate(0,0)"/>
<path d="" fill="#AAAAAA" transform="translate(0,0)"/>
<path d="" fill="#AAAAAA" transform="translate(0,0)"/>
<path d="" fill="#AAAAAA" transform="translate(0,0)"/>
<path d="" fill="#949494" transform="translate(0,0)"/>
<path d="" fill="#AAAAAA" transform="translate(0,0)"/>
<path d="" fill="#AAAAAA" transform="translate(0,0)"/>
<path d="" fill="#7FBFBF" transform="translate(0,0)"/>
<path d="" fill="#7F7F7F" transform="translate(0,0)"/>
<path d="" fill="#949494" transform="translate(0,0)"/>
<path d="" fill="#BFBFBF" transform="translate(0,0)"/>
<path d="" fill="#949494" transform="translate(0,0)"/>
<path d="" fill="#AAAAAA" transform="translate(0,0)"/>
<path d="" fill="#949494" transform="translate(0,0)"/>
<path d="" fill="#AAAAAA" transform="translate(0,0)"/>
<path d="" fill="#AAAAAA" transform="translate(0,0)"/>
<path d="" fill="#AAAAAA" transform="translate(0,0)"/>
<path d="" fill="#AAAAAA" transform="translate(0,0)"/>
<path d="" fill="#AAAAAA" transform="translate(0,0)"/>
<path d="" fill="#AAAAAA" transform="translate(0,0)"/>
<path d="" fill="#D4D4D4" transform="translate(0,0)"/>
<path d="" fill="#AAAAAA" transform="translate(0,0)"/>
<path d="" fill="#7FBFBF" transform="translate(0,0)"/>
<path d="" fill="#7F7FBF" transform="translate(0,0)"/>
<path d="" fill="#AAAAAA" transform="translate(0,0)"/>
<path d="" fill="#BFBFBF" transform="translate(0,0)"/>
<path d="" fill="#AA7FAA" transform="translate(0,0)"/>
<path d="" fill="#AAAAAA" transform="translate(0,0)"/>
<path d="" fill="#949494" transform="translate(0,0)"/>
<path d="" fill="#AAAAAA" transform="translate(0,0)"/>
<path d="" fill="#AAAAAA" transform="translate(0,0)"/>
<path d="" fill="#AAAAAA" transform="translate(0,0)"/>
<path d="" fill="#AAAAAA" transform="translate(0,0)"/>
<path d="" fill="#AAAAAA" transform="translate(0,0)"/>
<path d="" fill="#AAAAAA" transform="translate(0,0)"/>
<path d="" fill="#949494" transform="translate(0,0)"/>
<path d="" fill="#AAAAAA" transform="translate(0,0)"/>
<path d="" fill="#949494" transform="translate(0,0)"/>
<path d="" fill="#AAAAAA" transform="translate(0,0)"/>
<path d="" fill="#7FBFBF" transform="translate(0,0)"/>
<path d="" fill="#7F7FBF" transform="translate(0,0)"/>
<path d="" fill="#949494" transform="translate(0,0)"/>
<path d="" fill="#AAAAAA" transform="translate(0,0)"/>
<path d="" fill="#AAAAAA" transform="translate(0,0)"/>
<path d="" fill="#AAAAAA" transform="translate(0,0)"/>
<path d="" fill="#AAAAAA" transform="translate(0,0)"/>
<path d="" fill="#AAAAAA" transform="translate(0,0)"/>
<path d="" fill="#AAAAAA" transform="translate(0,0)"/>
<path d="" fill="#AAAAAA" transform="translate(0,0)"/>
<path d="" fill="#AAAAAA" transform="translate(0,0)"/>
<path d="" fill="#AAAAAA" transform="translate(0,0)"/>
<path d="" fill="#7FBFBF" transform="translate(0,0)"/>
<path d="" fill="#AAAAAA" transform="translate(0,0)"/>
<path d="" fill="#AAAAAA" transform="translate(0,0)"/>
<path d="" fill="#7F7FBF" transform="translate(0,0)"/>
<path d="" fill="#AAAAAA" transform="translate(0,0)"/>
<path d="" fill="#AAAAAA" transform="translate(0,0)"/>
<path d="M0 0 C2 1 2 1 2 1 Z " fill="#7F7FBF" transform="translate(84,100)"/>
<path d="" fill="#AAAAAA" transform="translate(0,0)"/>
<path d="" fill="#949494" transform="translate(0,0)"/>
<path d="" fill="#AAAAAA" transform="translate(0,0)"/>
<path d="" fill="#AAAAAA" transform="translate(0,0)"/>
<path d="" fill="#AAAAAA" transform="translate(0,0)"/>
<path d="" fill="#949494" transform="translate(0,0)"/>
<path d="" fill="#AAAAAA" transform="translate(0,0)"/>
<path d="" fill="#7FBFBF" transform="translate(0,0)"/>
<path d="" fill="#AAAAAA" transform="translate(0,0)"/>
<path d="" fill="#6A9494" transform="translate(0,0)"/>
<path d="" fill="#7FBFBF" transform="translate(0,0)"/>
<path d="M0 0 C2 1 2 1 2 1 Z " fill="#555555" transform="translate(607,78)"/>
<path d="" fill="#AAAAAA" transform="translate(0,0)"/>
<path d="M0 0 C2 1 2 1 2 1 Z " fill="#7F7F7F" transform="translate(84,72)"/>
<path d="" fill="#00FFFF" transform="translate(0,0)"/>
<path d="" fill="#AAAAAA" transform="translate(0,0)"/>
<path d="" fill="#AAAAAA" transform="translate(0,0)"/>
<path d="" fill="#000000" transform="translate(0,0)"/>
<path d="" fill="#7F7F7F" transform="translate(0,0)"/>
<path d="" fill="#BFBFBF" transform="translate(0,0)"/>
<path d="" fill="#BFBFBF" transform="translate(0,0)"/>
<path d="" fill="#BFBFBF" transform="translate(0,0)"/>
<path d="" fill="#BFBFBF" transform="translate(0,0)"/>
<path d="" fill="#BFBFBF" transform="translate(0,0)"/>
<path d="" fill="#BFBFBF" transform="translate(0,0)"/>
<path d="" fill="#BFBFBF" transform="translate(0,0)"/>
<path d="" fill="#BFBFBF" transform="translate(0,0)"/>
<path d="" fill="#BFBFBF" transform="translate(0,0)"/>
<path d="" fill="#BFBFBF" transform="translate(0,0)"/>
<path d="" fill="#BFBFBF" transform="translate(0,0)"/>
<path d="" fill="#BFBFBF" transform="translate(0,0)"/>
<path d="" fill="#BFBFBF" transform="translate(0,0)"/>
<path d="" fill="#BFBFBF" transform="translate(0,0)"/>
<path d="" fill="#BFBFBF" transform="translate(0,0)"/>
<path d="" fill="#BFBFBF" transform="translate(0,0)"/>
<path d="" fill="#BFBFBF" transform="translate(0,0)"/>
<path d="" fill="#BFBFBF" transform="translate(0,0)"/>
<path d="" fill="#BFBFBF" transform="translate(0,0)"/>
<path d="" fill="#BFBFBF" transform="translate(0,0)"/>
<path d="" fill="#BFBFBF" transform="translate(0,0)"/>
<path d="" fill="#BFBFBF" transform="translate(0,0)"/>
<path d="" fill="#BFBFBF" transform="translate(0,0)"/>
<path d="" fill="#BFBFBF" transform="translate(0,0)"/>
<path d="" fill="#BFBFBF" transform="translate(0,0)"/>
<path d="" fill="#BFBFBF" transform="translate(0,0)"/>
<path d="" fill="#7F7FBF" transform="translate(0,0)"/>
<path d="" fill="#999999" transform="translate(0,0)"/>
<path d="" fill="#BFBFBF" transform="translate(0,0)"/>
<path d="" fill="#7F7FBF" transform="translate(0,0)"/>
<path d="" fill="#999999" transform="translate(0,0)"/>
<path d="" fill="#BFBFBF" transform="translate(0,0)"/>
<path d="" fill="#7F7FBF" transform="translate(0,0)"/>
<path d="" fill="#999999" transform="translate(0,0)"/>
<path d="" fill="#BFBFBF" transform="translate(0,0)"/>
<path d="" fill="#7F7FBF" transform="translate(0,0)"/>
<path d="" fill="#999999" transform="translate(0,0)"/>
<path d="" fill="#BFBFBF" transform="translate(0,0)"/>
<path d="" fill="#7F7FBF" transform="translate(0,0)"/>
<path d="" fill="#999999" transform="translate(0,0)"/>
<path d="" fill="#BFBFBF" transform="translate(0,0)"/>
<path d="" fill="#7F7FBF" transform="translate(0,0)"/>
<path d="" fill="#999999" transform="translate(0,0)"/>
<path d="" fill="#BFBFBF" transform="translate(0,0)"/>
<path d="" fill="#7F7FBF" transform="translate(0,0)"/>
<path d="" fill="#999999" transform="translate(0,0)"/>
<path d="" fill="#BFBFBF" transform="translate(0,0)"/>
<path d="" fill="#7F7FBF" transform="translate(0,0)"/>
<path d="" fill="#999999" transform="translate(0,0)"/>
<path d="" fill="#BFBFBF" transform="translate(0,0)"/>
<path d="" fill="#7F7FBF" transform="translate(0,0)"/>
<path d="" fill="#999999" transform="translate(0,0)"/>
<path d="" fill="#BFBFBF" transform="translate(0,0)"/>
<path d="" fill="#7F7FBF" transform="translate(0,0)"/>
<path d="" fill="#999999" transform="translate(0,0)"/>
<path d="" fill="#BFBFBF" transform="translate(0,0)"/>
<path d="" fill="#7F7FBF" transform="translate(0,0)"/>
<path d="" fill="#999999" transform="translate(0,0)"/>
<path d="" fill="#BFBFBF" transform="translate(0,0)"/>
<path d="" fill="#7F7FBF" transform="translate(0,0)"/>
<path d="" fill="#999999" transform="translate(0,0)"/>
<path d="" fill="#BFBFBF" transform="translate(0,0)"/>
<path d="" fill="#7F7FBF" transform="translate(0,0)"/>
<path d="" fill="#999999" transform="translate(0,0)"/>
<path d="" fill="#BFBFBF" transform="translate(0,0)"/>
<path d="" fill="#7F7FBF" transform="translate(0,0)"/>
<path d="" fill="#999999" transform="translate(0,0)"/>
<path d="" fill="#BFBFBF" transform="translate(0,0)"/>
<path d="" fill="#7F7FBF" transform="translate(0,0)"/>
<path d="" fill="#999999" transform="translate(0,0)"/>
<path d="" fill="#BFBFBF" transform="translate(0,0)"/>
<path d="" fill="#7F7FBF" transform="translate(0,0)"/>
<path d="" fill="#999999" transform="translate(0,0)"/>
<path d="" fill="#BFBFBF" transform="translate(0,0)"/>
<path d="" fill="#7F7FBF" transform="translate(0,0)"/>
<path d="" fill="#999999" transform="translate(0,0)"/>
<path d="" fill="#BFBFBF" transform="translate(0,0)"/>
<path d="" fill="#7F7FBF" transform="translate(0,0)"/>
<path d="" fill="#999999" transform="translate(0,0)"/>
<path d="" fill="#BFBFBF" transform="translate(0,0)"/>
<path d="" fill="#7F7FBF" transform="translate(0,0)"/>
<path d="" fill="#999999" transform="translate(0,0)"/>
<path d="" fill="#BFBFBF" transform="translate(0,0)"/>
<path d="" fill="#7F7FBF" transform="translate(0,0)"/>
<path d="" fill="#999999" transform="translate(0,0)"/>
<path d="" fill="#BFBFBF" transform="translate(0,0)"/>
<path d="" fill="#7F7FBF" transform="translate(0,0)"/>
<path d="" fill="#999999" transform="translate(0,0)"/>
<path d="" fill="#BFBFBF" transform="translate(0,0)"/>
<path d="" fill="#7F7FBF" transform="translate(0,0)"/>
<path d="" fill="#999999" transform="translate(0,0)"/>
<path d="" fill="#BFBFBF" transform="translate(0,0)"/>
<path d="" fill="#7F7FBF" transform="translate(0,0)"/>
<path d="" fill="#999999" transform="translate(0,0)"/>
<path d="" fill="#BFBFBF" transform="translate(0,0)"/>
<path d="" fill="#7F7FBF" transform="translate(0,0)"/>
<path d="" fill="#999999" transform="translate(0,0)"/>
<path d="" fill="#BFBFBF" transform="translate(0,0)"/>
<path d="" fill="#7F7FBF" transform="translate(0,0)"/>
<path d="" fill="#999999" transform="translate(0,0)"/>
<path d="" fill="#BFBFBF" transform="translate(0,0)"/>
<path d="" fill="#7F7FBF" transform="translate(0,0)"/>
<path d="" fill="#999999" transform="translate(0,0)"/>
<path d="" fill="#BFBFBF" transform="translate(0,0)"/>
<path d="" fill="#7F7FBF" transform="translate(0,0)"/>
<path d="" fill="#999999" transform="translate(0,0)"/>
<path d="" fill="#BFBFBF" transform="translate(0,0)"/>
<path d="" fill="#7F7FBF" transform="translate(0,0)"/>
<path d="" fill="#999999" transform="translate(0,0)"/>
<path d="" fill="#BFBFBF" transform="translate(0,0)"/>
<path d="" fill="#7F7FBF" transform="translate(0,0)"/>
<path d="" fill="#999999" transform="translate(0,0)"/>
<path d="" fill="#BFBFBF" transform="translate(0,0)"/>
<path d="" fill="#7F7FBF" transform="translate(0,0)"/>
<path d="" fill="#999999" transform="translate(0,0)"/>
<path d="" fill="#BFBFBF" transform="translate(0,0)"/>
<path d="" fill="#7F7FBF" transform="translate(0,0)"/>
<path d="" fill="#999999" transform="translate(0,0)"/>
<path d="" fill="#BFBFBF" transform="translate(0,0)"/>
<path d="" fill="#7F7FBF" transform="translate(0,0)"/>
<path d="" fill="#999999" transform="translate(0,0)"/>
<path d="" fill="#BFBFBF" transform="translate(0,0)"/>
<path d="" fill="#7F7F7F" transform="translate(0,0)"/>
<path d="" fill="#999999" transform="translate(0,0)"/>
<path d="" fill="#BFBFBF" transform="translate(0,0)"/>
<path d="" fill="#7F7F7F" transform="translate(0,0)"/>
<path d="" fill="#999999" transform="translate(0,0)"/>
<path d="" fill="#BFBFBF" transform="translate(0,0)"/>
<path d="" fill="#7F7F7F" transform="translate(0,0)"/>
<path d="" fill="#999999" transform="translate(0,0)"/>
<path d="" fill="#BFBFBF" transform="translate(0,0)"/>
<path d="" fill="#7F7F7F" transform="translate(0,0)"/>
<path d="" fill="#999999" transform="translate(0,0)"/>
<path d="" fill="#BFBFBF" transform="translate(0,0)"/>
<path d="" fill="#7F7F7F" transform="translate(0,0)"/>
<path d="" fill="#999999" transform="translate(0,0)"/>
<path d="" fill="#BFBFBF" transform="translate(0,0)"/>
<path d="" fill="#7F7F7F" transform="translate(0,0)"/>
<path d="" fill="#999999" transform="translate(0,0)"/>
<path d="" fill="#BFBFBF" transform="translate(0,0)"/>
<path d="" fill="#7F7F7F" transform="translate(0,0)"/>
<path d="" fill="#999999" transform="translate(0,0)"/>
<path d="" fill="#BFBFBF" transform="translate(0,0)"/>
<path d="" fill="#7F7F7F" transform="translate(0,0)"/>
<path d="" fill="#999999" transform="translate(0,0)"/>
<path d="" fill="#BFBFBF" transform="translate(0,0)"/>
<path d="" fill="#7F7F7F" transform="translate(0,0)"/>
<path d="" fill="#999999" transform="translate(0,0)"/>
<path d="" fill="#BFBFBF" transform="translate(0,0)"/>
<path d="" fill="#7F7F7F" transform="translate(0,0)"/>
<path d="" fill="#999999" transform="translate(0,0)"/>
<path d="" fill="#BFBFBF" transform="translate(0,0)"/>
<path d="" fill="#7F7F7F" transform="translate(0,0)"/>
<path d="" fill="#999999" transform="translate(0,0)"/>
<path d="" fill="#BFBFBF" transform="translate(0,0)"/>
<path d="" fill="#7F7F7F" transform="translate(0,0)"/>
<path d="" fill="#999999" transform="translate(0,0)"/>
<path d="" fill="#BFBFBF" transform="translate(0,0)"/>
<path d="" fill="#7F7F7F" transform="translate(0,0)"/>
<path d="" fill="#999999" transform="translate(0,0)"/>
<path d="" fill="#BFBFBF" transform="translate(0,0)"/>
<path d="" fill="#7F7F7F" transform="translate(0,0)"/>
<path d="" fill="#999999" transform="translate(0,0)"/>
<path d="" fill="#BFBFBF" transform="translate(0,0)"/>
<path d="" fill="#7F7F7F" transform="translate(0,0)"/>
<path d="" fill="#999999" transform="translate(0,0)"/>
<path d="" fill="#BFBFBF" transform="translate(0,0)"/>
<path d="" fill="#7F7F7F" transform="translate(0,0)"/>
<path d="" fill="#999999" transform="translate(0,0)"/>
<path d="" fill="#BFBFBF" transform="translate(0,0)"/>
<path d="" fill="#7F7F7F" transform="translate(0,0)"/>
<path d="" fill="#999999" transform="translate(0,0)"/>
<path d="" fill="#BFBFBF" transform="translate(0,0)"/>
<path d="" fill="#7F7F7F" transform="translate(0,0)"/>
<path d="" fill="#999999" transform="translate(0,0)"/>
<path d="" fill="#BFBFBF" transform="translate(0,0)"/>
<path d="" fill="#7F7F7F" transform="translate(0,0)"/>
<path d="" fill="#999999" transform="translate(0,0)"/>
<path d="" fill="#BFBFBF" transform="translate(0,0)"/>
<path d="" fill="#7F7F7F" transform="translate(0,0)"/>
<path d="" fill="#999999" transform="translate(0,0)"/>
<path d="" fill="#BFBFBF" transform="translate(0,0)"/>
<path d="" fill="#7F7F7F" transform="translate(0,0)"/>
<path d="" fill="#999999" transform="translate(0,0)"/>
<path d="" fill="#BFBFBF" transform="translate(0,0)"/>
<path d="" fill="#7F7F7F" transform="translate(0,0)"/>
<path d="" fill="#999999" transform="translate(0,0)"/>
<path d="" fill="#BFBFBF" transform="translate(0,0)"/>
<path d="" fill="#7F7F7F" transform="translate(0,0)"/>
<path d="" fill="#999999" transform="translate(0,0)"/>
<path d="" fill="#BFBFBF" transform="translate(0,0)"/>
<path d="" fill="#7F7F7F" transform="translate(0,0)"/>
<path d="" fill="#999999" transform="translate(0,0)"/>
<path d="" fill="#BFBFBF" transform="translate(0,0)"/>
<path d="" fill="#7F7F7F" transform="translate(0,0)"/>
<path d="" fill="#999999" transform="translate(0,0)"/>
<path d="" fill="#999999" transform="translate(0,0)"/>
<path d="" fill="#7F7F7F" transform="translate(0,0)"/>
<path d="" fill="#999999" transform="translate(0,0)"/>
<path d="" fill="#AAAAAA" transform="translate(0,0)"/>
<path d="" fill="#7F7FBF" transform="translate(0,0)"/>
<path d="" fill="#7F7F7F" transform="translate(0,0)"/>
<path d="" fill="#AAAAAA" transform="translate(0,0)"/>
<path d="" fill="#7F7FBF" transform="translate(0,0)"/>
<path d="" fill="#7F7F7F" transform="translate(0,0)"/>
<path d="" fill="#AAAAAA" transform="translate(0,0)"/>
<path d="" fill="#7F7FBF" transform="translate(0,0)"/>
<path d="" fill="#7F7F7F" transform="translate(0,0)"/>
<path d="" fill="#AAAAAA" transform="translate(0,0)"/>
<path d="" fill="#7F7FBF" transform="translate(0,0)"/>
<path d="" fill="#7F7F7F" transform="translate(0,0)"/>
<path d="" fill="#AAAAAA" transform="translate(0,0)"/>
<path d="" fill="#7F7FBF" transform="translate(0,0)"/>
<path d="" fill="#7F7F7F" transform="translate(0,0)"/>
<path d="" fill="#AAAAAA" transform="translate(0,0)"/>
<path d="" fill="#7F7FBF" transform="translate(0,0)"/>
<path d="" fill="#7F7F7F" transform="translate(0,0)"/>
<path d="" fill="#AAAAAA" transform="translate(0,0)"/>
<path d="" fill="#7F7FBF" transform="translate(0,0)"/>
<path d="" fill="#7F7F7F" transform="translate(0,0)"/>
<path d="" fill="#AAAAAA" transform="translate(0,0)"/>
<path d="" fill="#7F7FBF" transform="translate(0,0)"/>
<path d="" fill="#7F7F7F" transform="translate(0,0)"/>
<path d="" fill="#AAAAAA" transform="translate(0,0)"/>
<path d="" fill="#7F7FBF" transform="translate(0,0)"/>
<path d="" fill="#7F7F7F" transform="translate(0,0)"/>
<path d="" fill="#AAAAAA" transform="translate(0,0)"/>
<path d="" fill="#7F7FBF" transform="translate(0,0)"/>
<path d="" fill="#7F7F7F" transform="translate(0,0)"/>
<path d="" fill="#AAAAAA" transform="translate(0,0)"/>
<path d="" fill="#7F7FBF" transform="translate(0,0)"/>
<path d="" fill="#7F7F7F" transform="translate(0,0)"/>
<path d="" fill="#AAAAAA" transform="translate(0,0)"/>
<path d="" fill="#7F7FBF" transform="translate(0,0)"/>
<path d="" fill="#7F7F7F" transform="translate(0,0)"/>
<path d="" fill="#AAAAAA" transform="translate(0,0)"/>
<path d="" fill="#7F7FBF" transform="translate(0,0)"/>
<path d="" fill="#7F7F7F" transform="translate(0,0)"/>
<path d="" fill="#AAAAAA" transform="translate(0,0)"/>
<path d="" fill="#7F7FBF" transform="translate(0,0)"/>
<path d="" fill="#7F7F7F" transform="translate(0,0)"/>
<path d="" fill="#AAAAAA" transform="translate(0,0)"/>
<path d="" fill="#7F7FBF" transform="translate(0,0)"/>
<path d="" fill="#7F7F7F" transform="translate(0,0)"/>
<path d="" fill="#AAAAAA" transform="translate(0,0)"/>
<path d="" fill="#7F7FBF" transform="translate(0,0)"/>
<path d="" fill="#7F7F7F" transform="translate(0,0)"/>
<path d="" fill="#AAAAAA" transform="translate(0,0)"/>
<path d="" fill="#7F7FBF" transform="translate(0,0)"/>
<path d="" fill="#7F7F7F" transform="translate(0,0)"/>
<path d="" fill="#AAAAAA" transform="translate(0,0)"/>
<path d="" fill="#7F7FBF" transform="translate(0,0)"/>
<path d="" fill="#7F7F7F" transform="translate(0,0)"/>
<path d="" fill="#AAAAAA" transform="translate(0,0)"/>
<path d="" fill="#7F7FBF" transform="translate(0,0)"/>
<path d="" fill="#7F7F7F" transform="translate(0,0)"/>
<path d="" fill="#AAAAAA" transform="translate(0,0)"/>
<path d="" fill="#7F7FBF" transform="translate(0,0)"/>
<path d="" fill="#7F7F7F" transform="translate(0,0)"/>
<path d="" fill="#AAAAAA" transform="translate(0,0)"/>
<path d="" fill="#7F7FBF" transform="translate(0,0)"/>
<path d="" fill="#7F7F7F" transform="translate(0,0)"/>
<path d="" fill="#AAAAAA" transform="translate(0,0)"/>
<path d="" fill="#7F7FBF" transform="translate(0,0)"/>
<path d="" fill="#7F7F7F" transform="translate(0,0)"/>
<path d="" fill="#AAAAAA" transform="translate(0,0)"/>
<path d="" fill="#7F7FBF" transform="translate(0,0)"/>
<path d="" fill="#7F7F7F" transform="translate(0,0)"/>
<path d="" fill="#AAAAAA" transform="translate(0,0)"/>
<path d="" fill="#7F7FBF" transform="translate(0,0)"/>
<path d="" fill="#7F7F7F" transform="translate(0,0)"/>
<path d="" fill="#AAAAAA" transform="translate(0,0)"/>
<path d="" fill="#7F7FBF" transform="translate(0,0)"/>
<path d="" fill="#7F7F7F" transform="translate(0,0)"/>
<path d="" fill="#AAAAAA" transform="translate(0,0)"/>
<path d="" fill="#7F7FBF" transform="translate(0,0)"/>
<path d="" fill="#7F7F7F" transform="translate(0,0)"/>
<path d="" fill="#AAAAAA" transform="translate(0,0)"/>
<path d="" fill="#7F7FBF" transform="translate(0,0)"/>
<path d="" fill="#7F7F7F" transform="translate(0,0)"/>
<path d="" fill="#AAAAAA" transform="translate(0,0)"/>
<path d="" fill="#7F7FBF" transform="translate(0,0)"/>
<path d="" fill="#7F7F7F" transform="translate(0,0)"/>
<path d="" fill="#AAAAAA" transform="translate(0,0)"/>
<path d="" fill="#7F7FBF" transform="translate(0,0)"/>
<path d="" fill="#7F7F7F" transform="translate(0,0)"/>
<path d="" fill="#AAAAAA" transform="translate(0,0)"/>
<path d="" fill="#7F7FBF" transform="translate(0,0)"/>
<path d="" fill="#7F7F7F" transform="translate(0,0)"/>
<path d="" fill="#AAAAAA" transform="translate(0,0)"/>
<path d="" fill="#7F7FBF" transform="translate(0,0)"/>
<path d="" fill="#7F7F7F" transform="translate(0,0)"/>
<path d="" fill="#AAAAAA" transform="translate(0,0)"/>
<path d="" fill="#7F7FBF" transform="translate(0,0)"/>
<path d="" fill="#7F7F7F" transform="translate(0,0)"/>
<path d="" fill="#AAAAAA" transform="translate(0,0)"/>
<path d="" fill="#7F7FBF" transform="translate(0,0)"/>
<path d="" fill="#7F7F7F" transform="translate(0,0)"/>
<path d="" fill="#AAAAAA" transform="translate(0,0)"/>
<path d="" fill="#7F7FBF" transform="translate(0,0)"/>
<path d="" fill="#7F7F7F" transform="translate(0,0)"/>
<path d="" fill="#AAAAAA" transform="translate(0,0)"/>
<path d="" fill="#7F7F7F" transform="translate(0,0)"/>
<path d="" fill="#7F7F7F" transform="translate(0,0)"/>
<path d="" fill="#AAAAAA" transform="translate(0,0)"/>
<path d="" fill="#7F7F7F" transform="translate(0,0)"/>
<path d="" fill="#7F7F7F" transform="translate(0,0)"/>
<path d="" fill="#AAAAAA" transform="translate(0,0)"/>
<path d="" fill="#7F7F7F" transform="translate(0,0)"/>
<path d="" fill="#7F7F7F" transform="translate(0,0)"/>
<path d="" fill="#AAAAAA" transform="translate(0,0)"/>
<path d="" fill="#7F7F7F" transform="translate(0,0)"/>
<path d="" fill="#7F7F7F" transform="translate(0,0)"/>
<path d="" fill="#AAAAAA" transform="translate(0,0)"/>
<path d="" fill="#7F7F7F" transform="translate(0,0)"/>
<path d="" fill="#7F7F7F" transform="translate(0,0)"/>
<path d="" fill="#AAAAAA" transform="translate(0,0)"/>
<path d="" fill="#7F7F7F" transform="translate(0,0)"/>
<path d="" fill="#7F7F7F" transform="translate(0,0)"/>
<path d="" fill="#AAAAAA" transform="translate(0,0)"/>
<path d="" fill="#7F7F7F" transform="translate(0,0)"/>
<path d="" fill="#7F7F7F" transform="translate(0,0)"/>
<path d="" fill="#AAAAAA" transform="translate(0,0)"/>
<path d="" fill="#7F7F7F" transform="translate(0,0)"/>
<path d="" fill="#7F7F7F" transform="translate(0,0)"/>
<path d="" fill="#AAAAAA" transform="translate(0,0)"/>
<path d="" fill="#7F7F7F" transform="translate(0,0)"/>
<path d="" fill="#7F7F7F" transform="translate(0,0)"/>
<path d="" fill="#AAAAAA" transform="translate(0,0)"/>
<path d="" fill="#7F7F7F" transform="translate(0,0)"/>
<path d="" fill="#7F7F7F" transform="translate(0,0)"/>
<path d="" fill="#AAAAAA" transform="translate(0,0)"/>
<path d="" fill="#7F7F7F" transform="translate(0,0)"/>
<path d="" fill="#7F7F7F" transform="translate(0,0)"/>
<path d="" fill="#AAAAAA" transform="translate(0,0)"/>
<path d="" fill="#7F7F7F" transform="translate(0,0)"/>
<path d="" fill="#7F7F7F" transform="translate(0,0)"/>
<path d="" fill="#AAAAAA" transform="translate(0,0)"/>
<path d="" fill="#7F7F7F" transform="translate(0,0)"/>
<path d="" fill="#7F7F7F" transform="translate(0,0)"/>
<path d="" fill="#AAAAAA" transform="translate(0,0)"/>
<path d="" fill="#7F7F7F" transform="translate(0,0)"/>
<path d="" fill="#7F7F7F" transform="translate(0,0)"/>
<path d="" fill="#AAAAAA" transform="translate(0,0)"/>
<path d="" fill="#7F7F7F" transform="translate(0,0)"/>
<path d="" fill="#7F7F7F" transform="translate(0,0)"/>
<path d="" fill="#AAAAAA" transform="translate(0,0)"/>
<path d="" fill="#7F7F7F" transform="translate(0,0)"/>
<path d="" fill="#7F7F7F" transform="translate(0,0)"/>
<path d="" fill="#AAAAAA" transform="translate(0,0)"/>
<path d="" fill="#7F7F7F" transform="translate(0,0)"/>
<path d="" fill="#7F7F7F" transform="translate(0,0)"/>
<path d="" fill="#AAAAAA" transform="translate(0,0)"/>
<path d="" fill="#7F7F7F" transform="translate(0,0)"/>
<path d="" fill="#7F7F7F" transform="translate(0,0)"/>
<path d="" fill="#AAAAAA" transform="translate(0,0)"/>
<path d="" fill="#7F7F7F" transform="translate(0,0)"/>
<path d="" fill="#7F7F7F" transform="translate(0,0)"/>
<path d="" fill="#AAAAAA" transform="translate(0,0)"/>
<path d="" fill="#7F7F7F" transform="translate(0,0)"/>
<path d="" fill="#7F7F7F" transform="translate(0,0)"/>
<path d="" fill="#AAAAAA" transform="translate(0,0)"/>
<path d="" fill="#7F7F7F" transform="translate(0,0)"/>
<path d="" fill="#7F7FFF" transform="translate(0,0)"/>
<path d="" fill="#AAAAAA" transform="translate(0,0)"/>
<path d="" fill="#7F7F7F" transform="translate(0,0)"/>
<path d="" fill="#7F7FFF" transform="translate(0,0)"/>
<path d="" fill="#AAAAAA" transform="translate(0,0)"/>
<path d="" fill="#7F7F7F" transform="translate(0,0)"/>
<path d="" fill="#7F7FFF" transform="translate(0,0)"/>
<path d="" fill="#AAAAAA" transform="translate(0,0)"/>
<path d="" fill="#7F7F7F" transform="translate(0,0)"/>
<path d="" fill="#7F7FFF" transform="translate(0,0)"/>
<path d="" fill="#7F7FFF" transform="translate(0,0)"/>
<path d="" fill="#7F7FFF" transform="translate(0,0)"/>
<path d="" fill="#7F7FFF" transform="translate(0,0)"/>
<path d="" fill="#7F7FFF" transform="translate(0,0)"/>
<path d="" fill="#7F7FFF" transform="translate(0,0)"/>
<path d="" fill="#7F7FFF" transform="translate(0,0)"/>
<path d="" fill="#7F7FFF" transform="translate(0,0)"/>
<path d="" fill="#7F7FFF" transform="translate(0,0)"/>
<path d="" fill="#7F7FFF" transform="translate(0,0)"/>
<path d="" fill="#7F7FFF" transform="translate(0,0)"/>
<path d="" fill="#7F7FFF" transform="translate(0,0)"/>
<path d="" fill="#7F7FFF" transform="translate(0,0)"/>
<path d="" fill="#7F7FFF" transform="translate(0,0)"/>
<path d="" fill="#7F7FFF" transform="translate(0,0)"/>
<path d="" fill="#7F7FFF" transform="translate(0,0)"/>
<path d="" fill="#7F7FFF" transform="translate(0,0)"/>
<path d="" fill="#7F7FFF" transform="translate(0,0)"/>
<path d="" fill="#7F7FFF" transform="translate(0,0)"/>
<path d="" fill="#7F7FFF" transform="translate(0,0)"/>
<path d="" fill="#7F7FFF" transform="translate(0,0)"/>
<path d="" fill="#7F7FFF" transform="translate(0,0)"/>
<path d="" fill="#7F7FFF" transform="translate(0,0)"/>
<path d="" fill="#7F7FFF" transform="translate(0,0)"/>
<path d="" fill="#7F7FFF" transform="translate(0,0)"/>
<path d="" fill="#7F7FFF" transform="translate(0,0)"/>
<path d="" fill="#7F7F7F" transform="translate(0,0)"/>
<path d="" fill="#FFFFFF" transform="translate(0,0)"/>
</svg>
