<?xml version="1.0" encoding="UTF-8"?>
<!-- Generator: visioncortex VTracer 0.6.12 -->
<svg version="1.1" xmlns="http://www.w3.org/2000/svg" width="688" height="320">
<path d="M0 0 C3.313 2.712 6.393 5.642 9.441 8.645 C12 11 12 11 14.277 12.137 C16 13 16 13 17 16 C17.598 16.557 18.196 17.114 18.812 17.688 C23.164 22.288 25.371 27.709 26 34 C26.66 34 27.32 34 28 34 C28.024 34.302 28.024 34.302 28.148 35.828 C28.186 36.228 28.186 36.228 28.375 38.25 C28.41 38.644 28.41 38.644 28.586 40.641 C29.019 43.11 29.843 44.793 31 47 C37.334 69.324 35.14 96.132 31.38 118.673 C31.028 120.827 30.717 122.982 30.426 125.145 C29.259 133.612 29.259 133.612 27 137 C26 139 26 139 25.707 141.176 C24.756 144.974 22.803 147.948 20.688 151.188 C20.296 151.816 19.905 152.444 19.502 153.092 C17.309 156.492 15.699 158.421 12 160 C10.369 161.448 8.787 162.953 7.25 164.5 C6.451 165.294 5.652 166.088 4.828 166.906 C3 169 3 169 3 171 C2.737 171.048 2.737 171.048 1.406 171.289 C-1.81 172.239 -4.542 173.796 -7.5 175.375 C-25.995 184.937 -48.135 185.245 -68 180 C-79.288 176.327 -89.238 170.503 -97.246 161.699 C-99 160 -99 160 -100.977 159.137 C-108.34 155 -113.544 140.605 -116 133 C-116.414 130.868 -116.624 128.827 -116.758 126.66 C-117.093 122.979 -117.818 119.379 -118.5 115.75 C-122.951 91.214 -122.044 66.098 -115.145 42.141 C-114.236 38.976 -113.625 35.893 -113.188 32.625 C-112.019 26.091 -107.832 20.293 -104 15 C-103.34 14.67 -102.68 14.34 -102 14 C-101.711 13.361 -101.423 12.721 -101.125 12.062 C-99.73 9.506 -98.566 9.279 -96 8 C-94.804 6.97 -93.639 5.904 -92.5 4.812 C-68.761 -16.25 -25.992 -17.672 0 0 Z M-56 25 C-58.312 27.625 -58.312 27.625 -60 31 C-60.867 32.609 -61.742 34.213 -62.625 35.812 C-63.03 36.582 -63.435 37.352 -63.852 38.145 C-65 40 -65 40 -67 41 C-67.414 42.848 -67.414 42.848 -67.625 45.062 C-67.749 46.362 -67.873 47.661 -68 49 C-68.33 49 -68.66 49 -69 49 C-71.075 60.103 -71.341 70.977 -71.316 82.239 C-71.313 85.165 -71.336 88.091 -71.361 91.018 C-71.472 123.921 -71.472 123.921 -63 135 C-59.183 140.606 -59.183 140.606 -57.75 143.688 C-55.136 147.141 -52.152 148.067 -48 149 C-41.89 149.777 -36.427 148.974 -31 146 C-27.35 142.985 -25.455 140.478 -24 136 C-23.333 134.333 -22.667 132.667 -22 131 C-21.34 131 -20.68 131 -20 131 C-11.982 106.143 -9.779 64.53 -20 40 C-21.496 38.355 -21.496 38.355 -23 37 C-25.869 32.697 -25.869 32.697 -26.375 30.008 C-27.402 26.709 -29.674 25.717 -32.562 24.051 C-40.114 20.795 -48.703 21.269 -56 25 Z M28 129 C29 131 29 131 29 131 Z M-115 131 C-114 133 -114 133 -114 133 Z M27 132 C28 134 28 134 28 134 Z M-65 133 C-64 135 -64 135 -64 135 Z M-114 134 C-113 136 -113 136 -113 136 Z M-113 136 C-112 138 -112 138 -112 138 Z " fill="#888D93" transform="translate(471,49)"/>
<path d="M0 0 C0.347 -0.001 0.347 -0.001 2.104 -0.003 C12.759 0.007 22.745 0.679 33.125 3.25 C34.636 3.603 36.148 3.954 37.66 4.305 C48.833 6.958 48.833 6.958 50.125 8.25 C50.214 10.844 50.24 13.41 50.223 16.004 C50.222 16.392 50.222 16.392 50.218 18.354 C50.213 20.84 50.2 23.326 50.188 25.812 C50.182 27.494 50.178 29.176 50.174 30.857 C50.163 34.988 50.146 39.119 50.125 43.25 C46.4 42.696 42.976 41.975 39.438 40.691 C20.252 33.904 0.579 29.331 -18.875 38.25 C-19.205 38.58 -19.205 38.58 -20.875 40.25 C-21.535 40.539 -22.195 40.828 -22.875 41.125 C-25.344 42.514 -25.661 43.746 -26.875 46.25 C-28.203 47.256 -29.537 48.257 -30.875 49.25 C-31.205 50.24 -31.535 51.23 -31.875 52.25 C-32.535 52.25 -33.195 52.25 -33.875 52.25 C-34.356 53.666 -34.835 55.083 -35.312 56.5 C-35.579 57.289 -35.846 58.078 -36.121 58.891 C-36.6 60.389 -37.034 61.902 -37.406 63.43 C-37.875 65.25 -37.875 65.25 -38.938 67.125 C-40.162 69.901 -39.936 72.246 -39.875 75.25 C-38.752 74.768 -37.629 74.286 -36.473 73.789 C-34.961 73.151 -33.449 72.513 -31.938 71.875 C-31.202 71.558 -30.467 71.241 -29.709 70.914 C-12.935 63.882 6.067 64.212 23.125 70.25 C29.54 72.973 35.425 76.26 41.125 80.25 C41.847 80.601 42.569 80.951 43.312 81.312 C45.391 82.388 46.654 83.429 48.125 85.25 C48.29 85.951 48.455 86.653 48.625 87.375 C48.79 87.994 48.955 88.612 49.125 89.25 C50.115 89.58 51.105 89.91 52.125 90.25 C54.796 93.845 55.487 96.878 56.125 101.25 C56.747 102.934 57.4 104.608 58.125 106.25 C58.785 106.25 59.445 106.25 60.125 106.25 C61.649 132.952 61.649 132.952 59.125 146.25 C59.03 147.812 58.946 149.374 58.875 150.938 C58.298 156.626 55.318 161.603 52.125 166.25 C51.135 166.91 50.145 167.57 49.125 168.25 C48.795 169.24 48.465 170.23 48.125 171.25 C46.807 171.946 45.471 172.608 44.125 173.25 C42.719 174.465 41.346 175.719 40 177 C23.787 191.555 2.612 195.302 -18.613 194.402 C-32.209 193.487 -44.316 189.162 -56.035 182.266 C-57.875 181.25 -57.875 181.25 -60.875 180.25 C-61.164 179.652 -61.452 179.054 -61.75 178.438 C-63.726 174.595 -67.352 172.599 -70.875 170.25 C-71.205 169.26 -71.535 168.27 -71.875 167.25 C-72.205 166.93 -72.205 166.93 -73.875 165.312 C-76.013 163.107 -76.224 162.133 -76.875 159.25 C-77.37 158.817 -77.865 158.384 -78.375 157.938 C-80.673 155.352 -80.559 152.602 -80.875 149.25 C-81.535 149.25 -82.195 149.25 -82.875 149.25 C-82.875 147.6 -82.875 145.95 -82.875 144.25 C-83.535 144.25 -84.195 144.25 -84.875 144.25 C-84.845 143.245 -84.816 142.239 -84.785 141.203 C-84.875 137.261 -85.458 133.843 -86.312 130 C-91.619 106.107 -92.139 71.778 -80.875 49.25 C-80.812 48.871 -80.812 48.871 -80.496 46.953 C-79.786 43.862 -78.59 41.699 -76.938 39 C-76.413 38.129 -75.888 37.257 -75.348 36.359 C-73.875 34.25 -73.875 34.25 -71.875 33.25 C-71.545 32.26 -71.215 31.27 -70.875 30.25 C-70.215 29.92 -69.555 29.59 -68.875 29.25 C-68.586 28.611 -68.298 27.971 -68 27.312 C-66.875 25.25 -66.875 25.25 -65.09 24.367 C-62.424 23.023 -60.52 21.318 -58.312 19.312 C-57.548 18.623 -56.784 17.933 -55.996 17.223 C-54.723 16.039 -53.476 14.825 -52.285 13.559 C-50.875 12.25 -50.875 12.25 -47.875 11.25 C-46.193 10.446 -44.512 9.641 -42.836 8.825 C-28.694 1.976 -15.691 0.016 0 0 Z M48.125 8.25 C48.125 19.47 48.125 30.69 48.125 42.25 C48.455 42.25 48.785 42.25 49.125 42.25 C49.125 31.03 49.125 19.81 49.125 8.25 C48.795 8.25 48.465 8.25 48.125 8.25 Z M-26.875 102.25 C-26.875 103.24 -26.875 104.23 -26.875 105.25 C-28.192 106.93 -29.528 108.595 -30.875 110.25 C-31.923 112.225 -32.927 114.225 -33.875 116.25 C-34.228 116.877 -34.581 117.503 -34.944 118.149 C-36.001 120.533 -36.133 122.206 -36.141 124.805 C-36.143 125.667 -36.146 126.529 -36.148 127.418 C-36.141 128.311 -36.133 129.205 -36.125 130.125 C-36.133 131.011 -36.14 131.896 -36.148 132.809 C-36.115 144.01 -36.115 144.01 -31.875 148.25 C-31.586 149.178 -31.298 150.106 -31 151.062 C-29.327 155.802 -27.288 158.339 -23.062 161.062 C-16.474 163.544 -7.926 163.417 -1.23 161.488 C4.061 159.005 6.358 156.349 8.312 151 C8.581 150.093 8.849 149.185 9.125 148.25 C9.785 148.25 10.445 148.25 11.125 148.25 C12.851 142.316 13.343 136.768 13.375 130.625 C13.384 129.909 13.393 129.193 13.402 128.455 C13.372 123.004 12.594 118.189 10.125 113.25 C10.043 112.446 9.96 111.641 9.875 110.812 C9.125 108.25 9.125 108.25 6.562 106.438 C5.758 106.046 4.954 105.654 4.125 105.25 C4.455 104.59 4.785 103.93 5.125 103.25 C-5.771 96.627 -15.37 96.767 -26.875 102.25 Z M-33.875 112.25 C-32.875 115.25 -32.875 115.25 -32.875 115.25 Z M56.125 152.25 C57.125 154.25 57.125 154.25 57.125 154.25 Z " fill="#888D93" transform="translate(264.875,37.75)"/>
<path d="M0 0 C2.654 2.268 5.217 4.596 7.738 7.012 C10 9 10 9 12.23 10.082 C14 11 14 11 15 14 C15.639 14.557 16.279 15.114 16.938 15.688 C19.815 18.914 20.052 21.8 21 26 C21.66 26.66 22.32 27.32 23 28 C25 30 25 30 25.125 33.125 C25.084 34.074 25.043 35.023 25 36 C25.66 36 26.32 36 27 36 C26.967 37.888 26.935 39.776 26.902 41.664 C27 44 27 44 27.491 46.741 C28.394 52.525 28.281 58.344 28.312 64.188 C28.316 64.854 28.32 65.52 28.323 66.207 C28.348 77.607 26.975 88.019 24 99 C23.862 99.861 23.724 100.722 23.582 101.609 C22.797 104.835 21.306 107.333 19.625 110.188 C19.019 111.233 18.413 112.278 17.789 113.355 C16 116 16 116 13 118 C12.691 118.66 12.381 119.32 12.062 120 C11 122 11 122 9.062 122.938 C7 124 7 124 5.5 126.562 C4 129 4 129 2.25 129.473 C1.507 129.647 0.765 129.821 0 130 C-1.848 130.93 -3.68 131.892 -5.5 132.875 C-19.356 139.845 -33.911 141.005 -48.941 137.031 C-57.71 134.075 -64.254 129.303 -70.906 122.953 C-73 121 -73 121 -76 119 C-76.33 141.77 -76.66 164.54 -77 188 C-92.18 188 -107.36 188 -123 188 C-123 123.98 -123 59.96 -123 -6 C-77 -6 -77 -6 -75 -5 C-74.586 -2.277 -74.586 -2.277 -74.375 1.062 C-74.3 2.167 -74.225 3.272 -74.148 4.41 C-74.099 5.265 -74.05 6.119 -74 7 C-71 5 -71 5 -69 2 C-67.675 1.634 -66.34 1.305 -65 1 C-63.519 0.099 -62.063 -0.843 -60.625 -1.812 C-42.469 -12.78 -17.439 -12.412 0 0 Z M-66.438 31.562 C-67.852 33.354 -68.979 34.957 -70 37 C-70.516 37.433 -71.031 37.866 -71.562 38.312 C-73 40 -73 40 -73.188 42.688 C-73.126 43.451 -73.064 44.214 -73 45 C-73.66 45.33 -74.32 45.66 -75 46 C-78.567 56.943 -78.734 73.079 -75 84 C-73.527 85.609 -73.527 85.609 -72 87 C-69.12 92.205 -69.12 92.205 -68.688 95.062 C-67.082 99.588 -62.471 101.761 -58.438 103.812 C-51.201 106.225 -42.953 106.153 -35.875 103.312 C-32.319 101.495 -30.765 99.629 -29 96 C-28.01 95.67 -27.02 95.34 -26 95 C-25.938 94.608 -25.938 94.608 -25.625 92.625 C-25 90 -25 90 -23 88 C-18.411 81.117 -18.801 72.343 -18.75 64.312 C-18.741 63.517 -18.732 62.722 -18.722 61.902 C-18.788 49.212 -18.788 49.212 -23 45 C-23.826 43.413 -24.613 41.806 -25.375 40.188 C-27.239 36.383 -29.131 33.156 -32 30 C-32.474 29.443 -32.949 28.886 -33.438 28.312 C-42.042 21.085 -59.348 23.575 -66.438 31.562 Z M23 31 C24 33 24 33 24 33 Z M-24 40 C-23 42 -23 42 -23 42 Z M-73 87 C-72 89 -72 89 -72 89 Z M22 100 C23 102 23 102 23 102 Z " fill="#888D93" transform="translate(660,93)"/>
<path d="M0 0 C2.626 -0.004 5.251 -0.041 7.877 -0.079 C23.167 -0.182 39.419 1.101 53.088 8.558 C54.464 9.261 55.84 9.963 57.217 10.664 C58.309 11.227 59.4 11.79 60.525 12.371 C61.515 12.701 62.505 13.031 63.525 13.371 C63.835 14.01 64.144 14.649 64.463 15.308 C65.525 17.371 65.525 17.371 67.424 18.277 C71.147 20.215 72.832 23.633 74.525 27.371 C75.019 29.639 75.264 31.781 75.385 34.097 C75.525 36.371 75.525 36.371 76.037 38.964 C76.721 43.733 76.63 48.435 76.588 53.246 C76.583 54.22 76.579 55.195 76.574 56.199 C76.562 58.589 76.546 60.98 76.525 63.371 C75.865 63.371 75.205 63.371 74.525 63.371 C74.474 63.917 74.474 63.917 74.213 66.683 C73.513 70.435 73.265 71.069 70.525 73.371 C70.402 73.69 70.402 73.69 69.775 75.308 C68.19 77.924 66.178 78.898 63.518 80.3 C60.813 81.753 58.277 83.439 55.713 85.125 C52.749 86.813 49.677 88.064 46.525 89.371 C47.671 89.939 48.817 90.508 49.998 91.093 C57.919 95.103 64.605 98.605 70.525 105.371 C71.515 105.701 72.505 106.031 73.525 106.371 C73.855 107.361 74.185 108.351 74.525 109.371 C74.855 109.721 74.855 109.721 76.525 111.496 C78.87 114.866 79.103 117.082 79.35 121.089 C79.525 123.371 79.525 123.371 80.033 125.613 C80.712 129.417 80.717 133.139 80.713 136.996 C80.713 137.794 80.713 138.592 80.713 139.414 C80.653 145.576 79.946 151.368 78.525 157.371 C78.407 158.185 78.288 159 78.166 159.839 C77.383 162.932 76.05 164.958 74.213 167.558 C73.619 168.418 73.024 169.278 72.412 170.164 C70.466 172.44 69.207 173.167 66.525 174.371 C64.8 175.619 63.094 176.892 61.4 178.183 C36.769 196.091 1.581 197.223 -27.662 193.21 C-38.652 191.443 -49.909 188.892 -60.475 185.371 C-60.475 172.831 -60.475 160.291 -60.475 147.371 C-56.075 148.25 -52.804 149.424 -48.725 151.183 C-43.09 153.526 -37.481 155.305 -31.537 156.683 C-30.852 156.842 -30.167 157.001 -29.462 157.165 C-14.137 160.543 5.398 161.981 19.838 154.433 C22.493 152.395 23.411 151.435 24.525 148.371 C25.525 146.704 26.525 145.037 27.525 143.371 C28.206 142.045 28.879 140.714 29.525 139.371 C29.855 139.371 30.185 139.371 30.525 139.371 C30.525 136.731 30.525 134.091 30.525 131.371 C29.865 131.371 29.205 131.371 28.525 131.371 C28.046 130.1 27.567 128.829 27.088 127.558 C26.821 126.85 26.554 126.143 26.279 125.414 C25.663 123.744 25.088 122.059 24.525 120.371 C24.03 120.206 24.03 120.206 21.525 119.371 C21.525 118.711 21.525 118.051 21.525 117.371 C20.241 116.731 18.947 116.11 17.65 115.496 C16.931 115.148 16.212 114.8 15.471 114.441 C5.871 110.953 -4.003 110.963 -14.1 110.746 C-19.173 110.622 -24.247 110.498 -29.475 110.371 C-29.475 99.811 -29.475 89.251 -29.475 78.371 C-25.473 78.247 -21.472 78.123 -17.35 77.996 C12.872 76.868 12.872 76.868 22.283 68.878 C24.049 66.735 23.743 65.059 23.525 62.371 C24.185 62.371 24.845 62.371 25.525 62.371 C25.525 58.081 25.525 53.791 25.525 49.371 C24.865 49.371 24.205 49.371 23.525 49.371 C23.649 48.649 23.773 47.927 23.9 47.183 C23.525 44.371 23.525 44.371 21.213 41.808 C9.031 32.848 -7.556 33.397 -21.881 35.5 C-32.645 37.362 -43.133 40.924 -53.475 44.371 C-53.805 32.161 -54.135 19.951 -54.475 7.371 C-50.968 6.587 -47.462 5.803 -43.85 4.996 C-42.776 4.753 -41.703 4.51 -40.597 4.26 C-27.012 1.267 -13.878 -0.003 0 0 Z M28.525 125.371 C29.525 127.371 29.525 127.371 29.525 127.371 Z M28.525 143.371 C29.525 145.371 29.525 145.371 29.525 145.371 Z " fill="#888D93" transform="translate(60.474609375,37.62939453125)"/>
<path d="M0 0 C0.33 0 0.66 0 1 0 C1 63.69 1 127.38 1 193 C0.67 193 0.34 193 0 193 C0 129.31 0 65.62 0 0 Z " fill="#7F7F7F" transform="translate(535,88)"/>
<path d="M0 0 C2 2 2 2 2.203 4.784 C2.18 5.97 2.158 7.156 2.135 8.377 C2.126 9.031 2.116 9.685 2.107 10.359 C2.073 12.523 2.025 14.687 1.977 16.852 C1.95 18.351 1.925 19.85 1.901 21.349 C1.834 25.299 1.755 29.247 1.674 33.196 C1.593 37.224 1.523 41.253 1.453 45.281 C1.313 53.188 1.161 61.094 1 69 C0.67 69 0.34 69 0 69 C0 46.23 0 23.46 0 0 Z " fill="#7E7E7F" transform="translate(584,212)"/>
<path d="M0 0 C14.85 0 29.7 0 45 0 C45 0.33 45 0.66 45 1 C30.15 1 15.3 1 0 1 C0 0.67 0 0.34 0 0 Z " fill="#F9F9F9" transform="translate(538,85)"/>
<path d="M0 0 C0.33 0 0.66 0 1 0 C1 14.52 1 29.04 1 44 C0.67 44 0.34 44 0 44 C0 29.48 0 14.96 0 0 Z " fill="#949698" transform="translate(401,112)"/>
<path d="M0 0 C0.33 0 0.66 0 1 0 C1 11.55 1 23.1 1 35 C0.67 35 0.34 35 0 35 C0 23.45 0 11.9 0 0 Z " fill="#000000" transform="translate(5,46)"/>
<path d="M0 0 C0.33 0 0.66 0 1 0 C1 10.23 1 20.46 1 31 C0.67 31 0.34 31 0 31 C0 20.77 0 10.54 0 0 Z " fill="#00FFFF" transform="translate(29,116)"/>
<path d="M0 0 C9.9 0 19.8 0 30 0 C30 0.33 30 0.66 30 1 C20.1 1 10.2 1 0 1 C0 0.67 0 0.34 0 0 Z " fill="#9EA1A1" transform="translate(32,149)"/>
<path d="M0 0 C0.33 0 0.66 0 1 0 C1 8.91 1 17.82 1 27 C0.67 27 0.34 27 0 27 C0 18.09 0 9.18 0 0 Z " fill="#8A8D96" transform="translate(506,121)"/>
<path d="M0 0 C8.25 0 16.5 0 25 0 C25 0.33 25 0.66 25 1 C16.75 1 8.5 1 0 1 C0 0.67 0 0.34 0 0 Z " fill="#8B8E92" transform="translate(45,233)"/>
<path d="M0 0 C-1 3 -1 3 -2.812 4 C-3.534 4.33 -4.256 4.66 -5 5 C-6.351 5.976 -7.689 6.97 -9 8 C-9 5 -9 5 -6.75 2.312 C-4 0 -4 0 0 0 Z " fill="#83868B" transform="translate(314,206)"/>
<path d="M0 0 C0.33 0 0.66 0 1 0 C1 7.92 1 15.84 1 24 C0.67 24 0.34 24 0 24 C0 16.08 0 8.16 0 0 Z " fill="#8896A4" transform="translate(174,125)"/>
<path d="M0 0 C7.92 0 15.84 0 24 0 C24 0.33 24 0.66 24 1 C16.08 1 8.16 1 0 1 C0 0.67 0 0.34 0 0 Z " fill="#848484" transform="translate(32,114)"/>
<path d="M0 0 C6.93 0 13.86 0 21 0 C21 0.33 21 0.66 21 1 C14.07 1 7.14 1 0 1 C0 0.67 0 0.34 0 0 Z " fill="#83838A" transform="translate(251,102)"/>
<path d="M0 0 C0.33 0 0.66 0 1 0 C1 6.6 1 13.2 1 20 C0.67 20 0.34 20 0 20 C0 13.4 0 6.8 0 0 Z " fill="#7D8185" transform="translate(230,158)"/>
<path d="M0 0 C0.33 0 0.66 0 1 0 C1 6.6 1 13.2 1 20 C0.67 20 0.34 20 0 20 C0 13.4 0 6.8 0 0 Z " fill="#7B878C" transform="translate(454,124)"/>
<path d="M0 0 C0.33 0 0.66 0 1 0 C1 6.27 1 12.54 1 19 C0.67 19 0.34 19 0 19 C0 12.73 0 6.46 0 0 Z " fill="#7C7C83" transform="translate(639,148)"/>
<path d="M0 0 C6.27 0 12.54 0 19 0 C19 0.33 19 0.66 19 1 C12.73 1 6.46 1 0 1 C0 0.67 0 0.34 0 0 Z " fill="#838888" transform="translate(619,82)"/>
<path d="M0 0 C5.94 0 11.88 0 18 0 C18 0.33 18 0.66 18 1 C12.06 1 6.12 1 0 1 C0 0.67 0 0.34 0 0 Z " fill="#7F9296" transform="translate(419,233)"/>
<path d="M0 0 C5.94 0 11.88 0 18 0 C18 0.33 18 0.66 18 1 C12.06 1 6.12 1 0 1 C0 0.67 0 0.34 0 0 Z " fill="#848892" transform="translate(244,233)"/>
<path d="M0 0 C0.33 0 0.66 0 1 0 C1 5.94 1 11.88 1 18 C0.67 18 0.34 18 0 18 C0 12.06 0 6.12 0 0 Z " fill="#838383" transform="translate(142,166)"/>
<path d="M0 0 C0.33 0 0.66 0 1 0 C1 5.61 1 11.22 1 17 C0.67 17 0.34 17 0 17 C0 11.39 0 5.78 0 0 Z " fill="#8E8E8E" transform="translate(276,160)"/>
<path d="M0 0 C0.33 0 0.66 0 1 0 C1 5.61 1 11.22 1 17 C0.67 17 0.34 17 0 17 C0 11.39 0 5.78 0 0 Z " fill="#A5A5B4" transform="translate(348,126)"/>
<path d="M0 0 C5.28 0 10.56 0 16 0 C16 0.33 16 0.66 16 1 C10.72 1 5.44 1 0 1 C0 0.67 0 0.34 0 0 Z " fill="#898994" transform="translate(45,196)"/>
<path d="M0 0 C0.33 0 0.66 0 1 0 C1 5.28 1 10.56 1 16 C0.67 16 0.34 16 0 16 C0 10.72 0 5.44 0 0 Z " fill="#8F8F94" transform="translate(584,150)"/>
<path d="M0 0 C4.95 0 9.9 0 15 0 C15 0.33 15 0.66 15 1 C10.05 1 5.1 1 0 1 C0 0.67 0 0.34 0 0 Z " fill="#8D9393" transform="translate(621,233)"/>
<path d="M0 0 C4.95 0 9.9 0 15 0 C15 0.33 15 0.66 15 1 C10.05 1 5.1 1 0 1 C0 0.67 0 0.34 0 0 Z " fill="#989E9E" transform="translate(246,198)"/>
<path d="M0 0 C0.33 0 0.66 0 1 0 C1 4.95 1 9.9 1 15 C0.67 15 0.34 15 0 15 C0 10.05 0 5.1 0 0 Z " fill="#909090" transform="translate(453,145)"/>
<path d="M0 0 C4.95 0 9.9 0 15 0 C15 0.33 15 0.66 15 1 C10.05 1 5.1 1 0 1 C0 0.67 0 0.34 0 0 Z " fill="#AFAFB5" transform="translate(605,119)"/>
<path d="M0 0 C0.33 0 0.66 0 1 0 C1 4.95 1 9.9 1 15 C0.67 15 0.34 15 0 15 C0 10.05 0 5.1 0 0 Z " fill="#8A8A90" transform="translate(453,109)"/>
<path d="M0 0 C0 3 0 3 -2 5.188 C-2.66 5.786 -3.32 6.384 -4 7 C-4.66 6.67 -5.32 6.34 -6 6 C-4.02 4.02 -2.04 2.04 0 0 Z " fill="#898989" transform="translate(483,209)"/>
<path d="M0 0 C0.33 0 0.66 0 1 0 C1 4.29 1 8.58 1 13 C0.67 13 0.34 13 0 13 C0 8.71 0 4.42 0 0 Z " fill="#89898F" transform="translate(349,113)"/>
<path d="M0 0 C0.33 0 0.66 0 1 0 C1 4.29 1 8.58 1 13 C0.67 13 0.34 13 0 13 C0 8.71 0 4.42 0 0 Z " fill="#89899C" transform="translate(85,87)"/>
<path d="M0 0 C3.96 0 7.92 0 12 0 C12 0.33 12 0.66 12 1 C8.04 1 4.08 1 0 1 C0 0.67 0 0.34 0 0 Z " fill="#919191" transform="translate(606,196)"/>
<path d="M0 0 C0.33 0 0.66 0 1 0 C1 3.96 1 7.92 1 12 C0.67 12 0.34 12 0 12 C0 8.04 0 4.08 0 0 Z " fill="#828282" transform="translate(349,144)"/>
<path d="M0 0 C0.33 0 0.66 0 1 0 C1 3.63 1 7.26 1 11 C0.67 11 0.34 11 0 11 C0 7.37 0 3.74 0 0 Z " fill="#8A8A8A" transform="translate(138,80)"/>
<path d="M0 0 C3.63 0 7.26 0 11 0 C11 0.33 11 0.66 11 1 C7.37 1 3.74 1 0 1 C0 0.67 0 0.34 0 0 Z " fill="#83838A" transform="translate(40,73)"/>
<path d="M0 0 C3.3 0 6.6 0 10 0 C10 0.33 10 0.66 10 1 C6.7 1 3.4 1 0 1 C0 0.67 0 0.34 0 0 Z " fill="#838C8C" transform="translate(71,232)"/>
<path d="M0 0 C3.3 0 6.6 0 10 0 C10 0.33 10 0.66 10 1 C6.7 1 3.4 1 0 1 C0 0.67 0 0.34 0 0 Z " fill="#838C8C" transform="translate(35,232)"/>
<path d="M0 0 C0.33 0 0.66 0 1 0 C1 3.3 1 6.6 1 10 C0.67 10 0.34 10 0 10 C0 6.7 0 3.4 0 0 Z " fill="#667F99" transform="translate(327,160)"/>
<path d="M0 0 C2.97 0 5.94 0 9 0 C9 0.33 9 0.66 9 1 C6.03 1 3.06 1 0 1 C0 0.67 0 0.34 0 0 Z " fill="#969696" transform="translate(423,196)"/>
<path d="M0 0 C0.33 0 0.66 0 1 0 C1 2.97 1 5.94 1 9 C0.67 9 0.34 9 0 9 C0 6.03 0 3.06 0 0 Z " fill="#7F626C" transform="translate(326,170)"/>
<path d="M0 0 C0.33 0 0.66 0 1 0 C1 2.97 1 5.94 1 9 C0.67 9 0.34 9 0 9 C0 6.03 0 3.06 0 0 Z " fill="#71717A" transform="translate(402,156)"/>
<path d="M0 0 C0.33 0 0.66 0 1 0 C1 2.97 1 5.94 1 9 C0.67 9 0.34 9 0 9 C0 6.03 0 3.06 0 0 Z " fill="#838383" transform="translate(175,150)"/>
<path d="M0 0 C0.33 0 0.66 0 1 0 C1 2.97 1 5.94 1 9 C0.67 9 0.34 9 0 9 C0 6.03 0 3.06 0 0 Z " fill="#75757F" transform="translate(505,149)"/>
<path d="M0 0 C2.97 0 5.94 0 9 0 C9 0.33 9 0.66 9 1 C6.03 1 3.06 1 0 1 C0 0.67 0 0.34 0 0 Z " fill="#83838D" transform="translate(249,137)"/>
<path d="M0 0 C0.33 0 0.66 0 1 0 C1 2.97 1 5.94 1 9 C0.67 9 0.34 9 0 9 C0 6.03 0 3.06 0 0 Z " fill="#7A7A83" transform="translate(175,116)"/>
<path d="M0 0 C0.33 0 0.66 0 1 0 C1 2.97 1 5.94 1 9 C0.67 9 0.34 9 0 9 C0 6.03 0 3.06 0 0 Z " fill="#8888A5" transform="translate(505,111)"/>
<path d="M0 0 C2.97 0 5.94 0 9 0 C9 0.33 9 0.66 9 1 C6.03 1 3.06 1 0 1 C0 0.67 0 0.34 0 0 Z " fill="#6C6C92" transform="translate(57,113)"/>
<path d="M0 0 C0.33 0 0.66 0 1 0 C1 2.97 1 5.94 1 9 C0.67 9 0.34 9 0 9 C0 6.03 0 3.06 0 0 Z " fill="#757575" transform="translate(402,103)"/>
<path d="M0 0 C2.97 0 5.94 0 9 0 C9 0.33 9 0.66 9 1 C6.03 1 3.06 1 0 1 C0 0.67 0 0.34 0 0 Z " fill="#A5A5A5" transform="translate(274,72)"/>
<path d="M0 0 C2.64 0 5.28 0 8 0 C8 0.33 8 0.66 8 1 C5.36 1 2.72 1 0 1 C0 0.67 0 0.34 0 0 Z " fill="#64647A" transform="translate(236,232)"/>
<path d="M0 0 C2.64 0 5.28 0 8 0 C8 0.33 8 0.66 8 1 C5.36 1 2.72 1 0 1 C0 0.67 0 0.34 0 0 Z " fill="#7F7F7F" transform="translate(37,195)"/>
<path d="M0 0 C0.33 0 0.66 0 1 0 C1 2.64 1 5.28 1 8 C0.67 8 0.34 8 0 8 C0 5.36 0 2.72 0 0 Z " fill="#A9A9A9" transform="translate(90,169)"/>
<path d="M0 0 C0.33 0 0.66 0 1 0 C1 2.64 1 5.28 1 8 C0.67 8 0.34 8 0 8 C0 5.36 0 2.72 0 0 Z " fill="#7A7A7A" transform="translate(452,160)"/>
<path d="M0 0 C0.33 0 0.66 0 1 0 C1 2.64 1 5.28 1 8 C0.67 8 0.34 8 0 8 C0 5.36 0 2.72 0 0 Z " fill="#8F9999" transform="translate(326,152)"/>
<path d="M0 0 C0.124 0.639 0.248 1.279 0.375 1.938 C0.581 2.618 0.787 3.299 1 4 C1.66 4.33 2.32 4.66 3 5 C2.01 5.33 1.02 5.66 0 6 C0 4.02 0 2.04 0 0 Z " fill="#91B1B1" transform="translate(225,107)"/>
<path d="M0 0 C0.33 0 0.66 0 1 0 C1 2.64 1 5.28 1 8 C0.67 8 0.34 8 0 8 C0 5.36 0 2.72 0 0 Z " fill="#898989" transform="translate(452,101)"/>
<path d="M0 0 C2.64 0 5.28 0 8 0 C8 0.33 8 0.66 8 1 C5.36 1 2.72 1 0 1 C0 0.67 0 0.34 0 0 Z " fill="#7A7A99" transform="translate(59,73)"/>
<path d="M0 0 C2.64 0 5.28 0 8 0 C8 0.33 8 0.66 8 1 C5.36 1 2.72 1 0 1 C0 0.67 0 0.34 0 0 Z " fill="#949494" transform="translate(258,72)"/>
<path d="M0 0 C2.31 0 4.62 0 7 0 C7 0.33 7 0.66 7 1 C4.69 1 2.38 1 0 1 C0 0.67 0 0.34 0 0 Z " fill="#9D9D9D" transform="translate(437,232)"/>
<path d="M0 0 C2.31 0 4.62 0 7 0 C7 0.33 7 0.66 7 1 C4.69 1 2.38 1 0 1 C0 0.67 0 0.34 0 0 Z " fill="#677373" transform="translate(411,232)"/>
<path d="M0 0 C2.31 0 4.62 0 7 0 C7 0.33 7 0.66 7 1 C4.69 1 2.38 1 0 1 C0 0.67 0 0.34 0 0 Z " fill="#9D9D9D" transform="translate(263,232)"/>
<path d="M0 0 C2.31 0 4.62 0 7 0 C7 0.33 7 0.66 7 1 C4.69 1 2.38 1 0 1 C0 0.67 0 0.34 0 0 Z " fill="#6D7979" transform="translate(28,231)"/>
<path d="M0 0 C1.32 1.32 2.64 2.64 4 4 C2.68 3.34 1.36 2.68 0 2 C0 1.34 0 0.68 0 0 Z " fill="#4E4E4E" transform="translate(586,214)"/>
<path d="M0 0 C2.31 0 4.62 0 7 0 C7 0.33 7 0.66 7 1 C4.69 1 2.38 1 0 1 C0 0.67 0 0.34 0 0 Z " fill="#7F7F8B" transform="translate(61,195)"/>
<path d="M0 0 C0.33 0 0.66 0 1 0 C1 2.31 1 4.62 1 7 C0.67 7 0.34 7 0 7 C0 4.69 0 2.38 0 0 Z " fill="#8B9797" transform="translate(638,167)"/>
<path d="M0 0 C0.33 0 0.66 0 1 0 C1 2.31 1 4.62 1 7 C0.67 7 0.34 7 0 7 C0 4.69 0 2.38 0 0 Z " fill="#9797BC" transform="translate(585,166)"/>
<path d="M0 0 C0.33 0 0.66 0 1 0 C1 2.31 1 4.62 1 7 C0.67 7 0.34 7 0 7 C0 4.69 0 2.38 0 0 Z " fill="#6D6D79" transform="translate(350,156)"/>
<path d="M0 0 C0.33 0 0.66 0 1 0 C1 2.31 1 4.62 1 7 C0.67 7 0.34 7 0 7 C0 4.69 0 2.38 0 0 Z " fill="#858585" transform="translate(585,143)"/>
<path d="M0 0 C1.98 0 3.96 0 6 0 C6 0.33 6 0.66 6 1 C4.02 1 2.04 1 0 1 C0 0.67 0 0.34 0 0 Z " fill="#787878" transform="translate(636,232)"/>
<path d="M0 0 C1.98 0 3.96 0 6 0 C6 0.33 6 0.66 6 1 C4.02 1 2.04 1 0 1 C0 0.67 0 0.34 0 0 Z " fill="#717171" transform="translate(615,232)"/>
<path d="M0 0 C1.98 0 3.96 0 6 0 C6 0.33 6 0.66 6 1 C4.02 1 2.04 1 0 1 C0 0.67 0 0.34 0 0 Z " fill="#A2A2A2" transform="translate(81,231)"/>
<path d="M0 0 C0.33 0 0.66 0 1 0 C1 1.98 1 3.96 1 6 C0.67 6 0.34 6 0 6 C0 4.02 0 2.04 0 0 Z " fill="#717171" transform="translate(176,160)"/>
<path d="M0 0 C1.98 0 3.96 0 6 0 C6 0.33 6 0.66 6 1 C4.02 1 2.04 1 0 1 C0 0.67 0 0.34 0 0 Z " fill="#9B9B9B" transform="translate(63,150)"/>
<path d="M0 0 C0.33 0 0.66 0 1 0 C1 1.98 1 3.96 1 6 C0.67 6 0.34 6 0 6 C0 4.02 0 2.04 0 0 Z " fill="#787878" transform="translate(638,142)"/>
<path d="M0 0 C0.33 0 0.66 0 1 0 C1 1.98 1 3.96 1 6 C0.67 6 0.34 6 0 6 C0 4.02 0 2.04 0 0 Z " fill="#9494BF" transform="translate(350,107)"/>
<path d="M0 0 C0.33 0 0.66 0 1 0 C1 1.98 1 3.96 1 6 C0.67 6 0.34 6 0 6 C0 4.02 0 2.04 0 0 Z " fill="#7F7F8D" transform="translate(504,105)"/>
<path d="M0 0 C1.98 0 3.96 0 6 0 C6 0.33 6 0.66 6 1 C4.02 1 2.04 1 0 1 C0 0.67 0 0.34 0 0 Z " fill="#B0B0B0" transform="translate(272,103)"/>
<path d="M0 0 C0.33 0 0.66 0 1 0 C1 1.98 1 3.96 1 6 C0.67 6 0.34 6 0 6 C0 4.02 0 2.04 0 0 Z " fill="#547F8D" transform="translate(137,74)"/>
<path d="M0 0 C1.98 0 3.96 0 6 0 C6 0.33 6 0.66 6 1 C4.02 1 2.04 1 0 1 C0 0.67 0 0.34 0 0 Z " fill="#717171" transform="translate(34,74)"/>
<path d="M0 0 C1.98 0 3.96 0 6 0 C6 0.33 6 0.66 6 1 C4.02 1 2.04 1 0 1 C0 0.67 0 0.34 0 0 Z " fill="#A9A9A9" transform="translate(52,72)"/>
<path d="M0 0 C1.98 0 3.96 0 6 0 C6 0.33 6 0.66 6 1 C4.02 1 2.04 1 0 1 C0 0.67 0 0.34 0 0 Z " fill="#A9A9A9" transform="translate(267,71)"/>
<path d="M0 0 C1.98 0 3.96 0 6 0 C6 0.33 6 0.66 6 1 C4.02 1 2.04 1 0 1 C0 0.67 0 0.34 0 0 Z " fill="#868686" transform="translate(288,38)"/>
<path d="M0 0 C1.98 0 3.96 0 6 0 C6 0.33 6 0.66 6 1 C4.02 1 2.04 1 0 1 C0 0.67 0 0.34 0 0 Z " fill="#A9A9C2" transform="translate(29,38)"/>
<path d="M0 0 C1.65 0 3.3 0 5 0 C5 0.33 5 0.66 5 1 C3.35 1 1.7 1 0 1 C0 0.67 0 0.34 0 0 Z " fill="#656565" transform="translate(444,231)"/>
<path d="M0 0 C1.65 0 3.3 0 5 0 C5 0.33 5 0.66 5 1 C3.35 1 1.7 1 0 1 C0 0.67 0 0.34 0 0 Z " fill="#A9A9BA" transform="translate(270,231)"/>
<path d="M0 0 C1.65 0 3.3 0 5 0 C5 0.33 5 0.66 5 1 C3.35 1 1.7 1 0 1 C0 0.67 0 0.34 0 0 Z " fill="#90A1A1" transform="translate(23,230)"/>
<path d="M0 0 C1.65 0 3.3 0 5 0 C5 0.33 5 0.66 5 1 C3.35 1 1.7 1 0 1 C0 0.67 0 0.34 0 0 Z " fill="#545487" transform="translate(13,228)"/>
<path d="M0 0 C1.65 0 3.3 0 5 0 C5 0.33 5 0.66 5 1 C3.35 1 1.7 1 0 1 C0 0.67 0 0.34 0 0 Z " fill="#767676" transform="translate(32,194)"/>
<path d="M0 0 C0.33 0 0.66 0 1 0 C1 1.65 1 3.3 1 5 C0.67 5 0.34 5 0 5 C0 3.35 0 1.7 0 0 Z " fill="#BABABA" transform="translate(141,184)"/>
<path d="M0 0 C0.33 0 0.66 0 1 0 C1 1.65 1 3.3 1 5 C0.67 5 0.34 5 0 5 C0 3.35 0 1.7 0 0 Z " fill="#878787" transform="translate(231,178)"/>
<path d="M0 0 C0.33 0 0.66 0 1 0 C1 1.65 1 3.3 1 5 C0.67 5 0.34 5 0 5 C0 3.35 0 1.7 0 0 Z " fill="#909090" transform="translate(275,177)"/>
<path d="M0 0 C0.33 0 0.66 0 1 0 C1 1.65 1 3.3 1 5 C0.67 5 0.34 5 0 5 C0 3.35 0 1.7 0 0 Z " fill="#989898" transform="translate(451,168)"/>
<path d="M0 0 C0.33 0 0.66 0 1 0 C1 1.65 1 3.3 1 5 C0.67 5 0.34 5 0 5 C0 3.35 0 1.7 0 0 Z " fill="#76A9A9" transform="translate(403,166)"/>
<path d="M0 0 C0.33 0 0.66 0 1 0 C1 1.65 1 3.3 1 5 C0.67 5 0.34 5 0 5 C0 3.35 0 1.7 0 0 Z " fill="#5D5D5D" transform="translate(177,166)"/>
<path d="M0 0 C0.33 0 0.66 0 1 0 C1 1.65 1 3.3 1 5 C0.67 5 0.34 5 0 5 C0 3.35 0 1.7 0 0 Z " fill="#B2B2B2" transform="translate(351,163)"/>
<path d="M0 0 C0.33 0 0.66 0 1 0 C1 1.65 1 3.3 1 5 C0.67 5 0.34 5 0 5 C0 3.35 0 1.7 0 0 Z " fill="#767676" transform="translate(141,161)"/>
<path d="M0 0 C0.33 0 0.66 0 1 0 C1 1.65 1 3.3 1 5 C0.67 5 0.34 5 0 5 C0 3.35 0 1.7 0 0 Z " fill="#7F9090" transform="translate(504,159)"/>
<path d="M0 0 C0.33 0 0.66 0 1 0 C1 1.65 1 3.3 1 5 C0.67 5 0.34 5 0 5 C0 3.35 0 1.7 0 0 Z " fill="#656598" transform="translate(275,154)"/>
<path d="M0 0 C0.66 0.33 1.32 0.66 2 1 C0.68 1.33 -0.64 1.66 -2 2 C-1.34 1.34 -0.68 0.68 0 0 Z " fill="#9898A5" transform="translate(110,126)"/>
<path d="M0 0 C0.33 0 0.66 0 1 0 C1 1.65 1 3.3 1 5 C0.67 5 0.34 5 0 5 C0 3.35 0 1.7 0 0 Z " fill="#909090" transform="translate(176,110)"/>
<path d="M0 0 C1.65 0 3.3 0 5 0 C5 0.33 5 0.66 5 1 C3.35 1 1.7 1 0 1 C0 0.67 0 0.34 0 0 Z " fill="#878787" transform="translate(66,112)"/>
<path d="M0 0 C0.33 0 0.66 0 1 0 C1 1.65 1 3.3 1 5 C0.67 5 0.34 5 0 5 C0 3.35 0 1.7 0 0 Z " fill="#6E6E6E" transform="translate(351,101)"/>
<path d="M0 0 C1.65 0 3.3 0 5 0 C5 0.33 5 0.66 5 1 C3.35 1 1.7 1 0 1 C0 0.67 0 0.34 0 0 Z " fill="#A1A1A1" transform="translate(246,103)"/>
<path d="M0 0 C0.33 0 0.66 0 1 0 C1 1.65 1 3.3 1 5 C0.67 5 0.34 5 0 5 C0 3.35 0 1.7 0 0 Z " fill="#987676" transform="translate(451,96)"/>
<path d="M0 0 C0.33 0 0.66 0 1 0 C1 1.65 1 3.3 1 5 C0.67 5 0.34 5 0 5 C0 3.35 0 1.7 0 0 Z " fill="#878787" transform="translate(137,92)"/>
<path d="M0 0 C1.65 0 3.3 0 5 0 C5 0.33 5 0.66 5 1 C3.35 1 1.7 1 0 1 C0 0.67 0 0.34 0 0 Z " fill="#5D5D5D" transform="translate(638,83)"/>
<path d="M0 0 C1.65 0 3.3 0 5 0 C5 0.33 5 0.66 5 1 C3.35 1 1.7 1 0 1 C0 0.67 0 0.34 0 0 Z " fill="#5D6E6E" transform="translate(614,83)"/>
<path d="M0 0 C1.65 0 3.3 0 5 0 C5 0.33 5 0.66 5 1 C3.35 1 1.7 1 0 1 C0 0.67 0 0.34 0 0 Z " fill="#878787" transform="translate(430,73)"/>
<path d="M0 0 C1.65 0 3.3 0 5 0 C5 0.33 5 0.66 5 1 C3.35 1 1.7 1 0 1 C0 0.67 0 0.34 0 0 Z " fill="#657676" transform="translate(420,73)"/>
<path d="M0 0 C1.65 0 3.3 0 5 0 C5 0.33 5 0.66 5 1 C3.35 1 1.7 1 0 1 C0 0.67 0 0.34 0 0 Z " fill="#A1A1A1" transform="translate(283,73)"/>
<path d="M0 0 C1.65 0 3.3 0 5 0 C5 0.33 5 0.66 5 1 C3.35 1 1.7 1 0 1 C0 0.67 0 0.34 0 0 Z " fill="#767676" transform="translate(23,39)"/>
<path d="M0 0 C1.65 0 3.3 0 5 0 C5 0.33 5 0.66 5 1 C3.35 1 1.7 1 0 1 C0 0.67 0 0.34 0 0 Z " fill="#878787" transform="translate(91,38)"/>
<path d="M0 0 C4 1 4 1 4 1 Z " fill="#6A6A6A" transform="translate(611,231)"/>
<path d="M0 0 C4 1 4 1 4 1 Z " fill="#7F9494" transform="translate(407,231)"/>
<path d="M0 0 C4 1 4 1 4 1 Z " fill="#B4B4B4" transform="translate(232,231)"/>
<path d="M0 0 C4 1 4 1 4 1 Z " fill="#A9A9A9" transform="translate(275,230)"/>
<path d="M0 0 C4 1 4 1 4 1 Z " fill="#C9C9C9" transform="translate(228,230)"/>
<path d="M0 0 C4 1 4 1 4 1 Z " fill="#B4B4B4" transform="translate(88,230)"/>
<path d="M0 0 C4 1 4 1 4 1 Z " fill="#6A6A6A" transform="translate(92,229)"/>
<path d="M0 0 C4 1 4 1 4 1 Z " fill="#B4B4B4" transform="translate(18,229)"/>
<path d="M0 0 C4 1 4 1 4 1 Z " fill="#5F5F5F" transform="translate(602,195)"/>
<path d="M0 0 C4 1 4 1 4 1 Z " fill="#747474" transform="translate(432,195)"/>
<path d="M0 0 C4 1 4 1 4 1 Z " fill="#9F9F9F" transform="translate(419,195)"/>
<path d="M0 0 C4 1 4 1 4 1 Z " fill="#6A6A6A" transform="translate(68,194)"/>
<path d="M0 0 C4 1 4 1 4 1 Z " fill="#A9A9A9" transform="translate(27,193)"/>
<path d="M0 0 C1 4 1 4 1 4 Z " fill="#6A6A6A" transform="translate(686,183)"/>
<path d="M0 0 C1 4 1 4 1 4 Z " fill="#7F94A4" transform="translate(687,179)"/>
<path d="M0 0 C1 4 1 4 1 4 Z " fill="#7F7F7F" transform="translate(325,179)"/>
<path d="M0 0 C1 4 1 4 1 4 Z " fill="#A9A9A9" transform="translate(586,173)"/>
<path d="M0 0 C1 4 1 4 1 4 Z " fill="#54546A" transform="translate(450,173)"/>
<path d="M0 0 C1 4 1 4 1 4 Z " fill="#C9C9C9" transform="translate(637,174)"/>
<path d="M0 0 C1 4 1 4 1 4 Z " fill="#898989" transform="translate(404,172)"/>
<path d="M0 0 C1 4 1 4 1 4 Z " fill="#A9A9A9" transform="translate(178,171)"/>
<path d="M0 0 C1 4 1 4 1 4 Z " fill="#4A7474" transform="translate(502,170)"/>
<path d="M0 0 C1 4 1 4 1 4 Z " fill="#9F9F9F" transform="translate(352,168)"/>
<path d="M0 0 C1 4 1 4 1 4 Z " fill="#7F7F7F" transform="translate(503,165)"/>
<path d="M0 0 C1 4 1 4 1 4 Z " fill="#8A8A8A" transform="translate(140,157)"/>
<path d="M0 0 C4 1 4 1 4 1 Z " fill="#949494" transform="translate(69,151)"/>
<path d="M0 0 C1 4 1 4 1 4 Z " fill="#7F7F7F" transform="translate(325,148)"/>
<path d="M0 0 C1 4 1 4 1 4 Z " fill="#545474" transform="translate(586,139)"/>
<path d="M0 0 C4 1 4 1 4 1 Z " fill="#6A6A6A" transform="translate(258,138)"/>
<path d="M0 0 C4 1 4 1 4 1 Z " fill="#9494A9" transform="translate(244,138)"/>
<path d="M0 0 C1 4 1 4 1 4 Z " fill="#7F7F8F" transform="translate(687,133)"/>
<path d="M0 0 C4 1 4 1 4 1 Z " fill="#3F3F3F" transform="translate(601,120)"/>
<path d="M0 0 C1 4 1 4 1 4 Z " fill="#B4B4B4" transform="translate(177,105)"/>
<path d="M0 0 C4 1 4 1 4 1 Z " fill="#35354A" transform="translate(282,105)"/>
<path d="M0 0 C4 1 4 1 4 1 Z " fill="#A9A9A9" transform="translate(278,104)"/>
<path d="M0 0 C1 4 1 4 1 4 Z " fill="#A9A994" transform="translate(226,103)"/>
<path d="M0 0 C1 4 1 4 1 4 Z " fill="#B4B4B4" transform="translate(503,100)"/>
<path d="M0 0 C1 4 1 4 1 4 Z " fill="#9F9F9F" transform="translate(178,101)"/>
<path d="M0 0 C1 4 1 4 1 4 Z " fill="#898989" transform="translate(352,97)"/>
<path d="M0 0 C1 4 1 4 1 4 Z " fill="#8A8A8A" transform="translate(179,97)"/>
<path d="M0 0 C1 4 1 4 1 4 Z " fill="#A9A9A9" transform="translate(404,93)"/>
<path d="M0 0 C1 4 1 4 1 4 Z " fill="#C9C9C9" transform="translate(353,93)"/>
<path d="M0 0 C1 4 1 4 1 4 Z " fill="#6A6A6A" transform="translate(450,92)"/>
<path d="M0 0 C4 1 4 1 4 1 Z " fill="#5F5F5F" transform="translate(22,77)"/>
<path d="M0 0 C4 1 4 1 4 1 Z " fill="#747474" transform="translate(26,76)"/>
<path d="M0 0 C4 1 4 1 4 1 Z " fill="#A9A9A9" transform="translate(30,75)"/>
<path d="M0 0 C4 1 4 1 4 1 Z " fill="#94A9A9" transform="translate(288,74)"/>
<path d="M0 0 C4 1 4 1 4 1 Z " fill="#6A6A6A" transform="translate(67,74)"/>
<path d="M0 0 C4 1 4 1 4 1 Z " fill="#6A6A6A" transform="translate(254,73)"/>
<path d="M0 0 C1 4 1 4 1 4 Z " fill="#6A6A6A" transform="translate(136,70)"/>
<path d="M0 0 C4 1 4 1 4 1 Z " fill="#7F7FBF" transform="translate(426,72)"/>
<path d="M0 0 C4 1 4 1 4 1 Z " fill="#6A6A6A" transform="translate(10,42)"/>
<path d="M0 0 C4 1 4 1 4 1 Z " fill="#6A6A6A" transform="translate(14,41)"/>
<path d="M0 0 C4 1 4 1 4 1 Z " fill="#6A6A6A" transform="translate(298,40)"/>
<path d="M0 0 C4 1 4 1 4 1 Z " fill="#7F7F7F" transform="translate(100,40)"/>
<path d="M0 0 C4 1 4 1 4 1 Z " fill="#949494" transform="translate(19,40)"/>
<path d="M0 0 C4 1 4 1 4 1 Z " fill="#9FB4B4" transform="translate(294,39)"/>
<path d="M0 0 C4 1 4 1 4 1 Z " fill="#54546A" transform="translate(235,39)"/>
<path d="M0 0 C4 1 4 1 4 1 Z " fill="#A9A9A9" transform="translate(96,39)"/>
<path d="M0 0 C4 1 4 1 4 1 Z " fill="#6A6A6A" transform="translate(448,38)"/>
<path d="M0 0 C4 1 4 1 4 1 Z " fill="#5F5F5F" transform="translate(404,38)"/>
<path d="M0 0 C4 1 4 1 4 1 Z " fill="#B4B4C4" transform="translate(239,38)"/>
<path d="M0 0 C3 1 3 1 3 1 Z " fill="#8D8D8D" transform="translate(642,231)"/>
<path d="M0 0 C3 1 3 1 3 1 Z " fill="#636363" transform="translate(608,230)"/>
<path d="M0 0 C3 1 3 1 3 1 Z " fill="#8D8D8D" transform="translate(449,230)"/>
<path d="M0 0 C3 1 3 1 3 1 Z " fill="#B8B8B8" transform="translate(403,230)"/>
<path d="M0 0 C3 1 3 1 3 1 Z " fill="#E2E2E2" transform="translate(648,229)"/>
<path d="M0 0 C3 1 3 1 3 1 Z " fill="#545454" transform="translate(453,229)"/>
<path d="M0 0 C3 1 3 1 3 1 Z " fill="#7F7F7F" transform="translate(400,229)"/>
<path d="M0 0 C3 1 3 1 3 1 Z " fill="#8D8D8D" transform="translate(279,229)"/>
<path d="M0 0 C3 1 3 1 3 1 Z " fill="#B8B8B8" transform="translate(225,229)"/>
<path d="M0 0 C3 1 3 1 3 1 Z " fill="#B8B8B8" transform="translate(397,228)"/>
<path d="M0 0 C3 1 3 1 3 1 Z " fill="#A9A9A9" transform="translate(282,228)"/>
<path d="M0 0 C3 1 3 1 3 1 Z " fill="#717171" transform="translate(222,228)"/>
<path d="M0 0 C3 1 3 1 3 1 Z " fill="#B8B8B8" transform="translate(97,228)"/>
<path d="M0 0 C3 1 3 1 3 1 Z " fill="#636363" transform="translate(458,227)"/>
<path d="M0 0 C3 1 3 1 3 1 Z " fill="#B8B8B8" transform="translate(100,227)"/>
<path d="M0 0 C3 1 3 1 3 1 Z " fill="#9B9B9B" transform="translate(10,227)"/>
<path d="M0 0 C3 1 3 1 3 1 Z " fill="#8D8D8D" transform="translate(287,226)"/>
<path d="M0 0 C3 1 3 1 3 1 Z " fill="#717171" transform="translate(103,226)"/>
<path d="M0 0 C3 1 3 1 3 1 Z " fill="#B8B8B8" transform="translate(6,226)"/>
<path d="M0 0 C3 1 3 1 3 1 Z " fill="#8D8D8D" transform="translate(3,225)"/>
<path d="M0 0 C3 1 3 1 3 1 Z " fill="#A9A9A9" transform="translate(0,224)"/>
<path d="M0 0 C3 1 3 1 3 1 Z " fill="#C6C6C6" transform="translate(261,197)"/>
<path d="M0 0 C3 1 3 1 3 1 Z " fill="#B8B8B8" transform="translate(243,197)"/>
<path d="M0 0 C3 1 3 1 3 1 Z " fill="#B8B8B8" transform="translate(619,195)"/>
<path d="M0 0 C3 1 3 1 3 1 Z " fill="#636363" transform="translate(622,194)"/>
<path d="M0 0 C3 1 3 1 3 1 Z " fill="#636363" transform="translate(436,194)"/>
<path d="M0 0 C3 1 3 1 3 1 Z " fill="#A9A9A9" transform="translate(73,193)"/>
<path d="M0 0 C3 1 3 1 3 1 Z " fill="#B8B8B8" transform="translate(24,192)"/>
<path d="M0 0 C3 1 3 1 3 1 Z " fill="#7F7F7F" transform="translate(20,191)"/>
<path d="" fill="#8D8D8D" transform="translate(0,0)"/>
<path d="M0 0 C3 1 3 1 3 1 Z " fill="#7F7F7F" transform="translate(17,190)"/>
<path d="M0 0 C3 1 3 1 3 1 Z " fill="#A9A9A9" transform="translate(14,189)"/>
<path d="" fill="#717171" transform="translate(0,0)"/>
<path d="" fill="#7F7F7F" transform="translate(0,0)"/>
<path d="M0 0 C3 1 3 1 3 1 Z " fill="#6363B8" transform="translate(9,187)"/>
<path d="" fill="#7F7F7F" transform="translate(0,0)"/>
<path d="M0 0 C3 1 3 1 3 1 Z " fill="#8D8D8D" transform="translate(0,183)"/>
<path d="" fill="#B8B8B8" transform="translate(0,0)"/>
<path d="" fill="#B8B8B8" transform="translate(0,0)"/>
<path d="" fill="#71718D" transform="translate(0,0)"/>
<path d="" fill="#717171" transform="translate(0,0)"/>
<path d="" fill="#7F7F7F" transform="translate(0,0)"/>
<path d="M0 0 C3 1 3 1 3 1 Z " fill="#AAC6C6" transform="translate(73,152)"/>
<path d="" fill="#545454" transform="translate(0,0)"/>
<path d="" fill="#555571" transform="translate(0,0)"/>
<path d="" fill="#5454A9" transform="translate(0,0)"/>
<path d="" fill="#9B9BB8" transform="translate(0,0)"/>
<path d="M0 0 C3 1 3 1 3 1 Z " fill="#C6C6C6" transform="translate(620,120)"/>
<path d="M0 0 C3 1 3 1 3 1 Z " fill="#8D8D8D" transform="translate(71,111)"/>
<path d="M0 0 C3 1 3 1 3 1 Z " fill="#7F7F7F" transform="translate(288,107)"/>
<path d="M0 0 C3 1 3 1 3 1 Z " fill="#545454" transform="translate(236,106)"/>
<path d="M0 0 C3 1 3 1 3 1 Z " fill="#A9A9A9" transform="translate(239,105)"/>
<path d="M0 0 C3 1 3 1 3 1 Z " fill="#8D8D8D" transform="translate(242,104)"/>
<path d="" fill="#464646" transform="translate(0,0)"/>
<path d="" fill="#5454A9" transform="translate(0,0)"/>
<path d="" fill="#717171" transform="translate(0,0)"/>
<path d="" fill="#A9A9A9" transform="translate(0,0)"/>
<path d="" fill="#B8B8B8" transform="translate(0,0)"/>
<path d="" fill="#7F7F7F" transform="translate(0,0)"/>
<path d="" fill="#7F7F7F" transform="translate(0,0)"/>
<path d="" fill="#A9A9A9" transform="translate(0,0)"/>
<path d="" fill="#A9A9A9" transform="translate(0,0)"/>
<path d="M0 0 C3 1 3 1 3 1 Z " fill="#8D8DE2" transform="translate(605,86)"/>
<path d="M0 0 C3 1 3 1 3 1 Z " fill="#A9A9A9" transform="translate(646,85)"/>
<path d="" fill="#A9A9A9" transform="translate(0,0)"/>
<path d="M0 0 C3 1 3 1 3 1 Z " fill="#8D8D8D" transform="translate(643,84)"/>
<path d="M0 0 C3 1 3 1 3 1 Z " fill="#8D8D8D" transform="translate(611,84)"/>
<path d="M0 0 C3 1 3 1 3 1 Z " fill="#7F7F7F" transform="translate(8,82)"/>
<path d="M0 0 C3 1 3 1 3 1 Z " fill="#B8B8B8" transform="translate(16,79)"/>
<path d="M0 0 C3 1 3 1 3 1 Z " fill="#B8B8B8" transform="translate(301,78)"/>
<path d="M0 0 C3 1 3 1 3 1 Z " fill="#718D8D" transform="translate(19,78)"/>
<path d="M0 0 C3 1 3 1 3 1 Z " fill="#557171" transform="translate(298,77)"/>
<path d="M0 0 C3 1 3 1 3 1 Z " fill="#464663" transform="translate(295,76)"/>
<path d="M0 0 C3 1 3 1 3 1 Z " fill="#B8B8B8" transform="translate(292,75)"/>
<path d="M0 0 C3 1 3 1 3 1 Z " fill="#555571" transform="translate(71,75)"/>
<path d="M0 0 C3 1 3 1 3 1 Z " fill="#B8B8B8" transform="translate(417,74)"/>
<path d="M0 0 C3 1 3 1 3 1 Z " fill="#545454" transform="translate(251,74)"/>
<path d="M0 0 C3 1 3 1 3 1 Z " fill="#7F7F7F" transform="translate(306,42)"/>
<path d="M0 0 C3 1 3 1 3 1 Z " fill="#636363" transform="translate(395,41)"/>
<path d="M0 0 C3 1 3 1 3 1 Z " fill="#B8B8B8" transform="translate(303,41)"/>
<path d="M0 0 C3 1 3 1 3 1 Z " fill="#717171" transform="translate(229,41)"/>
<path d="M0 0 C3 1 3 1 3 1 Z " fill="#557171" transform="translate(455,40)"/>
<path d="M0 0 C3 1 3 1 3 1 Z " fill="#C6C6C6" transform="translate(232,40)"/>
<path d="M0 0 C3 1 3 1 3 1 Z " fill="#6363B8" transform="translate(452,39)"/>
<path d="M0 0 C3 1 3 1 3 1 Z " fill="#A9A9A9" transform="translate(401,39)"/>
<path d="M0 0 C2 1 2 1 2 1 Z " fill="#7F7F7F" transform="translate(646,230)"/>
<path d="M0 0 C2 1 2 1 2 1 Z " fill="#7F7F7F" transform="translate(606,229)"/>
<path d="M0 0 C2 1 2 1 2 1 Z " fill="#D4D4D4" transform="translate(651,228)"/>
<path d="M0 0 C2 1 2 1 2 1 Z " fill="#6A6A6A" transform="translate(604,228)"/>
<path d="M0 0 C2 1 2 1 2 1 Z " fill="#7F7F7F" transform="translate(456,228)"/>
<path d="M0 0 C2 1 2 1 2 1 Z " fill="#D4D4D4" transform="translate(653,227)"/>
<path d="M0 0 C2 1 2 1 2 1 Z " fill="#6A6A6A" transform="translate(602,227)"/>
<path d="M0 0 C2 1 2 1 2 1 Z " fill="#949494" transform="translate(395,227)"/>
<path d="M0 0 C2 1 2 1 2 1 Z " fill="#7F7F7F" transform="translate(285,227)"/>
<path d="M0 0 C2 1 2 1 2 1 Z " fill="#7F7F7F" transform="translate(220,227)"/>
<path d="M0 0 C2 1 2 1 2 1 Z " fill="#3F3F3F" transform="translate(655,226)"/>
<path d="M0 0 C2 1 2 1 2 1 Z " fill="#7F7F7F" transform="translate(600,226)"/>
<path d="M0 0 C2 1 2 1 2 1 Z " fill="#555555" transform="translate(461,226)"/>
<path d="M0 0 C2 1 2 1 2 1 Z " fill="#6A6A6A" transform="translate(393,226)"/>
<path d="M0 0 C2 1 2 1 2 1 Z " fill="#949494" transform="translate(218,226)"/>
<path d="M0 0 C2 1 2 1 2 1 Z " fill="#3F3F3F" transform="translate(598,225)"/>
<path d="M0 0 C2 1 2 1 2 1 Z " fill="#555555" transform="translate(463,225)"/>
<path d="M0 0 C2 1 2 1 2 1 Z " fill="#6A6A94" transform="translate(391,225)"/>
<path d="M0 0 C2 1 2 1 2 1 Z " fill="#555555" transform="translate(290,225)"/>
<path d="M0 0 C2 1 2 1 2 1 Z " fill="#6A9494" transform="translate(216,225)"/>
<path d="M0 0 C2 1 2 1 2 1 Z " fill="#7F7F7F" transform="translate(106,225)"/>
<path d="M0 0 C2 1 2 1 2 1 Z " fill="#555555" transform="translate(658,224)"/>
<path d="M0 0 C2 1 2 1 2 1 Z " fill="#7F7F7F" transform="translate(389,224)"/>
<path d="M0 0 C2 1 2 1 2 1 Z " fill="#D4D4D4" transform="translate(214,224)"/>
<path d="M0 0 C2 1 2 1 2 1 Z " fill="#949494" transform="translate(108,224)"/>
<path d="M0 0 C2 1 2 1 2 1 Z " fill="#BFBFBF" transform="translate(466,223)"/>
<path d="M0 0 C2 1 2 1 2 1 Z " fill="#D4D4D4" transform="translate(387,223)"/>
<path d="M0 0 C2 1 2 1 2 1 Z " fill="#3F3F3F" transform="translate(212,223)"/>
<path d="M0 0 C2 1 2 1 2 1 Z " fill="#555555" transform="translate(110,223)"/>
<path d="M0 0 C2 1 2 1 2 1 Z " fill="#7F7F7F" transform="translate(594,222)"/>
<path d="M0 0 C2 1 2 1 2 1 Z " fill="#555555" transform="translate(468,222)"/>
<path d="M0 0 C2 1 2 1 2 1 Z " fill="#D4D4D4" transform="translate(295,222)"/>
<path d="M0 0 C2 1 2 1 2 1 Z " fill="#AAD4D4" transform="translate(384,221)"/>
<path d="M0 0 C2 1 2 1 2 1 Z " fill="#555555" transform="translate(209,221)"/>
<path d="M0 0 C2 1 2 1 2 1 Z " fill="#AAAAAA" transform="translate(114,221)"/>
<path d="M0 0 C2 1 2 1 2 1 Z " fill="#BFFFFF" transform="translate(298,220)"/>
<path d="M0 0 C2 1 2 1 2 1 Z " fill="#D4D4D4" transform="translate(116,220)"/>
<path d="M0 0 C2 1 2 1 2 1 Z " fill="#BFBFBF" transform="translate(380,218)"/>
<path d="M0 0 C2 1 2 1 2 1 Z " fill="#BFBFBF" transform="translate(119,218)"/>
<path d="M0 0 C2 1 2 1 2 1 Z " fill="#FFFFFF" transform="translate(302,217)"/>
<path d="M0 0 C2 1 2 1 2 1 Z " fill="#BFBFFF" transform="translate(123,215)"/>
<path d="" fill="#555555" transform="translate(0,0)"/>
<path d="M0 0 C2 1 2 1 2 1 Z " fill="#7F7F7F" transform="translate(264,196)"/>
<path d="M0 0 C2 1 2 1 2 1 Z " fill="#BFBFBF" transform="translate(241,196)"/>
<path d="M0 0 C2 1 2 1 2 1 Z " fill="#949494" transform="translate(266,195)"/>
<path d="M0 0 C2 1 2 1 2 1 Z " fill="#BFBFBF" transform="translate(239,195)"/>
<path d="M0 0 C2 1 2 1 2 1 Z " fill="#BFBFBF" transform="translate(600,194)"/>
<path d="M0 0 C2 1 2 1 2 1 Z " fill="#7F7F7F" transform="translate(417,194)"/>
<path d="" fill="#949494" transform="translate(0,0)"/>
<path d="M0 0 C2 1 2 1 2 1 Z " fill="#6A6A6A" transform="translate(625,193)"/>
<path d="M0 0 C2 1 2 1 2 1 Z " fill="#3F3F3F" transform="translate(598,193)"/>
<path d="M0 0 C2 1 2 1 2 1 Z " fill="#BFBFBF" transform="translate(415,193)"/>
<path d="M0 0 C2 1 2 1 2 1 Z " fill="#BFBFBF" transform="translate(596,192)"/>
<path d="M0 0 C2 1 2 1 2 1 Z " fill="#3F3F5F" transform="translate(440,192)"/>
<path d="M0 0 C2 1 2 1 2 1 Z " fill="#7F7F7F" transform="translate(76,192)"/>
<path d="" fill="#949494" transform="translate(0,0)"/>
<path d="M0 0 C2 1 2 1 2 1 Z " fill="#BFBFBF" transform="translate(78,191)"/>
<path d="M0 0 C2 1 2 1 2 1 Z " fill="#D4D4D4" transform="translate(80,190)"/>
<path d="" fill="#7F7F7F" transform="translate(0,0)"/>
<path d="M0 0 C2 1 2 1 2 1 Z " fill="#7F7F7F" transform="translate(12,188)"/>
<path d="" fill="#7F7F7F" transform="translate(0,0)"/>
<path d="M0 0 C2 1 2 1 2 1 Z " fill="#949494" transform="translate(7,186)"/>
<path d="M0 0 C2 1 2 1 2 1 Z " fill="#BFBFBF" transform="translate(5,185)"/>
<path d="M0 0 C2 1 2 1 2 1 Z " fill="#555555" transform="translate(3,184)"/>
<path d="" fill="#949494" transform="translate(0,0)"/>
<path d="" fill="#949494" transform="translate(0,0)"/>
<path d="M0 0 C2 1 2 1 2 1 Z " fill="#3F3F3F" transform="translate(80,155)"/>
<path d="M0 0 C2 1 2 1 2 1 Z " fill="#555555" transform="translate(78,154)"/>
<path d="M0 0 C2 1 2 1 2 1 Z " fill="#BFBFBF" transform="translate(76,153)"/>
<path d="" fill="#AAAAAA" transform="translate(0,0)"/>
<path d="" fill="#7F7F7F" transform="translate(0,0)"/>
<path d="M0 0 C2 1 2 1 2 1 Z " fill="#BFBFBF" transform="translate(265,140)"/>
<path d="M0 0 C2 1 2 1 2 1 Z " fill="#3F3F3F" transform="translate(240,140)"/>
<path d="M0 0 C2 1 2 1 2 1 Z " fill="#7F7F7F" transform="translate(263,139)"/>
<path d="M0 0 C2 1 2 1 2 1 Z " fill="#7F7F7F" transform="translate(242,139)"/>
<path d="" fill="#949494" transform="translate(0,0)"/>
<path d="" fill="#949494" transform="translate(0,0)"/>
<path d="M0 0 C2 1 2 1 2 1 Z " fill="#555555" transform="translate(122,134)"/>
<path d="" fill="#7F7FAA" transform="translate(0,0)"/>
<path d="M0 0 C2 1 2 1 2 1 Z " fill="#D4D4D4" transform="translate(119,132)"/>
<path d="M0 0 C2 1 2 1 2 1 Z " fill="#7F7F7F" transform="translate(117,131)"/>
<path d="M0 0 C2 1 2 1 2 1 Z " fill="#555555" transform="translate(115,130)"/>
<path d="M0 0 C2 1 2 1 2 1 Z " fill="#D4D4D4" transform="translate(113,129)"/>
<path d="M0 0 C2 1 2 1 2 1 Z " fill="#949494" transform="translate(111,128)"/>
<path d="M0 0 C2 1 2 1 2 1 Z " fill="#6A6A6A" transform="translate(112,125)"/>
<path d="M0 0 C2 1 2 1 2 1 Z " fill="#7F7F7F" transform="translate(114,124)"/>
<path d="M0 0 C2 1 2 1 2 1 Z " fill="#6A6A6A" transform="translate(116,123)"/>
<path d="M0 0 C2 1 2 1 2 1 Z " fill="#BFBFBF" transform="translate(625,122)"/>
<path d="M0 0 C2 1 2 1 2 1 Z " fill="#7F7F7F" transform="translate(597,122)"/>
<path d="M0 0 C2 1 2 1 2 1 Z " fill="#BFBFBF" transform="translate(623,121)"/>
<path d="M0 0 C2 1 2 1 2 1 Z " fill="#949494" transform="translate(599,121)"/>
<path d="" fill="#7F7F7F" transform="translate(0,0)"/>
<path d="" fill="#949494" transform="translate(0,0)"/>
<path d="M0 0 C2 1 2 1 2 1 Z " fill="#BFBFBF" transform="translate(123,118)"/>
<path d="" fill="#949494" transform="translate(0,0)"/>
<path d="M0 0 C2 1 2 1 2 1 Z " fill="#BFBFBF" transform="translate(301,114)"/>
<path d="M0 0 C2 1 2 1 2 1 Z " fill="#BFBFBF" transform="translate(298,112)"/>
<path d="M0 0 C2 1 2 1 2 1 Z " fill="#BFBFBF" transform="translate(295,110)"/>
<path d="M0 0 C2 1 2 1 2 1 Z " fill="#7F7F7F" transform="translate(228,110)"/>
<path d="M0 0 C2 1 2 1 2 1 Z " fill="#7F7F7F" transform="translate(74,110)"/>
<path d="M0 0 C2 1 2 1 2 1 Z " fill="#949494" transform="translate(293,109)"/>
<path d="M0 0 C2 1 2 1 2 1 Z " fill="#555555" transform="translate(230,109)"/>
<path d="M0 0 C2 1 2 1 2 1 Z " fill="#3F3F3F" transform="translate(76,109)"/>
<path d="M0 0 C2 1 2 1 2 1 Z " fill="#949494" transform="translate(291,108)"/>
<path d="M0 0 C2 1 2 1 2 1 Z " fill="#D4D4D4" transform="translate(232,108)"/>
<path d="M0 0 C2 1 2 1 2 1 Z " fill="#BFBFBF" transform="translate(78,108)"/>
<path d="M0 0 C2 1 2 1 2 1 Z " fill="#7F7F7F" transform="translate(234,107)"/>
<path d="M0 0 C2 1 2 1 2 1 Z " fill="#7F7F7F" transform="translate(286,106)"/>
<path d="" fill="#949494" transform="translate(0,0)"/>
<path d="" fill="#949494" transform="translate(0,0)"/>
<path d="M0 0 C2 1 2 1 2 1 Z " fill="#555555" transform="translate(661,93)"/>
<path d="" fill="#9494D4" transform="translate(0,0)"/>
<path d="" fill="#AAAAAA" transform="translate(0,0)"/>
<path d="M0 0 C2 1 2 1 2 1 Z " fill="#7F7F7F" transform="translate(595,92)"/>
<path d="" fill="#7F7F7F" transform="translate(0,0)"/>
<path d="M0 0 C2 1 2 1 2 1 Z " fill="#7F7F7F" transform="translate(598,90)"/>
<path d="M0 0 C2 1 2 1 2 1 Z " fill="#7F7F7F" transform="translate(655,89)"/>
<path d="M0 0 C2 1 2 1 2 1 Z " fill="#AAD4D4" transform="translate(653,88)"/>
<path d="M0 0 C2 1 2 1 2 1 Z " fill="#55D4D4" transform="translate(601,88)"/>
<path d="" fill="#7F7F7F" transform="translate(0,0)"/>
<path d="M0 0 C2 1 2 1 2 1 Z " fill="#D4D4D4" transform="translate(651,87)"/>
<path d="M0 0 C2 1 2 1 2 1 Z " fill="#BFBFBF" transform="translate(603,87)"/>
<path d="M0 0 C2 1 2 1 2 1 Z " fill="#949494" transform="translate(649,86)"/>
<path d="M0 0 C2 1 2 1 2 1 Z " fill="#7F7F7F" transform="translate(608,85)"/>
<path d="" fill="#AAAAAA" transform="translate(0,0)"/>
<path d="" fill="#949494" transform="translate(0,0)"/>
<path d="" fill="#9494D4" transform="translate(0,0)"/>
<path d="M0 0 C2 1 2 1 2 1 Z " fill="#557FAA" transform="translate(311,82)"/>
<path d="M0 0 C2 1 2 1 2 1 Z " fill="#949494" transform="translate(309,81)"/>
<path d="M0 0 C2 1 2 1 2 1 Z " fill="#949494" transform="translate(11,81)"/>
<path d="" fill="#7F7F7F" transform="translate(0,0)"/>
<path d="M0 0 C2 1 2 1 2 1 Z " fill="#D4D4D4" transform="translate(306,80)"/>
<path d="M0 0 C2 1 2 1 2 1 Z " fill="#7F7F7F" transform="translate(14,80)"/>
<path d="M0 0 C2 1 2 1 2 1 Z " fill="#7F7F7F" transform="translate(304,79)"/>
<path d="M0 0 C2 1 2 1 2 1 Z " fill="#949494" transform="translate(78,78)"/>
<path d="M0 0 C2 1 2 1 2 1 Z " fill="#D4D4D4" transform="translate(244,77)"/>
<path d="M0 0 C2 1 2 1 2 1 Z " fill="#3F3F3F" transform="translate(76,77)"/>
<path d="M0 0 C2 1 2 1 2 1 Z " fill="#949494" transform="translate(440,76)"/>
<path d="M0 0 C2 1 2 1 2 1 Z " fill="#7F7F7F" transform="translate(246,76)"/>
<path d="M0 0 C2 1 2 1 2 1 Z " fill="#BFBFBF" transform="translate(74,76)"/>
<path d="M0 0 C2 1 2 1 2 1 Z " fill="#BFBFBF" transform="translate(438,75)"/>
<path d="M0 0 C2 1 2 1 2 1 Z " fill="#949494" transform="translate(415,75)"/>
<path d="M0 0 C2 1 2 1 2 1 Z " fill="#7F7FAA" transform="translate(248,75)"/>
<path d="M0 0 C2 1 2 1 2 1 Z " fill="#7F7F7F" transform="translate(436,74)"/>
<path d="" fill="#949494" transform="translate(0,0)"/>
<path d="M0 0 C2 1 2 1 2 1 Z " fill="#D4D4D4" transform="translate(207,54)"/>
<path d="M0 0 C2 1 2 1 2 1 Z " fill="#D4D4D4" transform="translate(379,51)"/>
<path d="M0 0 C2 1 2 1 2 1 Z " fill="#BFBFBF" transform="translate(211,51)"/>
<path d="M0 0 C2 1 2 1 2 1 Z " fill="#BFBFBF" transform="translate(473,50)"/>
<path d="M0 0 C2 1 2 1 2 1 Z " fill="#BFBFBF" transform="translate(383,48)"/>
<path d="M0 0 C2 1 2 1 2 1 Z " fill="#D4D4D4" transform="translate(469,47)"/>
<path d="M0 0 C2 1 2 1 2 1 Z " fill="#6A9494" transform="translate(217,47)"/>
<path d="M0 0 C2 1 2 1 2 1 Z " fill="#7F7F7F" transform="translate(386,46)"/>
<path d="M0 0 C2 1 2 1 2 1 Z " fill="#AAAAD4" transform="translate(219,46)"/>
<path d="M0 0 C2 1 2 1 2 1 Z " fill="#7F7F7F" transform="translate(115,46)"/>
<path d="M0 0 C2 1 2 1 2 1 Z " fill="#3F3F3F" transform="translate(466,45)"/>
<path d="M0 0 C2 1 2 1 2 1 Z " fill="#AAAAD4" transform="translate(113,45)"/>
<path d="M0 0 C2 1 2 1 2 1 Z " fill="#949494" transform="translate(464,44)"/>
<path d="M0 0 C2 1 2 1 2 1 Z " fill="#555555" transform="translate(389,44)"/>
<path d="M0 0 C2 1 2 1 2 1 Z " fill="#D4D4D4" transform="translate(223,44)"/>
<path d="M0 0 C2 1 2 1 2 1 Z " fill="#D4D4D4" transform="translate(111,44)"/>
<path d="M0 0 C2 1 2 1 2 1 Z " fill="#6A6A94" transform="translate(462,43)"/>
<path d="M0 0 C2 1 2 1 2 1 Z " fill="#BFBFBF" transform="translate(391,43)"/>
<path d="M0 0 C2 1 2 1 2 1 Z " fill="#7F7F7F" transform="translate(310,43)"/>
<path d="M0 0 C2 1 2 1 2 1 Z " fill="#6A9494" transform="translate(225,43)"/>
<path d="M0 0 C2 1 2 1 2 1 Z " fill="#7F7F7F" transform="translate(109,43)"/>
<path d="M0 0 C2 1 2 1 2 1 Z " fill="#AAAAAA" transform="translate(8,43)"/>
<path d="M0 0 C2 1 2 1 2 1 Z " fill="#949494" transform="translate(460,42)"/>
<path d="M0 0 C2 1 2 1 2 1 Z " fill="#BFBFBF" transform="translate(393,42)"/>
<path d="M0 0 C2 1 2 1 2 1 Z " fill="#7F7F7F" transform="translate(227,42)"/>
<path d="M0 0 C2 1 2 1 2 1 Z " fill="#7F7F7F" transform="translate(107,42)"/>
<path d="M0 0 C2 1 2 1 2 1 Z " fill="#BFBFBF" transform="translate(458,41)"/>
<path d="M0 0 C2 1 2 1 2 1 Z " fill="#7F7F7F" transform="translate(104,41)"/>
<path d="M0 0 C2 1 2 1 2 1 Z " fill="#7F7F7F" transform="translate(398,40)"/>
<path d="" fill="#5555AA" transform="translate(0,0)"/>
<path d="" fill="#555555" transform="translate(0,0)"/>
<path d="" fill="#AAAAAA" transform="translate(0,0)"/>
<path d="" fill="#AAAAAA" transform="translate(0,0)"/>
<path d="" fill="#7F7F7F" transform="translate(0,0)"/>
<path d="" fill="#7F7F7F" transform="translate(0,0)"/>
<path d="" fill="#55AAAA" transform="translate(0,0)"/>
<path d="" fill="#7F7F7F" transform="translate(0,0)"/>
<path d="" fill="#AAAAAA" transform="translate(0,0)"/>
<path d="" fill="#555555" transform="translate(0,0)"/>
<path d="" fill="#AAAAAA" transform="translate(0,0)"/>
<path d="" fill="#AAAAAA" transform="translate(0,0)"/>
<path d="" fill="#AAAAAA" transform="translate(0,0)"/>
<path d="" fill="#AAAAAA" transform="translate(0,0)"/>
<path d="" fill="#7F7F7F" transform="translate(0,0)"/>
<path d="" fill="#7F7F7F" transform="translate(0,0)"/>
<path d="" fill="#AAAAAA" transform="translate(0,0)"/>
<path d="" fill="#7F7F7F" transform="translate(0,0)"/>
<path d="" fill="#7F7F7F" transform="translate(0,0)"/>
<path d="" fill="#7F7F7F" transform="translate(0,0)"/>
<path d="" fill="#7F7F7F" transform="translate(0,0)"/>
<path d="" fill="#AAAAAA" transform="translate(0,0)"/>
<path d="" fill="#7F7F7F" transform="translate(0,0)"/>
<path d="" fill="#AAAAAA" transform="translate(0,0)"/>
<path d="" fill="#5555AA" transform="translate(0,0)"/>
<path d="" fill="#7F7F7F" transform="translate(0,0)"/>
<path d="" fill="#AAAAAA" transform="translate(0,0)"/>
<path d="" fill="#7F7F7F" transform="translate(0,0)"/>
<path d="" fill="#AAAAAA" transform="translate(0,0)"/>
<path d="" fill="#7F7F7F" transform="translate(0,0)"/>
<path d="" fill="#7FFFFF" transform="translate(0,0)"/>
<path d="" fill="#AAAAAA" transform="translate(0,0)"/>
<path d="" fill="#AAAAAA" transform="translate(0,0)"/>
<path d="" fill="#7F7F7F" transform="translate(0,0)"/>
<path d="" fill="#AAAAAA" transform="translate(0,0)"/>
<path d="" fill="#7F7F7F" transform="translate(0,0)"/>
<path d="" fill="#555555" transform="translate(0,0)"/>
<path d="" fill="#7F7F7F" transform="translate(0,0)"/>
<path d="" fill="#555555" transform="translate(0,0)"/>
<path d="" fill="#7F7F7F" transform="translate(0,0)"/>
<path d="" fill="#5555AA" transform="translate(0,0)"/>
<path d="" fill="#AAAAAA" transform="translate(0,0)"/>
<path d="" fill="#7F7F7F" transform="translate(0,0)"/>
<path d="" fill="#7F7F7F" transform="translate(0,0)"/>
<path d="" fill="#7F7F7F" transform="translate(0,0)"/>
<path d="" fill="#7F7F7F" transform="translate(0,0)"/>
<path d="" fill="#7F7F7F" transform="translate(0,0)"/>
<path d="" fill="#7F7F7F" transform="translate(0,0)"/>
<path d="" fill="#7F7F7F" transform="translate(0,0)"/>
<path d="" fill="#555555" transform="translate(0,0)"/>
<path d="" fill="#7F7F7F" transform="translate(0,0)"/>
<path d="" fill="#7F7F7F" transform="translate(0,0)"/>
<path d="" fill="#7F7F7F" transform="translate(0,0)"/>
<path d="" fill="#AAAAAA" transform="translate(0,0)"/>
<path d="" fill="#7F7F7F" transform="translate(0,0)"/>
<path d="" fill="#7F7F7F" transform="translate(0,0)"/>
<path d="" fill="#AAAAAA" transform="translate(0,0)"/>
<path d="" fill="#AAAAAA" transform="translate(0,0)"/>
<path d="" fill="#7F7F7F" transform="translate(0,0)"/>
<path d="" fill="#7F7F7F" transform="translate(0,0)"/>
<path d="" fill="#AAAAAA" transform="translate(0,0)"/>
<path d="" fill="#AAAAAA" transform="translate(0,0)"/>
<path d="" fill="#555555" transform="translate(0,0)"/>
<path d="" fill="#AAAAAA" transform="translate(0,0)"/>
<path d="" fill="#AAAAAA" transform="translate(0,0)"/>
<path d="" fill="#7F7F7F" transform="translate(0,0)"/>
<path d="" fill="#AAAAAA" transform="translate(0,0)"/>
<path d="" fill="#7F7F7F" transform="translate(0,0)"/>
<path d="" fill="#AAAAAA" transform="translate(0,0)"/>
<path d="" fill="#999999" transform="translate(0,0)"/>
<path d="" fill="#7F7F7F" transform="translate(0,0)"/>
<path d="" fill="#AAAAAA" transform="translate(0,0)"/>
<path d="" fill="#666666" transform="translate(0,0)"/>
<path d="" fill="#AAAAAA" transform="translate(0,0)"/>
<path d="" fill="#7F7F7F" transform="translate(0,0)"/>
<path d="" fill="#999999" transform="translate(0,0)"/>
<path d="" fill="#7F7F7F" transform="translate(0,0)"/>
<path d="" fill="#666666" transform="translate(0,0)"/>
<path d="" fill="#999999" transform="translate(0,0)"/>
<path d="" fill="#7F7F7F" transform="translate(0,0)"/>
<path d="" fill="#666699" transform="translate(0,0)"/>
<path d="" fill="#7F7F7F" transform="translate(0,0)"/>
<path d="" fill="#AAAAAA" transform="translate(0,0)"/>
<path d="" fill="#7F7FBF" transform="translate(0,0)"/>
<path d="" fill="#7F7F7F" transform="translate(0,0)"/>
<path d="" fill="#AAAAAA" transform="translate(0,0)"/>
<path d="" fill="#7F7F7F" transform="translate(0,0)"/>
<path d="" fill="#7F7F7F" transform="translate(0,0)"/>
<path d="" fill="#AAAAAA" transform="translate(0,0)"/>
<path d="" fill="#7F7FBF" transform="translate(0,0)"/>
<path d="" fill="#7F7FBF" transform="translate(0,0)"/>
<path d="" fill="#7F7F7F" transform="translate(0,0)"/>
<path d="" fill="#7F7F7F" transform="translate(0,0)"/>
<path d="" fill="#7F7F7F" transform="translate(0,0)"/>
<path d="" fill="#AAAAAA" transform="translate(0,0)"/>
<path d="" fill="#7F7F7F" transform="translate(0,0)"/>
<path d="" fill="#AAAAAA" transform="translate(0,0)"/>
<path d="" fill="#AAAAAA" transform="translate(0,0)"/>
<path d="" fill="#555555" transform="translate(0,0)"/>
<path d="" fill="#7F7F7F" transform="translate(0,0)"/>
<path d="" fill="#7F7F7F" transform="translate(0,0)"/>
<path d="" fill="#7F7F7F" transform="translate(0,0)"/>
<path d="" fill="#AAAAAA" transform="translate(0,0)"/>
<path d="" fill="#7FBFBF" transform="translate(0,0)"/>
<path d="" fill="#7F7F7F" transform="translate(0,0)"/>
<path d="" fill="#7F7F7F" transform="translate(0,0)"/>
<path d="" fill="#7F7F7F" transform="translate(0,0)"/>
<path d="" fill="#AAAAAA" transform="translate(0,0)"/>
<path d="" fill="#7F7F7F" transform="translate(0,0)"/>
<path d="" fill="#7F7F7F" transform="translate(0,0)"/>
<path d="" fill="#7F7F7F" transform="translate(0,0)"/>
<path d="" fill="#7F7F7F" transform="translate(0,0)"/>
<path d="" fill="#AAAAAA" transform="translate(0,0)"/>
<path d="" fill="#7F7F7F" transform="translate(0,0)"/>
<path d="" fill="#AAAAAA" transform="translate(0,0)"/>
<path d="" fill="#AAAAAA" transform="translate(0,0)"/>
<path d="" fill="#666666" transform="translate(0,0)"/>
<path d="" fill="#7F7F7F" transform="translate(0,0)"/>
<path d="" fill="#666666" transform="translate(0,0)"/>
<path d="" fill="#669999" transform="translate(0,0)"/>
<path d="" fill="#5555AA" transform="translate(0,0)"/>
<path d="" fill="#AAAAAA" transform="translate(0,0)"/>
<path d="" fill="#7F7F7F" transform="translate(0,0)"/>
<path d="" fill="#7F7F7F" transform="translate(0,0)"/>
<path d="" fill="#7F7F7F" transform="translate(0,0)"/>
<path d="" fill="#7F7F7F" transform="translate(0,0)"/>
<path d="" fill="#7F7F7F" transform="translate(0,0)"/>
<path d="" fill="#7F7F7F" transform="translate(0,0)"/>
<path d="" fill="#AAAAAA" transform="translate(0,0)"/>
<path d="" fill="#7F7F7F" transform="translate(0,0)"/>
<path d="" fill="#7F7F7F" transform="translate(0,0)"/>
<path d="" fill="#AAAAAA" transform="translate(0,0)"/>
<path d="" fill="#7F7F7F" transform="translate(0,0)"/>
<path d="" fill="#7F7F7F" transform="translate(0,0)"/>
<path d="" fill="#7F7F7F" transform="translate(0,0)"/>
<path d="" fill="#7F7F7F" transform="translate(0,0)"/>
<path d="" fill="#AAAAAA" transform="translate(0,0)"/>
<path d="" fill="#7F7F7F" transform="translate(0,0)"/>
<path d="" fill="#999999" transform="translate(0,0)"/>
<path d="" fill="#AAAAAA" transform="translate(0,0)"/>
<path d="" fill="#666699" transform="translate(0,0)"/>
<path d="" fill="#7FBFBF" transform="translate(0,0)"/>
<path d="" fill="#999999" transform="translate(0,0)"/>
<path d="" fill="#999999" transform="translate(0,0)"/>
<path d="" fill="#999999" transform="translate(0,0)"/>
<path d="" fill="#7F7F7F" transform="translate(0,0)"/>
<path d="" fill="#AAAAAA" transform="translate(0,0)"/>
<path d="" fill="#7F7F7F" transform="translate(0,0)"/>
<path d="" fill="#7F7F7F" transform="translate(0,0)"/>
<path d="" fill="#AAAAAA" transform="translate(0,0)"/>
<path d="" fill="#555555" transform="translate(0,0)"/>
<path d="" fill="#AAAAAA" transform="translate(0,0)"/>
<path d="" fill="#AAAAAA" transform="translate(0,0)"/>
<path d="" fill="#7F7F7F" transform="translate(0,0)"/>
<path d="" fill="#7F7F7F" transform="translate(0,0)"/>
<path d="" fill="#7F7F7F" transform="translate(0,0)"/>
<path d="" fill="#7F7FBF" transform="translate(0,0)"/>
<path d="" fill="#555555" transform="translate(0,0)"/>
<path d="" fill="#AAAAAA" transform="translate(0,0)"/>
<path d="" fill="#7F7FBF" transform="translate(0,0)"/>
<path d="" fill="#AAAAAA" transform="translate(0,0)"/>
<path d="" fill="#AAAAAA" transform="translate(0,0)"/>
<path d="" fill="#7F7FBF" transform="translate(0,0)"/>
<path d="" fill="#AAAAAA" transform="translate(0,0)"/>
<path d="" fill="#555555" transform="translate(0,0)"/>
<path d="" fill="#7F7F7F" transform="translate(0,0)"/>
<path d="" fill="#AAAAAA" transform="translate(0,0)"/>
<path d="" fill="#7F7F7F" transform="translate(0,0)"/>
<path d="" fill="#7F7F7F" transform="translate(0,0)"/>
<path d="" fill="#AAAAAA" transform="translate(0,0)"/>
<path d="" fill="#7F7F7F" transform="translate(0,0)"/>
<path d="" fill="#7F7F7F" transform="translate(0,0)"/>
<path d="" fill="#555555" transform="translate(0,0)"/>
<path d="" fill="#7F7F7F" transform="translate(0,0)"/>
<path d="" fill="#555555" transform="translate(0,0)"/>
<path d="" fill="#7F7F7F" transform="translate(0,0)"/>
<path d="" fill="#7F7F7F" transform="translate(0,0)"/>
<path d="" fill="#AAAAAA" transform="translate(0,0)"/>
<path d="" fill="#7F7F7F" transform="translate(0,0)"/>
<path d="" fill="#AAAAAA" transform="translate(0,0)"/>
<path d="" fill="#7F7F7F" transform="translate(0,0)"/>
<path d="" fill="#7F7F7F" transform="translate(0,0)"/>
<path d="" fill="#7F7F7F" transform="translate(0,0)"/>
<path d="" fill="#AAAAAA" transform="translate(0,0)"/>
<path d="" fill="#7F7F7F" transform="translate(0,0)"/>
<path d="" fill="#AAAAAA" transform="translate(0,0)"/>
<path d="" fill="#7F7F7F" transform="translate(0,0)"/>
<path d="" fill="#7F7F7F" transform="translate(0,0)"/>
<path d="" fill="#7F7F7F" transform="translate(0,0)"/>
<path d="" fill="#7F7F7F" transform="translate(0,0)"/>
<path d="" fill="#AAAAAA" transform="translate(0,0)"/>
<path d="" fill="#AAAAAA" transform="translate(0,0)"/>
<path d="" fill="#AAAAAA" transform="translate(0,0)"/>
</svg>
