<?xml version="1.0" encoding="UTF-8"?>
<!-- Generator: visioncortex VTracer 0.6.12 -->
<svg version="1.1" xmlns="http://www.w3.org/2000/svg" width="1193" height="320">
<path d="M0 0 C104.567 0 104.567 0 131 18 C134 20 134 20 136.125 20.938 C138 22 138 22 139 25 C139.639 25.309 140.279 25.619 140.938 25.938 C143.536 27.276 143.741 28.408 145 31 C145.763 31.722 146.526 32.444 147.312 33.188 C152.63 38.753 155.233 44.334 156 52 C156.66 52.99 157.32 53.98 158 55 C163.477 71.432 162.159 91.69 158.707 108.371 C158.146 111.252 157.85 113.837 157.75 116.75 C157.025 124.632 151.715 132.757 146 138 C144 140 144 140 143.188 141.938 C141.635 144.634 139.644 145.441 137 147 C136.67 147.99 136.34 148.98 136 150 C134.674 150.361 133.339 150.689 132 151 C130.444 152.032 128.926 153.122 127.438 154.25 C93.11 178.755 34.937 170 0 170 C0 113.9 0 57.8 0 0 Z M45 34 C45 34.33 45 34.66 45 35 C52.92 35 60.84 35 69 35 C69 34.67 69 34.34 69 34 C61.08 34 53.16 34 45 34 Z M45 36 C45 68.34 45 100.68 45 134 C45.33 134 45.66 134 46 134 C46 101.66 46 69.32 46 36 C45.67 36 45.34 36 45 36 Z M57.562 35.5 C57.054 35.524 57.054 35.524 54.479 35.645 C51.986 35.762 49.493 35.88 47 36 C47.004 37.223 47.009 38.447 47.013 39.707 C47.054 51.214 47.084 62.722 47.104 74.229 C47.114 80.146 47.128 86.062 47.151 91.979 C47.173 97.685 47.185 103.391 47.19 109.096 C47.193 111.277 47.201 113.458 47.211 115.639 C47.226 118.685 47.228 121.731 47.227 124.777 C47.231 125.231 47.231 125.231 47.249 127.532 C47.228 133.772 47.228 133.772 45 136 C85.262 136.925 85.262 136.925 100.141 124.164 C102.98 121.008 104.485 117.964 106 114 C106.99 113.67 107.98 113.34 109 113 C109 111.35 109 109.7 109 108 C109.66 108 110.32 108 111 108 C112.423 104.177 113.24 101.087 113 97 C113.33 97 113.66 97 114 97 C115.023 87.125 115.47 77.735 113 68 C112.34 67.67 111.68 67.34 111 67 C110.184 64.82 110.184 64.82 109.438 62.125 C109.189 61.241 108.94 60.356 108.684 59.445 C108.458 58.638 108.232 57.831 108 57 C107.835 56.505 107.835 56.505 107 54 C106.01 53.67 105.02 53.34 104 53 C103.657 51.669 103.325 50.335 103 49 C96.314 41.009 86.032 36.839 76 35 C69.847 34.849 63.707 35.204 57.562 35.5 Z M110 62 C111 64 111 64 111 64 Z M109 109 C110 111 110 111 110 111 Z M155 118 C156 120 156 120 156 120 Z M154 121 C155 123 155 123 155 123 Z " fill="#888D93" transform="translate(228,75)"/>
<path d="M0 0 C106.128 0 106.128 0 132.301 18.871 C134 20 134 20 137 21 C137.309 21.639 137.619 22.279 137.938 22.938 C139 25 139 25 141 25.938 C143.745 27.396 143.914 29.175 145 32 C145.99 32.33 146.98 32.66 148 33 C152.197 38.81 155.835 44.722 156 52 C156.66 52 157.32 52 158 52 C158.049 52.583 158.098 53.165 158.148 53.766 C158.567 58.353 159.147 62.798 160.062 67.312 C162.387 81.013 161.527 94.906 158.656 108.434 C158.051 111.724 157.876 114.666 158 118 C157.34 118 156.68 118 156 118 C155.711 119.031 155.423 120.062 155.125 121.125 C154.938 121.767 154.751 122.409 154.559 123.07 C154.084 124.709 153.633 126.354 153.188 128 C151.703 131.749 149.753 135.035 147 138 C146.01 138.33 145.02 138.66 144 139 C143.876 139.619 143.753 140.238 143.625 140.875 C142.719 143.957 140.701 144.392 138 146 C137.484 146.866 136.969 147.732 136.438 148.625 C135 151 135 151 132.812 151.812 C132.214 151.874 131.616 151.936 131 152 C131 152.66 131 153.32 131 154 C130.691 154.062 130.691 154.062 129.125 154.375 C127 155 127 155 125 157 C124.01 157.33 123.02 157.66 122 158 C120.393 158.765 118.789 159.537 117.188 160.312 C81.772 176.478 35.266 170 0 170 C0 113.9 0 57.8 0 0 Z M45 34 C45 34.33 45 34.66 45 35 C52.92 35 60.84 35 69 35 C69 34.67 69 34.34 69 34 C61.08 34 53.16 34 45 34 Z M45 36 C45 68.34 45 100.68 45 134 C45.33 134 45.66 134 46 134 C46 101.66 46 69.32 46 36 C45.67 36 45.34 36 45 36 Z M57.562 35.5 C57.054 35.524 57.054 35.524 54.479 35.645 C51.986 35.762 49.493 35.88 47 36 C47.004 37.223 47.009 38.447 47.013 39.707 C47.054 51.214 47.084 62.722 47.104 74.229 C47.114 80.146 47.128 86.062 47.151 91.979 C47.173 97.685 47.185 103.391 47.19 109.096 C47.193 111.277 47.201 113.458 47.211 115.639 C47.226 118.685 47.228 121.731 47.227 124.777 C47.231 125.231 47.231 125.231 47.249 127.532 C47.228 133.772 47.228 133.772 45 136 C85.262 136.925 85.262 136.925 100.141 124.164 C102.964 121.026 104.573 117.976 106 114 C107.843 111.063 109.548 108.452 112 106 C113.602 100.624 114.439 95.465 114.75 89.875 C114.77 89.511 114.77 89.511 114.874 87.667 C115.623 69.92 115.623 69.92 111.586 65.426 C111.324 65.191 111.324 65.191 110 64 C109.068 62.386 108.195 60.736 107.375 59.062 C107.162 58.635 107.162 58.635 106.086 56.473 C105 54 105 54 104.594 51.93 C102.994 46.73 96.75 42.987 92.238 40.441 C80.518 34.933 70.299 34.887 57.562 35.5 Z M110 61 C111 64 111 64 111 64 Z " fill="#888D93" transform="translate(601,75)"/>
<path d="M0 0 C0.365 -0.001 0.365 -0.001 2.21 -0.008 C21.832 -0.015 39.726 3.239 58.75 8.312 C59.08 20.523 59.41 32.733 59.75 45.312 C56.024 44.567 53.014 43.696 49.538 42.294 C30.276 34.553 6.412 29.301 -13.855 36.199 C-16.062 37.188 -16.062 37.188 -19.25 39.312 C-19.914 41.273 -19.914 41.273 -20.25 43.312 C-20.343 43.766 -20.343 43.766 -20.812 46.062 C-20.957 46.805 -21.101 47.547 -21.25 48.312 C-21.91 48.312 -22.57 48.312 -23.25 48.312 C-22.25 51.313 -22.25 51.313 -21.25 53.25 C-20.25 55.312 -20.25 55.312 -19.909 57.308 C-19.25 59.312 -19.25 59.312 -17.696 60.509 C-12.826 62.79 -8.176 64.263 -2.902 65.277 C-2.128 65.437 -1.354 65.597 -0.556 65.762 C1.898 66.269 4.355 66.761 6.812 67.25 C35.771 73.037 35.771 73.037 47.812 79.875 C48.814 80.433 49.816 80.991 50.848 81.566 C53.882 83.392 56.819 85.325 59.75 87.312 C60.245 87.642 60.245 87.642 62.75 89.312 C63.08 90.303 63.41 91.293 63.75 92.312 C64.204 92.725 64.658 93.137 65.125 93.562 C70.055 98.872 70.263 105.386 70.438 112.25 C70.453 112.708 70.453 112.708 70.534 115.025 C70.624 117.787 70.69 120.549 70.75 123.312 C70.772 124.133 70.794 124.953 70.816 125.798 C71.14 138.727 71.14 138.727 66.75 145.312 C66.413 146.614 66.124 147.929 65.875 149.25 C64.965 153.065 63.857 154.793 60.75 157.312 C60.278 157.749 59.806 158.186 59.32 158.637 C42.56 173.914 21.415 177.967 -0.68 177.496 C-22.938 176.352 -42.805 171.62 -64.25 165.312 C-63.92 152.773 -63.59 140.232 -63.25 127.312 C-59.668 128.029 -57.528 128.49 -54.422 129.984 C-53.713 130.317 -53.005 130.649 -52.274 130.992 C-51.899 131.168 -51.899 131.168 -50 132.062 C-29.627 141.35 -5.146 148.088 16.75 140.312 C19.947 138.882 22.237 137.559 23.625 134.188 C23.666 133.239 23.707 132.29 23.75 131.312 C23.774 130.928 23.774 130.928 23.898 128.98 C24.136 122.896 23.493 118.614 19.473 113.776 C11.619 107.106 -3.177 106.169 -12.941 104.045 C-28.633 100.521 -43.745 96.036 -54.812 83.695 C-56.25 82.312 -56.25 82.312 -59.25 81.312 C-62.532 77.147 -62.762 73.432 -63.25 68.312 C-63.421 67.719 -63.591 67.126 -63.767 66.515 C-64.456 63.372 -64.361 60.355 -64.348 57.141 C-64.346 56.458 -64.345 55.776 -64.343 55.073 C-64.338 52.903 -64.325 50.733 -64.312 48.562 C-64.307 47.087 -64.303 45.612 -64.299 44.137 C-64.288 40.529 -64.271 36.921 -64.25 33.312 C-63.59 33.312 -62.93 33.312 -62.25 33.312 C-61.92 31.002 -61.59 28.692 -61.25 26.312 C-60.26 25.983 -59.27 25.653 -58.25 25.312 C-58.095 24.828 -58.095 24.828 -57.312 22.375 C-56.25 19.312 -56.25 19.312 -54.402 18.324 C-53.692 17.99 -52.982 17.656 -52.25 17.312 C-51.056 16.26 -49.891 15.173 -48.75 14.062 C-35.1 1.907 -17.475 0.06 0 0 Z M66.75 99.312 C67.75 101.312 67.75 101.312 67.75 101.312 Z M67.75 102.312 C68.75 104.312 68.75 104.312 68.75 104.312 Z M25.75 121.312 C25.75 124.613 25.75 127.912 25.75 131.312 C26.08 131.312 26.41 131.312 26.75 131.312 C26.75 128.012 26.75 124.713 26.75 121.312 C26.42 121.312 26.09 121.312 25.75 121.312 Z M68.75 134.312 C69.75 138.312 69.75 138.312 69.75 138.312 Z " fill="#888D93" transform="translate(854.25,71.6875)"/>
<path d="M0 0 C15.51 0 31.02 0 47 0 C47.165 0.66 47.165 0.66 48 4 C48.165 4.495 48.165 4.495 49 7 C49.667 9 50.333 11 51 13 C52 15 52 15 54 18 C54.441 19.882 54.811 21.781 55.125 23.688 C55.293 24.681 55.46 25.675 55.633 26.699 C55.754 27.458 55.875 28.218 56 29 C56.66 29 57.32 29 58 29 C58 30.98 58 32.96 58 35 C58.66 35 59.32 35 60 35 C61.802 38.83 62.196 41.781 62 46 C62.66 46 63.32 46 64 46 C66.04 50.93 67.407 54.58 67 60 C67.66 60 68.32 60 69 60 C69 61.65 69 63.3 69 65 C69.66 65 70.32 65 71 65 C71.165 66.485 71.165 66.485 72 74 C72.66 74 73.32 74 74 74 C75.802 77.83 76.196 80.781 76 85 C76.66 85 77.32 85 78 85 C78 86.65 78 88.3 78 90 C78.66 90 79.32 90 80 90 C80 91.98 80 93.96 80 96 C80.66 96 81.32 96 82 96 C84.04 100.93 85.407 104.58 85 110 C85.66 110 86.32 110 87 110 C87.165 111.32 87.165 111.32 88 118 C88.99 118 89.98 118 91 118 C91 116.02 91 114.04 91 112 C91.66 112 92.32 112 93 112 C93 110.35 93 108.7 93 107 C93.66 107 94.32 107 95 107 C95.205 106.241 95.41 105.481 95.621 104.699 C95.891 103.705 96.16 102.711 96.438 101.688 C96.704 100.701 96.971 99.715 97.246 98.699 C100.163 88.255 100.163 88.255 103 84 C103.125 81.312 103.125 81.312 103 79 C103.66 79 104.32 79 105 79 C105 77.02 105 75.04 105 73 C105.66 73 106.32 73 107 73 C107.33 70.36 107.66 67.72 108 65 C108.66 65 109.32 65 110 65 C110.024 64.687 110.024 64.687 110.148 63.102 C110.186 62.693 110.186 62.693 110.375 60.625 C110.445 59.813 110.514 59.001 110.586 58.164 C111 56 111 56 113 54 C114.776 51.335 115.388 49.993 116.062 47 C117.337 41.439 118.826 35.76 122 31 C122.125 28.312 122.125 28.312 122 26 C122.66 26 123.32 26 124 26 C124 24.02 124 22.04 124 20 C124.66 20 125.32 20 126 20 C126.062 19.402 126.062 19.402 126.375 16.375 C126.823 12.724 127.704 9.455 129 6 C129.66 6 130.32 6 131 6 C131 4.35 131 2.7 131 1 C133.83 0.057 135.543 -0.122 138.471 -0.114 C138.922 -0.113 138.922 -0.113 141.201 -0.113 C142.17 -0.108 143.139 -0.103 144.137 -0.098 C144.634 -0.097 144.634 -0.097 147.151 -0.093 C150.33 -0.088 153.509 -0.075 156.688 -0.062 C158.842 -0.057 160.996 -0.053 163.15 -0.049 C168.434 -0.038 173.717 -0.021 179 0 C179.625 1.812 179.625 1.812 180 4 C179.34 4.99 178.68 5.98 178 7 C177 9 177 9 176 12 C175.34 12.99 174.68 13.98 174 15 C173.875 17.688 173.875 17.688 174 20 C173.34 20 172.68 20 172 20 C172 21.98 172 23.96 172 26 C171.34 26 170.68 26 170 26 C169.67 28.64 169.34 31.28 169 34 C168.34 34 167.68 34 167 34 C167 35.65 167 37.3 167 39 C166.34 39 165.68 39 165 39 C164.67 41.64 164.34 44.28 164 47 C163.34 47 162.68 47 162 47 C162.041 47.949 162.082 48.898 162.125 49.875 C162 53 162 53 160 55 C159.67 55.99 159.34 56.98 159 58 C158 61 158 61 157 63 C156.67 63.99 156.34 64.98 156 66 C155.34 66.99 154.68 67.98 154 69 C153.875 71.688 153.875 71.688 154 74 C153.34 74 152.68 74 152 74 C152.041 74.949 152.082 75.897 152.125 76.875 C152 80 152 80 150 82 C149.67 82.99 149.34 83.98 149 85 C148 88 148 88 147 90 C146.67 90.99 146.34 91.98 146 93 C145.34 93.99 144.68 94.98 144 96 C143.875 98.688 143.875 98.688 144 101 C143.34 101 142.68 101 142 101 C142.041 101.949 142.082 102.897 142.125 103.875 C142 107 142 107 140 109 C139.67 109.99 139.34 110.98 139 112 C138 115 138 115 137 117 C136.641 118.996 136.305 120.995 136 123 C135.34 123 134.68 123 134 123 C134 124.65 134 126.3 134 128 C133.34 128 132.68 128 132 128 C131.67 130.64 131.34 133.28 131 136 C130.34 136 129.68 136 129 136 C129 137.98 129 139.96 129 142 C128.34 142 127.68 142 127 142 C127 143.65 127 145.3 127 147 C126.34 147 125.68 147 125 147 C124.34 150.63 123.68 154.26 123 158 C122.34 158 121.68 158 121 158 C121 159.65 121 161.3 121 163 C120.34 163 119.68 163 119 163 C118.67 165.31 118.34 167.62 118 170 C110.222 170.025 102.444 170.043 94.666 170.055 C92.019 170.06 89.372 170.067 86.725 170.075 C82.925 170.088 79.124 170.093 75.324 170.098 C74.137 170.103 72.949 170.108 71.726 170.113 C71.175 170.113 71.175 170.113 68.389 170.114 C67.419 170.116 66.449 170.118 65.449 170.12 C63 170 63 170 60 169 C60 167.35 60 165.7 60 164 C59.34 164 58.68 164 58 164 C57.67 161.36 57.34 158.72 57 156 C56.34 156 55.68 156 55 156 C54.939 155.62 54.939 155.62 54.633 153.699 C54.549 153.202 54.549 153.202 54.125 150.688 C53.963 149.701 53.8 148.715 53.633 147.699 C53 145 53 145 51 142 C48.848 138.772 48.799 137.716 49 134 C48.34 134 47.68 134 47 134 C43.571 125.571 43.571 125.571 44 121 C43.34 121 42.68 121 42 121 C36.444 106.403 36.444 106.403 36 99 C35.34 99 34.68 99 34 99 C34 97.35 34 95.7 34 94 C33.34 94 32.68 94 32 94 C32.041 93.051 32.082 92.103 32.125 91.125 C32 88 32 88 30 86 C29 83 28 80 27 77 C26 75 26 75 24 72 C23.875 69.312 23.875 69.312 24 67 C23.34 67 22.68 67 22 67 C21.67 64.36 21.34 61.72 21 59 C20.34 59 19.68 59 19 59 C19 57.02 19 55.04 19 53 C18.34 53 17.68 53 17 53 C16.67 50.36 16.34 47.72 16 45 C15.34 45 14.68 45 14 45 C14 43.35 14 41.7 14 40 C13.34 40 12.68 40 12 40 C11.879 39.241 11.758 38.481 11.633 37.699 C11.465 36.705 11.298 35.711 11.125 34.688 C10.963 33.701 10.8 32.715 10.633 31.699 C9.842 28.325 8.433 26.433 6 24 C5.875 20.875 5.875 20.875 6 18 C5.34 18 4.68 18 4 18 C3.67 15.36 3.34 12.72 3 10 C2.34 10 1.68 10 1 10 C1 8.35 1 6.7 1 5 C0.34 5 -0.32 5 -1 5 C-0.67 3.35 -0.34 1.7 0 0 Z M178 2 C179 4 179 4 179 4 Z M128 12 C129 14 129 14 129 14 Z M127 15 C128 17 128 17 128 17 Z M7 21 C8 23 8 23 8 23 Z M53 21 C54 23 54 23 54 23 Z M168 29 C169 31 169 31 169 31 Z M12 35 C13 37 13 37 13 37 Z M59 38 C60 40 60 40 60 40 Z M63 49 C64 51 64 51 64 51 Z M64 52 C65 54 65 54 65 54 Z M112 57 C113 59 113 59 113 59 Z M22 62 C23 64 23 64 23 64 Z M25 70 C26 72 26 72 26 72 Z M73 77 C74 79 74 79 74 79 Z M150 77 C151 79 151 79 151 79 Z M81 99 C82 101 82 101 82 101 Z M82 102 C83 104 83 104 83 104 Z M38 105 C39 107 39 107 39 107 Z M40 110 C41 112 41 112 41 112 Z M41 113 C42 115 42 115 42 115 Z M42 116 C43 118 43 118 43 118 Z M135 118 C136 120 136 120 136 120 Z M89 121 C90 123 90 123 90 123 Z M45 124 C46 126 46 126 46 126 Z M47 129 C48 131 48 131 48 131 Z M55 151 C56 153 56 153 56 153 Z M122 153 C123 155 123 155 123 155 Z M58 159 C59 161 59 161 59 161 Z " fill="#878C92" transform="translate(401,75)"/>
<path d="M0 0 C0 11.22 0 22.44 0 34 C-5.118 33.147 -7.242 32.529 -11.5 30.125 C-23.963 23.685 -37.538 22.179 -51 26 C-56.888 28.141 -60.404 30.879 -64 36 C-64.33 36.99 -64.66 37.98 -65 39 C-65.66 39 -66.32 39 -67 39 C-67.144 39.763 -67.289 40.526 -67.438 41.312 C-68 44 -68 44 -69 47 C-69.33 47 -69.66 47 -70 47 C-71.177 51.625 -71.114 56.079 -71.062 60.812 C-71.058 61.601 -71.053 62.389 -71.049 63.201 C-71.037 65.134 -71.019 67.067 -71 69 C-70.34 69 -69.68 69 -69 69 C-69 71.64 -69 74.28 -69 77 C-68.34 77 -67.68 77 -67 77 C-63.076 83.582 -63.076 83.582 -62.629 86.039 C-61.741 88.806 -60.286 89.564 -57.875 91.125 C-57.13 91.623 -56.385 92.12 -55.617 92.633 C-45.226 98.061 -30.917 97.529 -19.875 94.312 C-15.253 92.662 -10.994 90.604 -6.805 88.051 C-5 87 -5 87 -2 86 C-2 97.55 -2 109.1 -2 121 C-28.35 128.823 -58.189 132.673 -83.566 119.188 C-87.479 116.927 -91.241 114.506 -95 112 C-95.33 111.845 -95.33 111.845 -97 111.062 C-99.151 109.92 -100.471 108.893 -102 107 C-102.165 106.299 -102.33 105.597 -102.5 104.875 C-102.665 104.256 -102.83 103.637 -103 103 C-103.99 102.67 -104.98 102.34 -106 102 C-107.57 99.996 -107.57 99.996 -109.125 97.438 C-109.643 96.611 -110.161 95.785 -110.695 94.934 C-112.026 91.941 -112.47 89.306 -112.78 86.059 C-113.128 82.804 -113.883 79.637 -114.562 76.438 C-117.21 62.861 -115.989 50.355 -113 37 C-112.811 36.151 -112.621 35.301 -112.426 34.426 C-111.993 32.607 -111.5 30.802 -111 29 C-110.711 27.928 -110.423 26.855 -110.125 25.75 C-108.873 22.691 -107.388 21.239 -105 19 C-104.67 18.299 -104.34 17.597 -104 16.875 C-103 15 -103 15 -101.16 14.086 C-98.817 12.908 -97.325 11.56 -95.438 9.75 C-90.741 5.559 -85.642 2.741 -80 0 C-79.616 -0.191 -79.616 -0.191 -77.672 -1.156 C-53.021 -12.224 -24.797 -7.085 0 0 Z M-111 89 C-110 91 -110 91 -110 91 Z " fill="#888D93" transform="translate(1066,121)"/>
<path d="M0 0 C0.963 0.491 1.926 0.982 2.918 1.488 C9.994 5.324 15.551 9.911 21.309 15.449 C23.779 17.791 26.322 19.903 29 22 C32.593 25.185 34.582 27.123 35 32 C35.99 32.33 36.98 32.66 38 33 C39.387 34.891 39.387 34.891 40.688 37.25 C41.124 38.018 41.561 38.787 42.012 39.578 C43.097 42.237 43.187 44.156 43 47 C43.66 47 44.32 47 45 47 C45.647 49.083 46.293 51.166 46.938 53.25 C47.117 53.83 47.117 53.83 48.027 56.766 C48.348 57.833 48.669 58.9 49 60 C49.18 60.584 49.36 61.169 49.546 61.771 C50.572 66.807 50.267 72.077 50.295 77.205 C50.307 78.634 50.327 80.063 50.357 81.492 C50.583 92.346 50.236 103.646 44 113 C43 115 43 115 42.75 117.125 C41.686 121.202 39.625 124.704 37 128 C36.34 128 35.68 128 35 128 C34.938 128.722 34.876 129.444 34.812 130.188 C33.255 135.579 28.173 138.771 23.996 142.273 C22.561 143.514 21.161 144.796 19.785 146.102 C0.117 164.654 -21.777 169.704 -48.121 169.305 C-70.322 168.578 -90.142 158.147 -105.562 142.5 C-105.852 142.185 -105.852 142.185 -107.316 140.594 C-109 139 -109 139 -111.152 137.969 C-113 137 -113 137 -114 134 C-114.594 133.428 -115.189 132.855 -115.801 132.266 C-118.569 129.414 -120.338 126.228 -122.188 122.75 C-122.543 122.12 -122.898 121.489 -123.264 120.84 C-125.761 116.187 -126.608 112.265 -127 107 C-127.66 107 -128.32 107 -129 107 C-129.865 101.02 -130.16 95.21 -130.168 89.172 C-130.171 88.26 -130.175 87.349 -130.178 86.41 C-130.183 84.497 -130.185 82.585 -130.185 80.672 C-130.188 77.745 -130.206 74.818 -130.225 71.891 C-130.228 70.026 -130.23 68.161 -130.23 66.297 C-130.238 65.424 -130.245 64.551 -130.252 63.652 C-130.249 62.837 -130.246 62.022 -130.243 61.183 C-130.244 60.47 -130.246 59.756 -130.247 59.022 C-129.809 55.441 -127.978 52.967 -126 50 C-125.931 49.461 -125.931 49.461 -125.582 46.73 C-124.944 42.64 -123.683 39.923 -121.688 36.312 C-121.39 35.764 -121.39 35.764 -119.887 32.988 C-118.14 30.222 -116.358 28.237 -114 26 C-113.691 25.319 -113.381 24.639 -113.062 23.938 C-112 22 -112 22 -109.875 20.75 C-107.183 19.111 -105.629 17.648 -103.5 15.375 C-77.08 -11.538 -33.091 -17.502 0 0 Z M-93 23 C-93 23.99 -93 24.98 -93 26 C-95.312 28 -95.312 28 -98 30 C-100.129 31.814 -100.947 32.868 -102 35.5 C-103.265 38.662 -105.002 40.162 -107.562 42.312 C-110.13 45.327 -110.819 48.982 -111.5 52.812 C-111.665 53.534 -111.83 54.256 -112 55 C-112.33 55.165 -112.33 55.165 -114 56 C-115.077 61.275 -115.16 66.487 -115.168 71.855 C-115.171 72.68 -115.175 73.504 -115.178 74.353 C-115.183 76.083 -115.185 77.813 -115.185 79.544 C-115.188 82.19 -115.206 84.836 -115.225 87.482 C-115.228 89.169 -115.23 90.856 -115.23 92.543 C-115.238 93.332 -115.245 94.12 -115.252 94.933 C-115.23 100.279 -114.774 103.226 -111 107 C-110.856 108.093 -110.711 109.186 -110.562 110.312 C-110 114.002 -109.235 116.049 -107 119 C-106.34 119 -105.68 119 -105 119 C-101.182 124.091 -101.182 124.091 -100.562 127.188 C-99.682 130.024 -97.521 130.619 -95 132 C-93.187 133.688 -93.187 133.688 -92 135 C-92.33 135.66 -92.66 136.32 -93 137 C-73.316 152.466 -53.694 157.961 -29 156 C-13.286 154.066 4.509 145.197 14.73 132.922 C16 131 16 131 17 128 C17.99 127.67 18.98 127.34 20 127 C20.364 125.675 20.688 124.338 21 123 C21.895 121.351 22.794 119.704 23.73 118.079 C34.225 99.74 36.395 79.315 31.219 58.922 C29.153 52.119 26.089 46.082 22.586 39.91 C21 37 21 37 19.977 34.184 C19.815 33.823 19.815 33.823 19 32 C18.01 31.67 17.02 31.34 16 31 C15.859 30.407 15.719 29.814 15.574 29.203 C13.917 22.843 5.332 18.017 0.051 14.767 C-27.169 -1.152 -70.15 -2.072 -93 23 Z M-123 41 C-122 43 -122 43 -122 43 Z M41 43 C42 45 42 45 42 45 Z M29 50 C30 52 30 52 30 52 Z M44 50 C45 52 45 52 45 52 Z M-112 51 C-111 53 -111 53 -111 53 Z M30 53 C31 55 31 55 31 55 Z M45 53 C46 55 46 55 46 55 Z M31 56 C32 58 32 58 32 58 Z M46 56 C47 59 47 59 47 59 Z M-129 57 C-128 60 -128 60 -128 60 Z M32 59 C33 62 33 62 33 62 Z M47 60 C48 64 48 64 48 64 Z M33 63 C34 67 34 67 34 67 Z M-116 64 C-115 68 -115 68 -115 68 Z M48 65 C48 66.98 48 68.96 48 71 C48.33 71 48.66 71 49 71 C49 69.02 49 67.04 49 65 C48.67 65 48.34 65 48 65 Z M34 68 C34 70.31 34 72.62 34 75 C34.33 75 34.66 75 35 75 C35 72.69 35 70.38 35 68 C34.67 68 34.34 68 34 68 Z M-117 69 C-117 76.26 -117 83.52 -117 91 C-116.67 91 -116.34 91 -116 91 C-116 83.74 -116 76.48 -116 69 C-116.33 69 -116.66 69 -117 69 Z M35 76 C35 78.64 35 81.28 35 84 C35.33 84 35.66 84 36 84 C36 81.36 36 78.72 36 76 C35.67 76 35.34 76 35 76 Z M34 85 C34 87.31 34 89.62 34 92 C34.33 92 34.66 92 35 92 C35 89.69 35 87.38 35 85 C34.67 85 34.34 85 34 85 Z M48 89 C48 90.98 48 92.96 48 95 C48.33 95 48.66 95 49 95 C49 93.02 49 91.04 49 89 C48.67 89 48.34 89 48 89 Z M-116 92 C-115 96 -115 96 -115 96 Z M33 93 C34 97 34 97 34 97 Z M47 96 C48 100 48 100 48 100 Z M32 98 C33 101 33 101 33 101 Z M-129 100 C-128 103 -128 103 -128 103 Z M46 101 C47 104 47 104 47 104 Z M31 102 C32 104 32 104 32 104 Z M30 105 C31 107 31 107 31 107 Z M45 105 C46 107 46 107 46 107 Z M-112 107 C-111 109 -111 109 -111 109 Z M29 108 C30 110 30 110 30 110 Z M44 108 C45 110 45 110 45 110 Z M41 115 C42 117 42 117 42 117 Z M-123 117 C-122 119 -122 119 -122 119 Z " fill="#898E95" transform="translate(130,80)"/>
<path d="M0 0 C0.354 -0.002 0.354 -0.002 2.143 -0.012 C5.65 -0.005 8.507 0.267 11.938 1.125 C11.938 13.665 11.938 26.205 11.938 39.125 C7.318 37.805 2.697 36.485 -2.062 35.125 C-10.957 34.506 -19.144 34.528 -27.062 39.125 C-27.392 40.115 -27.723 41.105 -28.062 42.125 C-30.125 42.812 -30.125 42.812 -32.062 43.125 C-32.124 43.401 -32.124 43.401 -32.434 44.797 C-33.142 47.421 -34.099 49.859 -35.125 52.375 C-35.487 53.267 -35.849 54.159 -36.223 55.078 C-36.5 55.754 -36.777 56.429 -37.062 57.125 C-37.723 57.125 -38.382 57.125 -39.062 57.125 C-40.007 61.135 -40.215 64.911 -40.268 69.027 C-40.278 69.7 -40.288 70.374 -40.298 71.068 C-40.329 73.281 -40.354 75.494 -40.379 77.707 C-40.399 79.247 -40.42 80.787 -40.442 82.327 C-40.497 86.369 -40.546 90.412 -40.595 94.454 C-40.654 99.31 -40.72 104.166 -40.785 109.022 C-40.883 116.389 -40.972 123.757 -41.062 131.125 C-54.922 131.125 -68.783 131.125 -83.062 131.125 C-83.062 88.885 -83.062 46.645 -83.062 3.125 C-41.062 3.125 -41.062 3.125 -39.062 4.125 C-38.648 6.848 -38.648 6.848 -38.438 10.188 C-38.363 11.292 -38.288 12.397 -38.211 13.535 C-38.162 14.39 -38.113 15.244 -38.062 16.125 C-37.093 15.259 -36.124 14.393 -35.125 13.5 C-24.406 4.377 -14.169 -0.078 0 0 Z " fill="#888D93" transform="translate(1181.0625,113.875)"/>
<path d="M0 0 C3.544 1.417 6.676 2.818 10 4.617 C10.96 5.136 11.92 5.655 12.909 6.19 C13.929 6.746 14.949 7.302 16 7.875 C16.527 8.161 16.527 8.161 19.195 9.611 C30.545 15.803 41.899 22.056 52.938 28.793 C54.974 29.985 56.69 30.572 59 31 C59 31.66 59 32.32 59 33 C56.668 34.206 54.504 35.165 52 36 C50.409 36.804 48.833 37.636 47.266 38.484 C46.31 39.002 45.353 39.519 44.368 40.052 C43.339 40.612 42.31 41.173 41.25 41.75 C40.192 42.324 39.134 42.898 38.044 43.49 C29.437 48.176 20.898 52.978 12.401 57.86 C11.502 58.374 10.602 58.888 9.676 59.418 C8.891 59.869 8.107 60.321 7.298 60.786 C5 62 5 62 0 64 C0 42.88 0 21.76 0 0 Z " fill="#888D93" transform="translate(68,128)"/>
<path d="M0 0 C0.33 0 0.66 0 1 0 C1 56.1 1 112.2 1 170 C0.67 170 0.34 170 0 170 C0 113.9 0 57.8 0 0 Z " fill="#55A9A9" transform="translate(599,75)"/>
<path d="M0 0 C0.33 0 0.66 0 1 0 C1 56.1 1 112.2 1 170 C0.67 170 0.34 170 0 170 C0 113.9 0 57.8 0 0 Z " fill="#A9A9A9" transform="translate(226,75)"/>
<path d="M0 0 C0.33 0 0.66 0 1 0 C1 42.24 1 84.48 1 128 C0.67 128 0.34 128 0 128 C0 85.76 0 43.52 0 0 Z " fill="#AAAAAA" transform="translate(1096,117)"/>
<path d="M0 0 C0.45 0 0.45 0 2.729 0 C3.698 0.005 4.667 0.011 5.665 0.016 C6.163 0.017 6.163 0.017 8.679 0.02 C11.858 0.026 15.037 0.038 18.216 0.051 C20.37 0.056 22.525 0.061 24.679 0.065 C29.962 0.076 35.245 0.092 40.529 0.114 C40.694 0.774 40.694 0.774 41.529 4.114 C41.364 3.784 41.364 3.784 40.529 2.114 C39.539 2.444 38.549 2.774 37.529 3.114 C36.162 3.172 34.792 3.173 33.424 3.135 C32.604 3.115 31.783 3.095 30.938 3.074 C30.056 3.047 29.175 3.02 28.267 2.992 C27.361 2.969 26.455 2.945 25.522 2.921 C22.628 2.844 19.735 2.76 16.841 2.676 C14.879 2.623 12.918 2.57 10.956 2.518 C6.147 2.389 1.338 2.253 -3.471 2.114 C-3.471 2.774 -3.471 3.434 -3.471 4.114 C-4.461 4.444 -5.451 4.774 -6.471 5.114 C-6.801 3.794 -7.131 2.474 -7.471 1.114 C-4.641 0.17 -2.928 -0.008 0 0 Z " fill="#8E939A" transform="translate(539.471435546875,74.886474609375)"/>
<path d="M0 0 C24.42 0 48.84 0 74 0 C74 0.33 74 0.66 74 1 C49.58 1 25.16 1 0 1 C0 0.67 0 0.34 0 0 Z " fill="#66676B" transform="translate(601,246)"/>
<path d="M0 0 C24.42 0 48.84 0 74 0 C74 0.33 74 0.66 74 1 C49.58 1 25.16 1 0 1 C0 0.67 0 0.34 0 0 Z " fill="#67686C" transform="translate(228,246)"/>
<path d="M0 0 C24.42 0 48.84 0 74 0 C74 0.33 74 0.66 74 1 C49.58 1 25.16 1 0 1 C0 0.67 0 0.34 0 0 Z " fill="#9E9E9F" transform="translate(601,73)"/>
<path d="M0 0 C24.42 0 48.84 0 74 0 C74 0.33 74 0.66 74 1 C49.58 1 25.16 1 0 1 C0 0.67 0 0.34 0 0 Z " fill="#9E9E9E" transform="translate(228,73)"/>
<path d="M0 0 C0.33 0 0.66 0 1 0 C1 22.77 1 45.54 1 69 C0.67 69 0.34 69 0 69 C0 46.23 0 23.46 0 0 Z " fill="#EDEDEE" transform="translate(1141,176)"/>
<path d="M0 0 C0.33 0 0.66 0 1 0 C1 20.79 1 41.58 1 63 C0.67 63 0.34 63 0 63 C0 42.21 0 21.42 0 0 Z " fill="#A7A7A7" transform="translate(66,128)"/>
<path d="M0 0 C17.49 0 34.98 0 53 0 C53 0.33 53 0.66 53 1 C35.51 1 18.02 1 0 1 C0 0.67 0 0.34 0 0 Z " fill="#585B5D" transform="translate(464,246)"/>
<path d="M0 0 C0.99 0.33 1.98 0.66 3 1 C-0.3 4.3 -3.6 7.6 -7 11 C-7.99 10.67 -8.98 10.34 -10 10 C-9.67 9.01 -9.34 8.02 -9 7 C-7.667 6.333 -6.333 5.667 -5 5 C-3.295 3.373 -1.621 1.711 0 0 Z M-10 11 C-9.34 11.66 -8.68 12.32 -8 13 C-8.33 13.66 -8.66 14.32 -9 15 C-11.562 15.625 -11.562 15.625 -14 16 C-13.67 15.01 -13.34 14.02 -13 13 C-12.34 13 -11.68 13 -11 13 C-10.67 12.34 -10.34 11.68 -10 11 Z " fill="#94989D" transform="translate(807,84)"/>
<path d="M0 0 C14.85 0 29.7 0 45 0 C45 0.33 45 0.66 45 1 C30.15 1 15.3 1 0 1 C0 0.67 0 0.34 0 0 Z " fill="#A5A5A5" transform="translate(401,73)"/>
<path d="M0 0 C14.52 0 29.04 0 44 0 C44 0.33 44 0.66 44 1 C29.48 1 14.96 1 0 1 C0 0.67 0 0.34 0 0 Z " fill="#A6A8AA" transform="translate(535,73)"/>
<path d="M0 0 C13.53 0 27.06 0 41 0 C41 0.33 41 0.66 41 1 C27.47 1 13.94 1 0 1 C0 0.67 0 0.34 0 0 Z " fill="#595C5E" transform="translate(1098,246)"/>
<path d="M0 0 C13.53 0 27.06 0 41 0 C41 0.33 41 0.66 41 1 C27.47 1 13.94 1 0 1 C0 0.67 0 0.34 0 0 Z " fill="#A8A8A8" transform="translate(1098,115)"/>
<path d="M0 0 C0.99 0 1.98 0 3 0 C3.103 1.072 3.206 2.145 3.312 3.25 C3.978 6.88 4.498 8.398 7 11 C7.66 11.33 8.32 11.66 9 12 C8.34 13.32 7.68 14.64 7 16 C3.614 12.13 0.67 7.899 -1 3 C-0.67 2.01 -0.34 1.02 0 0 Z " fill="#8E959C" transform="translate(17,187)"/>
<path d="M0 0 C0.33 0 0.66 0 1 0 C1 12.21 1 24.42 1 37 C0.67 37 0.34 37 0 37 C0 24.79 0 12.58 0 0 Z " fill="#808080" transform="translate(789,199)"/>
<path d="M0 0 C0.33 0 0.66 0 1 0 C1 11.88 1 23.76 1 36 C0.67 36 0.34 36 0 36 C0 24.12 0 12.24 0 0 Z " fill="#828282" transform="translate(914,80)"/>
<path d="M0 0 C0.33 0 0.66 0 1 0 C1 10.89 1 21.78 1 33 C0.67 33 0.34 33 0 33 C0 22.11 0 11.22 0 0 Z " fill="#7F7F7F" transform="translate(1065,208)"/>
<path d="M0 0 C0.33 0 0.66 0 1 0 C1.144 1.238 1.289 2.475 1.438 3.75 C1.704 5.984 1.975 7.925 2.688 10.062 C3.203 13.257 1.987 15.981 1 19 C0.67 19 0.34 19 0 19 C0 12.73 0 6.46 0 0 Z " fill="#8D9499" transform="translate(922,183)"/>
<path d="M0 0 C-0.33 0.99 -0.66 1.98 -1 3 C-3.062 3.688 -3.062 3.688 -5 4 C-5.33 3.34 -5.66 2.68 -6 2 C-2.25 0 -2.25 0 0 0 Z M-6 3 C-6 3.66 -6 4.32 -6 5 C-8.31 5.33 -10.62 5.66 -13 6 C-13 5.34 -13 4.68 -13 4 C-10 3 -10 3 -6 3 Z " fill="#8D9499" transform="translate(875,211)"/>
<path d="M0 0 C0.99 0.33 1.98 0.66 3 1 C2.002 3.494 1.314 4.787 -0.938 6.312 C-3 7 -3 7 -6 6 C-4.02 4.02 -2.04 2.04 0 0 Z " fill="#82868D" transform="translate(369,214)"/>
<path d="M0 0 C-0.33 0.99 -0.66 1.98 -1 3 C-1.99 3.33 -2.98 3.66 -4 4 C-4.372 5.323 -4.706 6.657 -5 8 C-5.33 8.165 -5.33 8.165 -7 9 C-7 8.34 -7 7.68 -7 7 C-7.66 6.67 -8.32 6.34 -9 6 C-4.5 0 -4.5 0 0 0 Z " fill="#A1A3A7" transform="translate(749,210)"/>
<path d="M0 0 C7.59 0 15.18 0 23 0 C23 0.33 23 0.66 23 1 C15.41 1 7.82 1 0 1 C0 0.67 0 0.34 0 0 Z " fill="#ABAFB4" transform="translate(78,234)"/>
<path d="M0 0 C0.66 1.32 1.32 2.64 2 4 C1.01 4.33 0.02 4.66 -1 5 C-2.188 7.562 -2.188 7.562 -3 10 C-3.66 9.67 -4.32 9.34 -5 9 C-3.909 5.225 -3.092 2.53 0 0 Z " fill="#90959B" transform="translate(1000,155)"/>
<path d="M0 0 C1.65 0.33 3.3 0.66 5 1 C5 1.66 5 2.32 5 3 C4 3.5 4 3.5 -1 6 C-1.99 5.34 -2.98 4.68 -4 4 C-3.01 3.67 -2.02 3.34 -1 3 C-0.67 2.01 -0.34 1.02 0 0 Z " fill="#91999D" transform="translate(122,158)"/>
<path d="M0 0 C7.59 0 15.18 0 23 0 C23 0.33 23 0.66 23 1 C15.41 1 7.82 1 0 1 C0 0.67 0 0.34 0 0 Z " fill="#ABAFB4" transform="translate(78,85)"/>
<path d="M0 0 C7.26 0 14.52 0 22 0 C22 0.33 22 0.66 22 1 C14.74 1 7.48 1 0 1 C0 0.67 0 0.34 0 0 Z " fill="#909090" transform="translate(1013,112)"/>
<path d="M0 0 C2.799 2.528 4.458 4.204 5 8 C0.323 6.523 0.323 6.523 -1.312 3.875 C-1.539 3.256 -1.766 2.638 -2 2 C-1.34 1.34 -0.68 0.68 0 0 Z " fill="#9498A6" transform="translate(749,110)"/>
<path d="M0 0 C4.554 -0.369 4.554 -0.369 6.812 1.5 C7.204 1.995 7.596 2.49 8 3 C7.67 3.66 7.34 4.32 7 5 C6.01 5 5.02 5 4 5 C1.812 2.5 1.812 2.5 0 0 Z " fill="#989A9D" transform="translate(364,100)"/>
<path d="M0 0 C0.66 0 1.32 0 2 0 C2.66 1.98 3.32 3.96 4 6 C3.34 6 2.68 6 2 6 C1.67 6.66 1.34 7.32 1 8 C-1 5 -1 5 -0.625 2.312 C-0.419 1.549 -0.212 0.786 0 0 Z M0 2 C1 4 1 4 1 4 Z " fill="#86A1A4" transform="translate(955,208)"/>
<path d="M0 0 C2.875 0.25 2.875 0.25 6 1 C7.375 3.062 7.375 3.062 8 5 C7.01 5.33 6.02 5.66 5 6 C3.35 4.02 1.7 2.04 0 0 Z " fill="#929499" transform="translate(909,158)"/>
<path d="M0 0 C2.375 0.188 2.375 0.188 5 1 C6.312 3.562 6.312 3.562 7 6 C4.625 5.812 4.625 5.812 2 5 C0.688 2.438 0.688 2.438 0 0 Z " fill="#9497A2" transform="translate(149,114)"/>
<path d="M0 0 C0.33 0 0.66 0 1 0 C1 6.6 1 13.2 1 20 C0.67 20 0.34 20 0 20 C0 13.4 0 6.8 0 0 Z " fill="#92969B" transform="translate(390,150)"/>
<path d="M0 0 C0.33 0 0.66 0 1 0 C1 6.6 1 13.2 1 20 C0.67 20 0.34 20 0 20 C0 13.4 0 6.8 0 0 Z " fill="#9F9F9F" transform="translate(763,150)"/>
<path d="M0 0 C6.27 0 12.54 0 19 0 C19 0.33 19 0.66 19 1 C12.73 1 6.46 1 0 1 C0 0.67 0 0.34 0 0 Z " fill="#9C9C9C" transform="translate(1020,216)"/>
<path d="M0 0 C0 0.99 0 1.98 0 3 C-0.66 2.34 -1.32 1.68 -2 1 C-1.34 0.67 -0.68 0.34 0 0 Z M-2 2 C-2.33 2.99 -2.66 3.98 -3 5 C-5.062 5.688 -5.062 5.688 -7 6 C-7.33 5.34 -7.66 4.68 -8 4 C-4.25 2 -4.25 2 -2 2 Z " fill="#8F949A" transform="translate(1060,209)"/>
<path d="M0 0 C0.33 0 0.66 0 1 0 C1 5.61 1 11.22 1 17 C0.67 17 0.34 17 0 17 C0 11.39 0 5.78 0 0 Z " fill="#9D9D9D" transform="translate(995,173)"/>
<path d="M0 0 C0.33 0 0.66 0 1 0 C1 5.28 1 10.56 1 16 C0.67 16 0.34 16 0 16 C0 10.72 0 5.44 0 0 Z " fill="#3A64D4" transform="translate(180,152)"/>
<path d="M0 0 C5.28 0 10.56 0 16 0 C16 0.33 16 0.66 16 1 C10.72 1 5.44 1 0 1 C0 0.67 0 0.34 0 0 Z " fill="#979C9C" transform="translate(1173,112)"/>
<path d="M0 0 C0.33 0 0.66 0 1 0 C1 4.95 1 9.9 1 15 C0.67 15 0.34 15 0 15 C0 10.05 0 5.1 0 0 Z " fill="#878787" transform="translate(948,174)"/>
<path d="M0 0 C4.62 0 9.24 0 14 0 C14 0.33 14 0.66 14 1 C9.38 1 4.76 1 0 1 C0 0.67 0 0.34 0 0 Z " fill="#797979" transform="translate(845,214)"/>
<path d="M0 0 C4.29 0 8.58 0 13 0 C13 0.33 13 0.66 13 1 C8.71 1 4.42 1 0 1 C0 0.67 0 0.34 0 0 Z " fill="#8F8F8F" transform="translate(1165,149)"/>
<path d="M0 0 C0.33 0 0.66 0 1 0 C1 3.63 1 7.26 1 11 C0.67 11 0.34 11 0 11 C0 7.37 0 3.74 0 0 Z " fill="#7B7B92" transform="translate(340,147)"/>
<path d="M0 0 C3.63 0 7.26 0 11 0 C11 0.33 11 0.66 11 1 C7.37 1 3.74 1 0 1 C0 0.67 0 0.34 0 0 Z " fill="#8E8E96" transform="translate(675,74)"/>
<path d="M0 0 C3.63 0 7.26 0 11 0 C11 0.33 11 0.66 11 1 C7.37 1 3.74 1 0 1 C0 0.67 0 0.34 0 0 Z " fill="#8E8E96" transform="translate(302,74)"/>
<path d="M0 0 C3.3 0 6.6 0 10 0 C10 0.33 10 0.66 10 1 C6.7 1 3.4 1 0 1 C0 0.67 0 0.34 0 0 Z " fill="#83838C" transform="translate(676,245)"/>
<path d="M0 0 C3.3 0 6.6 0 10 0 C10 0.33 10 0.66 10 1 C6.7 1 3.4 1 0 1 C0 0.67 0 0.34 0 0 Z " fill="#83838C" transform="translate(303,245)"/>
<path d="M0 0 C0.33 0 0.66 0 1 0 C1 3.3 1 6.6 1 10 C0.67 10 0.34 10 0 10 C0 6.7 0 3.4 0 0 Z " fill="#656576" transform="translate(925,196)"/>
<path d="M0 0 C3.3 0 6.6 0 10 0 C10 0.33 10 0.66 10 1 C6.7 1 3.4 1 0 1 C0 0.67 0 0.34 0 0 Z " fill="#767690" transform="translate(864,106)"/>
<path d="M0 0 C3.3 0 6.6 0 10 0 C10 0.33 10 0.66 10 1 C6.7 1 3.4 1 0 1 C0 0.67 0 0.34 0 0 Z " fill="#83838C" transform="translate(847,106)"/>
<path d="M0 0 C0.33 0 0.66 0 1 0 C1 2.97 1 5.94 1 9 C0.67 9 0.34 9 0 9 C0 6.03 0 3.06 0 0 Z " fill="#888888" transform="translate(925,181)"/>
<path d="M0 0 C0.33 0 0.66 0 1 0 C1 2.97 1 5.94 1 9 C0.67 9 0.34 9 0 9 C0 6.03 0 3.06 0 0 Z " fill="#A0A9A9" transform="translate(713,164)"/>
<path d="M0 0 C0.33 0 0.66 0 1 0 C1 2.97 1 5.94 1 9 C0.67 9 0.34 9 0 9 C0 6.03 0 3.06 0 0 Z " fill="#717171" transform="translate(713,147)"/>
<path d="M0 0 C0.33 0 0.66 0 1 0 C1 2.97 1 5.94 1 9 C0.67 9 0.34 9 0 9 C0 6.03 0 3.06 0 0 Z " fill="#6C6C6C" transform="translate(788,127)"/>
<path d="M0 0 C0.33 0 0.66 0 1 0 C1 2.97 1 5.94 1 9 C0.67 9 0.34 9 0 9 C0 6.03 0 3.06 0 0 Z " fill="#888888" transform="translate(788,113)"/>
<path d="M0 0 C2.97 0 5.94 0 9 0 C9 0.33 9 0.66 9 1 C6.03 1 3.06 1 0 1 C0 0.67 0 0.34 0 0 Z " fill="#717A7A" transform="translate(872,71)"/>
<path d="M0 0 C2.64 0 5.28 0 8 0 C8 0.33 8 0.66 8 1 C5.36 1 2.72 1 0 1 C0 0.67 0 0.34 0 0 Z " fill="#7F7F89" transform="translate(837,213)"/>
<path d="M0 0 C0.33 0 0.66 0 1 0 C1 2.64 1 5.28 1 8 C0.67 8 0.34 8 0 8 C0 5.36 0 2.72 0 0 Z " fill="#747494" transform="translate(949,189)"/>
<path d="M0 0 C0.33 0 0.66 0 1 0 C1 2.64 1 5.28 1 8 C0.67 8 0.34 8 0 8 C0 5.36 0 2.72 0 0 Z " fill="#5A5A64" transform="translate(389,170)"/>
<path d="M0 0 C2.64 0 5.28 0 8 0 C8 0.33 8 0.66 8 1 C5.36 1 2.72 1 0 1 C0 0.67 0 0.34 0 0 Z " fill="#7F8A8A" transform="translate(1025,145)"/>
<path d="M0 0 C2.64 0 5.28 0 8 0 C8 0.33 8 0.66 8 1 C5.36 1 2.72 1 0 1 C0 0.67 0 0.34 0 0 Z " fill="#5F5F6A" transform="translate(1005,113)"/>
<path d="M0 0 C2.31 0 4.62 0 7 0 C7 0.33 7 0.66 7 1 C4.69 1 2.38 1 0 1 C0 0.67 0 0.34 0 0 Z " fill="#79798E" transform="translate(829,248)"/>
<path d="M0 0 C2.31 0 4.62 0 7 0 C7 0.33 7 0.66 7 1 C4.69 1 2.38 1 0 1 C0 0.67 0 0.34 0 0 Z " fill="#797979" transform="translate(686,244)"/>
<path d="M0 0 C2.31 0 4.62 0 7 0 C7 0.33 7 0.66 7 1 C4.69 1 2.38 1 0 1 C0 0.67 0 0.34 0 0 Z " fill="#6D7979" transform="translate(313,244)"/>
<path d="M0 0 C0.33 0 0.66 0 1 0 C1 2.31 1 4.62 1 7 C0.67 7 0.34 7 0 7 C0 4.69 0 2.38 0 0 Z " fill="#9D9D9D" transform="translate(762,171)"/>
<path d="M0 0 C0.33 0 0.66 0 1 0 C1 2.31 1 4.62 1 7 C0.67 7 0.34 7 0 7 C0 4.69 0 2.38 0 0 Z " fill="#797979" transform="translate(949,166)"/>
<path d="M0 0 C2.31 0 4.62 0 7 0 C7 0.33 7 0.66 7 1 C4.69 1 2.38 1 0 1 C0 0.67 0 0.34 0 0 Z " fill="#737373" transform="translate(1034,146)"/>
<path d="M0 0 C0.33 0 0.66 0 1 0 C1 2.31 1 4.62 1 7 C0.67 7 0.34 7 0 7 C0 4.69 0 2.38 0 0 Z " fill="#9D9D9D" transform="translate(762,142)"/>
<path d="M0 0 C0.33 0 0.66 0 1 0 C1 2.31 1 4.62 1 7 C0.67 7 0.34 7 0 7 C0 4.69 0 2.38 0 0 Z " fill="#667373" transform="translate(389,142)"/>
<path d="M0 0 C2.31 0 4.62 0 7 0 C7 0.33 7 0.66 7 1 C4.69 1 2.38 1 0 1 C0 0.67 0 0.34 0 0 Z " fill="#A3AFAF" transform="translate(1035,113)"/>
<path d="M0 0 C2.31 0 4.62 0 7 0 C7 0.33 7 0.66 7 1 C4.69 1 2.38 1 0 1 C0 0.67 0 0.34 0 0 Z " fill="#737F7F" transform="translate(670,111)"/>
<path d="M0 0 C2.31 0 4.62 0 7 0 C7 0.33 7 0.66 7 1 C4.69 1 2.38 1 0 1 C0 0.67 0 0.34 0 0 Z " fill="#858585" transform="translate(297,111)"/>
<path d="M0 0 C2.31 0 4.62 0 7 0 C7 0.33 7 0.66 7 1 C4.69 1 2.38 1 0 1 C0 0.67 0 0.34 0 0 Z " fill="#6D7979" transform="translate(686,75)"/>
<path d="M0 0 C2.31 0 4.62 0 7 0 C7 0.33 7 0.66 7 1 C4.69 1 2.38 1 0 1 C0 0.67 0 0.34 0 0 Z " fill="#6D7979" transform="translate(313,75)"/>
<path d="M0 0 C1.98 0 3.96 0 6 0 C6 0.33 6 0.66 6 1 C4.02 1 2.04 1 0 1 C0 0.67 0 0.34 0 0 Z " fill="#B0B0B0" transform="translate(1040,248)"/>
<path d="M0 0 C1.98 0 3.96 0 6 0 C6 0.33 6 0.66 6 1 C4.02 1 2.04 1 0 1 C0 0.67 0 0.34 0 0 Z " fill="#717171" transform="translate(875,248)"/>
<path d="M0 0 C1.98 0 3.96 0 6 0 C6 0.33 6 0.66 6 1 C4.02 1 2.04 1 0 1 C0 0.67 0 0.34 0 0 Z " fill="#8D9B9B" transform="translate(72,233)"/>
<path d="M0 0 C1.98 0 3.96 0 6 0 C6 0.33 6 0.66 6 1 C4.02 1 2.04 1 0 1 C0 0.67 0 0.34 0 0 Z " fill="#8D8D8D" transform="translate(859,213)"/>
<path d="M0 0 C1.98 0 3.96 0 6 0 C6 0.33 6 0.66 6 1 C4.02 1 2.04 1 0 1 C0 0.67 0 0.34 0 0 Z " fill="#787878" transform="translate(671,208)"/>
<path d="M0 0 C1.98 0 3.96 0 6 0 C6 0.33 6 0.66 6 1 C4.02 1 2.04 1 0 1 C0 0.67 0 0.34 0 0 Z " fill="#787878" transform="translate(298,208)"/>
<path d="M0 0 C0.33 0 0.66 0 1 0 C1 1.98 1 3.96 1 6 C0.67 6 0.34 6 0 6 C0 4.02 0 2.04 0 0 Z " fill="#AAD4D4" transform="translate(714,157)"/>
<path d="M0 0 C1.98 0 3.96 0 6 0 C6 0.33 6 0.66 6 1 C4.02 1 2.04 1 0 1 C0 0.67 0 0.34 0 0 Z " fill="#868686" transform="translate(1019,146)"/>
<path d="M0 0 C1.98 0 3.96 0 6 0 C6 0.33 6 0.66 6 1 C4.02 1 2.04 1 0 1 C0 0.67 0 0.34 0 0 Z " fill="#8D8D8D" transform="translate(874,107)"/>
<path d="M0 0 C1.98 0 3.96 0 6 0 C6 0.33 6 0.66 6 1 C4.02 1 2.04 1 0 1 C0 0.67 0 0.34 0 0 Z " fill="#8D9B9B" transform="translate(72,86)"/>
<path d="M0 0 C1.98 0 3.96 0 6 0 C6 0.33 6 0.66 6 1 C4.02 1 2.04 1 0 1 C0 0.67 0 0.34 0 0 Z " fill="#717171" transform="translate(693,76)"/>
<path d="M0 0 C1.98 0 3.96 0 6 0 C6 0.33 6 0.66 6 1 C4.02 1 2.04 1 0 1 C0 0.67 0 0.34 0 0 Z " fill="#A2A2A2" transform="translate(881,72)"/>
<path d="M0 0 C1.65 0 3.3 0 5 0 C5 0.33 5 0.66 5 1 C3.35 1 1.7 1 0 1 C0 0.67 0 0.34 0 0 Z " fill="#879898" transform="translate(1002,248)"/>
<path d="M0 0 C1.65 0 3.3 0 5 0 C5 0.33 5 0.66 5 1 C3.35 1 1.7 1 0 1 C0 0.67 0 0.34 0 0 Z " fill="#6E6E6E" transform="translate(1046,247)"/>
<path d="M0 0 C1.65 0 3.3 0 5 0 C5 0.33 5 0.66 5 1 C3.35 1 1.7 1 0 1 C0 0.67 0 0.34 0 0 Z " fill="#989898" transform="translate(824,247)"/>
<path d="M0 0 C1.65 0 3.3 0 5 0 C5 0.33 5 0.66 5 1 C3.35 1 1.7 1 0 1 C0 0.67 0 0.34 0 0 Z " fill="#4C4C4C" transform="translate(814,245)"/>
<path d="M0 0 C1.65 0 3.3 0 5 0 C5 0.33 5 0.66 5 1 C3.35 1 1.7 1 0 1 C0 0.67 0 0.34 0 0 Z " fill="#A9A9A9" transform="translate(693,243)"/>
<path d="M0 0 C1.65 0 3.3 0 5 0 C5 0.33 5 0.66 5 1 C3.35 1 1.7 1 0 1 C0 0.67 0 0.34 0 0 Z " fill="#98A9A9" transform="translate(320,243)"/>
<path d="M0 0 C1.65 0 3.3 0 5 0 C5 0.33 5 0.66 5 1 C3.35 1 1.7 1 0 1 C0 0.67 0 0.34 0 0 Z " fill="#A1A1A1" transform="translate(101,233)"/>
<path d="M0 0 C1.65 0 3.3 0 5 0 C5 0.33 5 0.66 5 1 C3.35 1 1.7 1 0 1 C0 0.67 0 0.34 0 0 Z " fill="#878787" transform="translate(1039,215)"/>
<path d="M0 0 C1.65 0 3.3 0 5 0 C5 0.33 5 0.66 5 1 C3.35 1 1.7 1 0 1 C0 0.67 0 0.34 0 0 Z " fill="#767687" transform="translate(832,212)"/>
<path d="M0 0 C0.33 0 0.66 0 1 0 C1 1.65 1 3.3 1 5 C0.67 5 0.34 5 0 5 C0 3.35 0 1.7 0 0 Z " fill="#000000" transform="translate(926,190)"/>
<path d="M0 0 C0.33 0 0.66 0 1 0 C1 1.65 1 3.3 1 5 C0.67 5 0.34 5 0 5 C0 3.35 0 1.7 0 0 Z " fill="#A9A9BA" transform="translate(761,178)"/>
<path d="M0 0 C0.33 0 0.66 0 1 0 C1 1.65 1 3.3 1 5 C0.67 5 0.34 5 0 5 C0 3.35 0 1.7 0 0 Z " fill="#659898" transform="translate(388,178)"/>
<path d="M0 0 C1.65 0 3.3 0 5 0 C5 0.33 5 0.66 5 1 C3.35 1 1.7 1 0 1 C0 0.67 0 0.34 0 0 Z " fill="#878787" transform="translate(846,178)"/>
<path d="M0 0 C1.65 0 3.3 0 5 0 C5 0.33 5 0.66 5 1 C3.35 1 1.7 1 0 1 C0 0.67 0 0.34 0 0 Z " fill="#878787" transform="translate(837,176)"/>
<path d="M0 0 C0.33 0 0.66 0 1 0 C1 1.65 1 3.3 1 5 C0.67 5 0.34 5 0 5 C0 3.35 0 1.7 0 0 Z " fill="#7F7F7F" transform="translate(1142,171)"/>
<path d="M0 0 C0.33 0 0.66 0 1 0 C1 1.65 1 3.3 1 5 C0.67 5 0.34 5 0 5 C0 3.35 0 1.7 0 0 Z " fill="#6E6E6E" transform="translate(996,168)"/>
<path d="M0 0 C0.33 0 0.66 0 1 0 C1 1.65 1 3.3 1 5 C0.67 5 0.34 5 0 5 C0 3.35 0 1.7 0 0 Z " fill="#6E6E6E" transform="translate(950,161)"/>
<path d="M0 0 C0.33 0 0.66 0 1 0 C1 1.65 1 3.3 1 5 C0.67 5 0.34 5 0 5 C0 3.35 0 1.7 0 0 Z " fill="#545454" transform="translate(712,142)"/>
<path d="M0 0 C1.65 0 3.3 0 5 0 C5 0.33 5 0.66 5 1 C3.35 1 1.7 1 0 1 C0 0.67 0 0.34 0 0 Z " fill="#548787" transform="translate(875,141)"/>
<path d="M0 0 C0.33 0 0.66 0 1 0 C1 1.65 1 3.3 1 5 C0.67 5 0.34 5 0 5 C0 3.35 0 1.7 0 0 Z " fill="#B2C3C3" transform="translate(761,137)"/>
<path d="M0 0 C0.33 0 0.66 0 1 0 C1 1.65 1 3.3 1 5 C0.67 5 0.34 5 0 5 C0 3.35 0 1.7 0 0 Z " fill="#B2B2B2" transform="translate(388,137)"/>
<path d="M0 0 C1.65 0 3.3 0 5 0 C5 0.33 5 0.66 5 1 C3.35 1 1.7 1 0 1 C0 0.67 0 0.34 0 0 Z " fill="#767676" transform="translate(861,138)"/>
<path d="M0 0 C1.65 0 3.3 0 5 0 C5 0.33 5 0.66 5 1 C3.35 1 1.7 1 0 1 C0 0.67 0 0.34 0 0 Z " fill="#767676" transform="translate(856,137)"/>
<path d="M0 0 C1.65 0 3.3 0 5 0 C5 0.33 5 0.66 5 1 C3.35 1 1.7 1 0 1 C0 0.67 0 0.34 0 0 Z " fill="#6E6E6E" transform="translate(851,136)"/>
<path d="M0 0 C1.65 0 3.3 0 5 0 C5 0.33 5 0.66 5 1 C3.35 1 1.7 1 0 1 C0 0.67 0 0.34 0 0 Z " fill="#767676" transform="translate(1043,114)"/>
<path d="M0 0 C1.65 0 3.3 0 5 0 C5 0.33 5 0.66 5 1 C3.35 1 1.7 1 0 1 C0 0.67 0 0.34 0 0 Z " fill="#6E6E6E" transform="translate(1000,114)"/>
<path d="M0 0 C1.65 0 3.3 0 5 0 C5 0.33 5 0.66 5 1 C3.35 1 1.7 1 0 1 C0 0.67 0 0.34 0 0 Z " fill="#9090A1" transform="translate(1168,113)"/>
<path d="M0 0 C1.65 0 3.3 0 5 0 C5 0.33 5 0.66 5 1 C3.35 1 1.7 1 0 1 C0 0.67 0 0.34 0 0 Z " fill="#878787" transform="translate(677,112)"/>
<path d="M0 0 C1.65 0 3.3 0 5 0 C5 0.33 5 0.66 5 1 C3.35 1 1.7 1 0 1 C0 0.67 0 0.34 0 0 Z " fill="#878787" transform="translate(304,112)"/>
<path d="M0 0 C1.65 0 3.3 0 5 0 C5 0.33 5 0.66 5 1 C3.35 1 1.7 1 0 1 C0 0.67 0 0.34 0 0 Z " fill="#6E6E6E" transform="translate(880,108)"/>
<path d="M0 0 C1.65 0 3.3 0 5 0 C5 0.33 5 0.66 5 1 C3.35 1 1.7 1 0 1 C0 0.67 0 0.34 0 0 Z " fill="#A1A1A1" transform="translate(101,86)"/>
<path d="M0 0 C1.65 0 3.3 0 5 0 C5 0.33 5 0.66 5 1 C3.35 1 1.7 1 0 1 C0 0.67 0 0.34 0 0 Z " fill="#90A1A1" transform="translate(320,76)"/>
<path d="M0 0 C1.65 0 3.3 0 5 0 C5 0.33 5 0.66 5 1 C3.35 1 1.7 1 0 1 C0 0.67 0 0.34 0 0 Z " fill="#878787" transform="translate(898,75)"/>
<path d="M0 0 C1.65 0 3.3 0 5 0 C5 0.33 5 0.66 5 1 C3.35 1 1.7 1 0 1 C0 0.67 0 0.34 0 0 Z " fill="#B2B2B2" transform="translate(893,74)"/>
<path d="M0 0 C1.65 0 3.3 0 5 0 C5 0.33 5 0.66 5 1 C3.35 1 1.7 1 0 1 C0 0.67 0 0.34 0 0 Z " fill="#A9A9A9" transform="translate(888,73)"/>
<path d="M0 0 C1.65 0 3.3 0 5 0 C5 0.33 5 0.66 5 1 C3.35 1 1.7 1 0 1 C0 0.67 0 0.34 0 0 Z " fill="#A9A9A9" transform="translate(833,71)"/>
<path d="M0 0 C4 1 4 1 4 1 Z " fill="#6A6A6A" transform="translate(109,248)"/>
<path d="M0 0 C4 1 4 1 4 1 Z " fill="#5F5F5F" transform="translate(66,248)"/>
<path d="M0 0 C4 1 4 1 4 1 Z " fill="#A9A9A9" transform="translate(998,247)"/>
<path d="M0 0 C4 1 4 1 4 1 Z " fill="#A9A9A9" transform="translate(881,247)"/>
<path d="M0 0 C4 1 4 1 4 1 Z " fill="#354A4A" transform="translate(994,246)"/>
<path d="M0 0 C4 1 4 1 4 1 Z " fill="#748AC9" transform="translate(885,246)"/>
<path d="M0 0 C4 1 4 1 4 1 Z " fill="#B4B4B4" transform="translate(819,246)"/>
<path d="M0 0 C4 1 4 1 4 1 Z " fill="#6A6A6A" transform="translate(810,244)"/>
<path d="M0 0 C4 1 4 1 4 1 Z " fill="#7F7F7F" transform="translate(803,242)"/>
<path d="M0 0 C4 1 4 1 4 1 Z " fill="#6A6A6A" transform="translate(699,242)"/>
<path d="M0 0 C4 1 4 1 4 1 Z " fill="#6A6A6A" transform="translate(326,242)"/>
<path d="M0 0 C4 1 4 1 4 1 Z " fill="#94A9A9" transform="translate(106,232)"/>
<path d="M0 0 C4 1 4 1 4 1 Z " fill="#C9C9C9" transform="translate(68,232)"/>
<path d="M0 0 C4 1 4 1 4 1 Z " fill="#9F9F9F" transform="translate(1016,215)"/>
<path d="M0 0 C4 1 4 1 4 1 Z " fill="#5F5F5F" transform="translate(865,212)"/>
<path d="M0 0 C4 1 4 1 4 1 Z " fill="#A9A9A9" transform="translate(827,211)"/>
<path d="M0 0 C4 1 4 1 4 1 Z " fill="#8A8A8A" transform="translate(823,210)"/>
<path d="M0 0 C4 1 4 1 4 1 Z " fill="#A9A9A9" transform="translate(678,207)"/>
<path d="M0 0 C4 1 4 1 4 1 Z " fill="#A9A9A9" transform="translate(305,207)"/>
<path d="M0 0 C1 4 1 4 1 4 Z " fill="#8A8A8A" transform="translate(951,201)"/>
<path d="M0 0 C1 4 1 4 1 4 Z " fill="#949494" transform="translate(950,197)"/>
<path d="M0 0 C1 4 1 4 1 4 Z " fill="#C9C9C9" transform="translate(760,183)"/>
<path d="M0 0 C1 4 1 4 1 4 Z " fill="#94A9A9" transform="translate(387,183)"/>
<path d="M0 0 C4 1 4 1 4 1 Z " fill="#6A6A6A" transform="translate(855,180)"/>
<path d="M0 0 C1 4 1 4 1 4 Z " fill="#A9A9B9" transform="translate(16,177)"/>
<path d="M0 0 C4 1 4 1 4 1 Z " fill="#8AB4B4" transform="translate(851,179)"/>
<path d="M0 0 C1 4 1 4 1 4 Z " fill="#9F9F9F" transform="translate(924,177)"/>
<path d="M0 0 C1 4 1 4 1 4 Z " fill="#7F7F7F" transform="translate(338,177)"/>
<path d="M0 0 C4 1 4 1 4 1 Z " fill="#9FB4B4" transform="translate(842,177)"/>
<path d="M0 0 C1 4 1 4 1 4 Z " fill="#9F9F9F" transform="translate(712,173)"/>
<path d="M0 0 C1 4 1 4 1 4 Z " fill="#9F9FB4" transform="translate(339,173)"/>
<path d="M0 0 C4 1 4 1 4 1 Z " fill="#4A5F9F" transform="translate(833,175)"/>
<path d="M0 0 C4 1 4 1 4 1 Z " fill="#9F9F9F" transform="translate(1179,150)"/>
<path d="M0 0 C4 1 4 1 4 1 Z " fill="#7474B4" transform="translate(1161,150)"/>
<path d="M0 0 C4 1 4 1 4 1 Z " fill="#C9C9C9" transform="translate(1041,147)"/>
<path d="M0 0 C4 1 4 1 4 1 Z " fill="#747474" transform="translate(883,143)"/>
<path d="M0 0 C4 1 4 1 4 1 Z " fill="#B4B4B4" transform="translate(871,140)"/>
<path d="M0 0 C1 4 1 4 1 4 Z " fill="#A9A9B9" transform="translate(16,139)"/>
<path d="M0 0 C4 1 4 1 4 1 Z " fill="#B4B4B4" transform="translate(866,139)"/>
<path d="M0 0 C1 4 1 4 1 4 Z " fill="#A9A9A9" transform="translate(789,136)"/>
<path d="M0 0 C1 4 1 4 1 4 Z " fill="#94A9A9" transform="translate(387,133)"/>
<path d="M0 0 C4 1 4 1 4 1 Z " fill="#6A6A6A" transform="translate(847,135)"/>
<path d="M0 0 C4 1 4 1 4 1 Z " fill="#353535" transform="translate(843,134)"/>
<path d="M0 0 C1 4 1 4 1 4 Z " fill="#C9C9C9" transform="translate(760,133)"/>
<path d="M0 0 C4 1 4 1 4 1 Z " fill="#5F5F5F" transform="translate(1052,116)"/>
<path d="M0 0 C4 1 4 1 4 1 Z " fill="#8A9FB4" transform="translate(1048,115)"/>
<path d="M0 0 C4 1 4 1 4 1 Z " fill="#6A6A6A" transform="translate(996,115)"/>
<path d="M0 0 C4 1 4 1 4 1 Z " fill="#545454" transform="translate(1164,114)"/>
<path d="M0 0 C1 4 1 4 1 4 Z " fill="#9F9F9F" transform="translate(789,109)"/>
<path d="M0 0 C4 1 4 1 4 1 Z " fill="#94A9A9" transform="translate(885,109)"/>
<path d="M0 0 C4 1 4 1 4 1 Z " fill="#6A6A6A" transform="translate(843,107)"/>
<path d="M0 0 C4 1 4 1 4 1 Z " fill="#94A9A9" transform="translate(106,87)"/>
<path d="M0 0 C4 1 4 1 4 1 Z " fill="#C9C9C9" transform="translate(68,87)"/>
<path d="M0 0 C4 1 4 1 4 1 Z " fill="#94A9A9" transform="translate(907,77)"/>
<path d="M0 0 C4 1 4 1 4 1 Z " fill="#6A6A6A" transform="translate(699,77)"/>
<path d="M0 0 C4 1 4 1 4 1 Z " fill="#6A6A6A" transform="translate(326,77)"/>
<path d="M0 0 C4 1 4 1 4 1 Z " fill="#9F9FB4" transform="translate(903,76)"/>
<path d="M0 0 C4 1 4 1 4 1 Z " fill="#6A6A6A" transform="translate(828,72)"/>
<path d="M0 0 C4 1 4 1 4 1 Z " fill="#6A6A6A" transform="translate(109,71)"/>
<path d="M0 0 C4 1 4 1 4 1 Z " fill="#5F5F5F" transform="translate(66,71)"/>
<path d="M0 0 C3 1 3 1 3 1 Z " fill="#C6C6C6" transform="translate(113,247)"/>
<path d="M0 0 C3 1 3 1 3 1 Z " fill="#4646B8" transform="translate(62,247)"/>
<path d="M0 0 C3 1 3 1 3 1 Z " fill="#8D8D8D" transform="translate(1051,246)"/>
<path d="M0 0 C3 1 3 1 3 1 Z " fill="#A9A9A9" transform="translate(116,246)"/>
<path d="M0 0 C3 1 3 1 3 1 Z " fill="#C6C6C6" transform="translate(59,246)"/>
<path d="M0 0 C3 1 3 1 3 1 Z " fill="#6363B8" transform="translate(1055,245)"/>
<path d="M0 0 C3 1 3 1 3 1 Z " fill="#717171" transform="translate(991,245)"/>
<path d="M0 0 C3 1 3 1 3 1 Z " fill="#C6C6C6" transform="translate(889,245)"/>
<path d="M0 0 C3 1 3 1 3 1 Z " fill="#717171" transform="translate(119,245)"/>
<path d="M0 0 C3 1 3 1 3 1 Z " fill="#C6C6C6" transform="translate(1058,244)"/>
<path d="M0 0 C3 1 3 1 3 1 Z " fill="#7F7F7F" transform="translate(54,244)"/>
<path d="M0 0 C3 1 3 1 3 1 Z " fill="#8D8D8D" transform="translate(986,243)"/>
<path d="M0 0 C3 1 3 1 3 1 Z " fill="#9B9B9B" transform="translate(807,243)"/>
<path d="M0 0 C3 1 3 1 3 1 Z " fill="#718D8D" transform="translate(126,242)"/>
<path d="M0 0 C3 1 3 1 3 1 Z " fill="#C6C6C6" transform="translate(800,241)"/>
<path d="M0 0 C3 1 3 1 3 1 Z " fill="#8D8D8D" transform="translate(703,241)"/>
<path d="M0 0 C3 1 3 1 3 1 Z " fill="#8D8D8D" transform="translate(330,241)"/>
<path d="M0 0 C3 1 3 1 3 1 Z " fill="#C6C6C6" transform="translate(797,240)"/>
<path d="M0 0 C3 1 3 1 3 1 Z " fill="#545454" transform="translate(706,240)"/>
<path d="M0 0 C3 1 3 1 3 1 Z " fill="#A9A9A9" transform="translate(333,240)"/>
<path d="M0 0 C3 1 3 1 3 1 Z " fill="#71C6C6" transform="translate(794,239)"/>
<path d="" fill="#A9A9A9" transform="translate(0,0)"/>
<path d="M0 0 C3 1 3 1 3 1 Z " fill="#545454" transform="translate(336,239)"/>
<path d="M0 0 C3 1 3 1 3 1 Z " fill="#636363" transform="translate(712,238)"/>
<path d="M0 0 C3 1 3 1 3 1 Z " fill="#636363" transform="translate(339,238)"/>
<path d="M0 0 C3 1 3 1 3 1 Z " fill="#C6C6C6" transform="translate(110,231)"/>
<path d="M0 0 C3 1 3 1 3 1 Z " fill="#7F9B9B" transform="translate(65,231)"/>
<path d="M0 0 C3 1 3 1 3 1 Z " fill="#7171C6" transform="translate(113,230)"/>
<path d="M0 0 C3 1 3 1 3 1 Z " fill="#C6C6C6" transform="translate(62,230)"/>
<path d="M0 0 C3 1 3 1 3 1 Z " fill="#E2E2E2" transform="translate(116,229)"/>
<path d="M0 0 C3 1 3 1 3 1 Z " fill="#636363" transform="translate(57,228)"/>
<path d="" fill="#464646" transform="translate(0,0)"/>
<path d="" fill="#A9A9A9" transform="translate(0,0)"/>
<path d="" fill="#545454" transform="translate(0,0)"/>
<path d="M0 0 C3 1 3 1 3 1 Z " fill="#C6C6C6" transform="translate(1044,214)"/>
<path d="M0 0 C3 1 3 1 3 1 Z " fill="#B8B8B8" transform="translate(1013,214)"/>
<path d="M0 0 C3 1 3 1 3 1 Z " fill="#717171" transform="translate(1047,213)"/>
<path d="" fill="#A9A9A9" transform="translate(0,0)"/>
<path d="" fill="#5454A9" transform="translate(0,0)"/>
<path d="M0 0 C3 1 3 1 3 1 Z " fill="#8D8D8D" transform="translate(820,209)"/>
<path d="M0 0 C3 1 3 1 3 1 Z " fill="#C6C6C6" transform="translate(817,208)"/>
<path d="M0 0 C3 1 3 1 3 1 Z " fill="#B8B8B8" transform="translate(814,207)"/>
<path d="" fill="#71C6C6" transform="translate(0,0)"/>
<path d="M0 0 C3 1 3 1 3 1 Z " fill="#C6C6C6" transform="translate(682,206)"/>
<path d="M0 0 C3 1 3 1 3 1 Z " fill="#C6C6C6" transform="translate(309,206)"/>
<path d="M0 0 C3 1 3 1 3 1 Z " fill="#55C6C6" transform="translate(685,205)"/>
<path d="M0 0 C3 1 3 1 3 1 Z " fill="#B8B8B8" transform="translate(312,205)"/>
<path d="" fill="#A9A9A9" transform="translate(0,0)"/>
<path d="M0 0 C3 1 3 1 3 1 Z " fill="#636363" transform="translate(804,203)"/>
<path d="" fill="#7F7F7F" transform="translate(0,0)"/>
<path d="" fill="#A9A9A9" transform="translate(0,0)"/>
<path d="" fill="#A9A9A9" transform="translate(0,0)"/>
<path d="" fill="#555571" transform="translate(0,0)"/>
<path d="" fill="#7F7F7F" transform="translate(0,0)"/>
<path d="" fill="#7F7F7F" transform="translate(0,0)"/>
<path d="" fill="#8D8D8D" transform="translate(0,0)"/>
<path d="" fill="#AAAAE2" transform="translate(0,0)"/>
<path d="" fill="#D4D4D4" transform="translate(0,0)"/>
<path d="M0 0 C3 1 3 1 3 1 Z " fill="#636363" transform="translate(869,184)"/>
<path d="" fill="#A9A9A9" transform="translate(0,0)"/>
<path d="M0 0 C3 1 3 1 3 1 Z " fill="#545454" transform="translate(863,182)"/>
<path d="" fill="#7171A2" transform="translate(0,0)"/>
<path d="M0 0 C3 1 3 1 3 1 Z " fill="#9B9B9B" transform="translate(860,181)"/>
<path d="" fill="#A9A9A9" transform="translate(0,0)"/>
<path d="" fill="#7F7F7F" transform="translate(0,0)"/>
<path d="" fill="#A9A9A9" transform="translate(0,0)"/>
<path d="" fill="#A9A9A9" transform="translate(0,0)"/>
<path d="" fill="#A9A9A9" transform="translate(0,0)"/>
<path d="M0 0 C3 1 3 1 3 1 Z " fill="#71718D" transform="translate(830,174)"/>
<path d="" fill="#555555" transform="translate(0,0)"/>
<path d="M0 0 C3 1 3 1 3 1 Z " fill="#464663" transform="translate(826,173)"/>
<path d="M0 0 C3 1 3 1 3 1 Z " fill="#555571" transform="translate(823,172)"/>
<path d="M0 0 C3 1 3 1 3 1 Z " fill="#636363" transform="translate(818,170)"/>
<path d="" fill="#A9A9A9" transform="translate(0,0)"/>
<path d="" fill="#A9A9A9" transform="translate(0,0)"/>
<path d="" fill="#7F7F7F" transform="translate(0,0)"/>
<path d="" fill="#D4D4D4" transform="translate(0,0)"/>
<path d="" fill="#A9A9A9" transform="translate(0,0)"/>
<path d="" fill="#717171" transform="translate(0,0)"/>
<path d="" fill="#7F7F7F" transform="translate(0,0)"/>
<path d="" fill="#7F7F7F" transform="translate(0,0)"/>
<path d="" fill="#A9A9A9" transform="translate(0,0)"/>
<path d="" fill="#7F7F7F" transform="translate(0,0)"/>
<path d="" fill="#A9A9A9" transform="translate(0,0)"/>
<path d="" fill="#636363" transform="translate(0,0)"/>
<path d="M0 0 C3 1 3 1 3 1 Z " fill="#E2E2E2" transform="translate(1187,152)"/>
<path d="" fill="#A9A9A9" transform="translate(0,0)"/>
<path d="M0 0 C3 1 3 1 3 1 Z " fill="#8D8D8D" transform="translate(1184,151)"/>
<path d="M0 0 C3 1 3 1 3 1 Z " fill="#555571" transform="translate(1158,151)"/>
<path d="" fill="#A9A9A9" transform="translate(0,0)"/>
<path d="M0 0 C3 1 3 1 3 1 Z " fill="#8D8D8D" transform="translate(1045,148)"/>
<path d="M0 0 C3 1 3 1 3 1 Z " fill="#8D8D8D" transform="translate(1012,148)"/>
<path d="M0 0 C3 1 3 1 3 1 Z " fill="#7F9B9B" transform="translate(1015,147)"/>
<path d="" fill="#A9A9A9" transform="translate(0,0)"/>
<path d="" fill="#717171" transform="translate(0,0)"/>
<path d="M0 0 C3 1 3 1 3 1 Z " fill="#636363" transform="translate(890,145)"/>
<path d="M0 0 C3 1 3 1 3 1 Z " fill="#717171" transform="translate(887,144)"/>
<path d="M0 0 C3 1 3 1 3 1 Z " fill="#9B9B9B" transform="translate(880,142)"/>
<path d="" fill="#A9A9A9" transform="translate(0,0)"/>
<path d="" fill="#7F7F7F" transform="translate(0,0)"/>
<path d="" fill="#A9A9A9" transform="translate(0,0)"/>
<path d="" fill="#7171A2" transform="translate(0,0)"/>
<path d="" fill="#7F7F7F" transform="translate(0,0)"/>
<path d="M0 0 C3 1 3 1 3 1 Z " fill="#636363" transform="translate(838,132)"/>
<path d="" fill="#7F7F7F" transform="translate(0,0)"/>
<path d="" fill="#D4D4D4" transform="translate(0,0)"/>
<path d="" fill="#AAAAE2" transform="translate(0,0)"/>
<path d="" fill="#A9A9A9" transform="translate(0,0)"/>
<path d="" fill="#7F7F7F" transform="translate(0,0)"/>
<path d="" fill="#A9A9A9" transform="translate(0,0)"/>
<path d="" fill="#A9A9A9" transform="translate(0,0)"/>
<path d="" fill="#636363" transform="translate(0,0)"/>
<path d="" fill="#A9A9A9" transform="translate(0,0)"/>
<path d="" fill="#A9A9A9" transform="translate(0,0)"/>
<path d="" fill="#D4D4D4" transform="translate(0,0)"/>
<path d="" fill="#717171" transform="translate(0,0)"/>
<path d="" fill="#A9A9A9" transform="translate(0,0)"/>
<path d="" fill="#A9A9A9" transform="translate(0,0)"/>
<path d="M0 0 C3 1 3 1 3 1 Z " fill="#C6C6C6" transform="translate(1059,118)"/>
<path d="M0 0 C3 1 3 1 3 1 Z " fill="#C6C6C6" transform="translate(1056,117)"/>
<path d="M0 0 C3 1 3 1 3 1 Z " fill="#717171" transform="translate(990,117)"/>
<path d="M0 0 C3 1 3 1 3 1 Z " fill="#8D8D8D" transform="translate(1159,116)"/>
<path d="M0 0 C3 1 3 1 3 1 Z " fill="#C6C6C6" transform="translate(993,116)"/>
<path d="M0 0 C3 1 3 1 3 1 Z " fill="#B8B8B8" transform="translate(904,115)"/>
<path d="" fill="#A9A9A9" transform="translate(0,0)"/>
<path d="M0 0 C3 1 3 1 3 1 Z " fill="#71C6C6" transform="translate(685,114)"/>
<path d="M0 0 C3 1 3 1 3 1 Z " fill="#AAAAC6" transform="translate(312,114)"/>
<path d="M0 0 C3 1 3 1 3 1 Z " fill="#8D8D8D" transform="translate(1190,113)"/>
<path d="M0 0 C3 1 3 1 3 1 Z " fill="#C6C6C6" transform="translate(682,113)"/>
<path d="" fill="#7F7F7F" transform="translate(0,0)"/>
<path d="M0 0 C3 1 3 1 3 1 Z " fill="#9B9B9B" transform="translate(309,113)"/>
<path d="M0 0 C3 1 3 1 3 1 Z " fill="#A9A9A9" transform="translate(896,112)"/>
<path d="M0 0 C3 1 3 1 3 1 Z " fill="#A9A9A9" transform="translate(893,111)"/>
<path d="M0 0 C3 1 3 1 3 1 Z " fill="#B8B8B8" transform="translate(889,110)"/>
<path d="M0 0 C3 1 3 1 3 1 Z " fill="#717171" transform="translate(840,108)"/>
<path d="" fill="#A9A9A9" transform="translate(0,0)"/>
<path d="M0 0 C3 1 3 1 3 1 Z " fill="#000000" transform="translate(859,105)"/>
<path d="" fill="#555555" transform="translate(0,0)"/>
<path d="" fill="#A9A9A9" transform="translate(0,0)"/>
<path d="" fill="#A9A9A9" transform="translate(0,0)"/>
<path d="" fill="#A9A9A9" transform="translate(0,0)"/>
<path d="" fill="#A9A9A9" transform="translate(0,0)"/>
<path d="M0 0 C3 1 3 1 3 1 Z " fill="#636363" transform="translate(57,91)"/>
<path d="M0 0 C3 1 3 1 3 1 Z " fill="#E2E2E2" transform="translate(116,90)"/>
<path d="M0 0 C3 1 3 1 3 1 Z " fill="#7171C6" transform="translate(113,89)"/>
<path d="M0 0 C3 1 3 1 3 1 Z " fill="#C6C6C6" transform="translate(62,89)"/>
<path d="" fill="#A9A9A9" transform="translate(0,0)"/>
<path d="M0 0 C3 1 3 1 3 1 Z " fill="#C6C6C6" transform="translate(110,88)"/>
<path d="M0 0 C3 1 3 1 3 1 Z " fill="#7F9B9B" transform="translate(65,88)"/>
<path d="" fill="#5454A9" transform="translate(0,0)"/>
<path d="" fill="#D4D4D4" transform="translate(0,0)"/>
<path d="M0 0 C3 1 3 1 3 1 Z " fill="#6363B8" transform="translate(712,81)"/>
<path d="M0 0 C3 1 3 1 3 1 Z " fill="#636363" transform="translate(339,81)"/>
<path d="M0 0 C3 1 3 1 3 1 Z " fill="#545454" transform="translate(707,79)"/>
<path d="M0 0 C3 1 3 1 3 1 Z " fill="#545454" transform="translate(333,79)"/>
<path d="M0 0 C3 1 3 1 3 1 Z " fill="#8D8D8D" transform="translate(703,78)"/>
<path d="M0 0 C3 1 3 1 3 1 Z " fill="#8D8D8D" transform="translate(330,78)"/>
<path d="M0 0 C3 1 3 1 3 1 Z " fill="#718D8D" transform="translate(126,77)"/>
<path d="M0 0 C3 1 3 1 3 1 Z " fill="#636363" transform="translate(819,75)"/>
<path d="M0 0 C3 1 3 1 3 1 Z " fill="#7F7F7F" transform="translate(54,75)"/>
<path d="M0 0 C3 1 3 1 3 1 Z " fill="#A9A9A9" transform="translate(822,74)"/>
<path d="M0 0 C3 1 3 1 3 1 Z " fill="#717171" transform="translate(119,74)"/>
<path d="M0 0 C3 1 3 1 3 1 Z " fill="#8D8D8D" transform="translate(825,73)"/>
<path d="M0 0 C3 1 3 1 3 1 Z " fill="#A9A9A9" transform="translate(116,73)"/>
<path d="M0 0 C3 1 3 1 3 1 Z " fill="#C6C6C6" transform="translate(59,73)"/>
<path d="M0 0 C3 1 3 1 3 1 Z " fill="#C6C6C6" transform="translate(113,72)"/>
<path d="M0 0 C3 1 3 1 3 1 Z " fill="#4646B8" transform="translate(62,72)"/>
<path d="M0 0 C2 1 2 1 2 1 Z " fill="#6A6A94" transform="translate(57,245)"/>
<path d="M0 0 C2 1 2 1 2 1 Z " fill="#949494" transform="translate(989,244)"/>
<path d="M0 0 C2 1 2 1 2 1 Z " fill="#7F7FAA" transform="translate(892,244)"/>
<path d="M0 0 C2 1 2 1 2 1 Z " fill="#949494" transform="translate(122,244)"/>
<path d="M0 0 C2 1 2 1 2 1 Z " fill="#AAAAAA" transform="translate(1061,243)"/>
<path d="M0 0 C2 1 2 1 2 1 Z " fill="#D4D4D4" transform="translate(895,243)"/>
<path d="M0 0 C2 1 2 1 2 1 Z " fill="#7FAAAA" transform="translate(124,243)"/>
<path d="M0 0 C2 1 2 1 2 1 Z " fill="#7F7F7F" transform="translate(52,243)"/>
<path d="M0 0 C2 1 2 1 2 1 Z " fill="#D4D4D4" transform="translate(984,242)"/>
<path d="M0 0 C2 1 2 1 2 1 Z " fill="#D4D4D4" transform="translate(897,242)"/>
<path d="" fill="#AAAAAA" transform="translate(0,0)"/>
<path d="M0 0 C2 1 2 1 2 1 Z " fill="#949494" transform="translate(50,242)"/>
<path d="M0 0 C2 1 2 1 2 1 Z " fill="#D4D4D4" transform="translate(982,241)"/>
<path d="M0 0 C2 1 2 1 2 1 Z " fill="#55D4D4" transform="translate(899,241)"/>
<path d="M0 0 C2 1 2 1 2 1 Z " fill="#BFBFBF" transform="translate(48,241)"/>
<path d="M0 0 C2 1 2 1 2 1 Z " fill="#555555" transform="translate(980,240)"/>
<path d="" fill="#AAAAAA" transform="translate(0,0)"/>
<path d="M0 0 C2 1 2 1 2 1 Z " fill="#6A9494" transform="translate(130,240)"/>
<path d="M0 0 C2 1 2 1 2 1 Z " fill="#949494" transform="translate(46,240)"/>
<path d="M0 0 C2 1 2 1 2 1 Z " fill="#7F7F7F" transform="translate(902,239)"/>
<path d="M0 0 C2 1 2 1 2 1 Z " fill="#7F7F7F" transform="translate(710,239)"/>
<path d="M0 0 C2 1 2 1 2 1 Z " fill="#BFBFBF" transform="translate(132,239)"/>
<path d="M0 0 C2 1 2 1 2 1 Z " fill="#D4D4D4" transform="translate(44,239)"/>
<path d="M0 0 C2 1 2 1 2 1 Z " fill="#D4D4D4" transform="translate(977,238)"/>
<path d="M0 0 C2 1 2 1 2 1 Z " fill="#7F7FAA" transform="translate(792,238)"/>
<path d="M0 0 C2 1 2 1 2 1 Z " fill="#D4D4D4" transform="translate(134,238)"/>
<path d="M0 0 C2 1 2 1 2 1 Z " fill="#555555" transform="translate(42,238)"/>
<path d="M0 0 C2 1 2 1 2 1 Z " fill="#BFBFBF" transform="translate(905,237)"/>
<path d="M0 0 C2 1 2 1 2 1 Z " fill="#BFBFBF" transform="translate(715,237)"/>
<path d="M0 0 C2 1 2 1 2 1 Z " fill="#BFBFBF" transform="translate(342,237)"/>
<path d="M0 0 C2 1 2 1 2 1 Z " fill="#555555" transform="translate(974,236)"/>
<path d="M0 0 C2 1 2 1 2 1 Z " fill="#949494" transform="translate(717,236)"/>
<path d="M0 0 C2 1 2 1 2 1 Z " fill="#949494" transform="translate(344,236)"/>
<path d="M0 0 C2 1 2 1 2 1 Z " fill="#BFBFBF" transform="translate(137,236)"/>
<path d="M0 0 C2 1 2 1 2 1 Z " fill="#BFBFBF" transform="translate(39,236)"/>
<path d="M0 0 C2 1 2 1 2 1 Z " fill="#949494" transform="translate(719,235)"/>
<path d="M0 0 C2 1 2 1 2 1 Z " fill="#D4D4D4" transform="translate(346,235)"/>
<path d="M0 0 C2 1 2 1 2 1 Z " fill="#BFBFBF" transform="translate(721,234)"/>
<path d="" fill="#AAAAAA" transform="translate(0,0)"/>
<path d="M0 0 C2 1 2 1 2 1 Z " fill="#BFBFBF" transform="translate(348,234)"/>
<path d="M0 0 C2 1 2 1 2 1 Z " fill="#D4D4D4" transform="translate(140,234)"/>
<path d="M0 0 C2 1 2 1 2 1 Z " fill="#7F7F7F" transform="translate(35,233)"/>
<path d="" fill="#AAAAAA" transform="translate(0,0)"/>
<path d="M0 0 C2 1 2 1 2 1 Z " fill="#BFBFBF" transform="translate(351,232)"/>
<path d="M0 0 C2 1 2 1 2 1 Z " fill="#555555" transform="translate(726,231)"/>
<path d="M0 0 C2 1 2 1 2 1 Z " fill="#3F3F3F" transform="translate(353,231)"/>
<path d="M0 0 C2 1 2 1 2 1 Z " fill="#AAD4D4" transform="translate(144,231)"/>
<path d="M0 0 C2 1 2 1 2 1 Z " fill="#BFBFBF" transform="translate(31,230)"/>
<path d="M0 0 C2 1 2 1 2 1 Z " fill="#949494" transform="translate(60,229)"/>
<path d="M0 0 C2 1 2 1 2 1 Z " fill="#7F7F7F" transform="translate(357,228)"/>
<path d="M0 0 C2 1 2 1 2 1 Z " fill="#7F7FAA" transform="translate(119,228)"/>
<path d="M0 0 C2 1 2 1 2 1 Z " fill="#949494" transform="translate(121,227)"/>
<path d="M0 0 C2 1 2 1 2 1 Z " fill="#6A6A6A" transform="translate(55,227)"/>
<path d="" fill="#949494" transform="translate(0,0)"/>
<path d="M0 0 C2 1 2 1 2 1 Z " fill="#949494" transform="translate(123,226)"/>
<path d="M0 0 C2 1 2 1 2 1 Z " fill="#6A6A6A" transform="translate(53,226)"/>
<path d="M0 0 C2 1 2 1 2 1 Z " fill="#7F7F7F" transform="translate(125,225)"/>
<path d="M0 0 C2 1 2 1 2 1 Z " fill="#6A6A94" transform="translate(51,225)"/>
<path d="" fill="#6A6A94" transform="translate(0,0)"/>
<path d="M0 0 C2 1 2 1 2 1 Z " fill="#6A6A94" transform="translate(127,224)"/>
<path d="M0 0 C2 1 2 1 2 1 Z " fill="#3F3F3F" transform="translate(48,223)"/>
<path d="M0 0 C2 1 2 1 2 1 Z " fill="#D4D4D4" transform="translate(130,222)"/>
<path d="M0 0 C2 1 2 1 2 1 Z " fill="#BFBFBF" transform="translate(46,222)"/>
<path d="" fill="#7F7F7F" transform="translate(0,0)"/>
<path d="" fill="#949494" transform="translate(0,0)"/>
<path d="M0 0 C2 1 2 1 2 1 Z " fill="#BFBFBF" transform="translate(133,220)"/>
<path d="M0 0 C2 1 2 1 2 1 Z " fill="#D4D4D4" transform="translate(42,219)"/>
<path d="" fill="#7F7F7F" transform="translate(0,0)"/>
<path d="" fill="#6A6A6A" transform="translate(0,0)"/>
<path d="M0 0 C2 1 2 1 2 1 Z " fill="#D4D4D4" transform="translate(138,216)"/>
<path d="M0 0 C2 1 2 1 2 1 Z " fill="#949494" transform="translate(1011,213)"/>
<path d="M0 0 C2 1 2 1 2 1 Z " fill="#BFBFBF" transform="translate(1050,212)"/>
<path d="M0 0 C2 1 2 1 2 1 Z " fill="#949494" transform="translate(1009,212)"/>
<path d="M0 0 C2 1 2 1 2 1 Z " fill="#555555" transform="translate(1052,211)"/>
<path d="M0 0 C2 1 2 1 2 1 Z " fill="#7F7F7F" transform="translate(869,211)"/>
<path d="M0 0 C2 1 2 1 2 1 Z " fill="#555555" transform="translate(1054,210)"/>
<path d="M0 0 C2 1 2 1 2 1 Z " fill="#BFBFBF" transform="translate(1006,210)"/>
<path d="M0 0 C2 1 2 1 2 1 Z " fill="#3F3F3F" transform="translate(871,210)"/>
<path d="M0 0 C2 1 2 1 2 1 Z " fill="#3F3F3F" transform="translate(1056,209)"/>
<path d="" fill="#7F7FAA" transform="translate(0,0)"/>
<path d="M0 0 C2 1 2 1 2 1 Z " fill="#BFBFBF" transform="translate(873,209)"/>
<path d="" fill="#6A6A94" transform="translate(0,0)"/>
<path d="M0 0 C2 1 2 1 2 1 Z " fill="#6A6A6A" transform="translate(1058,208)"/>
<path d="" fill="#AAAAAA" transform="translate(0,0)"/>
<path d="M0 0 C2 1 2 1 2 1 Z " fill="#7F7F7F" transform="translate(812,206)"/>
<path d="M0 0 C2 1 2 1 2 1 Z " fill="#000000" transform="translate(1062,205)"/>
<path d="M0 0 C2 1 2 1 2 1 Z " fill="#7F7FAA" transform="translate(809,205)"/>
<path d="M0 0 C2 1 2 1 2 1 Z " fill="#D4D4D4" transform="translate(807,204)"/>
<path d="M0 0 C2 1 2 1 2 1 Z " fill="#7F7F7F" transform="translate(688,204)"/>
<path d="M0 0 C2 1 2 1 2 1 Z " fill="#7F7F7F" transform="translate(315,204)"/>
<path d="M0 0 C2 1 2 1 2 1 Z " fill="#555555" transform="translate(690,203)"/>
<path d="M0 0 C2 1 2 1 2 1 Z " fill="#BFBFBF" transform="translate(317,203)"/>
<path d="M0 0 C2 1 2 1 2 1 Z " fill="#949494" transform="translate(802,202)"/>
<path d="M0 0 C2 1 2 1 2 1 Z " fill="#3F3F3F" transform="translate(692,202)"/>
<path d="M0 0 C2 1 2 1 2 1 Z " fill="#3F3F3F" transform="translate(319,202)"/>
<path d="M0 0 C2 1 2 1 2 1 Z " fill="#D4D4D4" transform="translate(800,201)"/>
<path d="M0 0 C2 1 2 1 2 1 Z " fill="#D4D4D4" transform="translate(694,201)"/>
<path d="M0 0 C2 1 2 1 2 1 Z " fill="#D4D4D4" transform="translate(321,201)"/>
<path d="M0 0 C2 1 2 1 2 1 Z " fill="#BFBFBF" transform="translate(798,200)"/>
<path d="M0 0 C2 1 2 1 2 1 Z " fill="#BFBFBF" transform="translate(796,199)"/>
<path d="" fill="#7F7FAA" transform="translate(0,0)"/>
<path d="M0 0 C2 1 2 1 2 1 Z " fill="#D4D4D4" transform="translate(697,199)"/>
<path d="" fill="#AAAAAA" transform="translate(0,0)"/>
<path d="M0 0 C2 1 2 1 2 1 Z " fill="#AAD4D4" transform="translate(324,199)"/>
<path d="M0 0 C2 1 2 1 2 1 Z " fill="#BFBFBF" transform="translate(794,198)"/>
<path d="M0 0 C2 1 2 1 2 1 Z " fill="#D4D4D4" transform="translate(792,197)"/>
<path d="" fill="#7F7F7F" transform="translate(0,0)"/>
<path d="" fill="#6A6A6A" transform="translate(0,0)"/>
<path d="" fill="#AAAAAA" transform="translate(0,0)"/>
<path d="" fill="#7F7FAA" transform="translate(0,0)"/>
<path d="" fill="#7FAAAA" transform="translate(0,0)"/>
<path d="" fill="#7F7FAA" transform="translate(0,0)"/>
<path d="M0 0 C2 1 2 1 2 1 Z " fill="#BFBFBF" transform="translate(69,192)"/>
<path d="" fill="#7F7F7F" transform="translate(0,0)"/>
<path d="M0 0 C2 1 2 1 2 1 Z " fill="#BFBFBF" transform="translate(71,191)"/>
<path d="" fill="#7F7FD4" transform="translate(0,0)"/>
<path d="" fill="#AAAAAA" transform="translate(0,0)"/>
<path d="M0 0 C2 1 2 1 2 1 Z " fill="#3F3F3F" transform="translate(73,190)"/>
<path d="" fill="#6A6A6A" transform="translate(0,0)"/>
<path d="" fill="#7F7F7F" transform="translate(0,0)"/>
<path d="M0 0 C2 1 2 1 2 1 Z " fill="#6A6A94" transform="translate(78,187)"/>
<path d="" fill="#AAAAAA" transform="translate(0,0)"/>
<path d="M0 0 C2 1 2 1 2 1 Z " fill="#BFBFBF" transform="translate(80,186)"/>
<path d="M0 0 C2 1 2 1 2 1 Z " fill="#6A6A94" transform="translate(872,185)"/>
<path d="M0 0 C2 1 2 1 2 1 Z " fill="#3F3F3F" transform="translate(82,185)"/>
<path d="M0 0 C2 1 2 1 2 1 Z " fill="#7F7F7F" transform="translate(867,183)"/>
<path d="M0 0 C2 1 2 1 2 1 Z " fill="#7F7FBF" transform="translate(87,182)"/>
<path d="M0 0 C2 1 2 1 2 1 Z " fill="#BFBFBF" transform="translate(89,181)"/>
<path d="M0 0 C2 1 2 1 2 1 Z " fill="#3F3F3F" transform="translate(91,180)"/>
<path d="" fill="#AAAAAA" transform="translate(0,0)"/>
<path d="M0 0 C2 1 2 1 2 1 Z " fill="#7F7F7F" transform="translate(96,177)"/>
<path d="M0 0 C2 1 2 1 2 1 Z " fill="#D4D4D4" transform="translate(98,176)"/>
<path d="M0 0 C2 1 2 1 2 1 Z " fill="#3F3F3F" transform="translate(100,175)"/>
<path d="M0 0 C2 1 2 1 2 1 Z " fill="#AAAAD4" transform="translate(103,173)"/>
<path d="" fill="#7FAAAA" transform="translate(0,0)"/>
<path d="" fill="#6A6A94" transform="translate(0,0)"/>
<path d="M0 0 C2 1 2 1 2 1 Z " fill="#7F7F7F" transform="translate(105,172)"/>
<path d="M0 0 C2 1 2 1 2 1 Z " fill="#7F7F7F" transform="translate(821,171)"/>
<path d="M0 0 C2 1 2 1 2 1 Z " fill="#D4D4D4" transform="translate(107,171)"/>
<path d="" fill="#6A6A6A" transform="translate(0,0)"/>
<path d="M0 0 C2 1 2 1 2 1 Z " fill="#3F3F3F" transform="translate(109,170)"/>
<path d="M0 0 C2 1 2 1 2 1 Z " fill="#555555" transform="translate(816,169)"/>
<path d="M0 0 C2 1 2 1 2 1 Z " fill="#5555D4" transform="translate(814,168)"/>
<path d="M0 0 C2 1 2 1 2 1 Z " fill="#AAAAD4" transform="translate(112,168)"/>
<path d="M0 0 C2 1 2 1 2 1 Z " fill="#555555" transform="translate(812,167)"/>
<path d="M0 0 C2 1 2 1 2 1 Z " fill="#7F7F7F" transform="translate(114,167)"/>
<path d="M0 0 C2 1 2 1 2 1 Z " fill="#D4D4D4" transform="translate(116,166)"/>
<path d="M0 0 C2 1 2 1 2 1 Z " fill="#AAAAD4" transform="translate(809,165)"/>
<path d="M0 0 C2 1 2 1 2 1 Z " fill="#3F3F3F" transform="translate(118,165)"/>
<path d="" fill="#6A6A6A" transform="translate(0,0)"/>
<path d="" fill="#6A6A6A" transform="translate(0,0)"/>
<path d="M0 0 C2 1 2 1 2 1 Z " fill="#AAAAAA" transform="translate(806,163)"/>
<path d="" fill="#949494" transform="translate(0,0)"/>
<path d="M0 0 C2 1 2 1 2 1 Z " fill="#7F7F7F" transform="translate(123,162)"/>
<path d="" fill="#AAAAAA" transform="translate(0,0)"/>
<path d="" fill="#000000" transform="translate(0,0)"/>
<path d="" fill="#6A6A6A" transform="translate(0,0)"/>
<path d="M0 0 C2 1 2 1 2 1 Z " fill="#7F7F7F" transform="translate(123,157)"/>
<path d="M0 0 C2 1 2 1 2 1 Z " fill="#55D4D4" transform="translate(1062,156)"/>
<path d="M0 0 C2 1 2 1 2 1 Z " fill="#BFBFBF" transform="translate(910,156)"/>
<path d="M0 0 C2 1 2 1 2 1 Z " fill="#BFBFBF" transform="translate(1060,155)"/>
<path d="M0 0 C2 1 2 1 2 1 Z " fill="#3FBFBF" transform="translate(118,154)"/>
<path d="M0 0 C2 1 2 1 2 1 Z " fill="#949494" transform="translate(1190,153)"/>
<path d="M0 0 C2 1 2 1 2 1 Z " fill="#3F3F3F" transform="translate(1154,153)"/>
<path d="M0 0 C2 1 2 1 2 1 Z " fill="#AAAAAA" transform="translate(1057,153)"/>
<path d="M0 0 C2 1 2 1 2 1 Z " fill="#BFBFBF" transform="translate(906,153)"/>
<path d="M0 0 C2 1 2 1 2 1 Z " fill="#D4D4D4" transform="translate(116,153)"/>
<path d="M0 0 C2 1 2 1 2 1 Z " fill="#BFBFBF" transform="translate(1156,152)"/>
<path d="M0 0 C2 1 2 1 2 1 Z " fill="#949494" transform="translate(1055,152)"/>
<path d="M0 0 C2 1 2 1 2 1 Z " fill="#7F7F7F" transform="translate(114,152)"/>
<path d="M0 0 C2 1 2 1 2 1 Z " fill="#949494" transform="translate(1053,151)"/>
<path d="M0 0 C2 1 2 1 2 1 Z " fill="#3F3F3F" transform="translate(1007,151)"/>
<path d="" fill="#949494" transform="translate(0,0)"/>
<path d="M0 0 C2 1 2 1 2 1 Z " fill="#6A9494" transform="translate(903,151)"/>
<path d="" fill="#AAAAAA" transform="translate(0,0)"/>
<path d="M0 0 C2 1 2 1 2 1 Z " fill="#6A9494" transform="translate(1051,150)"/>
<path d="M0 0 C2 1 2 1 2 1 Z " fill="#AAAAD4" transform="translate(901,150)"/>
<path d="M0 0 C2 1 2 1 2 1 Z " fill="#555555" transform="translate(111,150)"/>
<path d="M0 0 C2 1 2 1 2 1 Z " fill="#7F7F7F" transform="translate(1048,149)"/>
<path d="M0 0 C2 1 2 1 2 1 Z " fill="#949494" transform="translate(1010,149)"/>
<path d="M0 0 C2 1 2 1 2 1 Z " fill="#D4D4D4" transform="translate(109,149)"/>
<path d="M0 0 C2 1 2 1 2 1 Z " fill="#D4D4D4" transform="translate(897,148)"/>
<path d="M0 0 C2 1 2 1 2 1 Z " fill="#949494" transform="translate(107,148)"/>
<path d="M0 0 C2 1 2 1 2 1 Z " fill="#949494" transform="translate(895,147)"/>
<path d="M0 0 C2 1 2 1 2 1 Z " fill="#AAAAD4" transform="translate(105,147)"/>
<path d="M0 0 C2 1 2 1 2 1 Z " fill="#BFBFBF" transform="translate(893,146)"/>
<path d="" fill="#7FAAAA" transform="translate(0,0)"/>
<path d="M0 0 C2 1 2 1 2 1 Z " fill="#3F3F3F" transform="translate(102,145)"/>
<path d="" fill="#7F7F7F" transform="translate(0,0)"/>
<path d="" fill="#7F7F7F" transform="translate(0,0)"/>
<path d="M0 0 C2 1 2 1 2 1 Z " fill="#D4D4D4" transform="translate(100,144)"/>
<path d="" fill="#6A6A6A" transform="translate(0,0)"/>
<path d="M0 0 C2 1 2 1 2 1 Z " fill="#7F7FBF" transform="translate(98,143)"/>
<path d="M0 0 C2 1 2 1 2 1 Z " fill="#3F3F3F" transform="translate(93,140)"/>
<path d="" fill="#7F7FAA" transform="translate(0,0)"/>
<path d="M0 0 C2 1 2 1 2 1 Z " fill="#949494" transform="translate(91,139)"/>
<path d="M0 0 C2 1 2 1 2 1 Z " fill="#7F7FBF" transform="translate(89,138)"/>
<path d="" fill="#7F7F7F" transform="translate(0,0)"/>
<path d="" fill="#6A6A6A" transform="translate(0,0)"/>
<path d="M0 0 C2 1 2 1 2 1 Z " fill="#55D4D4" transform="translate(84,135)"/>
<path d="M0 0 C2 1 2 1 2 1 Z " fill="#7F7FBF" transform="translate(82,134)"/>
<path d="M0 0 C2 1 2 1 2 1 Z " fill="#7F7F7F" transform="translate(841,133)"/>
<path d="M0 0 C2 1 2 1 2 1 Z " fill="#AAAAAA" transform="translate(80,133)"/>
<path d="M0 0 C2 1 2 1 2 1 Z " fill="#6A9494" transform="translate(836,131)"/>
<path d="" fill="#7F7F7F" transform="translate(0,0)"/>
<path d="M0 0 C2 1 2 1 2 1 Z " fill="#BFBFBF" transform="translate(75,130)"/>
<path d="M0 0 C2 1 2 1 2 1 Z " fill="#6A9494" transform="translate(73,129)"/>
<path d="" fill="#7F7FD4" transform="translate(0,0)"/>
<path d="" fill="#AAAAAA" transform="translate(0,0)"/>
<path d="M0 0 C2 1 2 1 2 1 Z " fill="#2A2A2A" transform="translate(971,128)"/>
<path d="" fill="#7F7FAA" transform="translate(0,0)"/>
<path d="" fill="#7FAAAA" transform="translate(0,0)"/>
<path d="M0 0 C2 1 2 1 2 1 Z " fill="#FFFFFF" transform="translate(68,126)"/>
<path d="M0 0 C2 1 2 1 2 1 Z " fill="#AAAAD4" transform="translate(975,125)"/>
<path d="" fill="#7F7FAA" transform="translate(0,0)"/>
<path d="" fill="#AAAAAA" transform="translate(0,0)"/>
<path d="M0 0 C2 1 2 1 2 1 Z " fill="#D4D4D4" transform="translate(978,123)"/>
<path d="" fill="#7F7F7F" transform="translate(0,0)"/>
<path d="" fill="#7F7F7F" transform="translate(0,0)"/>
<path d="" fill="#AAAAAA" transform="translate(0,0)"/>
<path d="M0 0 C2 1 2 1 2 1 Z " fill="#BFBFBF" transform="translate(980,122)"/>
<path d="M0 0 C2 1 2 1 2 1 Z " fill="#55D4D4" transform="translate(1151,121)"/>
<path d="M0 0 C2 1 2 1 2 1 Z " fill="#555555" transform="translate(983,120)"/>
<path d="M0 0 C2 1 2 1 2 1 Z " fill="#3F3F3F" transform="translate(697,120)"/>
<path d="M0 0 C2 1 2 1 2 1 Z " fill="#5555D4" transform="translate(324,120)"/>
<path d="M0 0 C2 1 2 1 2 1 Z " fill="#7F7F7F" transform="translate(1154,119)"/>
<path d="M0 0 C2 1 2 1 2 1 Z " fill="#555555" transform="translate(1062,119)"/>
<path d="M0 0 C2 1 2 1 2 1 Z " fill="#949494" transform="translate(986,119)"/>
<path d="" fill="#6A6A94" transform="translate(0,0)"/>
<path d="M0 0 C2 1 2 1 2 1 Z " fill="#7F7F7F" transform="translate(988,118)"/>
<path d="M0 0 C2 1 2 1 2 1 Z " fill="#3F3F3F" transform="translate(911,118)"/>
<path d="M0 0 C2 1 2 1 2 1 Z " fill="#BFBFBF" transform="translate(694,118)"/>
<path d="" fill="#AAAAAA" transform="translate(0,0)"/>
<path d="M0 0 C2 1 2 1 2 1 Z " fill="#BFBFBF" transform="translate(321,118)"/>
<path d="M0 0 C2 1 2 1 2 1 Z " fill="#555555" transform="translate(1157,117)"/>
<path d="M0 0 C2 1 2 1 2 1 Z " fill="#D4D4D4" transform="translate(909,117)"/>
<path d="M0 0 C2 1 2 1 2 1 Z " fill="#3F3F3F" transform="translate(692,117)"/>
<path d="M0 0 C2 1 2 1 2 1 Z " fill="#3F3F3F" transform="translate(319,117)"/>
<path d="M0 0 C2 1 2 1 2 1 Z " fill="#7F7F7F" transform="translate(907,116)"/>
<path d="M0 0 C2 1 2 1 2 1 Z " fill="#555555" transform="translate(690,116)"/>
<path d="" fill="#AAAAAA" transform="translate(0,0)"/>
<path d="M0 0 C2 1 2 1 2 1 Z " fill="#555555" transform="translate(317,116)"/>
<path d="M0 0 C2 1 2 1 2 1 Z " fill="#949494" transform="translate(1162,115)"/>
<path d="M0 0 C2 1 2 1 2 1 Z " fill="#BFBFBF" transform="translate(688,115)"/>
<path d="M0 0 C2 1 2 1 2 1 Z " fill="#7F7F7F" transform="translate(315,115)"/>
<path d="M0 0 C2 1 2 1 2 1 Z " fill="#949494" transform="translate(902,114)"/>
<path d="M0 0 C2 1 2 1 2 1 Z " fill="#7F7F7F" transform="translate(899,113)"/>
<path d="" fill="#6A6A94" transform="translate(0,0)"/>
<path d="M0 0 C2 1 2 1 2 1 Z " fill="#BFBFDF" transform="translate(836,110)"/>
<path d="" fill="#AAAAAA" transform="translate(0,0)"/>
<path d="M0 0 C2 1 2 1 2 1 Z " fill="#BFBFBF" transform="translate(838,109)"/>
<path d="" fill="#AAAAAA" transform="translate(0,0)"/>
<path d="" fill="#949494" transform="translate(0,0)"/>
<path d="" fill="#7F7F7F" transform="translate(0,0)"/>
<path d="" fill="#AAAAAA" transform="translate(0,0)"/>
<path d="" fill="#AAAAAA" transform="translate(0,0)"/>
<path d="M0 0 C2 1 2 1 2 1 Z " fill="#D4D4D4" transform="translate(138,103)"/>
<path d="" fill="#949494" transform="translate(0,0)"/>
<path d="" fill="#6A6A6A" transform="translate(0,0)"/>
<path d="M0 0 C2 1 2 1 2 1 Z " fill="#D4D4D4" transform="translate(42,100)"/>
<path d="M0 0 C2 1 2 1 2 1 Z " fill="#BFBFBF" transform="translate(133,99)"/>
<path d="M0 0 C2 1 2 1 2 1 Z " fill="#D4D4D4" transform="translate(130,97)"/>
<path d="M0 0 C2 1 2 1 2 1 Z " fill="#BFBFBF" transform="translate(46,97)"/>
<path d="" fill="#6A6A6A" transform="translate(0,0)"/>
<path d="M0 0 C2 1 2 1 2 1 Z " fill="#3F3F3F" transform="translate(48,96)"/>
<path d="M0 0 C2 1 2 1 2 1 Z " fill="#6A6A94" transform="translate(127,95)"/>
<path d="" fill="#AAAAAA" transform="translate(0,0)"/>
<path d="M0 0 C2 1 2 1 2 1 Z " fill="#7F7F7F" transform="translate(125,94)"/>
<path d="M0 0 C2 1 2 1 2 1 Z " fill="#6A6A94" transform="translate(51,94)"/>
<path d="M0 0 C2 1 2 1 2 1 Z " fill="#949494" transform="translate(123,93)"/>
<path d="M0 0 C2 1 2 1 2 1 Z " fill="#6A6A6A" transform="translate(53,93)"/>
<path d="M0 0 C2 1 2 1 2 1 Z " fill="#949494" transform="translate(121,92)"/>
<path d="M0 0 C2 1 2 1 2 1 Z " fill="#6A6A6A" transform="translate(55,92)"/>
<path d="M0 0 C2 1 2 1 2 1 Z " fill="#7F7F7F" transform="translate(730,91)"/>
<path d="" fill="#AAAAAA" transform="translate(0,0)"/>
<path d="M0 0 C2 1 2 1 2 1 Z " fill="#BFBFBF" transform="translate(357,91)"/>
<path d="M0 0 C2 1 2 1 2 1 Z " fill="#7F7FAA" transform="translate(119,91)"/>
<path d="M0 0 C2 1 2 1 2 1 Z " fill="#949494" transform="translate(60,90)"/>
<path d="" fill="#949494" transform="translate(0,0)"/>
<path d="" fill="#AAAAAA" transform="translate(0,0)"/>
<path d="M0 0 C2 1 2 1 2 1 Z " fill="#BFBFBF" transform="translate(31,89)"/>
<path d="M0 0 C2 1 2 1 2 1 Z " fill="#555555" transform="translate(726,88)"/>
<path d="M0 0 C2 1 2 1 2 1 Z " fill="#555555" transform="translate(353,88)"/>
<path d="M0 0 C2 1 2 1 2 1 Z " fill="#AAD4D4" transform="translate(144,88)"/>
<path d="M0 0 C2 1 2 1 2 1 Z " fill="#BFBFBF" transform="translate(351,87)"/>
<path d="M0 0 C2 1 2 1 2 1 Z " fill="#7F7F7F" transform="translate(35,86)"/>
<path d="M0 0 C2 1 2 1 2 1 Z " fill="#D4D4D4" transform="translate(721,85)"/>
<path d="M0 0 C2 1 2 1 2 1 Z " fill="#BFBFBF" transform="translate(348,85)"/>
<path d="M0 0 C2 1 2 1 2 1 Z " fill="#D4D4D4" transform="translate(140,85)"/>
<path d="M0 0 C2 1 2 1 2 1 Z " fill="#949494" transform="translate(719,84)"/>
<path d="M0 0 C2 1 2 1 2 1 Z " fill="#949494" transform="translate(346,84)"/>
<path d="M0 0 C2 1 2 1 2 1 Z " fill="#949494" transform="translate(717,83)"/>
<path d="" fill="#AAAAAA" transform="translate(0,0)"/>
<path d="M0 0 C2 1 2 1 2 1 Z " fill="#949494" transform="translate(344,83)"/>
<path d="M0 0 C2 1 2 1 2 1 Z " fill="#BFBFBF" transform="translate(137,83)"/>
<path d="M0 0 C2 1 2 1 2 1 Z " fill="#BFBFBF" transform="translate(39,83)"/>
<path d="M0 0 C2 1 2 1 2 1 Z " fill="#BFBFBF" transform="translate(807,82)"/>
<path d="M0 0 C2 1 2 1 2 1 Z " fill="#D4D4D4" transform="translate(715,82)"/>
<path d="M0 0 C2 1 2 1 2 1 Z " fill="#BFBFBF" transform="translate(342,82)"/>
<path d="" fill="#AAAAAA" transform="translate(0,0)"/>
<path d="M0 0 C2 1 2 1 2 1 Z " fill="#D4D4D4" transform="translate(134,81)"/>
<path d="M0 0 C2 1 2 1 2 1 Z " fill="#555555" transform="translate(42,81)"/>
<path d="M0 0 C2 1 2 1 2 1 Z " fill="#3F3FBF" transform="translate(810,80)"/>
<path d="M0 0 C2 1 2 1 2 1 Z " fill="#7F7F7F" transform="translate(710,80)"/>
<path d="" fill="#949494" transform="translate(0,0)"/>
<path d="M0 0 C2 1 2 1 2 1 Z " fill="#7F7F7F" transform="translate(337,80)"/>
<path d="M0 0 C2 1 2 1 2 1 Z " fill="#BFBFBF" transform="translate(132,80)"/>
<path d="M0 0 C2 1 2 1 2 1 Z " fill="#D4D4D4" transform="translate(44,80)"/>
<path d="M0 0 C2 1 2 1 2 1 Z " fill="#6A9494" transform="translate(130,79)"/>
<path d="M0 0 C2 1 2 1 2 1 Z " fill="#949494" transform="translate(46,79)"/>
<path d="M0 0 C2 1 2 1 2 1 Z " fill="#949494" transform="translate(911,78)"/>
<path d="M0 0 C2 1 2 1 2 1 Z " fill="#D4D4D4" transform="translate(813,78)"/>
<path d="" fill="#AAAAAA" transform="translate(0,0)"/>
<path d="M0 0 C2 1 2 1 2 1 Z " fill="#BFBFBF" transform="translate(48,78)"/>
<path d="M0 0 C2 1 2 1 2 1 Z " fill="#949494" transform="translate(815,77)"/>
<path d="M0 0 C2 1 2 1 2 1 Z " fill="#949494" transform="translate(50,77)"/>
<path d="M0 0 C2 1 2 1 2 1 Z " fill="#D4D4D4" transform="translate(817,76)"/>
<path d="" fill="#7F7F7F" transform="translate(0,0)"/>
<path d="M0 0 C2 1 2 1 2 1 Z " fill="#7FAAAA" transform="translate(124,76)"/>
<path d="M0 0 C2 1 2 1 2 1 Z " fill="#7F7F7F" transform="translate(52,76)"/>
<path d="M0 0 C2 1 2 1 2 1 Z " fill="#949494" transform="translate(122,75)"/>
<path d="M0 0 C2 1 2 1 2 1 Z " fill="#6A6A94" transform="translate(57,74)"/>
<path d="" fill="#000000" transform="translate(0,0)"/>
<path d="" fill="#AAAAAA" transform="translate(0,0)"/>
<path d="" fill="#AAAAAA" transform="translate(0,0)"/>
<path d="" fill="#55AAAA" transform="translate(0,0)"/>
<path d="" fill="#7F7F7F" transform="translate(0,0)"/>
<path d="" fill="#AAAAAA" transform="translate(0,0)"/>
<path d="" fill="#AAAAAA" transform="translate(0,0)"/>
<path d="" fill="#555555" transform="translate(0,0)"/>
<path d="" fill="#5555AA" transform="translate(0,0)"/>
<path d="" fill="#7F7F7F" transform="translate(0,0)"/>
<path d="" fill="#7F7F7F" transform="translate(0,0)"/>
<path d="" fill="#AAAAAA" transform="translate(0,0)"/>
<path d="" fill="#5555AA" transform="translate(0,0)"/>
<path d="" fill="#AAAAAA" transform="translate(0,0)"/>
<path d="" fill="#7F7F7F" transform="translate(0,0)"/>
<path d="" fill="#7F7F7F" transform="translate(0,0)"/>
<path d="" fill="#7F7F7F" transform="translate(0,0)"/>
<path d="" fill="#7F7F7F" transform="translate(0,0)"/>
<path d="" fill="#AAAAAA" transform="translate(0,0)"/>
<path d="" fill="#AAAAAA" transform="translate(0,0)"/>
<path d="" fill="#55AAAA" transform="translate(0,0)"/>
<path d="" fill="#7F7F7F" transform="translate(0,0)"/>
<path d="" fill="#7F7F7F" transform="translate(0,0)"/>
<path d="" fill="#AAAAAA" transform="translate(0,0)"/>
<path d="" fill="#7F7F7F" transform="translate(0,0)"/>
<path d="" fill="#7F7F7F" transform="translate(0,0)"/>
<path d="" fill="#7F7F7F" transform="translate(0,0)"/>
<path d="" fill="#55AAAA" transform="translate(0,0)"/>
<path d="" fill="#555555" transform="translate(0,0)"/>
<path d="" fill="#55AAAA" transform="translate(0,0)"/>
<path d="" fill="#AAAAAA" transform="translate(0,0)"/>
<path d="" fill="#7F7F7F" transform="translate(0,0)"/>
<path d="" fill="#7F7F7F" transform="translate(0,0)"/>
<path d="" fill="#AAAAAA" transform="translate(0,0)"/>
<path d="" fill="#7F7F7F" transform="translate(0,0)"/>
<path d="" fill="#7F7F7F" transform="translate(0,0)"/>
<path d="" fill="#AAAAAA" transform="translate(0,0)"/>
<path d="" fill="#AAAAAA" transform="translate(0,0)"/>
<path d="" fill="#AAAAAA" transform="translate(0,0)"/>
<path d="" fill="#7FBFBF" transform="translate(0,0)"/>
<path d="" fill="#AAAAAA" transform="translate(0,0)"/>
<path d="" fill="#7F7F7F" transform="translate(0,0)"/>
<path d="" fill="#7F7F7F" transform="translate(0,0)"/>
<path d="" fill="#669999" transform="translate(0,0)"/>
<path d="" fill="#7F7FBF" transform="translate(0,0)"/>
<path d="" fill="#7F7F7F" transform="translate(0,0)"/>
<path d="" fill="#7F7F7F" transform="translate(0,0)"/>
<path d="" fill="#669999" transform="translate(0,0)"/>
<path d="" fill="#7F7FBF" transform="translate(0,0)"/>
<path d="" fill="#AAAAAA" transform="translate(0,0)"/>
<path d="" fill="#669999" transform="translate(0,0)"/>
<path d="" fill="#AAAAAA" transform="translate(0,0)"/>
<path d="" fill="#7F7FBF" transform="translate(0,0)"/>
<path d="" fill="#669999" transform="translate(0,0)"/>
<path d="" fill="#7F7F7F" transform="translate(0,0)"/>
<path d="" fill="#7F7FBF" transform="translate(0,0)"/>
<path d="" fill="#7F7F7F" transform="translate(0,0)"/>
<path d="" fill="#7F7F7F" transform="translate(0,0)"/>
<path d="" fill="#669999" transform="translate(0,0)"/>
<path d="" fill="#7F7FBF" transform="translate(0,0)"/>
<path d="" fill="#7F7F7F" transform="translate(0,0)"/>
<path d="" fill="#7F7F7F" transform="translate(0,0)"/>
<path d="" fill="#669999" transform="translate(0,0)"/>
<path d="" fill="#7F7F7F" transform="translate(0,0)"/>
<path d="" fill="#7FBFBF" transform="translate(0,0)"/>
<path d="" fill="#7F7FBF" transform="translate(0,0)"/>
<path d="" fill="#5555AA" transform="translate(0,0)"/>
<path d="" fill="#7F7F7F" transform="translate(0,0)"/>
<path d="" fill="#7FBFBF" transform="translate(0,0)"/>
<path d="" fill="#AAAAAA" transform="translate(0,0)"/>
<path d="" fill="#AAAAAA" transform="translate(0,0)"/>
<path d="" fill="#7F7F7F" transform="translate(0,0)"/>
<path d="" fill="#7FBFBF" transform="translate(0,0)"/>
<path d="" fill="#7F7F7F" transform="translate(0,0)"/>
<path d="" fill="#AAAAAA" transform="translate(0,0)"/>
<path d="" fill="#7F7F7F" transform="translate(0,0)"/>
<path d="" fill="#7F7F7F" transform="translate(0,0)"/>
<path d="" fill="#7F7F7F" transform="translate(0,0)"/>
<path d="" fill="#7F7F7F" transform="translate(0,0)"/>
<path d="" fill="#AAAAAA" transform="translate(0,0)"/>
<path d="" fill="#7F7F7F" transform="translate(0,0)"/>
<path d="" fill="#7F7F7F" transform="translate(0,0)"/>
<path d="" fill="#7F7F7F" transform="translate(0,0)"/>
<path d="" fill="#7F7F7F" transform="translate(0,0)"/>
<path d="" fill="#999999" transform="translate(0,0)"/>
<path d="" fill="#AAAAAA" transform="translate(0,0)"/>
<path d="" fill="#AAAAAA" transform="translate(0,0)"/>
<path d="" fill="#AAAAAA" transform="translate(0,0)"/>
<path d="" fill="#BFBFBF" transform="translate(0,0)"/>
<path d="" fill="#999999" transform="translate(0,0)"/>
<path d="" fill="#AAAAAA" transform="translate(0,0)"/>
<path d="" fill="#999999" transform="translate(0,0)"/>
<path d="" fill="#669999" transform="translate(0,0)"/>
<path d="" fill="#666666" transform="translate(0,0)"/>
<path d="" fill="#7F7FBF" transform="translate(0,0)"/>
<path d="" fill="#AAAAAA" transform="translate(0,0)"/>
<path d="" fill="#AAAAAA" transform="translate(0,0)"/>
<path d="" fill="#999999" transform="translate(0,0)"/>
<path d="" fill="#7F7F7F" transform="translate(0,0)"/>
<path d="" fill="#7F7FBF" transform="translate(0,0)"/>
<path d="" fill="#7F7F7F" transform="translate(0,0)"/>
<path d="" fill="#7F7FBF" transform="translate(0,0)"/>
<path d="" fill="#AAAAAA" transform="translate(0,0)"/>
<path d="" fill="#AAAAAA" transform="translate(0,0)"/>
<path d="" fill="#7FBFBF" transform="translate(0,0)"/>
<path d="" fill="#7FBFBF" transform="translate(0,0)"/>
<path d="" fill="#7FBFBF" transform="translate(0,0)"/>
<path d="" fill="#7FBFBF" transform="translate(0,0)"/>
<path d="" fill="#7F7F7F" transform="translate(0,0)"/>
<path d="" fill="#7F7F7F" transform="translate(0,0)"/>
<path d="" fill="#7F7F7F" transform="translate(0,0)"/>
<path d="" fill="#7F7F7F" transform="translate(0,0)"/>
<path d="" fill="#7F7FBF" transform="translate(0,0)"/>
<path d="" fill="#7F7F7F" transform="translate(0,0)"/>
<path d="" fill="#AAAAAA" transform="translate(0,0)"/>
<path d="" fill="#7F7F7F" transform="translate(0,0)"/>
<path d="" fill="#7F7F7F" transform="translate(0,0)"/>
<path d="" fill="#AAAAAA" transform="translate(0,0)"/>
<path d="" fill="#555555" transform="translate(0,0)"/>
<path d="" fill="#AAAAAA" transform="translate(0,0)"/>
<path d="" fill="#555555" transform="translate(0,0)"/>
<path d="" fill="#AAAAAA" transform="translate(0,0)"/>
<path d="" fill="#AAAAAA" transform="translate(0,0)"/>
<path d="" fill="#AAAAAA" transform="translate(0,0)"/>
<path d="" fill="#AAAAAA" transform="translate(0,0)"/>
<path d="" fill="#AAAAAA" transform="translate(0,0)"/>
<path d="" fill="#AAAAAA" transform="translate(0,0)"/>
<path d="" fill="#7F7FFF" transform="translate(0,0)"/>
<path d="" fill="#7F7F7F" transform="translate(0,0)"/>
<path d="" fill="#7F7F7F" transform="translate(0,0)"/>
<path d="" fill="#7F7F7F" transform="translate(0,0)"/>
<path d="" fill="#7F7F7F" transform="translate(0,0)"/>
<path d="" fill="#AAAAAA" transform="translate(0,0)"/>
<path d="" fill="#999999" transform="translate(0,0)"/>
<path d="" fill="#7F7F7F" transform="translate(0,0)"/>
<path d="" fill="#7F7F7F" transform="translate(0,0)"/>
<path d="" fill="#999999" transform="translate(0,0)"/>
<path d="" fill="#7F7F7F" transform="translate(0,0)"/>
<path d="" fill="#7F7F7F" transform="translate(0,0)"/>
<path d="" fill="#55AAAA" transform="translate(0,0)"/>
<path d="" fill="#AAAAAA" transform="translate(0,0)"/>
<path d="" fill="#7F7F7F" transform="translate(0,0)"/>
<path d="" fill="#7F7F7F" transform="translate(0,0)"/>
<path d="" fill="#AAAAAA" transform="translate(0,0)"/>
<path d="" fill="#FFFFFF" transform="translate(0,0)"/>
<path d="" fill="#7F7F7F" transform="translate(0,0)"/>
<path d="" fill="#555555" transform="translate(0,0)"/>
<path d="" fill="#AAAAAA" transform="translate(0,0)"/>
<path d="" fill="#AAAAAA" transform="translate(0,0)"/>
<path d="" fill="#AAAAAA" transform="translate(0,0)"/>
<path d="" fill="#7F7F7F" transform="translate(0,0)"/>
<path d="" fill="#AAAAAA" transform="translate(0,0)"/>
<path d="" fill="#AAAAAA" transform="translate(0,0)"/>
<path d="" fill="#AAAAAA" transform="translate(0,0)"/>
<path d="" fill="#AAAAAA" transform="translate(0,0)"/>
<path d="" fill="#AAAAAA" transform="translate(0,0)"/>
<path d="" fill="#555555" transform="translate(0,0)"/>
<path d="" fill="#AAAAAA" transform="translate(0,0)"/>
<path d="" fill="#AAAAAA" transform="translate(0,0)"/>
<path d="" fill="#55AAAA" transform="translate(0,0)"/>
<path d="" fill="#AAAAAA" transform="translate(0,0)"/>
<path d="" fill="#7F7F7F" transform="translate(0,0)"/>
<path d="" fill="#AAAAAA" transform="translate(0,0)"/>
<path d="" fill="#AAAAAA" transform="translate(0,0)"/>
<path d="" fill="#AAAAAA" transform="translate(0,0)"/>
<path d="" fill="#AAAAAA" transform="translate(0,0)"/>
<path d="" fill="#55AAAA" transform="translate(0,0)"/>
<path d="" fill="#7F7F7F" transform="translate(0,0)"/>
<path d="" fill="#7F7FFF" transform="translate(0,0)"/>
<path d="" fill="#999999" transform="translate(0,0)"/>
<path d="" fill="#5555AA" transform="translate(0,0)"/>
<path d="" fill="#7F7F7F" transform="translate(0,0)"/>
<path d="" fill="#669999" transform="translate(0,0)"/>
<path d="" fill="#7F7F7F" transform="translate(0,0)"/>
<path d="" fill="#555555" transform="translate(0,0)"/>
<path d="" fill="#7F7F7F" transform="translate(0,0)"/>
<path d="" fill="#7F7F7F" transform="translate(0,0)"/>
<path d="" fill="#AAAAAA" transform="translate(0,0)"/>
<path d="" fill="#7F7F7F" transform="translate(0,0)"/>
<path d="" fill="#AAAAAA" transform="translate(0,0)"/>
<path d="" fill="#7F7F7F" transform="translate(0,0)"/>
<path d="" fill="#7F7F7F" transform="translate(0,0)"/>
<path d="" fill="#7F7F7F" transform="translate(0,0)"/>
<path d="" fill="#7F7F7F" transform="translate(0,0)"/>
<path d="" fill="#7F7F7F" transform="translate(0,0)"/>
<path d="" fill="#AAAAAA" transform="translate(0,0)"/>
<path d="" fill="#000000" transform="translate(0,0)"/>
<path d="" fill="#AAAAAA" transform="translate(0,0)"/>
<path d="" fill="#AAAAAA" transform="translate(0,0)"/>
<path d="" fill="#AAAAAA" transform="translate(0,0)"/>
<path d="" fill="#AAAAAA" transform="translate(0,0)"/>
<path d="" fill="#AAAAAA" transform="translate(0,0)"/>
<path d="" fill="#7F7F7F" transform="translate(0,0)"/>
<path d="" fill="#AAAAAA" transform="translate(0,0)"/>
<path d="" fill="#7F7F7F" transform="translate(0,0)"/>
<path d="" fill="#AAAAAA" transform="translate(0,0)"/>
<path d="" fill="#7F7F7F" transform="translate(0,0)"/>
<path d="" fill="#666666" transform="translate(0,0)"/>
<path d="" fill="#AAAAAA" transform="translate(0,0)"/>
<path d="" fill="#555555" transform="translate(0,0)"/>
<path d="" fill="#55AAAA" transform="translate(0,0)"/>
<path d="" fill="#AAAAAA" transform="translate(0,0)"/>
<path d="" fill="#7F7FBF" transform="translate(0,0)"/>
<path d="" fill="#999999" transform="translate(0,0)"/>
<path d="" fill="#7F7FBF" transform="translate(0,0)"/>
<path d="" fill="#999999" transform="translate(0,0)"/>
<path d="" fill="#AAAAAA" transform="translate(0,0)"/>
<path d="" fill="#999999" transform="translate(0,0)"/>
<path d="" fill="#999999" transform="translate(0,0)"/>
<path d="" fill="#AAAAAA" transform="translate(0,0)"/>
<path d="" fill="#BFBFBF" transform="translate(0,0)"/>
<path d="" fill="#7F7F7F" transform="translate(0,0)"/>
<path d="" fill="#7F7F7F" transform="translate(0,0)"/>
<path d="" fill="#999999" transform="translate(0,0)"/>
<path d="" fill="#AAAAAA" transform="translate(0,0)"/>
<path d="" fill="#7F7F7F" transform="translate(0,0)"/>
<path d="" fill="#7F7F7F" transform="translate(0,0)"/>
<path d="" fill="#7F7F7F" transform="translate(0,0)"/>
<path d="" fill="#AAAAAA" transform="translate(0,0)"/>
<path d="" fill="#7F7F7F" transform="translate(0,0)"/>
<path d="" fill="#7F7F7F" transform="translate(0,0)"/>
<path d="" fill="#7F7F7F" transform="translate(0,0)"/>
<path d="" fill="#7FBFBF" transform="translate(0,0)"/>
<path d="" fill="#7F7F7F" transform="translate(0,0)"/>
<path d="" fill="#AAAAAA" transform="translate(0,0)"/>
<path d="" fill="#7F7F7F" transform="translate(0,0)"/>
<path d="" fill="#7F7F7F" transform="translate(0,0)"/>
<path d="" fill="#7FBFBF" transform="translate(0,0)"/>
<path d="" fill="#AAAAAA" transform="translate(0,0)"/>
<path d="" fill="#AAAAAA" transform="translate(0,0)"/>
<path d="" fill="#7F7F7F" transform="translate(0,0)"/>
<path d="" fill="#7F7F7F" transform="translate(0,0)"/>
<path d="" fill="#669999" transform="translate(0,0)"/>
<path d="" fill="#7F7F7F" transform="translate(0,0)"/>
<path d="" fill="#7FBFBF" transform="translate(0,0)"/>
<path d="" fill="#7F7FBF" transform="translate(0,0)"/>
<path d="" fill="#7F7F7F" transform="translate(0,0)"/>
<path d="" fill="#669999" transform="translate(0,0)"/>
<path d="" fill="#7F7FBF" transform="translate(0,0)"/>
<path d="" fill="#669999" transform="translate(0,0)"/>
<path d="" fill="#7F7F7F" transform="translate(0,0)"/>
<path d="" fill="#7F7FBF" transform="translate(0,0)"/>
<path d="" fill="#669999" transform="translate(0,0)"/>
<path d="" fill="#AAAAAA" transform="translate(0,0)"/>
<path d="" fill="#7F7FBF" transform="translate(0,0)"/>
<path d="" fill="#AAAAAA" transform="translate(0,0)"/>
<path d="" fill="#7F7F7F" transform="translate(0,0)"/>
<path d="" fill="#7F7F7F" transform="translate(0,0)"/>
<path d="" fill="#669999" transform="translate(0,0)"/>
<path d="" fill="#7F7FBF" transform="translate(0,0)"/>
<path d="" fill="#7F7F7F" transform="translate(0,0)"/>
<path d="" fill="#7F7F7F" transform="translate(0,0)"/>
<path d="" fill="#669999" transform="translate(0,0)"/>
<path d="" fill="#7F7FBF" transform="translate(0,0)"/>
<path d="" fill="#AAAAAA" transform="translate(0,0)"/>
<path d="" fill="#AAAAAA" transform="translate(0,0)"/>
<path d="" fill="#7FBFBF" transform="translate(0,0)"/>
<path d="" fill="#AAAAAA" transform="translate(0,0)"/>
<path d="" fill="#7F7F7F" transform="translate(0,0)"/>
<path d="" fill="#AAAAAA" transform="translate(0,0)"/>
<path d="" fill="#7F7F7F" transform="translate(0,0)"/>
<path d="" fill="#7F7F7F" transform="translate(0,0)"/>
<path d="" fill="#7F7F7F" transform="translate(0,0)"/>
<path d="" fill="#AAAAAA" transform="translate(0,0)"/>
<path d="" fill="#7F7F7F" transform="translate(0,0)"/>
<path d="" fill="#7F7F7F" transform="translate(0,0)"/>
<path d="" fill="#AAAAAA" transform="translate(0,0)"/>
<path d="" fill="#555555" transform="translate(0,0)"/>
<path d="" fill="#55AAAA" transform="translate(0,0)"/>
<path d="" fill="#7F7F7F" transform="translate(0,0)"/>
<path d="" fill="#7F7F7F" transform="translate(0,0)"/>
<path d="" fill="#7F7F7F" transform="translate(0,0)"/>
<path d="" fill="#7F7F7F" transform="translate(0,0)"/>
<path d="" fill="#7F7F7F" transform="translate(0,0)"/>
<path d="" fill="#AAAAAA" transform="translate(0,0)"/>
<path d="" fill="#7F7F7F" transform="translate(0,0)"/>
<path d="" fill="#AAAAAA" transform="translate(0,0)"/>
<path d="" fill="#AAAAAA" transform="translate(0,0)"/>
<path d="" fill="#55AAAA" transform="translate(0,0)"/>
<path d="" fill="#7F7F7F" transform="translate(0,0)"/>
<path d="" fill="#7F7F7F" transform="translate(0,0)"/>
<path d="" fill="#7F7F7F" transform="translate(0,0)"/>
<path d="" fill="#AAAAAA" transform="translate(0,0)"/>
<path d="" fill="#5555AA" transform="translate(0,0)"/>
<path d="" fill="#55AAAA" transform="translate(0,0)"/>
<path d="" fill="#AAAAAA" transform="translate(0,0)"/>
<path d="" fill="#555555" transform="translate(0,0)"/>
<path d="" fill="#7F7F7F" transform="translate(0,0)"/>
<path d="" fill="#AAAAAA" transform="translate(0,0)"/>
<path d="" fill="#AAAAAA" transform="translate(0,0)"/>
<path d="" fill="#FFFFFF" transform="translate(0,0)"/>
</svg>
