<?xml version="1.0" encoding="UTF-8"?>
<!-- Generator: visioncortex VTracer 0.6.12 -->
<svg version="1.1" xmlns="http://www.w3.org/2000/svg" width="344" height="80">
<path d="M0 0 C3.3 0 6.6 0 10 0 C10 6.27 10 12.54 10 19 C16.27 19 22.54 19 29 19 C29 12.73 29 6.46 29 0 C32.98 -0.136 36.956 -0.235 40.938 -0.312 C42.054 -0.354 43.171 -0.396 44.322 -0.439 C51.735 -0.548 57.064 0.368 63 5 C68.291 11.241 69.488 18.169 69.312 26.152 C68.66 32.098 66.749 37.819 62.25 41.938 C54.608 46.787 48.357 47.414 39.5 47.188 C38.487 47.174 37.474 47.16 36.43 47.146 C33.953 47.111 31.476 47.058 29 47 C29 40.73 29 34.46 29 28 C22.73 28 16.46 28 10 28 C10 34.27 10 40.54 10 47 C6.7 47 3.4 47 0 47 C0 31.49 0 15.98 0 0 Z M40 9 C40 18.57 40 28.14 40 38 C49.897 38 49.897 38 55 35 C58.667 30.53 58.5 25.416 58.355 19.852 C57.844 15.75 56.833 13.99 54 11 C50 9 50 9 40 9 Z " fill="#888D93" transform="translate(259,17)"/>
<path d="M0 0 C19.574 0 19.574 0 25.012 4.762 C31.421 12.127 33.641 18.135 33.344 27.973 C32.461 35.749 29.424 41.29 23.781 46.625 C15.988 52.641 12.037 50 0 50 C0 33.5 0 17 0 0 Z " fill="#888D93" transform="translate(15,15)"/>
<path d="M0 0 C0 16.5 0 33 0 50 C-19.29 50 -19.29 50 -25.891 44.395 C-31.485 37.884 -33.609 31.047 -33.277 22.477 C-32.376 14.426 -29.187 8.31 -23 3 C-17 0 -17 0 0 0 Z " fill="#888D93" transform="translate(90,15)"/>
<path d="M0 0 C3.824 2.705 6.079 5.362 7.562 9.812 C7.562 13.112 7.562 16.413 7.562 19.812 C-0.028 19.812 -7.618 19.812 -15.438 19.812 C-14.447 21.793 -13.458 23.773 -12.438 25.812 C-4.919 26.188 -4.919 26.188 -2.438 24.25 C0.035 22.473 0.865 22.744 3.812 23.125 C4.431 23.238 4.431 23.238 7.562 23.812 C7.27 27.229 6.593 28.774 4.438 31.5 C-0.291 35.304 -4.562 36.044 -10.5 35.688 C-16.565 34.887 -20 32.677 -23.75 27.812 C-26.675 22.613 -27.373 17.688 -25.941 11.758 C-24.155 6.408 -21.535 2.703 -16.613 -0.301 C-11.385 -2.431 -5.222 -1.804 0 0 Z M-13.812 8.688 C-15.438 10.812 -15.438 10.812 -15.438 12.812 C-11.148 12.812 -6.858 12.812 -2.438 12.812 C-3.438 8.812 -3.438 8.812 -5.438 6.812 C-9.189 6.323 -10.8 6.309 -13.812 8.688 Z " fill="#888D93" transform="translate(247.4375,29.1875)"/>
<path d="M0 0 C3.63 0 7.26 0 11 0 C11.049 1.709 11.098 3.419 11.148 5.18 C11.223 7.411 11.299 9.643 11.375 11.875 C11.406 13.003 11.437 14.131 11.469 15.293 C11.507 16.369 11.546 17.446 11.586 18.555 C11.617 19.55 11.649 20.545 11.681 21.57 C12 24 12 24 14 26 C17 26.312 17 26.312 20 26 C22.192 22.713 22.287 21.515 22.414 17.676 C22.453 16.648 22.491 15.62 22.531 14.561 C22.547 14.025 22.547 14.025 22.625 11.312 C22.664 10.229 22.702 9.146 22.742 8.029 C22.837 5.353 22.919 2.677 23 0 C26.3 0 29.6 0 33 0 C33 11.88 33 23.76 33 36 C29.7 36 26.4 36 23 36 C22.67 35.01 22.34 34.02 22 33 C21.442 33.487 20.884 33.975 20.309 34.477 C16.433 37.034 12.485 36.51 8 36 C5.062 35 5.062 35 3 33 C-0.418 25.998 -0.359 19.693 -0.188 12 C-0.174 10.844 -0.16 9.687 -0.146 8.496 C-0.111 5.664 -0.058 2.832 0 0 Z " fill="#888D93" transform="translate(185,28)"/>
<path d="M0 0 C12.87 0 25.74 0 39 0 C39 2.97 39 5.94 39 9 C34.05 9 29.1 9 24 9 C24 21.54 24 34.08 24 47 C20.7 47 17.4 47 14 47 C14 34.46 14 21.92 14 9 C9.38 9 4.76 9 0 9 C0 6.03 0 3.06 0 0 Z " fill="#888D93" transform="translate(124,17)"/>
<path d="M0 0 C3.3 0 6.6 0 10 0 C10.33 0.99 10.66 1.98 11 3 C11.33 2.505 11.66 2.01 12 1.5 C15.176 -0.882 18.102 -0.192 22 0 C22 2.97 22 5.94 22 9 C19.721 9.423 17.443 9.846 15.164 10.27 C13 11 13 11 11 14 C10.681 16.36 10.681 16.36 10.586 19.105 C10.567 19.597 10.567 19.597 10.469 22.084 C10.438 23.108 10.407 24.132 10.375 25.188 C10.356 25.705 10.356 25.705 10.258 28.326 C10.164 30.884 10.081 33.442 10 36 C6.7 36 3.4 36 0 36 C0 24.12 0 12.24 0 0 Z " fill="#888D93" transform="translate(162,28)"/>
</svg>
