<?xml version="1.0" encoding="UTF-8"?>
<!-- Generator: visioncortex VTracer 0.6.12 -->
<svg version="1.1" xmlns="http://www.w3.org/2000/svg" width="1196" height="320">
<path d="M0 0 C8.178 -0.031 8.178 -0.031 49.562 -0.188 C54.699 -0.215 59.835 -0.242 65.127 -0.27 C71.471 -0.284 71.471 -0.284 74.454 -0.286 C76.507 -0.291 78.561 -0.301 80.614 -0.317 C101.918 -0.468 122.353 0.962 139 16 C144.355 22.002 148.203 28.129 150 36 C150.18 36.764 150.361 37.529 150.547 38.316 C152.728 51.233 150.7 62.913 143.375 73.812 C136.366 82.8 127.502 87.084 117 91 C117.375 91.079 117.375 91.079 119.273 91.48 C133.626 94.752 144.866 100.775 153.234 113.113 C160.483 124.964 160.624 138.418 158.34 151.895 C155.711 161.487 150.371 169.366 143 176 C142.536 176.468 142.072 176.936 141.594 177.418 C125.68 192.591 102.496 192.584 82.031 192.391 C79.923 192.385 77.814 192.381 75.706 192.378 C67.971 192.358 60.235 192.302 52.5 192.25 C35.175 192.167 17.85 192.085 0 192 C0 128.64 0 65.28 0 0 Z M50 35 C50 49.52 50 64.04 50 79 C54.373 79.062 58.745 79.124 63.25 79.188 C64.603 79.215 65.955 79.242 67.349 79.27 C77.361 79.338 88.061 78.777 96 72 C100.965 67.035 102.937 62.626 103.031 55.699 C102.578 48.961 100.089 45.139 95.375 40.312 C86.756 33.691 75.652 34.635 65.375 34.812 C60.301 34.874 55.228 34.936 50 35 Z M50 110 C50 125.51 50 141.02 50 157 C55.899 157.062 61.798 157.124 67.875 157.188 C68.795 157.201 68.795 157.201 73.453 157.27 C83.966 157.362 93.865 157.222 102.531 150.457 C107.126 145.898 108.823 140.608 109.25 134.312 C109.122 128.585 108.041 123.478 104.336 118.98 C93.473 108.702 78.976 109.855 65 109.938 C60.05 109.958 55.1 109.979 50 110 Z " fill="#888D93" transform="translate(348,56)"/>
<path d="M0 0 C120.844 0 120.844 0 139.891 18.727 C153.718 33.629 156.658 49.499 156.312 69.277 C155.614 86.957 147.816 101.15 135 113 C131.788 115.288 128.533 117.253 125 119 C125.45 119.9 125.9 120.8 126.363 121.727 C126.667 122.335 126.971 122.943 127.285 123.57 C127.985 124.971 128.686 126.371 129.387 127.772 C131.474 131.943 133.555 136.116 135.629 140.293 C140.409 149.908 145.237 159.487 150.3 168.956 C154.355 176.569 158.137 184.273 162 192 C143.52 192 125.04 192 106 192 C94.507 170.164 94.507 170.164 89.992 161.082 C89.744 160.585 89.744 160.585 88.488 158.07 C86.948 154.985 85.412 151.899 83.875 148.812 C82.813 146.683 81.75 144.553 80.688 142.424 C78.122 137.284 75.561 132.142 73 127 C65.08 126.67 57.16 126.34 49 126 C49 147.78 49 169.56 49 192 C32.83 192 16.66 192 0 192 C0 128.64 0 65.28 0 0 Z M49 38 C49 55.16 49 72.32 49 90 C54.734 90.083 60.467 90.165 66.375 90.25 C68.163 90.286 69.952 90.323 71.794 90.36 C81.764 90.478 89.05 89.438 97.812 84.375 C103.206 78.52 105.753 71.637 106.133 63.734 C105.779 56.447 103.338 49.142 98 44 C91.247 39.423 85.742 37.849 77.613 37.902 C76.889 37.903 76.165 37.904 75.418 37.905 C72.716 37.911 70.014 37.925 67.312 37.938 C61.269 37.958 55.226 37.979 49 38 Z " fill="#888D93" transform="translate(730,56)"/>
<path d="M0 0 C17.49 0 34.98 0 53 0 C58.448 21.617 63.744 43.26 68.867 64.956 C69.828 69.027 70.796 73.097 71.765 77.167 C72.521 80.347 73.273 83.528 74.024 86.709 C74.38 88.214 74.737 89.718 75.096 91.221 C75.59 93.295 76.079 95.369 76.566 97.444 C76.844 98.618 77.122 99.792 77.408 101.001 C78 104 78 104 78 108 C78.66 108 79.32 108 80 108 C80.119 106.719 80.239 105.438 80.362 104.118 C80.933 99.008 82.006 94.1 83.209 89.106 C83.432 88.162 83.655 87.217 83.884 86.245 C84.616 83.153 85.355 80.063 86.094 76.973 C86.606 74.816 87.118 72.659 87.629 70.501 C88.699 65.996 89.771 61.492 90.847 56.988 C92.228 51.207 93.602 45.423 94.973 39.64 C96.028 35.193 97.085 30.747 98.144 26.301 C98.652 24.168 99.159 22.034 99.665 19.9 C100.371 16.929 101.081 13.959 101.791 10.989 C102.001 10.103 102.211 9.217 102.427 8.305 C103.885 2.229 103.885 2.229 105 0 C121.5 0 138 0 155 0 C154.319 4.766 153.697 8.419 152.244 12.857 C151.881 13.976 151.519 15.095 151.145 16.248 C150.946 16.85 150.946 16.85 149.941 19.898 C149.521 21.19 149.1 22.482 148.681 23.773 C147.783 26.534 146.881 29.294 145.977 32.053 C143.818 38.645 141.675 45.242 139.532 51.839 C139.043 53.345 138.554 54.85 138.064 56.355 C134.633 66.91 131.247 77.479 127.918 88.066 C127.818 88.384 127.818 88.384 127.312 89.993 C125.242 96.574 123.182 103.157 121.127 109.742 C117.626 120.93 114.014 132.073 110.203 143.16 C109.835 144.237 109.467 145.314 109.088 146.423 C103.127 163.588 94.275 177.685 77.637 186.211 C67.066 190.813 55.441 192.484 44 193 C43.241 193.041 42.481 193.082 41.699 193.125 C32.781 193.371 23.838 191.996 15 191 C15 179.45 15 167.9 15 156 C25.437 156.188 25.437 156.188 28.67 156.27 C34.84 156.323 40.404 155.787 46 153 C48.713 149.452 48.004 145.961 47.487 141.673 C46.533 136.434 44.668 131.486 42.898 126.477 C42.246 124.592 41.594 122.708 40.941 120.824 C40.242 118.811 39.539 116.8 38.834 114.79 C37.357 110.578 35.894 106.362 34.433 102.145 C32.632 96.95 30.829 91.757 29.021 86.565 C24.165 72.617 19.351 58.654 14.55 44.687 C13.029 40.263 11.505 35.841 9.977 31.42 C9.024 28.659 8.073 25.897 7.124 23.135 C6.475 21.251 5.823 19.369 5.171 17.487 C4.781 16.35 4.391 15.214 3.989 14.043 C3.651 13.064 3.314 12.084 2.966 11.075 C1.821 7.429 0.927 3.708 0 0 Z " fill="#888D93" transform="translate(1023,103)"/>
<path d="M0 0 C0.545 0.002 0.545 0.002 3.303 0.015 C21.389 0.277 39.313 4.889 52.977 17.41 C63.025 28.08 66.023 39.66 65.915 53.973 C65.915 54.998 65.915 56.024 65.915 57.08 C65.914 60.44 65.899 63.8 65.883 67.16 C65.879 69.501 65.876 71.843 65.874 74.184 C65.867 80.324 65.847 86.464 65.825 92.604 C65.801 99.983 65.792 107.362 65.78 114.742 C65.761 125.932 65.722 137.122 65.688 148.312 C49.847 148.312 34.007 148.312 17.688 148.312 C17.523 145.343 17.523 145.343 16.688 130.312 C15.388 131.839 14.089 133.365 12.75 134.938 C4.032 144.552 -5.651 149.985 -18.773 150.695 C-29.086 151.006 -38.909 151.051 -48.312 146.312 C-49.188 145.877 -50.063 145.441 -50.965 144.992 C-61.78 139.04 -69.363 130.436 -72.866 118.413 C-75.253 107.183 -74.408 94.106 -68.312 84.312 C-59.745 71.766 -46.058 65.934 -31.688 62.625 C-15.602 59.679 1.351 58.769 17.688 59.312 C16.98 45.605 16.98 45.605 11.438 40.062 C5.975 36.586 0.089 35.543 -6.312 36.312 C-11.708 37.551 -16.441 39.213 -20.312 43.312 C-21.303 45.623 -22.293 47.933 -23.312 50.312 C-37.503 50.312 -51.692 50.312 -66.312 50.312 C-66.312 36.832 -61.743 26.994 -52.688 17.188 C-38.438 3.588 -19.037 -0.102 0 0 Z M-1.812 88.125 C-2.806 88.195 -3.8 88.266 -4.824 88.338 C-12.236 88.95 -18.491 89.903 -24.312 94.875 C-26.993 99.483 -27.346 103.102 -26.312 108.312 C-23.621 112.939 -20.618 115.26 -15.613 116.844 C-8.017 118.391 -0.25 117.902 6.688 114.312 C11.174 111.271 15.407 107.736 17.301 102.488 C18.19 97.487 17.893 92.368 17.688 87.312 C11.146 87.211 4.706 87.588 -1.812 88.125 Z " fill="#888D93" transform="translate(959.3125,99.6875)"/>
<path d="M0 0 C15.84 0 31.68 0 48 0 C48.026 6.369 48.052 12.739 48.078 19.301 C48.103 23.352 48.13 27.404 48.16 31.455 C48.208 37.876 48.252 44.297 48.271 50.718 C48.286 55.899 48.321 61.079 48.368 66.26 C48.383 68.23 48.391 70.2 48.392 72.169 C48.412 95.524 48.412 95.524 54.411 102.685 C60.244 107.951 66.239 108.453 73.773 108.309 C79.909 107.722 83.994 105.308 88.312 101 C95.794 91.038 94.472 77.057 94.512 65.234 C94.529 63.346 94.547 61.457 94.566 59.569 C94.613 54.637 94.643 49.705 94.67 44.773 C94.705 38.835 94.762 32.897 94.815 26.959 C94.893 17.972 94.944 8.986 95 0 C110.84 0 126.68 0 143 0 C143 47.85 143 95.7 143 145 C127.16 145 111.32 145 95 145 C94.67 137.41 94.34 129.82 94 122 C93.557 122.763 93.557 122.763 91.312 126.625 C84.808 137.331 76.935 143.983 64.763 147.418 C59.892 148.444 55.087 148.488 50.125 148.438 C49.066 148.429 48.007 148.421 46.915 148.412 C39.349 148.249 32.799 147.546 26 144 C25.041 143.502 24.082 143.005 23.094 142.492 C12.466 136.35 5.82 126.903 2.134 115.267 C-0.735 103.546 -0.379 91.877 -0.293 79.883 C-0.287 77.571 -0.283 75.259 -0.28 72.948 C-0.269 66.908 -0.239 60.868 -0.206 54.828 C-0.17 47.558 -0.156 40.287 -0.139 33.016 C-0.11 22.011 -0.052 11.006 0 0 Z " fill="#888D93" transform="translate(573,103)"/>
<path d="M0 0 C0.686 0.188 1.371 0.376 2.078 0.57 C24.183 6.738 42.372 18.364 59 34 C59.59 34.526 60.181 35.052 60.789 35.594 C76.919 50.577 87.258 72.065 93 93 C93.17 93.587 93.17 93.587 94.027 96.559 C98.388 114.907 98.223 138.909 93 157 C92.812 157.686 92.624 158.371 92.43 159.078 C86.262 181.183 74.636 199.372 59 216 C58.474 216.59 57.948 217.181 57.406 217.789 C42.423 233.919 20.935 244.258 0 250 C-1.174 250.339 -2.349 250.678 -3.559 251.027 C-21.907 255.388 -45.909 255.223 -64 250 C-64.686 249.812 -65.371 249.624 -66.078 249.43 C-88.183 243.262 -106.372 231.636 -123 216 C-123.295 215.737 -123.295 215.737 -124.789 214.406 C-140.919 199.423 -151.258 177.935 -157 157 C-157.339 155.826 -157.678 154.651 -158.027 153.441 C-162.388 135.093 -162.223 111.091 -157 93 C-156.906 92.657 -156.906 92.657 -156.43 90.922 C-150.262 68.817 -138.636 50.628 -123 34 C-122.474 33.41 -121.948 32.819 -121.406 32.211 C-106.423 16.081 -84.935 5.742 -64 0 C-62.826 -0.339 -61.651 -0.678 -60.441 -1.027 C-42.093 -5.388 -18.091 -5.223 0 0 Z M-115.223 48.789 C-134.745 69.115 -145.138 98.036 -145 126 C-143.734 158.985 -130.256 187.05 -106.508 209.859 C-85.92 228.819 -56.354 238.973 -28.569 237.907 C4.282 235.91 32.179 221.964 54.463 197.767 C72.931 176.542 82.451 146.974 80.754 119.055 C78.22 86.599 63.59 58.396 39 37 C-8.456 -0.975 -73.498 6.99 -115.223 48.789 Z " fill="#888D93" transform="translate(178,27)"/>
<path d="M0 0 C15.84 0 31.68 0 48 0 C48 63.36 48 126.72 48 192 C32.16 192 16.32 192 0 192 C0 128.64 0 65.28 0 0 Z " fill="#888D93" transform="translate(514,56)"/>
<path d="M0 0 C8.499 6.8 14.745 14.229 16.812 25.25 C17.811 38.099 15.529 48.241 7.168 58.211 C0.731 65.264 -7.663 69.743 -17.254 70.488 C-30.242 70.764 -39.621 67.475 -49.25 58.688 C-57.446 50.318 -59.555 40.236 -59.473 28.934 C-58.634 18.102 -53.154 9.602 -45.543 2.148 C-32.063 -8.716 -14.584 -8.007 0 0 Z M-38.113 17.48 C-42.554 23.978 -44.132 29.391 -43.188 37.25 C-41.054 44.36 -37.576 48.395 -31.273 52.191 C-25.581 55.08 -19.6 55.274 -13.52 53.449 C-6.95 50.557 -3.414 46.608 -0.188 40.25 C1.897 33.997 1.53 28.031 -1.125 22 C-4.474 15.907 -9.671 12.422 -16.188 10.25 C-24.599 9.17 -32.398 10.861 -38.113 17.48 Z " fill="#888D93" transform="translate(167.1875,119.75)"/>
<path d="M0 0 C0.291 0.528 0.291 0.528 1.766 3.199 C2.594 4.695 3.422 6.191 4.25 7.688 C4.688 8.481 5.126 9.274 5.577 10.092 C8.122 14.683 10.713 19.24 13.371 23.766 C13.923 24.711 14.475 25.656 15.044 26.63 C16.13 28.485 17.224 30.335 18.327 32.18 C18.574 32.604 18.574 32.604 19.824 34.746 C20.269 35.496 20.713 36.245 21.171 37.017 C22 39 22 39 21 42 C19.371 43.387 19.371 43.387 17.438 44.688 C16.797 45.124 16.156 45.561 15.496 46.012 C15.002 46.338 14.509 46.664 14 47 C11.095 45.686 9.033 44.279 6.792 42.019 C6.192 41.419 5.591 40.818 4.973 40.199 C4.337 39.554 3.702 38.908 3.047 38.242 C2.387 37.579 1.726 36.916 1.046 36.233 C-1.057 34.118 -3.154 31.997 -5.25 29.875 C-6.677 28.438 -8.104 27.002 -9.531 25.566 C-13.026 22.049 -16.515 18.526 -20 15 C-18.111 10.731 -15.18 8.531 -11.5 5.812 C-10.906 5.362 -10.311 4.911 -9.699 4.447 C-3.792 0 -3.792 0 0 0 Z " fill="#888D93" transform="translate(96,68)"/>
</svg>
