<?xml version="1.0" encoding="UTF-8"?>
<!-- Generator: visioncortex VTracer 0.6.12 -->
<svg version="1.1" xmlns="http://www.w3.org/2000/svg" width="559" height="320">
<path d="M0 0 C83.701 0 83.701 0 100.688 3.75 C101.462 3.919 102.237 4.088 103.036 4.263 C119.805 8.12 134.297 15.032 146.879 27.02 C148.836 28.846 150.846 30.417 153 32 C156.464 35.134 158.555 37.545 160 42 C161 44 161 44 162.5 45.188 C164.727 47.878 164.594 50.577 165 54 C165.623 56.014 166.276 58.02 167 60 C167.66 60 168.32 60 169 60 C168.97 60.994 168.939 61.987 168.908 63.011 C169.002 67.091 169.655 70.853 170.477 74.828 C172.191 83.841 172.467 92.598 172.375 101.75 C172.372 102.527 172.369 103.305 172.366 104.106 C172.21 138.684 172.21 138.684 166 148 C165.011 151.275 164.114 154.565 163.25 157.875 C161.413 162.468 158.581 168.71 154 171 C153.711 171.639 153.423 172.279 153.125 172.938 C152 175 152 175 150.164 175.906 C147.705 177.149 146.206 178.626 144.25 180.562 C107.248 213.822 41.874 205 0 205 C0 137.35 0 69.7 0 0 Z M29 24 C29.66 24.66 30.32 25.32 31 26 C31.252 28.63 31.252 28.63 31.254 32.036 C31.26 33.323 31.265 34.61 31.271 35.936 C31.267 37.371 31.263 38.806 31.259 40.24 C31.261 41.745 31.265 43.249 31.269 44.753 C31.279 48.846 31.275 52.939 31.269 57.032 C31.264 61.309 31.268 65.585 31.271 69.862 C31.275 77.044 31.27 84.227 31.261 91.41 C31.25 99.722 31.253 108.035 31.264 116.348 C31.273 123.475 31.275 130.603 31.27 137.731 C31.266 141.992 31.266 146.253 31.273 150.515 C31.278 154.52 31.274 158.525 31.263 162.531 C31.26 164.004 31.261 165.477 31.265 166.95 C31.271 168.955 31.263 170.96 31.254 172.964 C31.253 174.088 31.252 175.212 31.252 176.37 C31 179 31 179 29 181 C34.992 181.05 40.983 181.086 46.975 181.11 C49.006 181.12 51.038 181.133 53.07 181.151 C64.899 181.25 76.321 181.099 88 179 C88.763 178.864 89.526 178.729 90.313 178.589 C104.024 175.867 118.47 169.518 127 158 C127.371 156.677 127.699 155.341 128 154 C129.091 151.704 130.207 149.444 131.375 147.188 C133.776 142.522 135.953 137.832 138 133 C138.336 132.393 138.672 131.787 139.018 131.162 C142.93 122.548 142.355 111.521 142.312 102.25 C142.31 101.035 142.307 99.82 142.304 98.569 C142.038 75.557 142.038 75.557 137 68 C134.87 64.804 133.153 61.489 131.438 58.062 C131.279 57.752 131.279 57.752 130.479 56.182 C128.951 53.137 127.817 50.293 127 47 C125.685 46.298 124.349 45.635 123 45 C121.964 43.694 120.969 42.356 120 41 C115.444 36.222 115.444 36.222 113 35 C112.267 34.581 111.533 34.162 110.777 33.73 C96.556 26.003 80.962 23.819 64.938 23.902 C64.422 23.903 64.422 23.903 61.811 23.907 C58.54 23.912 55.27 23.925 52 23.938 C49.772 23.943 47.544 23.947 45.316 23.951 C39.878 23.962 34.439 23.979 29 24 Z M29 26 C29 76.49 29 126.98 29 179 C29.33 179 29.66 179 30 179 C30 128.51 30 78.02 30 26 C29.67 26 29.34 26 29 26 Z M134 60 C135 62 135 62 135 62 Z M136 65 C137 67 137 67 137 67 Z M135 140 C136 142 136 142 136 142 Z " fill="#888D93" transform="translate(185,57)"/>
<path d="M0 0 C90 0 90 0 112 11 C112.33 11.134 112.33 11.134 114 11.812 C116 13 116 13 116.938 14.938 C118.365 17.708 120.358 18.442 123 20 C123.165 20.495 123.165 20.495 124 23 C124.495 23.433 124.99 23.866 125.5 24.312 C127.605 26.681 127.657 28.915 128 32 C128.66 32 129.32 32 130 32 C130.061 32.58 130.121 33.16 130.184 33.758 C130.267 34.539 130.351 35.32 130.438 36.125 C130.519 36.891 130.6 37.656 130.684 38.445 C130.903 40.215 131.177 41.978 131.496 43.733 C132.312 49.023 132.42 54.334 132.613 59.678 C132.688 61.693 132.778 63.707 132.869 65.721 C132.893 66.357 132.893 66.357 133.012 69.574 C133.058 70.735 133.104 71.896 133.151 73.093 C132.95 76.952 131.117 78.824 129 82 C128.663 83.302 128.374 84.616 128.125 85.938 C127.215 89.752 126.107 91.481 123 94 C122.764 94.218 122.764 94.218 121.57 95.324 C115.487 100.869 108.424 105.453 101 109 C101.58 109.447 102.16 109.895 102.758 110.355 C120.341 123.963 129.12 138.699 139.099 158.278 C140.49 161.007 141.893 163.731 143.3 166.453 C145.383 170.485 147.451 174.524 149.509 178.569 C150.332 180.182 151.16 181.791 151.992 183.399 C153.17 185.676 154.329 187.962 155.484 190.25 C155.84 190.928 156.196 191.607 156.562 192.306 C158.75 196.7 159.365 199.987 159 205 C154.782 205.025 150.565 205.043 146.347 205.055 C144.913 205.06 143.478 205.067 142.044 205.075 C139.981 205.088 137.918 205.093 135.855 205.098 C134.614 205.103 133.373 205.108 132.094 205.114 C129 205 129 205 126 204 C124.496 201.573 124.496 201.573 122.893 198.306 C122.598 197.713 122.304 197.119 122 196.507 C121.025 194.538 120.063 192.562 119.102 190.586 C118.424 189.214 117.745 187.842 117.065 186.47 C115.273 182.851 113.493 179.225 111.715 175.599 C108.879 169.814 106.032 164.035 103.175 158.26 C102.183 156.25 101.199 154.235 100.216 152.22 C95.219 142.056 95.219 142.056 92.115 137.862 C90.147 135.2 89.733 134.046 89 131 C87.434 129.184 87.434 129.184 85.438 127.438 C84.797 126.859 84.156 126.28 83.496 125.684 C76.889 121.227 70.77 120.57 63.031 120.707 C62.214 120.71 61.396 120.713 60.554 120.716 C57.536 120.732 54.518 120.774 51.5 120.812 C44.735 120.874 37.97 120.936 31 121 C31 148.39 31 175.78 31 204 C21.753 208.624 10.339 205 0 205 C0 137.35 0 69.7 0 0 Z M29 24 C29 24.33 29 24.66 29 25 C43.19 25 57.38 25 72 25 C72 24.67 72 24.34 72 24 C57.81 24 43.62 24 29 24 Z M29 26 C29 48.11 29 70.22 29 93 C29.33 93 29.66 93 30 93 C30 70.89 30 48.78 30 26 C29.67 26 29.34 26 29 26 Z M62.445 25.219 C61.645 25.238 60.845 25.258 60.021 25.278 C57.056 25.351 54.09 25.426 51.125 25.5 C47.804 25.582 47.804 25.582 31 26 C31 48.11 31 70.22 31 93 C38.342 93.268 45.685 93.536 53.25 93.812 C55.542 93.91 57.835 94.008 60.196 94.109 C82.196 94.855 82.196 94.855 90.794 87.456 C92 86 92 86 92 84 C92.598 83.257 93.196 82.515 93.812 81.75 C96 79 96 79 97.625 75.75 C99 73 99 73 101 72 C102.271 67.733 102.183 63.354 102.188 58.938 C102.2 58.23 102.212 57.523 102.225 56.795 C102.235 52.982 102.076 50.227 100 47 C99.586 46.268 99.172 45.536 98.746 44.781 C97.873 43.259 96.998 41.738 96.121 40.219 C95 38 95 38 94.57 35.91 C93.404 32.004 89.314 30.05 86 28 C78.327 24.156 70.819 25.007 62.445 25.219 Z M129 35 C130 37 130 37 130 37 Z M99 44 C100 46 100 46 100 46 Z M131 71 C132 75 132 75 132 75 Z M98 75 C99 77 99 77 99 77 Z M29 94 C29 94.33 29 94.66 29 95 C42.53 95 56.06 95 70 95 C70 94.67 70 94.34 70 94 C56.47 94 42.94 94 29 94 Z M29 119 C29 119.33 29 119.66 29 120 C41.87 120 54.74 120 68 120 C68 119.67 68 119.34 68 119 C55.13 119 42.26 119 29 119 Z " fill="#898E94" transform="translate(400,57)"/>
<path d="M0 0 C0.743 -0.007 1.487 -0.014 2.253 -0.021 C32.96 -0.247 32.96 -0.247 46.27 3.203 C47.195 3.439 48.121 3.675 49.075 3.918 C56.517 5.839 63.975 7.772 71.27 10.203 C71.27 19.113 71.27 28.023 71.27 37.203 C67.866 38.338 67.559 38.163 64.488 36.727 C63.738 36.388 62.987 36.049 62.214 35.699 C61.407 35.329 60.601 34.959 59.77 34.578 C52.964 31.578 46.226 29.116 39.02 27.266 C38.247 27.067 37.474 26.868 36.678 26.664 C18.642 22.225 -2.972 21.719 -19.668 30.809 C-23.679 33.52 -26.182 36.557 -27.73 41.203 C-28.39 41.203 -29.05 41.203 -29.73 41.203 C-30.06 44.833 -30.39 48.463 -30.73 52.203 C-31.39 52.203 -32.05 52.203 -32.73 52.203 C-32.807 56.719 -32.833 60.794 -31.73 65.203 C-31.07 65.203 -30.41 65.203 -29.73 65.203 C-29.462 66.296 -29.194 67.389 -28.918 68.516 C-27.378 73.297 -27.378 73.297 -24.73 75.203 C-23.74 75.533 -22.75 75.863 -21.73 76.203 C-21.73 76.863 -21.73 77.523 -21.73 78.203 C-10.155 83.296 1.693 85.643 14.033 88.104 C29.186 91.152 43.767 95.168 57.532 102.352 C59.27 103.203 59.27 103.203 62.27 104.203 C62.969 105.52 63.631 106.856 64.27 108.203 C65.891 110.09 65.891 110.09 67.707 111.891 C68.304 112.493 68.901 113.095 69.516 113.715 C71.27 115.203 71.27 115.203 74.27 116.203 C76.578 119.802 78.512 122.962 79.27 127.203 C79.6 128.193 79.93 129.183 80.27 130.203 C82.805 146.509 82.652 161.135 78.27 177.203 C77.933 178.536 77.599 179.869 77.27 181.203 C76.61 181.203 75.95 181.203 75.27 181.203 C75.208 181.605 75.208 181.605 74.895 183.641 C74.688 184.486 74.482 185.332 74.27 186.203 C73.61 186.533 72.95 186.863 72.27 187.203 C71.94 188.193 71.61 189.183 71.27 190.203 C69.955 190.905 68.617 191.566 67.27 192.203 C65.77 193.429 64.293 194.682 62.832 195.953 C49.774 206.491 31.968 211.264 15.363 211.441 C14.61 211.451 13.857 211.461 13.081 211.471 C-13.87 211.752 -35.979 207.51 -61.73 199.203 C-61.73 189.303 -61.73 179.403 -61.73 169.203 C-58.562 170.471 -55.531 171.732 -52.465 173.191 C-27.722 184.783 1.228 193.139 28.27 184.203 C35.253 181.438 41.295 178.742 45.27 172.203 C46.454 169.246 47.43 166.275 48.27 163.203 C48.93 163.203 49.59 163.203 50.27 163.203 C51.64 156.353 51.64 150.053 50.27 143.203 C49.61 143.203 48.95 143.203 48.27 143.203 C48.111 142.623 47.952 142.043 47.789 141.445 C45.838 134.914 43.663 130.349 37.805 126.645 C26.866 120.757 15.023 118.556 2.985 116.043 C-35.343 108.021 -35.343 108.021 -49.047 94.684 C-50.73 93.203 -50.73 93.203 -52.777 92.23 C-56.385 90.333 -58.055 86.807 -59.73 83.203 C-60.363 80.488 -60.544 78.006 -60.73 75.203 C-60.898 74.584 -61.065 73.965 -61.238 73.327 C-61.855 70.667 -61.86 68.207 -61.863 65.477 C-61.864 64.919 -61.864 64.919 -61.867 62.098 C-61.863 60.936 -61.859 59.775 -61.855 58.578 C-61.859 57.44 -61.863 56.302 -61.867 55.129 C-61.845 35.949 -61.845 35.949 -58.293 30.141 C-57.861 29.407 -57.429 28.674 -56.984 27.918 C-55.73 26.203 -55.73 26.203 -53.73 25.203 C-53.4 24.213 -53.07 23.223 -52.73 22.203 C-51.414 21.504 -50.077 20.843 -48.73 20.203 C-47.11 18.915 -45.528 17.578 -43.98 16.203 C-43.181 15.502 -42.382 14.801 -41.559 14.078 C-39.73 12.203 -39.73 12.203 -39.73 10.203 C-39.07 10.121 -38.41 10.038 -37.73 9.953 C-34.73 9.203 -34.73 9.203 -31.293 7.391 C-21.791 2.422 -10.654 0.067 0 0 Z M-59.73 36.203 C-58.73 38.203 -58.73 38.203 -58.73 38.203 Z M-31.73 44.203 C-30.73 46.203 -30.73 46.203 -30.73 46.203 Z " fill="#888D93" transform="translate(61.73046875,53.796875)"/>
<path d="M0 0 C0.33 0 0.66 0 1 0 C1 67.32 1 134.64 1 204 C0.67 204 0.34 204 0 204 C0 136.68 0 69.36 0 0 Z " fill="#7F7F7F" transform="translate(398,57)"/>
<path d="M0 0 C0.33 0 0.66 0 1 0 C1 66.99 1 133.98 1 203 C0.67 203 0.34 203 0 203 C0 136.01 0 69.02 0 0 Z " fill="#FFFFFF" transform="translate(183,58)"/>
<path d="M0 0 C24.42 0 48.84 0 74 0 C74 0.33 74 0.66 74 1 C49.58 1 25.16 1 0 1 C0 0.67 0 0.34 0 0 Z " fill="#A8A8A9" transform="translate(400,55)"/>
<path d="M0 0 C23.43 0 46.86 0 71 0 C71 0.33 71 0.66 71 1 C47.57 1 24.14 1 0 1 C0 0.67 0 0.34 0 0 Z " fill="#A6A6A8" transform="translate(186,55)"/>
<path d="M0 0 C21.78 0 43.56 0 66 0 C66 0.33 66 0.66 66 1 C44.22 1 22.44 1 0 1 C0 0.67 0 0.34 0 0 Z " fill="#F7F7F7" transform="translate(186,263)"/>
<path d="M0 0 C0.33 0 0.66 0 1 0 C1 11.88 1 23.76 1 36 C0.67 36 0.34 36 0 36 C0 24.12 0 12.24 0 0 Z " fill="#87878C" transform="translate(358,141)"/>
<path d="M0 0 C3.336 2.991 5.151 5.932 7 10 C6.01 10.99 5.02 11.98 4 13 C-1.059 5.945 -1.059 5.945 -0.812 2 C-0.544 1.34 -0.276 0.68 0 0 Z " fill="#7F8286" transform="translate(493,190)"/>
<path d="M0 0 C9.9 0 19.8 0 30 0 C30 0.33 30 0.66 30 1 C20.1 1 10.2 1 0 1 C0 0.67 0 0.34 0 0 Z " fill="#FFFFFF" transform="translate(529,263)"/>
<path d="M0 0 C9.24 0 18.48 0 28 0 C28 0.33 28 0.66 28 1 C18.76 1 9.52 1 0 1 C0 0.67 0 0.34 0 0 Z " fill="#F5F5F5" transform="translate(400,263)"/>
<path d="M0 0 C0.33 0 0.66 0 1 0 C1 8.91 1 17.82 1 27 C0.67 27 0.34 27 0 27 C0 18.09 0 9.18 0 0 Z " fill="#8B8B8F" transform="translate(325,146)"/>
<path d="M0 0 C0.33 0 0.66 0 1 0 C1 7.92 1 15.84 1 24 C0.67 24 0.34 24 0 24 C0 16.08 0 8.16 0 0 Z " fill="#808088" transform="translate(533,104)"/>
<path d="M0 0 C6.93 0 13.86 0 21 0 C21 0.33 21 0.66 21 1 C14.07 1 7.14 1 0 1 C0 0.67 0 0.34 0 0 Z " fill="#778787" transform="translate(55,240)"/>
<path d="M0 0 C0.825 0.165 0.825 0.165 5 1 C5.33 2.32 5.66 3.64 6 5 C5.01 5.66 4.02 6.32 3 7 C0 2.25 0 2.25 0 0 Z " fill="#808386" transform="translate(519,186)"/>
<path d="M0 0 C6.6 0 13.2 0 20 0 C20 0.33 20 0.66 20 1 C13.4 1 6.8 1 0 1 C0 0.67 0 0.34 0 0 Z " fill="#858589" transform="translate(64,78)"/>
<path d="M0 0 C0.66 0 1.32 0 2 0 C2.66 0.66 3.32 1.32 4 2 C4.66 2.33 5.32 2.66 6 3 C5.67 3.66 5.34 4.32 5 5 C4.01 5.33 3.02 5.66 2 6 C1.34 4.02 0.68 2.04 0 0 Z " fill="#83878C" transform="translate(342,99)"/>
<path d="M0 0 C0.33 0 0.66 0 1 0 C1 5.28 1 10.56 1 16 C0.67 16 0.34 16 0 16 C0 10.72 0 5.44 0 0 Z " fill="#97979F" transform="translate(500,108)"/>
<path d="M0 0 C4.62 0 9.24 0 14 0 C14 0.33 14 0.66 14 1 C9.38 1 4.76 1 0 1 C0 0.67 0 0.34 0 0 Z " fill="#7C8E8E" transform="translate(253,262)"/>
<path d="M0 0 C3.63 0 7.26 0 11 0 C11 0.33 11 0.66 11 1 C7.37 1 3.74 1 0 1 C0 0.67 0 0.34 0 0 Z " fill="#8A9292" transform="translate(258,56)"/>
<path d="M0 0 C0.33 0 0.66 0 1 0 C1 3.3 1 6.6 1 10 C0.67 10 0.34 10 0 10 C0 6.7 0 3.4 0 0 Z " fill="#CCCCCC" transform="translate(145,200)"/>
<path d="M0 0 C2.97 0 5.94 0 9 0 C9 0.33 9 0.66 9 1 C6.03 1 3.06 1 0 1 C0 0.67 0 0.34 0 0 Z " fill="#7F7F7F" transform="translate(258,235)"/>
<path d="M0 0 C2.97 0 5.94 0 9 0 C9 0.33 9 0.66 9 1 C6.03 1 3.06 1 0 1 C0 0.67 0 0.34 0 0 Z " fill="#929292" transform="translate(474,56)"/>
<path d="M0 0 C2.64 0 5.28 0 8 0 C8 0.33 8 0.66 8 1 C5.36 1 2.72 1 0 1 C0 0.67 0 0.34 0 0 Z " fill="#999999" transform="translate(267,261)"/>
<path d="M0 0 C0.33 0 0.66 0 1 0 C1 2.64 1 5.28 1 8 C0.67 8 0.34 8 0 8 C0 5.36 0 2.72 0 0 Z " fill="#9494A4" transform="translate(357,177)"/>
<path d="M0 0 C0.33 0 0.66 0 1 0 C1 2.64 1 5.28 1 8 C0.67 8 0.34 8 0 8 C0 5.36 0 2.72 0 0 Z " fill="#848484" transform="translate(324,173)"/>
<path d="M0 0 C0.33 0 0.66 0 1 0 C1 2.64 1 5.28 1 8 C0.67 8 0.34 8 0 8 C0 5.36 0 2.72 0 0 Z " fill="#949494" transform="translate(29,106)"/>
<path d="M0 0 C2.64 0 5.28 0 8 0 C8 0.33 8 0.66 8 1 C5.36 1 2.72 1 0 1 C0 0.67 0 0.34 0 0 Z " fill="#848484" transform="translate(261,83)"/>
<path d="M0 0 C2.31 0 4.62 0 7 0 C7 0.33 7 0.66 7 1 C4.69 1 2.38 1 0 1 C0 0.67 0 0.34 0 0 Z " fill="#8B8B8B" transform="translate(48,239)"/>
<path d="M0 0 C0.33 0 0.66 0 1 0 C1 2.31 1 4.62 1 7 C0.67 7 0.34 7 0 7 C0 4.69 0 2.38 0 0 Z " fill="#A9A9A9" transform="translate(144,211)"/>
<path d="M0 0 C0.33 0 0.66 0 1 0 C1 2.31 1 4.62 1 7 C0.67 7 0.34 7 0 7 C0 4.69 0 2.38 0 0 Z " fill="#A9A9A9" transform="translate(112,203)"/>
<path d="M0 0 C0.33 0 0.66 0 1 0 C1 2.31 1 4.62 1 7 C0.67 7 0.34 7 0 7 C0 4.69 0 2.38 0 0 Z " fill="#9D9D9D" transform="translate(144,192)"/>
<path d="M0 0 C0.66 0.33 0.66 0.33 4 2 C3.67 2.66 3.34 3.32 3 4 C2.01 2.68 1.02 1.36 0 0 Z " fill="#5B5B5B" transform="translate(127,162)"/>
<path d="M0 0 C0.33 0 0.66 0 1 0 C1 2.31 1 4.62 1 7 C0.67 7 0.34 7 0 7 C0 4.69 0 2.38 0 0 Z " fill="#8B8B8B" transform="translate(324,138)"/>
<path d="M0 0 C0.33 0 0.66 0 1 0 C1 2.31 1 4.62 1 7 C0.67 7 0.34 7 0 7 C0 4.69 0 2.38 0 0 Z " fill="#9D9D9D" transform="translate(357,134)"/>
<path d="M0 0 C2.31 0 4.62 0 7 0 C7 0.33 7 0.66 7 1 C4.69 1 2.38 1 0 1 C0 0.67 0 0.34 0 0 Z " fill="#7F8B8B" transform="translate(84,79)"/>
<path d="M0 0 C2.31 0 4.62 0 7 0 C7 0.33 7 0.66 7 1 C4.69 1 2.38 1 0 1 C0 0.67 0 0.34 0 0 Z " fill="#8B8B8B" transform="translate(269,57)"/>
<path d="M0 0 C1.98 0 3.96 0 6 0 C6 0.33 6 0.66 6 1 C4.02 1 2.04 1 0 1 C0 0.67 0 0.34 0 0 Z " fill="#5B5B66" transform="translate(35,264)"/>
<path d="M0 0 C1.98 0 3.96 0 6 0 C6 0.33 6 0.66 6 1 C4.02 1 2.04 1 0 1 C0 0.67 0 0.34 0 0 Z " fill="#717171" transform="translate(275,260)"/>
<path d="M0 0 C1.98 0 3.96 0 6 0 C6 0.33 6 0.66 6 1 C4.02 1 2.04 1 0 1 C0 0.67 0 0.34 0 0 Z " fill="#8D8D8D" transform="translate(76,239)"/>
<path d="M0 0 C0.33 0 0.66 0 1 0 C1 1.98 1 3.96 1 6 C0.67 6 0.34 6 0 6 C0 4.02 0 2.04 0 0 Z " fill="#636363" transform="translate(111,211)"/>
<path d="M0 0 C0.33 0 0.66 0 1 0 C1 1.98 1 3.96 1 6 C0.67 6 0.34 6 0 6 C0 4.02 0 2.04 0 0 Z " fill="#868686" transform="translate(111,197)"/>
<path d="M0 0 C1.98 0 3.96 0 6 0 C6 0.33 6 0.66 6 1 C4.02 1 2.04 1 0 1 C0 0.67 0 0.34 0 0 Z " fill="#8D8D8D" transform="translate(470,149)"/>
<path d="M0 0 C0.33 0 0.66 0 1 0 C1 1.98 1 3.96 1 6 C0.67 6 0.34 6 0 6 C0 4.02 0 2.04 0 0 Z " fill="#636363" transform="translate(356,128)"/>
<path d="M0 0 C1.98 0 3.96 0 6 0 C6 0.33 6 0.66 6 1 C4.02 1 2.04 1 0 1 C0 0.67 0 0.34 0 0 Z " fill="#8D8D8D" transform="translate(58,79)"/>
<path d="M0 0 C1.65 0 3.3 0 5 0 C5 0.33 5 0.66 5 1 C3.35 1 1.7 1 0 1 C0 0.67 0 0.34 0 0 Z " fill="#878787" transform="translate(91,264)"/>
<path d="M0 0 C1.65 0 3.3 0 5 0 C5 0.33 5 0.66 5 1 C3.35 1 1.7 1 0 1 C0 0.67 0 0.34 0 0 Z " fill="#656576" transform="translate(30,263)"/>
<path d="M0 0 C1.65 0 3.3 0 5 0 C5 0.33 5 0.66 5 1 C3.35 1 1.7 1 0 1 C0 0.67 0 0.34 0 0 Z " fill="#6E6E6E" transform="translate(281,259)"/>
<path d="M0 0 C1.65 0 3.3 0 5 0 C5 0.33 5 0.66 5 1 C3.35 1 1.7 1 0 1 C0 0.67 0 0.34 0 0 Z " fill="#767687" transform="translate(42,238)"/>
<path d="M0 0 C1.65 0 3.3 0 5 0 C5 0.33 5 0.66 5 1 C3.35 1 1.7 1 0 1 C0 0.67 0 0.34 0 0 Z " fill="#A9A9A9" transform="translate(268,234)"/>
<path d="M0 0 C1.65 0 3.3 0 5 0 C5 0.33 5 0.66 5 1 C3.35 1 1.7 1 0 1 C0 0.67 0 0.34 0 0 Z " fill="#6E6E6E" transform="translate(273,233)"/>
<path d="M0 0 C0.33 0 0.66 0 1 0 C1 1.65 1 3.3 1 5 C0.67 5 0.34 5 0 5 C0 3.35 0 1.7 0 0 Z " fill="#7F7F7F" transform="translate(355,190)"/>
<path d="M0 0 C0.33 0 0.66 0 1 0 C1 1.65 1 3.3 1 5 C0.67 5 0.34 5 0 5 C0 3.35 0 1.7 0 0 Z " fill="#4C4C65" transform="translate(143,187)"/>
<path d="M0 0 C0.33 0 0.66 0 1 0 C1 1.65 1 3.3 1 5 C0.67 5 0.34 5 0 5 C0 3.35 0 1.7 0 0 Z " fill="#909090" transform="translate(356,185)"/>
<path d="M0 0 C0.33 0 0.66 0 1 0 C1 1.65 1 3.3 1 5 C0.67 5 0.34 5 0 5 C0 3.35 0 1.7 0 0 Z " fill="#656576" transform="translate(323,181)"/>
<path d="M0 0 C1.65 0 3.3 0 5 0 C5 0.33 5 0.66 5 1 C3.35 1 1.7 1 0 1 C0 0.67 0 0.34 0 0 Z " fill="#6E6E6E" transform="translate(468,178)"/>
<path d="M0 0 C1.65 0 3.3 0 5 0 C5 0.33 5 0.66 5 1 C3.35 1 1.7 1 0 1 C0 0.67 0 0.34 0 0 Z " fill="#4C4C4C" transform="translate(75,173)"/>
<path d="M0 0 C1.65 0 3.3 0 5 0 C5 0.33 5 0.66 5 1 C3.35 1 1.7 1 0 1 C0 0.67 0 0.34 0 0 Z " fill="#6E6E6E" transform="translate(70,172)"/>
<path d="M0 0 C1.65 0 3.3 0 5 0 C5 0.33 5 0.66 5 1 C3.35 1 1.7 1 0 1 C0 0.67 0 0.34 0 0 Z " fill="#989898" transform="translate(65,171)"/>
<path d="M0 0 C1.65 0 3.3 0 5 0 C5 0.33 5 0.66 5 1 C3.35 1 1.7 1 0 1 C0 0.67 0 0.34 0 0 Z " fill="#989898" transform="translate(60,170)"/>
<path d="M0 0 C1.65 0 3.3 0 5 0 C5 0.33 5 0.66 5 1 C3.35 1 1.7 1 0 1 C0 0.67 0 0.34 0 0 Z " fill="#A9A9A9" transform="translate(55,169)"/>
<path d="M0 0 C0.99 0.33 1.98 0.66 3 1 C2.01 1.33 1.02 1.66 0 2 C0 1.34 0 0.68 0 0 Z " fill="#BABABA" transform="translate(502,165)"/>
<path d="M0 0 C1.65 0 3.3 0 5 0 C5 0.33 5 0.66 5 1 C3.35 1 1.7 1 0 1 C0 0.67 0 0.34 0 0 Z " fill="#767676" transform="translate(71,140)"/>
<path d="M0 0 C1.65 0 3.3 0 5 0 C5 0.33 5 0.66 5 1 C3.35 1 1.7 1 0 1 C0 0.67 0 0.34 0 0 Z " fill="#6E6E6E" transform="translate(66,139)"/>
<path d="M0 0 C1.65 0 3.3 0 5 0 C5 0.33 5 0.66 5 1 C3.35 1 1.7 1 0 1 C0 0.67 0 0.34 0 0 Z " fill="#6E6E6E" transform="translate(61,138)"/>
<path d="M0 0 C0.33 0 0.66 0 1 0 C1 1.65 1 3.3 1 5 C0.67 5 0.34 5 0 5 C0 3.35 0 1.7 0 0 Z " fill="#A9A9BA" transform="translate(323,132)"/>
<path d="M0 0 C0.33 0 0.66 0 1 0 C1 1.65 1 3.3 1 5 C0.67 5 0.34 5 0 5 C0 3.35 0 1.7 0 0 Z " fill="#656576" transform="translate(30,114)"/>
<path d="M0 0 C0.33 0 0.66 0 1 0 C1 1.65 1 3.3 1 5 C0.67 5 0.34 5 0 5 C0 3.35 0 1.7 0 0 Z " fill="#767676" transform="translate(532,98)"/>
<path d="M0 0 C1.65 0 3.3 0 5 0 C5 0.33 5 0.66 5 1 C3.35 1 1.7 1 0 1 C0 0.67 0 0.34 0 0 Z " fill="#767676" transform="translate(269,84)"/>
<path d="M0 0 C1.65 0 3.3 0 5 0 C5 0.33 5 0.66 5 1 C3.35 1 1.7 1 0 1 C0 0.67 0 0.34 0 0 Z " fill="#5D6E6E" transform="translate(472,83)"/>
<path d="M0 0 C1.65 0 3.3 0 5 0 C5 0.33 5 0.66 5 1 C3.35 1 1.7 1 0 1 C0 0.67 0 0.34 0 0 Z " fill="#7FB2B2" transform="translate(282,59)"/>
<path d="M0 0 C1.65 0 3.3 0 5 0 C5 0.33 5 0.66 5 1 C3.35 1 1.7 1 0 1 C0 0.67 0 0.34 0 0 Z " fill="#A1A1A1" transform="translate(277,58)"/>
<path d="M0 0 C1.65 0 3.3 0 5 0 C5 0.33 5 0.66 5 1 C3.35 1 1.7 1 0 1 C0 0.67 0 0.34 0 0 Z " fill="#989898" transform="translate(483,57)"/>
<path d="M0 0 C1.65 0 3.3 0 5 0 C5 0.33 5 0.66 5 1 C3.35 1 1.7 1 0 1 C0 0.67 0 0.34 0 0 Z " fill="#7F7F90" transform="translate(103,55)"/>
<path d="M0 0 C1.65 0 3.3 0 5 0 C5 0.33 5 0.66 5 1 C3.35 1 1.7 1 0 1 C0 0.67 0 0.34 0 0 Z " fill="#98A9A9" transform="translate(98,54)"/>
<path d="M0 0 C4 1 4 1 4 1 Z " fill="#A9A9A9" transform="translate(96,263)"/>
<path d="M0 0 C4 1 4 1 4 1 Z " fill="#6A6A6A" transform="translate(26,262)"/>
<path d="M0 0 C4 1 4 1 4 1 Z " fill="#6A6A6A" transform="translate(22,261)"/>
<path d="M0 0 C4 1 4 1 4 1 Z " fill="#74748A" transform="translate(15,259)"/>
<path d="M0 0 C4 1 4 1 4 1 Z " fill="#5F9F9F" transform="translate(286,258)"/>
<path d="M0 0 C4 1 4 1 4 1 Z " fill="#54546A" transform="translate(290,257)"/>
<path d="M0 0 C4 1 4 1 4 1 Z " fill="#A9A9A9" transform="translate(83,238)"/>
<path d="M0 0 C4 1 4 1 4 1 Z " fill="#A9A9A9" transform="translate(38,237)"/>
<path d="M0 0 C4 1 4 1 4 1 Z " fill="#C9C9C9" transform="translate(278,232)"/>
<path d="M0 0 C1 4 1 4 1 4 Z " fill="#7474B4" transform="translate(143,219)"/>
<path d="M0 0 C4 1 4 1 4 1 Z " fill="#5F5F5F" transform="translate(83,175)"/>
<path d="M0 0 C4 1 4 1 4 1 Z " fill="#898989" transform="translate(51,168)"/>
<path d="M0 0 C4 1 4 1 4 1 Z " fill="#748A8A" transform="translate(43,166)"/>
<path d="M0 0 C4 1 4 1 4 1 Z " fill="#4A8A9F" transform="translate(90,144)"/>
<path d="M0 0 C4 1 4 1 4 1 Z " fill="#5F9F9F" transform="translate(86,143)"/>
<path d="M0 0 C4 1 4 1 4 1 Z " fill="#B4B4B4" transform="translate(81,142)"/>
<path d="M0 0 C4 1 4 1 4 1 Z " fill="#B4B4B4" transform="translate(76,141)"/>
<path d="M0 0 C4 1 4 1 4 1 Z " fill="#6A6AA9" transform="translate(57,137)"/>
<path d="M0 0 C4 1 4 1 4 1 Z " fill="#5F5F5F" transform="translate(53,136)"/>
<path d="M0 0 C1 4 1 4 1 4 Z " fill="#94A9A9" transform="translate(322,128)"/>
<path d="M0 0 C1 4 1 4 1 4 Z " fill="#9F9FB4" transform="translate(499,125)"/>
<path d="M0 0 C1 4 1 4 1 4 Z " fill="#B4B4B4" transform="translate(355,124)"/>
<path d="M0 0 C1 4 1 4 1 4 Z " fill="#6A6A6A" transform="translate(354,120)"/>
<path d="M0 0 C4 1 4 1 4 1 Z " fill="#A9A9A9" transform="translate(275,85)"/>
<path d="M0 0 C4 1 4 1 4 1 Z " fill="#6A6A6A" transform="translate(97,81)"/>
<path d="M0 0 C4 1 4 1 4 1 Z " fill="#9FB4B4" transform="translate(92,80)"/>
<path d="M0 0 C4 1 4 1 4 1 Z " fill="#A9A9A9" transform="translate(53,80)"/>
<path d="M0 0 C4 1 4 1 4 1 Z " fill="#5F5F5F" transform="translate(291,61)"/>
<path d="M0 0 C4 1 4 1 4 1 Z " fill="#A9A9A9" transform="translate(287,60)"/>
<path d="M0 0 C4 1 4 1 4 1 Z " fill="#74748A" transform="translate(492,59)"/>
<path d="M0 0 C4 1 4 1 4 1 Z " fill="#5F5F5F" transform="translate(120,59)"/>
<path d="M0 0 C4 1 4 1 4 1 Z " fill="#898989" transform="translate(488,58)"/>
<path d="M0 0 C4 1 4 1 4 1 Z " fill="#A9A9A9" transform="translate(108,56)"/>
<path d="M0 0 C4 1 4 1 4 1 Z " fill="#545454" transform="translate(44,54)"/>
<path d="M0 0 C3 1 3 1 3 1 Z " fill="#7F7F7F" transform="translate(100,262)"/>
<path d="M0 0 C3 1 3 1 3 1 Z " fill="#D4D4D4" transform="translate(106,260)"/>
<path d="M0 0 C3 1 3 1 3 1 Z " fill="#8D8D8D" transform="translate(19,260)"/>
<path d="M0 0 C3 1 3 1 3 1 Z " fill="#C6C6C6" transform="translate(12,258)"/>
<path d="M0 0 C3 1 3 1 3 1 Z " fill="#C6C6C6" transform="translate(9,257)"/>
<path d="M0 0 C3 1 3 1 3 1 Z " fill="#C6C6C6" transform="translate(294,256)"/>
<path d="M0 0 C3 1 3 1 3 1 Z " fill="#AAC6C6" transform="translate(6,256)"/>
<path d="M0 0 C3 1 3 1 3 1 Z " fill="#C6C6C6" transform="translate(297,255)"/>
<path d="M0 0 C3 1 3 1 3 1 Z " fill="#C6C6C6" transform="translate(3,255)"/>
<path d="M0 0 C3 1 3 1 3 1 Z " fill="#717171" transform="translate(300,254)"/>
<path d="M0 0 C3 1 3 1 3 1 Z " fill="#636363" transform="translate(305,252)"/>
<path d="M0 0 C3 1 3 1 3 1 Z " fill="#C6C6C6" transform="translate(87,237)"/>
<path d="M0 0 C3 1 3 1 3 1 Z " fill="#B8B8B8" transform="translate(90,236)"/>
<path d="M0 0 C3 1 3 1 3 1 Z " fill="#B8B8B8" transform="translate(35,236)"/>
<path d="M0 0 C3 1 3 1 3 1 Z " fill="#7F7F7F" transform="translate(31,235)"/>
<path d="M0 0 C3 1 3 1 3 1 Z " fill="#A9A9A9" transform="translate(28,234)"/>
<path d="M0 0 C3 1 3 1 3 1 Z " fill="#7F7F7F" transform="translate(282,231)"/>
<path d="M0 0 C3 1 3 1 3 1 Z " fill="#E2E2E2" transform="translate(20,231)"/>
<path d="M0 0 C3 1 3 1 3 1 Z " fill="#A9A9A9" transform="translate(285,230)"/>
<path d="" fill="#7F7F7F" transform="translate(0,0)"/>
<path d="" fill="#7F7F7F" transform="translate(0,0)"/>
<path d="" fill="#545454" transform="translate(0,0)"/>
<path d="" fill="#636363" transform="translate(0,0)"/>
<path d="" fill="#8D8D8D" transform="translate(0,0)"/>
<path d="" fill="#B8B8B8" transform="translate(0,0)"/>
<path d="M0 0 C3 1 3 1 3 1 Z " fill="#E2E2E2" transform="translate(476,180)"/>
<path d="M0 0 C3 1 3 1 3 1 Z " fill="#C6C6C6" transform="translate(473,179)"/>
<path d="M0 0 C3 1 3 1 3 1 Z " fill="#636363" transform="translate(92,178)"/>
<path d="M0 0 C3 1 3 1 3 1 Z " fill="#7F7F7F" transform="translate(87,176)"/>
<path d="M0 0 C3 1 3 1 3 1 Z " fill="#8D8D8D" transform="translate(80,174)"/>
<path d="M0 0 C3 1 3 1 3 1 Z " fill="#8D8D8D" transform="translate(47,167)"/>
<path d="M0 0 C3 1 3 1 3 1 Z " fill="#C6C6C6" transform="translate(40,165)"/>
<path d="M0 0 C3 1 3 1 3 1 Z " fill="#71C6C6" transform="translate(37,164)"/>
<path d="M0 0 C3 1 3 1 3 1 Z " fill="#8D8D8D" transform="translate(108,150)"/>
<path d="M0 0 C3 1 3 1 3 1 Z " fill="#9B9B9B" transform="translate(477,148)"/>
<path d="M0 0 C3 1 3 1 3 1 Z " fill="#7F7F7F" transform="translate(103,148)"/>
<path d="M0 0 C3 1 3 1 3 1 Z " fill="#717171" transform="translate(480,147)"/>
<path d="M0 0 C3 1 3 1 3 1 Z " fill="#A954A9" transform="translate(97,146)"/>
<path d="M0 0 C3 1 3 1 3 1 Z " fill="#8D8D8D" transform="translate(94,145)"/>
<path d="" fill="#9B9B9B" transform="translate(0,0)"/>
<path d="M0 0 C3 1 3 1 3 1 Z " fill="#C6C6C6" transform="translate(50,135)"/>
<path d="M0 0 C3 1 3 1 3 1 Z " fill="#717171" transform="translate(47,134)"/>
<path d="M0 0 C3 1 3 1 3 1 Z " fill="#E2E2E2" transform="translate(44,133)"/>
<path d="" fill="#A9A9A9" transform="translate(0,0)"/>
<path d="" fill="#7F7F7F" transform="translate(0,0)"/>
<path d="" fill="#A9A9A9" transform="translate(0,0)"/>
<path d="" fill="#8D8D8D" transform="translate(0,0)"/>
<path d="" fill="#B8B8B8" transform="translate(0,0)"/>
<path d="M0 0 C3 1 3 1 3 1 Z " fill="#636363" transform="translate(123,90)"/>
<path d="M0 0 C3 1 3 1 3 1 Z " fill="#636363" transform="translate(288,89)"/>
<path d="M0 0 C3 1 3 1 3 1 Z " fill="#E2E2E2" transform="translate(116,87)"/>
<path d="M0 0 C3 1 3 1 3 1 Z " fill="#B8B8B8" transform="translate(279,86)"/>
<path d="M0 0 C3 1 3 1 3 1 Z " fill="#557171" transform="translate(113,86)"/>
<path d="M0 0 C3 1 3 1 3 1 Z " fill="#B8B8B8" transform="translate(481,85)"/>
<path d="M0 0 C3 1 3 1 3 1 Z " fill="#718D8D" transform="translate(478,84)"/>
<path d="M0 0 C3 1 3 1 3 1 Z " fill="#545454" transform="translate(108,84)"/>
<path d="M0 0 C3 1 3 1 3 1 Z " fill="#464646" transform="translate(104,83)"/>
<path d="M0 0 C3 1 3 1 3 1 Z " fill="#9B9B9B" transform="translate(101,82)"/>
<path d="M0 0 C3 1 3 1 3 1 Z " fill="#71718D" transform="translate(50,81)"/>
<path d="M0 0 C3 1 3 1 3 1 Z " fill="#8D8D8D" transform="translate(308,67)"/>
<path d="M0 0 C3 1 3 1 3 1 Z " fill="#557171" transform="translate(301,64)"/>
<path d="M0 0 C3 1 3 1 3 1 Z " fill="#C6C6C6" transform="translate(298,63)"/>
<path d="M0 0 C3 1 3 1 3 1 Z " fill="#C6C6C6" transform="translate(295,62)"/>
<path d="M0 0 C3 1 3 1 3 1 Z " fill="#C6C6C6" transform="translate(127,61)"/>
<path d="M0 0 C3 1 3 1 3 1 Z " fill="#466363" transform="translate(496,60)"/>
<path d="M0 0 C3 1 3 1 3 1 Z " fill="#B8B8B8" transform="translate(124,60)"/>
<path d="M0 0 C3 1 3 1 3 1 Z " fill="#B8B8B8" transform="translate(117,58)"/>
<path d="M0 0 C3 1 3 1 3 1 Z " fill="#7F7F7F" transform="translate(113,57)"/>
<path d="M0 0 C3 1 3 1 3 1 Z " fill="#D4D4D4" transform="translate(35,57)"/>
<path d="M0 0 C3 1 3 1 3 1 Z " fill="#54A9A9" transform="translate(38,56)"/>
<path d="M0 0 C3 1 3 1 3 1 Z " fill="#8D8D8D" transform="translate(41,55)"/>
<path d="M0 0 C2 1 2 1 2 1 Z " fill="#7F7F7F" transform="translate(104,261)"/>
<path d="M0 0 C2 1 2 1 2 1 Z " fill="#949494" transform="translate(109,259)"/>
<path d="M0 0 C2 1 2 1 2 1 Z " fill="#949494" transform="translate(111,258)"/>
<path d="M0 0 C2 1 2 1 2 1 Z " fill="#D4D4D4" transform="translate(113,257)"/>
<path d="M0 0 C2 1 2 1 2 1 Z " fill="#7F7F7F" transform="translate(115,256)"/>
<path d="M0 0 C2 1 2 1 2 1 Z " fill="#D4D4D4" transform="translate(117,255)"/>
<path d="M0 0 C2 1 2 1 2 1 Z " fill="#7F7FAA" transform="translate(1,254)"/>
<path d="M0 0 C2 1 2 1 2 1 Z " fill="#7F7F7F" transform="translate(303,253)"/>
<path d="M0 0 C2 1 2 1 2 1 Z " fill="#7F7F7F" transform="translate(120,253)"/>
<path d="M0 0 C2 1 2 1 2 1 Z " fill="#BFBFBF" transform="translate(308,251)"/>
<path d="M0 0 C2 1 2 1 2 1 Z " fill="#BFBFBF" transform="translate(310,250)"/>
<path d="M0 0 C2 1 2 1 2 1 Z " fill="#7F7F7F" transform="translate(124,250)"/>
<path d="M0 0 C2 1 2 1 2 1 Z " fill="#D4D4D4" transform="translate(312,249)"/>
<path d="M0 0 C2 1 2 1 2 1 Z " fill="#555555" transform="translate(314,248)"/>
<path d="M0 0 C2 1 2 1 2 1 Z " fill="#BFBFBF" transform="translate(317,246)"/>
<path d="M0 0 C2 1 2 1 2 1 Z " fill="#3F3F3F" transform="translate(319,245)"/>
<path d="M0 0 C2 1 2 1 2 1 Z " fill="#3F3F3F" transform="translate(322,243)"/>
<path d="M0 0 C2 1 2 1 2 1 Z " fill="#BFBFBF" transform="translate(327,239)"/>
<path d="" fill="#6A6A6A" transform="translate(0,0)"/>
<path d="M0 0 C2 1 2 1 2 1 Z " fill="#949494" transform="translate(93,235)"/>
<path d="M0 0 C2 1 2 1 2 1 Z " fill="#BFBFBF" transform="translate(95,234)"/>
<path d="M0 0 C2 1 2 1 2 1 Z " fill="#D4D4D4" transform="translate(97,233)"/>
<path d="M0 0 C2 1 2 1 2 1 Z " fill="#7F7F7F" transform="translate(26,233)"/>
<path d="M0 0 C2 1 2 1 2 1 Z " fill="#949494" transform="translate(23,232)"/>
<path d="M0 0 C2 1 2 1 2 1 Z " fill="#3F3F5F" transform="translate(100,231)"/>
<path d="" fill="#7F7F7F" transform="translate(0,0)"/>
<path d="M0 0 C2 1 2 1 2 1 Z " fill="#949494" transform="translate(18,230)"/>
<path d="M0 0 C2 1 2 1 2 1 Z " fill="#7F7F7F" transform="translate(288,229)"/>
<path d="M0 0 C2 1 2 1 2 1 Z " fill="#BFBFBF" transform="translate(16,229)"/>
<path d="M0 0 C2 1 2 1 2 1 Z " fill="#BFBFBF" transform="translate(290,228)"/>
<path d="M0 0 C2 1 2 1 2 1 Z " fill="#555555" transform="translate(14,228)"/>
<path d="M0 0 C2 1 2 1 2 1 Z " fill="#555555" transform="translate(292,227)"/>
<path d="M0 0 C2 1 2 1 2 1 Z " fill="#D4D4D4" transform="translate(11,227)"/>
<path d="M0 0 C2 1 2 1 2 1 Z " fill="#555555" transform="translate(294,226)"/>
<path d="M0 0 C2 1 2 1 2 1 Z " fill="#949494" transform="translate(9,226)"/>
<path d="M0 0 C2 1 2 1 2 1 Z " fill="#3F3F3F" transform="translate(296,225)"/>
<path d="M0 0 C2 1 2 1 2 1 Z " fill="#D4D4D4" transform="translate(7,225)"/>
<path d="M0 0 C2 1 2 1 2 1 Z " fill="#949494" transform="translate(298,224)"/>
<path d="M0 0 C2 1 2 1 2 1 Z " fill="#7F7F7F" transform="translate(301,222)"/>
<path d="M0 0 C2 1 2 1 2 1 Z " fill="#555555" transform="translate(2,222)"/>
<path d="M0 0 C2 1 2 1 2 1 Z " fill="#7F7F7F" transform="translate(0,221)"/>
<path d="" fill="#7F7F7F" transform="translate(0,0)"/>
<path d="" fill="#6A6A6A" transform="translate(0,0)"/>
<path d="M0 0 C2 1 2 1 2 1 Z " fill="#3F5FDF" transform="translate(482,183)"/>
<path d="M0 0 C2 1 2 1 2 1 Z " fill="#BFBFBF" transform="translate(100,182)"/>
<path d="M0 0 C2 1 2 1 2 1 Z " fill="#949494" transform="translate(479,181)"/>
<path d="" fill="#7F7F7F" transform="translate(0,0)"/>
<path d="M0 0 C2 1 2 1 2 1 Z " fill="#AAD4D4" transform="translate(97,180)"/>
<path d="M0 0 C2 1 2 1 2 1 Z " fill="#6A6A94" transform="translate(95,179)"/>
<path d="M0 0 C2 1 2 1 2 1 Z " fill="#7F7F7F" transform="translate(90,177)"/>
<path d="M0 0 C2 1 2 1 2 1 Z " fill="#BFBFBF" transform="translate(505,168)"/>
<path d="M0 0 C2 1 2 1 2 1 Z " fill="#BFBFBF" transform="translate(505,164)"/>
<path d="M0 0 C2 1 2 1 2 1 Z " fill="#55D4D4" transform="translate(507,163)"/>
<path d="M0 0 C2 1 2 1 2 1 Z " fill="#7F7F7F" transform="translate(35,163)"/>
<path d="M0 0 C2 1 2 1 2 1 Z " fill="#BFBFBF" transform="translate(32,162)"/>
<path d="M0 0 C2 1 2 1 2 1 Z " fill="#BFBFBF" transform="translate(510,161)"/>
<path d="M0 0 C2 1 2 1 2 1 Z " fill="#949494" transform="translate(30,161)"/>
<path d="M0 0 C2 1 2 1 2 1 Z " fill="#6A6A94" transform="translate(28,160)"/>
<path d="M0 0 C2 1 2 1 2 1 Z " fill="#BFBFBF" transform="translate(513,159)"/>
<path d="M0 0 C2 1 2 1 2 1 Z " fill="#7F7F7F" transform="translate(26,159)"/>
<path d="M0 0 C2 1 2 1 2 1 Z " fill="#949494" transform="translate(24,158)"/>
<path d="M0 0 C2 1 2 1 2 1 Z " fill="#D4D4D4" transform="translate(22,157)"/>
<path d="M0 0 C2 1 2 1 2 1 Z " fill="#3F3F3F" transform="translate(118,155)"/>
<path d="M0 0 C2 1 2 1 2 1 Z " fill="#BFBFBF" transform="translate(19,155)"/>
<path d="M0 0 C2 1 2 1 2 1 Z " fill="#BFBFBF" transform="translate(116,154)"/>
<path d="M0 0 C2 1 2 1 2 1 Z " fill="#555555" transform="translate(113,152)"/>
<path d="M0 0 C2 1 2 1 2 1 Z " fill="#FFFFFF" transform="translate(15,152)"/>
<path d="M0 0 C2 1 2 1 2 1 Z " fill="#555555" transform="translate(111,151)"/>
<path d="M0 0 C2 1 2 1 2 1 Z " fill="#7F7F7F" transform="translate(106,149)"/>
<path d="M0 0 C2 1 2 1 2 1 Z " fill="#7F7F7F" transform="translate(101,147)"/>
<path d="M0 0 C2 1 2 1 2 1 Z " fill="#BFBFBF" transform="translate(483,146)"/>
<path d="M0 0 C2 1 2 1 2 1 Z " fill="#3F3F3F" transform="translate(485,145)"/>
<path d="M0 0 C2 1 2 1 2 1 Z " fill="#BFBFBF" transform="translate(487,144)"/>
<path d="" fill="#AAAAAA" transform="translate(0,0)"/>
<path d="" fill="#7F7F7F" transform="translate(0,0)"/>
<path d="" fill="#AAAAAA" transform="translate(0,0)"/>
<path d="M0 0 C2 1 2 1 2 1 Z " fill="#949494" transform="translate(42,132)"/>
<path d="M0 0 C2 1 2 1 2 1 Z " fill="#949494" transform="translate(40,131)"/>
<path d="" fill="#6A6A6A" transform="translate(0,0)"/>
<path d="" fill="#949494" transform="translate(0,0)"/>
<path d="" fill="#555555" transform="translate(0,0)"/>
<path d="" fill="#7F7F7F" transform="translate(0,0)"/>
<path d="M0 0 C2 1 2 1 2 1 Z " fill="#7F7F7F" transform="translate(300,95)"/>
<path d="M0 0 C2 1 2 1 2 1 Z " fill="#949494" transform="translate(295,92)"/>
<path d="M0 0 C2 1 2 1 2 1 Z " fill="#949494" transform="translate(128,92)"/>
<path d="M0 0 C2 1 2 1 2 1 Z " fill="#949494" transform="translate(293,91)"/>
<path d="M0 0 C2 1 2 1 2 1 Z " fill="#949494" transform="translate(126,91)"/>
<path d="M0 0 C2 1 2 1 2 1 Z " fill="#949494" transform="translate(291,90)"/>
<path d="M0 0 C2 1 2 1 2 1 Z " fill="#BFBFBF" transform="translate(489,89)"/>
<path d="M0 0 C2 1 2 1 2 1 Z " fill="#BFBFBF" transform="translate(121,89)"/>
<path d="" fill="#949494" transform="translate(0,0)"/>
<path d="M0 0 C2 1 2 1 2 1 Z " fill="#7F7F7F" transform="translate(286,88)"/>
<path d="M0 0 C2 1 2 1 2 1 Z " fill="#949494" transform="translate(119,88)"/>
<path d="M0 0 C2 1 2 1 2 1 Z " fill="#6A6A94" transform="translate(486,87)"/>
<path d="M0 0 C2 1 2 1 2 1 Z " fill="#7F7F7F" transform="translate(283,87)"/>
<path d="M0 0 C2 1 2 1 2 1 Z " fill="#949494" transform="translate(484,86)"/>
<path d="M0 0 C2 1 2 1 2 1 Z " fill="#3F3FBF" transform="translate(40,86)"/>
<path d="M0 0 C2 1 2 1 2 1 Z " fill="#7F7F7F" transform="translate(111,85)"/>
<path d="M0 0 C2 1 2 1 2 1 Z " fill="#7F7F7F" transform="translate(43,84)"/>
<path d="M0 0 C2 1 2 1 2 1 Z " fill="#6A9494" transform="translate(45,83)"/>
<path d="M0 0 C2 1 2 1 2 1 Z " fill="#BFBFBF" transform="translate(48,82)"/>
<path d="M0 0 C2 1 2 1 2 1 Z " fill="#BFBFBF" transform="translate(325,77)"/>
<path d="M0 0 C2 1 2 1 2 1 Z " fill="#D4D4D4" transform="translate(321,74)"/>
<path d="M0 0 C2 1 2 1 2 1 Z " fill="#5555D4" transform="translate(318,72)"/>
<path d="M0 0 C2 1 2 1 2 1 Z " fill="#7F7F7F" transform="translate(316,71)"/>
<path d="M0 0 C2 1 2 1 2 1 Z " fill="#555555" transform="translate(311,68)"/>
<path d="M0 0 C2 1 2 1 2 1 Z " fill="#7F7FAA" transform="translate(306,66)"/>
<path d="M0 0 C2 1 2 1 2 1 Z " fill="#AAAAAA" transform="translate(19,66)"/>
<path d="M0 0 C2 1 2 1 2 1 Z " fill="#7F7F7F" transform="translate(507,65)"/>
<path d="M0 0 C2 1 2 1 2 1 Z " fill="#7F7F7F" transform="translate(304,65)"/>
<path d="M0 0 C2 1 2 1 2 1 Z " fill="#AAD4D4" transform="translate(505,64)"/>
<path d="M0 0 C2 1 2 1 2 1 Z " fill="#D4D4D4" transform="translate(503,63)"/>
<path d="M0 0 C2 1 2 1 2 1 Z " fill="#5555AA" transform="translate(501,62)"/>
<path d="M0 0 C2 1 2 1 2 1 Z " fill="#7F7F7F" transform="translate(25,62)"/>
<path d="M0 0 C2 1 2 1 2 1 Z " fill="#7F7F7F" transform="translate(499,61)"/>
<path d="M0 0 C2 1 2 1 2 1 Z " fill="#2A5555" transform="translate(27,61)"/>
<path d="M0 0 C2 1 2 1 2 1 Z " fill="#D4D4D4" transform="translate(31,59)"/>
<path d="M0 0 C2 1 2 1 2 1 Z " fill="#7F7F7F" transform="translate(33,58)"/>
<path d="" fill="#000000" transform="translate(0,0)"/>
<path d="" fill="#AAAAAA" transform="translate(0,0)"/>
<path d="" fill="#AAAAAA" transform="translate(0,0)"/>
<path d="" fill="#7F7F7F" transform="translate(0,0)"/>
<path d="" fill="#7F7F7F" transform="translate(0,0)"/>
<path d="" fill="#5555AA" transform="translate(0,0)"/>
<path d="" fill="#AAAAAA" transform="translate(0,0)"/>
<path d="" fill="#AAAAAA" transform="translate(0,0)"/>
<path d="" fill="#AAAAAA" transform="translate(0,0)"/>
<path d="" fill="#AAAAAA" transform="translate(0,0)"/>
<path d="" fill="#5555AA" transform="translate(0,0)"/>
<path d="" fill="#555555" transform="translate(0,0)"/>
<path d="" fill="#7F7F7F" transform="translate(0,0)"/>
<path d="" fill="#AAAAAA" transform="translate(0,0)"/>
<path d="" fill="#7F7F7F" transform="translate(0,0)"/>
<path d="" fill="#AAAAAA" transform="translate(0,0)"/>
<path d="" fill="#7F7F7F" transform="translate(0,0)"/>
<path d="" fill="#AAAAAA" transform="translate(0,0)"/>
<path d="" fill="#AAAAAA" transform="translate(0,0)"/>
<path d="" fill="#7F7F7F" transform="translate(0,0)"/>
<path d="" fill="#7F7F7F" transform="translate(0,0)"/>
<path d="" fill="#AAAAAA" transform="translate(0,0)"/>
<path d="" fill="#AAAAAA" transform="translate(0,0)"/>
<path d="" fill="#AAAAAA" transform="translate(0,0)"/>
<path d="" fill="#7F7FBF" transform="translate(0,0)"/>
<path d="" fill="#7F7F7F" transform="translate(0,0)"/>
<path d="" fill="#AAAAAA" transform="translate(0,0)"/>
<path d="" fill="#7F7F7F" transform="translate(0,0)"/>
<path d="" fill="#7F7F7F" transform="translate(0,0)"/>
<path d="" fill="#666699" transform="translate(0,0)"/>
<path d="" fill="#AAAAAA" transform="translate(0,0)"/>
<path d="" fill="#7F7F7F" transform="translate(0,0)"/>
<path d="" fill="#AAAAAA" transform="translate(0,0)"/>
<path d="" fill="#7F7FBF" transform="translate(0,0)"/>
<path d="" fill="#7F7F7F" transform="translate(0,0)"/>
<path d="" fill="#AAAAAA" transform="translate(0,0)"/>
<path d="" fill="#5555AA" transform="translate(0,0)"/>
<path d="" fill="#555555" transform="translate(0,0)"/>
<path d="" fill="#AAAAAA" transform="translate(0,0)"/>
<path d="" fill="#7F7F7F" transform="translate(0,0)"/>
<path d="" fill="#7F7F7F" transform="translate(0,0)"/>
<path d="" fill="#7F7F7F" transform="translate(0,0)"/>
<path d="" fill="#7F7F7F" transform="translate(0,0)"/>
<path d="" fill="#AAAAAA" transform="translate(0,0)"/>
<path d="" fill="#7F7F7F" transform="translate(0,0)"/>
<path d="" fill="#AAAAAA" transform="translate(0,0)"/>
<path d="" fill="#AAAAAA" transform="translate(0,0)"/>
<path d="" fill="#AAAAAA" transform="translate(0,0)"/>
<path d="" fill="#55AAAA" transform="translate(0,0)"/>
<path d="" fill="#7F7F7F" transform="translate(0,0)"/>
<path d="" fill="#AAAAAA" transform="translate(0,0)"/>
<path d="" fill="#7F7F7F" transform="translate(0,0)"/>
<path d="" fill="#AAAAAA" transform="translate(0,0)"/>
<path d="" fill="#7F7F7F" transform="translate(0,0)"/>
<path d="" fill="#7F7F7F" transform="translate(0,0)"/>
<path d="" fill="#7F7F7F" transform="translate(0,0)"/>
<path d="" fill="#7F7F7F" transform="translate(0,0)"/>
<path d="" fill="#7F7F7F" transform="translate(0,0)"/>
<path d="" fill="#7F7F7F" transform="translate(0,0)"/>
<path d="" fill="#7F7F7F" transform="translate(0,0)"/>
<path d="" fill="#7F7F7F" transform="translate(0,0)"/>
<path d="" fill="#7F7F7F" transform="translate(0,0)"/>
<path d="" fill="#555555" transform="translate(0,0)"/>
<path d="" fill="#AAAAAA" transform="translate(0,0)"/>
<path d="" fill="#7F7F7F" transform="translate(0,0)"/>
<path d="" fill="#7F7F7F" transform="translate(0,0)"/>
<path d="" fill="#7F7F7F" transform="translate(0,0)"/>
<path d="" fill="#AAAAAA" transform="translate(0,0)"/>
<path d="" fill="#7F7F7F" transform="translate(0,0)"/>
<path d="" fill="#7F7F7F" transform="translate(0,0)"/>
<path d="" fill="#7F7F7F" transform="translate(0,0)"/>
<path d="" fill="#AAAAAA" transform="translate(0,0)"/>
<path d="" fill="#555555" transform="translate(0,0)"/>
<path d="" fill="#7F7F7F" transform="translate(0,0)"/>
<path d="" fill="#7F7FBF" transform="translate(0,0)"/>
<path d="" fill="#55AAAA" transform="translate(0,0)"/>
<path d="" fill="#AAAAAA" transform="translate(0,0)"/>
<path d="" fill="#7F7F7F" transform="translate(0,0)"/>
<path d="" fill="#7F7F7F" transform="translate(0,0)"/>
<path d="" fill="#AAAAAA" transform="translate(0,0)"/>
<path d="" fill="#7F7F7F" transform="translate(0,0)"/>
<path d="" fill="#AAAAAA" transform="translate(0,0)"/>
<path d="" fill="#AAAAAA" transform="translate(0,0)"/>
<path d="" fill="#7F7F7F" transform="translate(0,0)"/>
<path d="" fill="#AAAAAA" transform="translate(0,0)"/>
<path d="" fill="#555555" transform="translate(0,0)"/>
<path d="" fill="#AAAAAA" transform="translate(0,0)"/>
<path d="" fill="#7F7F7F" transform="translate(0,0)"/>
<path d="" fill="#7F7F7F" transform="translate(0,0)"/>
<path d="" fill="#AAAAAA" transform="translate(0,0)"/>
<path d="" fill="#AAAAAA" transform="translate(0,0)"/>
<path d="" fill="#7F7F7F" transform="translate(0,0)"/>
<path d="" fill="#7F7F7F" transform="translate(0,0)"/>
<path d="" fill="#7F7F7F" transform="translate(0,0)"/>
<path d="" fill="#7F7F7F" transform="translate(0,0)"/>
<path d="" fill="#7F7F7F" transform="translate(0,0)"/>
<path d="" fill="#7F7FBF" transform="translate(0,0)"/>
<path d="" fill="#7F7F7F" transform="translate(0,0)"/>
<path d="" fill="#00FFFF" transform="translate(0,0)"/>
<path d="" fill="#999999" transform="translate(0,0)"/>
<path d="" fill="#669999" transform="translate(0,0)"/>
<path d="" fill="#AAAAAA" transform="translate(0,0)"/>
<path d="" fill="#999999" transform="translate(0,0)"/>
<path d="" fill="#555555" transform="translate(0,0)"/>
<path d="" fill="#7F7F7F" transform="translate(0,0)"/>
<path d="" fill="#AAAAAA" transform="translate(0,0)"/>
<path d="" fill="#7F7F7F" transform="translate(0,0)"/>
<path d="" fill="#55AAAA" transform="translate(0,0)"/>
<path d="" fill="#7F7F7F" transform="translate(0,0)"/>
<path d="" fill="#7F7F7F" transform="translate(0,0)"/>
<path d="" fill="#666666" transform="translate(0,0)"/>
<path d="" fill="#7F7F7F" transform="translate(0,0)"/>
<path d="" fill="#AAAAAA" transform="translate(0,0)"/>
<path d="" fill="#7F7F7F" transform="translate(0,0)"/>
<path d="" fill="#7F7F7F" transform="translate(0,0)"/>
<path d="" fill="#7F7F7F" transform="translate(0,0)"/>
<path d="" fill="#7F7FBF" transform="translate(0,0)"/>
<path d="" fill="#7F7F7F" transform="translate(0,0)"/>
<path d="" fill="#AAAAAA" transform="translate(0,0)"/>
<path d="" fill="#7F7F7F" transform="translate(0,0)"/>
<path d="" fill="#AAAAAA" transform="translate(0,0)"/>
<path d="" fill="#555555" transform="translate(0,0)"/>
<path d="" fill="#7F7F7F" transform="translate(0,0)"/>
<path d="" fill="#55AAAA" transform="translate(0,0)"/>
<path d="" fill="#AAAAAA" transform="translate(0,0)"/>
<path d="" fill="#AAAAAA" transform="translate(0,0)"/>
<path d="" fill="#7F7F7F" transform="translate(0,0)"/>
<path d="" fill="#AAAAAA" transform="translate(0,0)"/>
<path d="" fill="#AAAAAA" transform="translate(0,0)"/>
<path d="" fill="#7F7F7F" transform="translate(0,0)"/>
<path d="" fill="#AAAAAA" transform="translate(0,0)"/>
<path d="" fill="#7F7F7F" transform="translate(0,0)"/>
<path d="" fill="#7F7FFF" transform="translate(0,0)"/>
<path d="" fill="#7F7F7F" transform="translate(0,0)"/>
<path d="" fill="#AAAAAA" transform="translate(0,0)"/>
<path d="" fill="#7F7F7F" transform="translate(0,0)"/>
<path d="" fill="#AAAAAA" transform="translate(0,0)"/>
<path d="" fill="#7F7F7F" transform="translate(0,0)"/>
<path d="" fill="#7F7F7F" transform="translate(0,0)"/>
<path d="" fill="#AAAAAA" transform="translate(0,0)"/>
<path d="" fill="#7F7F7F" transform="translate(0,0)"/>
<path d="" fill="#AAAAAA" transform="translate(0,0)"/>
<path d="" fill="#7F7F7F" transform="translate(0,0)"/>
<path d="" fill="#7F7F7F" transform="translate(0,0)"/>
<path d="" fill="#7F7F7F" transform="translate(0,0)"/>
<path d="" fill="#AAAAAA" transform="translate(0,0)"/>
</svg>
