<?xml version="1.0" encoding="UTF-8"?>
<!-- Generator: visioncortex VTracer 0.6.12 -->
<svg version="1.1" xmlns="http://www.w3.org/2000/svg" width="322" height="80">
<path d="M0 0 C0 16.5 0 33 0 50 C-20.395 50 -20.395 50 -24.457 46.766 C-31.237 39.007 -33.441 31.805 -33.336 21.648 C-32.638 14.066 -29.399 8.964 -23.812 3.938 C-15.645 -2.7 -14.786 0 0 0 Z " fill="#888D93" transform="translate(91,9)"/>
<path d="M0 0 C19.173 0 19.173 0 23.426 3.383 C29.509 9.632 32.922 15.398 33.312 24.312 C33.055 32.737 30.627 39.039 25.012 45.309 C16.747 52.257 11.887 50 0 50 C0 33.5 0 17 0 0 Z " fill="#888D93" transform="translate(16,9)"/>
<path d="M0 0 C3.96 -0.082 7.92 -0.165 12 -0.25 C12.616 -0.268 12.616 -0.268 15.734 -0.36 C23.126 -0.435 28.904 0.276 34.515 5.377 C40.227 11.667 40.4 18.494 40.238 26.59 C39.763 33.386 38.188 37.199 33.188 41.875 C23.617 50.09 12.563 47 0 47 C0 31.49 0 15.98 0 0 Z M11 9 C11 18.57 11 28.14 11 38 C20.724 38 20.724 38 26 35 C29.252 31.206 29.982 26.901 30 22 C29.607 17.369 28.516 14.635 25.562 11 C22 9 22 9 11 9 Z " fill="#888D93" transform="translate(126,11)"/>
<path d="M0 0 C2.309 1.523 2.309 1.523 4 3 C4.33 2.01 4.66 1.02 5 0 C8.3 0 11.6 0 15 0 C15.074 5.747 15.129 11.495 15.165 17.242 C15.18 19.197 15.2 21.151 15.226 23.106 C15.263 25.918 15.28 28.73 15.293 31.543 C15.308 32.414 15.324 33.285 15.34 34.182 C15.341 38.937 15.156 42.175 12 46 C5.64 49.789 -0.854 51.268 -8.156 49.469 C-12.238 48.067 -15.392 46.586 -18 43 C-18 41.68 -18 40.36 -18 39 C-16.399 38.751 -14.794 38.526 -13.188 38.312 C-12.294 38.185 -11.401 38.057 -10.48 37.926 C-8 38 -8 38 -6.363 39.461 C-6.138 39.715 -6.138 39.715 -5 41 C-0.922 41.425 0.531 41.313 4 39 C4.188 35.375 4.188 35.375 4 32 C3.441 32.486 2.881 32.972 2.305 33.473 C-1.568 36.039 -5.514 35.638 -10 35 C-14.535 32.774 -16.831 30.518 -19 26 C-19.316 23.271 -19.477 20.845 -19.438 18.125 C-19.431 17.412 -19.424 16.699 -19.417 15.964 C-19.246 10.414 -18.608 7.193 -15 3 C-10.826 -0.806 -5.392 -0.894 0 0 Z M-7 10 C-9.49 13.913 -9.027 17.491 -8.582 21.914 C-7.882 24.422 -7.058 25.429 -5 27 C0.151 27.644 0.151 27.644 2.812 25.625 C5.485 21.968 5.462 18.388 5 14 C3.812 11.062 3.812 11.062 2 9 C-1.589 7.62 -3.907 7.653 -7 10 Z " fill="#888D93" transform="translate(203,22)"/>
<path d="M0 0 C2.542 1.825 3.851 3.066 5.438 5.75 C5.778 8.866 5.778 8.866 5.73 12.484 C5.726 13.132 5.726 13.132 5.701 16.41 C5.676 17.773 5.651 19.137 5.625 20.5 C5.61 21.879 5.596 23.258 5.584 24.637 C5.549 28.008 5.499 31.379 5.438 34.75 C2.137 34.75 -1.163 34.75 -4.562 34.75 C-4.892 34.09 -5.223 33.43 -5.562 32.75 C-6.553 33.266 -7.543 33.781 -8.562 34.312 C-12.763 36.089 -16.232 36.212 -20.562 34.75 C-24.195 32.2 -25.79 30.054 -26.562 25.75 C-26.562 21.487 -26.301 19.945 -23.562 16.75 C-19.564 13.858 -16.112 13.153 -11.25 12.562 C-9.996 12.404 -8.741 12.245 -7.449 12.082 C-6.497 11.972 -5.544 11.863 -4.562 11.75 C-5.223 10.43 -5.882 9.11 -6.562 7.75 C-9.202 7.75 -11.842 7.75 -14.562 7.75 C-14.892 8.74 -15.223 9.73 -15.562 10.75 C-18.533 10.42 -21.502 10.09 -24.562 9.75 C-24.148 4.916 -22.185 2.855 -18.562 -0.25 C-12.618 -2.232 -5.883 -2.064 0 0 Z M-10 19.5 C-10.803 19.639 -11.606 19.778 -12.434 19.922 C-14.562 20.75 -14.562 20.75 -15.848 22.828 C-16.084 23.462 -16.319 24.097 -16.562 24.75 C-16.233 25.245 -16.233 25.245 -14.562 27.75 C-10.918 28.305 -9.22 28.217 -6.188 26.062 C-4.29 23.362 -4.204 21.979 -4.562 18.75 C-6.408 18.75 -8.19 19.164 -10 19.5 Z " fill="#888D93" transform="translate(284.5625,23.25)"/>
<path d="M0 0 C3.3 0 6.6 0 10 0 C10 2.64 10 5.28 10 8 C12.31 8 14.62 8 17 8 C17 10.64 17 13.28 17 16 C14.69 16 12.38 16 10 16 C10.14 18.792 10.287 21.583 10.438 24.375 C10.477 25.169 10.516 25.963 10.557 26.781 C10.887 32.773 10.887 32.773 12 35 C13.644 35.722 15.311 36.394 17 37 C17.33 39.31 17.66 41.62 18 44 C7.067 44.628 7.067 44.628 2.812 42.125 C0.061 38.899 -0.122 37.154 -0.098 32.992 C-0.094 32.006 -0.091 31.02 -0.088 30.004 C-0.08 28.971 -0.071 27.939 -0.062 26.875 C-0.058 25.835 -0.053 24.794 -0.049 23.723 C-0.037 21.148 -0.021 18.574 0 16 C-1.65 16 -3.3 16 -5 16 C-5 13.36 -5 10.72 -5 8 C-3.35 8 -1.7 8 0 8 C0 5.36 0 2.72 0 0 Z " fill="#888D93" transform="translate(240,14)"/>
<path d="M0 0 C3.63 0 7.26 0 11 0 C11 15.51 11 31.02 11 47 C7.37 47 3.74 47 0 47 C0 31.49 0 15.98 0 0 Z " fill="#888D93" transform="translate(294,11)"/>
<path d="M0 0 C3.3 0 6.6 0 10 0 C10 11.88 10 23.76 10 36 C6.7 36 3.4 36 0 36 C0 24.12 0 12.24 0 0 Z " fill="#888D93" transform="translate(223,22)"/>
<path d="M0 0 C3.3 0 6.6 0 10 0 C10 11.88 10 23.76 10 36 C6.7 36 3.4 36 0 36 C0 24.12 0 12.24 0 0 Z " fill="#888D93" transform="translate(170,22)"/>
<path d="M0 0 C3 0.5 3 0.5 4.938 2.188 C6.26 5.065 5.91 6.522 5 9.5 C-0.303 11.669 -0.303 11.669 -3.312 10.938 C-5 9.5 -5 9.5 -5.938 7.125 C-6 4.5 -6 4.5 -4.938 2.188 C-3 0.5 -3 0.5 0 0 Z " fill="#888D93" transform="translate(228,7.5)"/>
<path d="M0 0 C3.062 0.312 3.062 0.312 5 1.438 C6.588 4.239 5.803 6.282 5.062 9.312 C2.312 10.5 2.312 10.5 -0.938 11.312 C-3.312 10.312 -3.312 10.312 -4.938 8.312 C-5.312 5.25 -5.312 5.25 -4.938 2.312 C-2.938 0.312 -2.938 0.312 0 0 Z " fill="#888D93" transform="translate(174.9375,7.6875)"/>
</svg>
