<?xml version="1.0" encoding="UTF-8"?>
<!-- Generator: visioncortex VTracer 0.6.12 -->
<svg version="1.1" xmlns="http://www.w3.org/2000/svg" width="801" height="320">
<path d="M0 0 C1.177 0 2.354 0 3.566 0.001 C4.788 0.011 6.009 0.021 7.268 0.032 C8.402 0.034 9.536 0.036 10.705 0.038 C14.926 0.048 19.148 0.076 23.37 0.102 C32.816 0.143 42.262 0.185 51.995 0.227 C51.995 23.657 51.995 47.087 51.995 71.227 C63.545 71.227 75.095 71.227 86.995 71.227 C86.995 61.657 86.995 52.087 86.995 42.227 C102.675 35.093 118.371 28.005 134.182 21.165 C134.786 20.903 134.786 20.903 137.843 19.58 C141.224 18.121 144.608 16.672 147.995 15.227 C149.135 14.739 150.275 14.25 151.45 13.747 C152.533 13.288 153.617 12.829 154.733 12.356 C155.699 11.945 156.665 11.535 157.66 11.112 C159.995 10.227 159.995 10.227 161.995 10.227 C161.995 30.357 161.995 50.487 161.995 71.227 C171.235 71.227 180.475 71.227 189.995 71.227 C189.995 85.227 189.995 85.227 186.995 90.227 C184.437 91.506 182.627 91.34 179.768 91.325 C179.252 91.323 179.252 91.323 176.643 91.315 C176.103 91.311 176.103 91.311 173.37 91.29 C172.826 91.287 172.826 91.287 170.073 91.276 C167.38 91.264 164.687 91.248 161.995 91.227 C162.01 99.008 162.051 106.788 162.127 114.569 C162.161 118.183 162.186 121.797 162.19 125.411 C162.194 128.906 162.223 132.4 162.268 135.895 C162.287 137.861 162.282 139.828 162.276 141.794 C162.414 150.414 163.624 157.845 169.925 164.163 C176.644 169.938 185.088 170.538 193.651 170.528 C194.044 170.53 194.044 170.53 196.036 170.541 C197.687 170.547 199.337 170.547 200.987 170.543 C203.489 170.54 205.989 170.563 208.491 170.588 C223.676 170.65 223.676 170.65 230.995 167.227 C234.726 163.495 236.133 160.205 236.307 154.977 C236.345 154.25 236.382 153.523 236.42 152.774 C235.32 146.191 230.723 141.567 226.057 137.172 C224.903 136.052 223.75 134.93 222.596 133.809 C220.797 132.078 218.994 130.351 217.185 128.63 C208.401 120.241 201.732 113.408 200.967 100.696 C201.058 92.513 203.877 85.613 208.995 79.227 C211.808 76.825 214.709 74.919 217.995 73.227 C218.661 72.878 219.328 72.529 220.014 72.169 C224.328 70.806 228.428 70.965 232.926 71 C233.921 71 234.917 70.999 235.942 70.999 C239.227 71.001 242.511 71.016 245.795 71.032 C248.075 71.035 250.355 71.038 252.635 71.04 C258.63 71.048 264.626 71.068 270.621 71.09 C276.741 71.11 282.861 71.119 288.981 71.129 C300.986 71.151 312.99 71.185 324.995 71.227 C325.103 73.455 325.18 75.685 325.245 77.915 C325.291 79.156 325.337 80.397 325.385 81.676 C324.929 85.821 324.017 87.402 320.995 90.227 C318.057 90.684 315.613 90.882 312.682 90.852 C306.662 90.852 302.378 91.39 296.995 94.227 C293.192 98.33 291.826 100.941 291.682 106.477 C291.645 107.41 291.607 108.344 291.569 109.305 C292.479 115.55 297.32 119.803 301.713 124 C302.822 125.084 303.93 126.167 305.038 127.25 C306.765 128.928 308.495 130.603 310.231 132.272 C325.981 147.454 325.981 147.454 326.245 159.352 C326.132 167.895 323.361 175.466 317.569 181.782 C308.284 190.69 296.603 190.809 284.454 190.729 C282.81 190.733 281.167 190.738 279.523 190.745 C275.086 190.759 270.651 190.748 266.214 190.731 C261.551 190.717 256.888 190.724 252.225 190.728 C244.393 190.73 236.561 190.717 228.729 190.694 C219.706 190.667 210.683 190.665 201.66 190.677 C192.944 190.688 184.229 190.682 175.513 190.667 C171.821 190.662 168.129 190.662 164.437 190.667 C160.077 190.671 155.718 190.661 151.359 190.64 C149.77 190.634 148.181 190.633 146.592 190.639 C130.113 190.684 113.114 188.687 100.514 176.915 C89.444 164.621 86.664 150.739 86.799 134.661 C86.802 133.386 86.805 132.111 86.808 130.798 C86.817 127.439 86.835 124.081 86.857 120.722 C86.878 117.283 86.887 113.844 86.897 110.405 C86.917 103.679 86.956 96.953 86.995 90.227 C75.445 90.227 63.895 90.227 51.995 90.227 C52.041 95.814 52.087 101.401 52.135 107.157 C52.156 110.711 52.175 114.266 52.19 117.821 C52.214 123.454 52.242 129.087 52.296 134.72 C52.34 139.265 52.364 143.81 52.374 148.356 C52.381 150.084 52.396 151.812 52.418 153.539 C52.552 164.678 52.543 174.524 44.62 183.165 C37.328 189.786 30.058 190.376 20.669 190.388 C20.203 190.391 20.203 190.391 17.843 190.403 C14.761 190.418 11.679 190.425 8.596 190.43 C6.442 190.436 4.288 190.442 2.134 190.447 C-2.387 190.458 -6.908 190.464 -11.429 190.467 C-17.186 190.473 -22.943 190.497 -28.7 190.525 C-33.154 190.544 -37.609 190.549 -42.063 190.551 C-44.183 190.554 -46.303 190.562 -48.423 190.575 C-72.174 190.712 -95.869 187.275 -114.068 170.29 C-127.093 156.424 -131.525 143.09 -131.291 124.594 C-131.059 117.953 -129.613 112.365 -127.005 106.227 C-126.717 105.497 -126.428 104.768 -126.13 104.016 C-119.951 90.058 -107.888 81.425 -94.279 75.477 C-82.868 71.12 -71.603 70.069 -59.505 70.129 C-58.429 70.131 -57.353 70.132 -56.244 70.134 C-52.831 70.139 -49.418 70.152 -46.005 70.165 C-43.681 70.17 -41.357 70.174 -39.033 70.178 C-33.357 70.189 -27.681 70.206 -22.005 70.227 C-22.009 69.883 -22.009 69.883 -22.026 68.141 C-22.092 60.971 -22.137 53.801 -22.17 46.631 C-22.184 43.956 -22.206 41.281 -22.232 38.605 C-22.268 34.758 -22.285 30.911 -22.298 27.063 C-22.314 25.869 -22.329 24.675 -22.345 23.445 C-22.347 16.637 -22.079 11.71 -17.392 6.399 C-17.112 6.164 -17.112 6.164 -15.693 4.977 C-15.14 4.498 -14.587 4.018 -14.017 3.524 C-9.602 0.678 -5.172 -0.023 0 0 Z M-54.005 100.227 C-63.377 112.34 -64.325 126.458 -63.005 141.227 C-61.302 150.832 -57.581 157.652 -50.755 164.477 C-43.326 169.205 -34.893 171.944 -26.005 171.227 C-23.867 170.177 -23.867 170.177 -22.005 168.227 C-21.623 165.616 -21.498 163.427 -21.551 160.818 C-21.551 160.067 -21.55 159.315 -21.549 158.541 C-21.552 156.057 -21.583 153.574 -21.615 151.09 C-21.622 149.368 -21.628 147.646 -21.632 145.924 C-21.647 141.391 -21.686 136.859 -21.731 132.327 C-21.772 127.702 -21.79 123.077 -21.81 118.452 C-21.853 109.377 -21.921 100.302 -22.005 91.227 C-24.227 91.196 -26.448 91.175 -28.669 91.157 C-29.906 91.144 -31.143 91.131 -32.418 91.117 C-40.859 91.376 -48.053 94.159 -54.005 100.227 Z " fill="#888D93" transform="translate(475.00537109375,64.77294921875)"/>
<path d="M0 0 C1.111 -0.007 2.221 -0.014 3.365 -0.021 C6.931 -0.039 10.497 -0.045 14.062 -0.047 C15.278 -0.048 16.494 -0.048 17.746 -0.049 C35.023 -0.034 52.006 0.163 69.062 3.203 C70.082 3.38 71.102 3.557 72.153 3.739 C95.663 7.937 123.366 14.004 141.062 31.203 C141.363 31.484 141.363 31.484 142.883 32.906 C151.087 41.388 150.479 52.778 150.355 63.836 C150.35 65.324 150.346 66.812 150.343 68.3 C150.331 72.183 150.302 76.065 150.268 79.948 C150.238 83.924 150.224 87.899 150.209 91.875 C150.177 99.651 150.126 107.427 150.062 115.203 C148.062 113.203 148.062 113.203 146.438 109.578 C137.915 92.44 115.045 83.892 98.012 78.102 C62.61 66.539 26.251 62.975 -10.812 62.953 C-11.851 62.952 -12.89 62.952 -13.96 62.951 C-29.803 62.967 -45.303 63.393 -60.938 66.203 C-61.434 66.292 -61.434 66.292 -63.946 66.739 C-75.608 68.895 -86.753 71.831 -97.832 76.066 C-100.938 77.203 -100.938 77.203 -102.938 77.203 C-98.494 82.506 -90.601 85.759 -83.938 87.203 C-79.099 86.867 -74.841 85.471 -70.286 83.932 C-65.725 82.516 -61.048 81.603 -56.375 80.641 C-55.359 80.429 -54.344 80.218 -53.297 80 C-31.561 75.599 -9.766 73.987 12.375 74.016 C13.255 74.016 14.135 74.017 15.041 74.017 C55.081 74.092 111.161 76.437 142.062 106.203 C146.899 111.645 150.35 116.791 150.258 124.285 C150.251 125.217 150.245 126.148 150.238 127.107 C150.222 128.067 150.205 129.027 150.188 130.016 C150.178 130.995 150.169 131.974 150.16 132.982 C150.137 135.39 150.104 137.796 150.062 140.203 C147.635 137.776 146.487 135.311 145.062 132.203 C145.062 131.543 145.062 130.883 145.062 130.203 C144.419 130.76 143.776 131.317 143.113 131.891 C108.475 161.143 60.874 166.63 17.062 168.203 C16.123 168.238 15.183 168.272 14.215 168.308 C-29.422 169.667 -88.57 166.446 -122.789 135.77 C-130.297 126.8 -130.619 118.818 -130.426 107.574 C-130.416 105.973 -130.409 104.371 -130.404 102.77 C-130.385 98.583 -130.336 94.396 -130.281 90.209 C-130.229 85.925 -130.207 81.641 -130.182 77.357 C-130.128 68.972 -130.043 60.588 -129.938 52.203 C-127.724 55.105 -125.777 58.049 -123.938 61.203 C-123.051 60.378 -122.164 59.553 -121.25 58.703 C-87.57 30.122 -35.227 25.331 7.062 24.203 C8.355 24.162 9.648 24.121 10.98 24.078 C52.586 23.41 106.744 26.682 140.312 54.453 C142.78 56.921 144.996 59.393 147.062 62.203 C135.062 40.911 110.113 31.702 87.696 25.234 C85.157 24.534 82.613 23.861 80.062 23.203 C79.637 23.092 79.637 23.092 77.482 22.532 C54.452 16.701 29.833 13.593 6.062 13.203 C4.958 13.183 3.853 13.162 2.715 13.141 C-36.559 12.521 -90.807 12.053 -121.938 40.203 C-124.166 42.744 -126.136 45.345 -127.938 48.203 C-128.268 47.543 -128.597 46.883 -128.938 46.203 C-122.467 31.067 -107.405 23.031 -92.891 17.066 C-63.652 5.66 -31.344 0.133 0 0 Z M-109.188 55.266 C-109.796 55.582 -110.404 55.898 -111.031 56.224 C-115.035 58.421 -117.877 60.884 -120.938 64.203 C-119.471 67.731 -117.581 69.684 -114.625 72.078 C-113.866 72.715 -113.106 73.352 -112.324 74.008 C-109.938 75.203 -109.938 75.203 -107.68 74.633 C-106.775 74.161 -105.87 73.689 -104.938 73.203 C-103.628 72.616 -102.313 72.039 -100.996 71.469 C-100.259 71.145 -99.521 70.821 -98.761 70.488 C-35.592 43.107 50.916 40.915 115.047 65.812 C127.818 70.976 139.946 77.668 148.062 89.203 C147.323 82.515 142.588 78.803 138.062 74.203 C137.515 73.642 136.967 73.082 136.402 72.504 C111.494 49.252 68.413 42.629 36.062 39.203 C35.15 39.1 34.237 38.997 33.296 38.891 C-12.917 33.847 -67.003 33.276 -109.188 55.266 Z M148.062 64.203 C149.062 66.203 149.062 66.203 149.062 66.203 Z M-128.938 77.203 C-127.938 79.203 -127.938 79.203 -127.938 79.203 Z M-127.938 79.203 C-124.68 90.687 -114.917 97.432 -104.97 103.085 C-66.175 124.422 -19.867 131.421 23.938 131.453 C24.763 131.454 25.589 131.454 26.439 131.455 C104.517 131.355 104.517 131.355 122.813 114.6 C123.225 114.139 123.638 113.678 124.062 113.203 C121.315 111.886 118.564 110.574 115.812 109.266 C115.035 108.892 114.258 108.519 113.457 108.135 C112.703 107.777 111.949 107.419 111.172 107.051 C110.826 106.886 110.826 106.886 109.077 106.051 C105.239 104.436 102.927 103.972 98.914 105.242 C98.089 105.491 97.264 105.739 96.415 105.995 C95.515 106.27 94.615 106.545 93.688 106.828 C31.866 124.617 -50.467 124.898 -108.75 95.391 C-116.155 91.202 -121.985 85.196 -127.938 79.203 Z M-69.938 92.203 C-36.527 109.375 15.273 108.951 51.938 106.453 C53.175 106.369 54.412 106.286 55.686 106.2 C67.617 105.307 79.321 103.463 91.062 101.203 C87.712 97.852 83.077 97.443 78.562 96.328 C77.495 96.064 76.427 95.8 75.326 95.528 C67.597 93.68 59.852 92.178 52 90.953 C51.524 90.878 51.524 90.878 49.113 90.497 C30.785 87.81 12.419 86.85 -6.089 86.887 C-9.304 86.891 -12.519 86.867 -15.734 86.842 C-34.029 86.786 -52.03 88.375 -69.938 92.203 Z M148.062 89.203 C149.062 91.203 149.062 91.203 149.062 91.203 Z M-128.938 102.203 C-127.938 104.203 -127.938 104.203 -127.938 104.203 Z M-127.938 104.203 C-125.53 114.903 -115.736 121.37 -106.993 126.959 C-68.108 150.485 -17.59 156.42 27 156.453 C27.823 156.454 28.646 156.454 29.493 156.455 C64.115 156.411 108.092 154.73 137.062 133.203 C138.865 131.278 140.448 129.295 142.062 127.203 C141.031 126.089 139.987 124.988 138.938 123.891 C138.357 123.276 137.777 122.661 137.18 122.027 C134.411 119.641 132.616 118.251 129.062 117.203 C125.581 118.19 122.542 119.915 119.375 121.641 C61.693 150.95 -24.392 149.569 -84.938 130.203 C-101.969 124.345 -115.193 117.112 -127.938 104.203 Z " fill="#888D93" transform="translate(129.9375,63.796875)"/>
<path d="M0 0 C0.429 0.575 0.859 1.15 1.301 1.742 C2.392 3.193 3.493 4.636 4.605 6.07 C5.128 6.748 5.65 7.426 6.188 8.125 C6.717 8.808 7.247 9.491 7.793 10.195 C9 12 9 12 9 14 C9.583 14.266 10.165 14.531 10.766 14.805 C13.066 16.035 14.775 17.427 16.75 19.125 C53.442 48.057 112.887 53.211 157.5 53.25 C158.202 53.251 158.904 53.251 159.628 53.252 C196.204 53.197 244.835 50.77 273.082 24.176 C275.071 21.92 276.543 19.625 278 17 C278.33 17.66 278.66 18.32 279 19 C273.57 33.069 260.44 40.572 247.402 46.688 C243.637 48.261 239.859 49.679 236 51 C235.278 51.248 234.556 51.497 233.812 51.753 C219.499 56.573 204.892 59.591 190 62 C189.008 62.167 188.016 62.333 186.995 62.505 C169.562 65.298 152.05 65.312 134.438 65.375 C133.285 65.383 132.132 65.391 130.944 65.399 C92.123 65.604 39.057 62.601 9.164 34.227 C2.255 27.118 -0.261 20.074 -0.176 10.254 C-0.159 9.51 -0.142 8.766 -0.125 8 C-0.116 7.225 -0.107 6.451 -0.098 5.652 C-0.074 3.768 -0.039 1.884 0 0 Z " fill="#888D93" transform="translate(0,191)"/>
</svg>
