<?xml version="1.0" encoding="UTF-8"?>
<!-- Generator: visioncortex VTracer 0.6.12 -->
<svg version="1.1" xmlns="http://www.w3.org/2000/svg" width="685" height="320">
<path d="M0 0 C3.313 2.712 6.393 5.642 9.441 8.645 C12 11 12 11 14.277 12.137 C16 13 16 13 17 16 C17.598 16.557 18.196 17.114 18.812 17.688 C23.344 22.478 24.964 27.599 26 34 C26.602 36.117 27.248 38.222 27.938 40.312 C28.107 40.837 28.107 40.837 28.965 43.488 C30 46 30 46 32 47 C31.979 48.169 31.959 49.338 31.938 50.543 C31.938 54.544 32.408 58.352 33 62.312 C35.434 81.112 34.49 100.028 31.38 118.673 C31.028 120.827 30.717 122.982 30.426 125.145 C29.259 133.612 29.259 133.612 27 137 C26 139 26 139 25.707 141.176 C24.756 144.974 22.803 147.948 20.688 151.188 C20.296 151.816 19.905 152.444 19.502 153.092 C17.309 156.492 15.699 158.421 12 160 C10.369 161.448 8.787 162.953 7.25 164.5 C6.451 165.294 5.652 166.088 4.828 166.906 C3 169 3 169 3 171 C2.737 171.048 2.737 171.048 1.406 171.289 C-1.81 172.239 -4.542 173.796 -7.5 175.375 C-25.995 184.937 -48.135 185.245 -68 180 C-79.288 176.327 -89.238 170.503 -97.246 161.699 C-99 160 -99 160 -100.977 159.137 C-108.34 155 -113.544 140.605 -116 133 C-116.414 130.868 -116.624 128.827 -116.758 126.66 C-117.093 122.979 -117.818 119.379 -118.5 115.75 C-122.944 91.279 -122.071 65.998 -115.145 42.105 C-114.231 38.953 -113.623 35.883 -113.188 32.625 C-112.019 26.091 -107.832 20.293 -104 15 C-103.34 14.67 -102.68 14.34 -102 14 C-101.711 13.361 -101.423 12.721 -101.125 12.062 C-99.73 9.506 -98.566 9.279 -96 8 C-94.804 6.97 -93.639 5.904 -92.5 4.812 C-68.761 -16.25 -25.992 -17.672 0 0 Z M-56 25 C-58.312 27.625 -58.312 27.625 -60 31 C-60.867 32.609 -61.742 34.213 -62.625 35.812 C-63.03 36.582 -63.435 37.352 -63.852 38.145 C-65 40 -65 40 -67 41 C-67.414 42.848 -67.414 42.848 -67.625 45.062 C-67.749 46.362 -67.873 47.661 -68 49 C-68.33 49 -68.66 49 -69 49 C-71.029 59.95 -71.341 70.652 -71.316 81.756 C-71.313 84.6 -71.336 87.442 -71.361 90.285 C-71.477 123.914 -71.477 123.914 -63 135 C-59.183 140.606 -59.183 140.606 -57.75 143.688 C-55.136 147.141 -52.152 148.067 -48 149 C-41.89 149.777 -36.427 148.974 -31 146 C-27.316 142.956 -25.561 140.461 -24 136 C-22.43 133.252 -20.756 130.634 -19 128 C-18.393 125.407 -17.878 122.871 -17.438 120.25 C-17.373 119.869 -17.373 119.869 -17.046 117.942 C-15.861 110.649 -15.207 103.387 -15 96 C-14.978 95.232 -14.956 94.465 -14.934 93.674 C-13.822 46.791 -13.822 46.791 -21.496 38.355 C-21.992 37.908 -22.489 37.461 -23 37 C-25.869 32.697 -25.869 32.697 -26.375 30.008 C-27.402 26.709 -29.674 25.717 -32.562 24.051 C-40.114 20.795 -48.703 21.269 -56 25 Z M28 129 C29 131 29 131 29 131 Z M-115 131 C-114 133 -114 133 -114 133 Z M27 132 C28 134 28 134 28 134 Z M-65 133 C-64 135 -64 135 -64 135 Z M-114 134 C-113 136 -113 136 -113 136 Z M-113 136 C-112 138 -112 138 -112 138 Z " fill="#888D93" transform="translate(468,49)"/>
<path d="M0 0 C2.654 2.268 5.217 4.596 7.738 7.012 C10 9 10 9 12.23 10.082 C14 11 14 11 15 14 C15.639 14.557 16.279 15.114 16.938 15.688 C19.815 18.914 20.052 21.8 21 26 C21.66 26.66 22.32 27.32 23 28 C25 30 25 30 25.125 33.125 C25.084 34.074 25.043 35.023 25 36 C25.66 36 26.32 36 27 36 C26.967 37.888 26.935 39.776 26.902 41.664 C27 44 27 44 27.491 46.741 C28.394 52.525 28.281 58.344 28.312 64.188 C28.316 64.854 28.32 65.52 28.323 66.207 C28.348 77.607 26.975 88.019 24 99 C23.862 99.861 23.724 100.722 23.582 101.609 C22.797 104.835 21.306 107.333 19.625 110.188 C19.019 111.233 18.413 112.278 17.789 113.355 C16 116 16 116 13 118 C12.691 118.66 12.381 119.32 12.062 120 C11 122 11 122 9.062 122.938 C7 124 7 124 5.5 126.562 C4 129 4 129 2.25 129.473 C1.507 129.647 0.765 129.821 0 130 C-1.848 130.93 -3.68 131.892 -5.5 132.875 C-19.356 139.845 -33.911 141.005 -48.941 137.031 C-57.71 134.075 -64.254 129.303 -70.906 122.953 C-73 121 -73 121 -76 119 C-76.33 141.77 -76.66 164.54 -77 188 C-92.18 188 -107.36 188 -123 188 C-123 123.98 -123 59.96 -123 -6 C-77 -6 -77 -6 -75 -5 C-74.586 -2.277 -74.586 -2.277 -74.375 1.062 C-74.3 2.167 -74.225 3.272 -74.148 4.41 C-74.099 5.265 -74.05 6.119 -74 7 C-71 5 -71 5 -69 2 C-67.676 1.633 -66.34 1.304 -65 1 C-63.412 0.084 -61.851 -0.879 -60.312 -1.875 C-42.48 -12.827 -17.118 -12.184 0 0 Z M-66.438 31.562 C-67.852 33.354 -68.979 34.957 -70 37 C-70.516 37.433 -71.031 37.866 -71.562 38.312 C-73 40 -73 40 -73.188 42.688 C-73.126 43.451 -73.064 44.214 -73 45 C-73.66 45.33 -74.32 45.66 -75 46 C-78.567 56.943 -78.734 73.079 -75 84 C-73.527 85.609 -73.527 85.609 -72 87 C-69.12 92.205 -69.12 92.205 -68.688 95.062 C-67.082 99.588 -62.471 101.761 -58.438 103.812 C-51.201 106.225 -42.953 106.153 -35.875 103.312 C-32.319 101.495 -30.765 99.629 -29 96 C-28.01 95.67 -27.02 95.34 -26 95 C-25.938 94.608 -25.938 94.608 -25.625 92.625 C-25 90 -25 90 -23 88 C-18.411 81.117 -18.801 72.343 -18.75 64.312 C-18.741 63.517 -18.732 62.722 -18.722 61.902 C-18.788 49.212 -18.788 49.212 -23 45 C-23.826 43.413 -24.613 41.806 -25.375 40.188 C-27.239 36.383 -29.131 33.156 -32 30 C-32.474 29.443 -32.949 28.886 -33.438 28.312 C-42.042 21.085 -59.348 23.575 -66.438 31.562 Z M23 31 C24 33 24 33 24 33 Z M-24 40 C-23 42 -23 42 -23 42 Z M-73 87 C-72 89 -72 89 -72 89 Z M22 100 C23 102 23 102 23 102 Z " fill="#888D93" transform="translate(657,93)"/>
<path d="M0 0 C2.455 0.003 4.911 0.068 7.363 0.19 C7.939 0.196 7.939 0.196 10.854 0.227 C15.129 0.29 19.403 0.457 23.676 0.612 C33.246 0.86 42.816 1.107 52.676 1.362 C52.676 39.312 52.676 77.262 52.676 116.362 C60.596 116.362 68.516 116.362 76.676 116.362 C78.253 119.517 77.818 122.9 77.809 126.362 C77.81 127.154 77.811 127.945 77.811 128.761 C77.812 130.435 77.81 132.11 77.806 133.784 C77.801 136.352 77.806 138.92 77.812 141.487 C77.812 143.112 77.811 144.737 77.809 146.362 C77.811 147.133 77.813 147.904 77.815 148.698 C77.791 154.132 77.791 154.132 76.676 156.362 C68.756 156.362 60.836 156.362 52.676 156.362 C52.676 166.922 52.676 177.482 52.676 188.362 C35.846 188.362 19.016 188.362 1.676 188.362 C1.676 177.802 1.676 167.242 1.676 156.362 C-24.724 156.362 -51.124 156.362 -78.324 156.362 C-78.654 155.702 -78.984 155.042 -79.324 154.362 C-79.654 154.362 -79.984 154.362 -80.324 154.362 C-84.736 123.065 -78.834 104.155 -59.903 78.892 C-52.024 68.596 -52.024 68.596 -48.324 67.362 C-46.765 64.617 -45.52 61.882 -44.407 58.929 C-43.336 56.391 -42.107 54.313 -40.562 52.038 C-40.007 51.216 -39.453 50.394 -38.881 49.548 C-38.282 48.67 -37.683 47.793 -37.066 46.89 C-36.445 45.971 -35.823 45.052 -35.182 44.105 C-33.192 41.167 -31.196 38.233 -29.199 35.3 C-27.226 32.39 -25.253 29.48 -23.281 26.569 C-22.055 24.762 -20.829 22.955 -19.601 21.15 C-19.027 20.306 -18.454 19.462 -17.863 18.593 C-17.28 17.759 -16.698 16.925 -16.098 16.065 C-14.324 13.362 -14.324 13.362 -12.586 10.086 C-9.232 4.093 -7.114 0.702 0 0 Z M1.676 46.362 C2.006 69.462 2.336 92.562 2.676 116.362 C3.006 116.362 3.336 116.362 3.676 116.362 C3.676 93.262 3.676 70.162 3.676 46.362 C3.016 46.362 2.356 46.362 1.676 46.362 Z M0.676 50.362 C-0.663 52.024 -1.996 53.692 -3.324 55.362 C-4.046 56.043 -4.768 56.724 -5.512 57.425 C-7.324 59.362 -7.324 59.362 -7.791 61.239 C-8.392 63.631 -9.326 65.21 -10.669 67.273 C-11.157 68.027 -11.644 68.781 -12.147 69.558 C-12.676 70.362 -13.205 71.166 -13.75 71.995 C-14.022 72.412 -14.022 72.412 -15.398 74.52 C-16.55 76.278 -17.704 78.035 -18.861 79.79 C-20.63 82.477 -22.383 85.175 -24.135 87.874 C-25.256 89.582 -26.377 91.289 -27.5 92.995 C-27.762 93.399 -27.762 93.399 -29.085 95.445 C-29.582 96.192 -30.079 96.94 -30.591 97.71 C-30.807 98.04 -30.807 98.04 -31.901 99.706 C-33.53 101.601 -35.11 102.263 -37.324 103.362 C-38.059 105.338 -38.715 107.344 -39.324 109.362 C-40.644 111.672 -41.964 113.982 -43.324 116.362 C-28.474 116.362 -13.624 116.362 1.676 116.362 C1.676 94.582 1.676 72.802 1.676 50.362 C1.346 50.362 1.016 50.362 0.676 50.362 Z M-46.324 117.362 C-46.324 117.692 -46.324 118.022 -46.324 118.362 C-29.824 118.362 -13.324 118.362 3.676 118.362 C3.676 118.032 3.676 117.702 3.676 117.362 C-12.824 117.362 -29.324 117.362 -46.324 117.362 Z " fill="#898E93" transform="translate(247.32421875,39.6376953125)"/>
<path d="M0 0 C0.393 -0.003 0.393 -0.003 2.383 -0.019 C24.698 -0.132 43.836 5.529 60.938 20.438 C61.597 20.767 62.257 21.097 62.938 21.438 C63.102 21.932 63.102 21.932 63.938 24.438 C64.597 24.767 65.257 25.097 65.938 25.438 C66.303 26.762 66.631 28.098 66.938 29.438 C67.572 30.786 68.236 32.122 68.938 33.438 C74.752 45.066 72.459 62.861 70.938 75.438 C70.278 75.438 69.618 75.438 68.938 75.438 C68.896 76.407 68.855 77.376 68.812 78.375 C68.111 83.492 65.128 87.494 61.938 91.438 C61.608 91.602 61.608 91.602 59.938 92.438 C59.773 92.933 59.773 92.933 58.938 95.438 C57.61 96.115 56.275 96.78 54.938 97.438 C53.241 98.948 51.596 100.517 49.988 102.121 C49.058 103.049 48.128 103.976 47.17 104.932 C46.691 105.415 46.212 105.898 45.719 106.396 C44.251 107.874 42.774 109.341 41.295 110.807 C40.832 111.271 40.832 111.271 38.488 113.621 C38.064 114.047 38.064 114.047 35.915 116.201 C33.938 118.438 33.938 118.438 32.938 121.438 C32.319 121.582 31.7 121.726 31.062 121.875 C28.188 122.636 27.524 123.986 25.938 126.438 C25.278 127.428 24.618 128.418 23.938 129.438 C23.628 129.489 23.628 129.489 22.062 129.75 C19.937 130.438 19.937 130.438 17.938 133.438 C15.937 136.438 15.937 136.438 14.145 136.832 C10.854 137.735 9.084 139.798 6.625 142.125 C2.473 146.028 -1.723 149.718 -6.062 153.438 C20.007 153.768 46.078 154.097 72.938 154.438 C72.938 166.317 72.938 178.197 72.938 190.438 C28.058 190.438 -16.823 190.438 -63.062 190.438 C-63.062 177.567 -63.062 164.697 -63.062 151.438 C-61.742 151.107 -60.422 150.778 -59.062 150.438 C-56.899 148.696 -54.891 146.959 -52.875 145.062 C-52.329 144.567 -51.783 144.072 -51.221 143.562 C-48.702 141.228 -47.165 139.745 -46.062 136.438 C-45.785 136.379 -45.785 136.379 -44.383 136.082 C-40.829 135.095 -38.563 132.594 -35.938 130.125 C-35.4 129.638 -34.862 129.152 -34.309 128.65 C-32.108 126.612 -30.269 124.861 -28.945 122.145 C-28.8 121.863 -28.8 121.863 -28.062 120.438 C-26.73 120.1 -25.397 119.768 -24.062 119.438 C-21.336 117.293 -21.336 117.293 -18.438 114.625 C-17.957 114.189 -17.957 114.189 -15.523 111.98 C-13.063 109.438 -13.063 109.438 -11.977 107.176 C-11.675 106.602 -11.373 106.029 -11.062 105.438 C-10.488 105.3 -9.913 105.162 -9.32 105.02 C-5.781 104.107 -3.536 101.568 -0.938 99.125 C-0.669 98.882 -0.669 98.882 0.691 97.65 C3.462 95.083 5.352 92.841 6.938 89.438 C7.948 88.778 8.959 88.118 10 87.438 C13.337 85.166 13.146 85.046 13.938 81.438 C14.784 79.85 15.639 78.267 16.5 76.688 C20.391 68.273 20.346 58.099 17.688 49.25 C15.232 43.298 12.023 39.928 6.188 37.289 C-10.796 30.861 -28.355 36.637 -44.209 43.643 C-49.658 46.138 -54.79 49.021 -59.902 52.152 C-62.062 53.438 -62.062 53.438 -63.062 53.438 C-63.062 39.248 -63.062 25.057 -63.062 10.438 C-41.849 4 -22.182 0.083 0 0 Z M20.938 54.438 C20.938 59.388 20.938 64.338 20.938 69.438 C21.267 69.438 21.597 69.438 21.938 69.438 C21.938 64.487 21.938 59.537 21.938 54.438 C21.608 54.438 21.278 54.438 20.938 54.438 Z M18.938 73.438 C19.938 75.438 19.938 75.438 19.938 75.438 Z " fill="#888D93" transform="translate(63.0625,37.5625)"/>
<path d="M0 0 C0.33 0 0.66 0 1 0 C1 63.69 1 127.38 1 193 C0.67 193 0.34 193 0 193 C0 129.31 0 65.62 0 0 Z " fill="#7F7F7F" transform="translate(532,88)"/>
<path d="M0 0 C44.88 0 89.76 0 136 0 C136 0.33 136 0.66 136 1 C91.12 1 46.24 1 0 1 C0 0.67 0 0.34 0 0 Z " fill="#7F7F7F" transform="translate(0,229)"/>
<path d="M0 0 C12.705 0.165 12.705 0.165 77 1 C77 1.33 77 1.66 77 2 C51.26 2 25.52 2 -1 2 C-0.67 1.34 -0.34 0.68 0 0 Z " fill="#7E80BB" transform="translate(59,189)"/>
<path d="M0 0 C2 2 2 2 2.203 4.784 C2.18 5.97 2.158 7.156 2.135 8.377 C2.126 9.031 2.116 9.685 2.107 10.359 C2.073 12.523 2.025 14.687 1.977 16.852 C1.95 18.351 1.925 19.85 1.901 21.349 C1.834 25.299 1.755 29.247 1.674 33.196 C1.593 37.224 1.523 41.253 1.453 45.281 C1.313 53.188 1.161 61.094 1 69 C0.67 69 0.34 69 0 69 C0 46.23 0 23.46 0 0 Z " fill="#7E7E7F" transform="translate(581,212)"/>
<path d="M0 0 C18.15 0 36.3 0 55 0 C55 0.33 55 0.66 55 1 C36.85 1 18.7 1 0 1 C0 0.67 0 0.34 0 0 Z " fill="#818183" transform="translate(243,39)"/>
<path d="M0 0 C15.18 0 30.36 0 46 0 C46 0.33 46 0.66 46 1 C30.82 1 15.64 1 0 1 C0 0.67 0 0.34 0 0 Z " fill="#818181" transform="translate(252,229)"/>
<path d="M0 0 C-1.326 3.623 -2.943 6.635 -5.125 9.812 C-5.394 10.208 -5.394 10.208 -6.758 12.207 C-7.168 12.799 -7.578 13.39 -8 14 C-8.99 13.34 -9.98 12.68 -11 12 C-9.022 6.067 -6.672 0 0 0 Z " fill="#94989C" transform="translate(180,138)"/>
<path d="M0 0 C14.85 0 29.7 0 45 0 C45 0.33 45 0.66 45 1 C30.15 1 15.3 1 0 1 C0 0.67 0 0.34 0 0 Z " fill="#F9F9F9" transform="translate(535,85)"/>
<path d="M0 0 C0.33 0 0.66 0 1 0 C1 14.52 1 29.04 1 44 C0.67 44 0.34 44 0 44 C0 29.48 0 14.96 0 0 Z " fill="#959799" transform="translate(398,112)"/>
<path d="M0 0 C0.33 0 0.66 0 1 0 C1 11.88 1 23.76 1 36 C0.67 36 0.34 36 0 36 C0 24.12 0 12.24 0 0 Z " fill="#7D7D7D" transform="translate(137,192)"/>
<path d="M0 0 C0.33 0 0.66 0 1 0 C1 11.55 1 23.1 1 35 C0.67 35 0.34 35 0 35 C0 23.45 0 11.9 0 0 Z " fill="#FFFFFF" transform="translate(326,159)"/>
<path d="M0 0 C1.32 0 2.64 0 4 0 C2.696 3.913 1.211 6.373 -2 9 C-2.99 9 -3.98 9 -5 9 C-3.763 5.573 -2.549 2.647 0 0 Z " fill="#93989C" transform="translate(225,118)"/>
<path d="M0 0 C0.99 0 1.98 0 3 0 C1.941 3.403 0.991 6.014 -1 9 C-2.32 9 -3.64 9 -5 9 C-3.761 5.568 -2.497 2.697 0 0 Z " fill="#969A9D" transform="translate(231,56)"/>
<path d="M0 0 C0.33 0 0.66 0 1 0 C1 8.91 1 17.82 1 27 C0.67 27 0.34 27 0 27 C0 18.09 0 9.18 0 0 Z " fill="#8A8D96" transform="translate(503,121)"/>
<path d="M0 0 C0.66 0.33 1.32 0.66 2 1 C2.33 1.99 2.66 2.98 3 4 C3.66 4.33 4.32 4.66 5 5 C4.34 6.32 3.68 7.64 3 9 C0.88 6.385 -1.131 3.804 -3 1 C-2.01 0.67 -1.02 0.34 0 0 Z " fill="#92969A" transform="translate(124,58)"/>
<path d="M0 0 C0 3 0 3 -1.969 5.262 C-2.804 6.062 -3.639 6.863 -4.5 7.688 C-5.335 8.496 -6.171 9.304 -7.031 10.137 C-7.681 10.752 -8.331 11.366 -9 12 C-9.66 11.67 -10.32 11.34 -11 11 C-7.37 7.37 -3.74 3.74 0 0 Z " fill="#7B7F8A" transform="translate(116,137)"/>
<path d="M0 0 C0.33 0 0.66 0 1 0 C1 6.6 1 13.2 1 20 C0.67 20 0.34 20 0 20 C0 13.4 0 6.8 0 0 Z " fill="#7B8790" transform="translate(451,124)"/>
<path d="M0 0 C0.33 0 0.66 0 1 0 C1 6.27 1 12.54 1 19 C0.67 19 0.34 19 0 19 C0 12.73 0 6.46 0 0 Z " fill="#7C7C83" transform="translate(636,148)"/>
<path d="M0 0 C6.27 0 12.54 0 19 0 C19 0.33 19 0.66 19 1 C12.73 1 6.46 1 0 1 C0 0.67 0 0.34 0 0 Z " fill="#838888" transform="translate(616,82)"/>
<path d="M0 0 C5.94 0 11.88 0 18 0 C18 0.33 18 0.66 18 1 C12.06 1 6.12 1 0 1 C0 0.67 0 0.34 0 0 Z " fill="#7F9296" transform="translate(416,233)"/>
<path d="M0 0 C0.33 0 0.66 0 1 0 C1 5.61 1 11.22 1 17 C0.67 17 0.34 17 0 17 C0 11.39 0 5.78 0 0 Z " fill="#96A5B4" transform="translate(345,126)"/>
<path d="M0 0 C0.33 0 0.66 0 1 0 C1 5.28 1 10.56 1 16 C0.67 16 0.34 16 0 16 C0 10.72 0 5.44 0 0 Z " fill="#8F8F94" transform="translate(581,150)"/>
<path d="M0 0 C4.95 0 9.9 0 15 0 C15 0.33 15 0.66 15 1 C10.05 1 5.1 1 0 1 C0 0.67 0 0.34 0 0 Z " fill="#8D9393" transform="translate(618,233)"/>
<path d="M0 0 C0.33 0 0.66 0 1 0 C1 4.95 1 9.9 1 15 C0.67 15 0.34 15 0 15 C0 10.05 0 5.1 0 0 Z " fill="#909090" transform="translate(450,145)"/>
<path d="M0 0 C4.95 0 9.9 0 15 0 C15 0.33 15 0.66 15 1 C10.05 1 5.1 1 0 1 C0 0.67 0 0.34 0 0 Z " fill="#AFAFB5" transform="translate(602,119)"/>
<path d="M0 0 C0.33 0 0.66 0 1 0 C1 4.95 1 9.9 1 15 C0.67 15 0.34 15 0 15 C0 10.05 0 5.1 0 0 Z " fill="#8A8A90" transform="translate(450,109)"/>
<path d="M0 0 C0.33 0 0.66 0 1 0 C1 4.95 1 9.9 1 15 C0.67 15 0.34 15 0 15 C0 10.05 0 5.1 0 0 Z " fill="#989898" transform="translate(136,86)"/>
<path d="M0 0 C0 3 0 3 -2 5.188 C-2.66 5.786 -3.32 6.384 -4 7 C-4.66 6.67 -5.32 6.34 -6 6 C-4.02 4.02 -2.04 2.04 0 0 Z " fill="#898289" transform="translate(480,209)"/>
<path d="M0 0 C0.33 0 0.66 0 1 0 C1 4.29 1 8.58 1 13 C0.67 13 0.34 13 0 13 C0 8.71 0 4.42 0 0 Z " fill="#89898F" transform="translate(346,113)"/>
<path d="M0 0 C3.96 0 7.92 0 12 0 C12 0.33 12 0.66 12 1 C8.04 1 4.08 1 0 1 C0 0.67 0 0.34 0 0 Z " fill="#919191" transform="translate(603,196)"/>
<path d="M0 0 C0.33 0 0.66 0 1 0 C1 3.96 1 7.92 1 12 C0.67 12 0.34 12 0 12 C0 8.04 0 4.08 0 0 Z " fill="#828282" transform="translate(346,144)"/>
<path d="M0 0 C2.97 0 5.94 0 9 0 C9 0.33 9 0.66 9 1 C6.03 1 3.06 1 0 1 C0 0.67 0 0.34 0 0 Z " fill="#969696" transform="translate(420,196)"/>
<path d="M0 0 C0.33 0 0.66 0 1 0 C1 2.97 1 5.94 1 9 C0.67 9 0.34 9 0 9 C0 6.03 0 3.06 0 0 Z " fill="#717A7A" transform="translate(399,156)"/>
<path d="M0 0 C0.33 0 0.66 0 1 0 C1 2.97 1 5.94 1 9 C0.67 9 0.34 9 0 9 C0 6.03 0 3.06 0 0 Z " fill="#75757F" transform="translate(502,149)"/>
<path d="M0 0 C0.33 0 0.66 0 1 0 C1 2.97 1 5.94 1 9 C0.67 9 0.34 9 0 9 C0 6.03 0 3.06 0 0 Z " fill="#8888A5" transform="translate(502,111)"/>
<path d="M0 0 C0.33 0 0.66 0 1 0 C1 2.97 1 5.94 1 9 C0.67 9 0.34 9 0 9 C0 6.03 0 3.06 0 0 Z " fill="#757575" transform="translate(399,103)"/>
<path d="M0 0 C0.33 0 0.66 0 1 0 C1 2.64 1 5.28 1 8 C0.67 8 0.34 8 0 8 C0 5.36 0 2.72 0 0 Z " fill="#7A7A7A" transform="translate(449,160)"/>
<path d="M0 0 C0.33 0 0.66 0 1 0 C1 2.64 1 5.28 1 8 C0.67 8 0.34 8 0 8 C0 5.36 0 2.72 0 0 Z " fill="#898989" transform="translate(449,101)"/>
<path d="M0 0 C2.64 0 5.28 0 8 0 C8 0.33 8 0.66 8 1 C5.36 1 2.72 1 0 1 C0 0.67 0 0.34 0 0 Z " fill="#6F6F7A" transform="translate(43,73)"/>
<path d="M0 0 C2.31 0 4.62 0 7 0 C7 0.33 7 0.66 7 1 C4.69 1 2.38 1 0 1 C0 0.67 0 0.34 0 0 Z " fill="#9D9D9D" transform="translate(434,232)"/>
<path d="M0 0 C2.31 0 4.62 0 7 0 C7 0.33 7 0.66 7 1 C4.69 1 2.38 1 0 1 C0 0.67 0 0.34 0 0 Z " fill="#677373" transform="translate(408,232)"/>
<path d="M0 0 C1.32 1.32 2.64 2.64 4 4 C2.68 3.34 1.36 2.68 0 2 C0 1.34 0 0.68 0 0 Z " fill="#4E4E4E" transform="translate(583,214)"/>
<path d="M0 0 C0.33 0 0.66 0 1 0 C1 2.31 1 4.62 1 7 C0.67 7 0.34 7 0 7 C0 4.69 0 2.38 0 0 Z " fill="#8B9797" transform="translate(635,167)"/>
<path d="M0 0 C0.33 0 0.66 0 1 0 C1 2.31 1 4.62 1 7 C0.67 7 0.34 7 0 7 C0 4.69 0 2.38 0 0 Z " fill="#9797BC" transform="translate(582,166)"/>
<path d="M0 0 C0.33 0 0.66 0 1 0 C1 2.31 1 4.62 1 7 C0.67 7 0.34 7 0 7 C0 4.69 0 2.38 0 0 Z " fill="#6D6D79" transform="translate(347,156)"/>
<path d="M0 0 C0.33 0 0.66 0 1 0 C1 2.31 1 4.62 1 7 C0.67 7 0.34 7 0 7 C0 4.69 0 2.38 0 0 Z " fill="#858585" transform="translate(582,143)"/>
<path d="M0 0 C2.31 0 4.62 0 7 0 C7 0.33 7 0.66 7 1 C4.69 1 2.38 1 0 1 C0 0.67 0 0.34 0 0 Z " fill="#798585" transform="translate(57,73)"/>
<path d="M0 0 C1.98 0 3.96 0 6 0 C6 0.33 6 0.66 6 1 C4.02 1 2.04 1 0 1 C0 0.67 0 0.34 0 0 Z " fill="#787878" transform="translate(633,232)"/>
<path d="M0 0 C1.98 0 3.96 0 6 0 C6 0.33 6 0.66 6 1 C4.02 1 2.04 1 0 1 C0 0.67 0 0.34 0 0 Z " fill="#717171" transform="translate(612,232)"/>
<path d="M0 0 C0.33 0 0.66 0 1 0 C1 1.98 1 3.96 1 6 C0.67 6 0.34 6 0 6 C0 4.02 0 2.04 0 0 Z " fill="#787878" transform="translate(635,142)"/>
<path d="M0 0 C0.33 0 0.66 0 1 0 C1 1.98 1 3.96 1 6 C0.67 6 0.34 6 0 6 C0 4.02 0 2.04 0 0 Z " fill="#9494BF" transform="translate(347,107)"/>
<path d="M0 0 C0.33 0 0.66 0 1 0 C1 1.98 1 3.96 1 6 C0.67 6 0.34 6 0 6 C0 4.02 0 2.04 0 0 Z " fill="#7F7F8D" transform="translate(501,105)"/>
<path d="M0 0 C1.98 0 3.96 0 6 0 C6 0.33 6 0.66 6 1 C4.02 1 2.04 1 0 1 C0 0.67 0 0.34 0 0 Z " fill="#A9A9B4" transform="translate(31,38)"/>
<path d="M0 0 C1.65 0 3.3 0 5 0 C5 0.33 5 0.66 5 1 C3.35 1 1.7 1 0 1 C0 0.67 0 0.34 0 0 Z " fill="#656565" transform="translate(441,231)"/>
<path d="M0 0 C0.33 0 0.66 0 1 0 C1 1.65 1 3.3 1 5 C0.67 5 0.34 5 0 5 C0 3.35 0 1.7 0 0 Z " fill="#989898" transform="translate(448,168)"/>
<path d="M0 0 C0.33 0 0.66 0 1 0 C1 1.65 1 3.3 1 5 C0.67 5 0.34 5 0 5 C0 3.35 0 1.7 0 0 Z " fill="#76A9A9" transform="translate(400,166)"/>
<path d="M0 0 C0.33 0 0.66 0 1 0 C1 1.65 1 3.3 1 5 C0.67 5 0.34 5 0 5 C0 3.35 0 1.7 0 0 Z " fill="#B2B2B2" transform="translate(348,163)"/>
<path d="M0 0 C0.33 0 0.66 0 1 0 C1 1.65 1 3.3 1 5 C0.67 5 0.34 5 0 5 C0 3.35 0 1.7 0 0 Z " fill="#7F9090" transform="translate(501,159)"/>
<path d="M0 0 C0.33 0 0.66 0 1 0 C1 1.65 1 3.3 1 5 C0.67 5 0.34 5 0 5 C0 3.35 0 1.7 0 0 Z " fill="#5D5D5D" transform="translate(135,102)"/>
<path d="M0 0 C0.33 0 0.66 0 1 0 C1 1.65 1 3.3 1 5 C0.67 5 0.34 5 0 5 C0 3.35 0 1.7 0 0 Z " fill="#6E6E6E" transform="translate(348,101)"/>
<path d="M0 0 C0.33 0 0.66 0 1 0 C1 1.65 1 3.3 1 5 C0.67 5 0.34 5 0 5 C0 3.35 0 1.7 0 0 Z " fill="#987676" transform="translate(448,96)"/>
<path d="M0 0 C1.65 0 3.3 0 5 0 C5 0.33 5 0.66 5 1 C3.35 1 1.7 1 0 1 C0 0.67 0 0.34 0 0 Z " fill="#5D5D5D" transform="translate(635,83)"/>
<path d="M0 0 C1.65 0 3.3 0 5 0 C5 0.33 5 0.66 5 1 C3.35 1 1.7 1 0 1 C0 0.67 0 0.34 0 0 Z " fill="#5D6E6E" transform="translate(611,83)"/>
<path d="M0 0 C0.33 0 0.66 0 1 0 C1 1.65 1 3.3 1 5 C0.67 5 0.34 5 0 5 C0 3.35 0 1.7 0 0 Z " fill="#A1A1A1" transform="translate(135,80)"/>
<path d="M0 0 C1.65 0 3.3 0 5 0 C5 0.33 5 0.66 5 1 C3.35 1 1.7 1 0 1 C0 0.67 0 0.34 0 0 Z " fill="#878787" transform="translate(38,74)"/>
<path d="M0 0 C1.65 0 3.3 0 5 0 C5 0.33 5 0.66 5 1 C3.35 1 1.7 1 0 1 C0 0.67 0 0.34 0 0 Z " fill="#878787" transform="translate(427,73)"/>
<path d="M0 0 C1.65 0 3.3 0 5 0 C5 0.33 5 0.66 5 1 C3.35 1 1.7 1 0 1 C0 0.67 0 0.34 0 0 Z " fill="#657676" transform="translate(417,73)"/>
<path d="M0 0 C1.65 0 3.3 0 5 0 C5 0.33 5 0.66 5 1 C3.35 1 1.7 1 0 1 C0 0.67 0 0.34 0 0 Z " fill="#656565" transform="translate(51,72)"/>
<path d="M0 0 C1.65 0 3.3 0 5 0 C5 0.33 5 0.66 5 1 C3.35 1 1.7 1 0 1 C0 0.67 0 0.34 0 0 Z " fill="#6E6E6E" transform="translate(21,40)"/>
<path d="M0 0 C1.65 0 3.3 0 5 0 C5 0.33 5 0.66 5 1 C3.35 1 1.7 1 0 1 C0 0.67 0 0.34 0 0 Z " fill="#989898" transform="translate(26,39)"/>
<path d="M0 0 C1.65 0 3.3 0 5 0 C5 0.33 5 0.66 5 1 C3.35 1 1.7 1 0 1 C0 0.67 0 0.34 0 0 Z " fill="#7F7F7F" transform="translate(87,38)"/>
<path d="M0 0 C4 1 4 1 4 1 Z " fill="#6A6A6A" transform="translate(608,231)"/>
<path d="M0 0 C4 1 4 1 4 1 Z " fill="#7F9494" transform="translate(404,231)"/>
<path d="M0 0 C4 1 4 1 4 1 Z " fill="#5F5F5F" transform="translate(599,195)"/>
<path d="M0 0 C4 1 4 1 4 1 Z " fill="#747474" transform="translate(429,195)"/>
<path d="M0 0 C4 1 4 1 4 1 Z " fill="#9F9F9F" transform="translate(416,195)"/>
<path d="M0 0 C0.66 0.33 1.32 0.66 2 1 C1.01 1 0.02 1 -1 1 C-0.67 0.67 -0.34 0.34 0 0 Z " fill="#5F5F5F" transform="translate(62,186)"/>
<path d="M0 0 C1 4 1 4 1 4 Z " fill="#6A6A6A" transform="translate(683,183)"/>
<path d="M0 0 C0.66 0.33 1.32 0.66 2 1 C1.01 1 0.02 1 -1 1 C-0.67 0.67 -0.34 0.34 0 0 Z " fill="#7F7F7F" transform="translate(9,181)"/>
<path d="M0 0 C1 4 1 4 1 4 Z " fill="#7F94A4" transform="translate(684,179)"/>
<path d="M0 0 C0.66 0.33 1.32 0.66 2 1 C1.01 1 0.02 1 -1 1 C-0.67 0.67 -0.34 0.34 0 0 Z " fill="#7F7F7F" transform="translate(70,179)"/>
<path d="M0 0 C1 4 1 4 1 4 Z " fill="#A9A9A9" transform="translate(583,173)"/>
<path d="M0 0 C1 4 1 4 1 4 Z " fill="#54546A" transform="translate(447,173)"/>
<path d="M0 0 C1 4 1 4 1 4 Z " fill="#C9C9C9" transform="translate(634,174)"/>
<path d="M0 0 C1 4 1 4 1 4 Z " fill="#898989" transform="translate(401,172)"/>
<path d="M0 0 C1 4 1 4 1 4 Z " fill="#4A7474" transform="translate(499,170)"/>
<path d="M0 0 C1 4 1 4 1 4 Z " fill="#9F9F9F" transform="translate(349,168)"/>
<path d="M0 0 C0.66 0.33 1.32 0.66 2 1 C1.01 1 0.02 1 -1 1 C-0.67 0.67 -0.34 0.34 0 0 Z " fill="#7F7F7F" transform="translate(26,166)"/>
<path d="M0 0 C1 4 1 4 1 4 Z " fill="#7F7F7F" transform="translate(500,165)"/>
<path d="M0 0 C0.66 0.33 1.32 0.66 2 1 C1.01 1 0.02 1 -1 1 C-0.67 0.67 -0.34 0.34 0 0 Z " fill="#7F7F7F" transform="translate(43,151)"/>
<path d="M0 0 C1 4 1 4 1 4 Z " fill="#545474" transform="translate(583,139)"/>
<path d="M0 0 C0.66 0.33 1.32 0.66 2 1 C1.01 1 0.02 1 -1 1 C-0.67 0.67 -0.34 0.34 0 0 Z " fill="#6A6A6A" transform="translate(60,136)"/>
<path d="M0 0 C1 4 1 4 1 4 Z " fill="#7F7F8F" transform="translate(684,133)"/>
<path d="M0 0 C4 1 4 1 4 1 Z " fill="#3F3F3F" transform="translate(598,120)"/>
<path d="M0 0 C1 4 1 4 1 4 Z " fill="#B4B4B4" transform="translate(500,100)"/>
<path d="M0 0 C1 4 1 4 1 4 Z " fill="#898989" transform="translate(349,97)"/>
<path d="M0 0 C1 4 1 4 1 4 Z " fill="#A9A9A9" transform="translate(401,93)"/>
<path d="M0 0 C1 4 1 4 1 4 Z " fill="#C9C9C9" transform="translate(350,93)"/>
<path d="M0 0 C1 4 1 4 1 4 Z " fill="#6A6A6A" transform="translate(447,92)"/>
<path d="M0 0 C1 4 1 4 1 4 Z " fill="#BFBFBF" transform="translate(134,76)"/>
<path d="M0 0 C4 1 4 1 4 1 Z " fill="#7F7FBF" transform="translate(423,72)"/>
<path d="M0 0 C4 1 4 1 4 1 Z " fill="#6A6A6A" transform="translate(13,42)"/>
<path d="M0 0 C4 1 4 1 4 1 Z " fill="#6A6A6A" transform="translate(17,41)"/>
<path d="M0 0 C4 1 4 1 4 1 Z " fill="#6A6A6A" transform="translate(445,38)"/>
<path d="M0 0 C4 1 4 1 4 1 Z " fill="#5F5F5F" transform="translate(401,38)"/>
<path d="M0 0 C3 1 3 1 3 1 Z " fill="#8D8D8D" transform="translate(639,231)"/>
<path d="M0 0 C3 1 3 1 3 1 Z " fill="#636363" transform="translate(605,230)"/>
<path d="M0 0 C3 1 3 1 3 1 Z " fill="#8D8D8D" transform="translate(446,230)"/>
<path d="M0 0 C3 1 3 1 3 1 Z " fill="#B8B8B8" transform="translate(400,230)"/>
<path d="M0 0 C3 1 3 1 3 1 Z " fill="#E2E2E2" transform="translate(645,229)"/>
<path d="M0 0 C3 1 3 1 3 1 Z " fill="#545454" transform="translate(450,229)"/>
<path d="M0 0 C3 1 3 1 3 1 Z " fill="#7F7F7F" transform="translate(397,229)"/>
<path d="M0 0 C3 1 3 1 3 1 Z " fill="#B8B8B8" transform="translate(394,228)"/>
<path d="M0 0 C3 1 3 1 3 1 Z " fill="#636363" transform="translate(455,227)"/>
<path d="M0 0 C3 1 3 1 3 1 Z " fill="#B8B8B8" transform="translate(616,195)"/>
<path d="M0 0 C3 1 3 1 3 1 Z " fill="#636363" transform="translate(619,194)"/>
<path d="M0 0 C3 1 3 1 3 1 Z " fill="#636363" transform="translate(433,194)"/>
<path d="" fill="#717171" transform="translate(0,0)"/>
<path d="" fill="#C6C6C6" transform="translate(0,0)"/>
<path d="" fill="#B8B8B8" transform="translate(0,0)"/>
<path d="" fill="#717171" transform="translate(0,0)"/>
<path d="" fill="#7F7F7F" transform="translate(0,0)"/>
<path d="" fill="#5454A9" transform="translate(0,0)"/>
<path d="" fill="#9B9BB8" transform="translate(0,0)"/>
<path d="M0 0 C3 1 3 1 3 1 Z " fill="#C6C6C6" transform="translate(617,120)"/>
<path d="" fill="#54A9A9" transform="translate(0,0)"/>
<path d="" fill="#717171" transform="translate(0,0)"/>
<path d="" fill="#A9A9A9" transform="translate(0,0)"/>
<path d="" fill="#B8B8B8" transform="translate(0,0)"/>
<path d="" fill="#7F7F7F" transform="translate(0,0)"/>
<path d="" fill="#7F7F7F" transform="translate(0,0)"/>
<path d="" fill="#A9A9A9" transform="translate(0,0)"/>
<path d="" fill="#A9A9A9" transform="translate(0,0)"/>
<path d="M0 0 C3 1 3 1 3 1 Z " fill="#8D8DE2" transform="translate(602,86)"/>
<path d="M0 0 C3 1 3 1 3 1 Z " fill="#A9A9A9" transform="translate(643,85)"/>
<path d="" fill="#A9A9A9" transform="translate(0,0)"/>
<path d="M0 0 C3 1 3 1 3 1 Z " fill="#8D8D8D" transform="translate(640,84)"/>
<path d="M0 0 C3 1 3 1 3 1 Z " fill="#8D8D8D" transform="translate(608,84)"/>
<path d="" fill="#5454A9" transform="translate(0,0)"/>
<path d="M0 0 C3 1 3 1 3 1 Z " fill="#8D8D8D" transform="translate(21,80)"/>
<path d="M0 0 C3 1 3 1 3 1 Z " fill="#717171" transform="translate(26,78)"/>
<path d="M0 0 C3 1 3 1 3 1 Z " fill="#545454" transform="translate(32,76)"/>
<path d="M0 0 C3 1 3 1 3 1 Z " fill="#636363" transform="translate(67,75)"/>
<path d="M0 0 C3 1 3 1 3 1 Z " fill="#B8B8B8" transform="translate(35,75)"/>
<path d="M0 0 C3 1 3 1 3 1 Z " fill="#B8B8B8" transform="translate(414,74)"/>
<path d="M0 0 C3 1 3 1 3 1 Z " fill="#B8B8B8" transform="translate(64,74)"/>
<path d="M0 0 C3 1 3 1 3 1 Z " fill="#464663" transform="translate(3,45)"/>
<path d="M0 0 C3 1 3 1 3 1 Z " fill="#7F7F7F" transform="translate(7,44)"/>
<path d="M0 0 C3 1 3 1 3 1 Z " fill="#B8B8B8" transform="translate(10,43)"/>
<path d="M0 0 C3 1 3 1 3 1 Z " fill="#636363" transform="translate(392,41)"/>
<path d="M0 0 C3 1 3 1 3 1 Z " fill="#A9A9A9" transform="translate(98,41)"/>
<path d="M0 0 C3 1 3 1 3 1 Z " fill="#557171" transform="translate(452,40)"/>
<path d="M0 0 C3 1 3 1 3 1 Z " fill="#7F7F7F" transform="translate(95,40)"/>
<path d="M0 0 C3 1 3 1 3 1 Z " fill="#6363B8" transform="translate(449,39)"/>
<path d="M0 0 C3 1 3 1 3 1 Z " fill="#A9A9A9" transform="translate(398,39)"/>
<path d="M0 0 C3 1 3 1 3 1 Z " fill="#C6C6C6" transform="translate(92,39)"/>
<path d="M0 0 C2 1 2 1 2 1 Z " fill="#7F7F7F" transform="translate(643,230)"/>
<path d="M0 0 C2 1 2 1 2 1 Z " fill="#7F7F7F" transform="translate(603,229)"/>
<path d="M0 0 C2 1 2 1 2 1 Z " fill="#D4D4D4" transform="translate(648,228)"/>
<path d="M0 0 C2 1 2 1 2 1 Z " fill="#6A6A6A" transform="translate(601,228)"/>
<path d="M0 0 C2 1 2 1 2 1 Z " fill="#7F7F7F" transform="translate(453,228)"/>
<path d="M0 0 C2 1 2 1 2 1 Z " fill="#D4D4D4" transform="translate(650,227)"/>
<path d="M0 0 C2 1 2 1 2 1 Z " fill="#6A6A6A" transform="translate(599,227)"/>
<path d="M0 0 C2 1 2 1 2 1 Z " fill="#949494" transform="translate(392,227)"/>
<path d="M0 0 C2 1 2 1 2 1 Z " fill="#3F3F3F" transform="translate(652,226)"/>
<path d="M0 0 C2 1 2 1 2 1 Z " fill="#7F7F7F" transform="translate(597,226)"/>
<path d="M0 0 C2 1 2 1 2 1 Z " fill="#555555" transform="translate(458,226)"/>
<path d="M0 0 C2 1 2 1 2 1 Z " fill="#6A6A6A" transform="translate(390,226)"/>
<path d="M0 0 C2 1 2 1 2 1 Z " fill="#3F3F3F" transform="translate(595,225)"/>
<path d="M0 0 C2 1 2 1 2 1 Z " fill="#555555" transform="translate(460,225)"/>
<path d="M0 0 C2 1 2 1 2 1 Z " fill="#6A6A6A" transform="translate(388,225)"/>
<path d="M0 0 C2 1 2 1 2 1 Z " fill="#555555" transform="translate(655,224)"/>
<path d="M0 0 C2 1 2 1 2 1 Z " fill="#7F7F7F" transform="translate(386,224)"/>
<path d="M0 0 C2 1 2 1 2 1 Z " fill="#7F7F7F" transform="translate(463,223)"/>
<path d="M0 0 C2 1 2 1 2 1 Z " fill="#D4D4D4" transform="translate(384,223)"/>
<path d="M0 0 C2 1 2 1 2 1 Z " fill="#7F7F7F" transform="translate(591,222)"/>
<path d="M0 0 C2 1 2 1 2 1 Z " fill="#555555" transform="translate(465,222)"/>
<path d="M0 0 C2 1 2 1 2 1 Z " fill="#AAD4D4" transform="translate(381,221)"/>
<path d="M0 0 C2 1 2 1 2 1 Z " fill="#BFBFBF" transform="translate(377,218)"/>
<path d="M0 0 C2 1 2 1 2 1 Z " fill="#BFBFBF" transform="translate(597,194)"/>
<path d="M0 0 C2 1 2 1 2 1 Z " fill="#7F7F7F" transform="translate(414,194)"/>
<path d="M0 0 C2 1 2 1 2 1 Z " fill="#6A6A6A" transform="translate(622,193)"/>
<path d="M0 0 C2 1 2 1 2 1 Z " fill="#3F3F3F" transform="translate(595,193)"/>
<path d="M0 0 C2 1 2 1 2 1 Z " fill="#BFBFBF" transform="translate(412,193)"/>
<path d="M0 0 C2 1 2 1 2 1 Z " fill="#BFBFBF" transform="translate(593,192)"/>
<path d="M0 0 C2 1 2 1 2 1 Z " fill="#3F3F5F" transform="translate(437,192)"/>
<path d="" fill="#949494" transform="translate(0,0)"/>
<path d="" fill="#7F7F7F" transform="translate(0,0)"/>
<path d="" fill="#949494" transform="translate(0,0)"/>
<path d="" fill="#7F7FAA" transform="translate(0,0)"/>
<path d="M0 0 C2 1 2 1 2 1 Z " fill="#BFBFBF" transform="translate(622,122)"/>
<path d="M0 0 C2 1 2 1 2 1 Z " fill="#7F7F7F" transform="translate(594,122)"/>
<path d="M0 0 C2 1 2 1 2 1 Z " fill="#BFBFBF" transform="translate(620,121)"/>
<path d="M0 0 C2 1 2 1 2 1 Z " fill="#949494" transform="translate(596,121)"/>
<path d="" fill="#7F7F7F" transform="translate(0,0)"/>
<path d="" fill="#949494" transform="translate(0,0)"/>
<path d="" fill="#949494" transform="translate(0,0)"/>
<path d="" fill="#949494" transform="translate(0,0)"/>
<path d="" fill="#949494" transform="translate(0,0)"/>
<path d="" fill="#949494" transform="translate(0,0)"/>
<path d="M0 0 C2 1 2 1 2 1 Z " fill="#555555" transform="translate(658,93)"/>
<path d="M0 0 C2 1 2 1 2 1 Z " fill="#7F7F7F" transform="translate(592,92)"/>
<path d="M0 0 C2 1 2 1 2 1 Z " fill="#D4D4D4" transform="translate(1,91)"/>
<path d="M0 0 C2 1 2 1 2 1 Z " fill="#7F7F7F" transform="translate(595,90)"/>
<path d="M0 0 C2 1 2 1 2 1 Z " fill="#7F7F7F" transform="translate(652,89)"/>
<path d="M0 0 C2 1 2 1 2 1 Z " fill="#7F7F7F" transform="translate(4,89)"/>
<path d="M0 0 C2 1 2 1 2 1 Z " fill="#AAD4D4" transform="translate(650,88)"/>
<path d="M0 0 C2 1 2 1 2 1 Z " fill="#55D4D4" transform="translate(598,88)"/>
<path d="M0 0 C2 1 2 1 2 1 Z " fill="#3FBFBF" transform="translate(6,88)"/>
<path d="M0 0 C2 1 2 1 2 1 Z " fill="#D4D4D4" transform="translate(648,87)"/>
<path d="M0 0 C2 1 2 1 2 1 Z " fill="#BFBFBF" transform="translate(600,87)"/>
<path d="M0 0 C2 1 2 1 2 1 Z " fill="#949494" transform="translate(646,86)"/>
<path d="M0 0 C2 1 2 1 2 1 Z " fill="#555555" transform="translate(9,86)"/>
<path d="M0 0 C2 1 2 1 2 1 Z " fill="#7F7F7F" transform="translate(605,85)"/>
<path d="M0 0 C2 1 2 1 2 1 Z " fill="#7F7F7F" transform="translate(11,85)"/>
<path d="M0 0 C2 1 2 1 2 1 Z " fill="#949494" transform="translate(13,84)"/>
<path d="" fill="#AAAAAA" transform="translate(0,0)"/>
<path d="M0 0 C2 1 2 1 2 1 Z " fill="#949494" transform="translate(15,83)"/>
<path d="" fill="#9494D4" transform="translate(0,0)"/>
<path d="M0 0 C2 1 2 1 2 1 Z " fill="#949494" transform="translate(17,82)"/>
<path d="M0 0 C2 1 2 1 2 1 Z " fill="#557F7F" transform="translate(19,81)"/>
<path d="" fill="#7F7F7F" transform="translate(0,0)"/>
<path d="M0 0 C2 1 2 1 2 1 Z " fill="#7F7F7F" transform="translate(24,79)"/>
<path d="M0 0 C2 1 2 1 2 1 Z " fill="#3F3F3F" transform="translate(73,78)"/>
<path d="M0 0 C2 1 2 1 2 1 Z " fill="#7F7F7F" transform="translate(29,77)"/>
<path d="M0 0 C2 1 2 1 2 1 Z " fill="#949494" transform="translate(437,76)"/>
<path d="M0 0 C2 1 2 1 2 1 Z " fill="#6A6A94" transform="translate(70,76)"/>
<path d="M0 0 C2 1 2 1 2 1 Z " fill="#BFBFBF" transform="translate(435,75)"/>
<path d="M0 0 C2 1 2 1 2 1 Z " fill="#949494" transform="translate(412,75)"/>
<path d="M0 0 C2 1 2 1 2 1 Z " fill="#7F7F7F" transform="translate(433,74)"/>
<path d="" fill="#AAAAAA" transform="translate(0,0)"/>
<path d="" fill="#6A6A6A" transform="translate(0,0)"/>
<path d="M0 0 C2 1 2 1 2 1 Z " fill="#D4D4D4" transform="translate(376,51)"/>
<path d="M0 0 C2 1 2 1 2 1 Z " fill="#BFBFBF" transform="translate(116,51)"/>
<path d="M0 0 C2 1 2 1 2 1 Z " fill="#BFBFBF" transform="translate(470,50)"/>
<path d="M0 0 C2 1 2 1 2 1 Z " fill="#BFBFBF" transform="translate(380,48)"/>
<path d="M0 0 C2 1 2 1 2 1 Z " fill="#7F7F7F" transform="translate(112,48)"/>
<path d="M0 0 C2 1 2 1 2 1 Z " fill="#D4D4D4" transform="translate(466,47)"/>
<path d="M0 0 C2 1 2 1 2 1 Z " fill="#7F7F7F" transform="translate(383,46)"/>
<path d="M0 0 C2 1 2 1 2 1 Z " fill="#D4D4D4" transform="translate(109,46)"/>
<path d="M0 0 C2 1 2 1 2 1 Z " fill="#949494" transform="translate(1,46)"/>
<path d="M0 0 C2 1 2 1 2 1 Z " fill="#3F3F3F" transform="translate(463,45)"/>
<path d="M0 0 C2 1 2 1 2 1 Z " fill="#7F7F7F" transform="translate(107,45)"/>
<path d="M0 0 C2 1 2 1 2 1 Z " fill="#949494" transform="translate(461,44)"/>
<path d="M0 0 C2 1 2 1 2 1 Z " fill="#555555" transform="translate(386,44)"/>
<path d="M0 0 C2 1 2 1 2 1 Z " fill="#AAD4D4" transform="translate(105,44)"/>
<path d="M0 0 C2 1 2 1 2 1 Z " fill="#6A6A94" transform="translate(459,43)"/>
<path d="M0 0 C2 1 2 1 2 1 Z " fill="#BFBFBF" transform="translate(388,43)"/>
<path d="M0 0 C2 1 2 1 2 1 Z " fill="#6A6A94" transform="translate(103,43)"/>
<path d="M0 0 C2 1 2 1 2 1 Z " fill="#949494" transform="translate(457,42)"/>
<path d="M0 0 C2 1 2 1 2 1 Z " fill="#BFBFBF" transform="translate(390,42)"/>
<path d="M0 0 C2 1 2 1 2 1 Z " fill="#949494" transform="translate(101,42)"/>
<path d="M0 0 C2 1 2 1 2 1 Z " fill="#BFBFBF" transform="translate(455,41)"/>
<path d="M0 0 C2 1 2 1 2 1 Z " fill="#7F7F7F" transform="translate(395,40)"/>
<path d="" fill="#5555AA" transform="translate(0,0)"/>
<path d="" fill="#555555" transform="translate(0,0)"/>
<path d="" fill="#AAAAAA" transform="translate(0,0)"/>
<path d="" fill="#7F7F7F" transform="translate(0,0)"/>
<path d="" fill="#7F7F7F" transform="translate(0,0)"/>
<path d="" fill="#7F7F7F" transform="translate(0,0)"/>
<path d="" fill="#AAAAAA" transform="translate(0,0)"/>
<path d="" fill="#AAAAAA" transform="translate(0,0)"/>
<path d="" fill="#55AAAA" transform="translate(0,0)"/>
<path d="" fill="#7F7F7F" transform="translate(0,0)"/>
<path d="" fill="#7F7F7F" transform="translate(0,0)"/>
<path d="" fill="#AAAAAA" transform="translate(0,0)"/>
<path d="" fill="#7F7F7F" transform="translate(0,0)"/>
<path d="" fill="#7F7F7F" transform="translate(0,0)"/>
<path d="" fill="#7F7F7F" transform="translate(0,0)"/>
<path d="" fill="#5555AA" transform="translate(0,0)"/>
<path d="" fill="#7F7F7F" transform="translate(0,0)"/>
<path d="" fill="#AAAAAA" transform="translate(0,0)"/>
<path d="" fill="#AAAAAA" transform="translate(0,0)"/>
<path d="" fill="#7F7F7F" transform="translate(0,0)"/>
<path d="" fill="#7FFFFF" transform="translate(0,0)"/>
<path d="" fill="#AAAAAA" transform="translate(0,0)"/>
<path d="" fill="#7F7F7F" transform="translate(0,0)"/>
<path d="" fill="#AAAAAA" transform="translate(0,0)"/>
<path d="" fill="#555555" transform="translate(0,0)"/>
<path d="" fill="#7F7F7F" transform="translate(0,0)"/>
<path d="" fill="#7F7F7F" transform="translate(0,0)"/>
<path d="" fill="#7F7F7F" transform="translate(0,0)"/>
<path d="" fill="#7F7F7F" transform="translate(0,0)"/>
<path d="" fill="#7F7F7F" transform="translate(0,0)"/>
<path d="" fill="#7F7F7F" transform="translate(0,0)"/>
<path d="" fill="#7F7F7F" transform="translate(0,0)"/>
<path d="" fill="#AAAAAA" transform="translate(0,0)"/>
<path d="" fill="#7F7F7F" transform="translate(0,0)"/>
<path d="" fill="#AAAAAA" transform="translate(0,0)"/>
<path d="" fill="#AAAAAA" transform="translate(0,0)"/>
<path d="" fill="#7F7F7F" transform="translate(0,0)"/>
<path d="" fill="#666666" transform="translate(0,0)"/>
<path d="" fill="#999999" transform="translate(0,0)"/>
<path d="" fill="#7F7F7F" transform="translate(0,0)"/>
<path d="" fill="#666699" transform="translate(0,0)"/>
<path d="" fill="#7F7F7F" transform="translate(0,0)"/>
<path d="" fill="#7F7FBF" transform="translate(0,0)"/>
<path d="" fill="#7F7F7F" transform="translate(0,0)"/>
<path d="" fill="#7F7F7F" transform="translate(0,0)"/>
<path d="" fill="#7F7F7F" transform="translate(0,0)"/>
<path d="" fill="#7F7FBF" transform="translate(0,0)"/>
<path d="" fill="#7F7F7F" transform="translate(0,0)"/>
<path d="" fill="#7F7F7F" transform="translate(0,0)"/>
<path d="" fill="#AAAAAA" transform="translate(0,0)"/>
<path d="" fill="#55AAAA" transform="translate(0,0)"/>
<path d="" fill="#555555" transform="translate(0,0)"/>
<path d="" fill="#7F7F7F" transform="translate(0,0)"/>
<path d="" fill="#7F7F7F" transform="translate(0,0)"/>
<path d="" fill="#7F7F7F" transform="translate(0,0)"/>
<path d="" fill="#7F7F7F" transform="translate(0,0)"/>
<path d="" fill="#7F7F7F" transform="translate(0,0)"/>
<path d="" fill="#666666" transform="translate(0,0)"/>
<path d="" fill="#7F7F7F" transform="translate(0,0)"/>
<path d="" fill="#7F7F7F" transform="translate(0,0)"/>
<path d="" fill="#5555AA" transform="translate(0,0)"/>
<path d="" fill="#AAAAAA" transform="translate(0,0)"/>
<path d="" fill="#7F7F7F" transform="translate(0,0)"/>
<path d="" fill="#7F7F7F" transform="translate(0,0)"/>
<path d="" fill="#7F7F7F" transform="translate(0,0)"/>
<path d="" fill="#7F7FBF" transform="translate(0,0)"/>
<path d="" fill="#7F7F7F" transform="translate(0,0)"/>
<path d="" fill="#7F7FBF" transform="translate(0,0)"/>
<path d="" fill="#7F7F7F" transform="translate(0,0)"/>
<path d="" fill="#555555" transform="translate(0,0)"/>
<path d="" fill="#AAAAAA" transform="translate(0,0)"/>
<path d="" fill="#AAAAAA" transform="translate(0,0)"/>
<path d="" fill="#555555" transform="translate(0,0)"/>
<path d="" fill="#7F7F7F" transform="translate(0,0)"/>
<path d="" fill="#7F7F7F" transform="translate(0,0)"/>
<path d="" fill="#7F7FBF" transform="translate(0,0)"/>
<path d="" fill="#7F7F7F" transform="translate(0,0)"/>
<path d="" fill="#7F7F7F" transform="translate(0,0)"/>
<path d="" fill="#555555" transform="translate(0,0)"/>
<path d="" fill="#7F7F7F" transform="translate(0,0)"/>
<path d="" fill="#AAAAAA" transform="translate(0,0)"/>
<path d="" fill="#AAAAAA" transform="translate(0,0)"/>
<path d="" fill="#7F7F7F" transform="translate(0,0)"/>
<path d="" fill="#7F7F7F" transform="translate(0,0)"/>
<path d="" fill="#7F7FBF" transform="translate(0,0)"/>
<path d="" fill="#7F7F7F" transform="translate(0,0)"/>
<path d="" fill="#7F7FBF" transform="translate(0,0)"/>
<path d="" fill="#7F7F7F" transform="translate(0,0)"/>
<path d="" fill="#7F7F7F" transform="translate(0,0)"/>
<path d="" fill="#555555" transform="translate(0,0)"/>
<path d="" fill="#AAAAAA" transform="translate(0,0)"/>
<path d="" fill="#AAAAAA" transform="translate(0,0)"/>
<path d="" fill="#5555AA" transform="translate(0,0)"/>
<path d="" fill="#7F7F7F" transform="translate(0,0)"/>
<path d="" fill="#7F7F7F" transform="translate(0,0)"/>
<path d="" fill="#BFBFBF" transform="translate(0,0)"/>
<path d="" fill="#7F7F7F" transform="translate(0,0)"/>
<path d="" fill="#7F7F7F" transform="translate(0,0)"/>
<path d="" fill="#7F7F7F" transform="translate(0,0)"/>
<path d="" fill="#7F7F7F" transform="translate(0,0)"/>
<path d="" fill="#7F7FBF" transform="translate(0,0)"/>
<path d="" fill="#7F7F7F" transform="translate(0,0)"/>
<path d="" fill="#AAAAAA" transform="translate(0,0)"/>
<path d="" fill="#555555" transform="translate(0,0)"/>
<path d="" fill="#AAAAAA" transform="translate(0,0)"/>
<path d="" fill="#AAAAAA" transform="translate(0,0)"/>
<path d="" fill="#7F7F7F" transform="translate(0,0)"/>
<path d="" fill="#7F7F7F" transform="translate(0,0)"/>
<path d="" fill="#7F7F7F" transform="translate(0,0)"/>
<path d="" fill="#5555AA" transform="translate(0,0)"/>
<path d="" fill="#7F7F7F" transform="translate(0,0)"/>
<path d="" fill="#7F7FBF" transform="translate(0,0)"/>
<path d="" fill="#7F7F7F" transform="translate(0,0)"/>
<path d="" fill="#7F7F7F" transform="translate(0,0)"/>
<path d="" fill="#7F7F7F" transform="translate(0,0)"/>
<path d="" fill="#7FBFBF" transform="translate(0,0)"/>
<path d="" fill="#555555" transform="translate(0,0)"/>
<path d="" fill="#7F7F7F" transform="translate(0,0)"/>
<path d="" fill="#AAAAAA" transform="translate(0,0)"/>
<path d="" fill="#555555" transform="translate(0,0)"/>
<path d="" fill="#7F7F7F" transform="translate(0,0)"/>
<path d="" fill="#7F7F7F" transform="translate(0,0)"/>
<path d="" fill="#AAAAAA" transform="translate(0,0)"/>
<path d="" fill="#555555" transform="translate(0,0)"/>
<path d="" fill="#7F7F7F" transform="translate(0,0)"/>
<path d="" fill="#AAAAAA" transform="translate(0,0)"/>
<path d="" fill="#555555" transform="translate(0,0)"/>
<path d="" fill="#7FBFBF" transform="translate(0,0)"/>
<path d="" fill="#AAAAAA" transform="translate(0,0)"/>
<path d="" fill="#7F7F7F" transform="translate(0,0)"/>
<path d="" fill="#AAAAAA" transform="translate(0,0)"/>
<path d="" fill="#7F7F7F" transform="translate(0,0)"/>
<path d="" fill="#AAAAAA" transform="translate(0,0)"/>
<path d="" fill="#5555AA" transform="translate(0,0)"/>
<path d="" fill="#AAAAAA" transform="translate(0,0)"/>
<path d="" fill="#AAAAAA" transform="translate(0,0)"/>
<path d="" fill="#7F7F7F" transform="translate(0,0)"/>
<path d="" fill="#7F7F7F" transform="translate(0,0)"/>
<path d="" fill="#AAAAAA" transform="translate(0,0)"/>
<path d="" fill="#7F7F7F" transform="translate(0,0)"/>
<path d="" fill="#7F7F7F" transform="translate(0,0)"/>
<path d="" fill="#7F7F7F" transform="translate(0,0)"/>
<path d="" fill="#7F7F7F" transform="translate(0,0)"/>
<path d="" fill="#7F7F7F" transform="translate(0,0)"/>
<path d="" fill="#AAAAAA" transform="translate(0,0)"/>
<path d="" fill="#7F7F7F" transform="translate(0,0)"/>
<path d="" fill="#7F7F7F" transform="translate(0,0)"/>
<path d="" fill="#AAAAAA" transform="translate(0,0)"/>
<path d="" fill="#7F7F7F" transform="translate(0,0)"/>
<path d="" fill="#7F7F7F" transform="translate(0,0)"/>
<path d="" fill="#7F7F7F" transform="translate(0,0)"/>
<path d="" fill="#7F7F7F" transform="translate(0,0)"/>
<path d="" fill="#AAAAAA" transform="translate(0,0)"/>
<path d="" fill="#AAAAAA" transform="translate(0,0)"/>
<path d="" fill="#AAAAAA" transform="translate(0,0)"/>
<path d="" fill="#7F7FBF" transform="translate(0,0)"/>
<path d="" fill="#7F7F7F" transform="translate(0,0)"/>
<path d="" fill="#7F7F7F" transform="translate(0,0)"/>
<path d="" fill="#7F7F7F" transform="translate(0,0)"/>
<path d="" fill="#999999" transform="translate(0,0)"/>
<path d="" fill="#999999" transform="translate(0,0)"/>
<path d="" fill="#AAAAAA" transform="translate(0,0)"/>
<path d="" fill="#7F7F7F" transform="translate(0,0)"/>
<path d="" fill="#7F7F7F" transform="translate(0,0)"/>
<path d="" fill="#AAAAAA" transform="translate(0,0)"/>
<path d="" fill="#7F7F7F" transform="translate(0,0)"/>
<path d="" fill="#AAAAAA" transform="translate(0,0)"/>
<path d="" fill="#7F7F7F" transform="translate(0,0)"/>
<path d="" fill="#7F7FBF" transform="translate(0,0)"/>
<path d="" fill="#555555" transform="translate(0,0)"/>
<path d="" fill="#7F7FBF" transform="translate(0,0)"/>
<path d="" fill="#AAAAAA" transform="translate(0,0)"/>
<path d="" fill="#555555" transform="translate(0,0)"/>
<path d="" fill="#7F7FBF" transform="translate(0,0)"/>
<path d="" fill="#AAAAAA" transform="translate(0,0)"/>
<path d="" fill="#55AAAA" transform="translate(0,0)"/>
<path d="" fill="#7F7F7F" transform="translate(0,0)"/>
<path d="" fill="#AAAAAA" transform="translate(0,0)"/>
<path d="" fill="#7F7F7F" transform="translate(0,0)"/>
<path d="" fill="#7F7F7F" transform="translate(0,0)"/>
<path d="" fill="#AAAAAA" transform="translate(0,0)"/>
<path d="" fill="#AAAAAA" transform="translate(0,0)"/>
<path d="" fill="#7F7F7F" transform="translate(0,0)"/>
<path d="" fill="#555555" transform="translate(0,0)"/>
<path d="" fill="#5555AA" transform="translate(0,0)"/>
<path d="" fill="#7F7F7F" transform="translate(0,0)"/>
<path d="" fill="#7F7F7F" transform="translate(0,0)"/>
<path d="" fill="#7F7F7F" transform="translate(0,0)"/>
<path d="" fill="#AAAAAA" transform="translate(0,0)"/>
<path d="" fill="#7F7F7F" transform="translate(0,0)"/>
<path d="" fill="#7F7F7F" transform="translate(0,0)"/>
<path d="" fill="#7F7F7F" transform="translate(0,0)"/>
<path d="" fill="#AAAAAA" transform="translate(0,0)"/>
<path d="" fill="#AAAAAA" transform="translate(0,0)"/>
<path d="" fill="#AAAAAA" transform="translate(0,0)"/>
<path d="" fill="#7F7F7F" transform="translate(0,0)"/>
<path d="" fill="#AAAAAA" transform="translate(0,0)"/>
<path d="" fill="#AAAAAA" transform="translate(0,0)"/>
<path d="" fill="#AAAAAA" transform="translate(0,0)"/>
<path d="" fill="#000000" transform="translate(0,0)"/>
</svg>
