<?xml version="1.0" encoding="UTF-8"?>
<!-- Generator: visioncortex VTracer 0.6.12 -->
<svg version="1.1" xmlns="http://www.w3.org/2000/svg" width="1228" height="320">
<path d="M0 0 C16.83 0 33.66 0 51 0 C52.285 3.854 53.352 7.25 54.152 11.163 C54.356 12.156 54.561 13.149 54.772 14.171 C54.989 15.244 55.206 16.316 55.43 17.421 C55.665 18.563 55.899 19.705 56.14 20.882 C56.912 24.647 57.679 28.413 58.445 32.18 C58.98 34.794 59.515 37.409 60.051 40.023 C61.315 46.196 62.575 52.369 63.833 58.542 C65.267 65.573 66.705 72.603 68.143 79.633 C71.1 94.087 74.052 108.543 77 123 C79.331 116.397 81.153 109.746 82.803 102.944 C83.065 101.876 83.328 100.809 83.598 99.708 C84.457 96.206 85.31 92.703 86.164 89.199 C86.762 86.755 87.361 84.312 87.96 81.868 C89.371 76.108 90.779 70.347 92.185 64.586 C93.94 57.394 95.701 50.204 97.461 43.014 C100.042 32.469 102.621 21.924 105.195 11.378 C105.42 10.46 105.644 9.542 105.875 8.596 C106.069 7.801 106.263 7.005 106.464 6.185 C106.97 4.122 107.485 2.061 108 0 C121.86 0 135.72 0 150 0 C153.375 10.125 153.375 10.125 154.379 14.225 C154.494 14.69 154.494 14.69 155.076 17.045 C155.316 18.033 155.556 19.022 155.803 20.04 C156.065 21.106 156.328 22.172 156.598 23.271 C157.457 26.768 158.31 30.267 159.164 33.766 C159.762 36.207 160.361 38.648 160.96 41.09 C162.211 46.193 163.46 51.297 164.707 56.401 C166.305 62.945 167.908 69.487 169.512 76.029 C171.043 82.274 172.573 88.52 174.102 94.766 C174.393 95.957 174.685 97.148 174.986 98.375 C175.81 101.742 176.633 105.11 177.456 108.478 C177.7 109.474 177.944 110.47 178.195 111.497 C178.308 111.957 178.308 111.957 178.875 114.283 C178.972 114.681 178.972 114.681 179.464 116.692 C180.028 119.119 180.523 121.554 181 124 C186.696 98.44 192.013 72.805 197.288 47.155 C198.582 40.87 199.878 34.585 201.173 28.3 C203.118 18.867 205.059 9.434 207 0 C223.83 0 240.66 0 258 0 C256.875 9 256.875 9 255.951 12.551 C255.743 13.36 255.535 14.17 255.321 15.004 C255.094 15.866 254.867 16.728 254.634 17.616 C254.513 18.083 254.513 18.083 253.902 20.446 C253.099 23.544 252.29 26.639 251.48 29.734 C250.908 31.939 250.335 34.144 249.763 36.349 C248.228 42.262 246.687 48.173 245.144 54.083 C243.87 58.968 242.599 63.853 241.329 68.739 C230.639 109.849 219.854 150.933 209 192 C192.5 192 176 192 159 192 C157.086 184.669 155.171 177.338 153.199 169.785 C151.983 165.132 150.766 160.479 149.549 155.826 C147.618 148.446 145.688 141.066 143.762 133.685 C142.208 127.732 140.652 121.78 139.094 115.829 C138.5 113.562 137.908 111.294 137.317 109.027 C136.487 105.843 135.654 102.66 134.819 99.477 C134.698 99.011 134.698 99.011 134.087 96.656 C132.604 91.023 130.915 85.501 129 80 C128.799 80.773 128.598 81.547 128.391 82.344 C111.262 148.214 111.262 148.214 104.438 173.688 C104.211 174.537 103.984 175.387 103.75 176.263 C103.126 178.596 102.499 180.929 101.871 183.262 C101.701 183.896 101.701 183.896 100.838 187.104 C100 190 100 190 99 192 C82.83 192 66.66 192 50 192 C46.491 179.719 43 167.475 39.816 155.112 C39.579 154.194 39.343 153.276 39.099 152.331 C38.855 151.385 38.611 150.439 38.359 149.465 C37.834 147.436 37.308 145.407 36.782 143.379 C35.673 139.103 34.566 134.826 33.46 130.549 C30.57 119.375 27.673 108.203 24.773 97.031 C24.629 96.475 24.629 96.475 23.899 93.662 C20.068 78.9 16.205 64.146 12.289 49.406 C12.074 48.595 11.858 47.784 11.636 46.948 C9.644 39.447 7.646 31.947 5.638 24.45 C5.098 22.431 4.559 20.411 4.02 18.391 C3.377 15.978 2.73 13.565 2.08 11.154 C1.803 10.112 1.526 9.07 1.24 7.996 C0.998 7.096 0.757 6.196 0.508 5.269 C0 3 0 3 0 0 Z " fill="#FEFEFE" transform="translate(341,64)"/>
<path d="M0 0 C1.257 0.339 2.514 0.678 3.809 1.027 C23.379 6.847 40.269 18.085 55 32 C55.75 32.686 56.5 33.372 57.273 34.078 C73.564 49.511 84.121 70.566 90 92 C90.17 92.587 90.17 92.587 91.027 95.559 C95.759 115.468 94.791 139.454 89 159 C88.83 159.628 88.83 159.628 87.973 162.809 C82.153 182.379 70.915 199.269 57 214 C56.314 214.75 55.628 215.5 54.922 216.273 C39.489 232.564 18.434 243.121 -3 249 C-4.174 249.339 -5.349 249.678 -6.559 250.027 C-26.468 254.759 -50.454 253.791 -70 248 C-70.628 247.83 -70.628 247.83 -73.809 246.973 C-93.379 241.153 -110.269 229.915 -125 216 C-125.75 215.314 -126.5 214.628 -127.273 213.922 C-143.564 198.489 -154.121 177.434 -160 156 C-160.339 154.826 -160.678 153.651 -161.027 152.441 C-165.759 132.532 -164.791 108.546 -159 89 C-158.661 87.743 -158.322 86.486 -157.973 85.191 C-152.153 65.621 -140.915 48.731 -127 34 C-126.314 33.25 -125.628 32.5 -124.922 31.727 C-109.489 15.436 -88.434 4.879 -67 -1 C-65.826 -1.339 -64.651 -1.678 -63.441 -2.027 C-43.532 -6.759 -19.546 -5.791 0 0 Z M-44 21 C-44.267 21.208 -44.267 21.208 -45.617 22.262 C-66.402 40.508 -72.192 78.186 -74 104 C-74 106.97 -74 109.94 -74 113 C-48.26 113 -22.52 113 4 113 C4 82.965 -2.538 44.928 -24.188 22.438 C-27.498 19.194 -30.223 17.232 -34.875 16.625 C-38.955 17.115 -40.786 18.442 -44 21 Z M-112.613 49.594 C-123.002 60.122 -130.637 72.603 -135.875 86.375 C-136.149 87.08 -136.423 87.785 -136.706 88.512 C-139.608 96.626 -140.45 104.219 -142 113 C-126.49 113 -110.98 113 -95 113 C-94.752 109.308 -94.505 105.616 -94.25 101.812 C-92.12 74.445 -84.816 48.809 -73 24 C-86.813 24 -103.484 40.631 -112.613 49.594 Z M3 24 C3.272 24.628 3.543 25.255 3.823 25.902 C16.345 54.991 22.878 81.352 25 113 C40.51 113 56.02 113 72 113 C68.488 93.096 68.488 93.096 65.875 86.375 C65.576 85.59 65.278 84.805 64.97 83.996 C60.068 71.619 52.889 60.885 44 51 C43.316 50.233 42.631 49.466 41.926 48.676 C31.551 37.688 18.757 30.006 5 24 C4.34 24 3.68 24 3 24 Z M-142 135 C-138.488 154.904 -138.488 154.904 -135.875 161.625 C-135.576 162.41 -135.278 163.195 -134.97 164.004 C-130.068 176.381 -122.889 187.115 -114 197 C-113.316 197.767 -112.631 198.534 -111.926 199.324 C-103.404 208.35 -93.269 215.108 -82.25 220.688 C-81.558 221.039 -80.867 221.39 -80.154 221.752 C-78.468 222.571 -76.737 223.295 -75 224 C-74.34 223.67 -73.68 223.34 -73 223 C-73.401 222.23 -73.802 221.461 -74.215 220.668 C-87.797 193.226 -92.972 165.254 -95 135 C-110.51 135 -126.02 135 -142 135 Z M-74 135 C-74 165.035 -67.462 203.072 -45.812 225.562 C-42.502 228.806 -39.777 230.768 -35.125 231.375 C-31.045 230.885 -29.214 229.558 -26 227 C-25.466 226.584 -24.933 226.167 -24.383 225.738 C-3.598 207.492 2.192 169.814 4 144 C4 141.03 4 138.06 4 135 C-21.74 135 -47.48 135 -74 135 Z M25 135 C24.752 138.692 24.505 142.384 24.25 146.188 C22.12 173.555 14.816 199.191 3 224 C24.117 218.443 43.853 200.687 55.312 182.5 C56.564 180.346 57.795 178.18 59 176 C59.272 175.517 59.272 175.517 60.648 173.074 C67.158 160.865 69.891 148.707 72 135 C56.49 135 40.98 135 25 135 Z " fill="#FEFEFE" transform="translate(183,36)"/>
<path d="M0 0 C122.902 0 122.902 0 148.762 25.75 C167.839 47.252 172.114 76.189 171 104 C169.425 129.788 160.76 155.509 141 173 C101.643 203.992 45.379 192 0 192 C0 128.64 0 65.28 0 0 Z M50 40 C50 76.96 50 113.92 50 152 C91.534 152 91.534 152 103 143 C103.592 142.544 104.183 142.087 104.793 141.617 C114.061 133.474 118.941 120.03 120 108 C121.234 88.36 120.557 69.758 107.812 53.812 C100.075 45.387 90.002 41.834 79 40 C69.43 40 59.86 40 50 40 Z " fill="#FEFEFE" transform="translate(895,64)"/>
<path d="M0 0 C15.84 0 31.68 0 48 0 C48.33 23.1 48.66 46.2 49 70 C50.98 66.7 52.96 63.4 55 60 C63.107 50.842 72.823 44.975 85.252 43.784 C101.704 42.849 115.881 45.635 129.125 56 C143.452 69.356 149.682 90.099 150.36 109.174 C150.412 111.926 150.416 114.675 150.391 117.427 C150.375 119.5 150.391 121.571 150.41 123.645 C150.444 143.934 145.787 165.065 131.754 180.465 C118.502 193.208 104.225 195.625 86.598 195.309 C74.585 194.829 65.168 190.127 56.672 181.688 C53.489 178.207 51.124 175.248 49 171 C48.67 177.93 48.34 184.86 48 192 C32.16 192 16.32 192 0 192 C0 128.64 0 65.28 0 0 Z M55 93 C46.997 104.103 46.459 118.056 48.5 131.227 C50.811 140.549 54.859 148.591 63 154 C69.204 157.174 77.193 157.146 83.789 155.16 C91.408 151.742 96.424 145.979 99.406 138.152 C103.191 124.433 103.392 108.968 97 96 C93.267 90.619 89.272 86.281 83 84 C82.691 83.887 82.691 83.887 81.125 83.312 C70.244 81.712 62.36 84.868 55 93 Z " fill="#FEFEFE" transform="translate(735,64)"/>
<path d="M0 0 C13.439 11.126 20.409 26.703 23.312 43.625 C24.191 53.045 24 62.539 24 72 C-8.01 72 -40.02 72 -73 72 C-70.075 89.551 -70.075 89.551 -63.188 95.875 C-55.364 101.091 -48.283 102.002 -39 101 C-32.777 99.432 -28.085 97.076 -24 92 C-23.834 91.566 -23.834 91.566 -22.991 89.37 C-21 87 -21 87 -19.032 86.563 C-16.369 86.419 -13.748 86.439 -11.082 86.512 C-10.596 86.515 -10.596 86.515 -8.135 86.533 C-5.027 86.561 -1.92 86.624 1.188 86.688 C3.294 86.713 5.4 86.735 7.506 86.756 C12.671 86.811 17.835 86.897 23 87 C22.694 88.436 22.385 89.871 22.074 91.305 C21.903 92.104 21.731 92.903 21.554 93.727 C17.759 109.303 5.718 120.363 -7.359 128.461 C-25.207 138.343 -50.349 139.339 -69.875 134.5 C-88.35 128.763 -102.537 118.861 -112.066 101.785 C-122.706 81.456 -124.011 54.881 -117.377 33.019 C-113.422 21.066 -107.873 11.904 -99 3 C-98.385 2.362 -97.77 1.724 -97.137 1.066 C-71.881 -23.216 -26.444 -19.674 0 0 Z M-68 29 C-73 38.49 -73 38.49 -73 43 C-56.17 43 -39.34 43 -22 43 C-24.019 33.916 -25.836 28.455 -32.938 22.562 C-45.224 16.294 -59.147 17.953 -68 29 Z " fill="#FEFEFE" transform="translate(704,123)"/>
<path d="M0 0 C16.5 0 33 0 50 0 C50 50.16 50 100.32 50 152 C76.07 152 102.14 152 129 152 C129 165.2 129 178.4 129 192 C86.43 192 43.86 192 0 192 C0 128.64 0 65.28 0 0 Z " fill="#FEFEFE" transform="translate(1078,64)"/>
</svg>
