<?xml version="1.0" encoding="UTF-8"?>
<!-- Generator: visioncortex VTracer 0.6.12 -->
<svg version="1.1" xmlns="http://www.w3.org/2000/svg" width="608" height="320">
<path d="M0 0 C19.194 17.973 28.522 44.421 29.583 70.371 C30.462 101.122 27.201 133.592 5.457 157.301 C4.832 158.006 4.207 158.711 3.562 159.438 C-9.526 173.433 -28.867 180.839 -47.82 181.504 C-70.762 181.889 -91.135 176.656 -108.234 160.57 C-108.996 159.821 -109.758 159.072 -110.543 158.301 C-111.171 157.686 -111.799 157.071 -112.445 156.438 C-134.271 133.325 -136.278 99.899 -135.679 69.93 C-134.682 43.359 -125.131 18.02 -105.73 -0.449 C-76.735 -25.43 -28.798 -25.087 0 0 Z M-69.543 26.301 C-81.558 37.344 -84.984 55.488 -85.667 71.144 C-86.875 117.793 -86.875 117.793 -71.543 134.301 C-66.433 139.605 -60.498 142.35 -53.168 142.738 C-46.242 142.452 -39.949 139.946 -34.793 135.301 C-19.306 118.065 -19.569 90.991 -20.543 69.301 C-21.837 53.108 -25.34 37.529 -37.125 25.715 C-46.513 17.811 -60.18 19.257 -69.543 26.301 Z " fill="#FEFEFE" transform="translate(436.54296875,56.69921875)"/>
<path d="M0 0 C11.106 11.557 14.728 24.786 14.457 40.488 C13.625 62.986 -1.231 79.034 -16.75 93.688 C-19.367 96.081 -22.052 98.385 -24.75 100.688 C-26.483 102.189 -28.214 103.694 -29.945 105.199 C-35.595 110.107 -41.26 114.998 -46.938 119.875 C-47.446 120.313 -47.955 120.751 -48.479 121.202 C-54.185 126.094 -59.974 130.874 -65.75 135.688 C-38.69 136.018 -11.63 136.347 16.25 136.688 C16.25 149.227 16.25 161.768 16.25 174.688 C-32.26 174.688 -80.77 174.688 -130.75 174.688 C-130.75 141.688 -130.75 141.688 -125.75 136.688 C-120.115 131.36 -114.426 126.164 -108.375 121.312 C-103.336 117.261 -98.645 112.914 -93.942 108.485 C-90.479 105.242 -86.957 102.153 -83.25 99.188 C-78.185 95.133 -73.458 90.783 -68.733 86.344 C-65.768 83.559 -62.791 80.819 -59.688 78.188 C-36.042 57.606 -36.042 57.606 -34.535 42.539 C-34.247 35.795 -35.932 30.649 -39.438 24.938 C-45.486 19.053 -52.817 17.372 -61.023 17.469 C-67.895 18.02 -74.49 20.161 -79.75 24.688 C-84.908 30.774 -85.746 36.673 -87.75 44.688 C-102.6 44.688 -117.45 44.688 -132.75 44.688 C-132.75 25.976 -128.852 13.572 -116.086 0 C-86.184 -29.602 -30.132 -28.522 0 0 Z " fill="#FEFEFE" transform="translate(283.75,59.3125)"/>
<path d="M0 0 C47.52 0 95.04 0 144 0 C144 44.576 144 44.576 137.157 55.205 C135.749 57.394 134.464 59.63 133.185 61.896 C131.741 64.454 130.291 67.007 128.812 69.545 C124.587 76.807 120.747 84.233 117.006 91.753 C116.706 92.357 116.405 92.961 116.096 93.583 C114.547 96.701 113.002 99.821 111.46 102.942 C109.584 106.739 107.693 110.529 105.798 114.318 C105.484 114.946 105.17 115.573 104.847 116.22 C104.21 117.492 103.574 118.765 102.938 120.037 C101.336 123.24 99.737 126.444 98.138 129.648 C94.517 136.904 90.893 144.159 87.268 151.413 C80.51 164.941 73.754 178.47 67 192 C49.84 192 32.68 192 15 192 C16.544 187.368 18.117 183.582 20.344 179.301 C20.669 178.673 20.994 178.045 21.329 177.398 C22.382 175.367 23.441 173.34 24.5 171.312 C25.233 169.902 25.966 168.491 26.698 167.08 C31.294 158.235 35.921 149.406 40.578 140.594 C43.406 135.24 46.202 129.87 49 124.5 C53.052 116.725 57.122 108.959 61.211 101.203 C64.491 94.978 67.748 88.74 71 82.5 C74.761 75.286 78.527 68.076 82.312 60.875 C82.684 60.167 83.056 59.458 83.439 58.729 C86.914 52.127 90.463 45.57 94 39 C78.49 38.835 78.49 38.835 0 38 C0 25.46 0 12.92 0 0 Z " fill="#FEFEFE" transform="translate(8,42)"/>
<path d="M0 0 C16.02 11.271 24.244 26.689 28.188 45.539 C32.007 70.388 28.776 95.063 14.312 115.977 C5.031 127.315 -6.27 134.385 -20.812 136.539 C-36.05 137.823 -49.109 135.551 -61.812 126.539 C-66.499 122.562 -69.631 118.841 -72.812 113.539 C-73.142 135.649 -73.473 157.759 -73.812 180.539 C-81.733 180.539 -89.652 180.539 -97.812 180.539 C-97.812 119.159 -97.812 57.779 -97.812 -5.461 C-89.892 -5.461 -81.973 -5.461 -73.812 -5.461 C-73.483 1.469 -73.152 8.399 -72.812 15.539 C-70.832 12.899 -68.853 10.259 -66.812 7.539 C-49.876 -10.863 -20.937 -12.547 0 0 Z M-62.5 26.102 C-74.121 40.235 -75.093 58.075 -73.812 75.539 C-72.587 84.829 -69.303 92.979 -63.812 100.539 C-63.361 101.184 -62.91 101.828 -62.445 102.492 C-57.177 109.338 -49.522 113.863 -41.012 115.289 C-40.286 115.372 -39.56 115.454 -38.812 115.539 C-38.118 115.622 -37.423 115.704 -36.707 115.789 C-26.982 116.356 -17.141 112.911 -9.809 106.574 C1.715 94.825 4.366 80.844 4.438 64.977 C4.458 63.86 4.479 62.743 4.5 61.592 C4.568 46.881 0.75 33.501 -9.43 22.586 C-25.674 8.632 -48.073 11.105 -62.5 26.102 Z " fill="#FEFEFE" transform="translate(569.8125,100.4609375)"/>
</svg>
