<?xml version="1.0" encoding="UTF-8"?>
<!-- Generator: visioncortex VTracer 0.6.12 -->
<svg version="1.1" xmlns="http://www.w3.org/2000/svg" width="112" height="80">
<path d="M0 0 C3.983 2.779 7.167 5.67 8.324 10.57 C8.444 11.331 8.564 12.091 8.688 12.875 C4.993 13.104 1.375 13.244 -2.312 12.875 C-4.625 10.812 -4.625 10.812 -6.312 8.875 C-9.824 8.875 -11.576 9.163 -14.125 11.625 C-15.409 14.057 -15.936 16.161 -16.312 18.875 C-15.632 18.401 -14.951 17.926 -14.25 17.438 C-10.236 15.302 -6.766 14.36 -2.227 15.312 C2.423 16.834 4.985 18.659 7.688 22.875 C9.781 27.061 9.111 32.316 8.688 36.875 C6.411 41.778 3.489 44.429 -1.312 46.875 C-7.75 48.648 -13.371 47.857 -19.312 44.875 C-23.983 41.22 -26.769 36.646 -27.616 30.766 C-27.75 28.501 -27.78 26.268 -27.75 24 C-27.742 23.205 -27.733 22.41 -27.725 21.591 C-27.524 14.615 -26.492 9.257 -21.594 4.047 C-15.273 -1.685 -8.115 -2.756 0 0 Z M-14.312 25.875 C-16.312 28.875 -16.312 28.875 -16.188 32.375 C-15.312 35.875 -15.312 35.875 -13.688 37.875 C-10.197 39.345 -7.921 38.859 -4.312 37.875 C-1.724 35.621 -1.37 34.27 -0.875 30.875 C-1.415 27.175 -2.353 26.095 -5.312 23.875 C-9.108 22.038 -11.078 23.492 -14.312 25.875 Z " fill="#FFFFFF" transform="translate(48.3125,16.125)"/>
<path d="M0 0 C0 15.51 0 31.02 0 47 C-3.63 47 -7.26 47 -11 47 C-11.33 35.12 -11.66 23.24 -12 11 C-14.64 12.65 -17.28 14.3 -20 16 C-20.66 16 -21.32 16 -22 16 C-22.651 12.811 -22.793 10.173 -22 7 C-15.517 -0.746 -10.368 0 0 0 Z " fill="#FFFFFF" transform="translate(91,16)"/>
<path d="M0 0 C3.062 0.312 3.062 0.312 5 1.375 C6.679 4.437 5.749 7.006 5.062 10.312 C3.082 10.972 1.103 11.633 -0.938 12.312 C-3.5 10.125 -3.5 10.125 -5.938 7.312 C-5.833 2.827 -4.671 0.497 0 0 Z " fill="#FFFFFF" transform="translate(64.9375,51.6875)"/>
</svg>
