<?xml version="1.0" encoding="UTF-8"?>
<!-- Generator: visioncortex VTracer 0.6.12 -->
<svg version="1.1" xmlns="http://www.w3.org/2000/svg" width="781" height="320">
<path d="M0 0 C109.661 0 109.661 0 136.16 18.801 C138 20 138 20 141 21 C141.134 21.299 141.134 21.299 141.812 22.812 C143 25 143 25 146.062 27 C149 29 149 29 149.688 31.188 C149.791 31.786 149.894 32.384 150 33 C150.99 33.33 151.98 33.66 153 34 C155.466 37.263 157.199 39.995 158 44 C158.304 44.59 158.608 45.181 158.922 45.789 C160.113 48.233 160.869 50.64 161.625 53.25 C161.885 54.142 162.146 55.034 162.414 55.953 C162.607 56.629 162.801 57.304 163 58 C163.66 58 164.32 58 165 58 C166.739 70.174 167.114 82.349 167.176 94.631 C167.184 95.998 167.194 97.365 167.208 98.732 C167.226 100.679 167.229 102.627 167.23 104.574 C167.235 105.715 167.239 106.855 167.243 108.03 C166.895 112.284 165.341 114.488 163 118 C162.402 119.867 162.402 119.867 161.938 121.875 C161.77 122.578 161.602 123.28 161.43 124.004 C161.087 125.596 160.813 127.203 160.562 128.812 C159.899 131.391 158.887 132.191 157 134 C156.856 134.639 156.711 135.279 156.562 135.938 C155.791 138.765 154.081 139.982 152 142 C151.691 142.681 151.381 143.361 151.062 144.062 C150 146 150 146 147.777 147.312 C144.639 149.22 142.182 151.432 139.5 153.938 C130.196 162.601 130.196 162.601 126 164 C124.371 164.763 122.747 165.535 121.125 166.312 C111.416 170.694 101.898 173.207 91.375 174.688 C90.536 174.807 89.697 174.926 88.833 175.049 C59.68 178.801 28.843 177 0 177 C0 118.59 0 60.18 0 0 Z M47 35 C47.66 35.66 48.32 36.32 49 37 C49.246 38.839 49.246 38.839 49.241 41.113 C49.242 41.543 49.242 41.543 49.249 43.722 C49.242 44.668 49.234 45.615 49.227 46.59 C49.227 47.585 49.228 48.581 49.228 49.606 C49.227 52.907 49.211 56.207 49.195 59.508 C49.192 61.792 49.189 64.076 49.187 66.36 C49.179 72.38 49.159 78.4 49.137 84.421 C49.117 90.56 49.108 96.7 49.098 102.84 C49.076 114.893 49.042 126.947 49 139 C53.033 139.246 57.067 139.46 61.103 139.647 C62.47 139.715 63.836 139.79 65.202 139.875 C78.847 140.708 90.929 138.409 102 130 C105.88 126.354 108.1 122.969 110 118 C110.495 117.835 110.495 117.835 113 117 C113.124 115.866 113.248 114.731 113.375 113.562 C113.581 112.387 113.788 111.211 114 110 C114.66 109.67 115.32 109.34 116 109 C120.385 96.618 119.877 82.662 117 70 C116.34 69.01 115.68 68.02 115 67 C112.848 63.772 112.799 62.716 113 59 C112.505 58.835 112.505 58.835 110 58 C109.333 56.333 108.667 54.667 108 53 C105.732 49.728 103.887 47.296 100 46 C99.34 45.34 98.68 44.68 98 44 C93.829 40.923 90.117 39.174 85.125 37.812 C83.973 37.489 82.82 37.165 81.633 36.832 C73.696 35.014 66.108 34.872 58 34.938 C57.47 34.94 57.47 34.94 54.785 34.951 C52.19 34.963 49.595 34.979 47 35 Z M47 37 C47 70.66 47 104.32 47 139 C47.33 139 47.66 139 48 139 C48 105.34 48 71.68 48 37 C47.67 37 47.34 37 47 37 Z M113 61 C114 63 114 63 114 63 Z M164 62 C165 66 165 66 165 66 Z M114 64 C115 66 115 66 115 66 Z M165 105 C165 106.65 165 108.3 165 110 C165.33 110 165.66 110 166 110 C166 108.35 166 106.7 166 105 C165.67 105 165.34 105 165 105 Z M114 110 C115 112 115 112 115 112 Z M47 140 C47 140.33 47 140.66 47 141 C55.25 141 63.5 141 72 141 C72 140.67 72 140.34 72 140 C63.75 140 55.5 140 47 140 Z " fill="#FFFFFF" transform="translate(228,72)"/>
<path d="M0 0 C111.206 0 111.206 0 139 21 C139.701 21.33 140.403 21.66 141.125 22 C143.981 23.523 145.874 25.586 148 28 C148.368 29.324 148.712 30.656 149 32 C149.99 32.33 150.98 32.66 152 33 C152.33 33.99 152.66 34.98 153 36 C153.606 36.571 154.212 37.142 154.836 37.73 C157.562 40.589 159.031 43.753 160.625 47.312 C160.924 47.951 161.223 48.59 161.531 49.248 C164.91 56.627 166.31 63.296 166.301 71.379 C166.305 72.268 166.309 73.157 166.314 74.073 C166.319 75.95 166.32 77.827 166.316 79.703 C166.313 82.53 166.336 85.355 166.361 88.182 C166.392 97.5 166.052 106.056 163.645 115.105 C163 118 163 118 163.001 121.166 C163 124.753 161.758 126.924 160 130 C159.34 130 158.68 130 158 130 C157.938 130.846 157.876 131.691 157.812 132.562 C156.805 136.826 154.886 139.737 152 143 C151.34 143.33 150.68 143.66 150 144 C149.711 144.639 149.423 145.279 149.125 145.938 C148 148 148 148 146.176 148.902 C143.679 150.162 142.075 151.686 140.062 153.625 C103.698 186.318 42.453 177 0 177 C0 118.59 0 60.18 0 0 Z M46 35 C46.66 35.66 47.32 36.32 48 37 C48.246 38.839 48.246 38.839 48.241 41.113 C48.242 41.543 48.242 41.543 48.249 43.722 C48.242 44.668 48.234 45.615 48.227 46.59 C48.227 47.585 48.228 48.581 48.228 49.606 C48.227 52.907 48.211 56.207 48.195 59.508 C48.192 61.792 48.189 64.076 48.187 66.36 C48.179 72.38 48.159 78.4 48.137 84.421 C48.117 90.56 48.108 96.7 48.098 102.84 C48.076 114.893 48.042 126.947 48 139 C52.176 139.246 56.352 139.46 60.531 139.647 C61.946 139.715 63.36 139.79 64.775 139.875 C77.767 140.64 89.299 138.973 100 131 C100 130.34 100 129.68 100 129 C100.598 128.918 101.196 128.835 101.812 128.75 C105.151 127.605 106.314 125.315 107.898 122.277 C109.874 118.192 111.702 114.037 113.562 109.898 C115 107 115 107 117 105 C118.874 99.651 118.184 93.585 118.188 88 C118.2 86.811 118.212 85.623 118.225 84.398 C118.227 83.256 118.228 82.114 118.23 80.938 C118.235 79.895 118.239 78.852 118.243 77.777 C117.994 74.936 117.437 73.424 116 71 C115.693 70.392 115.386 69.783 115.07 69.156 C114.914 68.848 114.914 68.848 114.125 67.285 C113.417 65.878 112.708 64.47 112 63.062 C111.644 62.359 111.288 61.656 110.922 60.932 C109.468 58.038 108.082 55.216 106.938 52.184 C103.989 45.317 95.526 41.673 89 39 C78.486 35.471 68.505 34.852 57.5 34.938 C56.946 34.94 56.946 34.94 54.141 34.951 C51.427 34.963 48.714 34.979 46 35 Z M46 37 C46 70.66 46 104.32 46 139 C46.33 139 46.66 139 47 139 C47 105.34 47 71.68 47 37 C46.67 37 46.34 37 46 37 Z M160 51 C161 53 161 53 161 53 Z M161 53 C162 55 162 55 162 55 Z M162 56 C163 58 163 58 163 58 Z M163 59 C164 62 164 62 164 62 Z M113 62 C114 64 114 64 114 64 Z M164 62 C165 66 165 66 165 66 Z M113 112 C114 114 114 114 114 114 Z M161 121 C162 123 162 123 162 123 Z M160 124 C161 126 161 126 161 126 Z M46 140 C46 140.33 46 140.66 46 141 C54.58 141 63.16 141 72 141 C72 140.67 72 140.34 72 140 C63.42 140 54.84 140 46 140 Z " fill="#FFFFFF" transform="translate(615,72)"/>
<path d="M0 0 C1.328 5.312 -0.552 10.105 -3 15 C-3.359 16.996 -3.695 18.995 -4 21 C-4.66 21 -5.32 21 -6 21 C-6 22.65 -6 24.3 -6 26 C-6.66 26 -7.32 26 -8 26 C-8.33 28.64 -8.66 31.28 -9 34 C-9.66 34 -10.32 34 -11 34 C-10.938 34.825 -10.876 35.65 -10.812 36.5 C-11.047 40.882 -12.326 43.955 -14 48 C-14.66 48 -15.32 48 -16 48 C-16 49.65 -16 51.3 -16 53 C-16.66 53 -17.32 53 -18 53 C-18.33 55.64 -18.66 58.28 -19 61 C-19.66 61 -20.32 61 -21 61 C-22.205 65.658 -23.285 70.236 -24 75 C-24.66 75 -25.32 75 -26 75 C-26 76.65 -26 78.3 -26 80 C-26.66 80 -27.32 80 -28 80 C-27.959 80.949 -27.918 81.897 -27.875 82.875 C-28 86 -28 86 -30 88 C-30.33 88.99 -30.66 89.98 -31 91 C-32 94 -32 94 -33 96 C-33.359 97.996 -33.695 99.995 -34 102 C-34.66 102 -35.32 102 -36 102 C-36.062 102.608 -36.062 102.608 -36.375 105.688 C-36.789 109.065 -37.546 111.898 -39 115 C-39.66 115 -40.32 115 -41 115 C-41 116.98 -41 118.96 -41 121 C-41.66 121 -42.32 121 -43 121 C-43.33 123.64 -43.66 126.28 -44 129 C-44.66 129 -45.32 129 -46 129 C-46.124 130.217 -46.247 131.434 -46.375 132.688 C-46.789 136.065 -47.546 138.898 -49 142 C-49.66 142 -50.32 142 -51 142 C-51 143.65 -51 145.3 -51 147 C-51.66 147.33 -52.32 147.66 -53 148 C-53.414 149.848 -53.414 149.848 -53.625 152.062 C-53.687 152.712 -53.687 152.712 -54 156 C-54.66 156 -55.32 156 -56 156 C-56 157.65 -56 159.3 -56 161 C-56.66 161 -57.32 161 -58 161 C-58.165 162.32 -58.165 162.32 -59 169 C-59.66 169 -60.32 169 -61 169 C-61 170.98 -61 172.96 -61 175 C-61.66 175 -62.32 175 -63 175 C-63.66 175.99 -64.32 176.98 -65 178 C-67.27 178.367 -67.27 178.367 -70.136 178.356 C-70.672 178.358 -70.672 178.358 -73.383 178.366 C-74.544 178.353 -75.706 178.341 -76.902 178.328 C-77.497 178.327 -77.497 178.327 -80.504 178.322 C-83.022 178.316 -85.54 178.302 -88.057 178.281 C-91.918 178.25 -95.778 178.24 -99.639 178.234 C-102.081 178.225 -104.523 178.215 -106.965 178.203 C-107.545 178.201 -107.545 178.201 -110.478 178.19 C-111.553 178.181 -112.627 178.171 -113.734 178.161 C-114.207 178.158 -114.207 178.158 -116.603 178.14 C-119 178 -119 178 -122 177 C-122 175.35 -122 173.7 -122 172 C-122.66 172 -123.32 172 -124 172 C-124 170.35 -124 168.7 -124 167 C-124.66 167 -125.32 167 -126 167 C-126.33 164.36 -126.66 161.72 -127 159 C-127.66 159 -128.32 159 -129 159 C-128.969 158.536 -128.969 158.536 -128.812 156.188 C-129.029 152.511 -129.514 152.383 -132 150 C-132.188 147.313 -132.188 147.313 -132 145 C-132.66 145 -133.32 145 -134 145 C-134.33 142.36 -134.66 139.72 -135 137 C-135.66 137 -136.32 137 -137 137 C-137.33 134.36 -137.66 131.72 -138 129 C-138.66 129 -139.32 129 -140 129 C-140 127.35 -140 125.7 -140 124 C-140.66 124 -141.32 124 -142 124 C-142 122.02 -142 120.04 -142 118 C-142.66 118 -143.32 118 -144 118 C-144.144 117.237 -144.289 116.474 -144.438 115.688 C-145 113 -145 113 -146 110 C-146.33 109.01 -146.66 108.02 -147 107 C-148 105 -148 105 -150 102 C-151.855 98.186 -152.197 95.226 -152 91 C-152.66 91 -153.32 91 -154 91 C-154 89.35 -154 87.7 -154 86 C-154.66 86 -155.32 86 -156 86 C-156.33 83.36 -156.66 80.72 -157 78 C-157.66 78 -158.32 78 -159 78 C-159 76.02 -159 74.04 -159 72 C-159.66 72 -160.32 72 -161 72 C-161.144 71.237 -161.289 70.474 -161.438 69.688 C-162.133 66.363 -162.566 64.434 -165 62 C-165.598 59.906 -165.598 59.906 -166.062 57.5 C-166.827 53.61 -167.766 51.351 -170 48 C-170.359 45.976 -170.501 43.986 -170.656 41.938 C-171.196 38.898 -172.867 37.133 -175 35 C-175.125 31.875 -175.125 31.875 -175 29 C-175.66 29 -176.32 29 -177 29 C-177 27.35 -177 25.7 -177 24 C-177.66 24 -178.32 24 -179 24 C-179.121 23.241 -179.242 22.481 -179.367 21.699 C-179.535 20.705 -179.702 19.711 -179.875 18.688 C-179.956 18.194 -179.956 18.194 -180.367 15.699 C-181 13 -181 13 -183 10 C-184.947 7.079 -185.552 5.407 -186 2 C-185 1 -185 1 -183.02 0.88 C-182.151 0.882 -181.283 0.884 -180.388 0.886 C-179.407 0.887 -178.427 0.887 -177.416 0.887 C-176.349 0.892 -175.283 0.897 -174.184 0.902 C-173.097 0.904 -172.011 0.905 -170.892 0.907 C-167.407 0.912 -163.922 0.925 -160.438 0.938 C-158.081 0.943 -155.725 0.947 -153.369 0.951 C-147.579 0.962 -141.79 0.979 -136 1 C-135.856 1.598 -135.711 2.196 -135.562 2.812 C-135.113 4.562 -134.571 6.287 -134 8 C-132.776 11.673 -131.72 15.195 -131 19 C-130.34 19 -129.68 19 -129 19 C-129 20.98 -129 22.96 -129 25 C-128.34 25 -127.68 25 -127 25 C-127 26.65 -127 28.3 -127 30 C-126.34 30 -125.68 30 -125 30 C-124.835 31.485 -124.835 31.485 -124 39 C-123.34 39 -122.68 39 -122 39 C-120.817 42.036 -119.657 45.079 -118.5 48.125 C-118.166 48.981 -117.832 49.837 -117.488 50.719 C-115.761 55.3 -114.543 59.018 -115 64 C-114.34 64 -113.68 64 -113 64 C-113 65.65 -113 67.3 -113 69 C-112.34 69 -111.68 69 -111 69 C-110.835 70.485 -110.835 70.485 -110 78 C-109.34 78 -108.68 78 -108 78 C-106.198 81.83 -105.804 84.781 -106 89 C-105.34 89 -104.68 89 -104 89 C-104 90.65 -104 92.3 -104 94 C-103.34 94 -102.68 94 -102 94 C-101.835 95.485 -101.835 95.485 -101 103 C-100.34 103 -99.68 103 -99 103 C-99 104.65 -99 106.3 -99 108 C-98.34 108 -97.68 108 -97 108 C-97 109.98 -97 111.96 -97 114 C-96.34 114 -95.68 114 -95 114 C-93.743 116.906 -93 118.796 -93 122 C-92.34 122 -91.68 122 -91 122 C-90.888 121.326 -90.776 120.652 -90.66 119.957 C-89.871 116.421 -88.685 113.081 -87.438 109.688 C-87.321 109.365 -87.321 109.365 -86.729 107.732 C-86.156 106.154 -85.578 104.577 -85 103 C-84.34 103 -83.68 103 -83 103 C-82.67 100.03 -82.34 97.06 -82 94 C-81.34 94 -80.68 94 -80 94 C-80 92.35 -80 90.7 -80 89 C-79.34 89 -78.68 89 -78 89 C-78 87.02 -78 85.04 -78 83 C-77.34 83 -76.68 83 -76 83 C-75.67 80.36 -75.34 77.72 -75 75 C-74.34 75 -73.68 75 -73 75 C-72.976 74.704 -72.976 74.704 -72.852 73.207 C-72.435 68.809 -71.95 65.031 -70 61 C-69.34 61 -68.68 61 -68 61 C-67.951 60.408 -67.902 59.817 -67.852 59.207 C-67.435 54.809 -66.95 51.031 -65 47 C-64.34 47 -63.68 47 -63 47 C-62.845 46.371 -62.845 46.371 -62.062 43.188 C-61.123 39.367 -60.215 36.323 -58 33 C-57.402 31.062 -57.402 31.062 -56.938 29 C-55.663 23.439 -54.174 17.76 -51 13 C-50.586 10.957 -50.586 10.957 -50.375 8.812 C-50.313 8.183 -50.313 8.183 -50 5 C-49.34 5 -48.68 5 -48 5 C-47.34 3.68 -46.68 2.36 -46 1 C-38.41 0.835 -38.41 0.835 0 0 Z M-185 3 C-184 5 -184 5 -184 5 Z M-50 8 C-49 10 -49 10 -49 10 Z M-5 16 C-4 18 -4 18 -4 18 Z M-179 19 C-178 21 -178 21 -178 21 Z M-174 32 C-173 34 -173 34 -173 34 Z M-13 37 C-12 39 -12 39 -12 39 Z M-14 40 C-13 42 -13 42 -13 42 Z M-123 42 C-122 44 -122 44 -122 44 Z M-15 43 C-14 45 -14 45 -14 45 Z M-169 46 C-168 48 -168 48 -168 48 Z M-120 50 C-119 52 -119 52 -119 52 Z M-65 50 C-64 52 -64 52 -64 52 Z M-119 53 C-118 55 -118 55 -118 55 Z M-66 53 C-65 55 -65 55 -65 55 Z M-166 54 C-165 56 -165 56 -165 56 Z M-118 56 C-117 58 -117 58 -117 58 Z M-164 59 C-163 61 -163 61 -163 61 Z M-70 64 C-69 66 -69 66 -69 66 Z M-71 67 C-70 69 -70 69 -70 69 Z M-25 70 C-24 72 -24 72 -24 72 Z M-156 81 C-155 83 -155 83 -155 83 Z M-109 81 C-108 83 -108 83 -108 83 Z M-30 83 C-29 85 -29 85 -29 85 Z M-151 94 C-150 96 -150 96 -150 96 Z M-150 97 C-149 99 -149 99 -149 99 Z M-35 97 C-34 99 -34 99 -34 99 Z M-149 100 C-148 102 -148 102 -148 102 Z M-38 105 C-37 107 -37 107 -37 107 Z M-85 106 C-84 108 -84 108 -84 108 Z M-40 110 C-39 112 -39 112 -39 112 Z M-144 113 C-143 115 -143 115 -143 115 Z M-88 114 C-87 116 -87 116 -87 116 Z M-96 117 C-95 119 -95 119 -95 119 Z M-89 117 C-88 119 -88 119 -88 119 Z M-95 120 C-94 122 -94 122 -94 122 Z M-90 120 C-89 122 -89 122 -89 122 Z M-45 124 C-44 126 -44 126 -44 126 Z M-93 125 C-93 125.99 -93 126.98 -93 128 C-92.34 128 -91.68 128 -91 128 C-91 127.01 -91 126.02 -91 125 C-91.66 125 -92.32 125 -93 125 Z M-48 132 C-47 134 -47 134 -47 134 Z M-50 137 C-49 139 -49 139 -49 139 Z M-55 151 C-54 153 -54 153 -54 153 Z M-126 162 C-125 164 -125 164 -125 164 Z " fill="#FFFFFF" transform="translate(592,71)"/>
<path d="M0 0 C0.963 0.491 1.926 0.982 2.918 1.488 C9.994 5.324 15.551 9.911 21.309 15.449 C27.35 21.175 27.35 21.175 31 23 C31.33 23.99 31.66 24.98 32 26 C33.325 27.342 34.659 28.674 36 30 C39.963 35.541 42.446 40.215 43 47 C45 50 45 50 47 52 C47.476 54.696 47.776 57.276 48 60 C48.093 61.124 48.186 62.248 48.281 63.406 C49.197 75.712 49.261 87.722 48 100 C47.928 100.811 47.856 101.622 47.781 102.457 C47.247 107.753 47.247 107.753 45 110 C43 113 43 113 42.375 116.938 C41.055 123.504 37.058 128.793 33 134 C32.34 134.33 31.68 134.66 31 135 C30.67 135.99 30.34 136.98 30 138 C28.669 138.671 27.335 139.337 26 140 C24.503 141.483 23.049 143.01 21.625 144.562 C6.32 160.183 -14.948 168.956 -36.671 169.293 C-57.884 169.405 -74.886 165.16 -93 154 C-93.66 153.67 -94.32 153.34 -95 153 C-97.447 150.627 -99.818 148.189 -102.188 145.738 C-102.971 144.938 -103.755 144.137 -104.562 143.312 C-105.306 142.546 -106.05 141.779 -106.816 140.988 C-109 139 -109 139 -111.215 137.918 C-113 137 -113 137 -114 134 C-114.594 133.428 -115.189 132.855 -115.801 132.266 C-118.569 129.414 -120.338 126.228 -122.188 122.75 C-122.543 122.12 -122.898 121.489 -123.264 120.84 C-125.761 116.187 -126.608 112.265 -127 107 C-127.66 107 -128.32 107 -129 107 C-129.865 101.02 -130.16 95.21 -130.168 89.172 C-130.171 88.26 -130.175 87.349 -130.178 86.41 C-130.183 84.497 -130.185 82.585 -130.185 80.672 C-130.188 77.745 -130.206 74.818 -130.225 71.891 C-130.228 70.026 -130.23 68.161 -130.23 66.297 C-130.238 65.424 -130.245 64.551 -130.252 63.652 C-130.249 62.837 -130.246 62.022 -130.243 61.183 C-130.244 60.47 -130.246 59.756 -130.247 59.022 C-129.809 55.441 -127.978 52.967 -126 50 C-125.931 49.461 -125.931 49.461 -125.582 46.73 C-124.944 42.64 -123.683 39.923 -121.688 36.312 C-121.39 35.764 -121.39 35.764 -119.887 32.988 C-118.14 30.222 -116.358 28.237 -114 26 C-113.691 25.319 -113.381 24.639 -113.062 23.938 C-112 22 -112 22 -109.875 20.75 C-104.847 17.689 -101.011 13.145 -97.004 8.871 C-95.008 7.007 -93.466 6.122 -91 5 C-89.974 4.416 -88.948 3.832 -87.891 3.23 C-60.984 -11.988 -27.834 -14.721 0 0 Z M-93 23 C-93 23.99 -93 24.98 -93 26 C-95.312 28 -95.312 28 -98 30 C-100.129 31.814 -100.947 32.868 -102 35.5 C-103.265 38.662 -105.002 40.162 -107.562 42.312 C-110.13 45.327 -110.819 48.982 -111.5 52.812 C-111.665 53.534 -111.83 54.256 -112 55 C-112.33 55.165 -112.33 55.165 -114 56 C-115.077 61.275 -115.16 66.487 -115.168 71.855 C-115.171 72.68 -115.175 73.504 -115.178 74.353 C-115.183 76.083 -115.185 77.813 -115.185 79.544 C-115.188 82.19 -115.206 84.836 -115.225 87.482 C-115.228 89.169 -115.23 90.856 -115.23 92.543 C-115.238 93.332 -115.245 94.12 -115.252 94.933 C-115.23 100.279 -114.774 103.226 -111 107 C-110.856 108.093 -110.711 109.186 -110.562 110.312 C-110 114.002 -109.235 116.049 -107 119 C-106.34 119 -105.68 119 -105 119 C-101.182 124.091 -101.182 124.091 -100.562 127.188 C-99.682 130.024 -97.521 130.619 -95 132 C-93.187 133.688 -93.187 133.688 -92 135 C-92.33 135.66 -92.66 136.32 -93 137 C-73.316 152.466 -53.694 157.961 -29 156 C-13.516 154.094 1.884 145.796 13 135 C15 132 15 132 16 129 C16.99 128.67 17.98 128.34 19 128 C19.33 127.01 19.66 126.02 20 125 C20.66 124.34 21.32 123.68 22 123 C22.702 121.348 23.363 119.678 24 118 C24.865 116.058 25.74 114.12 26.625 112.188 C27.071 111.212 27.517 110.236 27.977 109.23 C28.314 108.494 28.652 107.758 29 107 C29.66 107 30.32 107 31 107 C31.062 106.361 31.062 106.361 31.375 103.125 C31.75 99.25 31.75 99.25 34 97 C36.709 84.898 37.689 70.378 32 59 C31.641 57.004 31.305 55.005 31 53 C30.34 53 29.68 53 29 53 C27.849 50.752 26.704 48.502 25.562 46.25 C25.237 45.616 24.912 44.982 24.576 44.328 C23.029 41.266 21.608 38.394 21 35 C20.34 35 19.68 35 19 35 C18.948 34.68 18.948 34.68 18.688 33.062 C18.461 32.382 18.234 31.701 18 31 C17.01 30.67 16.02 30.34 15 30 C14.667 28.667 14.333 27.333 14 26 C3.71 13.846 -13.642 6.684 -29 4 C-50.859 2.472 -77.213 5.678 -93 23 Z M38 37 C39 39 39 39 39 39 Z M46 56 C47 58 47 58 47 58 Z M-129 57 C-128 60 -128 60 -128 60 Z M-116 64 C-115 68 -115 68 -115 68 Z M-117 69 C-117 76.26 -117 83.52 -117 91 C-116.67 91 -116.34 91 -116 91 C-116 83.74 -116 76.48 -116 69 C-116.33 69 -116.66 69 -117 69 Z M-116 92 C-115 96 -115 96 -115 96 Z M-129 100 C-128 103 -128 103 -128 103 Z M46 102 C47 104 47 104 47 104 Z M38 121 C39 123 39 123 39 123 Z " fill="#FFFFFF" transform="translate(130,80)"/>
<path d="M0 0 C0.825 0.33 0.825 0.33 5 2 C5.443 2.175 5.443 2.175 7.688 3.062 C9.985 3.994 11.792 4.837 13.742 6.367 C16.41 8.296 19.169 9.68 22.125 11.125 C22.652 11.384 22.652 11.384 25.32 12.695 C26.205 13.126 27.089 13.556 28 14 C30 15 30 15 31.822 16.382 C35.807 19.343 40.194 21.666 44.5 24.125 C45.45 24.675 46.4 25.226 47.379 25.793 C48.295 26.318 49.212 26.842 50.156 27.383 C50.99 27.861 51.823 28.34 52.682 28.833 C54.81 29.905 56.672 30.539 59 31 C59 31.66 59 32.32 59 33 C58.551 33.179 58.551 33.179 56.277 34.082 C50.508 36.555 45.062 39.675 39.562 42.688 C38.449 43.294 37.336 43.901 36.189 44.525 C33.458 46.014 30.728 47.506 28 49 C28 49.66 28 50.32 28 51 C27.629 51.052 27.629 51.052 25.75 51.312 C22.796 52.051 21.347 53.122 19 55 C18.505 55.165 18.505 55.165 16 56 C13.992 56.984 11.991 57.982 10 59 C10 59.66 10 60.32 10 61 C9.278 61.124 8.556 61.248 7.812 61.375 C5 62 5 62 0 64 C0 42.88 0 21.76 0 0 Z " fill="#FFFFFF" transform="translate(68,128)"/>
<path d="M0 0 C0.33 0 0.66 0 1 0 C1 58.08 1 116.16 1 176 C0.67 176 0.34 176 0 176 C0 117.92 0 59.84 0 0 Z " fill="#FFFFFF" transform="translate(613,72)"/>
<path d="M0 0 C0.33 0 0.66 0 1 0 C1 58.08 1 116.16 1 176 C0.67 176 0.34 176 0 176 C0 117.92 0 59.84 0 0 Z " fill="#FFFFFF" transform="translate(226,72)"/>
<path d="M0 0 C0.33 0 0.66 0 1 0 C1 20.79 1 41.58 1 63 C0.67 63 0.34 63 0 63 C0 42.21 0 21.42 0 0 Z " fill="#FFFFFF" transform="translate(66,128)"/>
<path d="M0 0 C0.33 0 0.66 0 1 0 C1 8.25 1 16.5 1 25 C0.67 25 0.34 25 0 25 C0 16.75 0 8.5 0 0 Z " fill="#FFFFFF" transform="translate(731,147)"/>
<path d="M0 0 C7.59 0 15.18 0 23 0 C23 0.33 23 0.66 23 1 C15.41 1 7.82 1 0 1 C0 0.67 0 0.34 0 0 Z " fill="#FFFFFF" transform="translate(78,234)"/>
<path d="M0 0 C7.59 0 15.18 0 23 0 C23 0.33 23 0.66 23 1 C15.41 1 7.82 1 0 1 C0 0.67 0 0.34 0 0 Z " fill="#FFFFFF" transform="translate(78,85)"/>
<path d="M0 0 C0.33 0 0.66 0 1 0 C1 5.28 1 10.56 1 16 C0.67 16 0.34 16 0 16 C0 10.72 0 5.44 0 0 Z " fill="#FFFFFF" transform="translate(180,152)"/>
<path d="M0 0 C0.33 0 0.66 0 1 0 C1 4.62 1 9.24 1 14 C0.67 14 0.34 14 0 14 C0 9.38 0 4.76 0 0 Z " fill="#FFFFFF" transform="translate(396,153)"/>
<path d="M0 0 C0.33 0 0.66 0 1 0 C1.25 7.5 1.25 7.5 -1 12 C-0.67 8.04 -0.34 4.08 0 0 Z " fill="#FFFFFF" transform="translate(179,168)"/>
<path d="M0 0 C2.353 4.707 2.171 6.869 2 12 C1.67 12 1.34 12 1 12 C0.67 8.04 0.34 4.08 0 0 Z " fill="#FFFFFF" transform="translate(178,140)"/>
<path d="M0 0 C3.63 0 7.26 0 11 0 C11 0.33 11 0.66 11 1 C7.37 1 3.74 1 0 1 C0 0.67 0 0.34 0 0 Z " fill="#FFFFFF" transform="translate(692,71)"/>
<path d="M0 0 C3.63 0 7.26 0 11 0 C11 0.33 11 0.66 11 1 C7.37 1 3.74 1 0 1 C0 0.67 0 0.34 0 0 Z " fill="#FFFFFF" transform="translate(305,71)"/>
<path d="M0 0 C3.3 0 6.6 0 10 0 C10 0.33 10 0.66 10 1 C6.7 1 3.4 1 0 1 C0 0.67 0 0.34 0 0 Z " fill="#FFFFFF" transform="translate(308,248)"/>
<path d="M0 0 C0.33 0 0.66 0 1 0 C1 3.3 1 6.6 1 10 C0.67 10 0.34 10 0 10 C0 6.7 0 3.4 0 0 Z " fill="#FFFFFF" transform="translate(345,155)"/>
<path d="M0 0 C2.97 0 5.94 0 9 0 C9 0.33 9 0.66 9 1 C6.03 1 3.06 1 0 1 C0 0.67 0 0.34 0 0 Z " fill="#FFFFFF" transform="translate(695,248)"/>
<path d="M0 0 C0.33 0 0.66 0 1 0 C1 2.97 1 5.94 1 9 C0.67 9 0.34 9 0 9 C0 6.03 0 3.06 0 0 Z " fill="#FFFFFF" transform="translate(395,168)"/>
<path d="M0 0 C0.33 0 0.66 0 1 0 C1 2.97 1 5.94 1 9 C0.67 9 0.34 9 0 9 C0 6.03 0 3.06 0 0 Z " fill="#FFFFFF" transform="translate(344,146)"/>
<path d="M0 0 C0.33 0 0.66 0 1 0 C1 2.97 1 5.94 1 9 C0.67 9 0.34 9 0 9 C0 6.03 0 3.06 0 0 Z " fill="#FFFFFF" transform="translate(395,143)"/>
<path d="M0 0 C0.33 0 0.66 0 1 0 C1 2.64 1 5.28 1 8 C0.67 8 0.34 8 0 8 C0 5.36 0 2.72 0 0 Z " fill="#FFFFFF" transform="translate(344,165)"/>
<path d="M0 0 C0.33 0 0.66 0 1 0 C1 2.64 1 5.28 1 8 C0.67 8 0.34 8 0 8 C0 5.36 0 2.72 0 0 Z " fill="#FFFFFF" transform="translate(163,164)"/>
<path d="M0 0 C0.33 0 0.66 0 1 0 C1 2.64 1 5.28 1 8 C0.67 8 0.34 8 0 8 C0 5.36 0 2.72 0 0 Z " fill="#FFFFFF" transform="translate(163,148)"/>
<path d="M0 0 C2.64 0 5.28 0 8 0 C8 0.33 8 0.66 8 1 C5.36 1 2.72 1 0 1 C0 0.67 0 0.34 0 0 Z " fill="#FFFFFF" transform="translate(684,109)"/>
<path d="M0 0 C2.64 0 5.28 0 8 0 C8 0.33 8 0.66 8 1 C5.36 1 2.72 1 0 1 C0 0.67 0 0.34 0 0 Z " fill="#FFFFFF" transform="translate(298,109)"/>
<path d="M0 0 C2.31 0 4.62 0 7 0 C7 0.33 7 0.66 7 1 C4.69 1 2.38 1 0 1 C0 0.67 0 0.34 0 0 Z " fill="#FFFFFF" transform="translate(687,210)"/>
<path d="M0 0 C2.31 0 4.62 0 7 0 C7 0.33 7 0.66 7 1 C4.69 1 2.38 1 0 1 C0 0.67 0 0.34 0 0 Z " fill="#FFFFFF" transform="translate(300,210)"/>
<path d="M0 0 C2.31 0 4.62 0 7 0 C7 0.33 7 0.66 7 1 C4.69 1 2.38 1 0 1 C0 0.67 0 0.34 0 0 Z " fill="#FFFFFF" transform="translate(703,72)"/>
<path d="M0 0 C2.31 0 4.62 0 7 0 C7 0.33 7 0.66 7 1 C4.69 1 2.38 1 0 1 C0 0.67 0 0.34 0 0 Z " fill="#FFFFFF" transform="translate(316,72)"/>
<path d="M0 0 C1.98 0 3.96 0 6 0 C6 0.33 6 0.66 6 1 C4.02 1 2.04 1 0 1 C0 0.67 0 0.34 0 0 Z " fill="#FFFFFF" transform="translate(705,247)"/>
<path d="M0 0 C1.98 0 3.96 0 6 0 C6 0.33 6 0.66 6 1 C4.02 1 2.04 1 0 1 C0 0.67 0 0.34 0 0 Z " fill="#FFFFFF" transform="translate(318,247)"/>
<path d="M0 0 C1.98 0 3.96 0 6 0 C6 0.33 6 0.66 6 1 C4.02 1 2.04 1 0 1 C0 0.67 0 0.34 0 0 Z " fill="#FFFFFF" transform="translate(324,246)"/>
<path d="M0 0 C1.98 0 3.96 0 6 0 C6 0.33 6 0.66 6 1 C4.02 1 2.04 1 0 1 C0 0.67 0 0.34 0 0 Z " fill="#FFFFFF" transform="translate(710,73)"/>
<path d="M0 0 C1.98 0 3.96 0 6 0 C6 0.33 6 0.66 6 1 C4.02 1 2.04 1 0 1 C0 0.67 0 0.34 0 0 Z " fill="#FFFFFF" transform="translate(323,73)"/>
<path d="M0 0 C1.65 0 3.3 0 5 0 C5 0.33 5 0.66 5 1 C3.35 1 1.7 1 0 1 C0 0.67 0 0.34 0 0 Z " fill="#FFFFFF" transform="translate(711,246)"/>
<path d="M0 0 C1.65 0 3.3 0 5 0 C5 0.33 5 0.66 5 1 C3.35 1 1.7 1 0 1 C0 0.67 0 0.34 0 0 Z " fill="#FFFFFF" transform="translate(101,233)"/>
<path d="M0 0 C1.65 0 3.3 0 5 0 C5 0.33 5 0.66 5 1 C3.35 1 1.7 1 0 1 C0 0.67 0 0.34 0 0 Z " fill="#FFFFFF" transform="translate(72,233)"/>
<path d="M0 0 C0.33 0 0.66 0 1 0 C1 1.65 1 3.3 1 5 C0.67 5 0.34 5 0 5 C0 3.35 0 1.7 0 0 Z " fill="#FFFFFF" transform="translate(394,138)"/>
<path d="M0 0 C1.65 0 3.3 0 5 0 C5 0.33 5 0.66 5 1 C3.35 1 1.7 1 0 1 C0 0.67 0 0.34 0 0 Z " fill="#FFFFFF" transform="translate(306,110)"/>
<path d="M0 0 C1.65 0 3.3 0 5 0 C5 0.33 5 0.66 5 1 C3.35 1 1.7 1 0 1 C0 0.67 0 0.34 0 0 Z " fill="#FFFFFF" transform="translate(101,86)"/>
<path d="M0 0 C1.65 0 3.3 0 5 0 C5 0.33 5 0.66 5 1 C3.35 1 1.7 1 0 1 C0 0.67 0 0.34 0 0 Z " fill="#FFFFFF" transform="translate(72,86)"/>
<path d="M0 0 C4 1 4 1 4 1 Z " fill="#FFFFFF" transform="translate(109,248)"/>
<path d="M0 0 C4 1 4 1 4 1 Z " fill="#FFFFFF" transform="translate(717,245)"/>
<path d="M0 0 C4 1 4 1 4 1 Z " fill="#FFFFFF" transform="translate(330,245)"/>
<path d="M0 0 C4 1 4 1 4 1 Z " fill="#FFFFFF" transform="translate(106,232)"/>
<path d="M0 0 C4 1 4 1 4 1 Z " fill="#FFFFFF" transform="translate(68,232)"/>
<path d="M0 0 C0.66 0.33 1.32 0.66 2 1 C1.01 1 0.02 1 -1 1 C-0.67 0.67 -0.34 0.34 0 0 Z " fill="#FFFFFF" transform="translate(753,227)"/>
<path d="M0 0 C0.66 0.33 1.32 0.66 2 1 C1.01 1 0.02 1 -1 1 C-0.67 0.67 -0.34 0.34 0 0 Z " fill="#FFFFFF" transform="translate(139,215)"/>
<path d="M0 0 C4 1 4 1 4 1 Z " fill="#FFFFFF" transform="translate(694,209)"/>
<path d="M0 0 C4 1 4 1 4 1 Z " fill="#FFFFFF" transform="translate(307,209)"/>
<path d="M0 0 C4 1 4 1 4 1 Z " fill="#FFFFFF" transform="translate(698,208)"/>
<path d="M0 0 C1 4 1 4 1 4 Z " fill="#FFFFFF" transform="translate(779,186)"/>
<path d="M0 0 C1 4 1 4 1 4 Z " fill="#FFFFFF" transform="translate(780,182)"/>
<path d="M0 0 C1 4 1 4 1 4 Z " fill="#FFFFFF" transform="translate(16,177)"/>
<path d="M0 0 C1 4 1 4 1 4 Z " fill="#FFFFFF" transform="translate(343,174)"/>
<path d="M0 0 C1 4 1 4 1 4 Z " fill="#FFFFFF" transform="translate(730,173)"/>
<path d="M0 0 C1 4 1 4 1 4 Z " fill="#FFFFFF" transform="translate(162,173)"/>
<path d="M0 0 C1 4 1 4 1 4 Z " fill="#FFFFFF" transform="translate(162,143)"/>
<path d="M0 0 C1 4 1 4 1 4 Z " fill="#FFFFFF" transform="translate(343,142)"/>
<path d="M0 0 C1 4 1 4 1 4 Z " fill="#FFFFFF" transform="translate(16,139)"/>
<path d="M0 0 C4 1 4 1 4 1 Z " fill="#FFFFFF" transform="translate(693,110)"/>
<path d="M0 0 C0.99 0.33 1.98 0.66 3 1 C2.01 1 1.02 1 0 1 C0 0.67 0 0.34 0 0 Z " fill="#FFFFFF" transform="translate(138,103)"/>
<path d="M0 0 C4 1 4 1 4 1 Z " fill="#FFFFFF" transform="translate(106,87)"/>
<path d="M0 0 C4 1 4 1 4 1 Z " fill="#FFFFFF" transform="translate(68,87)"/>
<path d="M0 0 C4 1 4 1 4 1 Z " fill="#FFFFFF" transform="translate(720,75)"/>
<path d="M0 0 C4 1 4 1 4 1 Z " fill="#FFFFFF" transform="translate(333,75)"/>
<path d="M0 0 C4 1 4 1 4 1 Z " fill="#FFFFFF" transform="translate(716,74)"/>
<path d="M0 0 C4 1 4 1 4 1 Z " fill="#FFFFFF" transform="translate(329,74)"/>
<path d="M0 0 C4 1 4 1 4 1 Z " fill="#FFFFFF" transform="translate(109,71)"/>
<path d="M0 0 C3 1 3 1 3 1 Z " fill="#FFFFFF" transform="translate(66,248)"/>
<path d="M0 0 C3 1 3 1 3 1 Z " fill="#FFFFFF" transform="translate(113,247)"/>
<path d="M0 0 C3 1 3 1 3 1 Z " fill="#FFFFFF" transform="translate(62,247)"/>
<path d="M0 0 C3 1 3 1 3 1 Z " fill="#FFFFFF" transform="translate(116,246)"/>
<path d="M0 0 C3 1 3 1 3 1 Z " fill="#FFFFFF" transform="translate(59,246)"/>
<path d="M0 0 C3 1 3 1 3 1 Z " fill="#FFFFFF" transform="translate(119,245)"/>
<path d="M0 0 C3 1 3 1 3 1 Z " fill="#FFFFFF" transform="translate(721,244)"/>
<path d="" fill="#FFFFFF" transform="translate(0,0)"/>
<path d="M0 0 C3 1 3 1 3 1 Z " fill="#FFFFFF" transform="translate(334,244)"/>
<path d="M0 0 C3 1 3 1 3 1 Z " fill="#FFFFFF" transform="translate(724,243)"/>
<path d="M0 0 C3 1 3 1 3 1 Z " fill="#FFFFFF" transform="translate(337,243)"/>
<path d="M0 0 C3 1 3 1 3 1 Z " fill="#FFFFFF" transform="translate(727,242)"/>
<path d="M0 0 C3 1 3 1 3 1 Z " fill="#FFFFFF" transform="translate(340,242)"/>
<path d="" fill="#FFFFFF" transform="translate(0,0)"/>
<path d="M0 0 C3 1 3 1 3 1 Z " fill="#FFFFFF" transform="translate(343,241)"/>
<path d="M0 0 C3 1 3 1 3 1 Z " fill="#FFFFFF" transform="translate(732,240)"/>
<path d="" fill="#FFFFFF" transform="translate(0,0)"/>
<path d="M0 0 C3 1 3 1 3 1 Z " fill="#FFFFFF" transform="translate(110,231)"/>
<path d="M0 0 C3 1 3 1 3 1 Z " fill="#FFFFFF" transform="translate(65,231)"/>
<path d="M0 0 C3 1 3 1 3 1 Z " fill="#FFFFFF" transform="translate(113,230)"/>
<path d="M0 0 C3 1 3 1 3 1 Z " fill="#FFFFFF" transform="translate(62,230)"/>
<path d="M0 0 C3 1 3 1 3 1 Z " fill="#FFFFFF" transform="translate(116,229)"/>
<path d="" fill="#FFFFFF" transform="translate(0,0)"/>
<path d="" fill="#FFFFFF" transform="translate(0,0)"/>
<path d="" fill="#FFFFFF" transform="translate(0,0)"/>
<path d="" fill="#FFFFFF" transform="translate(0,0)"/>
<path d="M0 0 C3 1 3 1 3 1 Z " fill="#FFFFFF" transform="translate(312,208)"/>
<path d="M0 0 C3 1 3 1 3 1 Z " fill="#FFFFFF" transform="translate(315,207)"/>
<path d="" fill="#FFFFFF" transform="translate(0,0)"/>
<path d="" fill="#FFFFFF" transform="translate(0,0)"/>
<path d="" fill="#FFFFFF" transform="translate(0,0)"/>
<path d="" fill="#FFFFFF" transform="translate(0,0)"/>
<path d="" fill="#FFFFFF" transform="translate(0,0)"/>
<path d="" fill="#FFFFFF" transform="translate(0,0)"/>
<path d="" fill="#FFFFFF" transform="translate(0,0)"/>
<path d="" fill="#FFFFFF" transform="translate(0,0)"/>
<path d="" fill="#FFFFFF" transform="translate(0,0)"/>
<path d="" fill="#FFFFFF" transform="translate(0,0)"/>
<path d="" fill="#FFFFFF" transform="translate(0,0)"/>
<path d="" fill="#FFFFFF" transform="translate(0,0)"/>
<path d="" fill="#FFFFFF" transform="translate(0,0)"/>
<path d="" fill="#FFFFFF" transform="translate(0,0)"/>
<path d="" fill="#FFFFFF" transform="translate(0,0)"/>
<path d="" fill="#FFFFFF" transform="translate(0,0)"/>
<path d="" fill="#FFFFFF" transform="translate(0,0)"/>
<path d="" fill="#FFFFFF" transform="translate(0,0)"/>
<path d="" fill="#FFFFFF" transform="translate(0,0)"/>
<path d="" fill="#FFFFFF" transform="translate(0,0)"/>
<path d="" fill="#FFFFFF" transform="translate(0,0)"/>
<path d="" fill="#FFFFFF" transform="translate(0,0)"/>
<path d="" fill="#FFFFFF" transform="translate(0,0)"/>
<path d="" fill="#FFFFFF" transform="translate(0,0)"/>
<path d="" fill="#FFFFFF" transform="translate(0,0)"/>
<path d="" fill="#FFFFFF" transform="translate(0,0)"/>
<path d="" fill="#FFFFFF" transform="translate(0,0)"/>
<path d="" fill="#FFFFFF" transform="translate(0,0)"/>
<path d="" fill="#FFFFFF" transform="translate(0,0)"/>
<path d="" fill="#FFFFFF" transform="translate(0,0)"/>
<path d="" fill="#FFFFFF" transform="translate(0,0)"/>
<path d="" fill="#FFFFFF" transform="translate(0,0)"/>
<path d="" fill="#FFFFFF" transform="translate(0,0)"/>
<path d="" fill="#FFFFFF" transform="translate(0,0)"/>
<path d="" fill="#FFFFFF" transform="translate(0,0)"/>
<path d="" fill="#FFFFFF" transform="translate(0,0)"/>
<path d="" fill="#FFFFFF" transform="translate(0,0)"/>
<path d="" fill="#FFFFFF" transform="translate(0,0)"/>
<path d="M0 0 C3 1 3 1 3 1 Z " fill="#FFFFFF" transform="translate(317,113)"/>
<path d="M0 0 C3 1 3 1 3 1 Z " fill="#FFFFFF" transform="translate(701,112)"/>
<path d="" fill="#FFFFFF" transform="translate(0,0)"/>
<path d="M0 0 C3 1 3 1 3 1 Z " fill="#FFFFFF" transform="translate(314,112)"/>
<path d="M0 0 C3 1 3 1 3 1 Z " fill="#FFFFFF" transform="translate(698,111)"/>
<path d="M0 0 C3 1 3 1 3 1 Z " fill="#FFFFFF" transform="translate(311,111)"/>
<path d="" fill="#FFFFFF" transform="translate(0,0)"/>
<path d="" fill="#FFFFFF" transform="translate(0,0)"/>
<path d="" fill="#FFFFFF" transform="translate(0,0)"/>
<path d="" fill="#FFFFFF" transform="translate(0,0)"/>
<path d="" fill="#FFFFFF" transform="translate(0,0)"/>
<path d="" fill="#FFFFFF" transform="translate(0,0)"/>
<path d="" fill="#FFFFFF" transform="translate(0,0)"/>
<path d="" fill="#FFFFFF" transform="translate(0,0)"/>
<path d="" fill="#FFFFFF" transform="translate(0,0)"/>
<path d="M0 0 C3 1 3 1 3 1 Z " fill="#FFFFFF" transform="translate(116,90)"/>
<path d="M0 0 C3 1 3 1 3 1 Z " fill="#FFFFFF" transform="translate(113,89)"/>
<path d="M0 0 C3 1 3 1 3 1 Z " fill="#FFFFFF" transform="translate(62,89)"/>
<path d="M0 0 C3 1 3 1 3 1 Z " fill="#FFFFFF" transform="translate(110,88)"/>
<path d="M0 0 C3 1 3 1 3 1 Z " fill="#FFFFFF" transform="translate(65,88)"/>
<path d="" fill="#FFFFFF" transform="translate(0,0)"/>
<path d="" fill="#FFFFFF" transform="translate(0,0)"/>
<path d="" fill="#FFFFFF" transform="translate(0,0)"/>
<path d="" fill="#FFFFFF" transform="translate(0,0)"/>
<path d="M0 0 C3 1 3 1 3 1 Z " fill="#FFFFFF" transform="translate(340,77)"/>
<path d="M0 0 C3 1 3 1 3 1 Z " fill="#FFFFFF" transform="translate(724,76)"/>
<path d="M0 0 C3 1 3 1 3 1 Z " fill="#FFFFFF" transform="translate(337,76)"/>
<path d="" fill="#FFFFFF" transform="translate(0,0)"/>
<path d="M0 0 C3 1 3 1 3 1 Z " fill="#FFFFFF" transform="translate(119,74)"/>
<path d="M0 0 C3 1 3 1 3 1 Z " fill="#FFFFFF" transform="translate(116,73)"/>
<path d="M0 0 C3 1 3 1 3 1 Z " fill="#FFFFFF" transform="translate(59,73)"/>
<path d="M0 0 C3 1 3 1 3 1 Z " fill="#FFFFFF" transform="translate(113,72)"/>
<path d="M0 0 C3 1 3 1 3 1 Z " fill="#FFFFFF" transform="translate(62,72)"/>
<path d="M0 0 C3 1 3 1 3 1 Z " fill="#FFFFFF" transform="translate(66,71)"/>
<path d="" fill="#FFFFFF" transform="translate(0,0)"/>
<path d="M0 0 C2 1 2 1 2 1 Z " fill="#FFFFFF" transform="translate(57,245)"/>
<path d="M0 0 C2 1 2 1 2 1 Z " fill="#FFFFFF" transform="translate(122,244)"/>
<path d="M0 0 C2 1 2 1 2 1 Z " fill="#FFFFFF" transform="translate(54,244)"/>
<path d="M0 0 C2 1 2 1 2 1 Z " fill="#FFFFFF" transform="translate(124,243)"/>
<path d="M0 0 C2 1 2 1 2 1 Z " fill="#FFFFFF" transform="translate(52,243)"/>
<path d="M0 0 C2 1 2 1 2 1 Z " fill="#FFFFFF" transform="translate(126,242)"/>
<path d="M0 0 C2 1 2 1 2 1 Z " fill="#FFFFFF" transform="translate(50,242)"/>
<path d="M0 0 C2 1 2 1 2 1 Z " fill="#FFFFFF" transform="translate(730,241)"/>
<path d="M0 0 C2 1 2 1 2 1 Z " fill="#FFFFFF" transform="translate(48,241)"/>
<path d="M0 0 C2 1 2 1 2 1 Z " fill="#FFFFFF" transform="translate(346,240)"/>
<path d="M0 0 C2 1 2 1 2 1 Z " fill="#FFFFFF" transform="translate(130,240)"/>
<path d="M0 0 C2 1 2 1 2 1 Z " fill="#FFFFFF" transform="translate(46,240)"/>
<path d="M0 0 C2 1 2 1 2 1 Z " fill="#FFFFFF" transform="translate(735,239)"/>
<path d="" fill="#FFFFFF" transform="translate(0,0)"/>
<path d="M0 0 C2 1 2 1 2 1 Z " fill="#FFFFFF" transform="translate(348,239)"/>
<path d="M0 0 C2 1 2 1 2 1 Z " fill="#FFFFFF" transform="translate(132,239)"/>
<path d="M0 0 C2 1 2 1 2 1 Z " fill="#FFFFFF" transform="translate(44,239)"/>
<path d="M0 0 C2 1 2 1 2 1 Z " fill="#FFFFFF" transform="translate(737,238)"/>
<path d="M0 0 C2 1 2 1 2 1 Z " fill="#FFFFFF" transform="translate(350,238)"/>
<path d="M0 0 C2 1 2 1 2 1 Z " fill="#FFFFFF" transform="translate(134,238)"/>
<path d="M0 0 C2 1 2 1 2 1 Z " fill="#FFFFFF" transform="translate(42,238)"/>
<path d="M0 0 C2 1 2 1 2 1 Z " fill="#FFFFFF" transform="translate(739,237)"/>
<path d="M0 0 C2 1 2 1 2 1 Z " fill="#FFFFFF" transform="translate(352,237)"/>
<path d="" fill="#FFFFFF" transform="translate(0,0)"/>
<path d="M0 0 C2 1 2 1 2 1 Z " fill="#FFFFFF" transform="translate(137,236)"/>
<path d="M0 0 C2 1 2 1 2 1 Z " fill="#FFFFFF" transform="translate(39,236)"/>
<path d="M0 0 C2 1 2 1 2 1 Z " fill="#FFFFFF" transform="translate(742,235)"/>
<path d="M0 0 C2 1 2 1 2 1 Z " fill="#FFFFFF" transform="translate(357,234)"/>
<path d="M0 0 C2 1 2 1 2 1 Z " fill="#FFFFFF" transform="translate(140,234)"/>
<path d="M0 0 C2 1 2 1 2 1 Z " fill="#FFFFFF" transform="translate(360,232)"/>
<path d="M0 0 C2 1 2 1 2 1 Z " fill="#FFFFFF" transform="translate(748,231)"/>
<path d="" fill="#FFFFFF" transform="translate(0,0)"/>
<path d="M0 0 C2 1 2 1 2 1 Z " fill="#FFFFFF" transform="translate(144,231)"/>
<path d="M0 0 C2 1 2 1 2 1 Z " fill="#FFFFFF" transform="translate(31,230)"/>
<path d="M0 0 C2 1 2 1 2 1 Z " fill="#FFFFFF" transform="translate(60,229)"/>
<path d="" fill="#FFFFFF" transform="translate(0,0)"/>
<path d="M0 0 C2 1 2 1 2 1 Z " fill="#FFFFFF" transform="translate(365,228)"/>
<path d="M0 0 C2 1 2 1 2 1 Z " fill="#FFFFFF" transform="translate(119,228)"/>
<path d="M0 0 C2 1 2 1 2 1 Z " fill="#FFFFFF" transform="translate(57,228)"/>
<path d="M0 0 C2 1 2 1 2 1 Z " fill="#FFFFFF" transform="translate(121,227)"/>
<path d="M0 0 C2 1 2 1 2 1 Z " fill="#FFFFFF" transform="translate(55,227)"/>
<path d="M0 0 C2 1 2 1 2 1 Z " fill="#FFFFFF" transform="translate(123,226)"/>
<path d="M0 0 C2 1 2 1 2 1 Z " fill="#FFFFFF" transform="translate(53,226)"/>
<path d="M0 0 C2 1 2 1 2 1 Z " fill="#FFFFFF" transform="translate(125,225)"/>
<path d="M0 0 C2 1 2 1 2 1 Z " fill="#FFFFFF" transform="translate(51,225)"/>
<path d="M0 0 C2 1 2 1 2 1 Z " fill="#FFFFFF" transform="translate(127,224)"/>
<path d="" fill="#FFFFFF" transform="translate(0,0)"/>
<path d="M0 0 C2 1 2 1 2 1 Z " fill="#FFFFFF" transform="translate(48,223)"/>
<path d="M0 0 C2 1 2 1 2 1 Z " fill="#FFFFFF" transform="translate(130,222)"/>
<path d="M0 0 C2 1 2 1 2 1 Z " fill="#FFFFFF" transform="translate(46,222)"/>
<path d="" fill="#FFFFFF" transform="translate(0,0)"/>
<path d="M0 0 C2 1 2 1 2 1 Z " fill="#FFFFFF" transform="translate(133,220)"/>
<path d="M0 0 C2 1 2 1 2 1 Z " fill="#FFFFFF" transform="translate(42,219)"/>
<path d="" fill="#FFFFFF" transform="translate(0,0)"/>
<path d="M0 0 C2 1 2 1 2 1 Z " fill="#FFFFFF" transform="translate(702,207)"/>
<path d="" fill="#FFFFFF" transform="translate(0,0)"/>
<path d="M0 0 C2 1 2 1 2 1 Z " fill="#FFFFFF" transform="translate(705,206)"/>
<path d="M0 0 C2 1 2 1 2 1 Z " fill="#FFFFFF" transform="translate(318,206)"/>
<path d="M0 0 C2 1 2 1 2 1 Z " fill="#FFFFFF" transform="translate(707,205)"/>
<path d="M0 0 C2 1 2 1 2 1 Z " fill="#FFFFFF" transform="translate(320,205)"/>
<path d="M0 0 C2 1 2 1 2 1 Z " fill="#FFFFFF" transform="translate(709,204)"/>
<path d="" fill="#FFFFFF" transform="translate(0,0)"/>
<path d="M0 0 C2 1 2 1 2 1 Z " fill="#FFFFFF" transform="translate(322,204)"/>
<path d="" fill="#FFFFFF" transform="translate(0,0)"/>
<path d="M0 0 C2 1 2 1 2 1 Z " fill="#FFFFFF" transform="translate(711,203)"/>
<path d="M0 0 C2 1 2 1 2 1 Z " fill="#FFFFFF" transform="translate(324,203)"/>
<path d="" fill="#FFFFFF" transform="translate(0,0)"/>
<path d="M0 0 C2 1 2 1 2 1 Z " fill="#FFFFFF" transform="translate(327,201)"/>
<path d="" fill="#FFFFFF" transform="translate(0,0)"/>
<path d="" fill="#FFFFFF" transform="translate(0,0)"/>
<path d="" fill="#FFFFFF" transform="translate(0,0)"/>
<path d="" fill="#FFFFFF" transform="translate(0,0)"/>
<path d="" fill="#FFFFFF" transform="translate(0,0)"/>
<path d="" fill="#FFFFFF" transform="translate(0,0)"/>
<path d="" fill="#FFFFFF" transform="translate(0,0)"/>
<path d="" fill="#FFFFFF" transform="translate(0,0)"/>
<path d="M0 0 C2 1 2 1 2 1 Z " fill="#FFFFFF" transform="translate(69,192)"/>
<path d="M0 0 C2 1 2 1 2 1 Z " fill="#FFFFFF" transform="translate(71,191)"/>
<path d="" fill="#FFFFFF" transform="translate(0,0)"/>
<path d="" fill="#FFFFFF" transform="translate(0,0)"/>
<path d="M0 0 C2 1 2 1 2 1 Z " fill="#FFFFFF" transform="translate(73,190)"/>
<path d="" fill="#FFFFFF" transform="translate(0,0)"/>
<path d="M0 0 C2 1 2 1 2 1 Z " fill="#FFFFFF" transform="translate(78,187)"/>
<path d="M0 0 C2 1 2 1 2 1 Z " fill="#FFFFFF" transform="translate(80,186)"/>
<path d="M0 0 C2 1 2 1 2 1 Z " fill="#FFFFFF" transform="translate(82,185)"/>
<path d="M0 0 C2 1 2 1 2 1 Z " fill="#FFFFFF" transform="translate(87,182)"/>
<path d="M0 0 C2 1 2 1 2 1 Z " fill="#FFFFFF" transform="translate(89,181)"/>
<path d="M0 0 C2 1 2 1 2 1 Z " fill="#FFFFFF" transform="translate(91,180)"/>
<path d="" fill="#FFFFFF" transform="translate(0,0)"/>
<path d="" fill="#FFFFFF" transform="translate(0,0)"/>
<path d="M0 0 C2 1 2 1 2 1 Z " fill="#FFFFFF" transform="translate(96,177)"/>
<path d="M0 0 C2 1 2 1 2 1 Z " fill="#FFFFFF" transform="translate(98,176)"/>
<path d="" fill="#FFFFFF" transform="translate(0,0)"/>
<path d="M0 0 C2 1 2 1 2 1 Z " fill="#FFFFFF" transform="translate(103,173)"/>
<path d="M0 0 C2 1 2 1 2 1 Z " fill="#FFFFFF" transform="translate(105,172)"/>
<path d="M0 0 C2 1 2 1 2 1 Z " fill="#FFFFFF" transform="translate(107,171)"/>
<path d="M0 0 C2 1 2 1 2 1 Z " fill="#FFFFFF" transform="translate(112,168)"/>
<path d="M0 0 C2 1 2 1 2 1 Z " fill="#FFFFFF" transform="translate(114,167)"/>
<path d="" fill="#FFFFFF" transform="translate(0,0)"/>
<path d="M0 0 C2 1 2 1 2 1 Z " fill="#FFFFFF" transform="translate(116,166)"/>
<path d="" fill="#FFFFFF" transform="translate(0,0)"/>
<path d="" fill="#FFFFFF" transform="translate(0,0)"/>
<path d="M0 0 C2 1 2 1 2 1 Z " fill="#FFFFFF" transform="translate(121,163)"/>
<path d="M0 0 C2 1 2 1 2 1 Z " fill="#FFFFFF" transform="translate(123,162)"/>
<path d="" fill="#FFFFFF" transform="translate(0,0)"/>
<path d="M0 0 C2 1 2 1 2 1 Z " fill="#FFFFFF" transform="translate(123,157)"/>
<path d="M0 0 C2 1 2 1 2 1 Z " fill="#FFFFFF" transform="translate(118,154)"/>
<path d="M0 0 C2 1 2 1 2 1 Z " fill="#FFFFFF" transform="translate(116,153)"/>
<path d="M0 0 C2 1 2 1 2 1 Z " fill="#FFFFFF" transform="translate(114,152)"/>
<path d="" fill="#FFFFFF" transform="translate(0,0)"/>
<path d="" fill="#FFFFFF" transform="translate(0,0)"/>
<path d="M0 0 C2 1 2 1 2 1 Z " fill="#FFFFFF" transform="translate(109,149)"/>
<path d="M0 0 C2 1 2 1 2 1 Z " fill="#FFFFFF" transform="translate(107,148)"/>
<path d="" fill="#FFFFFF" transform="translate(0,0)"/>
<path d="M0 0 C2 1 2 1 2 1 Z " fill="#FFFFFF" transform="translate(105,147)"/>
<path d="M0 0 C2 1 2 1 2 1 Z " fill="#FFFFFF" transform="translate(100,144)"/>
<path d="M0 0 C2 1 2 1 2 1 Z " fill="#FFFFFF" transform="translate(98,143)"/>
<path d="M0 0 C2 1 2 1 2 1 Z " fill="#FFFFFF" transform="translate(93,140)"/>
<path d="" fill="#FFFFFF" transform="translate(0,0)"/>
<path d="" fill="#FFFFFF" transform="translate(0,0)"/>
<path d="M0 0 C2 1 2 1 2 1 Z " fill="#FFFFFF" transform="translate(91,139)"/>
<path d="M0 0 C2 1 2 1 2 1 Z " fill="#FFFFFF" transform="translate(89,138)"/>
<path d="M0 0 C2 1 2 1 2 1 Z " fill="#FFFFFF" transform="translate(87,137)"/>
<path d="M0 0 C2 1 2 1 2 1 Z " fill="#FFFFFF" transform="translate(84,135)"/>
<path d="M0 0 C2 1 2 1 2 1 Z " fill="#FFFFFF" transform="translate(82,134)"/>
<path d="M0 0 C2 1 2 1 2 1 Z " fill="#FFFFFF" transform="translate(80,133)"/>
<path d="" fill="#FFFFFF" transform="translate(0,0)"/>
<path d="M0 0 C2 1 2 1 2 1 Z " fill="#FFFFFF" transform="translate(75,130)"/>
<path d="M0 0 C2 1 2 1 2 1 Z " fill="#FFFFFF" transform="translate(73,129)"/>
<path d="" fill="#FFFFFF" transform="translate(0,0)"/>
<path d="" fill="#FFFFFF" transform="translate(0,0)"/>
<path d="" fill="#FFFFFF" transform="translate(0,0)"/>
<path d="M0 0 C2 1 2 1 2 1 Z " fill="#FFFFFF" transform="translate(71,128)"/>
<path d="" fill="#FFFFFF" transform="translate(0,0)"/>
<path d="" fill="#FFFFFF" transform="translate(0,0)"/>
<path d="M0 0 C2 1 2 1 2 1 Z " fill="#FFFFFF" transform="translate(68,126)"/>
<path d="" fill="#FFFFFF" transform="translate(0,0)"/>
<path d="" fill="#FFFFFF" transform="translate(0,0)"/>
<path d="" fill="#FFFFFF" transform="translate(0,0)"/>
<path d="" fill="#FFFFFF" transform="translate(0,0)"/>
<path d="" fill="#FFFFFF" transform="translate(0,0)"/>
<path d="" fill="#FFFFFF" transform="translate(0,0)"/>
<path d="" fill="#FFFFFF" transform="translate(0,0)"/>
<path d="M0 0 C2 1 2 1 2 1 Z " fill="#FFFFFF" transform="translate(715,119)"/>
<path d="M0 0 C2 1 2 1 2 1 Z " fill="#FFFFFF" transform="translate(712,117)"/>
<path d="M0 0 C2 1 2 1 2 1 Z " fill="#FFFFFF" transform="translate(709,115)"/>
<path d="" fill="#FFFFFF" transform="translate(0,0)"/>
<path d="" fill="#FFFFFF" transform="translate(0,0)"/>
<path d="M0 0 C2 1 2 1 2 1 Z " fill="#FFFFFF" transform="translate(322,115)"/>
<path d="M0 0 C2 1 2 1 2 1 Z " fill="#FFFFFF" transform="translate(707,114)"/>
<path d="M0 0 C2 1 2 1 2 1 Z " fill="#FFFFFF" transform="translate(320,114)"/>
<path d="M0 0 C2 1 2 1 2 1 Z " fill="#FFFFFF" transform="translate(704,113)"/>
<path d="" fill="#FFFFFF" transform="translate(0,0)"/>
<path d="" fill="#FFFFFF" transform="translate(0,0)"/>
<path d="" fill="#FFFFFF" transform="translate(0,0)"/>
<path d="M0 0 C2 1 2 1 2 1 Z " fill="#FFFFFF" transform="translate(42,100)"/>
<path d="M0 0 C2 1 2 1 2 1 Z " fill="#FFFFFF" transform="translate(133,99)"/>
<path d="" fill="#FFFFFF" transform="translate(0,0)"/>
<path d="M0 0 C2 1 2 1 2 1 Z " fill="#FFFFFF" transform="translate(130,97)"/>
<path d="M0 0 C2 1 2 1 2 1 Z " fill="#FFFFFF" transform="translate(46,97)"/>
<path d="" fill="#FFFFFF" transform="translate(0,0)"/>
<path d="M0 0 C2 1 2 1 2 1 Z " fill="#FFFFFF" transform="translate(48,96)"/>
<path d="M0 0 C2 1 2 1 2 1 Z " fill="#FFFFFF" transform="translate(127,95)"/>
<path d="M0 0 C2 1 2 1 2 1 Z " fill="#FFFFFF" transform="translate(125,94)"/>
<path d="M0 0 C2 1 2 1 2 1 Z " fill="#FFFFFF" transform="translate(51,94)"/>
<path d="" fill="#FFFFFF" transform="translate(0,0)"/>
<path d="M0 0 C2 1 2 1 2 1 Z " fill="#FFFFFF" transform="translate(123,93)"/>
<path d="M0 0 C2 1 2 1 2 1 Z " fill="#FFFFFF" transform="translate(53,93)"/>
<path d="M0 0 C2 1 2 1 2 1 Z " fill="#FFFFFF" transform="translate(121,92)"/>
<path d="M0 0 C2 1 2 1 2 1 Z " fill="#FFFFFF" transform="translate(55,92)"/>
<path d="M0 0 C2 1 2 1 2 1 Z " fill="#FFFFFF" transform="translate(119,91)"/>
<path d="M0 0 C2 1 2 1 2 1 Z " fill="#FFFFFF" transform="translate(57,91)"/>
<path d="M0 0 C2 1 2 1 2 1 Z " fill="#FFFFFF" transform="translate(60,90)"/>
<path d="M0 0 C2 1 2 1 2 1 Z " fill="#FFFFFF" transform="translate(749,89)"/>
<path d="" fill="#FFFFFF" transform="translate(0,0)"/>
<path d="M0 0 C2 1 2 1 2 1 Z " fill="#FFFFFF" transform="translate(31,89)"/>
<path d="" fill="#FFFFFF" transform="translate(0,0)"/>
<path d="M0 0 C2 1 2 1 2 1 Z " fill="#FFFFFF" transform="translate(361,88)"/>
<path d="M0 0 C2 1 2 1 2 1 Z " fill="#FFFFFF" transform="translate(144,88)"/>
<path d="M0 0 C2 1 2 1 2 1 Z " fill="#FFFFFF" transform="translate(745,86)"/>
<path d="" fill="#FFFFFF" transform="translate(0,0)"/>
<path d="" fill="#FFFFFF" transform="translate(0,0)"/>
<path d="M0 0 C2 1 2 1 2 1 Z " fill="#FFFFFF" transform="translate(358,86)"/>
<path d="" fill="#FFFFFF" transform="translate(0,0)"/>
<path d="M0 0 C2 1 2 1 2 1 Z " fill="#FFFFFF" transform="translate(140,85)"/>
<path d="M0 0 C2 1 2 1 2 1 Z " fill="#FFFFFF" transform="translate(742,84)"/>
<path d="M0 0 C2 1 2 1 2 1 Z " fill="#FFFFFF" transform="translate(355,84)"/>
<path d="M0 0 C2 1 2 1 2 1 Z " fill="#FFFFFF" transform="translate(740,83)"/>
<path d="" fill="#FFFFFF" transform="translate(0,0)"/>
<path d="M0 0 C2 1 2 1 2 1 Z " fill="#FFFFFF" transform="translate(353,83)"/>
<path d="M0 0 C2 1 2 1 2 1 Z " fill="#FFFFFF" transform="translate(137,83)"/>
<path d="M0 0 C2 1 2 1 2 1 Z " fill="#FFFFFF" transform="translate(39,83)"/>
<path d="M0 0 C2 1 2 1 2 1 Z " fill="#FFFFFF" transform="translate(738,82)"/>
<path d="M0 0 C2 1 2 1 2 1 Z " fill="#FFFFFF" transform="translate(736,81)"/>
<path d="M0 0 C2 1 2 1 2 1 Z " fill="#FFFFFF" transform="translate(350,81)"/>
<path d="M0 0 C2 1 2 1 2 1 Z " fill="#FFFFFF" transform="translate(134,81)"/>
<path d="M0 0 C2 1 2 1 2 1 Z " fill="#FFFFFF" transform="translate(42,81)"/>
<path d="M0 0 C2 1 2 1 2 1 Z " fill="#FFFFFF" transform="translate(734,80)"/>
<path d="M0 0 C2 1 2 1 2 1 Z " fill="#FFFFFF" transform="translate(348,80)"/>
<path d="M0 0 C2 1 2 1 2 1 Z " fill="#FFFFFF" transform="translate(132,80)"/>
<path d="M0 0 C2 1 2 1 2 1 Z " fill="#FFFFFF" transform="translate(44,80)"/>
<path d="M0 0 C2 1 2 1 2 1 Z " fill="#FFFFFF" transform="translate(732,79)"/>
<path d="M0 0 C2 1 2 1 2 1 Z " fill="#FFFFFF" transform="translate(345,79)"/>
<path d="M0 0 C2 1 2 1 2 1 Z " fill="#FFFFFF" transform="translate(130,79)"/>
<path d="M0 0 C2 1 2 1 2 1 Z " fill="#FFFFFF" transform="translate(46,79)"/>
<path d="M0 0 C2 1 2 1 2 1 Z " fill="#FFFFFF" transform="translate(730,78)"/>
<path d="M0 0 C2 1 2 1 2 1 Z " fill="#FFFFFF" transform="translate(343,78)"/>
<path d="M0 0 C2 1 2 1 2 1 Z " fill="#FFFFFF" transform="translate(48,78)"/>
<path d="M0 0 C2 1 2 1 2 1 Z " fill="#FFFFFF" transform="translate(727,77)"/>
<path d="M0 0 C2 1 2 1 2 1 Z " fill="#FFFFFF" transform="translate(126,77)"/>
<path d="M0 0 C2 1 2 1 2 1 Z " fill="#FFFFFF" transform="translate(50,77)"/>
<path d="M0 0 C2 1 2 1 2 1 Z " fill="#FFFFFF" transform="translate(124,76)"/>
<path d="M0 0 C2 1 2 1 2 1 Z " fill="#FFFFFF" transform="translate(52,76)"/>
<path d="" fill="#FFFFFF" transform="translate(0,0)"/>
<path d="M0 0 C2 1 2 1 2 1 Z " fill="#FFFFFF" transform="translate(122,75)"/>
<path d="M0 0 C2 1 2 1 2 1 Z " fill="#FFFFFF" transform="translate(54,75)"/>
<path d="" fill="#FFFFFF" transform="translate(0,0)"/>
<path d="M0 0 C2 1 2 1 2 1 Z " fill="#FFFFFF" transform="translate(57,74)"/>
<path d="" fill="#FFFFFF" transform="translate(0,0)"/>
<path d="" fill="#FFFFFF" transform="translate(0,0)"/>
<path d="" fill="#FFFFFF" transform="translate(0,0)"/>
<path d="" fill="#FFFFFF" transform="translate(0,0)"/>
<path d="" fill="#FFFFFF" transform="translate(0,0)"/>
<path d="" fill="#FFFFFF" transform="translate(0,0)"/>
<path d="" fill="#FFFFFF" transform="translate(0,0)"/>
<path d="" fill="#FFFFFF" transform="translate(0,0)"/>
<path d="" fill="#FFFFFF" transform="translate(0,0)"/>
<path d="" fill="#FFFFFF" transform="translate(0,0)"/>
<path d="" fill="#FFFFFF" transform="translate(0,0)"/>
<path d="" fill="#FFFFFF" transform="translate(0,0)"/>
<path d="" fill="#FFFFFF" transform="translate(0,0)"/>
<path d="" fill="#FFFFFF" transform="translate(0,0)"/>
<path d="" fill="#FFFFFF" transform="translate(0,0)"/>
<path d="" fill="#FFFFFF" transform="translate(0,0)"/>
<path d="" fill="#FFFFFF" transform="translate(0,0)"/>
<path d="" fill="#FFFFFF" transform="translate(0,0)"/>
<path d="" fill="#FFFFFF" transform="translate(0,0)"/>
<path d="" fill="#FFFFFF" transform="translate(0,0)"/>
<path d="" fill="#FFFFFF" transform="translate(0,0)"/>
<path d="" fill="#FFFFFF" transform="translate(0,0)"/>
<path d="" fill="#FFFFFF" transform="translate(0,0)"/>
<path d="" fill="#FFFFFF" transform="translate(0,0)"/>
<path d="" fill="#FFFFFF" transform="translate(0,0)"/>
<path d="" fill="#FFFFFF" transform="translate(0,0)"/>
<path d="" fill="#FFFFFF" transform="translate(0,0)"/>
<path d="" fill="#FFFFFF" transform="translate(0,0)"/>
<path d="" fill="#FFFFFF" transform="translate(0,0)"/>
<path d="" fill="#FFFFFF" transform="translate(0,0)"/>
<path d="" fill="#FFFFFF" transform="translate(0,0)"/>
<path d="" fill="#FFFFFF" transform="translate(0,0)"/>
<path d="" fill="#FFFFFF" transform="translate(0,0)"/>
<path d="" fill="#FFFFFF" transform="translate(0,0)"/>
<path d="" fill="#FFFFFF" transform="translate(0,0)"/>
<path d="" fill="#FFFFFF" transform="translate(0,0)"/>
<path d="" fill="#FFFFFF" transform="translate(0,0)"/>
<path d="" fill="#FFFFFF" transform="translate(0,0)"/>
<path d="" fill="#FFFFFF" transform="translate(0,0)"/>
<path d="" fill="#FFFFFF" transform="translate(0,0)"/>
<path d="" fill="#FFFFFF" transform="translate(0,0)"/>
<path d="" fill="#FFFFFF" transform="translate(0,0)"/>
<path d="" fill="#FFFFFF" transform="translate(0,0)"/>
<path d="" fill="#FFFFFF" transform="translate(0,0)"/>
<path d="" fill="#FFFFFF" transform="translate(0,0)"/>
<path d="" fill="#FFFFFF" transform="translate(0,0)"/>
<path d="" fill="#FFFFFF" transform="translate(0,0)"/>
<path d="" fill="#FFFFFF" transform="translate(0,0)"/>
<path d="" fill="#FFFFFF" transform="translate(0,0)"/>
<path d="" fill="#FFFFFF" transform="translate(0,0)"/>
<path d="" fill="#FFFFFF" transform="translate(0,0)"/>
<path d="" fill="#FFFFFF" transform="translate(0,0)"/>
<path d="" fill="#FFFFFF" transform="translate(0,0)"/>
<path d="" fill="#FFFFFF" transform="translate(0,0)"/>
<path d="" fill="#FFFFFF" transform="translate(0,0)"/>
<path d="" fill="#FFFFFF" transform="translate(0,0)"/>
<path d="" fill="#FFFFFF" transform="translate(0,0)"/>
<path d="" fill="#FFFFFF" transform="translate(0,0)"/>
<path d="" fill="#FFFFFF" transform="translate(0,0)"/>
<path d="" fill="#FFFFFF" transform="translate(0,0)"/>
<path d="" fill="#FFFFFF" transform="translate(0,0)"/>
<path d="" fill="#FFFFFF" transform="translate(0,0)"/>
<path d="" fill="#FFFFFF" transform="translate(0,0)"/>
<path d="" fill="#FFFFFF" transform="translate(0,0)"/>
<path d="" fill="#FFFFFF" transform="translate(0,0)"/>
<path d="" fill="#FFFFFF" transform="translate(0,0)"/>
<path d="" fill="#FFFFFF" transform="translate(0,0)"/>
<path d="" fill="#FFFFFF" transform="translate(0,0)"/>
<path d="" fill="#FFFFFF" transform="translate(0,0)"/>
<path d="" fill="#FFFFFF" transform="translate(0,0)"/>
<path d="" fill="#FFFFFF" transform="translate(0,0)"/>
<path d="" fill="#FFFFFF" transform="translate(0,0)"/>
<path d="" fill="#FFFFFF" transform="translate(0,0)"/>
<path d="" fill="#FFFFFF" transform="translate(0,0)"/>
<path d="" fill="#FFFFFF" transform="translate(0,0)"/>
<path d="" fill="#FFFFFF" transform="translate(0,0)"/>
<path d="" fill="#FFFFFF" transform="translate(0,0)"/>
<path d="" fill="#FFFFFF" transform="translate(0,0)"/>
<path d="" fill="#FFFFFF" transform="translate(0,0)"/>
<path d="" fill="#FFFFFF" transform="translate(0,0)"/>
<path d="" fill="#FFFFFF" transform="translate(0,0)"/>
<path d="" fill="#FFFFFF" transform="translate(0,0)"/>
<path d="" fill="#FFFFFF" transform="translate(0,0)"/>
<path d="" fill="#FFFFFF" transform="translate(0,0)"/>
<path d="" fill="#FFFFFF" transform="translate(0,0)"/>
<path d="" fill="#FFFFFF" transform="translate(0,0)"/>
<path d="" fill="#FFFFFF" transform="translate(0,0)"/>
<path d="" fill="#FFFFFF" transform="translate(0,0)"/>
<path d="" fill="#FFFFFF" transform="translate(0,0)"/>
<path d="" fill="#FFFFFF" transform="translate(0,0)"/>
<path d="" fill="#FFFFFF" transform="translate(0,0)"/>
<path d="" fill="#FFFFFF" transform="translate(0,0)"/>
<path d="" fill="#FFFFFF" transform="translate(0,0)"/>
<path d="" fill="#FFFFFF" transform="translate(0,0)"/>
<path d="" fill="#FFFFFF" transform="translate(0,0)"/>
<path d="" fill="#FFFFFF" transform="translate(0,0)"/>
<path d="" fill="#FFFFFF" transform="translate(0,0)"/>
<path d="" fill="#FFFFFF" transform="translate(0,0)"/>
<path d="" fill="#FFFFFF" transform="translate(0,0)"/>
<path d="" fill="#FFFFFF" transform="translate(0,0)"/>
<path d="" fill="#FFFFFF" transform="translate(0,0)"/>
<path d="" fill="#FFFFFF" transform="translate(0,0)"/>
<path d="" fill="#FFFFFF" transform="translate(0,0)"/>
<path d="" fill="#FFFFFF" transform="translate(0,0)"/>
<path d="" fill="#FFFFFF" transform="translate(0,0)"/>
<path d="" fill="#FFFFFF" transform="translate(0,0)"/>
<path d="" fill="#FFFFFF" transform="translate(0,0)"/>
<path d="" fill="#FFFFFF" transform="translate(0,0)"/>
<path d="" fill="#FFFFFF" transform="translate(0,0)"/>
<path d="" fill="#FFFFFF" transform="translate(0,0)"/>
<path d="" fill="#FFFFFF" transform="translate(0,0)"/>
<path d="" fill="#FFFFFF" transform="translate(0,0)"/>
<path d="" fill="#FFFFFF" transform="translate(0,0)"/>
<path d="" fill="#FFFFFF" transform="translate(0,0)"/>
<path d="" fill="#FFFFFF" transform="translate(0,0)"/>
<path d="" fill="#FFFFFF" transform="translate(0,0)"/>
<path d="" fill="#FFFFFF" transform="translate(0,0)"/>
<path d="" fill="#FFFFFF" transform="translate(0,0)"/>
<path d="" fill="#FFFFFF" transform="translate(0,0)"/>
<path d="" fill="#FFFFFF" transform="translate(0,0)"/>
<path d="" fill="#FFFFFF" transform="translate(0,0)"/>
<path d="" fill="#FFFFFF" transform="translate(0,0)"/>
<path d="" fill="#FFFFFF" transform="translate(0,0)"/>
<path d="" fill="#FFFFFF" transform="translate(0,0)"/>
<path d="" fill="#FFFFFF" transform="translate(0,0)"/>
<path d="" fill="#FFFFFF" transform="translate(0,0)"/>
<path d="" fill="#FFFFFF" transform="translate(0,0)"/>
<path d="" fill="#FFFFFF" transform="translate(0,0)"/>
<path d="" fill="#FFFFFF" transform="translate(0,0)"/>
<path d="" fill="#FFFFFF" transform="translate(0,0)"/>
<path d="" fill="#FFFFFF" transform="translate(0,0)"/>
<path d="" fill="#FFFFFF" transform="translate(0,0)"/>
<path d="" fill="#FFFFFF" transform="translate(0,0)"/>
<path d="" fill="#FFFFFF" transform="translate(0,0)"/>
<path d="" fill="#FFFFFF" transform="translate(0,0)"/>
<path d="" fill="#FFFFFF" transform="translate(0,0)"/>
<path d="" fill="#FFFFFF" transform="translate(0,0)"/>
<path d="" fill="#FFFFFF" transform="translate(0,0)"/>
<path d="" fill="#FFFFFF" transform="translate(0,0)"/>
<path d="" fill="#FFFFFF" transform="translate(0,0)"/>
<path d="" fill="#FFFFFF" transform="translate(0,0)"/>
<path d="" fill="#FFFFFF" transform="translate(0,0)"/>
<path d="" fill="#FFFFFF" transform="translate(0,0)"/>
<path d="" fill="#FFFFFF" transform="translate(0,0)"/>
<path d="" fill="#FFFFFF" transform="translate(0,0)"/>
<path d="" fill="#FFFFFF" transform="translate(0,0)"/>
<path d="" fill="#FFFFFF" transform="translate(0,0)"/>
<path d="" fill="#FFFFFF" transform="translate(0,0)"/>
<path d="" fill="#FFFFFF" transform="translate(0,0)"/>
<path d="" fill="#FFFFFF" transform="translate(0,0)"/>
<path d="" fill="#FFFFFF" transform="translate(0,0)"/>
<path d="" fill="#FFFFFF" transform="translate(0,0)"/>
<path d="" fill="#FFFFFF" transform="translate(0,0)"/>
<path d="" fill="#FFFFFF" transform="translate(0,0)"/>
<path d="" fill="#FFFFFF" transform="translate(0,0)"/>
<path d="" fill="#FFFFFF" transform="translate(0,0)"/>
<path d="" fill="#FFFFFF" transform="translate(0,0)"/>
<path d="" fill="#FFFFFF" transform="translate(0,0)"/>
<path d="" fill="#FFFFFF" transform="translate(0,0)"/>
<path d="" fill="#FFFFFF" transform="translate(0,0)"/>
<path d="" fill="#FFFFFF" transform="translate(0,0)"/>
<path d="" fill="#FFFFFF" transform="translate(0,0)"/>
<path d="" fill="#FFFFFF" transform="translate(0,0)"/>
<path d="" fill="#FFFFFF" transform="translate(0,0)"/>
<path d="" fill="#FFFFFF" transform="translate(0,0)"/>
<path d="" fill="#FFFFFF" transform="translate(0,0)"/>
<path d="" fill="#FFFFFF" transform="translate(0,0)"/>
<path d="" fill="#FFFFFF" transform="translate(0,0)"/>
<path d="" fill="#FFFFFF" transform="translate(0,0)"/>
<path d="" fill="#FFFFFF" transform="translate(0,0)"/>
<path d="" fill="#FFFFFF" transform="translate(0,0)"/>
<path d="" fill="#FFFFFF" transform="translate(0,0)"/>
<path d="" fill="#FFFFFF" transform="translate(0,0)"/>
<path d="" fill="#FFFFFF" transform="translate(0,0)"/>
<path d="" fill="#FFFFFF" transform="translate(0,0)"/>
<path d="" fill="#FFFFFF" transform="translate(0,0)"/>
<path d="" fill="#FFFFFF" transform="translate(0,0)"/>
<path d="" fill="#FFFFFF" transform="translate(0,0)"/>
<path d="" fill="#FFFFFF" transform="translate(0,0)"/>
<path d="" fill="#FFFFFF" transform="translate(0,0)"/>
<path d="" fill="#FFFFFF" transform="translate(0,0)"/>
<path d="" fill="#FFFFFF" transform="translate(0,0)"/>
<path d="" fill="#FFFFFF" transform="translate(0,0)"/>
<path d="" fill="#FFFFFF" transform="translate(0,0)"/>
<path d="" fill="#FFFFFF" transform="translate(0,0)"/>
<path d="" fill="#FFFFFF" transform="translate(0,0)"/>
<path d="" fill="#FFFFFF" transform="translate(0,0)"/>
<path d="" fill="#FFFFFF" transform="translate(0,0)"/>
<path d="" fill="#FFFFFF" transform="translate(0,0)"/>
<path d="" fill="#FFFFFF" transform="translate(0,0)"/>
<path d="" fill="#FFFFFF" transform="translate(0,0)"/>
<path d="" fill="#FFFFFF" transform="translate(0,0)"/>
<path d="" fill="#FFFFFF" transform="translate(0,0)"/>
<path d="" fill="#FFFFFF" transform="translate(0,0)"/>
<path d="" fill="#FFFFFF" transform="translate(0,0)"/>
<path d="" fill="#FFFFFF" transform="translate(0,0)"/>
<path d="" fill="#FFFFFF" transform="translate(0,0)"/>
<path d="" fill="#FFFFFF" transform="translate(0,0)"/>
<path d="" fill="#FFFFFF" transform="translate(0,0)"/>
<path d="" fill="#FFFFFF" transform="translate(0,0)"/>
<path d="" fill="#FFFFFF" transform="translate(0,0)"/>
<path d="" fill="#FFFFFF" transform="translate(0,0)"/>
<path d="" fill="#FFFFFF" transform="translate(0,0)"/>
<path d="" fill="#FFFFFF" transform="translate(0,0)"/>
<path d="" fill="#FFFFFF" transform="translate(0,0)"/>
<path d="" fill="#FFFFFF" transform="translate(0,0)"/>
</svg>
