<?xml version="1.0" encoding="UTF-8"?>
<!-- Generator: visioncortex VTracer 0.6.12 -->
<svg version="1.1" xmlns="http://www.w3.org/2000/svg" width="1221" height="320">
<path d="M0 0 C1.257 0.339 2.514 0.678 3.809 1.027 C23.379 6.847 40.269 18.085 55 32 C55.75 32.686 56.5 33.372 57.273 34.078 C73.564 49.511 84.121 70.566 90 92 C90.17 92.587 90.17 92.587 91.027 95.559 C95.759 115.468 94.791 139.454 89 159 C88.83 159.628 88.83 159.628 87.973 162.809 C82.153 182.379 70.915 199.269 57 214 C56.314 214.75 55.628 215.5 54.922 216.273 C39.489 232.564 18.434 243.121 -3 249 C-4.174 249.339 -5.349 249.678 -6.559 250.027 C-26.468 254.759 -50.454 253.791 -70 248 C-70.628 247.83 -70.628 247.83 -73.809 246.973 C-93.379 241.153 -110.269 229.915 -125 216 C-125.75 215.314 -126.5 214.628 -127.273 213.922 C-143.564 198.489 -154.121 177.434 -160 156 C-160.339 154.826 -160.678 153.651 -161.027 152.441 C-165.759 132.532 -164.791 108.546 -159 89 C-158.661 87.743 -158.322 86.486 -157.973 85.191 C-152.153 65.621 -140.915 48.731 -127 34 C-126.314 33.25 -125.628 32.5 -124.922 31.727 C-109.489 15.436 -88.434 4.879 -67 -1 C-65.826 -1.339 -64.651 -1.678 -63.441 -2.027 C-43.532 -6.759 -19.546 -5.791 0 0 Z M-44 21 C-44.267 21.208 -44.267 21.208 -45.617 22.262 C-66.402 40.508 -72.192 78.186 -74 104 C-74 106.97 -74 109.94 -74 113 C-48.26 113 -22.52 113 4 113 C4 82.965 -2.538 44.928 -24.188 22.438 C-27.498 19.194 -30.223 17.232 -34.875 16.625 C-38.955 17.115 -40.786 18.442 -44 21 Z M-112.613 49.594 C-123.002 60.122 -130.637 72.603 -135.875 86.375 C-136.149 87.08 -136.423 87.785 -136.706 88.512 C-139.608 96.626 -140.45 104.219 -142 113 C-126.49 113 -110.98 113 -95 113 C-94.752 109.308 -94.505 105.616 -94.25 101.812 C-92.12 74.445 -84.816 48.809 -73 24 C-86.813 24 -103.484 40.631 -112.613 49.594 Z M3 24 C3.272 24.628 3.543 25.255 3.823 25.902 C16.345 54.991 22.878 81.352 25 113 C40.51 113 56.02 113 72 113 C68.488 93.096 68.488 93.096 65.875 86.375 C65.576 85.59 65.278 84.805 64.97 83.996 C60.068 71.619 52.889 60.885 44 51 C43.316 50.233 42.631 49.466 41.926 48.676 C31.551 37.688 18.757 30.006 5 24 C4.34 24 3.68 24 3 24 Z M-142 135 C-138.488 154.904 -138.488 154.904 -135.875 161.625 C-135.576 162.41 -135.278 163.195 -134.97 164.004 C-130.068 176.381 -122.889 187.115 -114 197 C-113.316 197.767 -112.631 198.534 -111.926 199.324 C-103.404 208.35 -93.269 215.108 -82.25 220.688 C-81.558 221.039 -80.867 221.39 -80.154 221.752 C-78.468 222.571 -76.737 223.295 -75 224 C-74.34 223.67 -73.68 223.34 -73 223 C-73.401 222.23 -73.802 221.461 -74.215 220.668 C-87.797 193.226 -92.972 165.254 -95 135 C-110.51 135 -126.02 135 -142 135 Z M-74 135 C-74 165.035 -67.462 203.072 -45.812 225.562 C-42.502 228.806 -39.777 230.768 -35.125 231.375 C-31.045 230.885 -29.214 229.558 -26 227 C-25.466 226.584 -24.933 226.167 -24.383 225.738 C-3.598 207.492 2.192 169.814 4 144 C4 141.03 4 138.06 4 135 C-21.74 135 -47.48 135 -74 135 Z M25 135 C24.752 138.692 24.505 142.384 24.25 146.188 C22.12 173.555 14.816 199.191 3 224 C24.117 218.443 43.853 200.687 55.312 182.5 C56.564 180.346 57.795 178.18 59 176 C59.272 175.517 59.272 175.517 60.648 173.074 C67.158 160.865 69.891 148.707 72 135 C56.49 135 40.98 135 25 135 Z " fill="#FEFEFE" transform="translate(173,36)"/>
<path d="M0 0 C5.66 -0.074 11.32 -0.129 16.98 -0.165 C18.906 -0.18 20.833 -0.2 22.759 -0.226 C25.525 -0.263 28.289 -0.28 31.055 -0.293 C31.487 -0.301 31.487 -0.301 33.675 -0.34 C36.101 -0.341 36.101 -0.341 40 0 C40.66 0.99 41.32 1.98 42 3 C42.33 3 42.66 3 43 3 C42.969 3.619 42.969 3.619 42.812 6.75 C42.784 12.748 44.37 18.267 46 24 C46.66 24 47.32 24 48 24 C47.969 24.619 47.969 24.619 47.812 27.75 C47.784 33.748 49.37 39.267 51 45 C51.66 45 52.32 45 53 45 C52.946 46.241 52.892 47.483 52.836 48.761 C52.843 54.677 54.193 60.105 55.625 65.816 C55.891 66.913 56.158 68.011 56.432 69.141 C57.278 72.617 58.139 76.09 59 79.562 C59.579 81.93 60.157 84.298 60.734 86.666 C62.145 92.447 63.568 98.224 65 104 C66.945 101.082 67.453 99.375 68 96 C68.66 96 69.32 96 70 96 C71.698 90.162 72.253 85.069 72 79 C72.66 79 73.32 79 74 79 C75.698 73.162 76.253 68.069 76 62 C76.66 62 77.32 62 78 62 C79.581 55.617 81.146 49.231 82.7 42.841 C83.23 40.671 83.763 38.501 84.3 36.332 C85.075 33.204 85.835 30.073 86.594 26.941 C86.834 25.982 87.075 25.022 87.323 24.033 C88.719 18.197 89.236 13.001 89 7 C89.66 7 90.32 7 91 7 C91.66 4.69 92.32 2.38 93 0 C106.53 0 120.06 0 134 0 C134.33 0.66 134.33 0.66 136 4 C136.33 4 136.66 4 137 4 C136.964 5.312 136.928 6.625 136.891 7.977 C136.896 12.659 137.62 16.838 138.744 21.365 C138.929 22.147 139.115 22.929 139.306 23.734 C139.913 26.285 140.534 28.832 141.156 31.379 C141.583 33.159 142.009 34.94 142.434 36.721 C143.55 41.384 144.677 46.044 145.808 50.703 C146.961 55.468 148.103 60.235 149.246 65.002 C151.486 74.337 153.739 83.67 156 93 C156.66 93 157.32 93 158 93 C158 95.97 158 98.94 158 102 C159.32 102.33 160.64 102.66 162 103 C162.593 98.624 163.138 94.425 163 90 C163.66 90 164.32 90 165 90 C167.041 82.821 168.374 76.474 168 69 C168.66 69 169.32 69 170 69 C171.904 62.199 173.409 56.081 173 49 C173.66 48.67 174.32 48.34 175 48 C175.651 46.147 175.651 46.147 176.221 43.696 C176.438 42.781 176.655 41.867 176.878 40.925 C177.105 39.93 177.332 38.935 177.566 37.91 C177.686 37.403 177.686 37.403 178.291 34.835 C179.056 31.579 179.81 28.321 180.562 25.062 C181.321 21.808 182.082 18.554 182.845 15.301 C183.32 13.273 183.792 11.244 184.261 9.214 C184.475 8.297 184.688 7.379 184.908 6.434 C185.096 5.624 185.283 4.814 185.476 3.98 C186 2 186 2 187 0 C200.2 0 213.4 0 227 0 C223.558 17.21 223.558 17.21 221.732 24.73 C221.526 25.586 221.321 26.442 221.11 27.323 C220.672 29.147 220.233 30.97 219.794 32.793 C219.097 35.686 218.404 38.58 217.714 41.474 C215.752 49.691 213.788 57.908 211.807 66.12 C210.589 71.173 209.381 76.229 208.179 81.286 C207.722 83.2 207.262 85.113 206.797 87.024 C206.149 89.696 205.513 92.371 204.88 95.046 C204.688 95.823 204.497 96.599 204.299 97.399 C203.062 102.707 202.837 107.549 203 113 C202.34 113 201.68 113 201 113 C199.302 118.838 198.747 123.931 199 130 C198.34 130 197.68 130 197 130 C195.408 135.571 194.793 140.211 195 146 C194.34 146.33 193.68 146.66 193 147 C192.184 149.687 192.184 149.687 191.438 153 C190.093 158.907 190.093 158.907 189 160 C187.526 160.093 186.048 160.117 184.572 160.114 C183.631 160.113 182.69 160.113 181.721 160.113 C180.698 160.108 179.675 160.103 178.621 160.098 C178.1 160.097 178.1 160.097 175.464 160.093 C172.122 160.088 168.78 160.075 165.438 160.062 C163.178 160.057 160.918 160.053 158.658 160.049 C153.105 160.038 147.553 160.021 142 160 C141.35 158.585 140.705 157.168 140.062 155.75 C139.703 154.961 139.343 154.172 138.973 153.359 C137.309 149.323 136.825 145.503 136.32 141.172 C135.809 137.706 134.906 134.382 134 131 C133.34 131 132.68 131 132 131 C132.062 129.762 132.124 128.525 132.188 127.25 C132.216 121.252 130.63 115.733 129 110 C128.34 110 127.68 110 127 110 C127.082 108.845 127.165 107.69 127.25 106.5 C127.297 99.135 124.936 92.046 123 85 C122.34 85 121.68 85 121 85 C121.031 84.381 121.031 84.381 121.188 81.25 C121.216 75.252 119.63 69.733 118 64 C117.34 64 116.68 64 116 64 C116.023 63.397 116.046 62.793 116.07 62.172 C116.088 61.373 116.106 60.573 116.125 59.75 C116.148 58.961 116.171 58.172 116.195 57.359 C115.983 54.793 115.287 53.208 114 51 C109.27 55.73 109.071 61.599 108.938 68 C108.958 68.66 108.979 69.32 109 70 C108.34 70 107.68 70 107 70 C105.302 75.838 104.747 80.931 105 87 C104.34 87 103.68 87 103 87 C101.302 92.838 100.747 97.931 101 104 C100.34 104 99.68 104 99 104 C97.989 107.962 96.993 111.927 96.009 115.896 C95.674 117.242 95.334 118.587 94.991 119.931 C93.078 127.428 91.523 134.247 92 142 C91.34 142 90.68 142 90 142 C88.302 147.838 87.747 152.931 88 159 C85.111 159.963 83.287 160.127 80.285 160.129 C79.331 160.133 78.376 160.136 77.393 160.139 C76.365 160.137 75.337 160.135 74.277 160.133 C73.749 160.133 73.749 160.133 71.076 160.136 C68.843 160.136 66.609 160.135 64.376 160.13 C60.948 160.125 57.52 160.13 54.092 160.137 C51.924 160.136 49.757 160.135 47.59 160.133 C47.075 160.134 47.075 160.134 44.468 160.139 C43.517 160.136 42.566 160.133 41.586 160.129 C40.746 160.129 39.907 160.128 39.043 160.127 C37 160 37 160 35 159 C35.031 158.546 35.031 158.546 35.188 156.25 C35.222 150.666 33.474 145.342 32 140 C31.34 140 30.68 140 30 140 C30.072 138.826 30.144 137.651 30.219 136.441 C30.219 129.396 28.232 122.718 26.5 115.938 C26.162 114.582 25.825 113.226 25.488 111.869 C24.668 108.577 23.839 105.288 23 102 C22.34 102 21.68 102 21 102 C21.082 100.867 21.165 99.734 21.25 98.566 C21.25 90.847 18.893 83.368 17 75.938 C16.614 74.389 16.228 72.84 15.844 71.291 C14.907 67.525 13.957 63.761 13 60 C12.34 60 11.68 60 11 60 C11.062 58.763 11.124 57.525 11.188 56.25 C11.216 50.252 9.63 44.733 8 39 C7.34 39 6.68 39 6 39 C6.062 37.778 6.124 36.556 6.188 35.297 C6.188 29.041 4.574 23.268 3 17.25 C2.432 15.048 1.87 12.845 1.312 10.641 C1.187 10.159 1.187 10.159 0.551 7.72 C0.013 5.064 -0.103 2.701 0 0 Z M113 42 C112.67 44.31 112.34 46.62 112 49 C114 46 114 46 113.625 43.812 C113.419 43.214 113.212 42.616 113 42 Z M68 101 C69 105 69 105 69 105 Z M67 105 C68 109 68 109 68 109 Z M159 106 C159.33 107.98 159.66 109.96 160 112 C160.625 110.125 160.625 110.125 161 108 C160.34 107.34 159.68 106.68 159 106 Z M66 109 C67 111 67 111 67 111 Z " fill="#FFFFFF" transform="translate(296,68)"/>
<path d="M0 0 C94.087 0 94.087 0 110.66 11.414 C113 13 113 13 115.246 14.023 C117 15 117 15 118 18 C118.66 18.33 119.32 18.66 120 19 C120.367 20.994 120.689 22.996 121 25 C121.519 26.605 122.04 28.209 122.562 29.812 C125.509 40.384 124.941 52.481 122 63 C121.711 64.114 121.423 65.228 121.125 66.375 C117.223 75.479 105.288 80.704 97 85 C97.326 85.193 97.326 85.193 98.977 86.172 C101.658 87.77 104.331 89.381 107 91 C107.648 91.391 108.297 91.781 108.965 92.184 C111.861 94.003 112.883 94.648 114 98 C114.572 98.521 115.145 99.042 115.734 99.578 C119.102 103.178 121.03 107.374 123.25 111.75 C123.754 112.731 124.257 113.712 124.776 114.723 C126.203 117.513 127.621 120.306 129.036 123.101 C130.066 125.13 131.101 127.155 132.137 129.18 C134.004 132.829 135.861 136.483 137.712 140.14 C138.446 141.589 139.183 143.037 139.922 144.484 C140.962 146.523 141.992 148.567 143.02 150.613 C143.178 150.922 143.178 150.922 143.98 152.482 C144.715 153.959 145.366 155.477 146 157 C145 159 145 159 144 160 C142.635 160.098 141.264 160.128 139.895 160.129 C139.024 160.133 138.153 160.136 137.255 160.139 C136.307 160.137 135.359 160.135 134.383 160.133 C133.415 160.134 132.447 160.135 131.449 160.136 C129.396 160.136 127.343 160.135 125.291 160.13 C122.145 160.125 119.001 160.13 115.855 160.137 C113.865 160.136 111.874 160.135 109.883 160.133 C108.939 160.135 107.995 160.137 107.023 160.139 C106.584 160.137 106.584 160.137 104.364 160.129 C103.592 160.129 102.82 160.128 102.024 160.127 C100 160 100 160 97 159 C95.59 156.794 95.59 156.794 94.152 153.898 C93.63 152.85 93.107 151.802 92.568 150.723 C92.03 149.618 91.492 148.513 90.938 147.375 C90.395 146.293 89.853 145.212 89.295 144.098 C86.675 138.792 84.358 133.764 83 128 C81.703 123.763 80.233 119.841 78 116 C77.505 115.835 77.505 115.835 75 115 C73.43 113.258 73.43 113.258 71.875 111.125 C71.616 110.776 71.616 110.776 70.305 109.008 C69 107 69 107 68 104 C64 102 64 102 44 102 C44 120.81 44 139.62 44 159 C30.878 165.561 14.67 160 0 160 C0 107.2 0 54.4 0 0 Z M42 31 C42 31.33 42 31.66 42 32 C50.25 32 58.5 32 67 32 C67 31.67 67 31.34 67 31 C58.75 31 50.5 31 42 31 Z M42 33 C42 44.55 42 56.1 42 68 C42.33 68 42.66 68 43 68 C43 56.45 43 44.9 43 33 C42.67 33 42.34 33 42 33 Z M61.578 32.219 C60.553 32.264 59.529 32.309 58.473 32.355 C57.941 32.379 57.941 32.379 55.25 32.5 C54.711 32.524 54.711 32.524 51.98 32.645 C49.32 32.762 46.66 32.881 44 33 C44.01 34.05 44.021 35.1 44.032 36.181 C44.068 40.069 44.091 43.956 44.11 47.844 C44.12 49.528 44.134 51.212 44.151 52.896 C44.175 55.313 44.186 57.731 44.195 60.148 C44.206 60.904 44.216 61.659 44.227 62.437 C44.227 64.293 44.122 66.148 44 68 C43.34 68.66 42.68 69.32 42 70 C46.146 70.117 50.291 70.188 54.438 70.25 C55.602 70.284 56.767 70.317 57.967 70.352 C64.815 70.429 71.324 70.284 77 66 C78.173 63.925 78.878 62.11 79.465 59.805 C80 58 80 58 82 56 C82.301 53.285 82.301 53.285 82.312 50.062 C82.329 49.002 82.346 47.941 82.363 46.848 C81.953 43.635 81.378 43.032 79 41 C78.732 40.01 78.464 39.02 78.188 38 C77 35 77 35 74.125 33.125 C69.908 31.607 65.99 32.023 61.578 32.219 Z M42 100 C42 100.33 42 100.66 42 101 C48.27 101 54.54 101 61 101 C61 100.67 61 100.34 61 100 C54.73 100 48.46 100 42 100 Z " fill="#FFFFFF" transform="translate(843,68)"/>
<path d="M0 0 C13.53 0 27.06 0 41 0 C41.33 18.81 41.66 37.62 42 57 C50 51 50 51 52.688 48.875 C64.302 42.301 77.465 41.262 90.43 43.625 C98.045 45.84 103.869 50.089 110 55 C110.713 55.532 111.426 56.065 112.16 56.613 C118.629 61.489 123.244 68.048 125 76 C125.33 76.99 125.66 77.98 126 79 C130.986 93.959 129.814 110.839 126.773 126.086 C126.326 128.351 125.914 130.626 125.602 132.914 C124.603 139.901 121.477 145.559 117 151 C114.977 152.105 114.977 152.105 113 153 C111.359 154.551 111.359 154.551 109.75 156.312 C100.87 165.4 90.482 168.327 78.062 169.312 C66.387 169.113 55.859 165.559 47 158 C46.287 157.411 45.574 156.822 44.84 156.215 C43.203 154.838 41.597 153.423 40 152 C39.67 156.62 39.34 161.24 39 166 C26.13 166 13.26 166 0 166 C0 111.22 0 56.44 0 0 Z M46.562 77.875 C44.579 80.573 44.404 82.702 44 86 C42.958 89.058 42.294 90.706 40 93 C38.007 102.365 38.255 112.815 41 122 C41.66 122.33 42.32 122.66 43 123 C43 124.65 43 126.3 43 128 C43.99 128.33 44.98 128.66 46 129 C47.026 130.651 48.023 132.32 49 134 C52.5 138.224 55.873 139.701 61.328 140.223 C68.784 140.486 74.806 139.284 80.438 134.188 C83.103 131.314 83.636 128.917 84 125 C84.66 124.67 85.32 124.34 86 124 C88.041 117.747 88.306 111.915 88.25 105.375 C88.258 104.46 88.265 103.545 88.273 102.602 C88.241 91.241 88.241 91.241 84 87 C82.996 85.251 81.993 83.502 81.008 81.742 C78.478 77.368 75.875 73.625 71 72 C61.108 71.233 54.415 71.835 46.562 77.875 Z M84 85 C85 87 85 87 85 87 Z M42 123 C43 125 43 125 43 125 Z " fill="#FFFFFF" transform="translate(686,62)"/>
<path d="M0 0 C1.98 1.129 1.98 1.129 4.98 2.254 C5.31 2.398 5.31 2.398 6.98 3.129 C7.145 3.624 7.145 3.624 7.98 6.129 C8.31 6.294 8.31 6.294 9.98 7.129 C10.31 7.294 10.31 7.294 11.98 8.129 C12.145 8.624 12.145 8.624 12.98 11.129 C13.97 11.789 14.96 12.449 15.98 13.129 C16.324 14.46 16.657 15.793 16.98 17.129 C17.431 17.552 17.882 17.975 18.346 18.412 C25.974 26.426 25.74 38.799 25.577 49.094 C25.543 51.495 25.557 53.892 25.576 56.293 C25.565 66.566 24.002 75.319 20.98 85.129 C20.678 86.585 20.384 88.043 20.105 89.504 C18.528 94.587 15.861 100.608 10.953 103.199 C10.628 103.353 10.628 103.353 8.98 104.129 C6.59 106.5 4.491 109.109 2.98 112.129 C1.318 112.484 -0.35 112.813 -2.02 113.129 C-3.993 113.925 -5.951 114.761 -7.895 115.629 C-12.342 117.513 -16.152 118.853 -21.02 119.129 C-21.691 119.168 -22.363 119.206 -23.055 119.246 C-35.463 119.64 -45.728 115.99 -56.02 109.129 C-57.01 108.799 -58 108.469 -59.02 108.129 C-59.35 107.469 -59.68 106.809 -60.02 106.129 C-60.35 106.129 -60.68 106.129 -61.02 106.129 C-61.35 118.999 -61.68 131.869 -62.02 145.129 C-75.55 145.129 -89.08 145.129 -103.02 145.129 C-103.02 95.959 -103.02 46.789 -103.02 -3.871 C-90.15 -3.871 -77.28 -3.871 -64.02 -3.871 C-63.855 -1.726 -63.855 -1.726 -63.02 9.129 C-62.555 8.706 -62.555 8.706 -60.207 6.566 C-42.455 -8.506 -20.396 -12.093 0 0 Z M-55.02 27.129 C-57.02 30.129 -57.02 30.129 -58.02 32.129 C-58.535 32.562 -59.051 32.995 -59.582 33.441 C-61.519 35.715 -61.094 37.22 -61.02 40.129 C-61.68 40.789 -62.34 41.449 -63.02 42.129 C-65.269 51.799 -65.055 63.701 -62.02 73.129 C-61.051 74.16 -60.05 75.16 -59.02 76.129 C-57.677 78.123 -56.343 80.122 -55.02 82.129 C-54.36 82.789 -53.7 83.449 -53.02 84.129 C-53.35 84.789 -53.68 85.449 -54.02 86.129 C-46.477 89.724 -39.73 91.862 -31.496 89.363 C-27.414 87.699 -24.063 86.216 -22.02 82.129 C-21.296 80.149 -20.617 78.151 -20.02 76.129 C-19.36 76.129 -18.7 76.129 -18.02 76.129 C-15.769 69.176 -14.72 62.592 -14.707 55.316 C-14.702 54.612 -14.697 53.908 -14.691 53.182 C-14.763 47.75 -15.034 42.114 -19.02 38.129 C-19.686 35.796 -20.353 33.462 -21.02 31.129 C-21.68 30.469 -22.34 29.809 -23.02 29.129 C-24.353 27.795 -25.666 26.441 -26.957 25.066 C-31.388 20.904 -37.509 21.664 -43.262 21.773 C-48.19 22.24 -51.488 23.675 -55.02 27.129 Z M19.98 24.129 C20.98 26.129 20.98 26.129 20.98 26.129 Z M20.98 27.129 C21.98 29.129 21.98 29.129 21.98 29.129 Z M21.98 30.129 C22.98 32.129 22.98 32.129 22.98 32.129 Z M22.98 33.129 C23.98 36.129 23.98 36.129 23.98 36.129 Z " fill="#FFFFFF" transform="translate(1186.01953125,111.87109375)"/>
<path d="M0 0 C2.664 2.235 5.213 4.531 7.711 6.949 C10 9 10 9 12.586 10.477 C17.205 13.391 20.232 18.888 21.531 24.152 C21.747 26.096 21.874 28.049 22 30 C22.305 31.319 22.64 32.632 23 33.938 C24.883 41.244 25.092 48.441 25.125 55.938 C25.13 56.696 25.134 57.455 25.139 58.236 C25.123 63.754 25.123 63.754 24 66 C9.81 66.165 9.81 66.165 -62 67 C-61.204 70.184 -60.465 73.07 -59 76 C-58.67 76.165 -58.67 76.165 -57 77 C-56.869 77.626 -56.737 78.253 -56.602 78.898 C-55.816 81.644 -54.794 82.177 -52.375 83.625 C-51.723 84.03 -51.07 84.435 -50.398 84.852 C-36.299 91.603 -17.383 88.729 -3 84 C1.273 82.388 5.423 80.544 9.547 78.586 C13 77 13 77 19 75 C19.33 85.23 19.66 95.46 20 106 C16.122 107.114 12.245 108.228 8.25 109.375 C7.054 109.722 5.858 110.069 4.626 110.427 C-21.14 117.73 -51.036 119.954 -75.469 107.188 C-77.5 106.004 -79.517 104.795 -81.512 103.551 C-84 102 -84 102 -86.195 100.914 C-89.802 99.087 -91.736 96.792 -93 93 C-93.619 92.381 -94.237 91.762 -94.875 91.125 C-97.931 88.069 -99.895 85.576 -100.188 81.188 C-100.126 80.466 -100.064 79.744 -100 79 C-100.66 79 -101.32 79 -102 79 C-102.061 78.359 -102.121 77.719 -102.184 77.059 C-102.267 76.194 -102.351 75.329 -102.438 74.438 C-102.478 74.014 -102.478 74.014 -102.684 71.871 C-102.909 69.821 -103.198 67.778 -103.527 65.742 C-104.081 61.361 -104.15 57.098 -104.125 52.688 C-104.122 51.847 -104.12 51.007 -104.117 50.142 C-104.073 44.371 -103.767 38.722 -103 33 C-102.938 31.866 -102.876 30.731 -102.812 29.562 C-100.753 20.533 -95.534 13.875 -88.562 8.062 C-86.324 6.174 -84.306 4.29 -82.25 2.188 C-80 0 -80 0 -77 -1 C-75.062 -1.956 -73.124 -2.915 -71.188 -3.875 C-49.673 -13.699 -19.894 -14 0 0 Z M-54 22 C-55.963 24.045 -57.593 25.396 -60 27 C-60.33 30.3 -60.66 33.6 -61 37 C-46.81 37 -32.62 37 -18 37 C-19 25 -19 25 -21.75 21.938 C-22.822 21.298 -23.895 20.659 -25 20 C-25.866 19.423 -26.732 18.845 -27.625 18.25 C-35.766 13.965 -47.683 14.924 -54 22 Z M-100 24 C-99 26 -99 26 -99 26 Z M-101 27 C-100 29 -100 29 -100 29 Z M-102 29 C-101 32 -101 32 -101 32 Z M-62 32 C-61 34 -61 34 -61 34 Z M-17 32 C-17 33.65 -17 35.3 -17 37 C-16.67 37 -16.34 37 -16 37 C-16 35.35 -16 33.7 -16 32 C-16.33 32 -16.66 32 -17 32 Z M-63 35 C-62 37 -62 37 -62 37 Z M-64 38 C-64 38.33 -64 38.66 -64 39 C-48.16 39 -32.32 39 -16 39 C-16 38.67 -16 38.34 -16 38 C-31.84 38 -47.68 38 -64 38 Z " fill="#FFFFFF" transform="translate(634,115)"/>
<path d="M0 0 C12.87 0 25.74 0 39 0 C39 39.6 39 79.2 39 120 C26.13 120 13.26 120 0 120 C0 80.4 0 40.8 0 0 Z " fill="#FFFFFF" transform="translate(1009,108)"/>
<path d="M0 0 C12.87 0 25.74 0 39 0 C39 10.56 39 21.12 39 32 C26.13 32 13.26 32 0 32 C0 21.44 0 10.88 0 0 Z " fill="#FFFFFF" transform="translate(1009,62)"/>
<path d="M0 0 C0.33 0 0.66 0 1 0 C1 54.45 1 108.9 1 165 C0.67 165 0.34 165 0 165 C0 110.55 0 56.1 0 0 Z " fill="#FFFFFF" transform="translate(684,62)"/>
<path d="M0 0 C0.33 0 0.66 0 1 0 C1 52.47 1 104.94 1 159 C0.67 159 0.34 159 0 159 C0 106.53 0 54.06 0 0 Z " fill="#FFFFFF" transform="translate(841,68)"/>
<path d="M0 0 C0.33 0 0.66 0 1 0 C1 49.17 1 98.34 1 149 C0.67 149 0.34 149 0 149 C0 99.83 0 50.66 0 0 Z " fill="#FFFFFF" transform="translate(1081,108)"/>
<path d="M0 0 C0.33 0 0.66 0 1 0 C1 39.27 1 78.54 1 119 C0.67 119 0.34 119 0 119 C0 79.73 0 40.46 0 0 Z " fill="#FFFFFF" transform="translate(1049,108)"/>
<path d="M0 0 C24.75 0 49.5 0 75 0 C75 0.33 75 0.66 75 1 C50.25 1 25.5 1 0 1 C0 0.67 0 0.34 0 0 Z " fill="#FFFFFF" transform="translate(843,66)"/>
<path d="M0 0 C15.51 0 31.02 0 47 0 C47 0.33 47 0.66 47 1 C31.49 1 15.98 1 0 1 C0 0.67 0 0.34 0 0 Z " fill="#FFFFFF" transform="translate(438,229)"/>
<path d="M0 0 C15.51 0 31.02 0 47 0 C47 0.33 47 0.66 47 1 C31.49 1 15.98 1 0 1 C0 0.67 0 0.34 0 0 Z " fill="#FFFFFF" transform="translate(334,229)"/>
<path d="M0 0 C14.52 0 29.04 0 44 0 C44 0.33 44 0.66 44 1 C29.48 1 14.96 1 0 1 C0 0.67 0 0.34 0 0 Z " fill="#FFFFFF" transform="translate(943,229)"/>
<path d="M0 0 C13.53 0 27.06 0 41 0 C41 0.33 41 0.66 41 1 C27.47 1 13.94 1 0 1 C0 0.67 0 0.34 0 0 Z " fill="#FFFFFF" transform="translate(844,229)"/>
<path d="M0 0 C13.2 0 26.4 0 40 0 C40 0.33 40 0.66 40 1 C26.8 1 13.6 1 0 1 C0 0.67 0 0.34 0 0 Z " fill="#FFFFFF" transform="translate(483,66)"/>
<path d="M0 0 C13.2 0 26.4 0 40 0 C40 0.33 40 0.66 40 1 C26.8 1 13.6 1 0 1 C0 0.67 0 0.34 0 0 Z " fill="#FFFFFF" transform="translate(389,66)"/>
<path d="M0 0 C13.2 0 26.4 0 40 0 C40 0.33 40 0.66 40 1 C26.8 1 13.6 1 0 1 C0 0.67 0 0.34 0 0 Z " fill="#FFFFFF" transform="translate(296,66)"/>
<path d="M0 0 C12.87 0 25.74 0 39 0 C39 0.33 39 0.66 39 1 C26.13 1 13.26 1 0 1 C0 0.67 0 0.34 0 0 Z " fill="#FFFFFF" transform="translate(1083,106)"/>
<path d="M0 0 C12.54 0 25.08 0 38 0 C38 0.33 38 0.66 38 1 C25.46 1 12.92 1 0 1 C0 0.67 0 0.34 0 0 Z " fill="#FFFFFF" transform="translate(1009,229)"/>
<path d="M0 0 C12.54 0 25.08 0 38 0 C38 0.33 38 0.66 38 1 C25.46 1 12.92 1 0 1 C0 0.67 0 0.34 0 0 Z " fill="#FFFFFF" transform="translate(687,229)"/>
<path d="M0 0 C12.54 0 25.08 0 38 0 C38 0.33 38 0.66 38 1 C25.46 1 12.92 1 0 1 C0 0.67 0 0.34 0 0 Z " fill="#FFFFFF" transform="translate(1009,106)"/>
<path d="M0 0 C12.54 0 25.08 0 38 0 C38 0.33 38 0.66 38 1 C25.46 1 12.92 1 0 1 C0 0.67 0 0.34 0 0 Z " fill="#FFFFFF" transform="translate(1009,95)"/>
<path d="M0 0 C0.33 0 0.66 0 1 0 C1 10.23 1 20.46 1 31 C0.67 31 0.34 31 0 31 C0 20.77 0 10.54 0 0 Z " fill="#FFFFFF" transform="translate(1049,62)"/>
<path d="M0 0 C0.33 0 0.66 0 1 0 C1 9.9 1 19.8 1 30 C0.67 30 0.34 30 0 30 C0 20.1 0 10.2 0 0 Z " fill="#FFFFFF" transform="translate(654,190)"/>
<path d="M0 0 C7.92 0 15.84 0 24 0 C24 0.33 24 0.66 24 1 C16.08 1 8.16 1 0 1 C0 0.67 0 0.34 0 0 Z " fill="#FFFFFF" transform="translate(584,103)"/>
<path d="M0 0 C0.33 0 0.66 0 1 0 C1 6.93 1 13.86 1 21 C0.67 21 0.34 21 0 21 C0 14.07 0 7.14 0 0 Z " fill="#FFFFFF" transform="translate(772,157)"/>
<path d="M0 0 C6.6 0 13.2 0 20 0 C20 0.33 20 0.66 20 1 C13.4 1 6.8 1 0 1 C0 0.67 0 0.34 0 0 Z " fill="#FFFFFF" transform="translate(593,202)"/>
<path d="M0 0 C0.33 0 0.66 0 1 0 C1 6.27 1 12.54 1 19 C0.67 19 0.34 19 0 19 C0 12.73 0 6.46 0 0 Z " fill="#FFFFFF" transform="translate(528,158)"/>
<path d="M0 0 C5.94 0 11.88 0 18 0 C18 0.33 18 0.66 18 1 C12.06 1 6.12 1 0 1 C0 0.67 0 0.34 0 0 Z " fill="#FFFFFF" transform="translate(755,103)"/>
<path d="M0 0 C0.33 0 0.66 0 1 0 C1 5.61 1 11.22 1 17 C0.67 17 0.34 17 0 17 C0 11.39 0 5.78 0 0 Z " fill="#FFFFFF" transform="translate(1169,159)"/>
<path d="M0 0 C0.33 0 0.66 0 1 0 C1 5.61 1 11.22 1 17 C0.67 17 0.34 17 0 17 C0 11.39 0 5.78 0 0 Z " fill="#FFFFFF" transform="translate(968,104)"/>
<path d="M0 0 C5.61 0 11.22 0 17 0 C17 0.33 17 0.66 17 1 C11.39 1 5.78 1 0 1 C0 0.67 0 0.34 0 0 Z " fill="#FFFFFF" transform="translate(1152,103)"/>
<path d="M0 0 C0.33 0 0.66 0 1 0 C1 5.28 1 10.56 1 16 C0.67 16 0.34 16 0 16 C0 10.72 0 5.44 0 0 Z " fill="#FFFFFF" transform="translate(1123,160)"/>
<path d="M0 0 C0.33 0 0.66 0 1 0 C1 4.95 1 9.9 1 15 C0.67 15 0.34 15 0 15 C0 10.05 0 5.1 0 0 Z " fill="#FFFFFF" transform="translate(660,163)"/>
<path d="M0 0 C4.95 0 9.9 0 15 0 C15 0.33 15 0.66 15 1 C10.05 1 5.1 1 0 1 C0 0.67 0 0.34 0 0 Z " fill="#FFFFFF" transform="translate(1139,135)"/>
<path d="M0 0 C4.62 0 9.24 0 14 0 C14 0.33 14 0.66 14 1 C9.38 1 4.76 1 0 1 C0 0.67 0 0.34 0 0 Z " fill="#FFFFFF" transform="translate(592,232)"/>
<path d="M0 0 C0.66 0.66 1.32 1.32 2 2 C1.977 4.602 1.977 4.602 1.625 7.625 C1.514 8.628 1.403 9.631 1.289 10.664 C1.194 11.435 1.098 12.206 1 13 C0.67 13 0.34 13 0 13 C0 8.71 0 4.42 0 0 Z " fill="#FFFFFF" transform="translate(726,214)"/>
<path d="M0 0 C0.33 0 0.66 0 1 0 C1 4.62 1 9.24 1 14 C0.67 14 0.34 14 0 14 C0 9.38 0 4.76 0 0 Z " fill="#FFFFFF" transform="translate(816,161)"/>
<path d="M0 0 C4.62 0 9.24 0 14 0 C14 0.33 14 0.66 14 1 C9.38 1 4.76 1 0 1 C0 0.67 0 0.34 0 0 Z " fill="#FFFFFF" transform="translate(743,135)"/>
<path d="M0 0 C0.33 0 0.66 0 1 0 C1.33 3.96 1.66 7.92 2 12 C1.67 12.165 1.67 12.165 0 13 C0 8.71 0 4.42 0 0 Z " fill="#FFFFFF" transform="translate(1123,108)"/>
<path d="M0 0 C0.33 0 0.66 0 1 0 C1 3.96 1 7.92 1 12 C0.67 12 0.34 12 0 12 C0 8.04 0 4.08 0 0 Z " fill="#FFFFFF" transform="translate(923,112)"/>
<path d="M0 0 C3.63 0 7.26 0 11 0 C11 0.33 11 0.66 11 1 C7.37 1 3.74 1 0 1 C0 0.67 0 0.34 0 0 Z " fill="#FFFFFF" transform="translate(606,231)"/>
<path d="M0 0 C3.3 0 6.6 0 10 0 C10 0.33 10 0.66 10 1 C6.7 1 3.4 1 0 1 C0 0.67 0 0.34 0 0 Z " fill="#FFFFFF" transform="translate(745,200)"/>
<path d="M0 0 C0.33 0 0.66 0 1 0 C1 3.3 1 6.6 1 10 C0.67 10 0.34 10 0 10 C0 6.7 0 3.4 0 0 Z " fill="#FFFFFF" transform="translate(726,163)"/>
<path d="M0 0 C2.97 0 5.94 0 9 0 C9 0.33 9 0.66 9 1 C6.03 1 3.06 1 0 1 C0 0.67 0 0.34 0 0 Z " fill="#FFFFFF" transform="translate(1156,232)"/>
<path d="M0 0 C2.97 0 5.94 0 9 0 C9 0.33 9 0.66 9 1 C6.03 1 3.06 1 0 1 C0 0.67 0 0.34 0 0 Z " fill="#FFFFFF" transform="translate(759,232)"/>
<path d="M0 0 C2.97 0 5.94 0 9 0 C9 0.33 9 0.66 9 1 C6.03 1 3.06 1 0 1 C0 0.67 0 0.34 0 0 Z " fill="#FFFFFF" transform="translate(582,231)"/>
<path d="M0 0 C2.97 0 5.94 0 9 0 C9 0.33 9 0.66 9 1 C6.03 1 3.06 1 0 1 C0 0.67 0 0.34 0 0 Z " fill="#FFFFFF" transform="translate(1142,200)"/>
<path d="M0 0 C0.33 0 0.66 0 1 0 C1 2.64 1 5.28 1 8 C0.67 8 0.34 8 0 8 C0 5.36 0 2.72 0 0 Z " fill="#FFFFFF" transform="translate(815,175)"/>
<path d="M0 0 C0.33 0 0.66 0 1 0 C1 2.64 1 5.28 1 8 C0.67 8 0.34 8 0 8 C0 5.36 0 2.72 0 0 Z " fill="#FFFFFF" transform="translate(727,173)"/>
<path d="M0 0 C0.33 0 0.66 0 1 0 C1 2.64 1 5.28 1 8 C0.67 8 0.34 8 0 8 C0 5.36 0 2.72 0 0 Z " fill="#FFFFFF" transform="translate(659,154)"/>
<path d="M0 0 C2.64 0 5.28 0 8 0 C8 0.33 8 0.66 8 1 C5.36 1 2.72 1 0 1 C0 0.67 0 0.34 0 0 Z " fill="#FFFFFF" transform="translate(592,132)"/>
<path d="M0 0 C2.64 0 5.28 0 8 0 C8 0.33 8 0.66 8 1 C5.36 1 2.72 1 0 1 C0 0.67 0 0.34 0 0 Z " fill="#FFFFFF" transform="translate(919,67)"/>
<path d="M0 0 C2.31 0 4.62 0 7 0 C7 0.33 7 0.66 7 1 C4.69 1 2.38 1 0 1 C0 0.67 0 0.34 0 0 Z " fill="#FFFFFF" transform="translate(1149,231)"/>
<path d="M0 0 C2.31 0 4.62 0 7 0 C7 0.33 7 0.66 7 1 C4.69 1 2.38 1 0 1 C0 0.67 0 0.34 0 0 Z " fill="#FFFFFF" transform="translate(752,231)"/>
<path d="M0 0 C0.33 0 0.66 0 1 0 C1 2.31 1 4.62 1 7 C0.67 7 0.34 7 0 7 C0 4.69 0 2.38 0 0 Z " fill="#FFFFFF" transform="translate(727,155)"/>
<path d="M0 0 C0.33 0 0.66 0 1 0 C1 2.31 1 4.62 1 7 C0.67 7 0.34 7 0 7 C0 4.69 0 2.38 0 0 Z " fill="#FFFFFF" transform="translate(815,153)"/>
<path d="M0 0 C1.98 0 3.96 0 6 0 C6 0.33 6 0.66 6 1 C4.02 1 2.04 1 0 1 C0 0.67 0 0.34 0 0 Z " fill="#FFFFFF" transform="translate(1166,231)"/>
<path d="M0 0 C1.98 0 3.96 0 6 0 C6 0.33 6 0.66 6 1 C4.02 1 2.04 1 0 1 C0 0.67 0 0.34 0 0 Z " fill="#FFFFFF" transform="translate(769,231)"/>
<path d="M0 0 C1.98 0 3.96 0 6 0 C6 0.33 6 0.66 6 1 C4.02 1 2.04 1 0 1 C0 0.67 0 0.34 0 0 Z " fill="#FFFFFF" transform="translate(617,230)"/>
<path d="M0 0 C1.98 0 3.96 0 6 0 C6 0.33 6 0.66 6 1 C4.02 1 2.04 1 0 1 C0 0.67 0 0.34 0 0 Z " fill="#FFFFFF" transform="translate(613,201)"/>
<path d="M0 0 C0.33 0 0.66 0 1 0 C1 1.98 1 3.96 1 6 C0.67 6 0.34 6 0 6 C0 4.02 0 2.04 0 0 Z " fill="#FFFFFF" transform="translate(529,178)"/>
<path d="M0 0 C0.33 0 0.66 0 1 0 C1 1.98 1 3.96 1 6 C0.67 6 0.34 6 0 6 C0 4.02 0 2.04 0 0 Z " fill="#FFFFFF" transform="translate(1124,176)"/>
<path d="M0 0 C0.33 0 0.66 0 1 0 C1 1.98 1 3.96 1 6 C0.67 6 0.34 6 0 6 C0 4.02 0 2.04 0 0 Z " fill="#FFFFFF" transform="translate(1168,153)"/>
<path d="M0 0 C0.33 0 0.66 0 1 0 C1 1.98 1 3.96 1 6 C0.67 6 0.34 6 0 6 C0 4.02 0 2.04 0 0 Z " fill="#FFFFFF" transform="translate(529,152)"/>
<path d="M0 0 C1.98 0 3.96 0 6 0 C6 0.33 6 0.66 6 1 C4.02 1 2.04 1 0 1 C0 0.67 0 0.34 0 0 Z " fill="#FFFFFF" transform="translate(578,104)"/>
<path d="M0 0 C1.65 0 3.3 0 5 0 C5 0.33 5 0.66 5 1 C3.35 1 1.7 1 0 1 C0 0.67 0 0.34 0 0 Z " fill="#FFFFFF" transform="translate(577,230)"/>
<path d="M0 0 C1.65 0 3.3 0 5 0 C5 0.33 5 0.66 5 1 C3.35 1 1.7 1 0 1 C0 0.67 0 0.34 0 0 Z " fill="#FFFFFF" transform="translate(624,229)"/>
<path d="M0 0 C0.99 0.99 1.98 1.98 3 3 C2.01 2.67 1.02 2.34 0 2 C0 1.34 0 0.68 0 0 Z " fill="#FFFFFF" transform="translate(728,216)"/>
<path d="M0 0 C0 0.99 0 1.98 0 3 C-0.66 2.67 -1.32 2.34 -2 2 C-1.34 1.34 -0.68 0.68 0 0 Z " fill="#FFFFFF" transform="translate(798,216)"/>
<path d="M0 0 C0.33 0 0.66 0 1 0 C1 1.65 1 3.3 1 5 C0.67 5 0.34 5 0 5 C0 3.35 0 1.7 0 0 Z " fill="#FFFFFF" transform="translate(814,183)"/>
<path d="M0 0 C0.33 0 0.66 0 1 0 C1 1.65 1 3.3 1 5 C0.67 5 0.34 5 0 5 C0 3.35 0 1.7 0 0 Z " fill="#FFFFFF" transform="translate(321,182)"/>
<path d="M0 0 C0.33 0 0.66 0 1 0 C1 1.65 1 3.3 1 5 C0.67 5 0.34 5 0 5 C0 3.35 0 1.7 0 0 Z " fill="#FFFFFF" transform="translate(1168,177)"/>
<path d="M0 0 C0.33 0 0.66 0 1 0 C1 1.65 1 3.3 1 5 C0.67 5 0.34 5 0 5 C0 3.35 0 1.7 0 0 Z " fill="#FFFFFF" transform="translate(1124,154)"/>
<path d="M0 0 C0.33 0 0.66 0 1 0 C1 1.65 1 3.3 1 5 C0.67 5 0.34 5 0 5 C0 3.35 0 1.7 0 0 Z " fill="#FFFFFF" transform="translate(771,152)"/>
<path d="M0 0 C1.65 0 3.3 0 5 0 C5 0.33 5 0.66 5 1 C3.35 1 1.7 1 0 1 C0 0.67 0 0.34 0 0 Z " fill="#FFFFFF" transform="translate(587,133)"/>
<path d="M0 0 C0.33 0 0.66 0 1 0 C1 1.65 1 3.3 1 5 C0.67 5 0.34 5 0 5 C0 3.35 0 1.7 0 0 Z " fill="#FFFFFF" transform="translate(376,113)"/>
<path d="M0 0 C1.65 0 3.3 0 5 0 C5 0.33 5 0.66 5 1 C3.35 1 1.7 1 0 1 C0 0.67 0 0.34 0 0 Z " fill="#FFFFFF" transform="translate(1169,104)"/>
<path d="M0 0 C1.65 0 3.3 0 5 0 C5 0.33 5 0.66 5 1 C3.35 1 1.7 1 0 1 C0 0.67 0 0.34 0 0 Z " fill="#FFFFFF" transform="translate(750,104)"/>
<path d="M0 0 C1.65 0 3.3 0 5 0 C5 0.33 5 0.66 5 1 C3.35 1 1.7 1 0 1 C0 0.67 0 0.34 0 0 Z " fill="#FFFFFF" transform="translate(608,104)"/>
<path d="M0 0 C0.33 0 0.66 0 1 0 C1 1.65 1 3.3 1 5 C0.67 5 0.34 5 0 5 C0 3.35 0 1.7 0 0 Z " fill="#FFFFFF" transform="translate(967,99)"/>
<path d="M0 0 C0.33 0 0.66 0 1 0 C1 1.65 1 3.3 1 5 C0.67 5 0.34 5 0 5 C0 3.35 0 1.7 0 0 Z " fill="#FFFFFF" transform="translate(478,78)"/>
<path d="M0 0 C0.33 0 0.66 0 1 0 C1 1.65 1 3.3 1 5 C0.67 5 0.34 5 0 5 C0 3.35 0 1.7 0 0 Z " fill="#FFFFFF" transform="translate(523,70)"/>
<path d="M0 0 C1.65 0 3.3 0 5 0 C5 0.33 5 0.66 5 1 C3.35 1 1.7 1 0 1 C0 0.67 0 0.34 0 0 Z " fill="#FFFFFF" transform="translate(927,68)"/>
<path d="M0 0 C4 1 4 1 4 1 Z " fill="#FFFFFF" transform="translate(1145,230)"/>
<path d="M0 0 C4 1 4 1 4 1 Z " fill="#FFFFFF" transform="translate(775,230)"/>
<path d="M0 0 C4 1 4 1 4 1 Z " fill="#FFFFFF" transform="translate(573,229)"/>
<path d="M0 0 C4 1 4 1 4 1 Z " fill="#FFFFFF" transform="translate(629,228)"/>
<path d="M0 0 C4 1 4 1 4 1 Z " fill="#FFFFFF" transform="translate(633,227)"/>
<path d="M0 0 C4 1 4 1 4 1 Z " fill="#FFFFFF" transform="translate(637,226)"/>
<path d="M0 0 C1 4 1 4 1 4 Z " fill="#FFFFFF" transform="translate(487,223)"/>
<path d="M0 0 C1 4 1 4 1 4 Z " fill="#FFFFFF" transform="translate(434,220)"/>
<path d="M0 0 C1 4 1 4 1 4 Z " fill="#FFFFFF" transform="translate(330,220)"/>
<path d="M0 0 C1 4 1 4 1 4 Z " fill="#FFFFFF" transform="translate(488,219)"/>
<path d="M0 0 C1 4 1 4 1 4 Z " fill="#FFFFFF" transform="translate(384,218)"/>
<path d="M0 0 C1 4 1 4 1 4 Z " fill="#FFFFFF" transform="translate(329,216)"/>
<path d="M0 0 C1 4 1 4 1 4 Z " fill="#FFFFFF" transform="translate(489,215)"/>
<path d="M0 0 C1 4 1 4 1 4 Z " fill="#FFFFFF" transform="translate(385,214)"/>
<path d="M0 0 C1 4 1 4 1 4 Z " fill="#FFFFFF" transform="translate(328,212)"/>
<path d="M0 0 C1 4 1 4 1 4 Z " fill="#FFFFFF" transform="translate(432,211)"/>
<path d="M0 0 C1 4 1 4 1 4 Z " fill="#FFFFFF" transform="translate(386,210)"/>
<path d="M0 0 C1 4 1 4 1 4 Z " fill="#FFFFFF" transform="translate(327,208)"/>
<path d="M0 0 C1 4 1 4 1 4 Z " fill="#FFFFFF" transform="translate(431,207)"/>
<path d="M0 0 C1 4 1 4 1 4 Z " fill="#FFFFFF" transform="translate(491,206)"/>
<path d="M0 0 C1 4 1 4 1 4 Z " fill="#FFFFFF" transform="translate(430,203)"/>
<path d="M0 0 C1 4 1 4 1 4 Z " fill="#FFFFFF" transform="translate(492,202)"/>
<path d="M0 0 C1 4 1 4 1 4 Z " fill="#FFFFFF" transform="translate(388,201)"/>
<path d="M0 0 C4 1 4 1 4 1 Z " fill="#FFFFFF" transform="translate(589,201)"/>
<path d="M0 0 C4 1 4 1 4 1 Z " fill="#FFFFFF" transform="translate(619,200)"/>
<path d="M0 0 C1 4 1 4 1 4 Z " fill="#FFFFFF" transform="translate(429,199)"/>
<path d="M0 0 C1 4 1 4 1 4 Z " fill="#FFFFFF" transform="translate(325,199)"/>
<path d="M0 0 C4 1 4 1 4 1 Z " fill="#FFFFFF" transform="translate(1151,199)"/>
<path d="M0 0 C4 1 4 1 4 1 Z " fill="#FFFFFF" transform="translate(1138,199)"/>
<path d="M0 0 C4 1 4 1 4 1 Z " fill="#FFFFFF" transform="translate(755,199)"/>
<path d="M0 0 C4 1 4 1 4 1 Z " fill="#FFFFFF" transform="translate(741,199)"/>
<path d="M0 0 C1 4 1 4 1 4 Z " fill="#FFFFFF" transform="translate(493,198)"/>
<path d="M0 0 C1 4 1 4 1 4 Z " fill="#FFFFFF" transform="translate(389,197)"/>
<path d="M0 0 C1 4 1 4 1 4 Z " fill="#FFFFFF" transform="translate(324,195)"/>
<path d="M0 0 C1 4 1 4 1 4 Z " fill="#FFFFFF" transform="translate(390,193)"/>
<path d="M0 0 C1 4 1 4 1 4 Z " fill="#FFFFFF" transform="translate(323,191)"/>
<path d="M0 0 C0 3 0 3 0 3 Z " fill="#FFFFFF" transform="translate(767,191)"/>
<path d="M0 0 C1 4 1 4 1 4 Z " fill="#FFFFFF" transform="translate(427,190)"/>
<path d="M0 0 C1 4 1 4 1 4 Z " fill="#FFFFFF" transform="translate(495,189)"/>
<path d="M0 0 C1 4 1 4 1 4 Z " fill="#FFFFFF" transform="translate(391,189)"/>
<path d="M0 0 C1 4 1 4 1 4 Z " fill="#FFFFFF" transform="translate(813,188)"/>
<path d="M0 0 C1 4 1 4 1 4 Z " fill="#FFFFFF" transform="translate(1210,187)"/>
<path d="M0 0 C1 4 1 4 1 4 Z " fill="#FFFFFF" transform="translate(322,187)"/>
<path d="M0 0 C1 4 1 4 1 4 Z " fill="#FFFFFF" transform="translate(426,186)"/>
<path d="M0 0 C1 4 1 4 1 4 Z " fill="#FFFFFF" transform="translate(496,185)"/>
<path d="M0 0 C1 4 1 4 1 4 Z " fill="#FFFFFF" transform="translate(530,184)"/>
<path d="M0 0 C1 4 1 4 1 4 Z " fill="#FFFFFF" transform="translate(392,184)"/>
<path d="M0 0 C1 4 1 4 1 4 Z " fill="#FFFFFF" transform="translate(1167,182)"/>
<path d="M0 0 C1 4 1 4 1 4 Z " fill="#FFFFFF" transform="translate(572,182)"/>
<path d="M0 0 C1 4 1 4 1 4 Z " fill="#FFFFFF" transform="translate(425,182)"/>
<path d="M0 0 C1 4 1 4 1 4 Z " fill="#FFFFFF" transform="translate(497,181)"/>
<path d="M0 0 C1 4 1 4 1 4 Z " fill="#FFFFFF" transform="translate(393,180)"/>
<path d="M0 0 C1 4 1 4 1 4 Z " fill="#FFFFFF" transform="translate(771,179)"/>
<path d="M0 0 C1 4 1 4 1 4 Z " fill="#FFFFFF" transform="translate(424,178)"/>
<path d="M0 0 C1 4 1 4 1 4 Z " fill="#FFFFFF" transform="translate(320,178)"/>
<path d="M0 0 C1 4 1 4 1 4 Z " fill="#FFFFFF" transform="translate(394,176)"/>
<path d="M0 0 C1 4 1 4 1 4 Z " fill="#FFFFFF" transform="translate(319,174)"/>
<path d="M0 0 C1 4 1 4 1 4 Z " fill="#FFFFFF" transform="translate(499,172)"/>
<path d="M0 0 C1 4 1 4 1 4 Z " fill="#FFFFFF" transform="translate(395,172)"/>
<path d="M0 0 C1 4 1 4 1 4 Z " fill="#FFFFFF" transform="translate(318,170)"/>
<path d="M0 0 C1 4 1 4 1 4 Z " fill="#FFFFFF" transform="translate(422,169)"/>
<path d="M0 0 C1 4 1 4 1 4 Z " fill="#FFFFFF" transform="translate(500,168)"/>
<path d="M0 0 C1 4 1 4 1 4 Z " fill="#FFFFFF" transform="translate(361,168)"/>
<path d="M0 0 C1 4 1 4 1 4 Z " fill="#FFFFFF" transform="translate(457,167)"/>
<path d="M0 0 C1 4 1 4 1 4 Z " fill="#FFFFFF" transform="translate(454,166)"/>
<path d="M0 0 C1 4 1 4 1 4 Z " fill="#FFFFFF" transform="translate(421,165)"/>
<path d="M0 0 C1 4 1 4 1 4 Z " fill="#FFFFFF" transform="translate(501,164)"/>
<path d="M0 0 C1 4 1 4 1 4 Z " fill="#FFFFFF" transform="translate(360,164)"/>
<path d="M0 0 C1 4 1 4 1 4 Z " fill="#FFFFFF" transform="translate(458,163)"/>
<path d="M0 0 C1 4 1 4 1 4 Z " fill="#FFFFFF" transform="translate(397,163)"/>
<path d="M0 0 C1 4 1 4 1 4 Z " fill="#FFFFFF" transform="translate(420,161)"/>
<path d="M0 0 C1 4 1 4 1 4 Z " fill="#FFFFFF" transform="translate(316,161)"/>
<path d="M0 0 C1 4 1 4 1 4 Z " fill="#FFFFFF" transform="translate(502,160)"/>
<path d="M0 0 C1 4 1 4 1 4 Z " fill="#FFFFFF" transform="translate(365,160)"/>
<path d="M0 0 C1 4 1 4 1 4 Z " fill="#FFFFFF" transform="translate(359,160)"/>
<path d="M0 0 C1 4 1 4 1 4 Z " fill="#FFFFFF" transform="translate(398,159)"/>
<path d="M0 0 C1 4 1 4 1 4 Z " fill="#FFFFFF" transform="translate(452,157)"/>
<path d="M0 0 C1 4 1 4 1 4 Z " fill="#FFFFFF" transform="translate(419,157)"/>
<path d="M0 0 C1 4 1 4 1 4 Z " fill="#FFFFFF" transform="translate(315,157)"/>
<path d="M0 0 C1 4 1 4 1 4 Z " fill="#FFFFFF" transform="translate(366,156)"/>
<path d="M0 0 C1 4 1 4 1 4 Z " fill="#FFFFFF" transform="translate(358,156)"/>
<path d="M0 0 C1 4 1 4 1 4 Z " fill="#FFFFFF" transform="translate(503,155)"/>
<path d="M0 0 C1 4 1 4 1 4 Z " fill="#FFFFFF" transform="translate(399,155)"/>
<path d="M0 0 C1 4 1 4 1 4 Z " fill="#FFFFFF" transform="translate(460,154)"/>
<path d="M0 0 C1 4 1 4 1 4 Z " fill="#FFFFFF" transform="translate(451,153)"/>
<path d="M0 0 C1 4 1 4 1 4 Z " fill="#FFFFFF" transform="translate(418,153)"/>
<path d="M0 0 C1 4 1 4 1 4 Z " fill="#FFFFFF" transform="translate(314,153)"/>
<path d="M0 0 C1 4 1 4 1 4 Z " fill="#FFFFFF" transform="translate(367,152)"/>
<path d="M0 0 C0.66 0 1.32 0 2 0 C2 0.66 2 1.32 2 2 C1.34 2 0.68 2 0 2 C0 1.34 0 0.68 0 0 Z " fill="#FFFFFF" transform="translate(942,152)"/>
<path d="M0 0 C1 4 1 4 1 4 Z " fill="#FFFFFF" transform="translate(504,151)"/>
<path d="M0 0 C1 4 1 4 1 4 Z " fill="#FFFFFF" transform="translate(357,151)"/>
<path d="M0 0 C1 4 1 4 1 4 Z " fill="#FFFFFF" transform="translate(461,150)"/>
<path d="M0 0 C1 4 1 4 1 4 Z " fill="#FFFFFF" transform="translate(658,149)"/>
<path d="M0 0 C1 4 1 4 1 4 Z " fill="#FFFFFF" transform="translate(450,149)"/>
<path d="M0 0 C1 4 1 4 1 4 Z " fill="#FFFFFF" transform="translate(313,149)"/>
<path d="M0 0 C1 4 1 4 1 4 Z " fill="#FFFFFF" transform="translate(814,148)"/>
<path d="M0 0 C1 4 1 4 1 4 Z " fill="#FFFFFF" transform="translate(530,148)"/>
<path d="M0 0 C1 4 1 4 1 4 Z " fill="#FFFFFF" transform="translate(505,147)"/>
<path d="M0 0 C1 4 1 4 1 4 Z " fill="#FFFFFF" transform="translate(356,147)"/>
<path d="M0 0 C1 4 1 4 1 4 Z " fill="#FFFFFF" transform="translate(462,146)"/>
<path d="M0 0 C1 4 1 4 1 4 Z " fill="#FFFFFF" transform="translate(401,146)"/>
<path d="M0 0 C1 4 1 4 1 4 Z " fill="#FFFFFF" transform="translate(657,145)"/>
<path d="M0 0 C1 4 1 4 1 4 Z " fill="#FFFFFF" transform="translate(449,145)"/>
<path d="M0 0 C1 4 1 4 1 4 Z " fill="#FFFFFF" transform="translate(312,145)"/>
<path d="M0 0 C1 4 1 4 1 4 Z " fill="#FFFFFF" transform="translate(416,144)"/>
<path d="M0 0 C1 4 1 4 1 4 Z " fill="#FFFFFF" transform="translate(506,143)"/>
<path d="M0 0 C1 4 1 4 1 4 Z " fill="#FFFFFF" transform="translate(369,143)"/>
<path d="M0 0 C1 4 1 4 1 4 Z " fill="#FFFFFF" transform="translate(355,143)"/>
<path d="M0 0 C1 4 1 4 1 4 Z " fill="#FFFFFF" transform="translate(463,142)"/>
<path d="M0 0 C1 4 1 4 1 4 Z " fill="#FFFFFF" transform="translate(402,142)"/>
<path d="M0 0 C0 3 0 3 0 3 Z " fill="#FFFFFF" transform="translate(733,141)"/>
<path d="M0 0 C1 4 1 4 1 4 Z " fill="#FFFFFF" transform="translate(448,140)"/>
<path d="M0 0 C1 4 1 4 1 4 Z " fill="#FFFFFF" transform="translate(415,140)"/>
<path d="M0 0 C1 4 1 4 1 4 Z " fill="#FFFFFF" transform="translate(311,140)"/>
<path d="M0 0 C1 4 1 4 1 4 Z " fill="#FFFFFF" transform="translate(370,139)"/>
<path d="M0 0 C1 4 1 4 1 4 Z " fill="#FFFFFF" transform="translate(354,139)"/>
<path d="M0 0 C1 4 1 4 1 4 Z " fill="#FFFFFF" transform="translate(507,138)"/>
<path d="M0 0 C1 4 1 4 1 4 Z " fill="#FFFFFF" transform="translate(403,138)"/>
<path d="M0 0 C1 4 1 4 1 4 Z " fill="#FFFFFF" transform="translate(447,136)"/>
<path d="M0 0 C1 4 1 4 1 4 Z " fill="#FFFFFF" transform="translate(414,136)"/>
<path d="M0 0 C1 4 1 4 1 4 Z " fill="#FFFFFF" transform="translate(310,136)"/>
<path d="M0 0 C1 4 1 4 1 4 Z " fill="#FFFFFF" transform="translate(371,135)"/>
<path d="M0 0 C1 4 1 4 1 4 Z " fill="#FFFFFF" transform="translate(353,135)"/>
<path d="M0 0 C1 4 1 4 1 4 Z " fill="#FFFFFF" transform="translate(508,134)"/>
<path d="M0 0 C1 4 1 4 1 4 Z " fill="#FFFFFF" transform="translate(465,133)"/>
<path d="M0 0 C4 1 4 1 4 1 Z " fill="#FFFFFF" transform="translate(600,133)"/>
<path d="M0 0 C1 4 1 4 1 4 Z " fill="#FFFFFF" transform="translate(446,132)"/>
<path d="M0 0 C1 4 1 4 1 4 Z " fill="#FFFFFF" transform="translate(413,132)"/>
<path d="M0 0 C1 4 1 4 1 4 Z " fill="#FFFFFF" transform="translate(309,132)"/>
<path d="M0 0 C1 4 1 4 1 4 Z " fill="#FFFFFF" transform="translate(509,130)"/>
<path d="M0 0 C1 4 1 4 1 4 Z " fill="#FFFFFF" transform="translate(352,130)"/>
<path d="M0 0 C1 4 1 4 1 4 Z " fill="#FFFFFF" transform="translate(466,129)"/>
<path d="M0 0 C1 4 1 4 1 4 Z " fill="#FFFFFF" transform="translate(405,129)"/>
<path d="M0 0 C1 4 1 4 1 4 Z " fill="#FFFFFF" transform="translate(445,128)"/>
<path d="M0 0 C1 4 1 4 1 4 Z " fill="#FFFFFF" transform="translate(308,128)"/>
<path d="M0 0 C1 4 1 4 1 4 Z " fill="#FFFFFF" transform="translate(510,126)"/>
<path d="M0 0 C1 4 1 4 1 4 Z " fill="#FFFFFF" transform="translate(373,126)"/>
<path d="M0 0 C1 4 1 4 1 4 Z " fill="#FFFFFF" transform="translate(351,126)"/>
<path d="M0 0 C1 4 1 4 1 4 Z " fill="#FFFFFF" transform="translate(467,125)"/>
<path d="M0 0 C1 4 1 4 1 4 Z " fill="#FFFFFF" transform="translate(406,125)"/>
<path d="M0 0 C1 4 1 4 1 4 Z " fill="#FFFFFF" transform="translate(444,123)"/>
<path d="M0 0 C1 4 1 4 1 4 Z " fill="#FFFFFF" transform="translate(411,123)"/>
<path d="M0 0 C1 4 1 4 1 4 Z " fill="#FFFFFF" transform="translate(374,122)"/>
<path d="M0 0 C1 4 1 4 1 4 Z " fill="#FFFFFF" transform="translate(350,122)"/>
<path d="M0 0 C1 4 1 4 1 4 Z " fill="#FFFFFF" transform="translate(967,121)"/>
<path d="M0 0 C1 4 1 4 1 4 Z " fill="#FFFFFF" transform="translate(511,121)"/>
<path d="M0 0 C1 4 1 4 1 4 Z " fill="#FFFFFF" transform="translate(468,121)"/>
<path d="M0 0 C1 4 1 4 1 4 Z " fill="#FFFFFF" transform="translate(407,121)"/>
<path d="M0 0 C1 4 1 4 1 4 Z " fill="#FFFFFF" transform="translate(443,119)"/>
<path d="M0 0 C1 4 1 4 1 4 Z " fill="#FFFFFF" transform="translate(410,119)"/>
<path d="M0 0 C1 4 1 4 1 4 Z " fill="#FFFFFF" transform="translate(306,119)"/>
<path d="M0 0 C1 4 1 4 1 4 Z " fill="#FFFFFF" transform="translate(375,118)"/>
<path d="M0 0 C1 4 1 4 1 4 Z " fill="#FFFFFF" transform="translate(349,118)"/>
<path d="M0 0 C1 4 1 4 1 4 Z " fill="#FFFFFF" transform="translate(512,117)"/>
<path d="M0 0 C1 4 1 4 1 4 Z " fill="#FFFFFF" transform="translate(442,115)"/>
<path d="M0 0 C1 4 1 4 1 4 Z " fill="#FFFFFF" transform="translate(305,115)"/>
<path d="M0 0 C1 4 1 4 1 4 Z " fill="#FFFFFF" transform="translate(513,113)"/>
<path d="M0 0 C1 4 1 4 1 4 Z " fill="#FFFFFF" transform="translate(470,112)"/>
<path d="M0 0 C1 4 1 4 1 4 Z " fill="#FFFFFF" transform="translate(441,111)"/>
<path d="M0 0 C1 4 1 4 1 4 Z " fill="#FFFFFF" transform="translate(304,111)"/>
<path d="M0 0 C1 4 1 4 1 4 Z " fill="#FFFFFF" transform="translate(514,109)"/>
<path d="M0 0 C1 4 1 4 1 4 Z " fill="#FFFFFF" transform="translate(377,109)"/>
<path d="M0 0 C1 4 1 4 1 4 Z " fill="#FFFFFF" transform="translate(347,109)"/>
<path d="M0 0 C1 4 1 4 1 4 Z " fill="#FFFFFF" transform="translate(471,108)"/>
<path d="M0 0 C1 4 1 4 1 4 Z " fill="#FFFFFF" transform="translate(303,107)"/>
<path d="M0 0 C1 4 1 4 1 4 Z " fill="#FFFFFF" transform="translate(440,106)"/>
<path d="M0 0 C4 1 4 1 4 1 Z " fill="#FFFFFF" transform="translate(570,106)"/>
<path d="M0 0 C1 4 1 4 1 4 Z " fill="#FFFFFF" transform="translate(378,105)"/>
<path d="M0 0 C1 4 1 4 1 4 Z " fill="#FFFFFF" transform="translate(346,105)"/>
<path d="M0 0 C4 1 4 1 4 1 Z " fill="#FFFFFF" transform="translate(613,105)"/>
<path d="M0 0 C4 1 4 1 4 1 Z " fill="#FFFFFF" transform="translate(574,105)"/>
<path d="M0 0 C1 4 1 4 1 4 Z " fill="#FFFFFF" transform="translate(515,104)"/>
<path d="M0 0 C1 4 1 4 1 4 Z " fill="#FFFFFF" transform="translate(472,104)"/>
<path d="M0 0 C4 1 4 1 4 1 Z " fill="#FFFFFF" transform="translate(1147,104)"/>
<path d="M0 0 C4 1 4 1 4 1 Z " fill="#FFFFFF" transform="translate(773,104)"/>
<path d="M0 0 C1 4 1 4 1 4 Z " fill="#FFFFFF" transform="translate(439,102)"/>
<path d="M0 0 C1 4 1 4 1 4 Z " fill="#FFFFFF" transform="translate(379,101)"/>
<path d="M0 0 C1 4 1 4 1 4 Z " fill="#FFFFFF" transform="translate(345,101)"/>
<path d="M0 0 C4 1 4 1 4 1 Z " fill="#FFFFFF" transform="translate(910,101)"/>
<path d="M0 0 C1 4 1 4 1 4 Z " fill="#FFFFFF" transform="translate(516,100)"/>
<path d="M0 0 C1 4 1 4 1 4 Z " fill="#FFFFFF" transform="translate(473,100)"/>
<path d="M0 0 C1 4 1 4 1 4 Z " fill="#FFFFFF" transform="translate(438,98)"/>
<path d="M0 0 C1 4 1 4 1 4 Z " fill="#FFFFFF" transform="translate(301,98)"/>
<path d="M0 0 C1 4 1 4 1 4 Z " fill="#FFFFFF" transform="translate(380,97)"/>
<path d="M0 0 C1 4 1 4 1 4 Z " fill="#FFFFFF" transform="translate(344,97)"/>
<path d="M0 0 C1 4 1 4 1 4 Z " fill="#FFFFFF" transform="translate(517,96)"/>
<path d="M0 0 C1 4 1 4 1 4 Z " fill="#FFFFFF" transform="translate(474,95)"/>
<path d="M0 0 C1 4 1 4 1 4 Z " fill="#FFFFFF" transform="translate(437,94)"/>
<path d="M0 0 C1 4 1 4 1 4 Z " fill="#FFFFFF" transform="translate(300,94)"/>
<path d="M0 0 C1 4 1 4 1 4 Z " fill="#FFFFFF" transform="translate(518,92)"/>
<path d="M0 0 C1 4 1 4 1 4 Z " fill="#FFFFFF" transform="translate(381,92)"/>
<path d="M0 0 C1 4 1 4 1 4 Z " fill="#FFFFFF" transform="translate(475,91)"/>
<path d="M0 0 C1 4 1 4 1 4 Z " fill="#FFFFFF" transform="translate(299,90)"/>
<path d="M0 0 C1 4 1 4 1 4 Z " fill="#FFFFFF" transform="translate(436,89)"/>
<path d="M0 0 C1 4 1 4 1 4 Z " fill="#FFFFFF" transform="translate(382,88)"/>
<path d="M0 0 C1 4 1 4 1 4 Z " fill="#FFFFFF" transform="translate(342,88)"/>
<path d="M0 0 C1 4 1 4 1 4 Z " fill="#FFFFFF" transform="translate(519,87)"/>
<path d="M0 0 C1 4 1 4 1 4 Z " fill="#FFFFFF" transform="translate(476,87)"/>
<path d="M0 0 C1 4 1 4 1 4 Z " fill="#FFFFFF" transform="translate(298,86)"/>
<path d="M0 0 C1 4 1 4 1 4 Z " fill="#FFFFFF" transform="translate(435,85)"/>
<path d="M0 0 C1 4 1 4 1 4 Z " fill="#FFFFFF" transform="translate(383,84)"/>
<path d="M0 0 C1 4 1 4 1 4 Z " fill="#FFFFFF" transform="translate(341,84)"/>
<path d="M0 0 C1 4 1 4 1 4 Z " fill="#FFFFFF" transform="translate(520,83)"/>
<path d="M0 0 C1 4 1 4 1 4 Z " fill="#FFFFFF" transform="translate(477,83)"/>
<path d="M0 0 C1 4 1 4 1 4 Z " fill="#FFFFFF" transform="translate(434,81)"/>
<path d="M0 0 C1 4 1 4 1 4 Z " fill="#FFFFFF" transform="translate(297,81)"/>
<path d="M0 0 C1 4 1 4 1 4 Z " fill="#FFFFFF" transform="translate(384,80)"/>
<path d="M0 0 C1 4 1 4 1 4 Z " fill="#FFFFFF" transform="translate(340,80)"/>
<path d="M0 0 C1 4 1 4 1 4 Z " fill="#FFFFFF" transform="translate(521,79)"/>
<path d="M0 0 C0.99 0.33 1.98 0.66 3 1 C2.01 1 1.02 1 0 1 C0 0.67 0 0.34 0 0 Z " fill="#FFFFFF" transform="translate(953,78)"/>
<path d="M0 0 C1 4 1 4 1 4 Z " fill="#FFFFFF" transform="translate(433,77)"/>
<path d="M0 0 C1 4 1 4 1 4 Z " fill="#FFFFFF" transform="translate(296,77)"/>
<path d="M0 0 C1 4 1 4 1 4 Z " fill="#FFFFFF" transform="translate(339,76)"/>
<path d="M0 0 C1 4 1 4 1 4 Z " fill="#FFFFFF" transform="translate(522,75)"/>
<path d="M0 0 C1 4 1 4 1 4 Z " fill="#FFFFFF" transform="translate(479,74)"/>
<path d="M0 0 C1 4 1 4 1 4 Z " fill="#FFFFFF" transform="translate(386,71)"/>
<path d="M0 0 C1 4 1 4 1 4 Z " fill="#FFFFFF" transform="translate(480,70)"/>
<path d="M0 0 C3 1 3 1 3 1 Z " fill="#FFFFFF" transform="translate(1172,230)"/>
<path d="M0 0 C3 1 3 1 3 1 Z " fill="#FFFFFF" transform="translate(749,230)"/>
<path d="M0 0 C3 1 3 1 3 1 Z " fill="#FFFFFF" transform="translate(1175,229)"/>
<path d="M0 0 C3 1 3 1 3 1 Z " fill="#FFFFFF" transform="translate(746,229)"/>
<path d="M0 0 C3 1 3 1 3 1 Z " fill="#FFFFFF" transform="translate(1140,228)"/>
<path d="M0 0 C3 1 3 1 3 1 Z " fill="#FFFFFF" transform="translate(781,228)"/>
<path d="M0 0 C3 1 3 1 3 1 Z " fill="#FFFFFF" transform="translate(570,228)"/>
<path d="M0 0 C3 1 3 1 3 1 Z " fill="#FFFFFF" transform="translate(567,227)"/>
<path d="M0 0 C3 1 3 1 3 1 Z " fill="#FFFFFF" transform="translate(564,226)"/>
<path d="M0 0 C3 1 3 1 3 1 Z " fill="#FFFFFF" transform="translate(641,225)"/>
<path d="" fill="#FFFFFF" transform="translate(0,0)"/>
<path d="M0 0 C3 1 3 1 3 1 Z " fill="#FFFFFF" transform="translate(644,224)"/>
<path d="M0 0 C3 1 3 1 3 1 Z " fill="#FFFFFF" transform="translate(647,223)"/>
<path d="M0 0 C3 1 3 1 3 1 Z " fill="#FFFFFF" transform="translate(586,200)"/>
<path d="M0 0 C3 1 3 1 3 1 Z " fill="#FFFFFF" transform="translate(624,199)"/>
<path d="M0 0 C3 1 3 1 3 1 Z " fill="#FFFFFF" transform="translate(1155,198)"/>
<path d="M0 0 C3 1 3 1 3 1 Z " fill="#FFFFFF" transform="translate(627,198)"/>
<path d="M0 0 C3 1 3 1 3 1 Z " fill="#FFFFFF" transform="translate(633,196)"/>
<path d="" fill="#FFFFFF" transform="translate(0,0)"/>
<path d="M0 0 C3 1 3 1 3 1 Z " fill="#FFFFFF" transform="translate(636,195)"/>
<path d="" fill="#FFFFFF" transform="translate(0,0)"/>
<path d="" fill="#FFFFFF" transform="translate(0,0)"/>
<path d="" fill="#FFFFFF" transform="translate(0,0)"/>
<path d="M0 0 C3 1 3 1 3 1 Z " fill="#FFFFFF" transform="translate(904,170)"/>
<path d="" fill="#FFFFFF" transform="translate(0,0)"/>
<path d="" fill="#FFFFFF" transform="translate(0,0)"/>
<path d="" fill="#FFFFFF" transform="translate(0,0)"/>
<path d="M0 0 C3 1 3 1 3 1 Z " fill="#FFFFFF" transform="translate(1154,136)"/>
<path d="M0 0 C3 1 3 1 3 1 Z " fill="#FFFFFF" transform="translate(757,136)"/>
<path d="M0 0 C3 1 3 1 3 1 Z " fill="#FFFFFF" transform="translate(740,136)"/>
<path d="M0 0 C3 1 3 1 3 1 Z " fill="#FFFFFF" transform="translate(911,135)"/>
<path d="M0 0 C3 1 3 1 3 1 Z " fill="#FFFFFF" transform="translate(604,134)"/>
<path d="M0 0 C3 1 3 1 3 1 Z " fill="#FFFFFF" transform="translate(584,134)"/>
<path d="" fill="#FFFFFF" transform="translate(0,0)"/>
<path d="M0 0 C3 1 3 1 3 1 Z " fill="#FFFFFF" transform="translate(620,107)"/>
<path d="M0 0 C3 1 3 1 3 1 Z " fill="#FFFFFF" transform="translate(567,107)"/>
<path d="M0 0 C3 1 3 1 3 1 Z " fill="#FFFFFF" transform="translate(1141,106)"/>
<path d="M0 0 C3 1 3 1 3 1 Z " fill="#FFFFFF" transform="translate(780,106)"/>
<path d="M0 0 C3 1 3 1 3 1 Z " fill="#FFFFFF" transform="translate(617,106)"/>
<path d="M0 0 C3 1 3 1 3 1 Z " fill="#FFFFFF" transform="translate(1174,105)"/>
<path d="M0 0 C3 1 3 1 3 1 Z " fill="#FFFFFF" transform="translate(1144,105)"/>
<path d="M0 0 C3 1 3 1 3 1 Z " fill="#FFFFFF" transform="translate(777,105)"/>
<path d="M0 0 C3 1 3 1 3 1 Z " fill="#FFFFFF" transform="translate(747,105)"/>
<path d="M0 0 C3 1 3 1 3 1 Z " fill="#FFFFFF" transform="translate(914,102)"/>
<path d="" fill="#FFFFFF" transform="translate(0,0)"/>
<path d="M0 0 C3 1 3 1 3 1 Z " fill="#FFFFFF" transform="translate(940,71)"/>
<path d="M0 0 C3 1 3 1 3 1 Z " fill="#FFFFFF" transform="translate(937,70)"/>
<path d="" fill="#FFFFFF" transform="translate(0,0)"/>
<path d="M0 0 C3 1 3 1 3 1 Z " fill="#FFFFFF" transform="translate(933,69)"/>
<path d="" fill="#FFFFFF" transform="translate(0,0)"/>
<path d="" fill="#FFFFFF" transform="translate(0,0)"/>
<path d="M0 0 C2 1 2 1 2 1 Z " fill="#FFFFFF" transform="translate(1143,229)"/>
<path d="M0 0 C2 1 2 1 2 1 Z " fill="#FFFFFF" transform="translate(779,229)"/>
<path d="M0 0 C2 1 2 1 2 1 Z " fill="#FFFFFF" transform="translate(1178,228)"/>
<path d="M0 0 C2 1 2 1 2 1 Z " fill="#FFFFFF" transform="translate(744,228)"/>
<path d="M0 0 C2 1 2 1 2 1 Z " fill="#FFFFFF" transform="translate(1180,227)"/>
<path d="M0 0 C2 1 2 1 2 1 Z " fill="#FFFFFF" transform="translate(1138,227)"/>
<path d="M0 0 C2 1 2 1 2 1 Z " fill="#FFFFFF" transform="translate(784,227)"/>
<path d="M0 0 C2 1 2 1 2 1 Z " fill="#FFFFFF" transform="translate(1182,226)"/>
<path d="M0 0 C2 1 2 1 2 1 Z " fill="#FFFFFF" transform="translate(1136,226)"/>
<path d="M0 0 C2 1 2 1 2 1 Z " fill="#FFFFFF" transform="translate(1184,225)"/>
<path d="M0 0 C2 1 2 1 2 1 Z " fill="#FFFFFF" transform="translate(787,225)"/>
<path d="M0 0 C2 1 2 1 2 1 Z " fill="#FFFFFF" transform="translate(738,225)"/>
<path d="M0 0 C2 1 2 1 2 1 Z " fill="#FFFFFF" transform="translate(562,225)"/>
<path d="M0 0 C2 1 2 1 2 1 Z " fill="#FFFFFF" transform="translate(1133,224)"/>
<path d="M0 0 C2 1 2 1 2 1 Z " fill="#FFFFFF" transform="translate(560,224)"/>
<path d="M0 0 C2 1 2 1 2 1 Z " fill="#FFFFFF" transform="translate(790,223)"/>
<path d="M0 0 C2 1 2 1 2 1 Z " fill="#FFFFFF" transform="translate(735,223)"/>
<path d="M0 0 C2 1 2 1 2 1 Z " fill="#FFFFFF" transform="translate(558,223)"/>
<path d="M0 0 C2 1 2 1 2 1 Z " fill="#FFFFFF" transform="translate(650,222)"/>
<path d="M0 0 C2 1 2 1 2 1 Z " fill="#FFFFFF" transform="translate(555,221)"/>
<path d="M0 0 C2 1 2 1 2 1 Z " fill="#FFFFFF" transform="translate(552,219)"/>
<path d="" fill="#FFFFFF" transform="translate(0,0)"/>
<path d="M0 0 C2 1 2 1 2 1 Z " fill="#FFFFFF" transform="translate(584,199)"/>
<path d="" fill="#FFFFFF" transform="translate(0,0)"/>
<path d="M0 0 C2 1 2 1 2 1 Z " fill="#FFFFFF" transform="translate(1136,198)"/>
<path d="M0 0 C2 1 2 1 2 1 Z " fill="#FFFFFF" transform="translate(759,198)"/>
<path d="M0 0 C2 1 2 1 2 1 Z " fill="#FFFFFF" transform="translate(739,198)"/>
<path d="M0 0 C2 1 2 1 2 1 Z " fill="#FFFFFF" transform="translate(582,198)"/>
<path d="M0 0 C2 1 2 1 2 1 Z " fill="#FFFFFF" transform="translate(1134,197)"/>
<path d="M0 0 C2 1 2 1 2 1 Z " fill="#FFFFFF" transform="translate(761,197)"/>
<path d="M0 0 C2 1 2 1 2 1 Z " fill="#FFFFFF" transform="translate(737,197)"/>
<path d="M0 0 C2 1 2 1 2 1 Z " fill="#FFFFFF" transform="translate(631,197)"/>
<path d="M0 0 C2 1 2 1 2 1 Z " fill="#FFFFFF" transform="translate(580,197)"/>
<path d="M0 0 C2 1 2 1 2 1 Z " fill="#FFFFFF" transform="translate(1159,196)"/>
<path d="" fill="#FFFFFF" transform="translate(0,0)"/>
<path d="" fill="#FFFFFF" transform="translate(0,0)"/>
<path d="" fill="#FFFFFF" transform="translate(0,0)"/>
<path d="M0 0 C2 1 2 1 2 1 Z " fill="#FFFFFF" transform="translate(639,194)"/>
<path d="" fill="#FFFFFF" transform="translate(0,0)"/>
<path d="M0 0 C2 1 2 1 2 1 Z " fill="#FFFFFF" transform="translate(641,193)"/>
<path d="M0 0 C2 1 2 1 2 1 Z " fill="#FFFFFF" transform="translate(643,192)"/>
<path d="" fill="#FFFFFF" transform="translate(0,0)"/>
<path d="M0 0 C2 1 2 1 2 1 Z " fill="#FFFFFF" transform="translate(645,191)"/>
<path d="M0 0 C2 1 2 1 2 1 Z " fill="#FFFFFF" transform="translate(647,190)"/>
<path d="" fill="#FFFFFF" transform="translate(0,0)"/>
<path d="" fill="#FFFFFF" transform="translate(0,0)"/>
<path d="" fill="#FFFFFF" transform="translate(0,0)"/>
<path d="M0 0 C2 1 2 1 2 1 Z " fill="#FFFFFF" transform="translate(649,189)"/>
<path d="M0 0 C2 1 2 1 2 1 Z " fill="#FFFFFF" transform="translate(651,188)"/>
<path d="" fill="#FFFFFF" transform="translate(0,0)"/>
<path d="" fill="#FFFFFF" transform="translate(0,0)"/>
<path d="M0 0 C2 1 2 1 2 1 Z " fill="#FFFFFF" transform="translate(909,172)"/>
<path d="M0 0 C2 1 2 1 2 1 Z " fill="#FFFFFF" transform="translate(907,171)"/>
<path d="M0 0 C2 1 2 1 2 1 Z " fill="#FFFFFF" transform="translate(948,157)"/>
<path d="M0 0 C2 1 2 1 2 1 Z " fill="#FFFFFF" transform="translate(944,154)"/>
<path d="M0 0 C2 1 2 1 2 1 Z " fill="#FFFFFF" transform="translate(944,151)"/>
<path d="M0 0 C2 1 2 1 2 1 Z " fill="#FFFFFF" transform="translate(946,150)"/>
<path d="" fill="#FFFFFF" transform="translate(0,0)"/>
<path d="M0 0 C2 1 2 1 2 1 Z " fill="#FFFFFF" transform="translate(952,146)"/>
<path d="" fill="#FFFFFF" transform="translate(0,0)"/>
<path d="" fill="#FFFFFF" transform="translate(0,0)"/>
<path d="" fill="#FFFFFF" transform="translate(0,0)"/>
<path d="M0 0 C2 1 2 1 2 1 Z " fill="#FFFFFF" transform="translate(1133,138)"/>
<path d="M0 0 C2 1 2 1 2 1 Z " fill="#FFFFFF" transform="translate(736,138)"/>
<path d="M0 0 C2 1 2 1 2 1 Z " fill="#FFFFFF" transform="translate(1157,137)"/>
<path d="M0 0 C2 1 2 1 2 1 Z " fill="#FFFFFF" transform="translate(1135,137)"/>
<path d="" fill="#FFFFFF" transform="translate(0,0)"/>
<path d="M0 0 C2 1 2 1 2 1 Z " fill="#FFFFFF" transform="translate(760,137)"/>
<path d="M0 0 C2 1 2 1 2 1 Z " fill="#FFFFFF" transform="translate(738,137)"/>
<path d="M0 0 C2 1 2 1 2 1 Z " fill="#FFFFFF" transform="translate(1137,136)"/>
<path d="M0 0 C2 1 2 1 2 1 Z " fill="#FFFFFF" transform="translate(915,134)"/>
<path d="M0 0 C2 1 2 1 2 1 Z " fill="#FFFFFF" transform="translate(917,133)"/>
<path d="" fill="#FFFFFF" transform="translate(0,0)"/>
<path d="" fill="#FFFFFF" transform="translate(0,0)"/>
<path d="M0 0 C2 1 2 1 2 1 Z " fill="#FFFFFF" transform="translate(551,116)"/>
<path d="M0 0 C2 1 2 1 2 1 Z " fill="#FFFFFF" transform="translate(635,115)"/>
<path d="M0 0 C2 1 2 1 2 1 Z " fill="#FFFFFF" transform="translate(792,113)"/>
<path d="M0 0 C2 1 2 1 2 1 Z " fill="#FFFFFF" transform="translate(733,113)"/>
<path d="M0 0 C2 1 2 1 2 1 Z " fill="#FFFFFF" transform="translate(1131,112)"/>
<path d="M0 0 C2 1 2 1 2 1 Z " fill="#FFFFFF" transform="translate(631,112)"/>
<path d="M0 0 C2 1 2 1 2 1 Z " fill="#FFFFFF" transform="translate(557,112)"/>
<path d="M0 0 C2 1 2 1 2 1 Z " fill="#FFFFFF" transform="translate(629,111)"/>
<path d="M0 0 C2 1 2 1 2 1 Z " fill="#FFFFFF" transform="translate(559,111)"/>
<path d="M0 0 C2 1 2 1 2 1 Z " fill="#FFFFFF" transform="translate(1134,110)"/>
<path d="M0 0 C2 1 2 1 2 1 Z " fill="#FFFFFF" transform="translate(788,110)"/>
<path d="M0 0 C2 1 2 1 2 1 Z " fill="#FFFFFF" transform="translate(737,110)"/>
<path d="M0 0 C2 1 2 1 2 1 Z " fill="#FFFFFF" transform="translate(627,110)"/>
<path d="M0 0 C2 1 2 1 2 1 Z " fill="#FFFFFF" transform="translate(561,110)"/>
<path d="M0 0 C2 1 2 1 2 1 Z " fill="#FFFFFF" transform="translate(1183,109)"/>
<path d="M0 0 C2 1 2 1 2 1 Z " fill="#FFFFFF" transform="translate(625,109)"/>
<path d="M0 0 C2 1 2 1 2 1 Z " fill="#FFFFFF" transform="translate(563,109)"/>
<path d="M0 0 C2 1 2 1 2 1 Z " fill="#FFFFFF" transform="translate(1137,108)"/>
<path d="M0 0 C2 1 2 1 2 1 Z " fill="#FFFFFF" transform="translate(785,108)"/>
<path d="M0 0 C2 1 2 1 2 1 Z " fill="#FFFFFF" transform="translate(623,108)"/>
<path d="M0 0 C2 1 2 1 2 1 Z " fill="#FFFFFF" transform="translate(565,108)"/>
<path d="M0 0 C2 1 2 1 2 1 Z " fill="#FFFFFF" transform="translate(1179,107)"/>
<path d="M0 0 C2 1 2 1 2 1 Z " fill="#FFFFFF" transform="translate(1139,107)"/>
<path d="M0 0 C2 1 2 1 2 1 Z " fill="#FFFFFF" transform="translate(783,107)"/>
<path d="M0 0 C2 1 2 1 2 1 Z " fill="#FFFFFF" transform="translate(742,107)"/>
<path d="M0 0 C2 1 2 1 2 1 Z " fill="#FFFFFF" transform="translate(1177,106)"/>
<path d="M0 0 C2 1 2 1 2 1 Z " fill="#FFFFFF" transform="translate(745,106)"/>
<path d="M0 0 C2 1 2 1 2 1 Z " fill="#FFFFFF" transform="translate(917,103)"/>
<path d="" fill="#FFFFFF" transform="translate(0,0)"/>
<path d="" fill="#FFFFFF" transform="translate(0,0)"/>
<path d="" fill="#FFFFFF" transform="translate(0,0)"/>
<path d="M0 0 C2 1 2 1 2 1 Z " fill="#FFFFFF" transform="translate(950,76)"/>
<path d="M0 0 C2 1 2 1 2 1 Z " fill="#FFFFFF" transform="translate(947,74)"/>
<path d="M0 0 C2 1 2 1 2 1 Z " fill="#FFFFFF" transform="translate(945,73)"/>
<path d="M0 0 C2 1 2 1 2 1 Z " fill="#FFFFFF" transform="translate(943,72)"/>
<path d="" fill="#FFFFFF" transform="translate(0,0)"/>
<path d="" fill="#FFFFFF" transform="translate(0,0)"/>
<path d="" fill="#FFFFFF" transform="translate(0,0)"/>
<path d="" fill="#FFFFFF" transform="translate(0,0)"/>
<path d="" fill="#FFFFFF" transform="translate(0,0)"/>
<path d="" fill="#FFFFFF" transform="translate(0,0)"/>
<path d="" fill="#FFFFFF" transform="translate(0,0)"/>
<path d="" fill="#FFFFFF" transform="translate(0,0)"/>
<path d="" fill="#FFFFFF" transform="translate(0,0)"/>
<path d="" fill="#FFFFFF" transform="translate(0,0)"/>
<path d="" fill="#FFFFFF" transform="translate(0,0)"/>
<path d="" fill="#FFFFFF" transform="translate(0,0)"/>
<path d="" fill="#FFFFFF" transform="translate(0,0)"/>
<path d="" fill="#FFFFFF" transform="translate(0,0)"/>
<path d="" fill="#FFFFFF" transform="translate(0,0)"/>
<path d="" fill="#FFFFFF" transform="translate(0,0)"/>
<path d="" fill="#FFFFFF" transform="translate(0,0)"/>
<path d="" fill="#FFFFFF" transform="translate(0,0)"/>
<path d="" fill="#FFFFFF" transform="translate(0,0)"/>
<path d="" fill="#FFFFFF" transform="translate(0,0)"/>
<path d="" fill="#FFFFFF" transform="translate(0,0)"/>
<path d="" fill="#FFFFFF" transform="translate(0,0)"/>
<path d="" fill="#FFFFFF" transform="translate(0,0)"/>
<path d="" fill="#FFFFFF" transform="translate(0,0)"/>
<path d="" fill="#FFFFFF" transform="translate(0,0)"/>
<path d="" fill="#FFFFFF" transform="translate(0,0)"/>
<path d="" fill="#FFFFFF" transform="translate(0,0)"/>
<path d="" fill="#FFFFFF" transform="translate(0,0)"/>
<path d="" fill="#FFFFFF" transform="translate(0,0)"/>
<path d="" fill="#FFFFFF" transform="translate(0,0)"/>
<path d="" fill="#FFFFFF" transform="translate(0,0)"/>
<path d="" fill="#FFFFFF" transform="translate(0,0)"/>
<path d="" fill="#FFFFFF" transform="translate(0,0)"/>
<path d="" fill="#FFFFFF" transform="translate(0,0)"/>
<path d="" fill="#FFFFFF" transform="translate(0,0)"/>
<path d="" fill="#FFFFFF" transform="translate(0,0)"/>
<path d="" fill="#FFFFFF" transform="translate(0,0)"/>
<path d="" fill="#FFFFFF" transform="translate(0,0)"/>
<path d="" fill="#FFFFFF" transform="translate(0,0)"/>
<path d="" fill="#FFFFFF" transform="translate(0,0)"/>
<path d="" fill="#FFFFFF" transform="translate(0,0)"/>
<path d="" fill="#FFFFFF" transform="translate(0,0)"/>
<path d="" fill="#FFFFFF" transform="translate(0,0)"/>
<path d="" fill="#FFFFFF" transform="translate(0,0)"/>
<path d="" fill="#FFFFFF" transform="translate(0,0)"/>
<path d="" fill="#FFFFFF" transform="translate(0,0)"/>
<path d="" fill="#FFFFFF" transform="translate(0,0)"/>
<path d="" fill="#FFFFFF" transform="translate(0,0)"/>
<path d="" fill="#FFFFFF" transform="translate(0,0)"/>
<path d="" fill="#FFFFFF" transform="translate(0,0)"/>
<path d="" fill="#FFFFFF" transform="translate(0,0)"/>
<path d="" fill="#FFFFFF" transform="translate(0,0)"/>
<path d="" fill="#FFFFFF" transform="translate(0,0)"/>
<path d="" fill="#FFFFFF" transform="translate(0,0)"/>
<path d="" fill="#FFFFFF" transform="translate(0,0)"/>
<path d="" fill="#FFFFFF" transform="translate(0,0)"/>
<path d="" fill="#FFFFFF" transform="translate(0,0)"/>
<path d="" fill="#FFFFFF" transform="translate(0,0)"/>
<path d="" fill="#FFFFFF" transform="translate(0,0)"/>
<path d="" fill="#FFFFFF" transform="translate(0,0)"/>
<path d="" fill="#FFFFFF" transform="translate(0,0)"/>
<path d="" fill="#FFFFFF" transform="translate(0,0)"/>
<path d="" fill="#FFFFFF" transform="translate(0,0)"/>
<path d="" fill="#FFFFFF" transform="translate(0,0)"/>
<path d="" fill="#FFFFFF" transform="translate(0,0)"/>
<path d="" fill="#FFFFFF" transform="translate(0,0)"/>
<path d="" fill="#FFFFFF" transform="translate(0,0)"/>
<path d="" fill="#FFFFFF" transform="translate(0,0)"/>
<path d="" fill="#FFFFFF" transform="translate(0,0)"/>
<path d="" fill="#FFFFFF" transform="translate(0,0)"/>
<path d="" fill="#FFFFFF" transform="translate(0,0)"/>
<path d="" fill="#FFFFFF" transform="translate(0,0)"/>
<path d="" fill="#FFFFFF" transform="translate(0,0)"/>
<path d="" fill="#FFFFFF" transform="translate(0,0)"/>
<path d="" fill="#FFFFFF" transform="translate(0,0)"/>
<path d="" fill="#FFFFFF" transform="translate(0,0)"/>
<path d="" fill="#FFFFFF" transform="translate(0,0)"/>
<path d="" fill="#FFFFFF" transform="translate(0,0)"/>
<path d="" fill="#FFFFFF" transform="translate(0,0)"/>
<path d="" fill="#FFFFFF" transform="translate(0,0)"/>
<path d="" fill="#FFFFFF" transform="translate(0,0)"/>
<path d="" fill="#FFFFFF" transform="translate(0,0)"/>
<path d="" fill="#FFFFFF" transform="translate(0,0)"/>
<path d="" fill="#FFFFFF" transform="translate(0,0)"/>
<path d="" fill="#FFFFFF" transform="translate(0,0)"/>
<path d="" fill="#FFFFFF" transform="translate(0,0)"/>
<path d="" fill="#FFFFFF" transform="translate(0,0)"/>
<path d="" fill="#FFFFFF" transform="translate(0,0)"/>
<path d="" fill="#FFFFFF" transform="translate(0,0)"/>
<path d="" fill="#FFFFFF" transform="translate(0,0)"/>
<path d="" fill="#FFFFFF" transform="translate(0,0)"/>
<path d="" fill="#FFFFFF" transform="translate(0,0)"/>
<path d="" fill="#FFFFFF" transform="translate(0,0)"/>
<path d="" fill="#FFFFFF" transform="translate(0,0)"/>
<path d="" fill="#FFFFFF" transform="translate(0,0)"/>
<path d="" fill="#FFFFFF" transform="translate(0,0)"/>
<path d="" fill="#FFFFFF" transform="translate(0,0)"/>
<path d="" fill="#FFFFFF" transform="translate(0,0)"/>
<path d="" fill="#FFFFFF" transform="translate(0,0)"/>
<path d="" fill="#FFFFFF" transform="translate(0,0)"/>
<path d="" fill="#FFFFFF" transform="translate(0,0)"/>
<path d="" fill="#FFFFFF" transform="translate(0,0)"/>
<path d="" fill="#FFFFFF" transform="translate(0,0)"/>
<path d="" fill="#FFFFFF" transform="translate(0,0)"/>
<path d="" fill="#FFFFFF" transform="translate(0,0)"/>
<path d="" fill="#FFFFFF" transform="translate(0,0)"/>
<path d="" fill="#FFFFFF" transform="translate(0,0)"/>
<path d="" fill="#FFFFFF" transform="translate(0,0)"/>
<path d="" fill="#FFFFFF" transform="translate(0,0)"/>
<path d="" fill="#FFFFFF" transform="translate(0,0)"/>
<path d="" fill="#FFFFFF" transform="translate(0,0)"/>
<path d="" fill="#FFFFFF" transform="translate(0,0)"/>
<path d="" fill="#FFFFFF" transform="translate(0,0)"/>
<path d="" fill="#FFFFFF" transform="translate(0,0)"/>
<path d="" fill="#FFFFFF" transform="translate(0,0)"/>
<path d="" fill="#FFFFFF" transform="translate(0,0)"/>
<path d="" fill="#FFFFFF" transform="translate(0,0)"/>
<path d="" fill="#FFFFFF" transform="translate(0,0)"/>
<path d="" fill="#FFFFFF" transform="translate(0,0)"/>
<path d="" fill="#FFFFFF" transform="translate(0,0)"/>
<path d="" fill="#FFFFFF" transform="translate(0,0)"/>
<path d="" fill="#FFFFFF" transform="translate(0,0)"/>
<path d="" fill="#FFFFFF" transform="translate(0,0)"/>
<path d="" fill="#FFFFFF" transform="translate(0,0)"/>
<path d="" fill="#FFFFFF" transform="translate(0,0)"/>
<path d="" fill="#FFFFFF" transform="translate(0,0)"/>
<path d="" fill="#FFFFFF" transform="translate(0,0)"/>
<path d="" fill="#FFFFFF" transform="translate(0,0)"/>
<path d="" fill="#FFFFFF" transform="translate(0,0)"/>
<path d="" fill="#FFFFFF" transform="translate(0,0)"/>
<path d="" fill="#FFFFFF" transform="translate(0,0)"/>
<path d="" fill="#FFFFFF" transform="translate(0,0)"/>
<path d="" fill="#FFFFFF" transform="translate(0,0)"/>
<path d="" fill="#FFFFFF" transform="translate(0,0)"/>
<path d="" fill="#FFFFFF" transform="translate(0,0)"/>
<path d="" fill="#FFFFFF" transform="translate(0,0)"/>
<path d="" fill="#FFFFFF" transform="translate(0,0)"/>
<path d="" fill="#FFFFFF" transform="translate(0,0)"/>
</svg>
