<?xml version="1.0" encoding="UTF-8"?>
<!-- Generator: visioncortex VTracer 0.6.12 -->
<svg version="1.1" xmlns="http://www.w3.org/2000/svg" width="272" height="320">
<path d="M0 0 C0.61 0.006 0.61 0.006 3.694 0.034 C4.379 0.033 5.063 0.032 5.768 0.032 C7.982 0.036 10.193 0.074 12.406 0.113 C13.774 0.12 15.141 0.125 16.508 0.128 C21.574 0.154 26.641 0.224 31.707 0.289 C43.03 0.392 54.353 0.495 66.02 0.601 C66.02 26.011 66.02 51.421 66.02 77.601 C69.159 74.462 71.724 71.87 74.297 68.406 C74.885 67.618 75.474 66.83 76.08 66.018 C76.7 65.179 77.319 64.34 77.957 63.476 C78.615 62.593 79.272 61.71 79.95 60.8 C84.882 54.166 89.774 47.502 94.665 40.837 C99.842 33.8 105.138 26.857 110.447 19.919 C114.623 14.456 118.734 8.959 122.735 3.367 C124.02 1.601 124.02 1.601 125.02 0.601 C126.953 0.507 128.889 0.484 130.825 0.488 C132.066 0.488 133.307 0.488 134.586 0.488 C135.951 0.493 137.315 0.498 138.68 0.504 C140.069 0.505 141.457 0.507 142.846 0.508 C146.507 0.512 150.168 0.522 153.829 0.533 C157.563 0.543 161.296 0.547 165.029 0.552 C172.36 0.563 179.69 0.58 187.02 0.601 C186.086 2.017 185.15 3.432 184.213 4.846 C183.692 5.634 183.17 6.422 182.634 7.234 C180.133 10.902 177.399 14.371 174.645 17.851 C173.406 19.431 172.167 21.012 170.93 22.593 C170.289 23.412 169.649 24.23 168.989 25.073 C159.595 37.134 150.421 49.366 141.269 61.611 C136.901 67.449 132.468 73.231 127.973 78.972 C126.14 81.44 124.58 83.956 123.02 86.601 C123.213 86.91 123.213 86.91 124.19 88.471 C130.99 99.334 137.783 110.2 144.52 121.101 C151.002 131.589 157.537 142.044 164.077 152.496 C166.073 155.686 168.066 158.878 170.059 162.07 C170.39 162.601 170.39 162.601 172.069 165.29 C173.324 167.3 174.579 169.31 175.834 171.321 C176.411 172.245 176.988 173.169 177.582 174.121 C178.142 175.018 178.701 175.914 179.278 176.838 C180.509 178.791 181.755 180.736 183.012 182.673 C183.333 183.168 183.333 183.168 184.957 185.675 C185.544 186.572 186.13 187.469 186.735 188.393 C188.02 190.601 188.02 190.601 188.02 192.601 C179.979 192.974 171.942 193.257 163.895 193.43 C160.157 193.513 156.425 193.626 152.691 193.808 C128.811 194.943 128.811 194.943 122.802 191.232 C119.283 187.676 117.547 183.481 115.882 178.827 C114.48 175.209 112.4 172.053 110.344 168.777 C109.573 167.48 108.805 166.181 108.043 164.879 C101.587 153.916 95.095 142.979 88.395 132.164 C87.857 131.295 87.319 130.426 86.765 129.53 C83.158 123.74 83.158 123.74 82.02 122.601 C70.411 134.769 65.142 144.547 65.327 161.493 C65.411 163.921 65.495 166.349 65.582 168.851 C65.654 172.77 65.654 172.77 66.02 192.601 C48.86 192.601 31.7 192.601 14.02 192.601 C14.02 182.701 14.02 172.801 14.02 162.601 C-16.67 162.601 -47.36 162.601 -78.98 162.601 C-78.98 115.12 -78.98 115.12 -66.149 99.367 C-62.335 94.503 -59.182 89.218 -55.918 83.976 C-54.579 81.882 -53.236 79.789 -51.89 77.699 C-48.199 71.946 -44.523 66.182 -40.855 60.414 C-40.285 59.518 -39.716 58.622 -39.128 57.698 C-37.985 55.9 -36.841 54.101 -35.698 52.303 C-33.377 48.653 -31.055 45.003 -28.732 41.354 C-27.573 39.532 -26.413 37.71 -25.254 35.888 C-22.203 31.092 -19.149 26.297 -16.094 21.504 C-15.457 20.505 -14.821 19.507 -14.166 18.478 C-12.948 16.566 -11.729 14.655 -10.51 12.744 C-9.96 11.881 -9.41 11.018 -8.844 10.129 C-8.603 9.751 -8.603 9.751 -7.384 7.839 C-5.98 5.601 -5.98 5.601 -4.81 2.997 C-2.98 0.601 -2.98 0.601 0 0 Z M14.02 54.601 C12.994 56.102 12.019 57.637 11.063 59.183 C10.757 59.676 10.757 59.676 9.208 62.169 C8.548 63.24 7.888 64.311 7.207 65.414 C5.83 67.633 4.452 69.852 3.074 72.07 C2.387 73.179 1.7 74.287 0.991 75.429 C-1.707 79.771 -4.434 84.094 -7.168 88.414 C-7.643 89.167 -8.118 89.919 -8.608 90.695 C-11.167 94.746 -13.738 98.788 -16.32 102.824 C-16.87 103.686 -17.419 104.548 -17.985 105.436 C-19.036 107.084 -20.091 108.73 -21.149 110.374 C-21.622 111.117 -22.095 111.859 -22.582 112.625 C-22.998 113.274 -23.414 113.922 -23.842 114.591 C-24.98 116.601 -24.98 116.601 -26.98 121.601 C-13.12 121.601 0.74 121.601 15.02 121.601 C15.02 99.491 15.02 77.381 15.02 54.601 C14.69 54.601 14.36 54.601 14.02 54.601 Z " fill="#FEFEFE" transform="translate(80.98027038574219,63.39872741699219)"/>
</svg>
