<?xml version="1.0" encoding="UTF-8"?>
<!-- Generator: visioncortex VTracer 0.6.12 -->
<svg version="1.1" xmlns="http://www.w3.org/2000/svg" width="1018" height="320">
<path d="M0 0 C102.913 0 102.913 0 129.805 14.328 C133 16 133 16 136 17 C136.309 17.66 136.619 18.32 136.938 19 C137.288 19.66 137.639 20.32 138 21 C138.66 21.165 139.32 21.33 140 21.5 C140.66 21.665 141.32 21.83 142 22 C142.684 23.325 143.35 24.659 144 26 C144.33 26.155 144.33 26.155 146 26.938 C148.745 28.396 148.914 30.175 150 33 C150.99 33.33 151.98 33.66 153 34 C154.51 36.001 155.831 37.929 157.125 40.062 C157.306 40.361 157.306 40.361 158.224 41.87 C160.326 45.472 161.689 48.466 161.797 52.715 C162.203 57.28 163.795 61.728 165.062 66.121 C166.837 73.465 167.169 80.719 167.125 88.25 C167.124 88.662 167.124 88.662 167.117 90.747 C167.065 97.533 166.671 104.247 166 111 C165.963 111.709 165.925 112.418 165.887 113.148 C165.18 123.048 159.682 133.052 154 141 C153.34 141.33 152.68 141.66 152 142 C151.67 142.99 151.34 143.98 151 145 C149.669 145.671 148.335 146.337 147 147 C145.503 148.483 144.049 150.01 142.625 151.562 C122.435 172.018 96.713 174.59 69 177 C46.23 177 23.46 177 0 177 C0 118.59 0 60.18 0 0 Z M47 35 C47 69.32 47 103.64 47 139 C47.33 139 47.66 139 48 139 C48 104.68 48 70.36 48 35 C47.67 35 47.34 35 47 35 Z M49 35 C49.004 36.298 49.009 37.597 49.013 38.935 C49.054 51.149 49.084 63.362 49.104 75.576 C49.114 81.856 49.128 88.136 49.151 94.416 C49.173 100.471 49.185 106.527 49.19 112.583 C49.193 114.898 49.201 117.213 49.211 119.528 C49.226 122.761 49.228 125.993 49.227 129.226 C49.231 129.709 49.231 129.709 49.249 132.151 C49.246 133.029 49.243 133.907 49.241 134.811 C49.242 135.576 49.244 136.341 49.246 137.13 C49 139 49 139 47 141 C51.396 141.089 55.791 141.141 60.188 141.188 C61.414 141.213 62.641 141.238 63.904 141.264 C74.632 141.349 84.957 140.099 94.562 135.062 C95.513 134.579 96.463 134.096 97.441 133.598 C100.052 131.968 101.997 130.332 104 128 C104 127.34 104 126.68 104 126 C104.887 125.031 105.774 124.061 106.688 123.062 C110.142 119.199 111.974 115.024 113.922 110.258 C115 108 115 108 117 107 C117 105.35 117 103.7 117 102 C117.33 102 117.66 102 118 102 C120.03 91.344 119.444 80.525 117 70 C116.854 69.281 116.709 68.561 116.559 67.82 C116 66 116 66 114 64 C113.333 62 112.667 60 112 58 C111.34 58 110.68 58 110 58 C109.794 57.319 109.587 56.639 109.375 55.938 C104.662 45.868 95.813 42.052 86 38 C82.98 36.947 80.175 36.336 77 36 C76.564 35.947 76.564 35.947 74.355 35.676 C68.43 35.065 62.547 34.95 56.598 34.977 C55.864 34.978 55.129 34.98 54.373 34.982 C52.582 34.986 50.791 34.993 49 35 Z M159 48 C160 50 160 50 160 50 Z M113 61 C114 63 114 63 114 63 Z M164 112 C165 115 165 115 165 115 Z M163 116 C164 119 164 119 164 119 Z M161 122 C162 124 162 124 162 124 Z M160 125 C161 127 161 127 161 127 Z M158 129 C159 131 159 131 159 131 Z " fill="#FFFFFF" transform="translate(489,74)"/>
<path d="M0 0 C16.17 0 32.34 0 49 0 C49 21.45 49 42.9 49 65 C70.12 65 91.24 65 113 65 C113 43.55 113 22.1 113 0 C128.18 0 143.36 0 159 0 C159 58.41 159 116.82 159 177 C143.82 177 128.64 177 113 177 C113 152.91 113 128.82 113 104 C91.88 104 70.76 104 49 104 C49 128.09 49 152.18 49 177 C32.83 177 16.66 177 0 177 C0 118.59 0 60.18 0 0 Z M47 66 C47 66.33 47 66.66 47 67 C68.78 67 90.56 67 113 67 C113 66.67 113 66.34 113 66 C91.22 66 69.44 66 47 66 Z M47 102 C47 102.33 47 102.66 47 103 C68.78 103 90.56 103 113 103 C113 102.67 113 102.34 113 102 C91.22 102 69.44 102 47 102 Z " fill="#FFFFFF" transform="translate(287,74)"/>
<path d="M0 0 C16.17 0 32.34 0 49 0 C49.165 0.825 49.165 0.825 50 5 C50.165 5.495 50.165 5.495 51 8 C51.891 10.674 52.477 13.237 53 16 C53.66 16 54.32 16 55 16 C55 17.98 55 19.96 55 22 C55.66 22 56.32 22 57 22 C57 23.65 57 25.3 57 27 C57.66 27 58.32 27 59 27 C59 28.98 59 30.96 59 33 C59.66 33 60.32 33 61 33 C63.04 37.93 64.407 41.58 64 47 C64.66 47 65.32 47 66 47 C66.195 48.986 66.391 50.971 66.586 52.957 C67 55 67 55 69 58 C72.189 62.784 73.269 66.224 73 72 C73.66 72 74.32 72 75 72 C75 73.65 75 75.3 75 77 C75.66 77 76.32 77 77 77 C77.165 78.485 77.165 78.485 78 86 C78.66 86 79.32 86 80 86 C80 87.65 80 89.3 80 91 C80.66 91 81.32 91 82 91 C82 92.98 82 94.96 82 97 C82.66 97 83.32 97 84 97 C86.04 101.93 87.407 105.58 87 111 C87.66 111 88.32 111 89 111 C90.802 114.83 91.196 117.781 91 122 C93.572 120.714 93.597 119.856 94.508 117.184 C94.772 116.42 95.036 115.656 95.309 114.869 C95.578 114.067 95.847 113.264 96.125 112.438 C96.264 112.034 96.264 112.034 96.965 109.994 C97.65 107.998 98.326 105.999 99 104 C99.66 104 100.32 104 101 104 C101 102.35 101 100.7 101 99 C101.66 99 102.32 99 103 99 C103 97.02 103 95.04 103 93 C103.66 93 104.32 93 105 93 C105.33 90.36 105.66 87.72 106 85 C106.66 85 107.32 85 108 85 C108 83.02 108 81.04 108 79 C108.66 79 109.32 79 110 79 C110.11 78.299 110.219 77.597 110.332 76.875 C111.329 70.909 112.681 65.587 115 60 C115.66 60 116.32 60 117 60 C117.33 57.03 117.66 54.06 118 51 C118.66 51 119.32 51 120 51 C120 49.35 120 47.7 120 46 C120.66 46 121.32 46 122 46 C122 44.02 122 42.04 122 40 C122.66 40 123.32 40 124 40 C124.33 37.36 124.66 34.72 125 32 C125.66 32 126.32 32 127 32 C127 30.02 127 28.04 127 26 C127.66 26 128.32 26 129 26 C129.33 23.36 129.66 20.72 130 18 C130.66 18 131.32 18 132 18 C132.024 17.687 132.024 17.687 132.148 16.102 C132.223 15.284 132.298 14.467 132.375 13.625 C132.445 12.813 132.514 12.001 132.586 11.164 C133 9 133 9 135 7 C137 4 137 4 139 0 C154.18 0 169.36 0 185 0 C184 12 184 12 182 14 C181.67 14.99 181.34 15.98 181 17 C180 20 180 20 179 22 C178.641 23.996 178.305 25.995 178 28 C177.34 28 176.68 28 176 28 C176 29.65 176 31.3 176 33 C175.34 33 174.68 33 174 33 C174.041 33.949 174.082 34.898 174.125 35.875 C174 39 174 39 172 41 C171 44 171 44 170.562 46.5 C170 49 170 49 168 52 C167.109 54.674 166.523 57.237 166 60 C165.34 60 164.68 60 164 60 C164.041 60.949 164.082 61.898 164.125 62.875 C164 66 164 66 162 68 C161.67 68.99 161.34 69.98 161 71 C160 74 160 74 159 76 C158.641 77.996 158.305 79.995 158 82 C157.34 82 156.68 82 156 82 C155.938 82.608 155.938 82.608 155.625 85.688 C155.211 89.065 154.454 91.898 153 95 C152.34 95 151.68 95 151 95 C151 96.98 151 98.96 151 101 C150.34 101 149.68 101 149 101 C148.67 103.64 148.34 106.28 148 109 C147.34 109 146.68 109 146 109 C146 110.65 146 112.3 146 114 C145.34 114 144.68 114 144 114 C144.041 114.949 144.082 115.897 144.125 116.875 C144 120 144 120 142 122 C141.67 122.99 141.34 123.98 141 125 C140 128 140 128 139 130 C138.67 130.99 138.34 131.98 138 133 C137.34 133.99 136.68 134.98 136 136 C135.875 138.688 135.875 138.688 136 141 C135.34 141 134.68 141 134 141 C133.67 143.64 133.34 146.28 133 149 C132.34 149 131.68 149 131 149 C130.691 150.258 130.381 151.516 130.062 152.812 C129.123 156.633 128.215 159.677 126 163 C125.875 165.688 125.875 165.688 126 168 C125.34 168 124.68 168 124 168 C123.835 169.32 123.835 169.32 123 176 C119.951 177.016 117.85 177.138 114.658 177.161 C113.567 177.171 112.476 177.18 111.351 177.19 C110.173 177.194 108.995 177.199 107.781 177.203 C106.572 177.209 105.362 177.215 104.116 177.22 C101.558 177.23 98.999 177.236 96.44 177.24 C92.516 177.25 88.592 177.281 84.668 177.312 C82.185 177.319 79.702 177.324 77.219 177.328 C76.041 177.34 74.862 177.353 73.649 177.366 C72.557 177.363 71.466 177.36 70.342 177.356 C69.38 177.36 68.419 177.364 67.429 177.367 C65 177 65 177 63.178 175.646 C61.563 173.389 61.781 171.707 62 169 C61.34 169 60.68 169 60 169 C60 167.35 60 165.7 60 164 C59.34 164 58.68 164 58 164 C57.67 161.36 57.34 158.72 57 156 C56.34 156 55.68 156 55 156 C54.67 153.36 54.34 150.72 54 148 C53.34 148 52.68 148 52 148 C52 146.02 52 144.04 52 142 C51.34 142 50.68 142 50 142 C46.571 133.571 46.571 133.571 47 129 C46.34 129 45.68 129 45 129 C45.041 128.051 45.082 127.103 45.125 126.125 C45 123 45 123 43 121 C42.333 119 41.667 117 41 115 C40.67 114.67 40.67 114.67 39 113 C38.402 110.906 38.402 110.906 37.938 108.5 C37.173 104.61 36.234 102.351 34 99 C33.875 96.312 33.875 96.312 34 94 C33.34 94 32.68 94 32 94 C32 92.02 32 90.04 32 88 C31.34 88 30.68 88 30 88 C29.856 87.237 29.711 86.474 29.562 85.688 C29 83 29 83 28 80 C27.67 79.01 27.34 78.02 27 77 C26 75 26 75 24 72 C23.875 69.312 23.875 69.312 24 67 C23.34 67 22.68 67 22 67 C22 65.02 22 63.04 22 61 C21.34 61 20.68 61 20 61 C19.928 60.618 19.928 60.618 19.562 58.688 C19 56 19 56 18 53 C17.67 52.01 17.34 51.02 17 50 C16 48 16 48 14 45 C12.145 41.186 11.803 38.226 12 34 C11.34 34 10.68 34 10 34 C10 32.35 10 30.7 10 29 C9.34 29 8.68 29 8 29 C7.67 26.36 7.34 23.72 7 21 C6.34 21 5.68 21 5 21 C4.67 18.36 4.34 15.72 4 13 C3.34 13 2.68 13 2 13 C1.67 20.26 1.34 27.52 1 35 C0.67 35 0.34 35 0 35 C0 23.45 0 11.9 0 0 Z M1 5 C2 7 2 7 2 7 Z M2 7 C3 10 3 10 3 10 Z M134 10 C135 12 135 12 135 12 Z M5 16 C6 18 6 18 6 18 Z M177 23 C178 25 178 25 178 25 Z M8 24 C9 26 9 26 9 26 Z M60 36 C61 38 61 38 61 38 Z M172 36 C173 38 173 38 173 38 Z M61 39 C62 41 62 41 62 41 Z M14 40 C15 42 15 42 15 42 Z M15 43 C16 45 16 45 16 45 Z M169 44 C170 46 170 46 170 46 Z M168 47 C169 49 169 49 169 49 Z M165 55 C166 57 166 57 166 57 Z M20 56 C21 58 21 58 21 58 Z M69 61 C70 63 70 63 70 63 Z M115 63 C116 65 116 65 116 65 Z M162 63 C163 65 163 65 163 65 Z M70 64 C71 66 71 66 71 66 Z M25 70 C26 72 26 72 26 72 Z M112 71 C113 73 113 73 113 73 Z M157 77 C158 79 158 79 158 79 Z M30 83 C31 85 31 85 31 85 Z M154 85 C155 87 155 87 155 87 Z M152 90 C153 92 153 92 153 92 Z M35 97 C36 99 36 99 36 99 Z M83 100 C84 102 84 102 84 102 Z M84 103 C85 105 85 105 85 105 Z M147 104 C148 106 148 106 148 106 Z M38 105 C39 107 39 107 39 107 Z M40 110 C41 112 41 112 41 112 Z M98 110 C99 112 99 112 99 112 Z M97 113 C98 115 98 115 98 115 Z M88 114 C89 116 89 116 89 116 Z M96 116 C97 118 97 118 97 118 Z M142 117 C143 119 143 119 143 119 Z M94 121 C95 124 95 124 95 124 Z M93 124 C92.67 125.32 92.34 126.64 92 128 C92.66 126.68 93.32 125.36 94 124 C93.67 124 93.34 124 93 124 Z M48 132 C49 134 49 134 49 134 Z M50 137 C51 139 51 139 51 139 Z M55 151 C56 153 56 153 56 153 Z M58 159 C59 161 59 161 59 161 Z " fill="#FFFFFF" transform="translate(833,74)"/>
<path d="M0 0 C54.12 0 108.24 0 164 0 C164 11.55 164 23.1 164 35 C145.19 35 126.38 35 107 35 C107 81.86 107 128.72 107 177 C90.5 177 74 177 57 177 C57 130.14 57 83.28 57 35 C38.19 35 19.38 35 0 35 C0 23.45 0 11.9 0 0 Z " fill="#FFFFFF" transform="translate(668,74)"/>
<path d="M0 0 C0.432 -0.002 0.432 -0.002 2.616 -0.011 C5.525 -0.022 8.435 -0.026 11.344 -0.03 C13.424 -0.036 15.503 -0.043 17.582 -0.05 C23.243 -0.067 28.904 -0.078 34.566 -0.086 C38.101 -0.091 41.635 -0.097 45.17 -0.103 C56.224 -0.123 67.277 -0.137 78.331 -0.145 C91.102 -0.155 103.873 -0.181 116.643 -0.222 C126.507 -0.252 136.37 -0.267 146.233 -0.27 C152.128 -0.272 158.022 -0.281 163.917 -0.306 C169.462 -0.33 175.007 -0.334 180.552 -0.324 C182.588 -0.323 184.624 -0.329 186.66 -0.343 C189.438 -0.361 192.216 -0.354 194.995 -0.341 C195.801 -0.352 196.607 -0.363 197.438 -0.374 C203.417 -0.305 207.076 1.432 211.361 5.78 C211.737 6.272 212.114 6.765 212.502 7.272 C214.752 10.147 214.752 10.147 216.752 12.147 C217.082 13.137 217.412 14.127 217.752 15.147 C217.422 15.477 217.092 15.807 216.752 16.147 C216.654 17.565 216.625 18.988 216.625 20.41 C216.622 21.33 216.619 22.249 216.616 23.197 C216.618 24.214 216.62 25.231 216.622 26.279 C216.62 27.344 216.619 28.409 216.617 29.506 C216.612 33.048 216.615 36.59 216.619 40.132 C216.618 42.584 216.617 45.037 216.616 47.49 C216.614 52.642 216.616 57.793 216.621 62.945 C216.627 69.551 216.624 76.156 216.618 82.762 C216.614 87.832 216.615 92.902 216.618 97.972 C216.618 100.407 216.618 102.842 216.615 105.278 C216.613 108.684 216.617 112.091 216.622 115.498 C216.621 116.002 216.621 116.002 216.616 118.555 C216.619 119.486 216.622 120.417 216.625 121.377 C216.625 122.182 216.625 122.987 216.626 123.817 C216.752 126.147 216.752 126.147 217.317 128.821 C217.752 131.147 217.752 131.147 216.826 133.132 C216.368 133.714 215.911 134.297 215.439 134.897 C214.989 135.49 214.539 136.083 214.076 136.694 C212.752 138.147 212.752 138.147 210.752 139.147 C210.195 139.457 209.638 139.766 209.064 140.085 C206.048 141.47 202.951 142.286 199.752 143.147 C199.752 143.807 199.752 144.467 199.752 145.147 C169.392 145.147 139.032 145.147 107.752 145.147 C107.752 149.437 107.752 153.727 107.752 158.147 C118.642 158.147 129.532 158.147 140.752 158.147 C140.752 163.427 140.752 168.707 140.752 174.147 C112.372 174.147 83.992 174.147 54.752 174.147 C54.752 168.867 54.752 163.587 54.752 158.147 C65.972 158.147 77.192 158.147 88.752 158.147 C88.752 153.857 88.752 149.567 88.752 145.147 C58.062 145.147 27.372 145.147 -4.248 145.147 C-4.248 144.487 -4.248 143.827 -4.248 143.147 C-5.445 142.755 -6.641 142.363 -7.873 141.96 C-12.157 140.373 -14.879 138.196 -18.248 135.147 C-18.908 134.817 -19.568 134.487 -20.248 134.147 C-20.365 117.771 -20.453 101.394 -20.508 85.018 C-20.533 77.414 -20.569 69.81 -20.626 62.206 C-20.675 55.58 -20.708 48.954 -20.719 42.328 C-20.725 38.818 -20.741 35.309 -20.777 31.799 C-20.817 27.884 -20.818 23.969 -20.816 20.054 C-20.834 18.887 -20.852 17.719 -20.871 16.517 C-20.864 15.452 -20.857 14.388 -20.85 13.291 C-20.854 12.365 -20.859 11.439 -20.864 10.484 C-20.248 8.147 -20.248 8.147 -17.879 6.458 C-17.445 6.242 -17.445 6.242 -15.248 5.147 C-13.574 3.823 -11.906 2.491 -10.248 1.147 C-7.034 -0.46 -3.531 -0.001 0 0 Z M-5.248 16.147 C-4.918 16.477 -4.588 16.807 -4.248 17.147 C-4.155 18.549 -4.131 19.956 -4.135 21.361 C-4.135 22.269 -4.135 23.178 -4.135 24.114 C-4.14 25.119 -4.145 26.124 -4.151 27.159 C-4.152 28.211 -4.154 29.263 -4.155 30.347 C-4.159 32.639 -4.165 34.931 -4.173 37.223 C-4.186 40.845 -4.193 44.466 -4.197 48.087 C-4.211 57.082 -4.235 66.077 -4.259 75.072 C-4.279 82.667 -4.294 90.261 -4.304 97.856 C-4.311 101.435 -4.323 105.014 -4.336 108.593 C-4.34 110.774 -4.343 112.955 -4.346 115.135 C-4.351 116.14 -4.356 117.145 -4.362 118.18 C-4.362 119.089 -4.362 119.997 -4.362 120.934 C-4.364 121.728 -4.366 122.522 -4.369 123.34 C-4.248 125.147 -4.248 125.147 -3.248 126.147 C-0.631 126.245 1.96 126.277 4.578 126.267 C4.993 126.268 4.993 126.268 7.093 126.27 C9.895 126.272 12.698 126.266 15.5 126.261 C17.5 126.26 19.5 126.261 21.5 126.261 C26.948 126.261 32.396 126.256 37.845 126.249 C43.531 126.242 49.218 126.242 54.905 126.241 C65.682 126.237 76.459 126.229 87.236 126.219 C99.502 126.208 111.768 126.203 124.034 126.197 C149.273 126.187 174.512 126.169 199.752 126.147 C199.751 125.867 199.751 125.867 199.749 124.45 C199.727 110.839 199.71 97.227 199.7 83.615 C199.694 77.033 199.687 70.45 199.676 63.868 C199.665 57.52 199.659 51.172 199.657 44.825 C199.655 42.398 199.651 39.972 199.646 37.545 C199.639 34.157 199.638 30.768 199.638 27.38 C199.634 26.368 199.631 25.356 199.627 24.313 C199.628 23.393 199.63 22.474 199.631 21.526 C199.631 21.125 199.631 21.125 199.628 19.096 C199.752 17.147 199.752 17.147 200.752 15.147 C197.623 13.583 194.29 14.007 190.856 14.013 C190.031 14.011 189.205 14.009 188.355 14.007 C185.575 14 182.794 14.001 180.013 14.002 C178.026 13.999 176.039 13.996 174.052 13.992 C168.643 13.983 163.234 13.981 157.825 13.98 C153.317 13.979 148.808 13.975 144.3 13.972 C133.669 13.964 123.038 13.961 112.407 13.962 C101.422 13.962 90.437 13.952 79.453 13.936 C70.036 13.923 60.62 13.918 51.203 13.918 C45.572 13.919 39.942 13.916 34.311 13.905 C29.019 13.896 23.727 13.895 18.434 13.903 C16.487 13.904 14.54 13.901 12.593 13.895 C9.944 13.888 7.296 13.892 4.647 13.9 C3.868 13.895 3.09 13.89 2.287 13.884 C-3.02 13.919 -3.02 13.919 -5.248 16.147 Z M200.752 18.147 C200.752 53.127 200.752 88.107 200.752 124.147 C201.082 124.147 201.412 124.147 201.752 124.147 C201.752 89.167 201.752 54.187 201.752 18.147 C201.422 18.147 201.092 18.147 200.752 18.147 Z M-6.248 19.147 C-6.248 54.127 -6.248 89.107 -6.248 125.147 C-5.918 125.147 -5.588 125.147 -5.248 125.147 C-5.248 90.167 -5.248 55.187 -5.248 19.147 C-5.578 19.147 -5.908 19.147 -6.248 19.147 Z M-4.248 127.147 C-4.248 127.477 -4.248 127.807 -4.248 128.147 C63.072 128.147 130.392 128.147 199.752 128.147 C199.752 127.817 199.752 127.487 199.752 127.147 C132.432 127.147 65.112 127.147 -4.248 127.147 Z M215.752 128.147 C216.752 130.147 216.752 130.147 216.752 130.147 Z M89.752 145.147 C89.752 149.437 89.752 153.727 89.752 158.147 C90.082 158.147 90.412 158.147 90.752 158.147 C90.752 153.857 90.752 149.567 90.752 145.147 C90.422 145.147 90.092 145.147 89.752 145.147 Z M105.752 145.147 C105.752 149.437 105.752 153.727 105.752 158.147 C106.082 158.147 106.412 158.147 106.752 158.147 C106.752 153.857 106.752 149.567 106.752 145.147 C106.422 145.147 106.092 145.147 105.752 145.147 Z " fill="#FFFFFF" transform="translate(20.24847412109375,97.85282897949219)"/>
<path d="M0 0 C7.373 -0.284 7.373 -0.284 11 2 C11.66 2.33 12.32 2.66 13 3 C13.578 3.619 14.155 4.237 14.75 4.875 C18.065 8.005 21.709 9.57 26 11 C26.165 11.495 26.165 11.495 27 14 C29.617 16.008 29.617 16.008 32.875 18.125 C33.945 18.829 35.015 19.533 36.117 20.258 C39 22 39 22 42 23 C42.598 23.619 43.196 24.237 43.812 24.875 C46.444 27.431 48.531 28.776 52 30 C57.084 29.211 59.599 27.752 63 24 C64.325 23.316 65.66 22.652 67 22 C68.599 21.026 70.182 20.025 71.75 19 C72.549 18.484 73.348 17.969 74.172 17.438 C74.775 16.963 75.378 16.489 76 16 C76 15.34 76 14.68 76 14 C76.536 13.918 77.072 13.835 77.625 13.75 C80.873 12.724 83.288 11.034 86 9 C86 8.34 86 7.68 86 7 C86.568 6.899 87.137 6.799 87.723 6.695 C91.226 5.626 93.785 3.367 96.684 1.18 C99.601 -0.306 100.928 0.053 104 1 C108.223 2.408 109.896 5.182 112 9 C111.67 9.99 111.34 10.98 111 12 C109.677 12.371 108.341 12.698 107 13 C104.8 14.328 104.8 14.328 102.387 16.035 C101.479 16.672 100.571 17.31 99.636 17.966 C98.663 18.658 97.69 19.35 96.688 20.062 C95.681 20.77 94.674 21.477 93.637 22.206 C90.421 24.465 87.21 26.732 84 29 C79.796 31.965 75.587 34.922 71.375 37.875 C70.41 38.558 69.446 39.242 68.452 39.946 C67.547 40.58 66.643 41.214 65.711 41.867 C64.92 42.425 64.129 42.983 63.314 43.558 C59.221 46.108 55.164 47.723 50.262 47.551 C45.718 46.444 42.373 43.181 38.763 40.339 C35.298 37.707 31.666 35.311 28.062 32.875 C22.831 29.324 17.623 25.747 12.469 22.086 C11.565 21.445 10.661 20.805 9.73 20.145 C7.983 18.904 6.239 17.657 4.498 16.406 C3.706 15.844 2.914 15.282 2.098 14.703 C1.402 14.205 0.706 13.706 -0.011 13.192 C-2.022 11.987 -3.708 11.435 -6 11 C-4.25 6.125 -4.25 6.125 -2 5 C-1.278 3.356 -0.606 1.689 0 0 Z " fill="#FFFFFF" transform="translate(65,48)"/>
<path d="M0 0 C1.254 0.013 2.507 0.026 3.799 0.039 C19.116 0.197 34.433 0.371 49.75 0.562 C49.75 0.892 49.75 1.222 49.75 1.562 C-20.21 1.562 -90.17 1.562 -162.25 1.562 C-162.25 1.233 -162.25 0.903 -162.25 0.562 C-147.917 0.352 -133.584 0.167 -119.25 0 C-118.158 -0.013 -117.066 -0.025 -115.941 -0.039 C-77.289 -0.482 -38.653 -0.395 0 0 Z " fill="#FFFFFF" transform="translate(174.25,95.4375)"/>
<path d="M0 0 C66.66 0 133.32 0 202 0 C202 0.33 202 0.66 202 1 C135.34 1 68.68 1 0 1 C0 0.67 0 0.34 0 0 Z " fill="#FFFFFF" transform="translate(17,113)"/>
<path d="M0 0 C0.33 0 0.66 0 1 0 C1 58.41 1 116.82 1 177 C0.67 177 0.34 177 0 177 C0 118.59 0 60.18 0 0 Z " fill="#FFFFFF" transform="translate(487,74)"/>
<path d="M0 0 C0.33 0 0.66 0 1 0 C1 58.41 1 116.82 1 177 C0.67 177 0.34 177 0 177 C0 118.59 0 60.18 0 0 Z " fill="#FFFFFF" transform="translate(447,74)"/>
<path d="M0 0 C0.33 0 0.66 0 1 0 C1 58.41 1 116.82 1 177 C0.67 177 0.34 177 0 177 C0 118.59 0 60.18 0 0 Z " fill="#FFFFFF" transform="translate(285,74)"/>
<path d="M0 0 C53.79 0 107.58 0 163 0 C163 0.33 163 0.66 163 1 C109.21 1 55.42 1 0 1 C0 0.67 0 0.34 0 0 Z " fill="#FFFFFF" transform="translate(669,72)"/>
<path d="M0 0 C0.33 0 0.66 0 1 0 C1 36.96 1 73.92 1 112 C0.67 112 0.34 112 0 112 C0 75.04 0 38.08 0 0 Z " fill="#FFFFFF" transform="translate(238,113)"/>
<path d="M0 0 C24.42 0 48.84 0 74 0 C74 0.33 74 0.66 74 1 C49.58 1 25.16 1 0 1 C0 0.67 0 0.34 0 0 Z " fill="#FFFFFF" transform="translate(489,72)"/>
<path d="M0 0 C22.77 0 45.54 0 69 0 C69 0.33 69 0.66 69 1 C46.23 1 23.46 1 0 1 C0 0.67 0 0.34 0 0 Z " fill="#FFFFFF" transform="translate(489,252)"/>
<path d="M0 0 C18.15 0 36.3 0 55 0 C55 0.33 55 0.66 55 1 C36.85 1 18.7 1 0 1 C0 0.67 0 0.34 0 0 Z " fill="#FFFFFF" transform="translate(898,252)"/>
<path d="M0 0 C15.51 0 31.02 0 47 0 C47 0.33 47 0.66 47 1 C31.49 1 15.98 1 0 1 C0 0.67 0 0.34 0 0 Z " fill="#FFFFFF" transform="translate(833,72)"/>
<path d="M0 0 C15.51 0 31.02 0 47 0 C47 0.33 47 0.66 47 1 C31.49 1 15.98 1 0 1 C0 0.67 0 0.34 0 0 Z " fill="#FFFFFF" transform="translate(287,72)"/>
<path d="M0 0 C15.18 0 30.36 0 46 0 C46 0.33 46 0.66 46 1 C30.82 1 15.64 1 0 1 C0 0.67 0 0.34 0 0 Z " fill="#FFFFFF" transform="translate(727,252)"/>
<path d="M0 0 C15.18 0 30.36 0 46 0 C46 0.33 46 0.66 46 1 C30.82 1 15.64 1 0 1 C0 0.67 0 0.34 0 0 Z " fill="#FFFFFF" transform="translate(400,252)"/>
<path d="M0 0 C15.18 0 30.36 0 46 0 C46 0.33 46 0.66 46 1 C30.82 1 15.64 1 0 1 C0 0.67 0 0.34 0 0 Z " fill="#FFFFFF" transform="translate(288,252)"/>
<path d="M0 0 C15.18 0 30.36 0 46 0 C46 0.33 46 0.66 46 1 C30.82 1 15.64 1 0 1 C0 0.67 0 0.34 0 0 Z " fill="#FFFFFF" transform="translate(972,72)"/>
<path d="M0 0 C15.18 0 30.36 0 46 0 C46 0.33 46 0.66 46 1 C30.82 1 15.64 1 0 1 C0 0.67 0 0.34 0 0 Z " fill="#FFFFFF" transform="translate(400,72)"/>
<path d="M0 0 C0.33 0 0.66 0 1 0 C1 11.55 1 23.1 1 35 C0.67 35 0.34 35 0 35 C0 23.45 0 11.9 0 0 Z " fill="#FFFFFF" transform="translate(666,74)"/>
<path d="M0 0 C0.33 0 0.66 0 1 0 C1 6.27 1 12.54 1 19 C0.67 19 0.34 19 0 19 C0 12.73 0 6.46 0 0 Z " fill="#FFFFFF" transform="translate(657,153)"/>
<path d="M0 0 C0.33 0 0.66 0 1 0 C1 4.62 1 9.24 1 14 C0.67 14 0.34 14 0 14 C0 9.38 0 4.76 0 0 Z " fill="#FFFFFF" transform="translate(162,258)"/>
<path d="M0 0 C0.33 0 0.66 0 1 0 C1 4.62 1 9.24 1 14 C0.67 14 0.34 14 0 14 C0 9.38 0 4.76 0 0 Z " fill="#FFFFFF" transform="translate(73,258)"/>
<path d="M0 0 C0.33 0 0.66 0 1 0 C1 4.62 1 9.24 1 14 C0.67 14 0.34 14 0 14 C0 9.38 0 4.76 0 0 Z " fill="#FFFFFF" transform="translate(606,155)"/>
<path d="M0 0 C4.29 0 8.58 0 13 0 C13 0.33 13 0.66 13 1 C8.71 1 4.42 1 0 1 C0 0.67 0 0.34 0 0 Z " fill="#FFFFFF" transform="translate(559,251)"/>
<path d="M0 0 C3.96 0 7.92 0 12 0 C12 0.33 12 0.66 12 1 C8.04 1 4.08 1 0 1 C0 0.67 0 0.34 0 0 Z " fill="#FFFFFF" transform="translate(563,73)"/>
<path d="M0 0 C3.63 0 7.26 0 11 0 C11 0.33 11 0.66 11 1 C7.37 1 3.74 1 0 1 C0 0.67 0 0.34 0 0 Z " fill="#FFFFFF" transform="translate(554,111)"/>
<path d="M0 0 C1.65 1.65 3.3 3.3 5 5 C3.063 4.188 3.063 4.188 1 3 C0.67 2.01 0.34 1.02 0 0 Z " fill="#FFFFFF" transform="translate(2,233)"/>
<path d="M0 0 C0 0.99 0 1.98 0 3 C-0.66 3.33 -0.66 3.33 -4 5 C-2.68 3.35 -1.36 1.7 0 0 Z " fill="#FFFFFF" transform="translate(635,222)"/>
<path d="M0 0 C2.64 0 5.28 0 8 0 C8 0.33 8 0.66 8 1 C5.36 1 2.72 1 0 1 C0 0.67 0 0.34 0 0 Z " fill="#FFFFFF" transform="translate(573,250)"/>
<path d="M0 0 C0.33 0 0.66 0 1 0 C1 2.64 1 5.28 1 8 C0.67 8 0.34 8 0 8 C0 5.36 0 2.72 0 0 Z " fill="#FFFFFF" transform="translate(656,172)"/>
<path d="M0 0 C0.33 0 0.66 0 1 0 C1 2.64 1 5.28 1 8 C0.67 8 0.34 8 0 8 C0 5.36 0 2.72 0 0 Z " fill="#FFFFFF" transform="translate(656,144)"/>
<path d="M0 0 C2.64 0 5.28 0 8 0 C8 0.33 8 0.66 8 1 C5.36 1 2.72 1 0 1 C0 0.67 0 0.34 0 0 Z " fill="#FFFFFF" transform="translate(575,74)"/>
<path d="M0 0 C0.33 0 0.66 0 1 0 C1 2.31 1 4.62 1 7 C0.67 7 0.34 7 0 7 C0 4.69 0 2.38 0 0 Z " fill="#FFFFFF" transform="translate(605,148)"/>
<path d="M0 0 C0.66 0.33 0.66 0.33 4 2 C3.67 2.66 3.34 3.32 3 4 C2.01 2.68 1.02 1.36 0 0 Z " fill="#FFFFFF" transform="translate(230,101)"/>
<path d="M0 0 C1.98 0 3.96 0 6 0 C6 0.33 6 0.66 6 1 C4.02 1 2.04 1 0 1 C0 0.67 0 0.34 0 0 Z " fill="#FFFFFF" transform="translate(581,249)"/>
<path d="M0 0 C1.98 0 3.96 0 6 0 C6 0.33 6 0.66 6 1 C4.02 1 2.04 1 0 1 C0 0.67 0 0.34 0 0 Z " fill="#FFFFFF" transform="translate(583,75)"/>
<path d="M0 0 C1.65 0 3.3 0 5 0 C5 0.33 5 0.66 5 1 C3.35 1 1.7 1 0 1 C0 0.67 0 0.34 0 0 Z " fill="#FFFFFF" transform="translate(587,248)"/>
<path d="M0 0 C1.65 0 3.3 0 5 0 C5 0.33 5 0.66 5 1 C3.35 1 1.7 1 0 1 C0 0.67 0 0.34 0 0 Z " fill="#FFFFFF" transform="translate(564,212)"/>
<path d="M0 0 C0.33 0 0.66 0 1 0 C1 1.65 1 3.3 1 5 C0.67 5 0.34 5 0 5 C0 3.35 0 1.7 0 0 Z " fill="#FFFFFF" transform="translate(655,180)"/>
<path d="M0 0 C0.33 0 0.66 0 1 0 C1 1.65 1 3.3 1 5 C0.67 5 0.34 5 0 5 C0 3.35 0 1.7 0 0 Z " fill="#FFFFFF" transform="translate(655,139)"/>
<path d="M0 0 C1.65 0 3.3 0 5 0 C5 0.33 5 0.66 5 1 C3.35 1 1.7 1 0 1 C0 0.67 0 0.34 0 0 Z " fill="#FFFFFF" transform="translate(566,112)"/>
<path d="M0 0 C4 1 4 1 4 1 Z " fill="#FFFFFF" transform="translate(592,247)"/>
<path d="M0 0 C4 1 4 1 4 1 Z " fill="#FFFFFF" transform="translate(220,241)"/>
<path d="M0 0 C4 1 4 1 4 1 Z " fill="#FFFFFF" transform="translate(12,241)"/>
<path d="M0 0 C1 4 1 4 1 4 Z " fill="#FFFFFF" transform="translate(604,177)"/>
<path d="M0 0 C1 4 1 4 1 4 Z " fill="#FFFFFF" transform="translate(654,135)"/>
<path d="M0 0 C4 1 4 1 4 1 Z " fill="#FFFFFF" transform="translate(571,113)"/>
<path d="M0 0 C4 1 4 1 4 1 Z " fill="#FFFFFF" transform="translate(593,77)"/>
<path d="M0 0 C4 1 4 1 4 1 Z " fill="#FFFFFF" transform="translate(589,76)"/>
<path d="M0 0 C3 1 3 1 3 1 Z " fill="#FFFFFF" transform="translate(596,246)"/>
<path d="M0 0 C3 1 3 1 3 1 Z " fill="#FFFFFF" transform="translate(599,245)"/>
<path d="" fill="#FFFFFF" transform="translate(0,0)"/>
<path d="M0 0 C3 1 3 1 3 1 Z " fill="#FFFFFF" transform="translate(602,244)"/>
<path d="" fill="#FFFFFF" transform="translate(0,0)"/>
<path d="M0 0 C3 1 3 1 3 1 Z " fill="#FFFFFF" transform="translate(607,242)"/>
<path d="M0 0 C3 1 3 1 3 1 Z " fill="#FFFFFF" transform="translate(224,240)"/>
<path d="" fill="#FFFFFF" transform="translate(0,0)"/>
<path d="" fill="#FFFFFF" transform="translate(0,0)"/>
<path d="" fill="#FFFFFF" transform="translate(0,0)"/>
<path d="" fill="#FFFFFF" transform="translate(0,0)"/>
<path d="" fill="#FFFFFF" transform="translate(0,0)"/>
<path d="M0 0 C3 1 3 1 3 1 Z " fill="#FFFFFF" transform="translate(570,211)"/>
<path d="M0 0 C3 1 3 1 3 1 Z " fill="#FFFFFF" transform="translate(574,210)"/>
<path d="" fill="#FFFFFF" transform="translate(0,0)"/>
<path d="M0 0 C3 1 3 1 3 1 Z " fill="#FFFFFF" transform="translate(579,208)"/>
<path d="" fill="#FFFFFF" transform="translate(0,0)"/>
<path d="" fill="#FFFFFF" transform="translate(0,0)"/>
<path d="" fill="#FFFFFF" transform="translate(0,0)"/>
<path d="" fill="#FFFFFF" transform="translate(0,0)"/>
<path d="" fill="#FFFFFF" transform="translate(0,0)"/>
<path d="" fill="#FFFFFF" transform="translate(0,0)"/>
<path d="" fill="#FFFFFF" transform="translate(0,0)"/>
<path d="" fill="#FFFFFF" transform="translate(0,0)"/>
<path d="" fill="#FFFFFF" transform="translate(0,0)"/>
<path d="" fill="#FFFFFF" transform="translate(0,0)"/>
<path d="" fill="#FFFFFF" transform="translate(0,0)"/>
<path d="" fill="#FFFFFF" transform="translate(0,0)"/>
<path d="" fill="#FFFFFF" transform="translate(0,0)"/>
<path d="" fill="#FFFFFF" transform="translate(0,0)"/>
<path d="" fill="#FFFFFF" transform="translate(0,0)"/>
<path d="" fill="#FFFFFF" transform="translate(0,0)"/>
<path d="" fill="#FFFFFF" transform="translate(0,0)"/>
<path d="" fill="#FFFFFF" transform="translate(0,0)"/>
<path d="" fill="#FFFFFF" transform="translate(0,0)"/>
<path d="" fill="#FFFFFF" transform="translate(0,0)"/>
<path d="" fill="#FFFFFF" transform="translate(0,0)"/>
<path d="" fill="#FFFFFF" transform="translate(0,0)"/>
<path d="" fill="#FFFFFF" transform="translate(0,0)"/>
<path d="" fill="#FFFFFF" transform="translate(0,0)"/>
<path d="" fill="#FFFFFF" transform="translate(0,0)"/>
<path d="" fill="#FFFFFF" transform="translate(0,0)"/>
<path d="" fill="#FFFFFF" transform="translate(0,0)"/>
<path d="" fill="#FFFFFF" transform="translate(0,0)"/>
<path d="" fill="#FFFFFF" transform="translate(0,0)"/>
<path d="" fill="#FFFFFF" transform="translate(0,0)"/>
<path d="" fill="#FFFFFF" transform="translate(0,0)"/>
<path d="M0 0 C3 1 3 1 3 1 Z " fill="#FFFFFF" transform="translate(575,114)"/>
<path d="" fill="#FFFFFF" transform="translate(0,0)"/>
<path d="" fill="#FFFFFF" transform="translate(0,0)"/>
<path d="" fill="#FFFFFF" transform="translate(0,0)"/>
<path d="" fill="#FFFFFF" transform="translate(0,0)"/>
<path d="" fill="#FFFFFF" transform="translate(0,0)"/>
<path d="" fill="#FFFFFF" transform="translate(0,0)"/>
<path d="" fill="#FFFFFF" transform="translate(0,0)"/>
<path d="" fill="#FFFFFF" transform="translate(0,0)"/>
<path d="" fill="#FFFFFF" transform="translate(0,0)"/>
<path d="" fill="#FFFFFF" transform="translate(0,0)"/>
<path d="" fill="#FFFFFF" transform="translate(0,0)"/>
<path d="" fill="#FFFFFF" transform="translate(0,0)"/>
<path d="M0 0 C3 1 3 1 3 1 Z " fill="#FFFFFF" transform="translate(603,80)"/>
<path d="" fill="#FFFFFF" transform="translate(0,0)"/>
<path d="M0 0 C3 1 3 1 3 1 Z " fill="#FFFFFF" transform="translate(600,79)"/>
<path d="M0 0 C3 1 3 1 3 1 Z " fill="#FFFFFF" transform="translate(597,78)"/>
<path d="" fill="#FFFFFF" transform="translate(0,0)"/>
<path d="" fill="#FFFFFF" transform="translate(0,0)"/>
<path d="" fill="#FFFFFF" transform="translate(0,0)"/>
<path d="M0 0 C2 1 2 1 2 1 Z " fill="#FFFFFF" transform="translate(605,243)"/>
<path d="M0 0 C2 1 2 1 2 1 Z " fill="#FFFFFF" transform="translate(610,241)"/>
<path d="M0 0 C2 1 2 1 2 1 Z " fill="#FFFFFF" transform="translate(612,240)"/>
<path d="M0 0 C2 1 2 1 2 1 Z " fill="#FFFFFF" transform="translate(10,240)"/>
<path d="" fill="#FFFFFF" transform="translate(0,0)"/>
<path d="M0 0 C2 1 2 1 2 1 Z " fill="#FFFFFF" transform="translate(8,239)"/>
<path d="" fill="#FFFFFF" transform="translate(0,0)"/>
<path d="M0 0 C2 1 2 1 2 1 Z " fill="#FFFFFF" transform="translate(615,238)"/>
<path d="M0 0 C2 1 2 1 2 1 Z " fill="#FFFFFF" transform="translate(617,237)"/>
<path d="M0 0 C2 1 2 1 2 1 Z " fill="#FFFFFF" transform="translate(620,235)"/>
<path d="M0 0 C2 1 2 1 2 1 Z " fill="#FFFFFF" transform="translate(624,232)"/>
<path d="" fill="#FFFFFF" transform="translate(0,0)"/>
<path d="" fill="#FFFFFF" transform="translate(0,0)"/>
<path d="" fill="#FFFFFF" transform="translate(0,0)"/>
<path d="" fill="#FFFFFF" transform="translate(0,0)"/>
<path d="" fill="#FFFFFF" transform="translate(0,0)"/>
<path d="M0 0 C2 1 2 1 2 1 Z " fill="#FFFFFF" transform="translate(577,209)"/>
<path d="M0 0 C2 1 2 1 2 1 Z " fill="#FFFFFF" transform="translate(582,207)"/>
<path d="M0 0 C2 1 2 1 2 1 Z " fill="#FFFFFF" transform="translate(584,206)"/>
<path d="" fill="#FFFFFF" transform="translate(0,0)"/>
<path d="M0 0 C2 1 2 1 2 1 Z " fill="#FFFFFF" transform="translate(587,204)"/>
<path d="" fill="#FFFFFF" transform="translate(0,0)"/>
<path d="" fill="#FFFFFF" transform="translate(0,0)"/>
<path d="" fill="#FFFFFF" transform="translate(0,0)"/>
<path d="" fill="#FFFFFF" transform="translate(0,0)"/>
<path d="" fill="#FFFFFF" transform="translate(0,0)"/>
<path d="" fill="#FFFFFF" transform="translate(0,0)"/>
<path d="" fill="#FFFFFF" transform="translate(0,0)"/>
<path d="" fill="#FFFFFF" transform="translate(0,0)"/>
<path d="" fill="#FFFFFF" transform="translate(0,0)"/>
<path d="" fill="#FFFFFF" transform="translate(0,0)"/>
<path d="" fill="#FFFFFF" transform="translate(0,0)"/>
<path d="" fill="#FFFFFF" transform="translate(0,0)"/>
<path d="" fill="#FFFFFF" transform="translate(0,0)"/>
<path d="" fill="#FFFFFF" transform="translate(0,0)"/>
<path d="" fill="#FFFFFF" transform="translate(0,0)"/>
<path d="" fill="#FFFFFF" transform="translate(0,0)"/>
<path d="" fill="#FFFFFF" transform="translate(0,0)"/>
<path d="" fill="#FFFFFF" transform="translate(0,0)"/>
<path d="" fill="#FFFFFF" transform="translate(0,0)"/>
<path d="" fill="#FFFFFF" transform="translate(0,0)"/>
<path d="M0 0 C2 1 2 1 2 1 Z " fill="#FFFFFF" transform="translate(589,121)"/>
<path d="M0 0 C2 1 2 1 2 1 Z " fill="#FFFFFF" transform="translate(586,119)"/>
<path d="M0 0 C2 1 2 1 2 1 Z " fill="#FFFFFF" transform="translate(580,116)"/>
<path d="M0 0 C2 1 2 1 2 1 Z " fill="#FFFFFF" transform="translate(578,115)"/>
<path d="" fill="#FFFFFF" transform="translate(0,0)"/>
<path d="" fill="#FFFFFF" transform="translate(0,0)"/>
<path d="" fill="#FFFFFF" transform="translate(0,0)"/>
<path d="" fill="#FFFFFF" transform="translate(0,0)"/>
<path d="" fill="#FFFFFF" transform="translate(0,0)"/>
<path d="" fill="#FFFFFF" transform="translate(0,0)"/>
<path d="M0 0 C2 1 2 1 2 1 Z " fill="#FFFFFF" transform="translate(226,98)"/>
<path d="M0 0 C2 1 2 1 2 1 Z " fill="#FFFFFF" transform="translate(8,98)"/>
<path d="M0 0 C2 1 2 1 2 1 Z " fill="#FFFFFF" transform="translate(224,97)"/>
<path d="M0 0 C2 1 2 1 2 1 Z " fill="#FFFFFF" transform="translate(10,97)"/>
<path d="" fill="#FFFFFF" transform="translate(0,0)"/>
<path d="" fill="#FFFFFF" transform="translate(0,0)"/>
<path d="" fill="#FFFFFF" transform="translate(0,0)"/>
<path d="M0 0 C2 1 2 1 2 1 Z " fill="#FFFFFF" transform="translate(109,93)"/>
<path d="M0 0 C2 1 2 1 2 1 Z " fill="#FFFFFF" transform="translate(127,92)"/>
<path d="M0 0 C2 1 2 1 2 1 Z " fill="#FFFFFF" transform="translate(106,91)"/>
<path d="M0 0 C2 1 2 1 2 1 Z " fill="#FFFFFF" transform="translate(130,90)"/>
<path d="M0 0 C2 1 2 1 2 1 Z " fill="#FFFFFF" transform="translate(103,89)"/>
<path d="" fill="#FFFFFF" transform="translate(0,0)"/>
<path d="M0 0 C2 1 2 1 2 1 Z " fill="#FFFFFF" transform="translate(619,88)"/>
<path d="M0 0 C2 1 2 1 2 1 Z " fill="#FFFFFF" transform="translate(133,88)"/>
<path d="M0 0 C2 1 2 1 2 1 Z " fill="#FFFFFF" transform="translate(100,87)"/>
<path d="" fill="#FFFFFF" transform="translate(0,0)"/>
<path d="M0 0 C2 1 2 1 2 1 Z " fill="#FFFFFF" transform="translate(616,86)"/>
<path d="M0 0 C2 1 2 1 2 1 Z " fill="#FFFFFF" transform="translate(614,85)"/>
<path d="M0 0 C2 1 2 1 2 1 Z " fill="#FFFFFF" transform="translate(137,85)"/>
<path d="M0 0 C2 1 2 1 2 1 Z " fill="#FFFFFF" transform="translate(612,84)"/>
<path d="M0 0 C2 1 2 1 2 1 Z " fill="#FFFFFF" transform="translate(96,84)"/>
<path d="M0 0 C2 1 2 1 2 1 Z " fill="#FFFFFF" transform="translate(610,83)"/>
<path d="M0 0 C2 1 2 1 2 1 Z " fill="#FFFFFF" transform="translate(140,83)"/>
<path d="M0 0 C2 1 2 1 2 1 Z " fill="#FFFFFF" transform="translate(608,82)"/>
<path d="M0 0 C2 1 2 1 2 1 Z " fill="#FFFFFF" transform="translate(93,82)"/>
<path d="M0 0 C2 1 2 1 2 1 Z " fill="#FFFFFF" transform="translate(606,81)"/>
<path d="M0 0 C2 1 2 1 2 1 Z " fill="#FFFFFF" transform="translate(143,81)"/>
<path d="M0 0 C2 1 2 1 2 1 Z " fill="#FFFFFF" transform="translate(90,80)"/>
<path d="M0 0 C2 1 2 1 2 1 Z " fill="#FFFFFF" transform="translate(146,79)"/>
<path d="M0 0 C2 1 2 1 2 1 Z " fill="#FFFFFF" transform="translate(87,78)"/>
<path d="M0 0 C2 1 2 1 2 1 Z " fill="#FFFFFF" transform="translate(150,76)"/>
<path d="M0 0 C2 1 2 1 2 1 Z " fill="#FFFFFF" transform="translate(114,76)"/>
<path d="M0 0 C2 1 2 1 2 1 Z " fill="#FFFFFF" transform="translate(122,75)"/>
<path d="M0 0 C2 1 2 1 2 1 Z " fill="#FFFFFF" transform="translate(153,74)"/>
<path d="M0 0 C2 1 2 1 2 1 Z " fill="#FFFFFF" transform="translate(111,74)"/>
<path d="M0 0 C2 1 2 1 2 1 Z " fill="#FFFFFF" transform="translate(125,73)"/>
<path d="M0 0 C2 1 2 1 2 1 Z " fill="#FFFFFF" transform="translate(80,73)"/>
<path d="M0 0 C2 1 2 1 2 1 Z " fill="#FFFFFF" transform="translate(156,72)"/>
<path d="M0 0 C2 1 2 1 2 1 Z " fill="#FFFFFF" transform="translate(108,72)"/>
<path d="M0 0 C2 1 2 1 2 1 Z " fill="#FFFFFF" transform="translate(77,71)"/>
<path d="M0 0 C2 1 2 1 2 1 Z " fill="#FFFFFF" transform="translate(160,69)"/>
<path d="M0 0 C2 1 2 1 2 1 Z " fill="#FFFFFF" transform="translate(74,69)"/>
<path d="M0 0 C2 1 2 1 2 1 Z " fill="#FFFFFF" transform="translate(132,68)"/>
<path d="M0 0 C2 1 2 1 2 1 Z " fill="#FFFFFF" transform="translate(163,67)"/>
<path d="M0 0 C2 1 2 1 2 1 Z " fill="#FFFFFF" transform="translate(101,67)"/>
<path d="M0 0 C2 1 2 1 2 1 Z " fill="#FFFFFF" transform="translate(135,66)"/>
<path d="M0 0 C2 1 2 1 2 1 Z " fill="#FFFFFF" transform="translate(166,65)"/>
<path d="M0 0 C2 1 2 1 2 1 Z " fill="#FFFFFF" transform="translate(98,65)"/>
<path d="M0 0 C2 1 2 1 2 1 Z " fill="#FFFFFF" transform="translate(138,64)"/>
<path d="M0 0 C2 1 2 1 2 1 Z " fill="#FFFFFF" transform="translate(67,64)"/>
<path d="M0 0 C2 1 2 1 2 1 Z " fill="#FFFFFF" transform="translate(169,63)"/>
<path d="M0 0 C2 1 2 1 2 1 Z " fill="#FFFFFF" transform="translate(95,63)"/>
<path d="M0 0 C2 1 2 1 2 1 Z " fill="#FFFFFF" transform="translate(64,62)"/>
<path d="M0 0 C2 1 2 1 2 1 Z " fill="#FFFFFF" transform="translate(92,61)"/>
<path d="M0 0 C2 1 2 1 2 1 Z " fill="#FFFFFF" transform="translate(173,60)"/>
<path d="M0 0 C2 1 2 1 2 1 Z " fill="#FFFFFF" transform="translate(61,60)"/>
<path d="M0 0 C2 1 2 1 2 1 Z " fill="#FFFFFF" transform="translate(145,59)"/>
<path d="M0 0 C2 1 2 1 2 1 Z " fill="#FFFFFF" transform="translate(148,57)"/>
<path d="M0 0 C2 1 2 1 2 1 Z " fill="#FFFFFF" transform="translate(85,56)"/>
<path d="M0 0 C2 1 2 1 2 1 Z " fill="#FFFFFF" transform="translate(82,54)"/>
<path d="M0 0 C2 1 2 1 2 1 Z " fill="#FFFFFF" transform="translate(155,52)"/>
<path d="M0 0 C2 1 2 1 2 1 Z " fill="#FFFFFF" transform="translate(79,52)"/>
<path d="M0 0 C2 1 2 1 2 1 Z " fill="#FFFFFF" transform="translate(158,50)"/>
<path d="M0 0 C2 1 2 1 2 1 Z " fill="#FFFFFF" transform="translate(161,48)"/>
<path d="" fill="#FFFFFF" transform="translate(0,0)"/>
<path d="" fill="#FFFFFF" transform="translate(0,0)"/>
<path d="" fill="#FFFFFF" transform="translate(0,0)"/>
<path d="" fill="#FFFFFF" transform="translate(0,0)"/>
<path d="" fill="#FFFFFF" transform="translate(0,0)"/>
<path d="" fill="#FFFFFF" transform="translate(0,0)"/>
<path d="" fill="#FFFFFF" transform="translate(0,0)"/>
<path d="" fill="#FFFFFF" transform="translate(0,0)"/>
<path d="" fill="#FFFFFF" transform="translate(0,0)"/>
<path d="" fill="#FFFFFF" transform="translate(0,0)"/>
<path d="" fill="#FFFFFF" transform="translate(0,0)"/>
<path d="" fill="#FFFFFF" transform="translate(0,0)"/>
<path d="" fill="#FFFFFF" transform="translate(0,0)"/>
<path d="" fill="#FFFFFF" transform="translate(0,0)"/>
<path d="" fill="#FFFFFF" transform="translate(0,0)"/>
<path d="" fill="#FFFFFF" transform="translate(0,0)"/>
<path d="" fill="#FFFFFF" transform="translate(0,0)"/>
<path d="" fill="#FFFFFF" transform="translate(0,0)"/>
<path d="" fill="#FFFFFF" transform="translate(0,0)"/>
<path d="" fill="#FFFFFF" transform="translate(0,0)"/>
<path d="" fill="#FFFFFF" transform="translate(0,0)"/>
<path d="" fill="#FFFFFF" transform="translate(0,0)"/>
<path d="" fill="#FFFFFF" transform="translate(0,0)"/>
<path d="" fill="#FFFFFF" transform="translate(0,0)"/>
<path d="" fill="#FFFFFF" transform="translate(0,0)"/>
<path d="" fill="#FFFFFF" transform="translate(0,0)"/>
<path d="" fill="#FFFFFF" transform="translate(0,0)"/>
<path d="" fill="#FFFFFF" transform="translate(0,0)"/>
<path d="" fill="#FFFFFF" transform="translate(0,0)"/>
<path d="" fill="#FFFFFF" transform="translate(0,0)"/>
<path d="" fill="#FFFFFF" transform="translate(0,0)"/>
<path d="" fill="#FFFFFF" transform="translate(0,0)"/>
<path d="" fill="#FFFFFF" transform="translate(0,0)"/>
<path d="" fill="#FFFFFF" transform="translate(0,0)"/>
<path d="" fill="#FFFFFF" transform="translate(0,0)"/>
<path d="" fill="#FFFFFF" transform="translate(0,0)"/>
<path d="" fill="#FFFFFF" transform="translate(0,0)"/>
<path d="" fill="#FFFFFF" transform="translate(0,0)"/>
<path d="" fill="#FFFFFF" transform="translate(0,0)"/>
<path d="" fill="#FFFFFF" transform="translate(0,0)"/>
<path d="" fill="#FFFFFF" transform="translate(0,0)"/>
<path d="" fill="#FFFFFF" transform="translate(0,0)"/>
<path d="" fill="#FFFFFF" transform="translate(0,0)"/>
<path d="" fill="#FFFFFF" transform="translate(0,0)"/>
<path d="" fill="#FFFFFF" transform="translate(0,0)"/>
<path d="" fill="#FFFFFF" transform="translate(0,0)"/>
<path d="" fill="#FFFFFF" transform="translate(0,0)"/>
<path d="" fill="#FFFFFF" transform="translate(0,0)"/>
<path d="" fill="#FFFFFF" transform="translate(0,0)"/>
<path d="" fill="#FFFFFF" transform="translate(0,0)"/>
<path d="" fill="#FFFFFF" transform="translate(0,0)"/>
<path d="" fill="#FFFFFF" transform="translate(0,0)"/>
<path d="" fill="#FFFFFF" transform="translate(0,0)"/>
<path d="" fill="#FFFFFF" transform="translate(0,0)"/>
<path d="" fill="#FFFFFF" transform="translate(0,0)"/>
<path d="" fill="#FFFFFF" transform="translate(0,0)"/>
<path d="" fill="#FFFFFF" transform="translate(0,0)"/>
<path d="" fill="#FFFFFF" transform="translate(0,0)"/>
<path d="" fill="#FFFFFF" transform="translate(0,0)"/>
<path d="" fill="#FFFFFF" transform="translate(0,0)"/>
<path d="" fill="#FFFFFF" transform="translate(0,0)"/>
<path d="" fill="#FFFFFF" transform="translate(0,0)"/>
<path d="" fill="#FFFFFF" transform="translate(0,0)"/>
<path d="" fill="#FFFFFF" transform="translate(0,0)"/>
<path d="" fill="#FFFFFF" transform="translate(0,0)"/>
<path d="" fill="#FFFFFF" transform="translate(0,0)"/>
<path d="" fill="#FFFFFF" transform="translate(0,0)"/>
<path d="" fill="#FFFFFF" transform="translate(0,0)"/>
<path d="" fill="#FFFFFF" transform="translate(0,0)"/>
<path d="" fill="#FFFFFF" transform="translate(0,0)"/>
<path d="" fill="#FFFFFF" transform="translate(0,0)"/>
<path d="" fill="#FFFFFF" transform="translate(0,0)"/>
<path d="" fill="#FFFFFF" transform="translate(0,0)"/>
<path d="" fill="#FFFFFF" transform="translate(0,0)"/>
<path d="" fill="#FFFFFF" transform="translate(0,0)"/>
<path d="" fill="#FFFFFF" transform="translate(0,0)"/>
<path d="" fill="#FFFFFF" transform="translate(0,0)"/>
<path d="" fill="#FFFFFF" transform="translate(0,0)"/>
<path d="" fill="#FFFFFF" transform="translate(0,0)"/>
<path d="" fill="#FFFFFF" transform="translate(0,0)"/>
<path d="" fill="#FFFFFF" transform="translate(0,0)"/>
<path d="" fill="#FFFFFF" transform="translate(0,0)"/>
<path d="" fill="#FFFFFF" transform="translate(0,0)"/>
<path d="" fill="#FFFFFF" transform="translate(0,0)"/>
<path d="" fill="#FFFFFF" transform="translate(0,0)"/>
<path d="" fill="#FFFFFF" transform="translate(0,0)"/>
<path d="" fill="#FFFFFF" transform="translate(0,0)"/>
<path d="" fill="#FFFFFF" transform="translate(0,0)"/>
<path d="" fill="#FFFFFF" transform="translate(0,0)"/>
<path d="" fill="#FFFFFF" transform="translate(0,0)"/>
<path d="" fill="#FFFFFF" transform="translate(0,0)"/>
<path d="" fill="#FFFFFF" transform="translate(0,0)"/>
<path d="" fill="#FFFFFF" transform="translate(0,0)"/>
<path d="" fill="#FFFFFF" transform="translate(0,0)"/>
<path d="" fill="#FFFFFF" transform="translate(0,0)"/>
<path d="" fill="#FFFFFF" transform="translate(0,0)"/>
<path d="" fill="#FFFFFF" transform="translate(0,0)"/>
<path d="" fill="#FFFFFF" transform="translate(0,0)"/>
<path d="" fill="#FFFFFF" transform="translate(0,0)"/>
<path d="" fill="#FFFFFF" transform="translate(0,0)"/>
<path d="" fill="#FFFFFF" transform="translate(0,0)"/>
<path d="" fill="#FFFFFF" transform="translate(0,0)"/>
<path d="" fill="#FFFFFF" transform="translate(0,0)"/>
<path d="" fill="#FFFFFF" transform="translate(0,0)"/>
<path d="" fill="#FFFFFF" transform="translate(0,0)"/>
<path d="" fill="#FFFFFF" transform="translate(0,0)"/>
<path d="" fill="#FFFFFF" transform="translate(0,0)"/>
<path d="" fill="#FFFFFF" transform="translate(0,0)"/>
<path d="" fill="#FFFFFF" transform="translate(0,0)"/>
<path d="" fill="#FFFFFF" transform="translate(0,0)"/>
<path d="" fill="#FFFFFF" transform="translate(0,0)"/>
<path d="" fill="#FFFFFF" transform="translate(0,0)"/>
<path d="" fill="#FFFFFF" transform="translate(0,0)"/>
<path d="" fill="#FFFFFF" transform="translate(0,0)"/>
<path d="" fill="#FFFFFF" transform="translate(0,0)"/>
<path d="" fill="#FFFFFF" transform="translate(0,0)"/>
<path d="" fill="#FFFFFF" transform="translate(0,0)"/>
<path d="" fill="#FFFFFF" transform="translate(0,0)"/>
<path d="" fill="#FFFFFF" transform="translate(0,0)"/>
<path d="" fill="#FFFFFF" transform="translate(0,0)"/>
<path d="" fill="#FFFFFF" transform="translate(0,0)"/>
<path d="" fill="#FFFFFF" transform="translate(0,0)"/>
<path d="" fill="#FFFFFF" transform="translate(0,0)"/>
<path d="" fill="#FFFFFF" transform="translate(0,0)"/>
</svg>
