<?xml version="1.0" encoding="UTF-8"?>
<!-- Generator: visioncortex VTracer 0.6.12 -->
<svg version="1.1" xmlns="http://www.w3.org/2000/svg" width="764" height="320">
<path d="M0 0 C9.868 10.258 12.949 20.75 12.699 34.609 C12.314 44.756 8.282 52.16 1.496 59.652 C-5.833 66.172 -14.231 70.561 -23.504 73.652 C-22.549 73.932 -21.594 74.212 -20.609 74.5 C-6.322 78.855 6.565 85.817 14.371 99.152 C15.106 100.64 15.816 102.139 16.496 103.652 C16.814 104.29 17.133 104.929 17.461 105.586 C21.478 115.082 21.009 128.934 17.461 138.5 C17.143 139.21 16.824 139.921 16.496 140.652 C16.332 141.023 16.332 141.023 15.5 142.898 C8.231 157.411 -5.335 166.841 -20.164 172.594 C-49.131 181.775 -84.524 182.659 -112.188 168.867 C-125.343 161.934 -136.329 152.256 -141.941 138.215 C-145.483 126.334 -145.195 111.762 -139.504 100.652 C-131.046 86.352 -118.106 78.43 -102.27 74.098 C-101.687 73.951 -101.104 73.804 -100.504 73.652 C-100.873 73.512 -100.873 73.512 -102.742 72.805 C-115.775 67.654 -127.85 61.089 -133.941 47.84 C-137.784 38.381 -138.197 26.358 -134.879 16.652 C-128.476 1.854 -117.306 -8.007 -102.581 -14.15 C-94.78 -17.146 -86.799 -19.306 -78.504 -20.348 C-77.559 -20.47 -76.614 -20.593 -75.641 -20.719 C-48.916 -23.469 -20.156 -18.898 0 0 Z M-83.504 21.652 C-88.289 28.017 -88.328 34.951 -87.504 42.652 C-85.439 48.739 -80.89 53.225 -75.504 56.652 C-67.943 59.633 -59.345 60.07 -51.516 57.777 C-45.127 54.83 -40.402 50.652 -37.371 44.266 C-35.442 38.452 -35.55 31.957 -38.066 26.34 C-41.488 20.481 -46.678 16.218 -53.145 14.125 C-63.785 11.993 -75.738 13.429 -83.504 21.652 Z M-85.285 101.219 C-89.852 106.043 -92.349 111.499 -92.598 118.168 C-92.139 125.645 -89.877 131.715 -84.379 136.902 C-75.085 144.048 -64.861 145 -53.504 143.652 C-45.647 141.804 -39.988 138.01 -35.191 131.527 C-31.515 125.264 -31.954 118.732 -32.504 111.652 C-34.129 105.415 -38.161 101.089 -43.504 97.652 C-57.112 90.6 -73.383 90.752 -85.285 101.219 Z " fill="#FEFEFE" transform="translate(435.50390625,59.34765625)"/>
<path d="M0 0 C1.857 1.797 3.647 3.635 5.438 5.5 C5.775 5.84 5.775 5.84 7.484 7.559 C23.473 24.573 29.745 50.71 30.438 73.5 C30.477 74.692 30.517 75.885 30.559 77.113 C31.017 104.386 26.196 132.921 8.438 154.5 C7.834 155.277 7.231 156.055 6.609 156.855 C-5.304 171.397 -23.077 179.155 -41.458 181.304 C-64.091 183.415 -85.717 179.085 -103.562 164.5 C-104.194 164.031 -104.826 163.562 -105.477 163.078 C-122.725 149.689 -131.473 125.076 -134.223 104.125 C-136.607 78.691 -136.438 52.152 -125.562 28.5 C-125.11 27.476 -124.658 26.453 -124.191 25.398 C-120.86 18.266 -116.798 12.363 -111.562 6.5 C-110.884 5.728 -110.206 4.956 -109.508 4.16 C-96.412 -9.871 -77.961 -17.1 -59.055 -18.398 C-37.764 -19.018 -16.085 -14.886 0 0 Z M-70.309 28.152 C-83.179 41.687 -84.757 60.903 -84.803 78.676 C-84.812 80.901 -84.843 83.125 -84.875 85.35 C-85.008 103.276 -82.598 123.087 -69.562 136.5 C-63.707 141.258 -57.361 143.016 -49.891 142.812 C-42.862 141.869 -36.031 137.977 -31.562 132.5 C-17.412 109.366 -16.716 77.94 -22.633 51.961 C-25.841 40.019 -30.326 29.929 -41.062 22.938 C-51.593 18.612 -61.975 20.266 -70.309 28.152 Z " fill="#FEFEFE" transform="translate(590.5625,56.5)"/>
<path d="M0 0 C0.306 0.259 0.306 0.259 1.852 1.57 C19.269 17.397 27.013 44.172 28.207 66.941 C28.327 71.19 28.335 75.437 28.312 79.688 C28.311 80.062 28.311 80.062 28.306 81.959 C28.254 93.18 27.95 104.114 25 115 C24.801 115.735 24.603 116.47 24.398 117.228 C19.655 134.073 12.576 147.775 0 160 C-0.703 160.688 -1.405 161.377 -2.129 162.086 C-17.512 176.319 -37.973 180.713 -58.402 180.25 C-79.424 179.367 -98.344 171.202 -113 156 C-134.991 130.578 -138.96 96.851 -136.719 64.438 C-134.499 38.988 -125.355 14.195 -105.75 -2.875 C-74.882 -26.387 -29.235 -26.28 0 0 Z M-74 28 C-88.369 45.834 -88.511 73.823 -86.484 95.527 C-84.956 109.616 -81.848 124.929 -71.125 135 C-65.321 139.593 -59.643 141.57 -52.23 141.289 C-45.327 140.394 -38.748 137.223 -34.215 131.906 C-19.229 111.797 -19.418 81.299 -22.825 57.508 C-25.292 43.418 -30.157 30.567 -42 22 C-52.853 16.134 -65.622 19.514 -74 28 Z " fill="#FEFEFE" transform="translate(262,58)"/>
<path d="M0 0 C0 63.36 0 126.72 0 192 C-16.5 192 -33 192 -50 192 C-50.33 143.49 -50.66 94.98 -51 45 C-68.075 56.383 -68.075 56.383 -74.211 60.57 C-75.57 61.495 -76.93 62.419 -78.289 63.344 C-80.361 64.754 -82.433 66.165 -84.504 67.577 C-86.551 68.973 -88.599 70.366 -90.648 71.758 C-91.274 72.186 -91.9 72.614 -92.545 73.055 C-96.886 76 -96.886 76 -98 76 C-98.298 70.041 -98.515 64.087 -98.659 58.123 C-98.719 56.098 -98.801 54.074 -98.905 52.051 C-99.747 35.296 -99.747 35.296 -95.579 29.817 C-92.495 27.487 -89.453 25.726 -86 24 C-84.492 22.996 -82.998 21.971 -81.523 20.918 C-80.143 20.004 -78.76 19.094 -77.375 18.188 C-76.008 17.285 -74.64 16.383 -73.273 15.48 C-71.533 14.332 -69.793 13.183 -68 12 C-50 0 -50 0 0 0 Z " fill="#FEFEFF" transform="translate(107,42)"/>
<path d="M0 0 C0.833 0.006 1.667 0.011 2.525 0.017 C17.963 0.319 30.012 5.835 41.176 16.488 C56.661 33.478 60.378 56.55 59.673 78.741 C58.537 98.611 51.809 118.649 36.75 132.312 C23.246 142.731 8.454 145.638 -8.25 144.312 C-23.493 141.51 -34.142 133.457 -43.25 121.312 C-43.58 143.423 -43.91 165.533 -44.25 188.312 C-51.84 188.312 -59.43 188.312 -67.25 188.312 C-67.25 126.933 -67.25 65.553 -67.25 2.312 C-59.66 2.312 -52.07 2.312 -44.25 2.312 C-43.92 9.573 -43.59 16.833 -43.25 24.312 C-42.673 23.467 -42.673 23.467 -39.75 19.188 C-30.206 6.128 -16.017 -0.114 0 0 Z M-32.516 34.031 C-39.955 43.816 -43.394 55.192 -44.25 67.312 C-44.304 68.049 -44.358 68.785 -44.414 69.543 C-44.987 85.084 -40.769 100.726 -30.25 112.312 C-23.39 119.426 -15.036 123.14 -5.188 123.562 C4.433 123.402 12.737 120.989 19.75 114.312 C20.44 113.663 21.129 113.013 21.84 112.344 C33.285 100.579 35.122 85.568 35.051 69.867 C34.756 55.761 31.43 41.463 21.508 30.84 C13.138 23.568 4.468 20.821 -6.449 21.062 C-16.648 21.973 -25.477 26.669 -32.516 34.031 Z " fill="#FEFEFE" transform="translate(694.25,92.6875)"/>
</svg>
