<?xml version="1.0" encoding="UTF-8"?>
<!-- Generator: visioncortex VTracer 0.6.12 -->
<svg version="1.1" xmlns="http://www.w3.org/2000/svg" width="504" height="320">
<path d="M0 0 C9.729 -0.047 19.457 -0.082 29.186 -0.104 C33.705 -0.114 38.225 -0.128 42.744 -0.151 C47.121 -0.173 51.497 -0.185 55.874 -0.19 C57.528 -0.193 59.183 -0.201 60.837 -0.211 C69.536 -0.267 78.106 -0.041 86.76 0.903 C87.493 0.983 88.226 1.062 88.981 1.145 C105.248 3.104 119.554 10.856 130.039 23.449 C141.401 38.848 143.148 57.716 140.695 76.31 C138.27 89.069 130.755 101.501 120.113 109.047 C118.2 110.257 116.271 111.441 114.32 112.59 C112 114 112 114 110 116 C125.068 144.513 125.068 144.513 132.938 158.312 C136.809 165.104 140.635 171.913 144.312 178.812 C144.692 179.519 145.072 180.225 145.463 180.952 C148 185.757 148 185.757 148 188 C133.48 188 118.96 188 104 188 C93.664 169.625 93.664 169.625 90.465 163.527 C90.097 162.831 89.729 162.134 89.35 161.417 C88.211 159.258 87.074 157.098 85.938 154.938 C85.179 153.499 84.421 152.061 83.662 150.623 C83.29 149.913 82.918 149.204 82.534 148.473 C81.782 147.056 81.017 145.646 80.237 144.244 C78.317 140.753 76.766 137.468 75.645 133.637 C72.968 125.514 72.968 125.514 69 123 C59.896 120.835 50.275 121.445 41 122 C41.002 122.812 41.004 123.624 41.007 124.461 C41.027 132.098 41.042 139.736 41.052 147.373 C41.057 151.3 41.064 155.227 41.075 159.154 C41.086 162.94 41.092 166.727 41.095 170.513 C41.097 171.961 41.1 173.409 41.106 174.857 C41.113 176.878 41.113 178.899 41.114 180.92 C41.116 182.072 41.118 183.225 41.12 184.412 C41 187 41 187 40 188 C37.127 188.101 34.279 188.14 31.406 188.133 C30.544 188.134 29.683 188.135 28.795 188.136 C26.969 188.136 25.143 188.135 23.317 188.13 C20.512 188.125 17.707 188.13 14.902 188.137 C13.133 188.136 11.363 188.135 9.594 188.133 C8.749 188.135 7.904 188.137 7.034 188.139 C1.115 188.115 1.115 188.115 0 187 C-0.098 184.584 -0.13 182.197 -0.12 179.781 C-0.121 179.016 -0.122 178.252 -0.123 177.464 C-0.125 174.883 -0.119 172.302 -0.114 169.72 C-0.113 167.878 -0.113 166.035 -0.114 164.193 C-0.114 159.175 -0.108 154.156 -0.101 149.138 C-0.095 143.899 -0.095 138.661 -0.093 133.423 C-0.09 123.496 -0.082 113.568 -0.072 103.641 C-0.061 92.343 -0.055 81.044 -0.05 69.746 C-0.04 46.497 -0.022 23.249 0 0 Z M41 34 C41 52.15 41 70.3 41 89 C46.383 89.062 51.766 89.124 57.312 89.188 C58.987 89.215 60.662 89.242 62.388 89.27 C72.962 89.37 83.476 89.103 92 82 C97.849 76.014 100.116 70.465 100.438 62.188 C100.154 53.542 98.164 46.585 91.812 40.5 C85.302 34.798 77.412 33.536 69.027 33.707 C68.309 33.71 67.591 33.713 66.851 33.716 C64.213 33.732 61.575 33.774 58.938 33.812 C53.018 33.874 47.099 33.936 41 34 Z " fill="#FEFEFE" transform="translate(356,66)"/>
<path d="M0 0 C8.781 -0.047 17.563 -0.082 26.344 -0.104 C30.424 -0.114 34.504 -0.128 38.584 -0.151 C106.386 -0.522 106.386 -0.522 131 22 C131.682 22.59 132.364 23.181 133.066 23.789 C148.781 38.243 157.199 61.148 158.14 82.122 C159.001 113.001 155.195 140.897 133.312 164.25 C111.24 185.2 82.763 188.179 53.574 188.133 C52.05 188.133 50.525 188.134 49 188.136 C45.84 188.137 42.679 188.135 39.519 188.13 C35.461 188.125 31.404 188.128 27.346 188.134 C24.214 188.138 21.082 188.136 17.95 188.134 C16.452 188.133 14.954 188.134 13.456 188.136 C11.379 188.139 9.302 188.135 7.225 188.129 C6.044 188.129 4.863 188.128 3.646 188.127 C1 188 1 188 0 187 C-0.098 184.584 -0.13 182.197 -0.12 179.781 C-0.121 179.016 -0.122 178.252 -0.123 177.464 C-0.125 174.883 -0.119 172.302 -0.114 169.72 C-0.113 167.878 -0.113 166.035 -0.114 164.193 C-0.114 159.175 -0.108 154.156 -0.101 149.138 C-0.095 143.899 -0.095 138.661 -0.093 133.423 C-0.09 123.496 -0.082 113.568 -0.072 103.641 C-0.061 92.343 -0.055 81.044 -0.05 69.746 C-0.04 46.497 -0.022 23.249 0 0 Z M41 35 C41 73.94 41 112.88 41 153 C90.41 153 90.41 153 104.965 139.215 C118.498 124.486 118.609 103.761 118.141 84.909 C117.381 69.204 112.226 55.663 100.812 44.75 C84.377 31.513 60.018 35 41 35 Z " fill="#FEFEFE" transform="translate(180,66)"/>
<path d="M0 0 C13.2 0 26.4 0 40 0 C40 25.41 40 50.82 40 77 C66.07 77 92.14 77 119 77 C119 51.59 119 26.18 119 0 C132.2 0 145.4 0 159 0 C159 62.04 159 124.08 159 188 C145.8 188 132.6 188 119 188 C119 162.59 119 137.18 119 111 C92.93 111 66.86 111 40 111 C40 136.41 40 161.82 40 188 C26.8 188 13.6 188 0 188 C0 125.96 0 63.92 0 0 Z " fill="#FEFEFE" transform="translate(0,66)"/>
</svg>
