<?xml version="1.0" encoding="UTF-8"?>
<!-- Generator: visioncortex VTracer 0.6.12 -->
<svg version="1.1" xmlns="http://www.w3.org/2000/svg" width="563" height="320">
<path d="M0 0 C18.15 0 36.3 0 55 0 C65.526 20.242 75.849 40.568 86 61 C88.418 57.973 90.175 54.888 91.895 51.421 C92.452 50.304 93.009 49.186 93.583 48.034 C94.183 46.821 94.783 45.608 95.383 44.395 C96.003 43.147 96.625 41.899 97.246 40.652 C98.877 37.378 100.503 34.101 102.127 30.824 C104.734 25.568 107.346 20.314 109.961 15.061 C110.874 13.225 111.784 11.387 112.695 9.549 C112.97 8.995 112.97 8.995 114.364 6.191 C114.85 5.21 115.336 4.23 115.837 3.219 C117 1 117 1 118 0 C119.719 -0.094 121.441 -0.117 123.162 -0.114 C124.279 -0.113 125.395 -0.113 126.546 -0.113 C127.137 -0.111 127.137 -0.111 130.129 -0.098 C130.669 -0.097 130.669 -0.097 133.402 -0.095 C137.456 -0.089 141.509 -0.075 145.562 -0.062 C154.617 -0.042 163.671 -0.021 173 0 C173 35.31 173 70.62 173 107 C162.77 107 152.54 107 142 107 C142 81.59 142 56.18 142 30 C137 31 137 31 135.713 32.484 C135.402 33.123 135.091 33.762 134.771 34.42 C134.406 35.148 134.041 35.875 133.665 36.624 C133.477 37.023 133.477 37.023 132.523 39.039 C132.116 39.864 131.709 40.689 131.289 41.538 C129.967 44.226 128.671 46.925 127.375 49.625 C126.474 51.469 125.571 53.311 124.667 55.154 C122.087 60.424 119.538 65.709 117 71 C116.672 71.682 116.345 72.364 116.007 73.067 C113.797 77.667 111.593 82.271 109.412 86.885 C106.17 93.73 102.678 100.38 99 107 C90.42 107 81.84 107 73 107 C70.238 101.293 70.238 101.293 69.264 99.279 C67.576 95.792 65.885 92.307 64.188 88.824 C60.373 80.987 56.584 73.14 52.855 65.261 C50.982 61.308 49.093 57.362 47.203 53.416 C46.276 51.472 45.355 49.524 44.441 47.574 C43.151 44.822 41.838 42.082 40.52 39.344 C40.328 38.928 40.328 38.928 39.359 36.826 C38.991 36.071 38.622 35.315 38.241 34.537 C37.928 33.875 37.614 33.213 37.291 32.531 C36 31 36 31 31 30 C31 55.41 31 80.82 31 107 C20.77 107 10.54 107 0 107 C0 71.69 0 36.38 0 0 Z " fill="#FEFEFE" transform="translate(57,64)"/>
<path d="M0 0 C16.83 0 33.66 0 51 0 C52.761 3.533 54.522 7.067 56.336 10.707 C57.771 13.584 59.207 16.461 60.643 19.338 C62.142 22.341 63.64 25.345 65.137 28.35 C71.146 40.41 77.176 52.449 83.492 64.351 C87.439 71.798 91.249 79.311 95.018 86.85 C96.156 89.124 97.301 91.395 98.445 93.666 C99.175 95.122 99.904 96.579 100.633 98.035 C100.973 98.709 101.314 99.383 101.665 100.077 C104 104.771 104 104.771 104 107 C92.12 107 80.24 107 68 107 C65.03 101.39 62.06 95.78 59 90 C36.89 90 14.78 90 -8 90 C-10.97 95.61 -13.94 101.22 -17 107 C-29.21 107 -41.42 107 -54 107 C-48.039 94.254 -41.847 81.668 -35.404 69.159 C-32.877 64.254 -30.36 59.344 -27.844 54.434 C-27.344 53.459 -26.845 52.485 -26.331 51.482 C-21.159 41.38 -16.083 31.231 -11.049 21.06 C-10.756 20.471 -10.756 20.471 -9.277 17.492 C-8.785 16.496 -8.292 15.499 -7.785 14.472 C-5.281 9.6 -2.623 4.809 0 0 Z M23 25 C20.292 30.392 17.586 35.786 14.882 41.18 C13.961 43.017 13.04 44.853 12.118 46.689 C10.795 49.322 9.476 51.956 8.156 54.59 C7.741 55.416 7.325 56.242 6.897 57.093 C6.516 57.854 6.136 58.614 5.744 59.398 C5.407 60.071 5.069 60.744 4.721 61.437 C4 63 4 63 4 64 C17.86 64 31.72 64 46 64 C43.75 57.25 43.75 57.25 42.212 54.29 C41.872 53.629 41.532 52.969 41.181 52.289 C40.82 51.598 40.458 50.907 40.086 50.195 C39.899 49.833 39.899 49.833 38.951 48.001 C37.763 45.707 36.569 43.416 35.375 41.125 C34.565 39.563 33.755 38 32.945 36.438 C30.968 32.623 28.986 28.811 27 25 C25.68 25 24.36 25 23 25 Z " fill="#FEFEFE" transform="translate(289,64)"/>
<path d="M0 0 C5.959 -0.273 11.914 -0.472 17.877 -0.604 C19.902 -0.659 21.926 -0.734 23.949 -0.83 C40.705 -1.601 40.705 -1.601 46.132 2.186 C48.438 5.004 50.212 7.833 52 11 C53.222 12.565 54.476 14.107 55.766 15.617 C56.346 16.326 56.926 17.035 57.523 17.766 C58.093 18.462 58.663 19.158 59.25 19.875 C59.835 20.594 60.42 21.314 61.023 22.055 C64.184 25.91 67.401 29.549 71 33 C71.51 32.368 72.021 31.737 72.547 31.086 C77.486 25.009 82.511 19.024 87.661 13.125 C88.138 12.574 88.614 12.024 89.105 11.457 C89.56 10.938 90.014 10.419 90.482 9.885 C92 8 92 8 93.252 5.94 C96.705 0.422 96.705 0.422 100.155 -0.702 C102.73 -0.925 105.192 -0.901 107.773 -0.781 C108.235 -0.776 108.235 -0.776 110.573 -0.747 C113.509 -0.702 116.44 -0.602 119.375 -0.5 C121.371 -0.46 123.367 -0.423 125.363 -0.391 C130.244 -0.303 135.121 -0.165 140 0 C139.055 1.268 138.109 2.535 137.163 3.802 C136.636 4.508 136.11 5.213 135.567 5.941 C133.408 8.778 131.13 11.477 128.812 14.188 C127.85 15.316 126.888 16.445 125.926 17.574 C125.441 18.142 124.955 18.71 124.456 19.294 C121.674 22.554 118.91 25.828 116.148 29.104 C113.752 31.943 111.339 34.765 108.898 37.566 C108.392 38.152 107.887 38.737 107.365 39.34 C106.396 40.461 105.421 41.577 104.439 42.688 C100.027 47.811 100.027 47.811 100 51 C101.117 52.789 101.117 52.789 102.875 54.625 C103.522 55.319 104.169 56.012 104.836 56.727 C105.55 57.477 106.264 58.227 107 59 C108.504 60.663 110.004 62.33 111.5 64 C112.263 64.846 113.026 65.691 113.812 66.562 C116.297 69.331 118.744 72.132 121.188 74.938 C123.272 77.31 125.384 79.656 127.5 82 C130.756 85.608 133.976 89.243 137.16 92.914 C138.566 94.508 139.995 96.083 141.434 97.648 C141.847 98.098 141.847 98.098 143.938 100.375 C144.324 100.791 144.324 100.791 146.277 102.898 C148 105 148 105 148 107 C141.756 107.248 135.516 107.429 129.268 107.549 C127.147 107.599 125.025 107.667 122.905 107.754 C105.309 108.457 105.309 108.457 99.708 104.923 C97.424 102.398 95.701 99.941 94 97 C93.165 96 92.329 94.999 91.469 93.969 C90.819 93.154 90.169 92.339 89.5 91.5 C85.813 86.943 81.966 82.572 78.02 78.238 C75.597 75.554 73.285 72.801 71 70 C67.282 71.239 66.449 72.675 64.062 75.75 C60.536 80.177 56.875 84.376 53 88.5 C48.323 93.49 43.925 98.616 39.645 103.953 C38 106 38 106 37 107 C35.588 107.093 34.171 107.117 32.756 107.114 C31.855 107.113 30.954 107.113 30.026 107.113 C29.047 107.108 28.067 107.103 27.059 107.098 C26.061 107.096 25.064 107.095 24.036 107.093 C20.837 107.088 17.637 107.075 14.438 107.062 C12.274 107.057 10.111 107.053 7.947 107.049 C2.631 107.038 -2.684 107.021 -8 107 C-6.651 104.209 -5.348 102.079 -3.207 99.828 C-2.663 99.25 -2.118 98.672 -1.558 98.077 C-0.982 97.474 -0.406 96.871 0.188 96.25 C1.375 94.99 2.561 93.73 3.746 92.469 C4.313 91.867 4.88 91.265 5.464 90.645 C7.817 88.125 10.076 85.531 12.328 82.922 C14.358 80.589 16.428 78.295 18.5 76 C25.867 67.826 32.981 59.473 40 51 C38.592 46.706 36.541 44.13 33.438 40.875 C29.228 36.385 25.288 31.749 21.422 26.957 C18.629 23.547 15.757 20.21 12.875 16.875 C0 1.94 0 1.94 0 0 Z " fill="#FEFFFE" transform="translate(402,64)"/>
<path d="M0 0 C11.22 0 22.44 0 34 0 C34 35.31 34 70.62 34 107 C22.78 107 11.56 107 0 107 C0 71.69 0 36.38 0 0 Z " fill="#FFFEFE" transform="translate(0,64)"/>
<path d="M0 0 C39.34 0 39.34 0 51 10 C58.26 17.538 59.477 26.628 59.426 36.684 C59.232 42.747 57.998 47.677 55 53 C54.402 54.072 53.804 55.145 53.188 56.25 C46.12 65.135 38.136 68.409 27 70 C18.09 70 9.18 70 0 70 C0 46.9 0 23.8 0 0 Z M6 5 C6 24.47 6 43.94 6 64 C36.251 64 36.251 64 45 56 C51.148 48.744 53.521 41.378 53.312 31.906 C52.453 23.912 49.335 16.154 43 11 C30.287 3.276 22.853 5 6 5 Z " fill="#FEFFFF" transform="translate(490,186)"/>
<path d="M0 0 C4.337 1.084 4.983 1.684 7.75 4.938 C8.453 5.76 9.155 6.582 9.879 7.43 C12.515 10.624 15.117 13.842 17.688 17.09 C20.495 20.623 23.339 24.125 26.188 27.625 C26.735 28.298 27.282 28.971 27.846 29.665 C30.779 33.273 33.716 36.878 36.656 40.48 C37.248 41.206 37.839 41.932 38.448 42.679 C39.585 44.074 40.723 45.467 41.862 46.86 C42.376 47.49 42.889 48.12 43.418 48.77 C43.869 49.322 44.321 49.875 44.786 50.445 C45.929 51.91 46.969 53.454 48 55 C48.33 36.85 48.66 18.7 49 0 C50.98 0 52.96 0 55 0 C55 22.77 55 45.54 55 69 C51 69 51 69 48.59 66.648 C47.693 65.568 46.81 64.476 45.938 63.375 C45.459 62.791 44.981 62.207 44.488 61.605 C40.634 56.874 36.88 52.06 33.133 47.243 C29.515 42.604 25.752 38.106 21.932 33.633 C16.76 27.57 11.781 21.375 7 15 C6.67 33.15 6.34 51.3 6 70 C4.02 70 2.04 70 0 70 C0 46.9 0 23.8 0 0 Z " fill="#FFFFFF" transform="translate(283,186)"/>
<path d="M0 0 C4.866 1.216 6.24 3.417 9.062 7.25 C10.037 8.533 11.014 9.814 11.992 11.094 C12.489 11.746 12.987 12.398 13.499 13.07 C15.808 16.039 18.239 18.896 20.688 21.75 C24.553 26.274 28.327 30.857 32.023 35.52 C34.953 39.196 37.939 42.825 40.922 46.457 C42.965 48.957 44.983 51.479 47 54 C47.33 36.18 47.66 18.36 48 0 C49.98 0 51.96 0 54 0 C54 23.1 54 46.2 54 70 C49.134 68.784 47.76 66.583 44.938 62.75 C43.963 61.467 42.986 60.186 42.008 58.906 C41.511 58.254 41.013 57.602 40.501 56.93 C38.192 53.961 35.761 51.104 33.312 48.25 C29.447 43.726 25.673 39.143 21.977 34.48 C19.047 30.804 16.061 27.175 13.078 23.543 C11.035 21.043 9.017 18.521 7 16 C6.67 33.82 6.34 51.64 6 70 C4.02 70 2.04 70 0 70 C0 46.9 0 23.8 0 0 Z " fill="#FFFFFF" transform="translate(64,186)"/>
<path d="M0 0 C16.17 0 32.34 0 49 0 C49 1.98 49 3.96 49 6 C34.81 6 20.62 6 6 6 C6 14.58 6 23.16 6 32 C19.53 32 33.06 32 47 32 C47 33.65 47 35.3 47 37 C33.47 37 19.94 37 6 37 C6 45.91 6 54.82 6 64 C20.52 64 35.04 64 50 64 C50 65.98 50 67.96 50 70 C43.04 70.025 36.08 70.043 29.12 70.055 C26.75 70.06 24.38 70.067 22.01 70.075 C18.612 70.088 15.214 70.093 11.816 70.098 C10.75 70.103 9.683 70.108 8.584 70.113 C7.603 70.113 6.622 70.113 5.612 70.114 C4.743 70.116 3.875 70.118 2.98 70.12 C1 70 1 70 0 69 C-0.094 66.853 -0.117 64.702 -0.114 62.552 C-0.114 61.879 -0.114 61.206 -0.114 60.513 C-0.113 58.278 -0.105 56.043 -0.098 53.809 C-0.096 52.263 -0.094 50.717 -0.093 49.172 C-0.09 45.096 -0.08 41.021 -0.069 36.946 C-0.057 32.06 -0.052 27.174 -0.046 22.288 C-0.037 14.859 -0.017 7.429 0 0 Z " fill="#FFFFFF" transform="translate(426,186)"/>
<path d="M0 0 C15.84 0 31.68 0 48 0 C48 1.98 48 3.96 48 6 C34.14 6 20.28 6 6 6 C6 14.58 6 23.16 6 32 C19.2 32 32.4 32 46 32 C46 33.65 46 35.3 46 37 C32.8 37 19.6 37 6 37 C6 45.91 6 54.82 6 64 C20.19 64 34.38 64 49 64 C49 65.98 49 67.96 49 70 C32.83 70 16.66 70 0 70 C0 46.9 0 23.8 0 0 Z " fill="#FFFFFE" transform="translate(0,186)"/>
<path d="M0 0 C2.31 0 4.62 0 7 0 C14.796 16.918 22.567 33.849 30.074 50.898 C30.69 52.297 31.309 53.695 31.929 55.093 C32.792 57.038 33.647 58.987 34.5 60.938 C34.985 62.04 35.469 63.142 35.969 64.277 C37 67 37 67 37 70 C35.02 70 33.04 70 31 70 C28.69 64.72 26.38 59.44 24 54 C17.235 53.835 17.235 53.835 -17 53 C-17.66 54.98 -18.32 56.96 -19 59 C-19.849 60.97 -20.723 62.929 -21.625 64.875 C-22.071 65.842 -22.517 66.809 -22.977 67.805 C-23.145 68.167 -23.145 68.167 -24 70 C-25.98 70 -27.96 70 -30 70 C-29.417 64.452 -27.412 59.999 -25.098 55 C-24.901 54.567 -24.901 54.567 -23.904 52.377 C-22.63 49.582 -21.347 46.791 -20.062 44 C-19.191 42.092 -18.32 40.184 -17.45 38.276 C-15.744 34.538 -14.035 30.802 -12.322 27.067 C-9.468 20.844 -6.64 14.61 -3.812 8.375 C-2.543 5.583 -1.271 2.791 0 0 Z M3 7 C-14 43.823 -14 43.823 -14 47 C-2.45 47 9.1 47 21 47 C15.375 32.375 15.375 32.375 12.887 26.824 C12.361 25.648 11.836 24.472 11.295 23.26 C10.764 22.081 10.234 20.902 9.688 19.688 C9.132 18.446 8.577 17.205 8.021 15.963 C6.684 12.974 5.343 9.986 4 7 C3.67 7 3.34 7 3 7 Z " fill="#FEFEFE" transform="translate(234,186)"/>
<path d="M0 0 C1.98 0 3.96 0 6 0 C6 10.89 6 21.78 6 33 C20.19 33 34.38 33 49 33 C49 22.11 49 11.22 49 0 C50.98 0 52.96 0 55 0 C55.023 8.979 55.041 17.958 55.052 26.938 C55.057 31.107 55.064 35.276 55.075 39.445 C55.086 43.465 55.092 47.485 55.095 51.505 C55.097 53.042 55.1 54.579 55.106 56.116 C55.113 58.261 55.114 60.407 55.114 62.552 C55.116 63.776 55.118 65 55.12 66.26 C55 69 55 69 54 70 C52.35 70 50.7 70 49 70 C49 59.44 49 48.88 49 38 C34.81 38 20.62 38 6 38 C6 48.56 6 59.12 6 70 C4.02 70 2.04 70 0 70 C0 46.9 0 23.8 0 0 Z " fill="#FFFEFF" transform="translate(137,186)"/>
<path d="M0 0 C0.623 0.334 1.245 0.668 1.887 1.012 C3.562 2 3.562 2 6 4 C6 5.32 6 6.64 6 8 C5.01 8.66 4.02 9.32 3 10 C2.432 9.59 1.863 9.18 1.277 8.758 C-7.219 2.829 -14.64 0.943 -25 2 C-32.392 3.848 -39.084 7.474 -43.281 13.988 C-47.764 22.49 -48.312 31.999 -45.812 41.25 C-43.353 48.435 -39.808 53.203 -33.176 57 C-24.725 60.884 -16.198 60.784 -7.445 58 C-3.804 56.511 -1.058 54.46 2 52 C3.32 52.66 4.64 53.32 6 54 C6 55.32 6 56.64 6 58 C4.023 59.633 4.023 59.633 1.375 61.125 C0.516 61.623 -0.342 62.12 -1.227 62.633 C-10.593 67.25 -21.452 67.544 -31.562 65.16 C-39.858 62.018 -46.107 56.882 -50.375 49.062 C-54.83 38.951 -55.545 27.507 -52 17 C-48.353 8.552 -42.742 1.584 -34.219 -2.219 C-22.632 -6.299 -10.79 -6.023 0 0 Z " fill="#FFFFFF" transform="translate(406,190)"/>
<path d="M0 0 C3.065 2.043 3.822 3.441 4.938 6.938 C5.015 10.734 4.523 12.162 2 15 C-1.375 16.5 -1.375 16.5 -5 17 C-7.975 15.678 -9.709 14.291 -12 12 C-12.667 5.111 -12.667 5.111 -10.5 1.5 C-6.974 -0.616 -4.012 -0.807 0 0 Z M-6 2 C-6 2.33 -6 2.66 -6 3 C-4.35 3 -2.7 3 -1 3 C-1 2.67 -1 2.34 -1 2 C-2.65 2 -4.3 2 -6 2 Z M-9 4 C-9.625 6.875 -9.625 6.875 -10 10 C-9.34 10.66 -8.68 11.32 -8 12 C-8 9.36 -8 6.72 -8 4 C-8.33 4 -8.66 4 -9 4 Z M0 4 C0 6.64 0 9.28 0 12 C0.66 11.67 1.32 11.34 2 11 C2 9.02 2 7.04 2 5 C1.34 4.67 0.68 4.34 0 4 Z M-5 6 C-5 6.66 -5 7.32 -5 8 C-4.01 7.67 -3.02 7.34 -2 7 C-2.99 6.67 -3.98 6.34 -5 6 Z M-5 10 C-5 10.99 -5 11.98 -5 13 C-5.33 13.165 -5.33 13.165 -7 14 C-5.02 14 -3.04 14 -1 14 C-1.66 13.67 -2.32 13.34 -3 13 C-3 12.01 -3 11.02 -3 10 C-3.66 10 -4.32 10 -5 10 Z " fill="#FFFFFF" transform="translate(558,64)"/>
</svg>
